<?xml version="1.0" encoding="UTF-8" standalone="no"?>
<!-- Created with Inkscape (http://www.inkscape.org/) -->

<svg
   xmlns:dc="http://purl.org/dc/elements/1.1/"
   xmlns:cc="http://creativecommons.org/ns#"
   xmlns:rdf="http://www.w3.org/1999/02/22-rdf-syntax-ns#"
   xmlns:svg="http://www.w3.org/2000/svg"
   xmlns="http://www.w3.org/2000/svg"
   xmlns:sodipodi="http://sodipodi.sourceforge.net/DTD/sodipodi-0.dtd"
   xmlns:inkscape="http://www.inkscape.org/namespaces/inkscape"
   width="22"
   height="22"
   id="svg2985"
   version="1.1"
   inkscape:version="0.48.4 r9939"
   sodipodi:docname="st.svg">
  <defs
     id="defs2987" />
  <sodipodi:namedview
     id="base"
     pagecolor="#2b2b2b"
     bordercolor="#666666"
     borderopacity="1.0"
     inkscape:pageopacity="1"
     inkscape:pageshadow="2"
     inkscape:zoom="11.098901"
     inkscape:cx="-8.578218"
     inkscape:cy="9.3965347"
     inkscape:current-layer="layer1"
     showgrid="true"
     inkscape:grid-bbox="true"
     inkscape:document-units="px"
     inkscape:window-width="1360"
     inkscape:window-height="717"
     inkscape:window-x="0"
     inkscape:window-y="25"
     inkscape:window-maximized="1" />
  <metadata
     id="metadata2990">
    <rdf:RDF>
      <cc:Work
         rdf:about="">
        <dc:format>image/svg+xml</dc:format>
        <dc:type
           rdf:resource="http://purl.org/dc/dcmitype/StillImage" />
        <dc:title></dc:title>
      </cc:Work>
    </rdf:RDF>
  </metadata>
  <g
     id="layer1"
     inkscape:label="Layer 1"
     inkscape:groupmode="layer"
     transform="translate(0,6)">
    <g
       inkscape:label="Layer 1"
       id="layer1-0"
       transform="matrix(1.0908714,0,0,1.0908714,2.5332262,-3.4716048)">
      <path
         sodipodi:nodetypes="cccc"
         inkscape:connector-curvature="0"
         id="path3002"
         d="M 8.0295567,14.351 15.933994,2.8365694 C 10.411074,1.25807 5.1014193,1.1666979 0.07,2.8632097 z"
         style="color:#000000;fill:#d52a2a;fill-opacity:1;stroke:none;stroke-width:2;marker:none;visibility:visible;display:inline;overflow:visible;enable-background:accumulate" />
      <g
         id="text4133"
         style="font-size:11px;font-style:normal;font-weight:bold;line-height:125%;letter-spacing:0px;word-spacing:0px;fill:#000000;fill-opacity:1;stroke:none;font-family:Sans;-inkscape-font-specification:Sans Bold">
        <path
           style="fill:#ffbf00;fill-opacity:1"
           sodipodi:nodetypes="csccccccccccccccccccccccccccccc"
           inkscape:connector-curvature="0"
           id="path4138"
           d="m 8.9016933,3.1124001 c 0,0.1857667 0,0.3412673 0,0.4927962 0,0.1515289 0,0.2990859 0,0.4689653 l 0,0.1923523 0,0.1923522 0,0.1923523 0,0.1923523 0,0.1923523 0,0.1923523 0,0.1923523 0,0.1923523 0,0.1923523 0,0.1923523 -0.2739257,2.2451172 -1.3857422,0 -0.2739258,-2.2451172 0,-0.1923523 0,-0.1923523 0,-0.1923523 0,-0.1923523 0,-0.1923523 0,-0.1923523 0,-0.1923523 0,-0.1923522 0,-0.1923523 0,-0.1923523 0,-0.1923523 0,-0.1923523 0,-0.1923523 0,-0.1923523 0,-0.1923523" />
      </g>
      <rect
         ry="0.27938637"
         y="2.8326042"
         x="6.9675617"
         height="0.97826749"
         width="1.9348698"
         id="rect4142"
         style="color:#000000;fill:#ffbf00;fill-opacity:1;stroke:none;stroke-width:2;marker:none;visibility:visible;display:inline;overflow:visible;enable-background:accumulate" />
      <rect
         ry="0.27938637"
         y="8.953125"
         x="7.015625"
         height="1.921875"
         width="1.953125"
         id="rect4144"
         style="color:#000000;fill:#ffbf00;fill-opacity:1;stroke:none;stroke-width:2;marker:none;visibility:visible;display:inline;overflow:visible;enable-background:accumulate" />
    </g>
  </g>
</svg>
