<?xml version="1.0" encoding="UTF-8" standalone="no"?>
<!-- Created with Inkscape (http://www.inkscape.org/) -->

<svg
   xmlns:osb="http://www.openswatchbook.org/uri/2009/osb"
   xmlns:dc="http://purl.org/dc/elements/1.1/"
   xmlns:cc="http://creativecommons.org/ns#"
   xmlns:rdf="http://www.w3.org/1999/02/22-rdf-syntax-ns#"
   xmlns:svg="http://www.w3.org/2000/svg"
   xmlns="http://www.w3.org/2000/svg"
   xmlns:xlink="http://www.w3.org/1999/xlink"
   xmlns:sodipodi="http://sodipodi.sourceforge.net/DTD/sodipodi-0.dtd"
   xmlns:inkscape="http://www.inkscape.org/namespaces/inkscape"
   width="512"
   height="512"
   viewBox="0 0 512.00001 512.00001"
   id="svg4204"
   version="1.1"
   inkscape:version="0.92.3 (2405546, 2018-03-11)"
   sodipodi:docname="folder-applications.svg">
  <defs
     id="defs4206">
    <linearGradient
       inkscape:collect="always"
       id="linearGradient959">
      <stop
         style="stop-color:#000000;stop-opacity:1;"
         offset="0"
         id="stop955" />
      <stop
         style="stop-color:#000000;stop-opacity:0;"
         offset="1"
         id="stop957" />
    </linearGradient>
    <linearGradient
       id="linearGradient4939">
      <stop
         style="stop-color:#000000;stop-opacity:0.61774744"
         offset="0"
         id="stop4941" />
      <stop
         style="stop-color:#000000;stop-opacity:0;"
         offset="1"
         id="stop4943" />
    </linearGradient>
    <linearGradient
       id="linearGradient3889">
      <stop
         id="stop3891"
         offset="0"
         style="stop-color:#000000;stop-opacity:0.55290102" />
      <stop
         id="stop3893"
         offset="1"
         style="stop-color:#000000;stop-opacity:0;" />
    </linearGradient>
    <linearGradient
       id="linearGradient3783">
      <stop
         id="stop3785"
         offset="0"
         style="stop-color:#000000;stop-opacity:1;" />
      <stop
         id="stop3787"
         offset="1"
         style="stop-color:#fb5549;stop-opacity:0;" />
    </linearGradient>
    <linearGradient
       gradientUnits="userSpaceOnUse"
       y2="1369.8314"
       x2="-1068.8168"
       y1="379.88196"
       x1="-3045.6099"
       id="linearGradient3789"
       xlink:href="#linearGradient3783"
       inkscape:collect="always" />
    <clipPath
       id="clipPath3793"
       clipPathUnits="userSpaceOnUse">
      <path
         sodipodi:type="arc"
         style="fill:#fb5549;fill-opacity:1;fill-rule:evenodd;stroke:none"
         id="path3795"
         sodipodi:cx="-1700"
         sodipodi:cy="872.36218"
         sodipodi:rx="762.85712"
         sodipodi:ry="762.85712"
         d="m -937.14288,872.36218 a 762.85712,762.85712 0 1 1 -1525.71422,0 762.85712,762.85712 0 1 1 1525.71422,0 z" />
    </clipPath>
    <clipPath
       id="clipPath3899"
       clipPathUnits="userSpaceOnUse">
      <path
         style="color:#000000;fill:#1cc1c1;fill-opacity:1;fill-rule:evenodd;stroke:none;stroke-width:46.59999847;marker:none;visibility:visible;display:inline;overflow:visible;enable-background:accumulate"
         d="m 54.285714,83.428574 407.142846,0 c 16.62,0 30,13.38 30,29.999996 0,48.33333 -4.28571,96.66667 -4.28571,145 l 0,145 c 0,16.62 -13.38,30 -30,30 l -397.14285,0 c -16.62,0 -30,-13.38 -30,-30 l 0,-145 c 0,-48.33333 -5.714286,-96.66667 -5.714286,-145 0,-16.619996 13.38,-29.999996 30,-29.999996 z"
         id="path3901"
         inkscape:connector-curvature="0"
         sodipodi:nodetypes="ssccssssccs" />
    </clipPath>
    <clipPath
       id="clipPath4230"
       clipPathUnits="userSpaceOnUse">
      <path
         style="color:#000000;display:inline;overflow:visible;visibility:visible;fill:#708299;fill-opacity:1;fill-rule:evenodd;stroke:none;stroke-width:46.59999847;marker:none;enable-background:accumulate"
         d="m 54.285714,623.79075 407.142846,0 c 16.62,0 30,13.38 30,30 0,48.33333 -4.28571,96.66667 -4.28571,145 l 0,145 c 0,16.62 -13.38,30 -30,30 l -397.14285,0 c -16.62,0 -30,-13.38 -30,-30 l 0,-145 c 0,-48.33333 -5.714286,-96.66667 -5.714286,-145 0,-16.62 13.38,-30 30,-30 z"
         id="path4232"
         inkscape:connector-curvature="0"
         sodipodi:nodetypes="ssccssssccs" />
    </clipPath>
    <linearGradient
       gradientUnits="userSpaceOnUse"
       y2="1369.8314"
       x2="-1068.8168"
       y1="379.88196"
       x1="-3045.6099"
       id="linearGradient4838"
       xlink:href="#linearGradient3783"
       inkscape:collect="always" />
    <clipPath
       id="clipPath3793-6"
       clipPathUnits="userSpaceOnUse">
      <path
         sodipodi:type="arc"
         style="fill:#fb5549;fill-opacity:1;fill-rule:evenodd;stroke:none"
         id="path3795-2"
         sodipodi:cx="-1700"
         sodipodi:cy="872.36218"
         sodipodi:rx="762.85712"
         sodipodi:ry="762.85712"
         d="m -937.14288,872.36218 a 762.85712,762.85712 0 1 1 -1525.71422,0 762.85712,762.85712 0 1 1 1525.71422,0 z" />
    </clipPath>
    <linearGradient
       y2="1369.8314"
       x2="-1068.8168"
       y1="379.88196"
       x1="-3045.6099"
       gradientUnits="userSpaceOnUse"
       id="linearGradient3821"
       xlink:href="#linearGradient3783"
       inkscape:collect="always" />
    <clipPath
       id="clipPath3899-9"
       clipPathUnits="userSpaceOnUse">
      <path
         style="color:#000000;fill:#1cc1c1;fill-opacity:1;fill-rule:evenodd;stroke:none;stroke-width:46.59999847;marker:none;visibility:visible;display:inline;overflow:visible;enable-background:accumulate"
         d="m 54.285714,83.428574 407.142846,0 c 16.62,0 30,13.38 30,29.999996 0,48.33333 -4.28571,96.66667 -4.28571,145 l 0,145 c 0,16.62 -13.38,30 -30,30 l -397.14285,0 c -16.62,0 -30,-13.38 -30,-30 l 0,-145 c 0,-48.33333 -5.714286,-96.66667 -5.714286,-145 0,-16.619996 13.38,-29.999996 30,-29.999996 z"
         id="path3901-1"
         inkscape:connector-curvature="0"
         sodipodi:nodetypes="ssccssssccs" />
    </clipPath>
    <clipPath
       clipPathUnits="userSpaceOnUse"
       id="clipPath4947">
      <path
         sodipodi:nodetypes="ssscsssscss"
         inkscape:connector-curvature="0"
         id="path4949"
         d="m 18.770105,689.93509 467.515915,0 c 9.37414,0 17.32699,7.5555 16.9208,16.92084 l -11.17846,141.28538 -1.07694,141.28539 c -0.0714,9.37385 -7.54667,16.9208 -16.92081,16.9208 l -444.119242,0 c -9.37414,0 -16.551505,-7.55397 -16.920804,-16.9208 L 12.470675,848.14131 1.8492602,706.85593 C 1.1465226,697.50816 9.3959655,689.93509 18.770105,689.93509 Z"
         style="opacity:1;fill:#708299;fill-opacity:1;stroke:none;stroke-width:20;stroke-linecap:round;stroke-linejoin:round;stroke-miterlimit:4;stroke-dasharray:none;stroke-opacity:1" />
    </clipPath>
    <linearGradient
       id="linearGradient3866">
      <stop
         style="stop-color:#000000;stop-opacity:0.52083331"
         offset="0"
         id="stop3868" />
      <stop
         style="stop-color:#2883c3;stop-opacity:0;"
         offset="1"
         id="stop3870" />
    </linearGradient>
    <linearGradient
       id="linearGradient3874">
      <stop
         style="stop-color:#000d0e;stop-opacity:0.84105963;"
         offset="0"
         id="stop3876" />
      <stop
         style="stop-color:#000000;stop-opacity:0;"
         offset="1"
         id="stop3878" />
    </linearGradient>
    <linearGradient
       id="linearGradient4232">
      <stop
         style="stop-color:#3889e9;stop-opacity:1"
         offset="0"
         id="stop4234-0" />
      <stop
         style="stop-color:#5ea5fb;stop-opacity:1"
         offset="1"
         id="stop4236" />
    </linearGradient>
    <style
       id="current-color-scheme"
       type="text/css">.ColorScheme-Text {
        color:#31363b;
      }
      .ColorScheme-Background{
        color:#eff0f1;
      }
      .ColorScheme-ViewText {
        color:#31363b;
      }
      .ColorScheme-ViewBackground{
        color:#fcfcfc;
      }
      .ColorScheme-ViewHover {
        color:#3daee9;
      }
      .ColorScheme-ViewFocus{
        color:#3daee9;
      }
      .ColorScheme-ButtonText {
        color:#31363b;
      }
      .ColorScheme-ButtonBackground{
        color:#eff0f1;
      }
      .ColorScheme-ButtonHover {
        color:#3daee9;
      }
      .ColorScheme-ButtonFocus{
        color:#3daee9;
      }</style>
    <style
       id="current-color-scheme-8"
       type="text/css">.ColorScheme-Text {
        color:#31363b;
      }
      .ColorScheme-Background{
        color:#eff0f1;
      }
      .ColorScheme-ViewText {
        color:#31363b;
      }
      .ColorScheme-ViewBackground{
        color:#fcfcfc;
      }
      .ColorScheme-ViewHover {
        color:#3daee9;
      }
      .ColorScheme-ViewFocus{
        color:#3daee9;
      }
      .ColorScheme-ButtonText {
        color:#31363b;
      }
      .ColorScheme-ButtonBackground{
        color:#eff0f1;
      }
      .ColorScheme-ButtonHover {
        color:#3daee9;
      }
      .ColorScheme-ButtonFocus{
        color:#3daee9;
      }</style>
    <style
       id="current-color-scheme-7"
       type="text/css">.ColorScheme-Text {
        color:#31363b;
      }
      .ColorScheme-Background{
        color:#eff0f1;
      }
      .ColorScheme-ViewText {
        color:#31363b;
      }
      .ColorScheme-ViewBackground{
        color:#fcfcfc;
      }
      .ColorScheme-ViewHover {
        color:#3daee9;
      }
      .ColorScheme-ViewFocus{
        color:#3daee9;
      }
      .ColorScheme-ButtonText {
        color:#31363b;
      }
      .ColorScheme-ButtonBackground{
        color:#eff0f1;
      }
      .ColorScheme-ButtonHover {
        color:#3daee9;
      }
      .ColorScheme-ButtonFocus{
        color:#3daee9;
      }</style>
    <linearGradient
       osb:paint="gradient"
       id="linearGradient4207">
      <stop
         id="stop3371"
         offset="0"
         style="stop-color:#3498db;stop-opacity:1;" />
      <stop
         id="stop3373"
         offset="1"
         style="stop-color:#3498db;stop-opacity:0;" />
    </linearGradient>
    <style
       id="current-color-scheme-0"
       type="text/css">.ColorScheme-Text {
        color:#31363b;
      }
      .ColorScheme-Background{
        color:#eff0f1;
      }
      .ColorScheme-ViewText {
        color:#31363b;
      }
      .ColorScheme-ViewBackground{
        color:#fcfcfc;
      }
      .ColorScheme-ViewHover {
        color:#3daee9;
      }
      .ColorScheme-ViewFocus{
        color:#3daee9;
      }
      .ColorScheme-ButtonText {
        color:#31363b;
      }
      .ColorScheme-ButtonBackground{
        color:#eff0f1;
      }
      .ColorScheme-ButtonHover {
        color:#3daee9;
      }
      .ColorScheme-ButtonFocus{
        color:#3daee9;
      }</style>
    <style
       id="current-color-scheme-8-6"
       type="text/css">.ColorScheme-Text {
        color:#31363b;
      }
      .ColorScheme-Background{
        color:#eff0f1;
      }
      .ColorScheme-ViewText {
        color:#31363b;
      }
      .ColorScheme-ViewBackground{
        color:#fcfcfc;
      }
      .ColorScheme-ViewHover {
        color:#3daee9;
      }
      .ColorScheme-ViewFocus{
        color:#3daee9;
      }
      .ColorScheme-ButtonText {
        color:#31363b;
      }
      .ColorScheme-ButtonBackground{
        color:#eff0f1;
      }
      .ColorScheme-ButtonHover {
        color:#3daee9;
      }
      .ColorScheme-ButtonFocus{
        color:#3daee9;
      }</style>
    <style
       id="current-color-scheme-7-6"
       type="text/css">.ColorScheme-Text {
        color:#31363b;
      }
      .ColorScheme-Background{
        color:#eff0f1;
      }
      .ColorScheme-ViewText {
        color:#31363b;
      }
      .ColorScheme-ViewBackground{
        color:#fcfcfc;
      }
      .ColorScheme-ViewHover {
        color:#3daee9;
      }
      .ColorScheme-ViewFocus{
        color:#3daee9;
      }
      .ColorScheme-ButtonText {
        color:#31363b;
      }
      .ColorScheme-ButtonBackground{
        color:#eff0f1;
      }
      .ColorScheme-ButtonHover {
        color:#3daee9;
      }
      .ColorScheme-ButtonFocus{
        color:#3daee9;
      }</style>
    <style
       id="current-color-scheme-4"
       type="text/css">.ColorScheme-Text {
        color:#31363b;
      }
      .ColorScheme-Background{
        color:#eff0f1;
      }
      .ColorScheme-ViewText {
        color:#31363b;
      }
      .ColorScheme-ViewBackground{
        color:#fcfcfc;
      }
      .ColorScheme-ViewHover {
        color:#3daee9;
      }
      .ColorScheme-ViewFocus{
        color:#3daee9;
      }
      .ColorScheme-ButtonText {
        color:#31363b;
      }
      .ColorScheme-ButtonBackground{
        color:#eff0f1;
      }
      .ColorScheme-ButtonHover {
        color:#3daee9;
      }
      .ColorScheme-ButtonFocus{
        color:#3daee9;
      }</style>
    <style
       id="current-color-scheme-8-0"
       type="text/css">.ColorScheme-Text {
        color:#31363b;
      }
      .ColorScheme-Background{
        color:#eff0f1;
      }
      .ColorScheme-ViewText {
        color:#31363b;
      }
      .ColorScheme-ViewBackground{
        color:#fcfcfc;
      }
      .ColorScheme-ViewHover {
        color:#3daee9;
      }
      .ColorScheme-ViewFocus{
        color:#3daee9;
      }
      .ColorScheme-ButtonText {
        color:#31363b;
      }
      .ColorScheme-ButtonBackground{
        color:#eff0f1;
      }
      .ColorScheme-ButtonHover {
        color:#3daee9;
      }
      .ColorScheme-ButtonFocus{
        color:#3daee9;
      }</style>
    <style
       id="current-color-scheme-7-7"
       type="text/css">.ColorScheme-Text {
        color:#31363b;
      }
      .ColorScheme-Background{
        color:#eff0f1;
      }
      .ColorScheme-ViewText {
        color:#31363b;
      }
      .ColorScheme-ViewBackground{
        color:#fcfcfc;
      }
      .ColorScheme-ViewHover {
        color:#3daee9;
      }
      .ColorScheme-ViewFocus{
        color:#3daee9;
      }
      .ColorScheme-ButtonText {
        color:#31363b;
      }
      .ColorScheme-ButtonBackground{
        color:#eff0f1;
      }
      .ColorScheme-ButtonHover {
        color:#3daee9;
      }
      .ColorScheme-ButtonFocus{
        color:#3daee9;
      }</style>
    <linearGradient
       inkscape:collect="always"
       xlink:href="#linearGradient959"
       id="linearGradient961"
       x1="-171.22989"
       y1="485.64938"
       x2="200.05745"
       y2="1081.2865"
       gradientUnits="userSpaceOnUse"
       gradientTransform="translate(0,-540.36216)" />
  </defs>
  <sodipodi:namedview
     id="base"
     pagecolor="#ffffff"
     bordercolor="#666666"
     borderopacity="1.0"
     inkscape:pageopacity="0.0"
     inkscape:pageshadow="2"
     inkscape:zoom="0.7"
     inkscape:cx="190.41401"
     inkscape:cy="287.31691"
     inkscape:document-units="px"
     inkscape:current-layer="layer1"
     showgrid="false"
     units="px"
     inkscape:window-width="1360"
     inkscape:window-height="713"
     inkscape:window-x="0"
     inkscape:window-y="27"
     inkscape:window-maximized="1" />
  <metadata
     id="metadata4209">
    <rdf:RDF>
      <cc:Work
         rdf:about="">
        <dc:format>image/svg+xml</dc:format>
        <dc:type
           rdf:resource="http://purl.org/dc/dcmitype/StillImage" />
        <dc:title></dc:title>
      </cc:Work>
    </rdf:RDF>
  </metadata>
  <g
     inkscape:label="Capa 1"
     inkscape:groupmode="layer"
     id="layer1"
     transform="translate(0,-540.36216)">
    <path
       inkscape:connector-curvature="0"
       style="opacity:1;fill:#d7ac55;fill-opacity:1;stroke:none;stroke-width:20;stroke-linecap:round;stroke-linejoin:round;stroke-miterlimit:4;stroke-dasharray:none;stroke-opacity:1"
       d="m 49.966101,609.71895 c -9.37414,0 -16.922858,7.54872 -16.922858,16.92286 l 0,16.4976 -4.244786,0 c -9.374098,0 -16.922857,7.54872 -16.922857,16.92286 l 0,56.40148 c 0,9.37414 7.548759,16.92286 16.922857,16.92286 l 450.802873,0 c 9.37414,0 16.92285,-7.54872 16.92285,-16.92286 l 0,-56.40148 c 0,-9.37414 -7.54871,-16.92286 -16.92285,-16.92286 l -248.24208,0 0,-16.4976 c 0,-9.37414 -7.54872,-16.92286 -16.92286,-16.92286 l -164.470289,0 z"
       id="rect4189" />
    <path
       style="opacity:1;fill:#708299;fill-opacity:1;stroke:none;stroke-width:20;stroke-linecap:round;stroke-linejoin:round;stroke-miterlimit:4;stroke-dasharray:none;stroke-opacity:1"
       d="m 18.770105,689.93509 467.515915,0 c 9.37414,0 17.32699,7.5555 16.9208,16.92084 l -11.17846,141.28538 -1.07694,141.28539 c -0.0714,9.37385 -7.54667,16.9208 -16.92081,16.9208 l -444.119242,0 c -9.37414,0 -16.551505,-7.55397 -16.920804,-16.9208 L 12.470675,848.14131 1.8492602,706.85593 C 1.1465226,697.50816 9.3959655,689.93509 18.770105,689.93509 Z"
       id="rect4186"
       inkscape:connector-curvature="0"
       sodipodi:nodetypes="ssscsssscss" />
    <path
       sodipodi:nodetypes="sssccss"
       inkscape:connector-curvature="0"
       id="path4813"
       d="m 18.770105,689.93509 467.515915,0 c 9.37414,0 17.32699,7.5555 16.9208,16.92084 l -11.17846,141.28538 -479.557685,0 L 1.8492602,706.85593 C 1.1465226,697.50816 9.3959655,689.93509 18.770105,689.93509 Z"
       style="opacity:1;fill:#2f3741;fill-opacity:0.08376963;stroke:none;stroke-width:20;stroke-linecap:round;stroke-linejoin:round;stroke-miterlimit:4;stroke-dasharray:none;stroke-opacity:1" />
    <path
       style="fill:url(#linearGradient961);stroke:none;stroke-width:1px;stroke-linecap:butt;stroke-linejoin:miter;stroke-opacity:1;fill-opacity:1"
       d="M 260.77148 204.06445 L 262.67773 264.32227 L 245.53516 247.17773 L 215.88672 255.92578 L 272.23047 312.26953 L 266.60742 307.71484 L 236.47266 277.58203 L 194.56836 321.89648 L 179.5293 306.85742 L 129.93164 335.46484 L 176.3418 381.87305 L 138.48828 414.19922 L 190.27344 465.98438 L 474.03125 465.98438 C 483.40539 465.98438 490.87977 458.4383 490.95117 449.06445 L 491.0625 434.35547 L 260.77148 204.06445 z "
       transform="translate(0,540.36216)"
       id="path947" />
    <path
       style="opacity:1;fill:#ffffff;fill-opacity:1;stroke:none;stroke-width:6.81011581"
       d="m 253.4503,741.74767 c -1.46471,0.11327 -2.92601,0.5564 -4.27766,1.3368 l -7.48592,4.27765 c -4.80597,2.77471 -6.38402,8.82913 -3.60929,13.63509 l 64.96718,112.55664 23.79453,-15.90781 -64.03141,-110.81862 c -1.73424,-3.00373 -4.68178,-4.85568 -7.88696,-5.07975 -0.4808,-0.0343 -0.98222,-0.0386 -1.47047,0 z m -22.9925,38.36539 c -3.20515,0.22417 -6.28642,1.94232 -8.02064,4.94606 l -6.55018,11.22891 24.7303,14.30346 6.55019,-11.22889 c 2.77471,-4.80596 1.19668,-10.86038 -3.60928,-13.63509 l -7.35226,-4.27767 c -1.80223,-1.04055 -3.82501,-1.47123 -5.74813,-1.33678 z m -18.71481,23.5272 -56.01078,97.18377 24.7303,14.1698 56.01079,-97.05008 z m -81.81052,43.57896 v 28.60693 h 33.1536 l 16.44231,-28.60693 z m 96.78291,0 -16.44231,28.60693 h 87.02234 l -16.576,-28.60693 z m 101.19106,0 16.57597,28.60693 h 30.61424 v -28.60693 z m 3.21039,17.77926 -23.79457,15.90742 11.89728,20.58629 23.79457,-15.90739 z m 16.17497,28.07225 -23.79457,15.90739 c 0.70889,28.44225 22.42969,24.90076 30.74579,42.64326 15.83497,-16.85787 11.04681,-42.78057 -6.95122,-58.55065 z m -195.83728,15.10532 -12.9667,46.38624 37.69702,-32.08254 z"
       id="rect3081-7"
       inkscape:connector-curvature="0"
       sodipodi:nodetypes="cccccccccccccccccccccccccccccccccccccccccccccccccc" />
  </g>
</svg>
