<?xml version="1.0" encoding="UTF-8" standalone="no"?>
<!-- Created with Inkscape (http://www.inkscape.org/) -->

<svg
   xmlns:dc="http://purl.org/dc/elements/1.1/"
   xmlns:cc="http://creativecommons.org/ns#"
   xmlns:rdf="http://www.w3.org/1999/02/22-rdf-syntax-ns#"
   xmlns:svg="http://www.w3.org/2000/svg"
   xmlns="http://www.w3.org/2000/svg"
   xmlns:sodipodi="http://sodipodi.sourceforge.net/DTD/sodipodi-0.dtd"
   xmlns:inkscape="http://www.inkscape.org/namespaces/inkscape"
   width="24"
   height="24"
   id="svg2985"
   version="1.1"
   inkscape:version="0.48.4 r9939"
   sodipodi:docname="gtk-media-next.svg">
  <defs
     id="defs2987" />
  <sodipodi:namedview
     id="base"
     pagecolor="#ffffff"
     bordercolor="#666666"
     borderopacity="1.0"
     inkscape:pageopacity="0.0"
     inkscape:pageshadow="2"
     inkscape:zoom="11.098901"
     inkscape:cx="0.56683162"
     inkscape:cy="8"
     inkscape:current-layer="layer1"
     showgrid="true"
     inkscape:grid-bbox="true"
     inkscape:document-units="px"
     inkscape:window-width="1360"
     inkscape:window-height="718"
     inkscape:window-x="0"
     inkscape:window-y="24"
     inkscape:window-maximized="1" />
  <metadata
     id="metadata2990">
    <rdf:RDF>
      <cc:Work
         rdf:about="">
        <dc:format>image/svg+xml</dc:format>
        <dc:type
           rdf:resource="http://purl.org/dc/dcmitype/StillImage" />
        <dc:title></dc:title>
      </cc:Work>
    </rdf:RDF>
  </metadata>
  <g
     id="layer1"
     inkscape:label="Layer 1"
     inkscape:groupmode="layer"
     transform="translate(0,8)">
    <g
       inkscape:label="Layer 1"
       id="layer1-4"
       transform="matrix(1.9655964,0,0,1.9655964,-5.3345248,-11.475714)">
      <path
         inkscape:connector-curvature="0"
         d="m 6.5441226,5.59375 a 0.50005,0.50005 0 0 1 0.34375,0.5 l 0,4.3125 a 0.50005,0.50005 0 1 1 -1,0 l 0,-4.3125 a 0.50005,0.50005 0 0 1 0.65625,-0.5 z M 11.967064,5.2808025 c 0.03303,0.051597 0.03645,0.078182 0.04783,0.1070353 0.02276,0.057707 0.04203,0.080547 0.04783,0.1070353 0.01161,0.052977 0.023,0.092076 0.02667,0.1251542 0.0073,0.066157 0.01484,0.1260116 0.01884,0.20585 0.008,0.1596768 -0.0071,0.3830648 -0.003,0.6315588 0.0082,0.4969882 0.02348,1.1448115 0.01988,1.7958616 -0.0036,0.6510501 -0.0048,1.2948968 -0.01853,1.7917523 -0.0069,0.248426 -0.03168,0.467879 -0.04144,0.627448 -0.0049,0.07978 -0.01149,0.135678 -0.01956,0.20174 -0.004,0.03303 4.52e-4,0.06821 -0.01174,0.121044 -0.0061,0.02641 -0.0056,0.04139 -0.02899,0.09882 -0.0117,0.02871 -0.03771,0.08386 -0.07131,0.135052 -0.0168,0.02559 -0.06706,0.09435 -0.06739,0.0947 -3.36e-4,3.57e-4 -0.126625,0.108511 -0.126963,0.108713 -3.38e-4,2.02e-4 -0.160996,0.06414 -0.161459,0.06426 -4.64e-4,1.22e-4 -0.06845,0.0078 -0.09798,0.0099 -0.05905,0.0042 -0.106909,0.0099 -0.136386,0.0058 -0.05895,-0.0082 -0.08657,-0.04471 -0.111313,-0.05268 -0.04948,-0.01593 -0.06496,-0.01725 -0.09406,-0.03045 -0.05821,-0.02639 -0.116397,-0.06497 -0.184216,-0.101247 -0.135656,-0.07256 -0.328509,-0.161003 -0.53542,-0.281514 C 10.004536,10.805616 9.4873737,10.484761 8.9524508,10.155962 8.4175279,9.827163 7.8720466,9.5039555 7.4692976,9.243058 7.2679226,9.1126092 7.1067936,8.9736285 6.9801296,8.8849595 c -0.06333,-0.044335 -0.112633,-0.078987 -0.163056,-0.1193661 -0.02521,-0.020189 -0.05269,-0.033291 -0.09015,-0.070797 -0.01873,-0.018753 -0.03335,-0.038917 -0.069,-0.088916 -0.01782,-0.025 -0.06084,-0.054983 -0.08624,-0.1111456 -0.0127,-0.028081 -0.0093,-0.1024408 -0.0094,-0.102925 -1.26e-4,-4.841e-4 -0.04001,-0.1873226 -0.04001,-0.1877312 3e-6,-4.086e-4 0.01552,-0.1609093 0.01566,-0.1613919 1.31e-4,-4.826e-4 0.03714,-0.089009 0.05014,-0.1169336 0.02602,-0.055849 0.0493,-0.069924 0.0674,-0.094704 0.03619,-0.049561 0.04846,-0.076181 0.0674,-0.094704 0.03787,-0.037046 0.05921,-0.052594 0.08464,-0.072476 0.050839,-0.039781 0.122687,-0.079182 0.186505,-0.1227408 0.127636,-0.087118 0.276064,-0.2080538 0.478867,-0.3360374 0.405607,-0.2559671 0.94591,-0.5788253 1.4844311,-0.9010768 0.5385213,-0.3222516 1.0852223,-0.6428908 1.5016793,-0.8788477 0.208229,-0.1179785 0.39418,-0.1984506 0.530611,-0.26935 0.06822,-0.03545 0.106871,-0.07892 0.165371,-0.1046028 0.02925,-0.012841 0.06949,-0.012692 0.119138,-0.028017 0.02482,-0.00766 0.0601,-0.020591 0.119138,-0.028017 0.02952,-0.00372 0.03898,-0.01487 0.09798,-0.0099 0.0295,0.00249 0.132011,0.034432 0.132473,0.03456 4.62e-4,1.276e-4 0.149385,0.056582 0.149721,0.056789 3.35e-4,2.064e-4 0.124315,0.1148953 0.124647,0.1152559 3.33e-4,3.606e-4 0.05248,0.063117 0.06899,0.088916 z"
         style="font-size:medium;font-style:normal;font-variant:normal;font-weight:normal;font-stretch:normal;text-indent:0;text-align:start;text-decoration:none;line-height:normal;letter-spacing:normal;word-spacing:normal;text-transform:none;direction:ltr;block-progression:tb;writing-mode:lr-tb;text-anchor:start;baseline-shift:baseline;color:#000000;fill:#606060;fill-opacity:1;stroke:none;stroke-width:1px;marker:none;visibility:visible;display:inline;overflow:visible;enable-background:accumulate;font-family:Sans;-inkscape-font-specification:Sans"
         id="path3793" />
    </g>
  </g>
</svg>
