<?xml version="1.0" encoding="UTF-8" standalone="no"?>
<!-- Created with Inkscape (http://www.inkscape.org/) -->

<svg
   xmlns:dc="http://purl.org/dc/elements/1.1/"
   xmlns:cc="http://creativecommons.org/ns#"
   xmlns:rdf="http://www.w3.org/1999/02/22-rdf-syntax-ns#"
   xmlns:svg="http://www.w3.org/2000/svg"
   xmlns="http://www.w3.org/2000/svg"
   xmlns:sodipodi="http://sodipodi.sourceforge.net/DTD/sodipodi-0.dtd"
   xmlns:inkscape="http://www.inkscape.org/namespaces/inkscape"
   width="48px"
   height="48px"
   id="svg2985"
   version="1.1"
   inkscape:version="0.48.4 r9939"
   sodipodi:docname="system-restart-panel.svg">
  <defs
     id="defs2987" />
  <sodipodi:namedview
     id="base"
     pagecolor="#ffffff"
     bordercolor="#666666"
     borderopacity="1.0"
     inkscape:pageopacity="0.0"
     inkscape:pageshadow="2"
     inkscape:zoom="4.9497475"
     inkscape:cx="-21.373706"
     inkscape:cy="24.000814"
     inkscape:current-layer="layer1"
     showgrid="true"
     inkscape:grid-bbox="true"
     inkscape:document-units="px"
     inkscape:window-width="1360"
     inkscape:window-height="718"
     inkscape:window-x="0"
     inkscape:window-y="24"
     inkscape:window-maximized="1" />
  <metadata
     id="metadata2990">
    <rdf:RDF>
      <cc:Work
         rdf:about="">
        <dc:format>image/svg+xml</dc:format>
        <dc:type
           rdf:resource="http://purl.org/dc/dcmitype/StillImage" />
        <dc:title />
      </cc:Work>
    </rdf:RDF>
  </metadata>
  <g
     id="layer1"
     inkscape:label="Layer 1"
     inkscape:groupmode="layer">
    <g
       transform="matrix(1.5676096,0,0,1.5676096,-13.917717,-12.798415)"
       style="fill:#2094c5;fill-opacity:0.90200037"
       id="g6">
      <path
         inkscape:connector-curvature="0"
         d="M 35.367188,19.214844 C 33.398438,14.824219 28.992188,12 24.027344,12 c -5.078125,0 -9.726563,3.089844 -11.554688,7.675781 l 3.851563,1.445313 c 1.21875,-3.066406 4.316406,-5.117188 7.703125,-5.117188 3.265625,0 6.15625,1.832032 7.496094,4.695313 l -2.808594,1.089843 7.183594,4.019532 L 38,18.199219 z"
         id="path8"
         style="fill:#2094c5;fill-opacity:0.90200037" />
      <path
         inkscape:connector-curvature="0"
         d="m 24.027344,32.003906 c -3.242188,0 -6.191406,-1.894531 -7.511719,-4.738281 L 19.28125,26.230469 12.175781,22.296875 10,29.707031 12.652344,28.710938 C 14.582031,33.089844 19.09375,36 24.027344,36 c 5.097656,0 9.609375,-2.964844 11.5,-7.554688 l -3.832032,-1.480468 c -1.257812,3.0625 -4.269531,5.039062 -7.667968,5.039062 z"
         id="path10"
         style="fill:#2094c5;fill-opacity:0.90200037" />
    </g>
  </g>
</svg>
