<?xml version="1.0" encoding="UTF-8" standalone="no"?>
<!-- Created with Inkscape (http://www.inkscape.org/) -->

<svg
   xmlns:dc="http://purl.org/dc/elements/1.1/"
   xmlns:cc="http://creativecommons.org/ns#"
   xmlns:rdf="http://www.w3.org/1999/02/22-rdf-syntax-ns#"
   xmlns:svg="http://www.w3.org/2000/svg"
   xmlns="http://www.w3.org/2000/svg"
   xmlns:sodipodi="http://sodipodi.sourceforge.net/DTD/sodipodi-0.dtd"
   xmlns:inkscape="http://www.inkscape.org/namespaces/inkscape"
   width="512"
   height="512"
   id="svg3352"
   version="1.1"
   inkscape:version="0.91 r13725"
   viewBox="0 0 512 512"
   sodipodi:docname="headphones mic.svg">
  <defs
     id="defs3354" />
  <sodipodi:namedview
     id="base"
     pagecolor="#ffffff"
     bordercolor="#666666"
     borderopacity="1.0"
     inkscape:pageopacity="0.0"
     inkscape:pageshadow="2"
     inkscape:zoom="1.01"
     inkscape:cx="244.78965"
     inkscape:cy="235.24442"
     inkscape:current-layer="g3369"
     showgrid="true"
     inkscape:grid-bbox="true"
     inkscape:document-units="px"
     inkscape:window-width="684"
     inkscape:window-height="691"
     inkscape:window-x="0"
     inkscape:window-y="21"
     inkscape:window-maximized="0"
     showguides="false"
     units="mm"
     width="512mm" />
  <metadata
     id="metadata3357">
    <rdf:RDF>
      <cc:Work
         rdf:about="">
        <dc:format>image/svg+xml</dc:format>
        <dc:type
           rdf:resource="http://purl.org/dc/dcmitype/StillImage" />
        <dc:title></dc:title>
      </cc:Work>
    </rdf:RDF>
  </metadata>
  <g
     id="layer1"
     inkscape:label="Layer 1"
     inkscape:groupmode="layer"
     transform="translate(0,464)">
    <g
       id="g3369"
       transform="matrix(11.60419,0,0,11.60419,-28.840049,-466.38069)">
      <path
         sodipodi:nodetypes="czc"
         inkscape:connector-curvature="0"
         id="path5244"
         d="m 10.11628,36.953488 c 0,0 2.956242,3.844022 4.76744,5 1.811199,1.155979 6.860466,-0.581395 6.860466,-0.581395"
         style="fill:none;fill-rule:evenodd;stroke:#000000;stroke-width:1px;stroke-linecap:butt;stroke-linejoin:miter;stroke-opacity:1" />
      <path
         style="fill:#010101"
         inkscape:connector-curvature="0"
         id="path6"
         d="m 20.935043,1.126894 c 0.620024,-0.1144227 1.234907,-0.248917 1.852874,-0.3753825 1.090955,-0.075279 2.189107,-0.087314 3.280061,0.00298 0.928493,0.194716 1.87241,0.3292118 2.779312,0.6062321 2.164428,0.589168 4.220893,1.5587384 6.01927,2.8775936 1.963924,1.4292627 3.596756,3.2860998 4.76997,5.3838218 0.489438,0.804964 0.829783,1.680187 1.241076,2.521284 -0.251918,0.279026 -0.653955,0.257949 -0.997385,0.323188 -0.274539,0.04617 -0.545992,0.101381 -0.821558,0.133498 C 38.435553,11.194939 37.51323,9.93229 36.509675,8.761982 35.982192,8.207941 35.421805,7.684012 34.865531,7.157072 32.637354,5.2691218 29.857014,3.9723479 26.922439,3.6100143 26.0433,3.3912088 25.125089,3.4494222 24.226415,3.4373782 23.500482,3.4514291 22.760155,3.4253142 22.050675,3.5969668 19.786507,3.8689672 17.59226,4.6739304 15.69003,5.9034571 13.102999,7.545503 11.055788,9.944335 9.7211422,12.649294 9.1607556,12.477663 8.5767199,12.410414 7.9967972,12.339152 8.0307243,12.174546 8.0656947,12.00994 8.1119585,11.84935 9.1093444,9.469587 10.548869,7.234358 12.47989,5.4718681 14.820147,3.3019031 17.798935,1.8314882 20.935043,1.1268954 Z" />
      <path
         style="fill:#6f8a91;fill-opacity:1"
         inkscape:connector-curvature="0"
         id="path10"
         d="m 7.8456468,12.290997 c 0.086366,-0.148548 0.1737718,-0.297095 0.2663117,-0.441626 -0.046268,0.16059 -0.081227,0.325196 -0.1151613,0.489802 0.5799227,0.07126 1.1639584,0.138508 1.724345,0.310142 0.1696588,0.05822 0.269397,0.235869 0.3331478,0.390437 -0.076089,0.843105 -0.2992152,1.666136 -0.4575627,2.496192 -0.044215,0.221816 -0.098707,0.470733 -0.3023009,0.608239 -0.3742769,-0.002 -0.7351861,-0.113415 -1.0960953,-0.195721 -0.012341,0.207765 -0.026736,0.416533 -0.045247,0.625302 -0.046268,-0.185684 -0.083292,-0.373374 -0.1182466,-0.56207 -0.3084703,-0.04617 -0.614883,-0.112407 -0.9274652,-0.13249 -0.1963932,-0.09535 -0.3886724,-0.21479 -0.5233709,-0.38843 -0.1470363,-0.669464 0.1737719,-1.315845 0.2683693,-1.96925 0.075057,-0.39646 0.083281,-0.838085 0.3475426,-1.169305 0.2118152,-0.04316 0.429801,-0.04818 0.6457293,-0.06123 z" />
      <path
         style="fill:#6f8a91;fill-opacity:1"
         inkscape:connector-curvature="0"
         id="path12"
         d="m 40.877606,12.143454 0.05038,-0.04215 c 0.0216,0.04415 0.06478,0.131483 0.08638,0.174643 0.222098,0.02509 0.444196,0.0542 0.667323,0.07728 0.175828,0.4075 0.270424,0.841097 0.326977,1.278708 0.07197,0.568092 0.29099,1.116109 0.293046,1.693234 0.002,0.250924 -0.240606,0.421552 -0.447282,0.525936 -0.34857,0.04516 -0.69714,0.09335 -1.042626,0.154569 0.01748,0.382408 0.02674,0.765819 0.03291,1.14923 -0.219013,-0.366347 -0.124416,-0.807974 -0.155263,-1.211459 -0.419519,0.09034 -0.846235,0.159587 -1.277064,0.166613 -0.284821,-0.872212 -0.399982,-1.781559 -0.600488,-2.671837 -0.06787,-0.281034 -0.04833,-0.702586 0.246775,-0.838085 0.275567,-0.03212 0.54702,-0.08732 0.821559,-0.133498 0.343429,-0.06525 0.745468,-0.04417 0.997384,-0.323188 z" />
      <path
         style="fill:#010101"
         inkscape:connector-curvature="0"
         id="path14"
         d="m 6.9130409,15.909318 c 0.049354,-0.0071 0.1460086,-0.02208 0.1943356,-0.03012 0.3125822,0.02007 0.6189949,0.08632 0.9274653,0.13249 -0.011309,0.626307 -0.010321,1.262649 -0.1676024,1.8739 -0.00721,-0.04215 -0.021597,-0.126459 -0.028789,-0.16862 -0.042162,0.509877 0.013362,1.024772 -0.050386,1.533646 -0.1131059,0.78489 -0.012341,1.581823 -0.1028246,2.36872 -0.00821,0.176651 -0.1830255,0.261966 -0.3074415,0.359323 -0.7660335,0.500844 -1.3942832,1.187373 -1.8837214,1.946166 -0.1861107,-0.642365 -0.079174,-1.315844 -0.2303247,-1.962224 -0.022618,-0.714631 0.00411,-1.430266 -0.014394,-2.144897 0.1696578,-0.114423 0.3454861,-0.239884 0.5614143,-0.239884 0.3876436,-0.07126 0.6426451,0.273007 0.9644821,0.410513 -0.00311,-1.362014 0.1048777,-2.718008 0.1377827,-4.079019 z" />
      <path
         style="fill:#010101"
         inkscape:connector-curvature="0"
         id="path16"
         d="m 40.811799,16.005672 c 0.345485,-0.06123 0.694056,-0.109398 1.042627,-0.154568 0.0011,0.468726 0.112078,0.925408 0.178912,1.387107 0.03084,0.920388 0.0257,1.84178 0.03702,2.76217 0.258085,-0.165611 0.48841,-0.375383 0.771174,-0.502853 0.244719,0.006 0.452422,0.149552 0.675549,0.231855 0.05758,1.043843 -0.0041,2.091699 -0.01748,3.137551 0.0257,0.356311 -0.139839,0.681509 -0.230325,1.018751 -0.455505,-0.897304 -1.251357,-1.604909 -2.136665,-2.092704 0.02056,-0.547016 -0.0072,-1.094029 -0.05964,-1.639035 -0.03187,-0.430585 0.04113,-0.869201 -0.05244,-1.29577 -0.18611,-0.553036 -0.0072,-1.146221 -0.175829,-1.703272 -0.0062,-0.383413 -0.01543,-0.766824 -0.03291,-1.149232 z" />
      <path
         style="fill:#6f8a91;fill-opacity:1"
         inkscape:connector-curvature="0"
         id="path18"
         d="m 7.8384496,17.716974 c 0.00721,0.04215 0.021597,0.126458 0.028789,0.168621 -0.026736,1.288745 0.00311,2.578492 -0.011309,3.868242 0.7012544,-0.313154 1.4415814,-0.526941 2.1963044,-0.678499 0.03084,0.09636 0.05861,0.194717 0.08535,0.293079 0.113105,0.524933 0.03599,1.067931 0.1275,1.597882 -0.01032,0.573111 0.138812,1.131165 0.146009,1.703272 0.137784,1.047858 0.07197,2.114786 0.289962,3.155617 0.0052,0.715635 0.118247,1.424244 0.141896,2.139879 0.08431,0.532963 0.02262,1.078973 0.153205,1.606916 0.15732,1.28473 0.09871,2.588531 0.342402,3.864227 -0.01234,0.696564 0.08329,1.38811 0.102825,2.084674 0.01439,0.313154 0.11619,0.615266 0.227239,0.907342 -0.103846,-0.137514 -0.205646,-0.276017 -0.306413,-0.414526 -1.373718,0.04316 -2.75772,-0.325198 -3.9124245,-1.054884 -0.058609,0.03914 -0.1172178,0.08029 -0.1747995,0.121448 L 7.247224,37.045134 C 6.9089346,36.629604 6.5007261,36.2753 6.0976594,35.920995 6.0709239,36.260244 6.0637212,36.6015 6.0596149,36.942757 5.9814727,36.539271 6.0504034,36.130767 6.0164319,35.726278 5.9053825,35.37097 5.6236477,35.098969 5.4550176,34.77076 4.5398902,33.061468 4.2242239,31.098239 4.2900305,29.1862 4.2375916,27.835225 4.4905356,26.485255 4.9604376,25.216585 5.147575,24.790014 5.3295728,24.360432 5.4940898,23.924829 c 0.4894394,-0.758794 1.117689,-1.445322 1.8837214,-1.946165 0.124416,-0.09736 0.2992156,-0.182673 0.3074415,-0.359323 0.090483,-0.786897 -0.010321,-1.583831 0.1028246,-2.368722 0.063748,-0.508873 0.00821,-1.023768 0.050386,-1.533645 z" />
      <path
         style="fill:#010101"
         inkscape:connector-curvature="0"
         id="path20"
         d="m 10.137577,21.368417 c -0.1758276,-0.608239 0.250888,-1.400156 0.940833,-1.4393 0.470929,-0.0281 0.945972,-0.213787 1.413818,-0.08431 0.433915,0.181668 0.827727,0.595191 0.787626,1.08399 0.123388,0.875222 0.205647,1.756468 0.225184,2.640723 0.136754,0.585155 0.04936,1.187372 0.116189,1.778548 0.09769,0.708609 0.16246,1.422237 0.165546,2.13787 0.05244,1.036818 0.234438,2.064602 0.289962,3.10142 0.01131,1.649071 0.347542,3.278069 0.344457,4.928144 0.101792,0.664445 0.135727,1.334914 0.202563,2.003375 0.02056,0.295088 0.02056,0.62731 -0.201534,0.857156 -0.375305,0.483781 -1.054967,0.498837 -1.619466,0.55404 -0.44831,0.06123 -0.835953,-0.207765 -1.13414,-0.501848 -0.11105,-0.292071 -0.212844,-0.594183 -0.22724,-0.907336 -0.01954,-0.696564 -0.115161,-1.388111 -0.102824,-2.084675 -0.243692,-1.275696 -0.185082,-2.579495 -0.342402,-3.864227 -0.130586,-0.527942 -0.06889,-1.073953 -0.153206,-1.606916 -0.02365,-0.715634 -0.136755,-1.424244 -0.141897,-2.139879 -0.217984,-1.040831 -0.152178,-2.107759 -0.289961,-3.155617 -0.0072,-0.572107 -0.156291,-1.130161 -0.146009,-1.703271 -0.09152,-0.529951 -0.0144,-1.07295 -0.127501,-1.597883 z" />
      <path
         style="fill:#010101"
         inkscape:connector-curvature="0"
         id="path22"
         d="m 36.139512,19.944173 c 0.476071,-0.324193 1.041598,0 1.560856,-0.02108 0.413349,-0.02208 0.685832,0.301108 0.949058,0.558054 0.05552,0.902322 0.06066,1.817693 -0.117218,2.708974 -0.05656,0.327205 -0.03393,0.661435 -0.08123,0.989643 -0.160404,0.812994 -0.0051,1.653087 -0.194336,2.463069 -0.108995,0.424562 -0.0617,0.864181 -0.11619,1.293762 -0.161433,0.829053 -0.01954,1.683199 -0.19228,2.510243 -0.14498,0.575117 -0.07095,1.171312 -0.128528,1.756466 -0.09871,0.766823 -0.0946,1.544688 -0.270426,2.30047 0.03599,1.161275 -0.17994,2.309503 -0.213872,3.468771 -0.121331,0.60021 -0.716677,1.096036 -1.360351,0.969569 -0.590205,-0.141517 -1.415876,-0.101365 -1.67499,-0.761804 -0.156292,-0.497833 -0.05244,-1.035813 -0.03496,-1.546694 0.09562,-0.49984 0.07712,-1.009718 0.130586,-1.512569 0.151149,-0.900316 0.0946,-1.820704 0.248832,-2.721019 0.03908,-0.531958 0.06786,-1.065924 0.10591,-1.597882 0.0051,-0.732697 0.07609,-1.460376 0.128529,-2.190063 0.213871,-0.865185 0.05038,-1.762489 0.08534,-2.641726 0.02159,0.41553 0.0051,0.83407 0.07814,1.245586 0.05244,-0.411516 0.01645,-0.828049 0.06066,-1.240569 0.10076,-0.547012 0.01336,-1.112093 0.177882,-1.650075 0.01234,-1.093024 0.180969,-2.176009 0.20976,-3.269035 0.09048,-0.41854 0.202562,-0.919385 0.648815,-1.112094 z" />
      <path
         style="fill:#6f8a91;fill-opacity:1"
         inkscape:connector-curvature="0"
         id="path24"
         d="m 38.649426,20.48115 c 0.07712,0.186688 0.158348,0.372372 0.23238,0.561066 0.75678,0.229846 1.515614,0.457685 2.250801,0.750765 0.885308,0.487795 1.68116,1.1954 2.136667,2.092704 0.287904,0.641361 0.635447,1.261644 0.826698,1.940143 0.20359,0.839089 0.420547,1.687211 0.361938,2.557416 0.08431,1.003694 0.0092,2.00739 -0.02468,3.011086 -0.208731,1.251608 -0.493551,2.529311 -1.194806,3.617318 -0.188167,0.273005 -0.346515,0.564076 -0.487383,0.864181 -0.376332,0.390437 -0.802021,0.732698 -1.188636,1.113099 -0.150122,0.05219 -0.312582,0.06625 -0.456536,0.134491 -1.14545,0.60021 -2.460558,0.985628 -3.770526,0.849127 0.03393,-1.159269 0.249859,-2.307496 0.213872,-3.468772 0.175828,-0.755783 0.171715,-1.533646 0.270425,-2.30047 0.05758,-0.585154 -0.01645,-1.181349 0.128528,-1.756466 0.172744,-0.827045 0.03084,-1.681189 0.19228,-2.510242 0.05449,-0.429582 0.0072,-0.8692 0.11619,-1.293763 0.189195,-0.809982 0.03394,-1.650075 0.194336,-2.463069 0.0473,-0.328208 0.02467,-0.662438 0.08123,-0.989643 0.177885,-0.891282 0.172743,-1.806652 0.117219,-2.708974 z" />
      <path
         style="fill:#010101"
         inkscape:connector-curvature="0"
         id="path30"
         d="m 41.562408,36.988928 c 0.386615,-0.380401 0.812303,-0.722662 1.188637,-1.113099 0.08431,0.396459 0.119275,0.825036 -0.114134,1.182353 -0.357826,-0.001 -0.737243,0.07728 -1.074503,-0.06925 z" />
      <path
         style="fill:#010101"
         inkscape:connector-curvature="0"
         id="path32"
         d="m 6.0976528,35.920995 c 0.4030666,0.354305 0.8112751,0.708609 1.1495629,1.124139 -0.3948407,0.03513 -0.8277271,0.103381 -1.1876075,-0.102373 0.00411,-0.341256 0.011309,-0.682513 0.038045,-1.021762 z" />
      <rect
         ry="1.2790698"
         y="40.093021"
         x="20.930233"
         height="2.5581396"
         width="2.6744187"
         id="rect5250"
         style="opacity:1;fill:#6f8a91;fill-opacity:1;fill-rule:evenodd;stroke:none;stroke-width:0.449;stroke-miterlimit:4;stroke-dasharray:none;stroke-dashoffset:0;stroke-opacity:0.36021507" />
      <rect
         ry="1.27907"
         y="39.279068"
         x="22.123501"
         height="4.4186049"
         width="6.2790699"
         id="rect5252"
         style="opacity:1;fill:#6f8a91;fill-opacity:1;fill-rule:evenodd;stroke:#6f8a91;stroke-width:0.0956551;stroke-miterlimit:4;stroke-dasharray:none;stroke-dashoffset:0;stroke-opacity:1" />
    </g>
  </g>
</svg>
