<?xml version="1.0" encoding="UTF-8" standalone="no"?>
<!-- Created with Inkscape (http://www.inkscape.org/) -->

<svg
   xmlns:dc="http://purl.org/dc/elements/1.1/"
   xmlns:cc="http://creativecommons.org/ns#"
   xmlns:rdf="http://www.w3.org/1999/02/22-rdf-syntax-ns#"
   xmlns:svg="http://www.w3.org/2000/svg"
   xmlns="http://www.w3.org/2000/svg"
   xmlns:sodipodi="http://sodipodi.sourceforge.net/DTD/sodipodi-0.dtd"
   xmlns:inkscape="http://www.inkscape.org/namespaces/inkscape"
   width="512"
   height="512"
   id="svg4155"
   version="1.1"
   inkscape:version="0.91 r13725"
   viewBox="0 0 512 512"
   sodipodi:docname="mic.svg">
  <defs
     id="defs4157" />
  <sodipodi:namedview
     id="base"
     pagecolor="#ffffff"
     bordercolor="#666666"
     borderopacity="1.0"
     inkscape:pageopacity="0.0"
     inkscape:pageshadow="2"
     inkscape:zoom="0.75539473"
     inkscape:cx="292.23036"
     inkscape:cy="247.97481"
     inkscape:current-layer="g5"
     showgrid="true"
     inkscape:grid-bbox="true"
     inkscape:document-units="px"
     inkscape:window-width="683"
     inkscape:window-height="702"
     inkscape:window-x="0"
     inkscape:window-y="21"
     inkscape:window-maximized="0" />
  <metadata
     id="metadata4160">
    <rdf:RDF>
      <cc:Work
         rdf:about="">
        <dc:format>image/svg+xml</dc:format>
        <dc:type
           rdf:resource="http://purl.org/dc/dcmitype/StillImage" />
        <dc:title></dc:title>
      </cc:Work>
    </rdf:RDF>
  </metadata>
  <g
     id="layer1"
     inkscape:label="Layer 1"
     inkscape:groupmode="layer"
     transform="translate(0,464)">
    <g
       id="g3"
       transform="matrix(0.05931027,0,0,0.05931027,10.495506,8.0299036)"
       style="fill:#f9f9f9">
      <g
         id="g5"
         style="fill:#f9f9f9">
        <g
           id="g3366"
           transform="matrix(1.2157689,0,0,1,403.71135,0)">
          <rect
             style="opacity:1;fill:#4d4d4d;fill-opacity:1;fill-rule:evenodd;stroke:none;stroke-width:0;stroke-linecap:round;stroke-linejoin:bevel;stroke-miterlimit:4;stroke-dasharray:none;stroke-dashoffset:0;stroke-opacity:1"
             id="rect5056"
             width="6089.4004"
             height="8212.3115"
             x="121.6256"
             y="-7687.4302"
             ry="1713.3601"
             rx="1790.2316" />
          <rect
             rx="1790.2316"
             ry="1713.3601"
             y="-7804.6416"
             x="4.3578758"
             height="8212.3115"
             width="6089.4004"
             id="rect5038"
             style="opacity:1;fill:#ff2a2a;fill-opacity:1;fill-rule:evenodd;stroke:none;stroke-width:0;stroke-linecap:round;stroke-linejoin:bevel;stroke-miterlimit:4;stroke-dasharray:none;stroke-dashoffset:0;stroke-opacity:1" />
        </g>
        <g
           id="g7"
           style="fill:#f9f9f9"
           transform="matrix(11.595056,0,0,11.595056,1350.9565,-6565.3674)">
          <g
             id="g9"
             style="fill:#f9f9f9">
            <path
               style="fill:#f9f9f9"
               d="m 397.281,190.695 c -8.74,0 -15.891,7.119 -15.891,15.891 l 0,47.674 c 0,83.461 -64.01,127.13 -127.13,127.13 -61.245,0 -127.13,-39.792 -127.13,-127.13 l 0,-47.674 c 0,-8.772 -7.119,-15.891 -15.891,-15.891 -8.772,0 -15.891,7.119 -15.891,15.891 l 0,47.674 c 0,90.262 59.846,143.212 127.13,155.861 l 0,66.616 c 33.35701,9.63028 63.564,0 63.564,0 l 0,-66.807 c 66.203,-13.094 127.13,-66.711 127.13,-155.671 l 0,-47.674 c 0,-8.771 -7.151,-15.89 -15.891,-15.89 z"
               id="path11"
               inkscape:connector-curvature="0"
               sodipodi:nodetypes="sssssssssccccsss" />
            <path
               style="fill:#f9f9f9"
               d="m 254.26,317.825 c 35.12,0 63.565,-28.445 63.565,-63.565 l 0,-190.695 C 317.825,28.445 289.379,0 254.26,0 219.141,0 190.695,28.445 190.695,63.565 l 0,190.695 c 0,35.119 28.445,63.565 63.565,63.565 z"
               id="path13"
               inkscape:connector-curvature="0" />
          </g>
        </g>
      </g>
    </g>
  </g>
</svg>
