<?xml version="1.0" encoding="UTF-8" standalone="no"?>
<!-- Created with Inkscape (http://www.inkscape.org/) -->

<svg
   xmlns:dc="http://purl.org/dc/elements/1.1/"
   xmlns:cc="http://creativecommons.org/ns#"
   xmlns:rdf="http://www.w3.org/1999/02/22-rdf-syntax-ns#"
   xmlns:svg="http://www.w3.org/2000/svg"
   xmlns="http://www.w3.org/2000/svg"
   xmlns:sodipodi="http://sodipodi.sourceforge.net/DTD/sodipodi-0.dtd"
   xmlns:inkscape="http://www.inkscape.org/namespaces/inkscape"
   width="512"
   height="512"
   id="svg3392"
   version="1.1"
   inkscape:version="0.91 r13725"
   viewBox="0 0 512 512"
   sodipodi:docname="disp usb.svg">
  <defs
     id="defs3394">
    <filter
       inkscape:collect="always"
       style="color-interpolation-filters:sRGB"
       id="filter5903"
       x="-0.12375"
       width="1.2474999"
       y="-0.32999998"
       height="1.66">
      <feGaussianBlur
         inkscape:collect="always"
         stdDeviation="0.17942943"
         id="feGaussianBlur5905" />
    </filter>
  </defs>
  <sodipodi:namedview
     id="base"
     pagecolor="#ffffff"
     bordercolor="#666666"
     borderopacity="1.0"
     inkscape:pageopacity="0.0"
     inkscape:pageshadow="2"
     inkscape:zoom="0.93244291"
     inkscape:cx="240.17714"
     inkscape:cy="238.35187"
     inkscape:current-layer="layer1"
     showgrid="true"
     inkscape:grid-bbox="true"
     inkscape:document-units="px"
     inkscape:window-width="641"
     inkscape:window-height="691"
     inkscape:window-x="0"
     inkscape:window-y="21"
     inkscape:window-maximized="0" />
  <metadata
     id="metadata3397">
    <rdf:RDF>
      <cc:Work
         rdf:about="">
        <dc:format>image/svg+xml</dc:format>
        <dc:type
           rdf:resource="http://purl.org/dc/dcmitype/StillImage" />
        <dc:title></dc:title>
      </cc:Work>
    </rdf:RDF>
  </metadata>
  <g
     id="layer1"
     inkscape:label="Layer 1"
     inkscape:groupmode="layer"
     transform="translate(0,464)">
    <g
       id="g3341"
       transform="matrix(17.044267,0,0,17.044267,-161.84431,-591.03004)">
      <rect
         style="opacity:1;fill:#4d4d4d;fill-opacity:1;fill-rule:evenodd;stroke:#ffffff;stroke-width:0.30000001;stroke-miterlimit:4;stroke-dasharray:none;stroke-dashoffset:0;stroke-opacity:1"
         id="rect5731"
         width="27"
         height="3"
         x="10.74884"
         y="34.085999"
         ry="0.6288985" />
      <path
         sodipodi:nodetypes="sssssssss"
         inkscape:connector-curvature="0"
         id="rect3406"
         d="m 16.045717,7.9609952 16.555155,0.00624 c 0.830863,3.129e-4 4.594984,0.5996448 4.619841,1.4128595 L 37.997732,34.80019 c 0.02485,0.813216 -0.668889,1.468542 -1.499752,1.468542 l -24.424532,0 c -0.830863,0 -1.523714,-0.655313 -1.499752,-1.468542 L 11.327818,9.2063482 c 0.02396,-0.8132286 3.887036,-1.2456659 4.717899,-1.245353 z"
         style="opacity:1;fill:#68d3d3;fill-opacity:1;fill-rule:evenodd;stroke:#d4d4d4;stroke-width:0.10483408;stroke-miterlimit:4;stroke-dasharray:none;stroke-dashoffset:0;stroke-opacity:1" />
      <path
         sodipodi:nodetypes="scscss"
         inkscape:connector-curvature="0"
         id="path3409"
         d="M 11.237904,9.6084273 10.696899,28.618867 c 0,0 9.366316,1.219431 13.594871,1.186123 4.774524,-0.0376 13.563967,-1.224535 13.563967,-1.224535 L 37.329824,9.5353869 c -0.03212,-1.1632535 -26.052351,-1.3173546 -26.09192,0.07304 z"
         style="opacity:1;fill:#39d3d3;fill-opacity:1;fill-rule:evenodd;stroke:none;stroke-width:1px;stroke-linecap:butt;stroke-linejoin:miter;stroke-opacity:1" />
      <rect
         ry="0.62945747"
         y="33.184673"
         x="10.702932"
         height="3.0026665"
         width="27.208736"
         id="rect3404"
         style="opacity:1;fill:#88d3d3;fill-opacity:1;fill-rule:evenodd;stroke:#f2f2f2;stroke-width:0.39795089;stroke-miterlimit:4;stroke-dasharray:none;stroke-dashoffset:0;stroke-opacity:1" />
      <rect
         transform="matrix(1.0371265,0,0,0.69662632,-1.2919442,10.50774)"
         ry="0.62850499"
         y="34.189369"
         x="33.05851"
         height="1.3049413"
         width="3.4798434"
         id="rect5821"
         style="opacity:1;fill:#00ffff;fill-opacity:1;fill-rule:evenodd;stroke:#d4d4d4;stroke-width:0.108;stroke-miterlimit:4;stroke-dasharray:none;stroke-dashoffset:0;stroke-opacity:1;filter:url(#filter5903)" />
      <path
         style="fill:#ececec"
         inkscape:connector-curvature="0"
         id="path1334"
         d="m 24.263694,12.09141 -1.139637,1.56517 0.812962,0 0,8.000019 -2.074981,-1.557694 c -0.133976,-0.132565 -0.227959,-0.306015 -0.233165,-0.484437 0,-0.721792 -2.37e-4,-1.150426 -6.14e-4,-1.308203 0.384178,-0.106947 0.661477,-0.394225 0.661477,-0.735743 0,-0.432043 -0.442037,-0.782663 -0.98697,-0.782663 -0.545169,0 -0.987047,0.350589 -0.987047,0.782663 0,0.341518 0.27714,0.628796 0.661003,0.735743 l -2.77e-4,1.292875 c 0,0.350402 0.242395,0.717569 0.526555,0.951264 -0.0084,-0.0064 -0.01744,-0.01301 1.58e-4,3.76e-4 0.0071,0.0049 2.201265,1.652661 2.201265,1.652661 0.133778,0.132284 0.22717,0.305639 0.232533,0.483937 l 0,0.905 c -0.753803,0.11996 -1.321729,0.647908 -1.321729,1.281208 0,0.722042 0.737949,1.307327 1.64805,1.307327 0.910379,0 1.648367,-0.585285 1.648367,-1.307327 0,-0.633425 -0.5684,-1.161373 -1.322834,-1.281333 l 0,-0.889142 c 0,-0.0023 1.58e-4,-0.0046 0,-0.0069 l 0,-1.966621 c 0.0057,-0.177953 0.09923,-0.351089 0.233165,-0.483248 0,0 2.194087,-1.647344 2.201186,-1.652443 0.01763,-0.0132 0.0084,-0.0066 1.58e-4,-1.25e-4 0.28412,-0.233694 0.526356,-0.601018 0.526356,-0.951482 l -3.54e-4,-1.245956 0.661673,0 0,-1.565576 -1.97374,0 0,1.565576 0.660805,0 c 0,0 -7.26e-4,0.328162 -7.26e-4,1.26122 -0.0052,0.178454 -0.09903,0.352091 -0.233006,0.484594 l -2.075376,1.558038 0,-6.043627 0.814264,0 -1.13948,-1.56517 z" />
    </g>
  </g>
</svg>
