<?xml version="1.0" encoding="UTF-8" standalone="no"?>
<!-- Created with Inkscape (http://www.inkscape.org/) -->

<svg
   xmlns:dc="http://purl.org/dc/elements/1.1/"
   xmlns:cc="http://creativecommons.org/ns#"
   xmlns:rdf="http://www.w3.org/1999/02/22-rdf-syntax-ns#"
   xmlns:svg="http://www.w3.org/2000/svg"
   xmlns="http://www.w3.org/2000/svg"
   xmlns:sodipodi="http://sodipodi.sourceforge.net/DTD/sodipodi-0.dtd"
   xmlns:inkscape="http://www.inkscape.org/namespaces/inkscape"
   width="512"
   height="512"
   id="svg3352"
   version="1.1"
   inkscape:version="0.92.2pre0 (973e216, 2017-07-25)"
   viewBox="0 0 512 512"
   sodipodi:docname="drive-removable-media-usb-pendrive.svg">
  <defs
     id="defs3354" />
  <sodipodi:namedview
     id="base"
     pagecolor="#ffffff"
     bordercolor="#666666"
     borderopacity="1.0"
     inkscape:pageopacity="0.0"
     inkscape:pageshadow="2"
     inkscape:zoom="0.76095916"
     inkscape:cx="19.43817"
     inkscape:cy="251.0954"
     inkscape:current-layer="layer1"
     showgrid="true"
     inkscape:grid-bbox="true"
     inkscape:document-units="px"
     inkscape:window-width="1360"
     inkscape:window-height="740"
     inkscape:window-x="0"
     inkscape:window-y="0"
     inkscape:window-maximized="1" />
  <metadata
     id="metadata3357">
    <rdf:RDF>
      <cc:Work
         rdf:about="">
        <dc:format>image/svg+xml</dc:format>
        <dc:type
           rdf:resource="http://purl.org/dc/dcmitype/StillImage" />
        <dc:title />
      </cc:Work>
    </rdf:RDF>
  </metadata>
  <g
     id="layer1"
     inkscape:label="Layer 1"
     inkscape:groupmode="layer"
     transform="translate(0,464)">
    <rect
       style="opacity:1;fill:#d6d6d6;fill-opacity:1;fill-rule:evenodd;stroke:none;stroke-width:5.04634809;stroke-miterlimit:4;stroke-dasharray:none;stroke-dashoffset:0;stroke-opacity:1"
       id="rect4349"
       width="190.56241"
       height="109.61554"
       x="158.76132"
       y="-75.644516"
       ry="2.5586097" />
    <rect
       ry="4.4785385"
       y="-77.630325"
       x="254.16405"
       height="111.05887"
       width="95.881348"
       id="rect4351"
       style="opacity:1;fill:#a3a3a3;fill-opacity:1;fill-rule:evenodd;stroke:none;stroke-width:3.60301614;stroke-miterlimit:4;stroke-dasharray:none;stroke-dashoffset:0;stroke-opacity:1" />
    <rect
       style="opacity:1;fill:#46637f;fill-opacity:1;fill-rule:evenodd;stroke:none;stroke-width:5.04634809;stroke-miterlimit:4;stroke-dasharray:none;stroke-dashoffset:0;stroke-opacity:1"
       id="rect4347"
       width="263.0773"
       height="406.42068"
       x="121.66068"
       y="-455.14709"
       ry="54.836792"
       rx="42.159824" />
    <rect
       style="opacity:1;fill:#b3b3b3;fill-opacity:1;fill-rule:evenodd;stroke:none;stroke-width:5.04634809;stroke-miterlimit:4;stroke-dasharray:none;stroke-dashoffset:0;stroke-opacity:1"
       id="rect4353"
       width="43.846218"
       height="21.923109"
       x="185.74361"
       y="0.17900662"
       ry="4.4785328" />
    <rect
       ry="4.4785328"
       y="0.17900662"
       x="282.87982"
       height="21.923109"
       width="43.846218"
       id="rect4355"
       style="opacity:1;fill:#e6e6e6;fill-opacity:1;fill-rule:evenodd;stroke:none;stroke-width:5.04634809;stroke-miterlimit:4;stroke-dasharray:none;stroke-dashoffset:0;stroke-opacity:1" />
    <path
       d="m 259.1078,-418.23139 -19.41402,33.20649 h 13.84902 v 169.72768 l -35.34783,-33.04791 c -2.2823,-2.81249 -3.88335,-6.49236 -3.97203,-10.27777 0,-15.31347 -0.004,-24.40733 -0.011,-27.75471 6.54457,-2.26899 11.26841,-8.36385 11.26841,-15.60946 0,-9.16618 -7.53019,-16.60491 -16.81325,-16.60491 -9.28711,0 -16.81461,7.43808 -16.81461,16.60491 0,7.24561 4.72115,13.34047 11.26036,15.60946 l -0.005,27.42951 c 0,7.43411 4.12925,15.2239 8.97,20.18195 -0.14382,-0.13549 -0.29698,-0.27603 0.003,0.008 0.11985,0.10471 37.4991,35.06271 37.4991,35.06271 2.27894,2.80652 3.8699,6.4844 3.96127,10.26715 v 19.2004 c -12.8413,2.54527 -22.51606,13.74615 -22.51606,27.18218 0,15.31878 12.57113,27.73613 28.07494,27.73613 15.50851,0 28.08031,-12.41735 28.08031,-27.73613 0,-13.43867 -9.6828,-24.63957 -22.53479,-27.18462 v -18.86395 c 0,-0.0479 0.003,-0.0971 0,-0.14596 v -41.72364 c 0.0971,-3.77545 1.6904,-7.44868 3.97203,-10.25256 0,0 37.37682,-34.94988 37.49777,-35.05807 0.30039,-0.28007 0.14382,-0.14079 0.003,-0.002 4.84005,-4.95804 8.96661,-12.75116 8.96661,-20.18658 l -0.006,-26.43406 h 11.27177 v -33.21512 h -33.62316 v 33.21512 h 11.25699 c 0,0 -0.0126,6.96225 -0.0126,26.75792 -0.0883,3.78606 -1.68703,7.46992 -3.96935,10.28109 l -35.35452,33.05521 v -128.22102 h 13.87119 l -19.41134,-33.2065 z"
       id="path1334"
       inkscape:connector-curvature="0"
       style="fill:#ffffff;stroke-width:12.61587048;fill-opacity:1" />
  </g>
</svg>
