<?xml version="1.0" encoding="UTF-8" standalone="no"?>
<!-- Created using Karbon, part of Calligra: http://www.calligra.org/karbon -->

<svg
   xmlns:dc="http://purl.org/dc/elements/1.1/"
   xmlns:cc="http://creativecommons.org/ns#"
   xmlns:rdf="http://www.w3.org/1999/02/22-rdf-syntax-ns#"
   xmlns:svg="http://www.w3.org/2000/svg"
   xmlns="http://www.w3.org/2000/svg"
   xmlns:sodipodi="http://sodipodi.sourceforge.net/DTD/sodipodi-0.dtd"
   xmlns:inkscape="http://www.inkscape.org/namespaces/inkscape"
   width="512"
   height="512"
   id="svg2"
   version="1.1"
   inkscape:version="0.91 r13725"
   sodipodi:docname="input-gaming.svg"
   viewBox="0 0 512.00001 512.00001">
  <metadata
     id="metadata23">
    <rdf:RDF>
      <cc:Work
         rdf:about="">
        <dc:format>image/svg+xml</dc:format>
        <dc:type
           rdf:resource="http://purl.org/dc/dcmitype/StillImage" />
        <dc:title></dc:title>
      </cc:Work>
    </rdf:RDF>
  </metadata>
  <sodipodi:namedview
     pagecolor="#ffffff"
     bordercolor="#666666"
     borderopacity="1"
     objecttolerance="10"
     gridtolerance="10"
     guidetolerance="10"
     inkscape:pageopacity="0"
     inkscape:pageshadow="2"
     inkscape:window-width="680"
     inkscape:window-height="693"
     id="namedview21"
     inkscape:document-units="px"
     showgrid="false"
     units="px"
     inkscape:zoom="0.63234634"
     inkscape:cx="198.57381"
     inkscape:cy="251.01694"
     inkscape:window-x="0"
     inkscape:window-y="21"
     inkscape:window-maximized="0"
     inkscape:current-layer="svg2" />
  <defs
     id="defs4" />
  <g
     id="g3341"
     transform="matrix(10.544313,0,0,10.544313,3.2444549,-4.63125)">
    <path
       inkscape:connector-curvature="0"
       id="shape0"
       d="m 10.634342,12.882401 c -0.329667,4.98e-4 -0.6631777,0.01934 -0.9979455,0.0559 C 4.2804753,13.521829 0.3168942,18.593737 0.67691865,24.402607 1.0369432,30.211521 5.5916552,34.664565 10.971648,34.46979 c 2.354733,-0.08522 4.495133,-1.047172 6.159257,-2.590649 l 13.318465,0 c 1.65692,1.49976 3.773876,2.457331 6.113383,2.592643 5.43464,0.314335 10.156264,-3.897447 10.753751,-9.594167 0.597511,-5.69684 -3.137623,-10.893439 -8.506401,-11.83553 -0.01934,-0.0032 -0.03843,-0.0051 -0.05776,-0.0082 l 0,-0.13571 -1.936001,0 -25.880484,0 c -0.101028,-0.0032 -0.199879,-0.01619 -0.30139,-0.01595 z"
       style="fill:#ccdade;fill-opacity:1;fill-rule:evenodd;stroke:#003bc3;stroke-width:0;stroke-linecap:square;stroke-linejoin:miter;stroke-miterlimit:2.01260185" />
    <path
       id="shape3"
       stroke-miterlimit="2.00000000000"
       d="m 30.001878,23.794891 c 8.21e-4,4.059981 3.014576,7.411568 6.864369,7.634242 3.849816,0.222671 7.193843,-2.761145 7.617118,-6.796642 0.423251,-4.035464 -2.221899,-7.71586 -6.024997,-8.383213 -3.803169,-0.667352 -7.438701,1.910954 -8.281046,5.872893"
       inkscape:connector-curvature="0"
       style="fill:#7f8c8d;fill-rule:evenodd;stroke:#003bc3;stroke-width:0;stroke-linecap:square;stroke-linejoin:miter;stroke-miterlimit:2" />
    <path
       inkscape:connector-curvature="0"
       id="shape4"
       d="m 8.49677,18.400993 0,3.373028 -3.8261059,0 0,3.953826 3.8261059,0 0,4.03765 4.025671,0 0,-4.03765 3.850034,0 0,-3.953826 -3.850034,0 0,-3.373028 -4.025671,0 z m 13.528036,3.638476 c -0.213172,0 -0.425499,0.08215 -0.588786,0.245491 l -1.768364,1.768348 c -0.326598,0.326601 -0.326598,0.850956 0,1.177567 0.326598,0.326601 0.850974,0.326601 1.177573,0 l 1.768364,-1.768347 c 0.326598,-0.326601 0.326598,-0.850969 0,-1.177568 -0.163385,-0.163287 -0.375686,-0.245491 -0.588787,-0.245491 z m 4.782096,0.06785 c -0.213173,0 -0.427481,0.08215 -0.590768,0.245489 l -1.768341,1.76835 c -0.326598,0.326599 -0.326598,0.852961 0,1.179558 0.326599,0.326601 0.852956,0.326601 1.179554,0 l 1.76834,-1.768337 c 0.326599,-0.326609 0.326599,-0.85297 0,-1.179571 -0.163383,-0.163287 -0.375662,-0.245489 -0.588785,-0.245489 z"
       style="fill:#223656;fill-opacity:1;fill-rule:evenodd;stroke:#003bc3;stroke-width:0;stroke-linecap:square;stroke-linejoin:miter;stroke-miterlimit:2.01260185" />
    <rect
       id="shape8"
       transform="matrix(0.70710678,-0.70710678,0.70710678,0.70710678,0,0)"
       stroke-miterlimit="2.01260185242"
       width="11.479033"
       height="4.9663868"
       rx="2.4831934"
       ry="2.4831934"
       x="4.1125259"
       y="37.662582"
       style="fill:#ecf0f1;fill-rule:evenodd;stroke:#003bc3;stroke-width:0;stroke-linecap:square;stroke-linejoin:miter;stroke-miterlimit:2.01260185" />
    <path
       id="shape9"
       stroke-miterlimit="2.00000000000"
       d="m 34.528745,22.277021 c -0.791735,-0.791741 -2.075386,-0.791741 -2.867144,0 -0.791735,0.791737 -0.791735,2.075407 0,2.867146 0.791758,0.791739 2.075409,0.791739 2.867144,0 0.791735,-0.791739 0.791735,-2.075409 0,-2.867146"
       inkscape:connector-curvature="0"
       style="fill:#1ba389;fill-opacity:1;fill-rule:evenodd;stroke:#003bc3;stroke-width:0;stroke-linecap:square;stroke-linejoin:miter;stroke-miterlimit:2" />
    <path
       id="shape10"
       stroke-miterlimit="2.00000000000"
       d="m 39.096677,17.683434 c -0.791735,-0.791739 -2.075385,-0.791739 -2.867145,0 -0.791734,0.791739 -0.791734,2.075399 0,2.867137 0.79176,0.791737 2.07541,0.791737 2.867145,0 0.791736,-0.791738 0.791736,-2.075398 0,-2.867137"
       inkscape:connector-curvature="0"
       style="fill:#2980b9;fill-opacity:1;fill-rule:evenodd;stroke:#003bc3;stroke-width:0;stroke-linecap:square;stroke-linejoin:miter;stroke-miterlimit:2" />
    <rect
       id="shape11"
       transform="matrix(0.70710678,-0.70710678,0.70710678,0.70710678,0,0)"
       stroke-miterlimit="2.00000000000"
       width="11.479033"
       height="4.9663868"
       rx="2.4831934"
       ry="2.4831934"
       x="3.7077019"
       y="43.762711"
       style="fill:#ecf0f1;fill-rule:evenodd;stroke:#003bc3;stroke-width:0;stroke-linecap:square;stroke-linejoin:miter;stroke-miterlimit:2" />
    <path
       id="shape12"
       stroke-miterlimit="2.00000000000"
       d="m 38.555891,26.845783 c -0.791735,-0.791737 -2.075386,-0.791746 -2.86712,0 -0.791735,0.791739 -0.791735,2.075401 0,2.867138 0.791734,0.791738 2.075385,0.791738 2.86712,0 0.79176,-0.791749 0.79176,-2.075399 0,-2.867138"
       inkscape:connector-curvature="0"
       style="fill:#f9de69;fill-opacity:1;fill-rule:evenodd;stroke:#003bc3;stroke-width:0;stroke-linecap:square;stroke-linejoin:miter;stroke-miterlimit:2" />
    <path
       id="shape13"
       stroke-miterlimit="2.00000000000"
       d="m 43.123823,22.283153 c -0.791735,-0.791738 -2.075385,-0.79175 -2.867121,0 -0.791735,0.791737 -0.791735,2.075407 0,2.867144 0.791736,0.791739 2.075386,0.791739 2.867121,0 0.791759,-0.791747 0.791759,-2.075407 0,-2.867144"
       inkscape:connector-curvature="0"
       style="fill:#ba174e;fill-opacity:1;fill-rule:evenodd;stroke:#003bc3;stroke-width:0;stroke-linecap:square;stroke-linejoin:miter;stroke-miterlimit:2" />
  </g>
</svg>
