<?xml version="1.0" encoding="UTF-8" standalone="no"?>
<!-- Created with Inkscape (http://www.inkscape.org/) -->

<svg
   xmlns:dc="http://purl.org/dc/elements/1.1/"
   xmlns:cc="http://creativecommons.org/ns#"
   xmlns:rdf="http://www.w3.org/1999/02/22-rdf-syntax-ns#"
   xmlns:svg="http://www.w3.org/2000/svg"
   xmlns="http://www.w3.org/2000/svg"
   xmlns:sodipodi="http://sodipodi.sourceforge.net/DTD/sodipodi-0.dtd"
   xmlns:inkscape="http://www.inkscape.org/namespaces/inkscape"
   width="512"
   height="512"
   id="svg3352"
   version="1.1"
   inkscape:version="0.91 r13725"
   viewBox="0 0 512 512"
   sodipodi:docname="media removable.svg">
  <defs
     id="defs3354" />
  <sodipodi:namedview
     id="base"
     pagecolor="#ffffff"
     bordercolor="#666666"
     borderopacity="1.0"
     inkscape:pageopacity="0.0"
     inkscape:pageshadow="2"
     inkscape:zoom="0.81454783"
     inkscape:cx="252.74081"
     inkscape:cy="241.35145"
     inkscape:current-layer="layer1"
     showgrid="true"
     inkscape:grid-bbox="true"
     inkscape:document-units="px"
     inkscape:window-width="685"
     inkscape:window-height="691"
     inkscape:window-x="0"
     inkscape:window-y="21"
     inkscape:window-maximized="0" />
  <metadata
     id="metadata3357">
    <rdf:RDF>
      <cc:Work
         rdf:about="">
        <dc:format>image/svg+xml</dc:format>
        <dc:type
           rdf:resource="http://purl.org/dc/dcmitype/StillImage" />
        <dc:title></dc:title>
      </cc:Work>
    </rdf:RDF>
  </metadata>
  <g
     id="layer1"
     inkscape:label="Layer 1"
     inkscape:groupmode="layer"
     transform="translate(0,464)">
    <g
       id="g3356"
       transform="matrix(12.475327,0,0,12.475327,-65.19405,-492.01131)">
      <g
         transform="matrix(0.47159297,0,0,0.45761685,-10.687896,11.036603)"
         style="fill:#333333;fill-opacity:1"
         id="g4210">
        <rect
           style="opacity:1;fill:#333333;fill-opacity:1;fill-rule:evenodd;stroke:none;stroke-width:0.40000001;stroke-miterlimit:4;stroke-dasharray:none;stroke-dashoffset:0;stroke-opacity:1"
           id="rect4190"
           width="10.018516"
           height="32.078735"
           x="66.999718"
           y="12.349834"
           rx="0"
           ry="1.8574305" />
        <rect
           ry="2.2168283"
           rx="0"
           y="6.1428566"
           x="43.714001"
           height="38.285713"
           width="27"
           id="rect4188"
           style="opacity:1;fill:#333333;fill-opacity:1;fill-rule:evenodd;stroke:none;stroke-width:0.40000001;stroke-miterlimit:4;stroke-dasharray:none;stroke-dashoffset:0;stroke-opacity:1" />
        <path
           sodipodi:nodetypes="cccc"
           inkscape:connector-curvature="0"
           id="path4192"
           d="M 76.538675,12.969321 69.802283,6.5586129 68.999714,16.029 Z"
           style="fill:#333333;fill-opacity:1;fill-rule:evenodd;stroke:none;stroke-width:1px;stroke-linecap:butt;stroke-linejoin:miter;stroke-opacity:1" />
      </g>
      <rect
         style="opacity:1;fill:#333333;fill-opacity:1;fill-rule:evenodd;stroke:none;stroke-width:0.40000001;stroke-miterlimit:4;stroke-dasharray:none;stroke-dashoffset:0;stroke-opacity:1"
         id="rect3341"
         width="20.852886"
         height="32.215034"
         x="21.847494"
         y="3.484596"
         ry="4.3466516"
         rx="3.3418088" />
      <rect
         style="opacity:1;fill:#333333;fill-opacity:1;fill-rule:evenodd;stroke:none;stroke-width:0.40000001;stroke-miterlimit:4;stroke-dasharray:none;stroke-dashoffset:0;stroke-opacity:1"
         id="rect4363"
         width="15.104976"
         height="8.6887026"
         x="24.888279"
         y="33.865929"
         ry="0.20280881" />
      <rect
         ry="0.20280881"
         y="33.26593"
         x="23.88821"
         height="8.6887026"
         width="15.104976"
         id="rect4349"
         style="opacity:1;fill:#e6e6e6;fill-opacity:1;fill-rule:evenodd;stroke:none;stroke-width:0.40000001;stroke-miterlimit:4;stroke-dasharray:none;stroke-dashoffset:0;stroke-opacity:1" />
      <rect
         style="opacity:1;fill:#cccccc;fill-opacity:1;fill-rule:evenodd;stroke:none;stroke-width:0.28559396;stroke-miterlimit:4;stroke-dasharray:none;stroke-dashoffset:0;stroke-opacity:1"
         id="rect4351"
         width="7.6000581"
         height="8.8031082"
         x="31.450348"
         y="33.108521"
         ry="0.35499245" />
      <rect
         rx="3.3418088"
         ry="4.3466516"
         y="3.1845624"
         x="20.947418"
         height="32.215034"
         width="20.852886"
         id="rect4347"
         style="opacity:1;fill:#34495e;fill-opacity:1;fill-rule:evenodd;stroke:none;stroke-width:0.40000001;stroke-miterlimit:4;stroke-dasharray:none;stroke-dashoffset:0;stroke-opacity:1" />
      <rect
         ry="0.354992"
         y="39.2761"
         x="26.026966"
         height="1.7377405"
         width="3.475481"
         id="rect4353"
         style="opacity:1;fill:#b3b3b3;fill-opacity:1;fill-rule:evenodd;stroke:none;stroke-width:0.40000001;stroke-miterlimit:4;stroke-dasharray:none;stroke-dashoffset:0;stroke-opacity:1" />
      <rect
         style="opacity:1;fill:#e6e6e6;fill-opacity:1;fill-rule:evenodd;stroke:none;stroke-width:0.40000001;stroke-miterlimit:4;stroke-dasharray:none;stroke-dashoffset:0;stroke-opacity:1"
         id="rect4355"
         width="3.475481"
         height="1.7377405"
         x="33.726521"
         y="39.2761"
         ry="0.354992" />
      <path
         style="fill:#e6e6e6"
         inkscape:connector-curvature="0"
         id="path1334"
         d="m 31.842204,6.1106957 -1.538857,2.632121 1.097746,0 0,13.4535063 -2.801855,-2.61955 c -0.180907,-0.222933 -0.307815,-0.514619 -0.314844,-0.81467 0,-1.213826 -3.3e-4,-1.934653 -8.73e-4,-2.199984 0.518757,-0.179852 0.893193,-0.662963 0.893193,-1.237288 0,-0.726559 -0.596882,-1.316192 -1.332706,-1.316192 -0.736145,0 -1.332814,0.589581 -1.332814,1.316192 0,0.574325 0.374223,1.057436 0.892555,1.237288 l -3.82e-4,2.174207 c 0,0.589266 0.327306,1.206726 0.711009,1.599727 -0.0114,-0.01074 -0.02354,-0.02188 2.16e-4,6.34e-4 0.0095,0.0083 2.972376,2.779254 2.972376,2.779254 0.180641,0.22246 0.306749,0.513988 0.313991,0.813828 l 0,1.521925 c -1.017869,0.201751 -1.784741,1.089592 -1.784741,2.154602 0,1.214247 0.996454,2.198511 2.225367,2.198511 1.229286,0 2.225793,-0.984264 2.225793,-2.198511 0,-1.06522 -0.76751,-1.953062 -1.786226,-2.154796 l 0,-1.495255 c 0,-0.0038 2.17e-4,-0.0077 0,-0.01157 l 0,-3.307234 c 0.0077,-0.299262 0.13399,-0.590422 0.314844,-0.812672 0,0 2.962683,-2.770311 2.97227,-2.778886 0.02381,-0.0222 0.0114,-0.01116 2.16e-4,-1.4e-4 0.383648,-0.393 0.710741,-1.010724 0.710741,-1.600094 l -4.83e-4,-2.095302 0.89346,0 0,-2.632806 -2.665148,0 0,2.632806 0.892288,0 c 0,0 -0.001,0.551864 -0.001,2.120973 -0.007,0.300103 -0.133723,0.592105 -0.314631,0.814933 l -2.802385,2.620129 0,-10.1634713 1.099503,0 -1.538644,-2.632121 z" />
      <rect
         ry="1.0144581"
         rx="0"
         y="13.435626"
         x="9.4085665"
         height="17.520187"
         width="12.73301"
         id="rect3360"
         style="opacity:1;fill:#333333;fill-opacity:1;fill-rule:evenodd;stroke:none;stroke-width:0.40000001;stroke-miterlimit:4;stroke-dasharray:none;stroke-dashoffset:0;stroke-opacity:1" />
      <rect
         style="opacity:1;fill:#333333;fill-opacity:1;fill-rule:evenodd;stroke:none;stroke-width:0.40000001;stroke-miterlimit:4;stroke-dasharray:none;stroke-dashoffset:0;stroke-opacity:1"
         id="rect3362"
         width="4.7246614"
         height="14.67977"
         x="20.38995"
         y="16.276041"
         rx="0"
         ry="0.8499915" />
      <path
         sodipodi:nodetypes="cccc"
         inkscape:connector-curvature="0"
         id="path3366"
         d="m 24.888453,16.559531 -3.176835,-2.933648 -0.378486,4.333808 z"
         style="fill:#333333;fill-opacity:1;fill-rule:evenodd;stroke:none;stroke-width:1px;stroke-linecap:butt;stroke-linejoin:miter;stroke-opacity:1" />
      <rect
         ry="1.1673265"
         y="19.382324"
         x="10.28268"
         height="10.711229"
         width="13.943195"
         id="rect4170"
         style="opacity:1;fill:#ff2a2a;fill-opacity:1;fill-rule:evenodd;stroke:none;stroke-width:0.40000001;stroke-miterlimit:4;stroke-dasharray:none;stroke-dashoffset:0;stroke-opacity:1" />
      <rect
         style="opacity:1;fill:#ececec;fill-opacity:1;fill-rule:evenodd;stroke:none;stroke-width:0.40000001;stroke-miterlimit:4;stroke-dasharray:none;stroke-dashoffset:0;stroke-opacity:1"
         id="rect4172"
         width="14.026191"
         height="7.2482004"
         x="10.188582"
         y="19.103884"
         ry="0.78992015" />
      <rect
         ry="0.12287653"
         y="14.389122"
         x="11.029636"
         height="4.0267782"
         width="1.8258946"
         id="rect4174"
         style="opacity:1;fill:#f4d03f;fill-opacity:1;fill-rule:evenodd;stroke:none;stroke-width:0.40000001;stroke-miterlimit:4;stroke-dasharray:none;stroke-dashoffset:0;stroke-opacity:1" />
      <rect
         style="opacity:1;fill:#f4d03f;fill-opacity:1;fill-rule:evenodd;stroke:none;stroke-width:0.40000001;stroke-miterlimit:4;stroke-dasharray:none;stroke-dashoffset:0;stroke-opacity:1"
         id="rect4176"
         width="1.8258946"
         height="4.0267782"
         x="13.198761"
         y="14.389122"
         ry="0.12287653" />
      <rect
         ry="0.12287653"
         y="14.389122"
         x="15.32093"
         height="4.0267782"
         width="1.8258946"
         id="rect4178"
         style="opacity:1;fill:#f4d03f;fill-opacity:1;fill-rule:evenodd;stroke:none;stroke-width:0.40000001;stroke-miterlimit:4;stroke-dasharray:none;stroke-dashoffset:0;stroke-opacity:1" />
      <rect
         style="opacity:1;fill:#f4d03f;fill-opacity:1;fill-rule:evenodd;stroke:none;stroke-width:0.40000001;stroke-miterlimit:4;stroke-dasharray:none;stroke-dashoffset:0;stroke-opacity:1"
         id="rect4180"
         width="1.8258946"
         height="4.0267782"
         x="17.443098"
         y="14.389122"
         ry="0.12287653" />
      <rect
         ry="0.12287653"
         y="14.389122"
         x="19.518311"
         height="4.0267782"
         width="1.8258946"
         id="rect4182"
         style="opacity:1;fill:#f4d03f;fill-opacity:1;fill-rule:evenodd;stroke:none;stroke-width:0.40000001;stroke-miterlimit:4;stroke-dasharray:none;stroke-dashoffset:0;stroke-opacity:1" />
      <rect
         style="opacity:1;fill:#f4d03f;fill-opacity:1;fill-rule:evenodd;stroke:none;stroke-width:0.40000001;stroke-miterlimit:4;stroke-dasharray:none;stroke-dashoffset:0;stroke-opacity:1"
         id="rect4184"
         width="1.8258946"
         height="2.6791148"
         x="21.593113"
         y="15.736783"
         ry="0.081752792" />
    </g>
  </g>
</svg>
