<?xml version="1.0" encoding="UTF-8" standalone="no"?>
<!-- Created with Inkscape (http://www.inkscape.org/) -->

<svg
   xmlns:dc="http://purl.org/dc/elements/1.1/"
   xmlns:cc="http://creativecommons.org/ns#"
   xmlns:rdf="http://www.w3.org/1999/02/22-rdf-syntax-ns#"
   xmlns:svg="http://www.w3.org/2000/svg"
   xmlns="http://www.w3.org/2000/svg"
   xmlns:sodipodi="http://sodipodi.sourceforge.net/DTD/sodipodi-0.dtd"
   xmlns:inkscape="http://www.inkscape.org/namespaces/inkscape"
   width="512"
   height="512"
   id="svg3392"
   version="1.1"
   inkscape:version="0.91 r13725"
   viewBox="0 0 512 512"
   sodipodi:docname="nm-device-wireless.svg">
  <defs
     id="defs3394" />
  <sodipodi:namedview
     id="base"
     pagecolor="#ffffff"
     bordercolor="#666666"
     borderopacity="1.0"
     inkscape:pageopacity="0.0"
     inkscape:pageshadow="2"
     inkscape:zoom="0.75575672"
     inkscape:cx="260.12199"
     inkscape:cy="259.94891"
     inkscape:current-layer="layer1"
     showgrid="true"
     inkscape:grid-bbox="true"
     inkscape:document-units="px"
     inkscape:window-width="641"
     inkscape:window-height="596"
     inkscape:window-x="0"
     inkscape:window-y="116"
     inkscape:window-maximized="0" />
  <metadata
     id="metadata3397">
    <rdf:RDF>
      <cc:Work
         rdf:about="">
        <dc:format>image/svg+xml</dc:format>
        <dc:type
           rdf:resource="http://purl.org/dc/dcmitype/StillImage" />
        <dc:title></dc:title>
      </cc:Work>
    </rdf:RDF>
  </metadata>
  <g
     id="layer1"
     inkscape:label="Layer 1"
     inkscape:groupmode="layer"
     transform="translate(0,464)">
    <g
       id="g3339"
       transform="matrix(12.25467,0,0,12.25467,-38.553702,-498.09945)">
      <circle
         style="opacity:1;fill:#4d4d4d;fill-opacity:1;fill-rule:evenodd;stroke:none;stroke-width:0.39500001;stroke-miterlimit:4;stroke-dasharray:none;stroke-dashoffset:0;stroke-opacity:1"
         id="circle6300"
         cx="24.391512"
         cy="24.091488"
         r="19.930511" />
      <circle
         r="19.930511"
         cy="23.391918"
         cx="23.591219"
         id="path6298"
         style="opacity:1;fill:#ff5555;fill-opacity:1;fill-rule:evenodd;stroke:none;stroke-width:0.39500001;stroke-miterlimit:4;stroke-dasharray:none;stroke-dashoffset:0;stroke-opacity:1" />
      <path
         style="fill:#e6e6e6"
         inkscape:connector-curvature="0"
         id="path5"
         d="m 22.370785,10.889099 c 5.579742,-0.436869 11.28867,1.832717 15.270976,6.107308 0.521803,0.583981 0.453758,1.605544 -0.09674,2.140725 -0.50561,0.647991 -1.518139,0.659448 -2.039941,0.02822 -3.406686,-3.565573 -8.216555,-5.493623 -12.939386,-5.110149 -3.923489,0.274419 -7.724281,2.111731 -10.571303,5.054485 -0.253191,0.281343 -0.576513,0.512334 -0.948829,0.532139 -0.932636,0.118893 -1.7951425,-0.940791 -1.5938629,-1.932582 0.056794,-0.356033 0.267122,-0.652586 0.5076334,-0.889725 3.3331045,-3.469521 7.8077455,-5.600344 12.4114525,-5.930423 z" />
      <path
         style="fill:#ececec"
         inkscape:connector-curvature="0"
         id="path7"
         d="m 22.232669,16.837839 c 4.274791,-0.505474 8.713712,1.207573 11.738796,4.528428 0.472628,0.587024 0.41375,1.546907 -0.111445,2.074452 -0.478998,0.637311 -1.444556,0.708893 -1.987373,0.130996 -1.936831,-2.075875 -4.555308,-3.393992 -7.270465,-3.609773 -3.297326,-0.29733 -6.666091,1.062726 -9.013874,3.588479 -0.541389,0.622103 -1.54981,0.551297 -2.037083,-0.110544 -0.525256,-0.538935 -0.568715,-1.524773 -0.06454,-2.095744 2.326768,-2.530996 5.473239,-4.141136 8.745978,-4.506294 z" />
      <path
         style="fill:#e6e6e6"
         inkscape:connector-curvature="0"
         id="path9"
         d="m 22.864488,22.707295 c 2.697655,-0.291181 5.486574,0.831799 7.363752,2.955762 0.514004,0.581652 0.454472,1.582699 -0.08698,2.120922 -0.49156,0.645014 -1.476823,0.688506 -2.011127,0.08388 -1.05813,-1.180842 -2.52382,-1.927274 -4.041303,-2.017237 -1.722216,-0.133456 -3.46485,0.606116 -4.687827,1.921903 -0.300817,0.367553 -0.747549,0.593171 -1.204759,0.534534 -1.061642,-0.0809 -1.798654,-1.621661 -1.067298,-2.5464 1.476823,-1.741265 3.574271,-2.820041 5.735539,-3.053362 z" />
      <path
         style="fill:#4d4d4d"
         inkscape:connector-curvature="0"
         id="path11"
         d="m 23.280323,28.18797 c 1.738407,-0.317135 3.502713,1.243492 3.558852,3.159959 0.161273,1.879252 -1.364663,3.662518 -3.09944,3.621228 -1.559573,0.05878 -3.004902,-1.347824 -3.141649,-3.034138 -0.222354,-1.770261 1.051105,-3.542724 2.682237,-3.747049 z" />
    </g>
  </g>
</svg>
