<?xml version="1.0" encoding="UTF-8" standalone="no"?>
<!-- Created with Inkscape (http://www.inkscape.org/) -->

<svg
   xmlns:dc="http://purl.org/dc/elements/1.1/"
   xmlns:cc="http://creativecommons.org/ns#"
   xmlns:rdf="http://www.w3.org/1999/02/22-rdf-syntax-ns#"
   xmlns:svg="http://www.w3.org/2000/svg"
   xmlns="http://www.w3.org/2000/svg"
   xmlns:sodipodi="http://sodipodi.sourceforge.net/DTD/sodipodi-0.dtd"
   xmlns:inkscape="http://www.inkscape.org/namespaces/inkscape"
   width="512"
   height="512"
   id="svg3392"
   version="1.1"
   inkscape:version="0.91 r13725"
   viewBox="0 0 512 512"
   sodipodi:docname="office-database.svg">
  <defs
     id="defs3394" />
  <sodipodi:namedview
     id="base"
     pagecolor="#ffffff"
     bordercolor="#666666"
     borderopacity="1.0"
     inkscape:pageopacity="0.0"
     inkscape:pageshadow="2"
     inkscape:zoom="0.8117387"
     inkscape:cx="236.3959"
     inkscape:cy="259.9735"
     inkscape:current-layer="layer1"
     showgrid="true"
     inkscape:grid-bbox="true"
     inkscape:document-units="px"
     inkscape:window-width="641"
     inkscape:window-height="596"
     inkscape:window-x="0"
     inkscape:window-y="116"
     inkscape:window-maximized="0" />
  <metadata
     id="metadata3397">
    <rdf:RDF>
      <cc:Work
         rdf:about="">
        <dc:format>image/svg+xml</dc:format>
        <dc:type
           rdf:resource="http://purl.org/dc/dcmitype/StillImage" />
        <dc:title></dc:title>
      </cc:Work>
    </rdf:RDF>
  </metadata>
  <g
     id="layer1"
     inkscape:label="Layer 1"
     inkscape:groupmode="layer"
     transform="translate(0,464)">
    <g
       id="g3335"
       transform="matrix(10.871852,0,0,10.871852,-39.102021,-467.63908)">
      <path
         inkscape:connector-curvature="0"
         id="path6349"
         d="M 21.248945,46.518198 C 19.421728,46.183223 17.380285,45.574264 16.109099,44.98499 13.449739,43.752209 11.269308,41.746244 10.553321,39.873756 10.197656,38.943601 10.184,38.785391 10.184,35.595203 c 0,-1.852529 0.05695,-3.312686 0.129207,-3.312686 0.07106,0 0.294971,0.36863 0.497574,0.819178 1.871223,4.161237 8.528742,6.926436 15.792168,6.559274 6.721294,-0.339757 12.050574,-2.97577 13.506519,-6.680698 0.191021,-0.486102 0.407574,-0.883823 0.481214,-0.883823 0.24269,0 0.325374,1.285451 0.261019,4.057704 -0.05757,2.479842 -0.09753,2.820216 -0.430222,3.664484 -1.161125,2.946592 -4.504098,5.224919 -9.454535,6.443528 -2.071423,0.509902 -7.546361,0.654147 -9.717999,0.256034 z m 0.785252,-9.048055 c -4.409943,-0.577374 -8.495721,-2.53824 -10.421547,-5.001557 -1.270647,-1.625284 -1.349699,-1.953153 -1.401968,-5.814616 -0.03006,-2.220729 0.0044,-3.302701 0.105288,-3.302701 0.0825,0 0.309884,0.330085 0.505304,0.73352 1.240356,2.560669 4.473897,4.703974 8.700155,5.766768 8.4263,2.119 18.286162,-0.703047 20.525788,-5.874801 0.237608,-0.548692 0.486193,-0.997621 0.552416,-0.997621 0.217393,0 0.31812,1.666638 0.252683,4.181054 -0.05771,2.217682 -0.104331,2.578778 -0.452814,3.507031 -1.797043,4.786821 -10.14515,7.87915 -18.365305,6.802923 z m 0.428321,-9.116315 C 16.80494,27.702462 11.990407,24.953915 10.643544,21.606549 c -0.360207,-0.895224 -0.386625,-1.130929 -0.433926,-3.87153 -0.06156,-3.566828 0.03017,-3.90723 0.691162,-2.564812 1.202186,2.441544 4.029503,4.318008 8.123656,5.391602 8.983296,2.355652 19.032416,-0.533696 21.199264,-6.09527 0.129584,-0.332595 0.288216,-0.60472 0.352505,-0.60472 0.181658,0 0.312797,5.020311 0.162566,6.22326 -0.682724,5.466833 -9.188366,9.315055 -18.276253,8.268749 z M 23.161179,19.23878 C 17.275078,18.751057 11.906748,15.763867 10.663504,12.284486 8.960006,7.5170185 14.103887,2.8621075 22.302762,1.7516445 c 2.307692,-0.312557 6.780918,-0.125895 8.806957,0.367502 2.379424,0.579455 3.960444,1.228465 5.734141,2.353862 2.598917,1.649002 3.893663,3.61704 3.893663,5.9184575 0,5.487798 -8.2151,9.62299 -17.576344,8.847314 z"
         style="fill:#666666;fill-opacity:1;stroke-width:1.85455096" />
      <path
         style="fill:#999999;fill-opacity:1;stroke-width:1.85455096"
         d="M 20.449017,46.117927 C 18.6218,45.782952 16.580357,45.173993 15.309171,44.584719 12.649811,43.351938 10.46938,41.345973 9.7533933,39.473485 9.3977283,38.54333 9.3840723,38.38512 9.3840723,35.194932 c 0,-1.852529 0.05695,-3.312686 0.129207,-3.312686 0.07106,0 0.294971,0.36863 0.4975737,0.819178 1.871223,4.161237 8.528742,6.926436 15.792168,6.559274 6.721294,-0.339757 12.050574,-2.97577 13.506519,-6.680698 0.191021,-0.486102 0.407574,-0.883823 0.481214,-0.883823 0.24269,0 0.325374,1.285451 0.261019,4.057704 -0.05757,2.479842 -0.09753,2.820216 -0.430222,3.664484 -1.161125,2.946592 -4.504098,5.224919 -9.454535,6.443528 -2.071423,0.509902 -7.546361,0.654147 -9.717999,0.256034 z m 0.785252,-9.048055 C 16.824326,36.492498 12.738548,34.531632 10.812722,32.068315 9.5420753,30.443031 9.4630233,30.115162 9.4107543,26.253699 c -0.03006,-2.220729 0.0044,-3.302701 0.105288,-3.302701 0.0825,0 0.309884,0.330085 0.5053037,0.73352 1.240356,2.560669 4.473897,4.703974 8.700155,5.766768 8.4263,2.119 18.286162,-0.703047 20.525788,-5.874801 0.237608,-0.548692 0.486193,-0.997621 0.552416,-0.997621 0.217393,0 0.31812,1.666638 0.252683,4.181054 -0.05771,2.217682 -0.104331,2.578778 -0.452814,3.507031 -1.797043,4.786821 -10.14515,7.87915 -18.365305,6.802923 z M 21.66259,27.953557 C 16.005012,27.302191 11.190479,24.553644 9.8436163,21.206278 c -0.360207,-0.895224 -0.386625,-1.130929 -0.433926,-3.87153 -0.06156,-3.566828 0.03017,-3.90723 0.6911617,-2.564812 1.202186,2.441544 4.029503,4.318008 8.123656,5.391602 8.983296,2.355652 19.032416,-0.533696 21.199264,-6.09527 0.129584,-0.332595 0.288216,-0.60472 0.352505,-0.60472 0.181658,0 0.312797,5.020311 0.162566,6.22326 -0.682724,5.466833 -9.188366,9.315055 -18.276253,8.268749 z m 0.698661,-9.115048 C 16.47515,18.350786 11.10682,15.363596 9.8635763,11.884215 8.1600783,7.1167475 13.303959,2.4618365 21.502834,1.3513735 c 2.307692,-0.312557 6.780918,-0.125895 8.806957,0.367502 2.379424,0.579455 3.960444,1.228465 5.734141,2.353862 2.598917,1.649002 3.893663,3.61704 3.893663,5.918458 0,5.4877975 -8.2151,9.6229895 -17.576344,8.8473135 z"
         id="path3026"
         inkscape:connector-curvature="0" />
    </g>
  </g>
</svg>
