<?xml version="1.0" encoding="UTF-8" standalone="no"?>
<!-- Created with Inkscape (http://www.inkscape.org/) -->

<svg
   xmlns:dc="http://purl.org/dc/elements/1.1/"
   xmlns:cc="http://creativecommons.org/ns#"
   xmlns:rdf="http://www.w3.org/1999/02/22-rdf-syntax-ns#"
   xmlns:svg="http://www.w3.org/2000/svg"
   xmlns="http://www.w3.org/2000/svg"
   xmlns:xlink="http://www.w3.org/1999/xlink"
   xmlns:sodipodi="http://sodipodi.sourceforge.net/DTD/sodipodi-0.dtd"
   xmlns:inkscape="http://www.inkscape.org/namespaces/inkscape"
   width="512"
   height="512"
   id="svg2"
   version="1.1"
   inkscape:version="0.48.4 r9939"
   sodipodi:docname="python.svg">
  <sodipodi:namedview
     id="base"
     pagecolor="#ffffff"
     bordercolor="#666666"
     borderopacity="1.0"
     inkscape:pageopacity="0.0"
     inkscape:pageshadow="2"
     inkscape:zoom="0.35355339"
     inkscape:cx="249.7602"
     inkscape:cy="222.97513"
     inkscape:document-units="px"
     inkscape:current-layer="layer1"
     showgrid="false"
     inkscape:window-width="1360"
     inkscape:window-height="721"
     inkscape:window-x="0"
     inkscape:window-y="25"
     inkscape:window-maximized="1" />
  <defs
     id="defs4">
    <linearGradient
       id="linearGradient4074">
      <stop
         style="stop-color:#000000;stop-opacity:1;"
         offset="0"
         id="stop4076" />
      <stop
         style="stop-color:#000000;stop-opacity:0;"
         offset="1"
         id="stop4078" />
    </linearGradient>
    <linearGradient
       id="linearGradient3837"
       inkscape:collect="always">
      <stop
         id="stop3839"
         offset="0"
         style="stop-color:#7db257;stop-opacity:1;" />
      <stop
         id="stop3841"
         offset="1"
         style="stop-color:#7db257;stop-opacity:0;" />
    </linearGradient>
    <clipPath
       id="clipPath3847"
       clipPathUnits="userSpaceOnUse">
      <path
         sodipodi:type="arc"
         style="fill:url(#linearGradient3851);fill-opacity:1;fill-rule:evenodd;stroke:none"
         id="path3849"
         sodipodi:cx="322.4407"
         sodipodi:cy="342.29437"
         sodipodi:rx="260.2153"
         sodipodi:ry="260.2153"
         d="m 582.65601,342.29437 a 260.2153,260.2153 0 1 1 -520.430607,0 260.2153,260.2153 0 1 1 520.430607,0 z"
         transform="matrix(0.88586957,0,0,0.88586957,-24.010886,495.98978)" />
    </clipPath>
    <linearGradient
       y2="356.66208"
       x2="316.05505"
       y1="546.63525"
       x1="502.83536"
       gradientUnits="userSpaceOnUse"
       id="linearGradient3851"
       xlink:href="#linearGradient3837"
       inkscape:collect="always" />
    <clipPath
       id="clipPath-601783356">
      <g
         transform="translate(0,-1004.3622)"
         id="g17">
        <path
           d="m -24,13 c 0,1.105 -0.672,2 -1.5,2 -0.828,0 -1.5,-0.895 -1.5,-2 0,-1.105 0.672,-2 1.5,-2 0.828,0 1.5,0.895 1.5,2 z"
           transform="matrix(15.333333,0,0,11.5,414.99999,878.8622)"
           id="path19"
           inkscape:connector-curvature="0"
           style="fill:#1890d0" />
      </g>
    </clipPath>
    <clipPath
       id="clipPath-593073577">
      <g
         transform="translate(0,-1004.3622)"
         id="g12">
        <path
           d="m -24,13 c 0,1.105 -0.672,2 -1.5,2 -0.828,0 -1.5,-0.895 -1.5,-2 0,-1.105 0.672,-2 1.5,-2 0.828,0 1.5,0.895 1.5,2 z"
           transform="matrix(15.333333,0,0,11.5,414.99999,878.8622)"
           id="path14"
           inkscape:connector-curvature="0"
           style="fill:#1890d0" />
      </g>
    </clipPath>
    <linearGradient
       id="linearGradient3764"
       x1="1"
       x2="47"
       gradientUnits="userSpaceOnUse"
       gradientTransform="matrix(0,-1,1,0,-1.5e-6,47.999998)">
      <stop
         stop-color="#acacac"
         stop-opacity="1"
         id="stop7" />
      <stop
         offset="1"
         stop-color="#b6b6b6"
         stop-opacity="1"
         id="stop9" />
    </linearGradient>
    <clipPath
       clipPathUnits="userSpaceOnUse"
       id="clipPath4064">
      <path
         transform="matrix(0.41551176,0,0,0.41551176,-70.068451,-77.98281)"
         d="m 582.65601,342.29437 a 260.2153,260.2153 0 1 1 -520.430607,0 260.2153,260.2153 0 1 1 520.430607,0 z"
         sodipodi:ry="260.2153"
         sodipodi:rx="260.2153"
         sodipodi:cy="342.29437"
         sodipodi:cx="322.4407"
         id="path4066"
         style="fill:#1d96b2;fill-opacity:1;fill-rule:evenodd;stroke:none"
         sodipodi:type="arc" />
    </clipPath>
    <linearGradient
       inkscape:collect="always"
       xlink:href="#linearGradient4074"
       id="linearGradient4080"
       x1="-65.503998"
       y1="522.84589"
       x2="434.45319"
       y2="989.84589"
       gradientUnits="userSpaceOnUse" />
    <clipPath
       clipPathUnits="userSpaceOnUse"
       id="clipPath4084">
      <path
         transform="matrix(0.88586957,0,0,0.88586957,-24.010886,495.98978)"
         d="m 582.65601,342.29437 a 260.2153,260.2153 0 1 1 -520.430607,0 260.2153,260.2153 0 1 1 520.430607,0 z"
         sodipodi:ry="260.2153"
         sodipodi:rx="260.2153"
         sodipodi:cy="342.29437"
         sodipodi:cx="322.4407"
         id="path4086"
         style="fill:#1d96b2;fill-opacity:1;fill-rule:evenodd;stroke:none"
         sodipodi:type="arc" />
    </clipPath>
    <clipPath
       id="clipPath3759"
       clipPathUnits="userSpaceOnUse">
      <path
         sodipodi:type="arc"
         style="fill:#0d93ff;fill-opacity:1;fill-rule:evenodd;stroke:none"
         id="path3761"
         sodipodi:cx="661.42859"
         sodipodi:cy="510.93362"
         sodipodi:rx="141.42857"
         sodipodi:ry="141.42857"
         d="m 802.85716,510.93362 a 141.42857,141.42857 0 1 1 -282.85714,0 141.42857,141.42857 0 1 1 282.85714,0 z"
         transform="matrix(1.6288183,0,0,1.6288183,-822.99347,-574.63826)" />
    </clipPath>
    <clipPath
       id="clipPath3782"
       clipPathUnits="userSpaceOnUse">
      <path
         sodipodi:type="arc"
         style="fill:#42ffbb;fill-opacity:1;fill-rule:evenodd;stroke:none"
         id="path3784"
         sodipodi:cx="661.42859"
         sodipodi:cy="510.93362"
         sodipodi:rx="141.42857"
         sodipodi:ry="141.42857"
         d="m 802.85716,510.93362 a 141.42857,141.42857 0 1 1 -282.85714,0 141.42857,141.42857 0 1 1 282.85714,0 z"
         transform="translate(-398.0001,-113.13709)" />
    </clipPath>
    <clipPath
       clipPathUnits="userSpaceOnUse"
       id="clipPath4187">
      <path
         transform="matrix(0.88586957,0,0,0.88586957,-89.914599,-66.99588)"
         d="m 582.65601,342.29437 a 260.2153,260.2153 0 1 1 -520.430607,0 260.2153,260.2153 0 1 1 520.430607,0 z"
         sodipodi:ry="260.2153"
         sodipodi:rx="260.2153"
         sodipodi:cy="342.29437"
         sodipodi:cx="322.4407"
         id="path4189"
         style="fill:#1d96b2;fill-opacity:1;fill-rule:evenodd;stroke:none"
         sodipodi:type="arc" />
    </clipPath>
    <clipPath
       clipPathUnits="userSpaceOnUse"
       id="clipPath4197">
      <path
         id="path4199"
         d="m -30.802593,193.50152 c -2.597657,13.85265 -4,28.11202 -4,42.71875 0,127.31092 103.22033,230.53125 230.531253,230.53125 127.31092,0 230.5,-103.22033 230.5,-230.53125 0,-14.40767 -1.31483,-28.48066 -3.84375,-42.15625 l -226.65625,74.6875 c 0,0 -161.658473,-54.78487 -226.531253,-75.25 z"
         style="fill:#1d96b2;fill-opacity:1;fill-rule:evenodd;stroke:none"
         inkscape:connector-curvature="0" />
    </clipPath>
  </defs>
  <metadata
     id="metadata7">
    <rdf:RDF>
      <cc:Work
         rdf:about="">
        <dc:format>image/svg+xml</dc:format>
        <dc:type
           rdf:resource="http://purl.org/dc/dcmitype/StillImage" />
        <dc:title></dc:title>
      </cc:Work>
    </rdf:RDF>
  </metadata>
  <g
     inkscape:label="Capa 1"
     inkscape:groupmode="layer"
     id="layer1"
     transform="translate(0,-540.36218)">
    <path
       style="fill:#fff9e6;fill-opacity:1;stroke:none"
       d="M 79.903066,181.78113 265.87215,261.6842 454.66966,180.36692 344.361,318.25274 91.216775,278.65476 z"
       id="path4205"
       inkscape:connector-curvature="0"
       transform="translate(0,540.36218)"
       sodipodi:nodetypes="cccccc" />
    <path
       style="fill:#ffedb6;stroke:none;stroke-width:1px;stroke-linecap:butt;stroke-linejoin:miter;stroke-opacity:1;fill-opacity:1"
       d="m 61,227 c 16.798851,-15.15318 14.182732,-30.6028 15,-46 63.00502,-13.85243 107.54455,79.57554 190,98 l 1,0 c 82.45545,-18.42446 126.99498,-111.85243 190,-98 0.81727,15.3972 -1.79885,30.84682 15,46 l -205.42074,71.45375 z"
       id="path4201"
       inkscape:connector-curvature="0"
       transform="translate(0,540.36218)"
       sodipodi:nodetypes="cccccc" />
    <path
       style="fill:#1d96b2;fill-opacity:1;fill-rule:evenodd;stroke:none"
       d="M 39.34375 216.125 C 36.746093 229.97765 35.34375 244.23702 35.34375 258.84375 C 35.34375 386.15467 138.56408 489.375 265.875 489.375 C 393.18592 489.375 496.375 386.15467 496.375 258.84375 C 496.375 244.43608 495.06017 230.36309 492.53125 216.6875 L 265.875 291.375 C 265.875 291.375 104.21653 236.59013 39.34375 216.125 z "
       transform="translate(0,540.36218)"
       id="path2990" />
    <path
       style="fill:#f0fdff;fill-opacity:1;stroke:none"
       d="m 390.73686,71.120152 -45.41252,110.693008 -35.95157,0 -23.65235,48.2508 -35.95158,43.52033 7.56875,60.55002 19.86798,17.02969 13.24532,-14.19141 12.29922,2.83828 10.40704,10.40704 -13.24532,8.51485 -8.51485,17.02969 33.11329,44.46642 13.24532,59.60393 -187.32663,9.46094 12.29922,-39.73595 69.06487,-34.05939 12.29923,-35.00548 -37.84377,-28.38282 -33.11329,-58.65784 -6.62266,25.54454 5.67657,15.13751 -7.56876,7.56875 -15.1375,-39.73595 12.29922,-40.68205 L 143.8063,221.54911 125.83051,167.62175 115.42348,114.64048 70.010963,81.527187 163.67428,12.462318 346.27044,10.57013 z"
       id="path3755"
       inkscape:connector-curvature="0"
       transform="translate(70.146343,562.98566)"
       clip-path="url(#clipPath4197)" />
  </g>
</svg>
