<svg height="512" width="512" xmlns="http://www.w3.org/2000/svg" xmlns:xlink="http://www.w3.org/1999/xlink"><linearGradient id="a" gradientUnits="userSpaceOnUse" x1="-425.15833" x2="322.15317" y1="-162.28094" y2="326.08525"><stop offset="0"/><stop offset="1" stop-opacity="0"/></linearGradient><g transform="translate(0 464)"><path d="m44.322082 27.405077a19.729762 19.729765 0 0 1 -19.729762 19.729765 19.729762 19.729765 0 0 1 -19.7297621-19.729765 19.729762 19.729765 0 0 1 19.7297621-19.7297632 19.729762 19.729765 0 0 1 19.729762 19.7297632z" fill="#d82d23" opacity=".99" transform="matrix(12.332308 0 0 12.332308 -47.545312 -534.58518)"/><path d="m219.45508 121.01562c-47.2712 15.69539-39.15595-10.43789-12.93164 74.91797 14.71814 47.90514-19.38194 111.69463-52.48438 161.83985-18.52897 28.0686-47.71001 49.77124-48.35351 59.5039l84.0625 84.0625a243.3135 243.31354 0 0 0 65.98633 9.35547 243.3135 243.31354 0 0 0 217.83007-135.57031z" fill="url(#a)" transform="translate(0 -464)"/><path d="m197.70475-354.10461c-15.36501-.26874-28.62517 15.01341-25.37672 30.28136 2.18655 23.32986 17.22955 42.26178 28.96847 61.52635 1.31999 7.17405-2.46355 14.15751-2.7169 21.27946-7.65349 41.81311-19.32968 83.40129-37.29323 121.76944-22.2277 10.23308-47.40079 20.338307-60.39931 42.393179-8.251344 15.302262 3.36683 35.9543 20.42118 37.567867 15.82196 2.16406 27.56561-11.39443 36.21472-22.754522 9.03031-12.219558 14.97317-26.770087 22.48699-39.902394 45.47114-18.31277 93.30997-31.11123 142.14323-35.97088 19.74522 14.13147 40.6648 30.80344 65.9847 31.81088 14.71745-.21901 26.62685-14.50555 25.01446-29.01584-.94825-13.21161-12.6848-22.47632-24.84399-24.95527-19.61025-5.90734-40.61745-2.67191-60.56509-2.52868-38.38708-30.6732-73.82405-65.96455-101.73773-106.34404 2.07171-24.54921 6.23172-51.70406-6.55135-74.03714-4.85372-7.04383-13.08138-11.87387-21.75062-11.11386m.73161 22.29521c4.32219.83342 4.60986 7.27112 5.81974 10.71371 1.13885 7.01661 1.01455 14.17645.93169 21.26289-5.14733-9.62104-11.83364-19.6718-10.6427-31.07571 1.35668-.0532 2.55828-.74108 3.89127-.89852m23.81879 95.73686c22.87882 28.44759 48.29223 54.64589 76.02597 78.39365-36.56988 5.57705-72.90065 14.91989-107.6936 27.5242 13.34422-34.87582 23.5039-70.90708 30.19848-107.68177.48774.58836.97548 1.17555 1.46322 1.76392m142.71151 95.63032c8.87049.85591 19.10712.34211 26.21014 6.45545.6665 5.51786-6.08374 6.32287-9.67786 4.32574-7.49961-2.50382-14.91871-5.65163-21.28538-10.44854 1.58634-.0983 3.16676-.30187 4.75902-.33265m-221.67339 58.031656c-4.21801 7.845291-10.35858 15.241907-16.76194 20.797644-2.13091 3.449708-7.97904-2.928814-5.28817-5.623218 5.55572-8.696463 15.25607-13.306326 23.84244-18.501001-.59902 1.109251-1.19567 2.218501-1.79588 3.32776" fill="#fff" stroke-width=".897473"/></g></svg>