<?xml version="1.0" encoding="UTF-8" standalone="no"?>
<svg
   xmlns:dc="http://purl.org/dc/elements/1.1/"
   xmlns:cc="http://creativecommons.org/ns#"
   xmlns:rdf="http://www.w3.org/1999/02/22-rdf-syntax-ns#"
   xmlns:svg="http://www.w3.org/2000/svg"
   xmlns="http://www.w3.org/2000/svg"
   xmlns:sodipodi="http://sodipodi.sourceforge.net/DTD/sodipodi-0.dtd"
   xmlns:inkscape="http://www.inkscape.org/namespaces/inkscape"
   viewBox="0 0 512 512"
   id="svg2"
   version="1.1"
   inkscape:version="0.48.4 r9939"
   width="100%"
   height="100%"
   sodipodi:docname="addressbook.svg">
  <metadata
     id="metadata59">
    <rdf:RDF>
      <cc:Work
         rdf:about="">
        <dc:format>image/svg+xml</dc:format>
        <dc:type
           rdf:resource="http://purl.org/dc/dcmitype/StillImage" />
        <dc:title></dc:title>
      </cc:Work>
    </rdf:RDF>
  </metadata>
  <sodipodi:namedview
     pagecolor="#ffffff"
     bordercolor="#666666"
     borderopacity="1"
     objecttolerance="10"
     gridtolerance="10"
     guidetolerance="10"
     inkscape:pageopacity="0"
     inkscape:pageshadow="2"
     inkscape:window-width="1360"
     inkscape:window-height="717"
     id="namedview57"
     showgrid="false"
     inkscape:zoom="0.86915209"
     inkscape:cx="222.66389"
     inkscape:cy="279.54199"
     inkscape:window-x="0"
     inkscape:window-y="25"
     inkscape:window-maximized="1"
     inkscape:current-layer="svg2" />
  <defs
     id="defs4">
    <linearGradient
       id="linearGradient3764"
       x1="1"
       x2="47"
       gradientUnits="userSpaceOnUse"
       gradientTransform="matrix(0,-1,1,0,-1.5e-6,47.999998)">
      <stop
         style="stop-color:#ad897f;stop-opacity:1"
         id="stop7" />
      <stop
         offset="1"
         style="stop-color:#b5948b;stop-opacity:1"
         id="stop9" />
    </linearGradient>
  </defs>
  <g
     transform="matrix(60.047191,0,0,60.047191,-164.04589,-140.16369)"
     id="g27">
    <g
       transform="translate(0.2822222,0.28222215)"
       style="opacity:0.1"
       id="g29" />
    <g
       id="g33">
      <rect
         rx="0.25"
         y="8.184"
         x="9.3129997"
         height="1.1289999"
         width="0.847"
         style="fill:#27794e;fill-opacity:1;stroke:none"
         id="rect35" />
      <rect
         width="0.847"
         height="1.1289999"
         x="9.3129997"
         y="6.2090001"
         rx="0.25"
         style="fill:#e44933;fill-opacity:1;stroke:none"
         id="rect37" />
      <rect
         rx="0.25"
         y="4.2329998"
         x="9.3129997"
         height="1.1289999"
         width="0.847"
         style="fill:#ffbe17;fill-opacity:1;stroke:none"
         id="rect39" />
      <rect
         rx="1"
         y="3.3870001"
         x="3.951"
         height="6.7729998"
         width="5.6440001"
         style="fill:#efe0dc;fill-opacity:1;stroke:none"
         id="rect41" />
      <path
         d="m 4.948,3.387 c -0.554,0 -0.997,0.443 -0.997,0.997 l 0,4.78 c 0,0.554 0.443,0.997 0.997,0.997 l 0.132,0 0,-6.773 z"
         style="fill:#9cc2c2;fill-opacity:1;stroke:none"
         id="path43"
         inkscape:connector-curvature="0" />
      <rect
         width="1.1289999"
         height="0.56400001"
         x="3.3870001"
         y="5.362"
         rx="0.15000001"
         style="fill:#81584a;fill-opacity:1;stroke:none"
         id="rect45" />
      <rect
         rx="0.15000001"
         y="6.4910002"
         x="3.3870001"
         height="0.56400001"
         width="1.1289999"
         style="fill:#81584a;fill-opacity:1;stroke:none"
         id="rect47" />
      <rect
         width="1.1289999"
         height="0.56400001"
         x="3.3870001"
         y="7.6199999"
         rx="0.15000001"
         style="fill:#81584a;fill-opacity:1;stroke:none"
         id="rect49" />
      <rect
         rx="0.15000001"
         y="8.7489996"
         x="3.3870001"
         height="0.56400001"
         width="1.1289999"
         style="fill:#81584a;fill-opacity:1;stroke:none"
         id="rect51" />
      <rect
         rx="0.15000001"
         y="4.2329998"
         x="3.3870001"
         height="0.56400001"
         width="1.1289999"
         style="fill:#81584a;fill-opacity:1;stroke:none"
         id="rect53" />
      <path
         d="M 6.819,8.746 C 6.407,8.729 6.128,8.698 5.913,8.644 5.666,8.582 5.49,8.489 5.418,8.381 5.368,8.306 5.359,8.268 5.363,8.127 5.366,8.008 5.366,8.007 5.394,7.949 5.463,7.806 5.592,7.684 5.829,7.537 5.946,7.464 6.188,7.346 6.36,7.278 6.531,7.21 6.57,7.183 6.607,7.103 6.626,7.063 6.63,7.044 6.63,6.995 6.63,6.901 6.613,6.853 6.555,6.789 6.311,6.516 6.154,6.111 6.154,5.752 6.154,5.355 6.326,5.045 6.628,4.896 6.756,4.833 6.868,4.806 7.022,4.8 7.445,4.784 7.794,5.018 7.913,5.4 7.976,5.601 7.977,5.87 7.917,6.107 7.858,6.337 7.726,6.599 7.59,6.754 7.519,6.835 7.512,6.847 7.497,6.916 7.48,6.999 7.484,7.082 7.509,7.135 7.537,7.194 7.573,7.22 7.68,7.258 c 0.559,0.2 0.953,0.465 1.051,0.706 0.017,0.041 0.018,0.057 0.018,0.183 0,0.134 0,0.139 -0.022,0.184 C 8.637,8.523 8.353,8.646 7.856,8.709 7.637,8.737 7.074,8.758 6.819,8.748 z"
         style="fill:#233b43;fill-opacity:1"
         id="path55"
         inkscape:connector-curvature="0" />
    </g>
  </g>
  <g
     id="g3835"
     transform="matrix(60.047191,0,0,60.047191,-164.04589,-140.16369)">
    <g
       id="g3837"
       style="opacity:0.1"
       transform="translate(0.2822222,0.28222215)" />
    <g
       id="g3839">
      <rect
         rx="1"
         y="3.3870001"
         x="4.2958927"
         height="6.7729998"
         width="5.6440001"
         style="fill:#d2a99d;fill-opacity:1;stroke:none"
         id="rect3863" />
      <rect
         id="rect3841"
         style="fill:#27794e;fill-opacity:1;stroke:none"
         width="0.847"
         height="1.1289999"
         x="9.3129997"
         y="8.184"
         rx="0.25" />
      <rect
         id="rect3843"
         style="fill:#e44933;fill-opacity:1;stroke:none"
         rx="0.25"
         y="6.2090001"
         x="9.3129997"
         height="1.1289999"
         width="0.847" />
      <rect
         id="rect3845"
         style="fill:#ffbe17;fill-opacity:1;stroke:none"
         width="0.847"
         height="1.1289999"
         x="9.3129997"
         y="4.2329998"
         rx="0.25" />
      <rect
         id="rect3847"
         style="fill:#efe0dc;fill-opacity:1;stroke:none"
         width="5.6440001"
         height="6.7729998"
         x="3.951"
         y="3.3870001"
         rx="1" />
      <path
         inkscape:connector-curvature="0"
         id="path3849"
         style="fill:#9cc2c2;fill-opacity:1;stroke:none"
         d="m 4.948,3.387 c -0.554,0 -0.997,0.443 -0.997,0.997 l 0,4.78 c 0,0.554 0.443,0.997 0.997,0.997 l 0.132,0 0,-6.773 z" />
      <rect
         id="rect3851"
         style="fill:#81584a;fill-opacity:1;stroke:none"
         rx="0.15000001"
         y="5.362"
         x="3.3870001"
         height="0.56400001"
         width="1.1289999" />
      <rect
         id="rect3853"
         style="fill:#81584a;fill-opacity:1;stroke:none"
         width="1.1289999"
         height="0.56400001"
         x="3.3870001"
         y="6.4910002"
         rx="0.15000001" />
      <rect
         id="rect3855"
         style="fill:#81584a;fill-opacity:1;stroke:none"
         rx="0.15000001"
         y="7.6199999"
         x="3.3870001"
         height="0.56400001"
         width="1.1289999" />
      <rect
         id="rect3857"
         style="fill:#81584a;fill-opacity:1;stroke:none"
         width="1.1289999"
         height="0.56400001"
         x="3.3870001"
         y="8.7489996"
         rx="0.15000001" />
      <rect
         id="rect3859"
         style="fill:#81584a;fill-opacity:1;stroke:none"
         width="1.1289999"
         height="0.56400001"
         x="3.3870001"
         y="4.2329998"
         rx="0.15000001" />
      <path
         inkscape:connector-curvature="0"
         id="path3861"
         style="fill:#233b43;fill-opacity:1"
         d="M 6.819,8.746 C 6.407,8.729 6.128,8.698 5.913,8.644 5.666,8.582 5.49,8.489 5.418,8.381 5.368,8.306 5.359,8.268 5.363,8.127 5.366,8.008 5.366,8.007 5.394,7.949 5.463,7.806 5.592,7.684 5.829,7.537 5.946,7.464 6.188,7.346 6.36,7.278 6.531,7.21 6.57,7.183 6.607,7.103 6.626,7.063 6.63,7.044 6.63,6.995 6.63,6.901 6.613,6.853 6.555,6.789 6.311,6.516 6.154,6.111 6.154,5.752 6.154,5.355 6.326,5.045 6.628,4.896 6.756,4.833 6.868,4.806 7.022,4.8 7.445,4.784 7.794,5.018 7.913,5.4 7.976,5.601 7.977,5.87 7.917,6.107 7.858,6.337 7.726,6.599 7.59,6.754 7.519,6.835 7.512,6.847 7.497,6.916 7.48,6.999 7.484,7.082 7.509,7.135 7.537,7.194 7.573,7.22 7.68,7.258 c 0.559,0.2 0.953,0.465 1.051,0.706 0.017,0.041 0.018,0.057 0.018,0.183 0,0.134 0,0.139 -0.022,0.184 C 8.637,8.523 8.353,8.646 7.856,8.709 7.637,8.737 7.074,8.758 6.819,8.748 z" />
    </g>
  </g>
</svg>
