<svg height="512" width="512" xmlns="http://www.w3.org/2000/svg" xmlns:xlink="http://www.w3.org/1999/xlink"><clipPath id="a"><path d="m643 152.5a103.5 103.5 0 1 1 -207 0 103.5 103.5 0 1 1 207 0z" transform="matrix(2.1304347 0 0 2.1304347 -892.86953 -62.391327)"/></clipPath><linearGradient id="b" gradientUnits="userSpaceOnUse" x1="622.53186" x2="475.71872" y1="236.14064" y2="111.3435"><stop offset="0" stop-color="#4fc77a"/><stop offset="1" stop-color="#4fc77a" stop-opacity="0"/></linearGradient><path d="m643 152.5a103.5 103.5 0 1 1 -207 0 103.5 103.5 0 1 1 207 0z" fill="#4fc77a" fill-rule="evenodd" transform="matrix(2.1304347 0 0 2.1304347 -892.86953 -62.391327)"/><text x="297.64383" y="-112.90028"><tspan x="297.64383" y="-112.90028"/></text><text transform="scale(4.0128205 .24920128)" x="271.25406" y="-802.19647"/><text x="878.91382" y="-192.90028"><tspan x="878.91382" y="-192.90028"/></text><text transform="scale(4.0128205 .24920128)" x="416.10333" y="-1123.2346"/><text x="-192.66618" y="-374.16025"><tspan x="-192.66618" y="-374.16025"/></text><text transform="scale(4.0128205 .24920128)" x="149.06468" y="-1850.5809"/><text x="905.38379" y="-590.63025"><tspan x="905.38379" y="-590.63025"/></text><text transform="scale(4.0128205 .24920128)" x="422.70331" y="-2719.2566"/><text x="1486.6538" y="-670.63025"><tspan x="1486.6538" y="-670.63025"/></text><text transform="scale(4.0128205 .24920128)" x="567.55255" y="-3040.2849"/><text x="1097.5338" y="-1143.0303"><tspan x="1097.5338" y="-1143.0303"/></text><text transform="scale(4.0128205 .24920128)" x="470.58301" y="-4935.9355"/><text x="1678.7938" y="-1223.0403"><tspan x="1678.7938" y="-1223.0403"/></text><text transform="scale(4.0128205 .24920128)" x="615.43231" y="-5256.9736"/><text x="-154.0062" y="191.67981"><tspan x="-154.0062" y="191.67981"/></text><g clip-path="url(#a)" opacity=".269565"><g><path d="m339.58429 357.39805c0 9.39471-7.63996 17.03706-17.03388 17.03706l212.13203436 212.13203436c9.39392 0 17.03388-7.64235 17.03388-17.03706z"/><path d="m322.55041 374.43511h-132.09531l212.13203436 212.13203436h132.09531z"/><path d="m190.4551 374.43511c-4.70053953 0-8.95975594-1.91073574-12.04416043-4.99514023l212.13203435 212.13203436c3.0844045 3.08440449 7.34362091 4.99514023 12.04416044 4.99514023z"/><path d="m178.41093957 369.43996977c-3.08544844-3.08544844-4.99528957-7.34536024-4.99528957-12.04191977l212.13203436 212.13203436c0 4.69655953 1.90984113 8.95647133 4.99528956 12.04191977z"/><path d="m173.41565 357.39805c0-.91117.16856-1.81598.49295-2.6683l212.13203436 212.13203436c-.32439.85232-.49295 1.75713-.49295 2.6683z"/><path d="m173.9086 354.72975 45.75711-119.90667 212.13203436 212.13203436-45.75711 119.90667z"/><path d="m219.66571 234.82308c.0159-.19002.0429-.38005.0668-.56769l212.13203436 212.13203436c-.0239.18764-.0509.37767-.0668.56769z"/><path d="m219.73251 234.25539v-68.71119l212.13203436 212.13203436v68.71119z"/><path d="m219.73251 165.5442h-5.40578l212.13203436 212.13203436h5.40578z"/><path d="m214.32673 165.5442c-2.06831224 0-3.93941727-.83769169-5.29380523-2.19207966l212.13203435 212.13203436c1.35438797 1.35438797 3.22549299 2.19207966 5.29380524 2.19207966z"/><path d="m209.03292477 163.35212034c-1.35555717-1.35555717-2.19350477-3.2287031-2.19350477-5.29761034l212.13203436 212.13203436c0 2.06890724.83794759 3.94205317 2.19350476 5.29761034z"/><path d="m206.83942 158.05451c0-4.13602 3.34811-7.48969 7.48731-7.48969l212.13203436 212.13203436c-4.1392 0-7.48731 3.35367-7.48731 7.48969z"/><path d="m214.32673 150.56482h12.89309l212.13203436 212.13203436h-12.89309z"/><path d="m227.21982 150.56482c2.06970139 0 3.94332124.83881981 5.2993145 2.19481307l212.13203435 212.13203435c-1.35599325-1.35599325-3.2296131-2.19481306-5.29931449-2.19481306z"/><path d="m232.5191345 152.75963307c1.35534281 1.35534281 2.1935555 3.22736304 2.1935555 5.29487693l212.13203436 212.13203436c0-2.0675139-.83821269-3.93953412-2.19355551-5.29487694z"/><path d="m234.71269 158.05451v76.77334l212.13203436 212.13203436v-76.77334z"/><path d="m234.71269 234.82785c0 .43094-.0374.8571-.10972 1.28327l212.13203436 212.13203436c.07232-.42617.10972-.85233.10972-1.28327z"/><path d="m234.60297 236.11112c0 .91355-.21944 2.14275-.5494 2.9919l212.13203436 212.13203436c.32996-.84915.5494-2.07835.5494-2.9919z"/><path d="m234.05357 239.10302-27.55921 72.22545 212.13203436 212.13203436 27.55921-72.22545z"/><path d="m206.49436 311.32847h99.36963l212.13203436 212.13203436h-99.36963z"/><path d="m305.86399 311.32847-28.47276-72.13799 212.13203436 212.13203436 28.47276 72.13799z"/><path d="m277.39123 239.19048c-.3077-.7768-.48182-1.59812-.5168-2.42978l212.13203436 212.13203436c.03498.83166.2091 1.65298.5168 2.42978z"/><path d="m276.87443 236.7607-.0612-.4524 212.13203436 212.13203436.0612.4524z"/><path d="m276.81323 236.3083c-.0318-.29498-.0485-.58916-.0485-.88413l212.13203436 212.13203436c0 .29497.0167.58915.0485.88413z"/><path d="m276.76473 235.42417v-77.36171l212.13203436 212.13203436v77.36171z"/><path d="m276.76473 158.06246c0-4.13603 3.34809-7.48969 7.4873-7.48969l212.13203436 212.13203436c-4.13921 0-7.4873 3.35366-7.4873 7.48969z"/><path d="m284.25203 150.57277h13.23021l212.13203436 212.13203436h-13.23021z"/><path d="m297.48224 150.57277c2.06830974 0 3.93941025.83768966 5.29379533 2.19207474l212.13203435 212.13203436c-1.35438508-1.35438508-3.22548558-2.19207474-5.29379532-2.19207474z"/><path d="m302.77603533 152.76484474c1.35555755 1.35555756 2.19350467 3.22870552 2.19350467 5.29761526l212.13203436 212.13203436c0-2.06890975-.83794712-3.9420577-2.19350468-5.29761526z"/><path d="m304.96954 158.06246c0 4.13603-3.34809 7.48969-7.4873 7.48969l212.13203436 212.13203436c4.13921 0 7.4873-3.35366 7.4873-7.48969z"/><path d="m297.48224 165.55215h-5.74608l212.13203436 212.13203436h5.74608z"/><path d="m291.73616 165.55215v69.20415l212.13203436 212.13203436v-69.20415z"/><path d="m291.73616 234.7563 47.32341 119.8987 212.13203436 212.13203436-47.32341-119.8987z"/><path d="m339.05957 354.655c.34587.87857.52476 1.80803.52476 2.751l212.13203436 212.13203436c0-.94297-.17889-1.87243-.52476-2.751z"/><path d="m241.99562 294.65318c0-3.09686 2.51566-5.62125 5.6133-5.62125l212.13203436 212.13203436c-3.09764 0-5.6133 2.52439-5.6133 5.62125z"/><path d="m247.60892 289.03193c1.55011718 0 2.95583425.62991151 3.97381964 1.6478969l212.13203435 212.13203435c-1.01798539-1.01798539-2.42370245-1.64789689-3.97381963-1.64789689z"/><path d="m251.58273964 290.6798269c1.01733238 1.01733238 1.64743036 2.42224092 1.64743036 3.9733531l212.13203436 212.13203436c0-1.55111218-.63009799-2.95602073-1.64743037-3.97335311z"/><path d="m253.23017 294.65318c0 3.09367-2.52042 5.62124-5.62125 5.62124l212.13203436 212.13203436c3.10083 0 5.62125-2.52757 5.62125-5.62124z"/><path d="m247.60892 300.27442c-1.54743444 0-2.94898625-.62912163-3.96456418-1.64469956l212.13203436 212.13203436c1.01557792 1.01557792 2.41712974 1.64469956 3.96456418 1.64469956z"/><path d="m243.64435582 298.62972044c-1.01844667-1.01844667-1.64873582-2.42553601-1.64873582-3.97654044l212.13203436 212.13203436c0 1.55100443.63028914 2.95809376 1.64873582 3.97654044z"/><path d="m245.73491 294.65318c0 .5150125.20981288.98203392.5483238 1.32054483l212.13203435 212.13203436c-.33851091-.33851091-.54832379-.80553233-.54832379-1.32054483z"/><path d="m246.2832338 295.97372483c.33929637.33929637.8078887.54948517 1.3240962.54948517l212.13203436 212.13203436c-.5162075 0-.98479984-.2101888-1.32409621-.54948517z"/><path d="m247.60733 296.52321c1.03123 0 1.87242-.83881 1.87242-1.87003l212.13203436 212.13203436c0 1.03122-.84119 1.87003-1.87242 1.87003z"/><path d="m249.47975 294.65318c0-.51680939-.20997591-.98459636-.54872062-1.32334107l212.13203436 212.13203436c.3387447.3387447.54872062.80653167.54872062 1.32334107z"/><path d="m248.93102938 293.32983893c-.33926331-.33926331-.80768999-.54908893-1.32369938-.54908893l212.13203436 212.13203436c.51600939 0 .98443607.20982562 1.32369938.54908893z"/><path d="m247.60733 292.78075c-1.03122 0-1.87242.83881-1.87242 1.87243l212.13203436 212.13203436c0-1.03362.8412-1.87243 1.87242-1.87243z"/><path d="m271.01143 289.03193c0-3.09686 2.52042-5.62125 5.62125-5.62125l212.13203436 212.13203436c-3.10083 0-5.62125 2.52439-5.62125 5.62125z"/><path d="m276.63268 283.41068c1.54812471 0 2.95023817.62829727 3.9659241 1.6439832l212.13203435 212.13203435c-1.01568593-1.01568593-2.41779938-1.64398319-3.96592409-1.64398319z"/><path d="m280.5986041 285.0546632c1.01764141 1.01764141 1.6473659 2.42416459 1.6473659 3.9772668l212.13203436 212.13203436c0-1.55310221-.62972449-2.95962539-1.64736591-3.97726681z"/><path d="m282.24597 289.03193c0 3.09367-2.51564 5.62125-5.61329 5.62125l212.13203436 212.13203436c3.09765 0 5.61329-2.52758 5.61329-5.62125z"/><path d="m276.63268 294.65318c-1.5498187 0-2.95529289-.6302666-3.97323154-1.64820525l212.13203435 212.13203435c1.01793866 1.01793866 2.42341285 1.64820526 3.97323155 1.64820526z"/><path d="m272.65944846 293.00497475c-1.01767764-1.01767764-1.64801846-2.42282855-1.64801846-3.97304475l212.13203436 212.13203436c0 1.5502162.63034082 2.9553671 1.64801845 3.97304474z"/><path d="m274.75628 289.03193c0 .51501375.2098139.98203869.54832751 1.3205523l212.13203436 212.13203435c-.33851361-.33851361-.54832751-.80553854-.54832751-1.32055229z"/><path d="m275.30460751 290.3524823c.33929742.33929742.80789124.5494877 1.32410249.5494877l212.13203436 212.13203436c-.51621126 0-.98480507-.21019029-1.32410249-.54948771z"/><path d="m276.62871 290.90197c1.03122 0 1.87242-.83882 1.87242-1.87004l212.13203436 212.13203436c0 1.03122-.8412 1.87004-1.87242 1.87004z"/><path d="m278.50113 289.03193c0-.5165059-.21005665-.98436816-.5489137-1.32322521l212.13203436 212.13203436c.33885704.33885704.5489137.8067193.5489137 1.32322521z"/><path d="m277.9522163 287.70870479c-.33924949-.33924949-.8075979-.54919479-1.3235063-.54919479l212.13203436 212.13203436c.5159084 0 .9842568.20994529 1.3235063.54919479z"/><path d="m276.62871 287.15951c-1.03123 0-1.87243.84119-1.87243 1.87242l212.13203436 212.13203436c0-1.03123.8412-1.87242 1.87243-1.87242z"/><path d="m255.40472 270.31008c0-4.30221 3.50076-7.80296 7.80614-7.80296l212.13203436 212.13203436c-4.30538 0-7.80614 3.50075-7.80614 7.80296z"/><path d="m263.21086 262.50712c2.14931132 0 4.099292.87502572 5.51202575 2.28775947l212.13203435 212.13203436c-1.41273374-1.41273375-3.36271442-2.28775947-5.51202574-2.28775947z"/><path d="m268.72288575 264.79487947c1.41299492 1.41299492 2.28854425 3.36389671 2.28854425 5.51520053l212.13203436 212.13203436c0-2.15130383-.87554933-4.10220561-2.28854426-5.51520053z"/><path d="m271.01143 270.31008c0 4.29902-3.50076 7.80296-7.80057 7.80296l212.13203436 212.13203436c4.29981 0 7.80057-3.50394 7.80057-7.80296z"/><path d="m263.21086 278.11304c-2.15398381 0-4.10559906-.8752703-5.51867823-2.28834947l212.13203436 212.13203436c1.41307917 1.41307916 3.36469441 2.28834947 5.51867823 2.28834947z"/><path d="m257.69218177 275.82469053c-1.41294952-1.41294952-2.28746177-3.36360922-2.28746177-5.51461053l212.13203436 212.13203436c0 2.15100131.87451225 4.10166101 2.28746177 5.51461053z"/><path d="m259.14957 270.31008c0 1.11788778.45506155 2.13209176 1.18995526 2.86698547l212.13203435 212.13203436c-.7348937-.73489371-1.18995525-1.74909769-1.18995525-2.86698547z"/><path d="m260.33952526 273.17706547c.73541596.73541597 1.75106196 1.19112453 2.87133474 1.19112453l212.13203436 212.13203436c-1.12027279 0-2.13591878-.45570857-2.87133475-1.19112453z"/><path d="m263.21086 274.36819c2.23419 0 4.06129-1.82154 4.06129-4.05811l212.13203436 212.13203436c0 2.23657-1.8271 4.05811-4.06129 4.05811z"/><path d="m267.27215 270.31008c0-1.11918288-.4562065-2.1339384-1.19144952-2.86918142l212.13203435 212.13203435c.73524303.73524303 1.19144953 1.74999854 1.19144953 2.86918143z"/><path d="m266.08070048 267.44089858c-.73615896-.73615896-1.7520501-1.19210858-2.86984048-1.19210858l212.13203436 212.13203436c1.11779038 0 2.13368152.45594962 2.86984047 1.19210857z"/><path d="m263.21086 266.24879c-2.23975 0-4.06129 1.82153-4.06129 4.06129l212.13203436 212.13203436c0-2.23976 1.82154-4.06129 4.06129-4.06129z"/></g><path d="m339.58429 357.39805c0 9.39471-7.63996 17.03706-17.03388 17.03706h-132.09531c-9.40267 0-17.03945-7.64553-17.03945-17.03706 0-.91117.16856-1.81598.49295-2.6683l45.75711-119.90667c.0159-.19002.0429-.38005.0668-.56769v-68.71119h-5.40578c-4.13841 0-7.48731-3.35366-7.48731-7.48969 0-4.13602 3.34811-7.48969 7.48731-7.48969h12.89309c4.13841 0 7.49287 3.35367 7.49287 7.48969v76.77334c0 .43094-.0374.8571-.10972 1.28327 0 .91355-.21944 2.14275-.5494 2.9919l-27.55921 72.22545h99.36963l-28.47276-72.13799c-.3077-.7768-.48182-1.59812-.5168-2.42978l-.0612-.4524c-.0318-.29498-.0485-.58916-.0485-.88413v-77.36171c0-4.13603 3.34809-7.48969 7.4873-7.48969h13.23021c4.13841 0 7.4873 3.35366 7.4873 7.48969s-3.34809 7.48969-7.4873 7.48969h-5.74608v69.20415l47.32341 119.8987c.34587.87857.52476 1.80803.52476 2.751m-97.58871-62.75282c0-3.09686 2.51566-5.62125 5.6133-5.62125 3.09924 0 5.62125 2.51803 5.62125 5.62125 0 3.09367-2.52042 5.62124-5.62125 5.62124-3.09924 0-5.6133-2.5236-5.6133-5.62124m3.73929 0c0 1.03122.8412 1.87003 1.87242 1.87003 1.03123 0 1.87242-.83881 1.87242-1.87003 0-1.03441-.84119-1.87243-1.87242-1.87243-1.03122 0-1.87242.83881-1.87242 1.87243m25.27652-5.62125c0-3.09686 2.52042-5.62125 5.62125-5.62125 3.09923 0 5.61329 2.51803 5.61329 5.62125 0 3.09367-2.51564 5.62125-5.61329 5.62125-3.09924 0-5.62125-2.52042-5.62125-5.62125m3.74485 0c0 1.03122.8412 1.87004 1.87243 1.87004 1.03122 0 1.87242-.83882 1.87242-1.87004 0-1.03361-.8412-1.87242-1.87242-1.87242-1.03123 0-1.87243.84119-1.87243 1.87242m-19.35156-18.72185c0-4.30221 3.50076-7.80296 7.80614-7.80296 4.29902 0 7.80057 3.50075 7.80057 7.80296 0 4.29902-3.50076 7.80296-7.80057 7.80296-4.30777 0-7.80614-3.50076-7.80614-7.80296m3.74485 0c0 2.23657 1.82154 4.05811 4.06129 4.05811 2.23419 0 4.06129-1.82154 4.06129-4.05811 0-2.23976-1.8271-4.06129-4.06129-4.06129-2.23975 0-4.06129 1.82153-4.06129 4.06129"/></g><path d="m643 152.5a103.5 103.5 0 1 1 -207 0 103.5 103.5 0 1 1 207 0z" fill="url(#b)" fill-rule="evenodd" transform="matrix(2.1304347 0 0 2.1304347 -892.86953 -62.391327)"/><path d="m339.58429 357.39805c0 9.39471-7.63996 17.03706-17.03388 17.03706h-132.09531c-9.40267 0-17.03945-7.64553-17.03945-17.03706 0-.91117.16856-1.81598.49295-2.6683l45.75711-119.90667c.0159-.19002.0429-.38005.0668-.56769v-68.71119h-5.40578c-4.13841 0-7.48731-3.35366-7.48731-7.48969 0-4.13602 3.34811-7.48969 7.48731-7.48969h12.89309c4.13841 0 7.49287 3.35367 7.49287 7.48969v76.77334c0 .43094-.0374.8571-.10972 1.28327 0 .91355-.21944 2.14275-.5494 2.9919l-27.55921 72.22545h99.36963l-28.47276-72.13799c-.3077-.7768-.48182-1.59812-.5168-2.42978l-.0612-.4524c-.0318-.29498-.0485-.58916-.0485-.88413v-77.36171c0-4.13603 3.34809-7.48969 7.4873-7.48969h13.23021c4.13841 0 7.4873 3.35366 7.4873 7.48969s-3.34809 7.48969-7.4873 7.48969h-5.74608v69.20415l47.32341 119.8987c.34587.87857.52476 1.80803.52476 2.751m-97.58871-62.75282c0-3.09686 2.51566-5.62125 5.6133-5.62125 3.09924 0 5.62125 2.51803 5.62125 5.62125 0 3.09367-2.52042 5.62124-5.62125 5.62124-3.09924 0-5.6133-2.5236-5.6133-5.62124m3.73929 0c0 1.03122.8412 1.87003 1.87242 1.87003 1.03123 0 1.87242-.83881 1.87242-1.87003 0-1.03441-.84119-1.87243-1.87242-1.87243-1.03122 0-1.87242.83881-1.87242 1.87243m25.27652-5.62125c0-3.09686 2.52042-5.62125 5.62125-5.62125 3.09923 0 5.61329 2.51803 5.61329 5.62125 0 3.09367-2.51564 5.62125-5.61329 5.62125-3.09924 0-5.62125-2.52042-5.62125-5.62125m3.74485 0c0 1.03122.8412 1.87004 1.87243 1.87004 1.03122 0 1.87242-.83882 1.87242-1.87004 0-1.03361-.8412-1.87242-1.87242-1.87242-1.03123 0-1.87243.84119-1.87243 1.87242m-19.35156-18.72185c0-4.30221 3.50076-7.80296 7.80614-7.80296 4.29902 0 7.80057 3.50075 7.80057 7.80296 0 4.29902-3.50076 7.80296-7.80057 7.80296-4.30777 0-7.80614-3.50076-7.80614-7.80296m3.74485 0c0 2.23657 1.82154 4.05811 4.06129 4.05811 2.23419 0 4.06129-1.82154 4.06129-4.05811 0-2.23976-1.8271-4.06129-4.06129-4.06129-2.23975 0-4.06129 1.82153-4.06129 4.06129" fill="#ffffde"/></svg>