<?xml version="1.0" encoding="UTF-8" standalone="no"?>
<!-- Created with Inkscape (http://www.inkscape.org/) -->

<svg
   xmlns:dc="http://purl.org/dc/elements/1.1/"
   xmlns:cc="http://creativecommons.org/ns#"
   xmlns:rdf="http://www.w3.org/1999/02/22-rdf-syntax-ns#"
   xmlns:svg="http://www.w3.org/2000/svg"
   xmlns="http://www.w3.org/2000/svg"
   xmlns:xlink="http://www.w3.org/1999/xlink"
   xmlns:sodipodi="http://sodipodi.sourceforge.net/DTD/sodipodi-0.dtd"
   xmlns:inkscape="http://www.inkscape.org/namespaces/inkscape"
   id="svg2"
   version="1.1"
   inkscape:version="0.92.1 r15371"
   width="512"
   height="513"
   sodipodi:docname="alienarena.svg"
   viewBox="0 0 512 513"
   inkscape:export-filename="/home/silerio/Imágenes/iconos/alien arena.png"
   inkscape:export-xdpi="90"
   inkscape:export-ydpi="90">
  <sodipodi:namedview
     pagecolor="#ffffff"
     bordercolor="#666666"
     borderopacity="1"
     objecttolerance="10"
     gridtolerance="10"
     guidetolerance="10"
     inkscape:pageopacity="0"
     inkscape:pageshadow="2"
     inkscape:window-width="1920"
     inkscape:window-height="1040"
     id="namedview4"
     showgrid="false"
     showguides="false"
     inkscape:guide-bbox="true"
     inkscape:zoom="0.70710678"
     inkscape:cx="449.64661"
     inkscape:cy="126.65377"
     inkscape:window-x="0"
     inkscape:window-y="0"
     inkscape:window-maximized="1"
     inkscape:current-layer="svg2"
     inkscape:document-units="px" />
  <metadata
     id="metadata8">
    <rdf:RDF>
      <cc:Work
         rdf:about="">
        <dc:format>image/svg+xml</dc:format>
        <dc:type
           rdf:resource="http://purl.org/dc/dcmitype/StillImage" />
        <dc:title />
      </cc:Work>
    </rdf:RDF>
  </metadata>
  <defs
     id="defs6">
    <linearGradient
       inkscape:collect="always"
       id="linearGradient3872">
      <stop
         style="stop-color:#44abb1;stop-opacity:1;"
         offset="0"
         id="stop3874" />
      <stop
         style="stop-color:#44abb1;stop-opacity:0;"
         offset="1"
         id="stop3876" />
    </linearGradient>
    <clipPath
       clipPathUnits="userSpaceOnUse"
       id="clipPath3866">
      <path
         d="m 1444,449 a 312,312 0 1 1 -624,0 312,312 0 1 1 624,0 z"
         sodipodi:ry="312"
         sodipodi:rx="312"
         sodipodi:cy="449"
         sodipodi:cx="1132"
         id="path3868"
         style="fill:#44abb1;fill-opacity:1;fill-rule:evenodd;stroke:none"
         sodipodi:type="arc"
         transform="matrix(0.68724124,0,0,0.68724124,-521.35527,-47.661719)" />
    </clipPath>
    <linearGradient
       inkscape:collect="always"
       xlink:href="#linearGradient3872"
       id="linearGradient3878"
       x1="1361.2046"
       y1="663.01251"
       x2="1079.7672"
       y2="407.84375"
       gradientUnits="userSpaceOnUse" />
  </defs>
  <path
     transform="matrix(0.68724124,0,0,0.68724124,-521.35527,-47.661719)"
     sodipodi:type="arc"
     style="fill:#44abb1;fill-opacity:1;fill-rule:evenodd;stroke:none"
     id="path3779"
     sodipodi:cx="1132"
     sodipodi:cy="449"
     sodipodi:rx="312"
     sodipodi:ry="312"
     d="m 1444,449 a 312,312 0 1 1 -624,0 312,312 0 1 1 624,0 z" />
  <g
     id="g3761"
     clip-path="url(#clipPath3866)"
     style="opacity:0.29130435">
    <g
       id="g3763"
       style="fill:#000000;fill-opacity:1;fill-rule:evenodd;stroke:none">
      <path
         id="path3765"
         d="M255.83615 136.5844C193.2114 136.5844 141.82347 177.618 141.82347 228.22518L424.666182475 511.067892475C424.666182475 460.460712475 476.054112475 419.427112475 538.678862475 419.427112475Z" />
      <path
         id="path3767"
         d="M141.82347 228.22518C141.82347 249.824746088 151.191578761 269.671214783 166.853457409 285.33309343L449.696169883 568.175805905C434.034291236 552.513927257 424.666182475 532.667458562 424.666182475 511.067892475Z" />
      <path
         id="path3769"
         d="M166.853457409 285.33309343C169.210112763 287.689748784 171.70926826 289.951658908 174.34045 292.11054L457.183162475 574.953252475C454.551980734 572.794371382 452.052825237 570.532461259 449.696169883 568.175805905Z" />
      <path
         id="path3771"
         d="M174.34045 292.11054L186.23227 318.50213L469.074982475 601.344842475L457.183162475 574.953252475Z" />
      <path
         id="path3773"
         d="M186.23227 318.50213L186.23227 322.54581L469.074982475 605.388522475L469.074982475 601.344842475Z" />
      <path
         id="path3775"
         d="M186.23227 322.54581C186.23227 330.457471384 192.512579175 338.608890905 200.213998921 346.310310652L483.056711395 629.153023126C475.355291649 621.45160338 469.074982475 613.300183859 469.074982475 605.388522475Z" />
      <path
         id="path3777"
         d="M200.213998921 346.310310652C206.937317165 353.033628895 214.743698159 359.413991423 220.40016 364.99248L503.242872475 647.835192475C497.586410633 642.256703898 489.780029639 635.87634137 483.056711395 629.153023126Z" />
      <path
         id="path3780"
         d="M220.40016 364.99248C220.569652114 365.1596368 220.737213878 365.326072905 220.902916812 365.49177584L503.745629287 648.334488314C503.579926352 648.16878538 503.412364588 648.002349275 503.242872475 647.835192475Z" />
      <path
         id="path3782"
         d="M220.902916812 365.49177584C225.445640432 370.034499459 228.591314534 374.026190785 231.81356104 377.209822366L514.656273514 660.052534841C511.434027009 656.86890326 508.288352906 652.877211934 503.745629287 648.334488314Z" />
      <path
         id="path3784"
         d="M231.81356104 377.209822366C236.889468881 382.22490128 242.15538924 385.2348 253.3717 385.2348L536.214412475 668.077512475C524.998101715 668.077512475 519.732181356 665.067613754 514.656273514 660.052534841Z" />
      <path
         id="path3786"
         d="M253.3717 385.2348L259.85591 385.2348L542.698622475 668.077512475L536.214412475 668.077512475Z" />
      <path
         id="path3788"
         d="M259.85591 385.2348C278.45221 385.2348 282.9887 376.96102 295.12445 364.99248L577.967162475 647.835192475C565.831412475 659.803732475 561.294922475 668.077512475 542.698622475 668.077512475Z" />
      <path
         id="path3790"
         d="M295.12445 364.99248C307.26019 353.02395 326.99534 337.36433 326.99534 322.54581L609.838052475 605.388522475C609.838052475 620.207042475 590.102902475 635.866662475 577.967162475 647.835192475Z" />
      <path
         id="path3792"
         d="M326.99534 322.54581L326.99534 315.20019L609.838052475 598.042902475L609.838052475 605.388522475Z" />
      <path
         id="path3794"
         d="M326.99534 315.20019L337.35582 293.30689L620.198532475 576.149602475L609.838052475 598.042902475Z" />
      <path
         id="path3796"
         d="M337.35582 293.30689C358.35876 276.70048 371.38016 253.6889 371.38016 228.22518L654.222872475 511.067892475C654.222872475 536.531612475 641.201472475 559.543192475 620.198532475 576.149602475Z" />
      <path
         id="path3798"
         d="M371.38016 228.22518C371.38016 206.61981799 362.014053353 186.759366618 346.346489006 171.091802271L629.189201481 453.934514746C644.856765828 469.602079093 654.222872475 489.462530464 654.222872475 511.067892475Z" />
      <path
         id="path3800"
         d="M346.346489006 171.091802271C325.315235315 150.06054858 292.929472189 136.5844 256.60182 136.5844L539.444532475 419.427112475C575.772184663 419.427112475 608.15794779 432.903261055 629.189201481 453.934514746Z" />
      <path
         id="path3802"
         d="M207.0967 275.60085C214.550547063 275.268132697 224.002272019 280.068222836 231.039463354 287.10541417L513.882175828 569.948126645C506.844984494 562.910935311 497.393259537 558.110845171 489.939412475 558.443562475Z" />
      <path
         id="path3804"
         d="M231.039463354 287.10541417C238.170466201 294.236417018 242.822130924 303.664563393 240.40322 312.37679L523.245932475 595.219502475C525.664843399 586.507275867 521.013178676 577.079129492 513.882175828 569.948126645Z" />
      <path
         id="path3806"
         d="M240.40322 312.37679C235.18205 321.7622 218.59449 323.47629 206.85743 316.94687L489.700142475 599.789582475C501.437202475 606.319002475 518.024762475 604.604912475 523.245932475 595.219502475Z" />
      <path
         id="path3808"
         d="M206.85743 316.94687C205.662868753 316.243787257 204.491863112 315.311169104 203.376869243 314.196175235L486.219581717 597.038887709C487.334575586 598.153881578 488.505581228 599.086499732 489.700142475 599.789582475Z" />
      <path
         id="path3810"
         d="M203.376869243 314.196175235C194.138119408 304.9574254 188.744940035 283.197403143 205.66106 275.74441L488.503772475 558.587122475C471.587652509 566.040115618 476.980831883 587.800137874 486.219581717 597.038887709Z" />
      <path
         id="path3812"
         d="M205.66106 275.74441C206.12706 275.67861 206.61256 275.62245 207.0967 275.60085L489.939412475 558.443562475C489.455272475 558.465162475 488.969772475 558.521322475 488.503772475 558.587122475Z" />
      <path
         id="path3814"
         d="M307.30338 275.60085C308.30296 275.55895 309.26655 275.61305 309.43285 275.74441L592.275562475 558.587122475C592.109262475 558.455762475 591.145672475 558.401662475 590.146092475 558.443562475Z" />
      <path
         id="path3816"
         d="M309.43285 275.74441C312.075612573 276.863569976 314.201579597 278.305335891 315.875111368 279.978867662L598.717823843 562.821580137C597.044292072 561.148048366 594.918325048 559.706282451 592.275562475 558.587122475Z" />
      <path
         id="path3818"
         d="M315.875111368 279.978867662C326.691415015 290.795171309 318.608395277 311.292899679 309.00217 316.94687L591.844882475 599.789582475C601.451107751 594.135612154 609.534127489 573.637883783 598.717823843 562.821580137Z" />
      <path
         id="path3820"
         d="M309.00217 316.94687C298.612315583 322.726823875 284.421517649 322.047087342 277.678998447 315.304568141L560.521710922 598.147280615C567.264230123 604.889799817 581.455028058 605.569536349 591.844882475 599.789582475Z" />
      <path
         id="path3822"
         d="M277.678998447 315.304568141C276.804719889 314.430289582 276.055672141 313.454075098 275.45638 312.37679L558.299092475 595.219502475C558.898384616 596.296787573 559.647432363 597.273002057 560.521710922 598.147280615Z" />
      <path
         id="path3824"
         d="M275.45638 312.37679C270.80541 295.62533 292.31001 276.22779 307.30338 275.60085L590.146092475 558.443562475C575.152722475 559.070502475 553.648122475 578.468042475 558.299092475 595.219502475Z" />
    </g>
    <path
       inkscape:connector-curvature="0"
       id="path3753"
       d="m 255.83615,136.5844 c -62.62475,0 -114.01268,41.0336 -114.01268,91.64078 0,24.84967 12.39947,47.37897 32.51698,63.88536 l 11.89182,26.39159 0,4.04368 c 0,14.81852 22.03207,30.47814 34.16789,42.44667 12.13575,11.96854 14.37526,20.24232 32.97154,20.24232 l 6.48421,0 c 18.5963,0 23.13279,-8.27378 35.26854,-20.24232 12.13574,-11.96853 31.87089,-27.62815 31.87089,-42.44667 l 0,-7.34562 10.36048,-21.8933 c 21.00294,-16.60641 34.02434,-39.61799 34.02434,-65.08171 0,-50.60718 -51.38783,-91.64078 -114.77834,-91.64078 z M 207.0967,275.60085 c 15.00706,-0.66987 38.11252,19.4661 33.30652,36.77594 -5.22117,9.38541 -21.80873,11.0995 -33.54579,4.57008 -11.0926,-6.52877 -20.15404,-32.84999 -1.19637,-41.20246 0.466,-0.0658 0.9515,-0.12196 1.43564,-0.14356 z m 100.20668,0 c 0.99958,-0.0419 1.96317,0.0122 2.12947,0.14356 19.72336,8.35247 10.66185,34.67369 -0.43068,41.20246 -11.73707,6.52942 -28.3247,4.81533 -33.54579,-4.57008 -4.65097,-16.75146 16.85363,-36.149 31.847,-36.77594 z"
       style="fill:#000000;fill-opacity:1;fill-rule:evenodd;stroke:none" />
  </g>
  <path
     d="m 1444,449 a 312,312 0 1 1 -624,0 312,312 0 1 1 624,0 z"
     sodipodi:ry="312"
     sodipodi:rx="312"
     sodipodi:cy="449"
     sodipodi:cx="1132"
     id="path3870"
     style="fill:url(#linearGradient3878);fill-opacity:1;fill-rule:evenodd;stroke:none"
     sodipodi:type="arc"
     transform="matrix(0.68724124,0,0,0.68724124,-521.35527,-47.661719)" />
  <path
     style="fill:#ffffff;fill-opacity:1;fill-rule:evenodd;stroke:none"
     d="m 255.83615,136.5844 c -62.62475,0 -114.01268,41.0336 -114.01268,91.64078 0,24.84967 12.39947,47.37897 32.51698,63.88536 l 11.89182,26.39159 0,4.04368 c 0,14.81852 22.03207,30.47814 34.16789,42.44667 12.13575,11.96854 14.37526,20.24232 32.97154,20.24232 l 6.48421,0 c 18.5963,0 23.13279,-8.27378 35.26854,-20.24232 12.13574,-11.96853 31.87089,-27.62815 31.87089,-42.44667 l 0,-7.34562 10.36048,-21.8933 c 21.00294,-16.60641 34.02434,-39.61799 34.02434,-65.08171 0,-50.60718 -51.38783,-91.64078 -114.77834,-91.64078 z M 207.0967,275.60085 c 15.00706,-0.66987 38.11252,19.4661 33.30652,36.77594 -5.22117,9.38541 -21.80873,11.0995 -33.54579,4.57008 -11.0926,-6.52877 -20.15404,-32.84999 -1.19637,-41.20246 0.466,-0.0658 0.9515,-0.12196 1.43564,-0.14356 z m 100.20668,0 c 0.99958,-0.0419 1.96317,0.0122 2.12947,0.14356 19.72336,8.35247 10.66185,34.67369 -0.43068,41.20246 -11.73707,6.52942 -28.3247,4.81533 -33.54579,-4.57008 -4.65097,-16.75146 16.85363,-36.149 31.847,-36.77594 z"
     id="path3760"
     inkscape:connector-curvature="0" />
</svg>
