<?xml version="1.0" encoding="UTF-8" standalone="no"?>
<!-- Created with Inkscape (http://www.inkscape.org/) -->

<svg
   xmlns:dc="http://purl.org/dc/elements/1.1/"
   xmlns:cc="http://creativecommons.org/ns#"
   xmlns:rdf="http://www.w3.org/1999/02/22-rdf-syntax-ns#"
   xmlns:svg="http://www.w3.org/2000/svg"
   xmlns="http://www.w3.org/2000/svg"
   xmlns:sodipodi="http://sodipodi.sourceforge.net/DTD/sodipodi-0.dtd"
   xmlns:inkscape="http://www.inkscape.org/namespaces/inkscape"
   width="512"
   height="512"
   id="svg2"
   version="1.1"
   inkscape:version="0.48.4 r9939"
   sodipodi:docname="Nuevo documento 1">
  <defs
     id="defs4" />
  <sodipodi:namedview
     id="base"
     pagecolor="#ffffff"
     bordercolor="#666666"
     borderopacity="1.0"
     inkscape:pageopacity="0.0"
     inkscape:pageshadow="2"
     inkscape:zoom="0.49497475"
     inkscape:cx="626.11226"
     inkscape:cy="410.34462"
     inkscape:document-units="px"
     inkscape:current-layer="layer1"
     showgrid="false"
     inkscape:window-width="1360"
     inkscape:window-height="721"
     inkscape:window-x="0"
     inkscape:window-y="25"
     inkscape:window-maximized="1" />
  <metadata
     id="metadata7">
    <rdf:RDF>
      <cc:Work
         rdf:about="">
        <dc:format>image/svg+xml</dc:format>
        <dc:type
           rdf:resource="http://purl.org/dc/dcmitype/StillImage" />
        <dc:title></dc:title>
      </cc:Work>
    </rdf:RDF>
  </metadata>
  <g
     inkscape:label="Capa 1"
     inkscape:groupmode="layer"
     id="layer1"
     transform="translate(0,-540.36218)">
    <path
       sodipodi:type="arc"
       style="fill:#36444e;fill-opacity:1;fill-rule:evenodd;stroke:none"
       id="path2985"
       sodipodi:cx="410"
       sodipodi:cy="610.93359"
       sodipodi:rx="152.85715"
       sodipodi:ry="152.85715"
       d="m 562.85715,610.93359 a 152.85715,152.85715 0 1 1 -305.7143,0 152.85715,152.85715 0 1 1 305.7143,0 z"
       transform="matrix(1.2064388,0,0,1.2064388,-234.1425,69.848363)" />
    <path
       style="font-size:medium;font-style:normal;font-variant:normal;font-weight:normal;font-stretch:normal;text-indent:0;text-align:start;text-decoration:none;line-height:normal;letter-spacing:normal;word-spacing:normal;text-transform:none;direction:ltr;block-progression:tb;writing-mode:lr-tb;text-anchor:start;baseline-shift:baseline;color:#000000;fill:#a0cf71;fill-opacity:1;fill-rule:evenodd;stroke:none;stroke-width:46.59999847;marker:none;visibility:visible;display:inline;overflow:visible;enable-background:accumulate;font-family:Sans;-inkscape-font-specification:Sans"
       d="m 260.49742,594.38535 c -117.04017,0 -212.521739,95.48157 -212.521739,212.52174 0,117.04016 95.481569,212.52171 212.521739,212.52171 117.04017,0 212.52174,-95.48155 212.52174,-212.52171 0,-117.04017 -95.48157,-212.52174 -212.52174,-212.52174 z m 0,56.21251 c 73.42941,0 134.65589,50.01341 151.63428,118.0048 l -32.53614,32.19683 -80.94451,-74.34679 -74.79921,109.67283 -55.34538,-53.61113 -53.68653,81.43462 c -6.87249,-17.6519 -10.63174,-36.88833 -10.63174,-57.04193 0,-86.6566 69.65264,-156.30923 156.30923,-156.30923 z"
       id="path3755"
       inkscape:connector-curvature="0" />
    <path
       style="fill:#598147;fill-opacity:0.70297032;stroke:none"
       d="M 435.54416,686.67792 332.54444,819.08458 313.05291,800.79949 228.94151,919.0305 196.06605,883.66676 c 0,0 -43.25702,59.73109 -64.31827,92.10406 35.77518,27.36368 80.41325,43.65798 128.74964,43.65798 117.04017,0 212.52174,-95.48155 212.52174,-212.52171 0,-44.56986 -13.86474,-85.99419 -37.475,-120.22917 z"
       id="path3763"
       inkscape:connector-curvature="0" />
  </g>
</svg>
