<svg height="512" width="512" xmlns="http://www.w3.org/2000/svg" xmlns:xlink="http://www.w3.org/1999/xlink"><linearGradient id="a"><stop offset="0"/><stop offset="1" stop-opacity="0"/></linearGradient><linearGradient id="b" gradientUnits="userSpaceOnUse" x1="-216.56641" x2="392.39844" xlink:href="#a" y1="-96.052734" y2="385.94727"/><linearGradient id="c" gradientUnits="userSpaceOnUse" x1="-91.751953" x2="447.73047" xlink:href="#a" y1="-36.217773" y2="437.78223"/><g transform="translate(0 464)"><path d="m44.322082 27.405077a19.729762 19.729765 0 0 1 -19.729762 19.729765 19.729762 19.729765 0 0 1 -19.7297621-19.729765 19.729762 19.729765 0 0 1 19.7297621-19.7297632 19.729762 19.729765 0 0 1 19.729762 19.7297632z" fill="#10a653" opacity=".99" transform="matrix(12.332308 0 0 12.332308 -47.545312 -537.4136)"/><path d="m201.82422 126.8125-6.75 6.75 16.3418 16.3418c-16.1083 10.59305-27.28907 27.88603-27.28907 51.89062l14.32227 14.32227h-14.32227v14.32031l-14.32031-14.32031h-34.37305v100.25l77.33789 77.33789v8.5918l98.78516 98.78515a243.3135 243.31354 0 0 0 182.8418-189.51953l-178.00196-178-6.75-6.75-18.24804 18.24805c-10.9014-5.13882-23.28164-7.71289-35.66406-7.71289s-24.7607 2.57407-35.66211 7.71289z" fill="url(#b)" transform="translate(0 -464)"/><path d="m201.8246-337.18792-6.75 6.75 16.3418 16.3418c-16.1083 10.59305-27.28906 27.88603-27.28906 51.89062h143.21484c0-24.00422-11.18117-41.29557-27.28906-51.88867l16.34375-16.34375-6.75-6.75-18.24805 18.24805c-10.9014-5.13882-23.28164-7.71289-35.66406-7.71289s-24.7607 2.57407-35.66211 7.71289zm17.91993 38.84375a7.1607561 7.1607561 0 0 1 .5039 0 7.1607561 7.1607561 0 0 1 6.84375 7.43945v.0566a7.1607561 7.1607561 0 0 1 -7.47656 6.80664 7.1607561 7.1607561 0 0 1 -6.82617-7.45898 7.1607561 7.1607561 0 0 1 6.95508-6.84375zm71.60742.0566a7.1607561 7.1607561 0 0 1 .5039 0 7.1607561 7.1607561 0 0 1 6.84375 7.43945v.0566a7.1607561 7.1607561 0 0 1 -7.47656 6.80665 7.1607561 7.1607561 0 0 1 -6.82617-7.45899 7.1607561 7.1607561 0 0 1 6.95508-6.84375zm-155.91797 50.4043v100.25h34.37305v-100.25zm48.69336 0v128.89262h143.21484v-128.89258zm157.53711 0v100.25h34.37109v-100.25zm-128.89258 143.21488v42.96484h28.64258v-42.96484zm57.28516 0v42.96484h28.64257v-42.96484z" fill="#fff"/><path d="m248.05267-223.95851v6.20972a35.812488 35.812488 0 0 0 -13.5756 5.8927l-4.58736-4.58736-10.12576 10.12576 4.94168 4.94166a35.812488 35.812488 0 0 0 -4.84844 13.2213h-7.6083v14.32151h8.33557a35.812488 35.812488 0 0 0 5.48246 11.86001l-6.30297 6.30295 10.12576 10.12576 6.63862-6.63862a35.812488 35.812488 0 0 0 11.52434 4.51276v9.64092h14.32151v-9.62226a35.812488 35.812488 0 0 0 11.52434-4.53142l6.63862 6.63862 10.12576-10.12576-6.28431-6.28431a35.812488 35.812488 0 0 0 5.55705-11.87865h8.24232v-14.32151h-7.57101a35.812488 35.812488 0 0 0 -4.84842-13.23994l4.90437-4.92302-10.12576-10.12576-4.56871 4.56871a35.812488 35.812488 0 0 0 -13.59425-5.87405v-6.20972zm6.58267 21.48227a21.482268 21.482268 0 0 1 1.49183.0191 21.482268 21.482268 0 0 1 20.54988 22.34007v.14923a21.482268 21.482268 0 0 1 -22.45196 20.43799 21.482268 21.482268 0 0 1 -20.47528-22.41465 21.482268 21.482268 0 0 1 20.88553-20.53124z" fill="#10a653"/><path d="m248.05273 240.04102v6.21093c-4.27535.8729-8.34993 2.51706-12.02539 4.84961-.52461.33294-1.04105.68231-1.54882 1.04297l-4.5879-4.58789-10.12695 10.125 4.94141 4.94141c-2.16584 3.53743-3.6981 7.42088-4.5332 11.47461-.11931.5791-.22381 1.16247-.31446 1.74804h-7.60937v14.32032l12.83984 12.83984-5.32422 5.32422 10.12695 10.125 153.19727 153.19726a243.3135 243.31354 0 0 0 64.12109-57.42382l-156.54687-156.54688-10.125-10.125-4.56836 4.56836c-.50908-.36047-1.0268-.70643-1.55273-1.03906-.763-.48256-1.54829-.92499-2.34375-1.34766l-9.69727-9.69726z" fill="url(#c)" transform="translate(0 -464)"/><path d="m248.05267-223.95851v6.20972a35.812488 35.812488 0 0 0 -13.5756 5.8927l-4.58736-4.58736-10.12576 10.12576 4.94168 4.94166a35.812488 35.812488 0 0 0 -4.84844 13.2213h-7.6083v14.32151h8.33557a35.812488 35.812488 0 0 0 5.48246 11.86001l-6.30297 6.30295 10.12576 10.12576 6.63862-6.63862a35.812488 35.812488 0 0 0 11.52434 4.51276v9.64092h14.32151v-9.62226a35.812488 35.812488 0 0 0 11.52434-4.53142l6.63862 6.63862 10.12576-10.12576-6.28431-6.28431a35.812488 35.812488 0 0 0 5.55705-11.87865h8.24232v-14.32151h-7.57101a35.812488 35.812488 0 0 0 -4.84842-13.23994l4.90437-4.92302-10.12576-10.12576-4.56871 4.56871a35.812488 35.812488 0 0 0 -13.59425-5.87405v-6.20972zm6.58267 21.48227a21.482268 21.482268 0 0 1 1.49183.0191 21.482268 21.482268 0 0 1 20.54988 22.34007v.14923a21.482268 21.482268 0 0 1 -22.45196 20.43799 21.482268 21.482268 0 0 1 -20.47528-22.41465 21.482268 21.482268 0 0 1 20.88553-20.53124z" fill="#fff"/></g></svg>