<?xml version="1.0" encoding="UTF-8" standalone="no"?>
<!-- Created with Inkscape (http://www.inkscape.org/) -->

<svg
   xmlns:dc="http://purl.org/dc/elements/1.1/"
   xmlns:cc="http://creativecommons.org/ns#"
   xmlns:rdf="http://www.w3.org/1999/02/22-rdf-syntax-ns#"
   xmlns:svg="http://www.w3.org/2000/svg"
   xmlns="http://www.w3.org/2000/svg"
   xmlns:xlink="http://www.w3.org/1999/xlink"
   xmlns:sodipodi="http://sodipodi.sourceforge.net/DTD/sodipodi-0.dtd"
   xmlns:inkscape="http://www.inkscape.org/namespaces/inkscape"
   id="svg2"
   version="1.1"
   inkscape:version="0.48.4 r9939"
   width="512"
   height="513"
   sodipodi:docname="game-pad.svg"
   viewBox="0 0 512 513"
   inkscape:export-filename="/home/silerio/Imágenes/iconos/alien arena.png"
   inkscape:export-xdpi="90"
   inkscape:export-ydpi="90">
  <sodipodi:namedview
     pagecolor="#ffffff"
     bordercolor="#666666"
     borderopacity="1"
     objecttolerance="10"
     gridtolerance="10"
     guidetolerance="10"
     inkscape:pageopacity="0"
     inkscape:pageshadow="2"
     inkscape:window-width="1360"
     inkscape:window-height="721"
     id="namedview4"
     showgrid="false"
     showguides="false"
     inkscape:guide-bbox="true"
     inkscape:zoom="0.35355339"
     inkscape:cx="475.44358"
     inkscape:cy="203.91563"
     inkscape:window-x="0"
     inkscape:window-y="25"
     inkscape:window-maximized="1"
     inkscape:current-layer="svg2"
     inkscape:document-units="px" />
  <metadata
     id="metadata8">
    <rdf:RDF>
      <cc:Work
         rdf:about="">
        <dc:format>image/svg+xml</dc:format>
        <dc:type
           rdf:resource="http://purl.org/dc/dcmitype/StillImage" />
        <dc:title></dc:title>
      </cc:Work>
    </rdf:RDF>
  </metadata>
  <defs
     id="defs6">
    <linearGradient
       inkscape:collect="always"
       id="linearGradient4250">
      <stop
         style="stop-color:#ffd075;stop-opacity:1;"
         offset="0"
         id="stop4252" />
      <stop
         style="stop-color:#ffd075;stop-opacity:0;"
         offset="1"
         id="stop4254" />
    </linearGradient>
    <clipPath
       id="clipPath3866"
       clipPathUnits="userSpaceOnUse">
      <path
         transform="matrix(0.68724124,0,0,0.68724124,-521.35527,-47.661719)"
         sodipodi:type="arc"
         style="fill:#44abb1;fill-opacity:1;fill-rule:evenodd;stroke:none"
         id="path3868"
         sodipodi:cx="1132"
         sodipodi:cy="449"
         sodipodi:rx="312"
         sodipodi:ry="312"
         d="m 1444,449 a 312,312 0 1 1 -624,0 312,312 0 1 1 624,0 z" />
    </clipPath>
    <clipPath
       clipPathUnits="userSpaceOnUse"
       id="clipPath4234">
      <path
         transform="matrix(0.68724124,0,0,0.68724124,-521.35527,-47.661719)"
         sodipodi:type="arc"
         style="fill:#ffd075;fill-opacity:1;fill-rule:evenodd;stroke:none"
         id="path4236"
         sodipodi:cx="1132"
         sodipodi:cy="449"
         sodipodi:rx="312"
         sodipodi:ry="312"
         d="m 1444,449 a 312,312 0 1 1 -624,0 312,312 0 1 1 624,0 z" />
    </clipPath>
    <linearGradient
       inkscape:collect="always"
       xlink:href="#linearGradient4250"
       id="linearGradient4256"
       x1="1371.4938"
       y1="691.82184"
       x2="894.56409"
       y2="263.79688"
       gradientUnits="userSpaceOnUse" />
  </defs>
  <rect
     style="color:#000000;fill:#be1e69;fill-opacity:1;fill-rule:evenodd;stroke:none;stroke-width:3.50000000000000000;marker:none;visibility:visible;display:inline;overflow:visible;enable-background:accumulate"
     id="rect4296"
     width="412.95035"
     height="401.63666"
     x="48.083263"
     y="57.623234"
     ry="53.033009" />
  <path
     style="color:#000000;fill:#f8da9f;fill-opacity:1;fill-rule:evenodd;stroke:none;stroke-width:3.5;marker:none;visibility:visible;display:inline;overflow:visible;enable-background:accumulate"
     d="m 95.449062,100.05094 c -5.876057,0 -10.59375,4.74894 -10.59375,10.625 l 0,114.53125 c 0,5.87606 4.717693,10.625 10.59375,10.625 l 114.562498,0 c 5.87606,0 10.59375,-4.74894 10.59375,-10.625 l 0,-114.53125 c 0,-5.87606 -4.71769,-10.625 -10.59375,-10.625 l -114.562498,0 z m 203.656248,0 c -5.87606,0 -10.59375,4.74894 -10.59375,10.625 l 0,114.53125 c 0,5.87606 4.71769,10.625 10.59375,10.625 l 114.5625,0 c 5.87606,0 10.59375,-4.74894 10.59375,-10.625 l 0,-114.53125 c 0,-5.87606 -4.71769,-10.625 -10.59375,-10.625 l -114.5625,0 z M 95.449062,281.08219 c -5.876057,0 -10.59375,4.71769 -10.59375,10.59375 l 0,114.5625 c 0,5.87606 4.717693,10.59375 10.59375,10.59375 l 114.562498,0 c 5.87606,0 10.59375,-4.71769 10.59375,-10.59375 l 0,-114.5625 c 0,-5.87606 -4.71769,-10.59375 -10.59375,-10.59375 l -114.562498,0 z m 203.656248,0 c -5.87606,0 -10.59375,4.71769 -10.59375,10.59375 l 0,114.5625 c 0,5.87606 4.71769,10.59375 10.59375,10.59375 l 114.5625,0 c 5.87606,0 10.59375,-4.71769 10.59375,-10.59375 l 0,-114.5625 c 0,-5.87606 -4.71769,-10.59375 -10.59375,-10.59375 l -114.5625,0 z"
     id="rect4287"
     inkscape:connector-curvature="0" />
</svg>
