<?xml version="1.0" encoding="UTF-8" standalone="no"?>
<svg
   xmlns:dc="http://purl.org/dc/elements/1.1/"
   xmlns:cc="http://creativecommons.org/ns#"
   xmlns:rdf="http://www.w3.org/1999/02/22-rdf-syntax-ns#"
   xmlns:svg="http://www.w3.org/2000/svg"
   xmlns="http://www.w3.org/2000/svg"
   xmlns:sodipodi="http://sodipodi.sourceforge.net/DTD/sodipodi-0.dtd"
   xmlns:inkscape="http://www.inkscape.org/namespaces/inkscape"
   viewBox="0 0 512 512"
   id="svg2"
   version="1.1"
   inkscape:version="0.48.4 r9939"
   width="100%"
   height="100%"
   sodipodi:docname="telegram.svg">
  <metadata
     id="metadata52">
    <rdf:RDF>
      <cc:Work
         rdf:about="">
        <dc:format>image/svg+xml</dc:format>
        <dc:type
           rdf:resource="http://purl.org/dc/dcmitype/StillImage" />
        <dc:title></dc:title>
      </cc:Work>
    </rdf:RDF>
  </metadata>
  <sodipodi:namedview
     pagecolor="#ffffff"
     bordercolor="#666666"
     borderopacity="1"
     objecttolerance="10"
     gridtolerance="10"
     guidetolerance="10"
     inkscape:pageopacity="0"
     inkscape:pageshadow="2"
     inkscape:window-width="1360"
     inkscape:window-height="717"
     id="namedview50"
     showgrid="false"
     inkscape:zoom="0.054322006"
     inkscape:cx="88.492591"
     inkscape:cy="190.80718"
     inkscape:window-x="0"
     inkscape:window-y="25"
     inkscape:window-maximized="1"
     inkscape:current-layer="svg2" />
  <defs
     id="defs4">
    <linearGradient
       id="linearGradient3845"
       y1="47"
       x2="0"
       y2="1"
       gradientUnits="userSpaceOnUse">
      <stop
         style="stop-color:#d22724;stop-opacity:1"
         id="stop7" />
      <stop
         offset="1"
         style="stop-color:#db322f;stop-opacity:1"
         id="stop9" />
    </linearGradient>
    <linearGradient
       y2="160"
       x2="160"
       y1="120"
       x1="135"
       gradientTransform="matrix(0.05622958,0,0,0.05622958,0.07160145,-0.0527796)"
       gradientUnits="userSpaceOnUse"
       id="linearGradient3102">
      <stop
         style="stop-color:#eff7fc"
         id="stop12" />
      <stop
         offset="1"
         style="stop-color:#fff"
         id="stop14" />
    </linearGradient>
    <clipPath
       clipPathUnits="userSpaceOnUse"
       id="clipPath3855">
      <path
         sodipodi:nodetypes="cccccc"
         inkscape:connector-curvature="0"
         id="path3857"
         d="m 232.03976,-129.46254 92.06038,159.453261 -46.03019,70.779659 c -30.6868,0 -61.37359,0 -92.06038,0 L 139.97938,29.990713 z"
         inkscape:transform-center-y="-26.575552"
         style="color:#000000;fill:#ff2a2a;fill-opacity:1;fill-rule:evenodd;stroke:none;stroke-width:14.7840004;marker:none;visibility:visible;display:inline;overflow:visible;enable-background:accumulate" />
    </clipPath>
    <clipPath
       id="clipPath-223639780">
      <g
         transform="translate(0,-1004.3622)"
         id="g17">
        <path
           inkscape:connector-curvature="0"
           d="m -24,13 c 0,1.105 -0.672,2 -1.5,2 -0.828,0 -1.5,-0.895 -1.5,-2 0,-1.105 0.672,-2 1.5,-2 0.828,0 1.5,0.895 1.5,2 z"
           transform="matrix(15.333333,0,0,11.5,414.99999,878.8622)"
           style="fill:#1890d0"
           id="path19" />
      </g>
    </clipPath>
    <clipPath
       clipPathUnits="userSpaceOnUse"
       id="clipPath3908">
      <g
         style="fill:#666666"
         id="g3910"
         transform="matrix(17.962606,0,0,17.962606,-137.2329,-187.8265)">
        <g
           style="fill:#666666"
           clip-path="url(#clipPath-223639780)"
           id="g3912">
          <!-- color: #eeeeee -->
          <g
             style="fill:#666666"
             id="g3914">
            <path
               id="path3916"
               style="fill:#666666;fill-opacity:1;fill-rule:nonzero;stroke:none"
               d="m 36,13.977 c 0,0 -2,3 -5,3 -2.797,-0.539 -3.906,-0.082 -4,0 l 0,12.1 c -0.133,2.551 -2.223,5.105 -5.336,6.281 -3.949,1.492 -8.125,0.195 -9.332,-2.906 -1.211,-3.098 1,-6.848 4.953,-8.34 3.059,-1.156 5.867,-0.871 7.715,0.863 l 0,-12 c 4,-2.66 7.719,0.961 11,1 m 0,0"
               inkscape:connector-curvature="0" />
          </g>
        </g>
      </g>
    </clipPath>
  </defs>
  <g
     id="g24"
     transform="translate(0,464)" />
  <g
     transform="matrix(17.962606,0,0,17.962606,-137.2329,-187.8265)"
     id="g45"
     style="fill:#244051;fill-opacity:1">
    <g
       id="g47"
       clip-path="url(#clipPath-223639780)"
       style="fill:#244051;fill-opacity:1">
      <!-- color: #eeeeee -->
      <g
         id="g49"
         style="fill:#244051;fill-opacity:1">
        <path
           inkscape:connector-curvature="0"
           d="m 36,13.977 c 0,0 -2,3 -5,3 -2.797,-0.539 -3.906,-0.082 -4,0 l 0,12.1 c -0.133,2.551 -2.223,5.105 -5.336,6.281 -3.949,1.492 -8.125,0.195 -9.332,-2.906 -1.211,-3.098 1,-6.848 4.953,-8.34 3.059,-1.156 5.867,-0.871 7.715,0.863 l 0,-12 c 4,-2.66 7.719,0.961 11,1 m 0,0"
           style="fill:#244051;fill-opacity:1;fill-rule:nonzero;stroke:none"
           id="path51" />
      </g>
    </g>
  </g>
  <path
     style="fill:#000000;stroke:none;stroke-width:1px;stroke-linecap:butt;stroke-linejoin:miter;stroke-opacity:1;fill-opacity:0.1356784"
     d="M 204.7973,380.83768 342.86289,468.27923 379.68039,176.04039 250.81916,40.275884 z"
     id="path3898"
     inkscape:connector-curvature="0"
     clip-path="url(#clipPath3908)" />
  <g
     id="g3890"
     transform="matrix(-1,0,0,-1,406.38252,421.88663)">
    <rect
       style="color:#000000;fill:#ff676e;fill-opacity:1;fill-rule:evenodd;stroke:none;stroke-width:14.7840004;marker:none;visibility:visible;display:inline;overflow:visible;enable-background:accumulate"
       id="rect3845"
       width="104.76361"
       height="210.64548"
       x="150.52989"
       y="176.56528"
       ry="21.437372" />
    <path
       inkscape:transform-center-y="-15.223226"
       sodipodi:nodetypes="cccccc"
       inkscape:connector-curvature="0"
       id="path3848"
       d="m 203.19126,34.675871 52.73479,91.339339 -26.3674,40.5446 c -17.57826,0 -35.15653,0 -52.73479,0 l -26.36739,-40.5446 z"
       style="color:#000000;fill:#eac266;fill-opacity:1;fill-rule:evenodd;stroke:none;stroke-width:14.7840004;marker:none;visibility:visible;display:inline;overflow:visible;enable-background:accumulate" />
    <path
       transform="matrix(0.57282831,0,0,0.57282831,70.272293,108.83568)"
       clip-path="url(#clipPath3855)"
       style="color:#000000;fill:#000000;fill-opacity:0.15422884;fill-rule:evenodd;stroke:none;stroke-width:14.7840004;marker:none;visibility:visible;display:inline;overflow:visible;enable-background:accumulate"
       d="m 140.10755,14.101692 c 16.83371,23.595461 29.37898,21.895805 45.9661,-8.1355926 16.83371,23.5954606 29.37898,30.0313976 45.9661,0 16.83371,23.5954566 29.37898,30.0314006 45.96611,0 16.83371,23.5954606 29.37898,38.1669906 45.9661,8.1355926 l 0,367.728828 -183.86441,0 z"
       id="path3851"
       inkscape:connector-curvature="0"
       sodipodi:nodetypes="cccccccc" />
    <path
       sodipodi:nodetypes="cccccccc"
       inkscape:connector-curvature="0"
       id="rect3843"
       d="m 150.52988,125.30206 c 9.64282,13.51615 16.82911,12.54254 26.33069,-4.6603 9.64282,13.51615 16.8291,17.20284 26.33068,0 9.64282,13.51615 16.82911,17.20284 26.33069,0 9.64282,13.51615 16.82912,21.86314 26.33068,4.6603 l 0,210.64548 -105.32274,0 z"
       style="color:#000000;fill:#60c263;fill-opacity:1;fill-rule:evenodd;stroke:none;stroke-width:14.7840004;marker:none;visibility:visible;display:inline;overflow:visible;enable-background:accumulate" />
    <path
       inkscape:transform-center-y="-15.223226"
       style="color:#000000;fill:#333333;fill-opacity:1;fill-rule:evenodd;stroke:none;stroke-width:14.7840004;marker:none;visibility:visible;display:inline;overflow:visible;enable-background:accumulate"
       d="m 203.19126,34.675871 3.29592,5.708704 3.29593,5.708718 3.29592,5.708704 3.29592,5.708703 3.29592,5.708718 3.29594,5.708704 3.29592,5.708717 -46.14295,-1.3e-5 3.29592,-5.708704 3.29594,-5.708704 3.29592,-5.708718 3.29592,-5.708703 3.29592,-5.708704 3.29593,-5.708718 z"
       id="path3859"
       inkscape:connector-curvature="0"
       sodipodi:nodetypes="cccccccccccccccc" />
    <path
       style="color:#000000;fill:#ffc453;fill-opacity:1;fill-rule:evenodd;stroke:none;stroke-width:14.7840004;marker:none;visibility:visible;display:inline;overflow:visible;enable-background:accumulate"
       d="m 255.85262,309.61686 0,26.33068 -105.32274,0 0,-26.33068 z"
       id="path3861"
       inkscape:connector-curvature="0"
       sodipodi:nodetypes="ccccc" />
  </g>
</svg>
