<?xml version="1.0" encoding="UTF-8" standalone="no"?>
<svg
   xmlns:dc="http://purl.org/dc/elements/1.1/"
   xmlns:cc="http://creativecommons.org/ns#"
   xmlns:rdf="http://www.w3.org/1999/02/22-rdf-syntax-ns#"
   xmlns:svg="http://www.w3.org/2000/svg"
   xmlns="http://www.w3.org/2000/svg"
   xmlns:sodipodi="http://sodipodi.sourceforge.net/DTD/sodipodi-0.dtd"
   xmlns:inkscape="http://www.inkscape.org/namespaces/inkscape"
   viewBox="0 0 512 512"
   id="svg2"
   version="1.1"
   inkscape:version="0.48.4 r9939"
   width="100%"
   height="100%"
   sodipodi:docname="avidemux.svg">
  <metadata
     id="metadata74">
    <rdf:RDF>
      <cc:Work
         rdf:about="">
        <dc:format>image/svg+xml</dc:format>
        <dc:type
           rdf:resource="http://purl.org/dc/dcmitype/StillImage" />
        <dc:title />
      </cc:Work>
    </rdf:RDF>
  </metadata>
  <sodipodi:namedview
     pagecolor="#ffffff"
     bordercolor="#666666"
     borderopacity="1"
     objecttolerance="10"
     gridtolerance="10"
     guidetolerance="10"
     inkscape:pageopacity="0"
     inkscape:pageshadow="2"
     inkscape:window-width="1360"
     inkscape:window-height="721"
     id="namedview72"
     showgrid="false"
     inkscape:zoom="0.5"
     inkscape:cx="43.860483"
     inkscape:cy="17.914302"
     inkscape:window-x="0"
     inkscape:window-y="25"
     inkscape:window-maximized="1"
     inkscape:current-layer="svg2" />
  <defs
     id="defs4">
    <clipPath
       id="clipPath-242030370">
      <g
         transform="translate(0,-1004.3622)"
         id="g7">
        <path
           d="m -24,13 c 0,1.105 -0.672,2 -1.5,2 -0.828,0 -1.5,-0.895 -1.5,-2 0,-1.105 0.672,-2 1.5,-2 0.828,0 1.5,0.895 1.5,2 z"
           transform="matrix(15.333333,0,0,11.5,414.99999,878.8622)"
           style="fill:#1890d0"
           id="path9"
           inkscape:connector-curvature="0" />
      </g>
    </clipPath>
    <linearGradient
       id="linearGradient3166"
       gradientUnits="userSpaceOnUse"
       gradientTransform="matrix(0,-1,1,0,-1.5e-6,47.999998)"
       x1="1"
       x2="47">
      <stop
         style="stop-color:#434343;stop-opacity:1"
         id="stop12" />
      <stop
         offset="1"
         style="stop-color:#4d4d4d;stop-opacity:1"
         id="stop14" />
    </linearGradient>
    <clipPath
       clipPathUnits="userSpaceOnUse"
       id="clipPath3881">
      <path
         sodipodi:nodetypes="sccccssss"
         inkscape:connector-curvature="0"
         id="path3883"
         d="m 101.15678,18.144066 7.67585,0 7.67584,0 7.67585,0 7.67585,40.745762 -30.70339,0 c -2.216004,0 -4.000004,-1.784 -4.000004,-4 l 0,-32.745762 c 0,-2.216 1.784,-4 4.000004,-4 z"
         style="color:#000000;fill:#61b0ca;fill-opacity:1;fill-rule:evenodd;stroke:none;stroke-width:5;marker:none;visibility:visible;display:inline;overflow:visible;enable-background:accumulate" />
    </clipPath>
    <clipPath
       clipPathUnits="userSpaceOnUse"
       id="clipPath3887">
      <path
         style="color:#000000;fill:#2b0000;fill-opacity:1;fill-rule:evenodd;stroke:none;stroke-width:5;marker:none;visibility:visible;display:inline;overflow:visible;enable-background:accumulate"
         d="m 118.17391,22.20993 c 12.79308,0 25.58616,0 38.37924,0 2.216,0 4,1.784 4,4 l 0,32.745762 c 0,2.216 -1.784,4 -4,4 l -30.70339,0 z"
         id="path3889"
         inkscape:connector-curvature="0"
         sodipodi:nodetypes="ccssscc" />
    </clipPath>
    <clipPath
       clipPathUnits="userSpaceOnUse"
       id="clipPath3910">
      <path
         id="path3912"
         d="m 120.5624,27.834495 c -2.02112,0 -3.64822,1.627108 -3.64822,3.648225 l 0,29.841337 c 0,2.021117 1.6271,3.648225 3.64822,3.648225 l 21.80384,0 0.71255,3.73373 28.01722,0 c 2.02112,0 3.64823,-1.627108 3.64823,-3.648225 l 0,-29.869839 c 0,-2.021117 -1.62711,-3.648225 -3.64823,-3.648225 l -28.81527,0 -0.71255,-3.705228 -7.01143,0 -6.98293,0 -7.01143,0 z"
         style="color:#000000;fill:#00a76e;fill-opacity:1;fill-rule:evenodd;stroke:none;stroke-width:5;marker:none;visibility:visible;display:inline;overflow:visible;enable-background:accumulate"
         inkscape:connector-curvature="0" />
    </clipPath>
    <clipPath
       clipPathUnits="userSpaceOnUse"
       id="clipPath3923">
      <path
         id="path3925"
         d="m 101.15625,18.15625 c -2.216004,0 -4,1.784 -4,4 l 0,32.71875 c 0,2.216 1.783996,4 4,4 l 23.90625,0 0.78125,4.09375 30.71875,0 c 2.216,0 4,-1.784 4,-4 l 0,-32.75 c 0,-2.216 -1.784,-4 -4,-4 l -31.59375,0 -0.78125,-4.0625 -7.6875,0 -7.65625,0 -7.6875,0 z"
         style="color:#000000;fill:#00a76e;fill-opacity:1;fill-rule:evenodd;stroke:none;stroke-width:5;marker:none;visibility:visible;display:inline;overflow:visible;enable-background:accumulate"
         inkscape:connector-curvature="0" />
    </clipPath>
    <clipPath
       clipPathUnits="userSpaceOnUse"
       id="clipPath3934">
      <path
         id="path3936"
         d="m 101.15625,18.15625 c -2.216004,0 -4,1.784 -4,4 l 0,32.71875 c 0,2.216 1.783996,4 4,4 l 23.90625,0 0.78125,4.09375 30.71875,0 c 2.216,0 4,-1.784 4,-4 l 0,-32.75 c 0,-2.216 -1.784,-4 -4,-4 l -31.59375,0 -0.78125,-4.0625 -7.6875,0 -7.65625,0 -7.6875,0 z"
         style="color:#000000;fill:#00a76e;fill-opacity:1;fill-rule:evenodd;stroke:none;stroke-width:5;marker:none;visibility:visible;display:inline;overflow:visible;enable-background:accumulate"
         inkscape:connector-curvature="0" />
    </clipPath>
  </defs>
  <path
     style="color:#000000;fill:#f8ae6c;fill-opacity:1;fill-rule:evenodd;stroke:none;stroke-width:5;marker:none;visibility:visible;display:inline;overflow:visible;enable-background:accumulate"
     d="m 67.378077,109.86377 c -15.080911,0 -27.221827,12.14093 -27.221827,27.22185 l 0,222.66614 c 0,15.08092 12.140916,27.22188 27.221827,27.22188 l 162.693033,0 5.31678,27.85989 209.05528,0 c 15.08089,0 27.22183,-12.14096 27.22183,-27.22188 l 0,-222.87883 c 0,-15.08092 -12.14094,-27.22188 -27.22183,-27.22188 l -215.01008,0 -5.31669,-27.64717 -52.31705,0 -52.10431,0 -52.316963,0 z"
     id="path3891"
     inkscape:connector-curvature="0" />
  <path
     style="color:#000000;fill:#3e3e3e;fill-opacity:1;fill-rule:evenodd;stroke:none;stroke-width:5;marker:none;visibility:visible;display:inline;overflow:visible;enable-background:accumulate"
     clip-path="url(#clipPath3887)"
     d="m 96.96875,25.15625 0,7.3125 0.1875,0 0,-7.3125 -0.1875,0 z m 31.25,0 0,7.3125 7.3125,0 0,-7.3125 -7.3125,0 z m 10.40625,0 0,7.3125 7.3125,0 0,-7.3125 -7.3125,0 z m 10.40625,0 0,7.3125 7.34375,0 0,-7.3125 -7.34375,0 z m -52.0625,25.625 0,7.3125 1.78125,0 C 97.777841,57.365367 97.15625,56.188618 97.15625,54.875 l 0,-4.09375 -0.1875,0 z m 33.375,0 1.375,7.3125 3.8125,0 0,-7.3125 -5.1875,0 z m 8.28125,0 0,7.3125 7.3125,0 0,-7.3125 -7.3125,0 z m 10.40625,0 0,7.3125 7.34375,0 0,-7.3125 -7.34375,0 z"
     id="rect3821"
     inkscape:connector-curvature="0"
     transform="matrix(6.8054609,0,0,6.8054609,-621.03683,-13.697842)" />
  <path
     style="color:#000000;fill:#ffffff;fill-opacity:0.25373134;fill-rule:evenodd;stroke:none;stroke-width:5;marker:none;visibility:visible;display:inline;overflow:visible;enable-background:accumulate"
     d="m 67.381732,109.78084 52.237638,0 52.23765,0 52.23772,0 52.23764,277.2937 -208.950648,0 c -15.080956,0 -27.2219,-12.14096 -27.2219,-27.22178 l 0,-222.85004 c 0,-15.08092 12.140944,-27.22188 27.2219,-27.22188 z"
     id="rect3051"
     inkscape:connector-curvature="0"
     sodipodi:nodetypes="sccccssss" />
  <path
     id="path3855"
     d="m 102.09375,21.96875 0,7.3125 7.34375,0 0,-7.3125 -7.34375,0 z m 10.40625,0 0,7.3125 7.34375,0 0,-7.3125 -7.34375,0 z m 10.4375,0 0,7.3125 7.3125,0 0,-7.3125 -7.3125,0 z m 10.40625,0 0,7.3125 7.3125,0 0,-7.3125 -7.3125,0 z m 10.40625,0 0,7.3125 7.3125,0 0,-7.3125 -7.3125,0 z m 10.40625,0 0,7.3125 7.34375,0 0,-7.3125 -7.34375,0 z m -52.0625,25.625 0,7.3125 7.34375,0 0,-7.3125 -7.34375,0 z m 10.40625,0 0,7.3125 7.34375,0 0,-7.3125 -7.34375,0 z m 10.4375,0 0,7.3125 7.3125,0 0,-7.3125 -7.3125,0 z m 10.40625,0 0,7.3125 7.3125,0 0,-7.3125 -7.3125,0 z m 10.40625,0 0,7.3125 7.3125,0 0,-7.3125 -7.3125,0 z m 10.40625,0 0,7.3125 7.34375,0 0,-7.3125 -7.34375,0 z"
     style="color:#000000;fill:#3e3e3e;fill-opacity:1;fill-rule:evenodd;stroke:none;stroke-width:5;marker:none;visibility:visible;display:inline;overflow:visible;enable-background:accumulate"
     clip-path="url(#clipPath3881)"
     inkscape:connector-curvature="0"
     transform="matrix(6.8054609,0,0,6.8054609,-620.78766,-13.697842)" />
  <path
     style="color:#000000;fill:#ffffff;fill-opacity:0.34328362;fill-rule:evenodd;stroke:none;stroke-width:5;marker:none;visibility:visible;display:inline;overflow:visible;enable-background:accumulate"
     d="m 220.08858,109.86377 52.31696,277.10987 4.25339,0 -52.31696,-277.10987 -4.25339,0 z"
     id="path3899"
     inkscape:connector-curvature="0" />
  <path
     transform="matrix(7.4616686,0,0,7.4616686,-832.21859,-97.827939)"
     d="m 176,59.25 a 13.75,13.75 0 1 1 -27.5,0 13.75,13.75 0 1 1 27.5,0 z"
     sodipodi:ry="13.75"
     sodipodi:rx="13.75"
     sodipodi:cy="59.25"
     sodipodi:cx="162.25"
     id="path3906"
     style="fill:#000000;fill-opacity:0.10552763;fill-rule:evenodd;stroke:none"
     sodipodi:type="arc"
     clip-path="url(#clipPath3910)" />
  <path
     style="fill:#000000;fill-opacity:0.14427861;stroke:none"
     clip-path="url(#clipPath3923)"
     d="m 125.125,23.1875 6.75,35.6875 -17.59375,0 -3.15625,11.5 50,-1.75 c 0,0 -31.99497,-40.573962 -36,-45.4375 z"
     id="path3919"
     inkscape:connector-curvature="0"
     transform="matrix(6.8054609,0,0,6.8054609,-621.03683,-13.697842)" />
  <path
     style="fill:#1d1d1d;fill-opacity:0.57213931;stroke:none"
     clip-path="url(#clipPath3934)"
     d="M 125,58.875 125.8125,63 c 0,0 5.28125,-3.71875 6.0625,-4.125 l -6.875,0 z"
     id="path3930"
     inkscape:connector-curvature="0"
     transform="matrix(6.8054609,0,0,6.8054609,-621.03683,-13.697842)" />
  <path
     sodipodi:type="arc"
     style="fill:#fa5d73;fill-opacity:1;fill-rule:evenodd;stroke:none"
     id="path3904"
     sodipodi:cx="162.25"
     sodipodi:cy="59.25"
     sodipodi:rx="13.75"
     sodipodi:ry="13.75"
     d="m 176,59.25 a 13.75,13.75 0 1 1 -27.5,0 13.75,13.75 0 1 1 27.5,0 z"
     transform="matrix(6.8054609,0,0,6.8054609,-725.74889,-58.947696)" />
  <path
     style="fill:#1b2134;fill-opacity:1;fill-rule:nonzero;stroke:none"
     d="m 328.00733,284.64583 c 0,36.75012 9.14638,49.78283 23.18106,58.69705 l -23.8191,18.50238 c -4.78427,3.0556 -8.58342,7.36353 -10.42082,12.76019 l -1.27602,1.9141 1.0633,-0.21221 c -0.55793,2.04839 -1.0633,3.98971 -1.0633,6.16739 0,13.53614 10.92782,24.6699 24.45711,24.6699 13.53604,0 24.66977,-11.14054 24.66977,-24.6699 0,-5.44432 -1.89019,-10.17921 -4.89142,-14.24888 5.8604,-4.72508 11.53243,-8.02313 17.01365,-11.0589 5.50686,3.04362 11.123,6.31397 17.01362,11.0589 -3.00113,4.04245 -4.67875,8.80456 -4.67875,14.24888 0,13.55657 10.92106,24.6699 24.45713,24.6699 13.55653,0 24.45718,-11.10656 24.45718,-24.6699 0,-2.2049 -0.47678,-4.14622 -0.85108,-6.16739 l 0.85108,0.21221 -1.27604,-1.9141 c -1.83748,-5.36944 -5.62984,-9.70459 -10.4209,-12.76019 l -23.60645,-18.50238 c 14.03468,-8.91117 23.18116,-21.94693 23.18116,-58.69705 l -49.12695,38.49336 -48.91423,-38.49336 z m 12.12223,85.70623 c 6.72373,0 12.33487,5.39842 12.33487,12.12228 0,6.72377 -5.61114,12.3349 -12.33487,12.3349 -6.72382,0 -12.12223,-5.61113 -12.12223,-12.3349 0,-6.72386 5.39841,-12.12228 12.12223,-12.12228 z m 73.584,0 c 6.75108,0 12.33495,5.39842 12.33495,12.12228 0,6.75096 -5.58387,12.3349 -12.33495,12.3349 -6.72374,0 -12.3349,-5.58394 -12.3349,-12.3349 0,-6.72386 5.61116,-12.12228 12.3349,-12.12228 z"
     id="path64"
     inkscape:connector-curvature="0" />
  <path
     style="fill:#000000;fill-opacity:0.17910449;fill-rule:evenodd;stroke:none"
     d="m 460.76549,299.62387 c 4.6392,11.09848 6.75431,23.13944 6.75431,35.92064 0,51.68005 -41.65219,93.6393 -93.33227,93.6393 -35.28987,0 -66.03218,-19.66198 -81.97275,-48.50823 14.20546,33.58546 47.51086,57.10462 86.27095,57.10462 51.68007,0 93.63927,-41.95925 93.63927,-93.63928 0,-16.15004 -4.15681,-31.25807 -11.35951,-44.51705 z"
     id="path3941"
     inkscape:connector-curvature="0" />
</svg>
