<?xml version="1.0" encoding="UTF-8" standalone="no"?>
<!-- Created with Inkscape (http://www.inkscape.org/) -->

<svg
   xmlns:dc="http://purl.org/dc/elements/1.1/"
   xmlns:cc="http://creativecommons.org/ns#"
   xmlns:rdf="http://www.w3.org/1999/02/22-rdf-syntax-ns#"
   xmlns:svg="http://www.w3.org/2000/svg"
   xmlns="http://www.w3.org/2000/svg"
   xmlns:sodipodi="http://sodipodi.sourceforge.net/DTD/sodipodi-0.dtd"
   xmlns:inkscape="http://www.inkscape.org/namespaces/inkscape"
   width="512"
   height="512"
   id="svg3880"
   version="1.1"
   inkscape:version="0.48.4 r9939"
   sodipodi:docname="bleachbit.svg">
  <defs
     id="defs3882" />
  <sodipodi:namedview
     id="base"
     pagecolor="#ffffff"
     bordercolor="#666666"
     borderopacity="1.0"
     inkscape:pageopacity="0.0"
     inkscape:pageshadow="2"
     inkscape:zoom="0.30935922"
     inkscape:cx="23.309399"
     inkscape:cy="-3.8239576"
     inkscape:current-layer="layer1"
     showgrid="true"
     inkscape:grid-bbox="true"
     inkscape:document-units="px"
     inkscape:window-width="1360"
     inkscape:window-height="717"
     inkscape:window-x="0"
     inkscape:window-y="25"
     inkscape:window-maximized="1" />
  <metadata
     id="metadata3885">
    <rdf:RDF>
      <cc:Work
         rdf:about="">
        <dc:format>image/svg+xml</dc:format>
        <dc:type
           rdf:resource="http://purl.org/dc/dcmitype/StillImage" />
        <dc:title></dc:title>
      </cc:Work>
    </rdf:RDF>
  </metadata>
  <g
     id="layer1"
     inkscape:label="Layer 1"
     inkscape:groupmode="layer"
     transform="translate(0,464)">
    <rect
       style="color:#000000;fill:#f07255;fill-opacity:1;fill-rule:evenodd;stroke:none;stroke-width:3.79999995000000013;marker:none;visibility:visible;display:inline;overflow:visible;enable-background:accumulate"
       id="rect4674"
       width="426.28436"
       height="426.28436"
       x="43.638588"
       y="-417.60211"
       ry="98.653702" />
    <path
       style="fill:#000000;fill-opacity:0.11538463;stroke:none"
       d="m 259.54764,-342.1164 -2.56424,86.08507 -101.10417,14.28646 63.00695,36.63194 -76.56077,138.468757 130.77605,75.4618035 98.17361,0 c 54.65414,0 98.53993,-44.2521065 98.53993,-98.9062475 l 0,-130.776043 -210.26736,-121.25174 z"
       id="path4680"
       inkscape:connector-curvature="0" />
    <path
       style="fill:#fff6f5;fill-opacity:1;stroke:none"
       d="m 257.91281,-342.31516 a 15.77238,15.77238 0 0 0 -14.00694,16.08207 l 0,58.10295 -83.26362,0 c -5.25535,0 -9.33797,4.08263 -9.33797,9.33798 l 0,9.59736 c 0,5.25535 4.08262,9.59737 9.33797,9.59737 l 96.49239,0 a 15.82268,15.82268 0 0 0 4.66899,0 l 97.01118,0 c 5.25542,0 9.33799,-4.34202 9.33799,-9.59737 l 0,-9.59736 c 0,-5.25535 -4.08257,-9.33798 -9.33799,-9.33798 l -83.26361,0 0,-58.10295 a 15.77238,15.77238 0 0 0 -16.08206,-16.08207 15.77238,15.77238 0 0 0 -1.55633,0 z m 97.52995,112.57448 c -2.08704,-0.0141 -4.50588,0.34967 -7.26286,0.77812 l -170.9368,0 c -26.48638,0 -28.75503,-1.48244 -23.34493,24.64188 6.00616,47.52124 4.31268,91.54743 -14.52575,137.735138 l 6.74409,0 6.7441,0 7.00347,0 6.7441,0 6.74409,0 6.7441,0 24.64188,-56.806018 -11.15369,56.806018 6.74408,0 7.0035,0 6.74408,0 6.7441,0 10.37553,-18.935338 3.11266,18.935338 6.74409,0 6.74407,0 7.00348,0 6.74409,0 6.74409,0 6.74409,0 6.7441,0 6.74409,0 21.01046,-70.034818 -7.26288,70.034818 6.7441,0 6.74408,0 6.7441,0 6.74409,0 10.37553,-21.269829 3.11266,21.269829 7.00348,0 6.74409,0 c 16.12158,-47.482198 21.50134,-90.161738 15.04451,-137.475758 -2.06398,-14.95333 -1.47232,-25.58199 -16.08207,-25.67943 z"
       id="path3890"
       inkscape:connector-curvature="0" />
    <path
       style="color:#000000;fill:#ffffff;fill-opacity:0.13942309;fill-rule:evenodd;stroke:none;stroke-width:3.79999995;marker:none;visibility:visible;display:inline;overflow:visible;enable-background:accumulate"
       d="m 137.19355,-417.54634 c -52.269565,2.63249 -93.491095,45.6415 -93.491095,98.58771 l 0,229.029282 c 0,25.943719 10.01726,49.31761 26.279438,66.893115 -8.783237,-14.761519 -14.0157,-31.995418 -14.0157,-50.488375 l 0,-228.870012 c 0,-54.65415 44.092827,-98.74698 98.746977,-98.74698 l 228.87002,0 c 28.71043,0 54.47112,12.24479 72.46754,31.69459 -17.17478,-28.86472 -48.57009,-48.09933 -84.73128,-48.09933 l -229.02928,0 c -1.70795,0 -3.41051,-0.0849 -5.09662,0 z"
       id="rect4690"
       inkscape:connector-curvature="0" />
  </g>
</svg>
