<?xml version="1.0" encoding="UTF-8" standalone="no"?>
<!-- Created using Karbon, part of Calligra: http://www.calligra.org/karbon -->

<svg
   xmlns:dc="http://purl.org/dc/elements/1.1/"
   xmlns:cc="http://creativecommons.org/ns#"
   xmlns:rdf="http://www.w3.org/1999/02/22-rdf-syntax-ns#"
   xmlns:svg="http://www.w3.org/2000/svg"
   xmlns="http://www.w3.org/2000/svg"
   xmlns:sodipodi="http://sodipodi.sourceforge.net/DTD/sodipodi-0.dtd"
   xmlns:inkscape="http://www.inkscape.org/namespaces/inkscape"
   width="512"
   height="512"
   id="svg2"
   version="1.1"
   inkscape:version="0.48.4 r9939"
   sodipodi:docname="blender.svg"
   viewBox="0 0 512 512">
  <metadata
     id="metadata16">
    <rdf:RDF>
      <cc:Work
         rdf:about="">
        <dc:format>image/svg+xml</dc:format>
        <dc:type
           rdf:resource="http://purl.org/dc/dcmitype/StillImage" />
        <dc:title />
      </cc:Work>
    </rdf:RDF>
  </metadata>
  <sodipodi:namedview
     pagecolor="#ffffff"
     bordercolor="#666666"
     borderopacity="1"
     objecttolerance="10"
     gridtolerance="10"
     guidetolerance="10"
     inkscape:pageopacity="0"
     inkscape:pageshadow="2"
     inkscape:window-width="1360"
     inkscape:window-height="717"
     id="namedview14"
     showgrid="false"
     inkscape:showpageshadow="false"
     borderlayer="true"
     inkscape:zoom="0.57452426"
     inkscape:cx="155.38428"
     inkscape:cy="159.71159"
     inkscape:window-x="0"
     inkscape:window-y="25"
     inkscape:window-maximized="1"
     inkscape:current-layer="svg2"
     inkscape:snap-global="false"
     inkscape:document-units="px" />
  <defs
     id="defs4" />
  <path
     style="font-size:medium;font-style:normal;font-variant:normal;font-weight:normal;font-stretch:normal;text-indent:0;text-align:start;text-decoration:none;line-height:normal;letter-spacing:normal;word-spacing:normal;text-transform:none;direction:ltr;block-progression:tb;writing-mode:lr-tb;text-anchor:start;baseline-shift:baseline;color:#000000;fill:#eb915f;fill-opacity:1;fill-rule:nonzero;stroke:none;stroke-width:15;marker:none;visibility:visible;display:inline;overflow:visible;enable-background:accumulate;font-family:Sans;-inkscape-font-specification:Sans"
     d="m 189.40791,34.243061 c -13.48764,-0.20538 -27.1512,5.266311 -33.14308,17.685043 -0.006,0.01118 0.006,0.032 0,0.04374 l -2.096,4.279344 c -3e-5,0.01453 -3e-5,0.0292 0,0.04374 -4.79112,9.96417 -2.93361,21.276044 2.31434,30.392073 5.24795,9.116029 13.83969,16.822315 24.71539,22.051725 l 36.24342,17.42304 -158.117381,21.87692 c -11.95567,1.65352 -22.47868,6.37152 -30.261075,13.44936 -7.78239,7.07785 -13.042622,17.30132 -11.528028,28.2524 l 0.655002,4.75968 c 1.514009,10.94688 9.324892,19.3622 18.733041,24.06039 9.40816,4.6982 20.84011,6.36926 32.79375,4.71601 l 91.132551,-12.57603 -122.834631,137.987 c -8.02484,9.01572 -12.99873,19.47872 -14.322698,29.91174 -1.323968,10.43302 1.309854,21.5613 9.563028,28.9074 l 3.58067,3.18768 c 8.25679,7.3493 19.65374,8.72442 29.86807,6.20068 10.21434,-2.52374 20.007,-8.66679 28.03407,-17.68504 l 64.321161,-72.26851 c 8.81424,32.27809 27.07123,61.88663 52.48746,83.92754 30.84467,26.74844 71.2989,41.82955 112.2236,41.87643 22.38909,-0.003 44.72521,-4.4117 65.41282,-12.92536 20.68762,-8.51367 39.6175,-21.07524 55.4568,-36.81109 15.8393,-15.73586 28.49909,-34.58343 37.07309,-55.15114 8.57401,-20.5677 13.01661,-42.75473 13.0127,-65.01982 -0.0397,-27.41386 -6.83451,-54.7012 -19.69371,-78.94952 -9.28904,-17.51612 -21.71723,-33.31311 -36.4651,-46.58731 -10.77956,-9.93359 -22.92702,-17.38691 -34.57619,-24.29035 C 345.38741,98.33156 276.07516,70.162496 214.07964,40.35641 205.95426,36.449428 197.54086,34.366879 189.40791,34.243061 z"
     id="path4198"
     inkscape:connector-curvature="0"
     sodipodi:nodetypes="sccccscccsccscccsccsccscssscscccs" />
  <path
     transform="matrix(1.2244703,0,0,1.2244703,-79.966899,-100.92537)"
     d="m 414.25578,323.1481 a 84.417671,84.417671 0 1 1 -168.83535,0 84.417671,84.417671 0 1 1 168.83535,0 z"
     sodipodi:ry="84.417671"
     sodipodi:rx="84.417671"
     sodipodi:cy="323.1481"
     sodipodi:cx="329.8381"
     id="path3772"
     style="fill:#ffffff;fill-opacity:0.15238097;fill-rule:evenodd;stroke:none"
     sodipodi:type="arc" />
  <path
     sodipodi:type="arc"
     style="fill:#c56650;fill-opacity:1;fill-rule:evenodd;stroke:none"
     id="path3761"
     sodipodi:cx="329.8381"
     sodipodi:cy="323.1481"
     sodipodi:rx="84.417671"
     sodipodi:ry="84.417671"
     d="m 414.25578,323.1481 a 84.417671,84.417671 0 1 1 -168.83535,0 84.417671,84.417671 0 1 1 168.83535,0 z"
     transform="matrix(1.2244703,0,0,1.2244703,-79.966899,-107.00578)" />
  <path
     style="fill:#000000;fill-opacity:0.12380952;fill-rule:evenodd;stroke:none"
     d="m 323.90157,185.33009 c -57.08798,0 -103.35925,46.27127 -103.35925,103.35925 0,2.86873 0.12012,5.70537 0.34933,8.51502 4.33236,-53.10243 48.79068,-94.8879 103.00992,-94.8879 54.21923,0 98.67756,41.78547 103.00991,94.8879 0.22922,-2.80965 0.34934,-5.64629 0.34934,-8.51502 0,-57.08798 -46.27127,-103.35925 -103.35925,-103.35925 z"
     id="path3767"
     inkscape:connector-curvature="0" />
  <path
     style="font-size:medium;font-style:normal;font-variant:normal;font-weight:normal;font-stretch:normal;text-indent:0;text-align:start;text-decoration:none;line-height:normal;letter-spacing:normal;word-spacing:normal;text-transform:none;direction:ltr;block-progression:tb;writing-mode:lr-tb;text-anchor:start;baseline-shift:baseline;color:#000000;fill:#ffffff;fill-opacity:0.1;fill-rule:nonzero;stroke:none;stroke-width:15;marker:none;visibility:visible;display:inline;overflow:visible;enable-background:accumulate;font-family:Sans;-inkscape-font-specification:Sans"
     d="m 189.40791,34.243061 c -13.48764,-0.20538 -27.1512,5.266311 -33.14308,17.685043 -0.006,0.01118 0.006,0.032 0,0.04374 l -2.096,4.279344 c -3e-5,0.01453 -3e-5,0.02907 0,0.04374 -2.51499,5.230469 -3.21045,10.827082 -2.53268,16.287706 0.37457,-2.900494 1.20152,-5.790256 2.53268,-8.558687 -3e-5,-0.01453 -3e-5,-0.02906 0,-0.04374 l 2.096,-4.279344 c 0.006,-0.01118 -0.006,-0.03256 0,-0.04374 5.99188,-12.418732 19.65544,-17.890424 33.14308,-17.685043 8.13295,0.123804 16.54635,2.206367 24.67173,6.113348 61.99552,29.806086 131.30321,57.981638 189.90679,92.660888 11.64916,6.90345 23.80452,14.34515 34.58408,24.27873 14.74787,13.2742 27.17272,29.07633 36.46176,46.59245 12.30283,23.19919 19.05407,49.20042 19.65004,75.41251 0.0344,-1.39059 0.0439,-2.80044 0.0437,-4.19201 -0.0397,-27.41386 -6.83451,-54.7012 -19.69371,-78.94952 -9.289,-17.51612 -21.71385,-33.31825 -36.46172,-46.59245 C 427.79102,147.36244 415.63566,139.92074 403.9865,133.0173 345.38285,98.338043 276.07516,70.162496 214.07964,40.35641 205.95426,36.449428 197.54086,34.366879 189.40791,34.243061 z m 28.31424,91.689099 -158.397551,22.10651 c -11.95567,1.65352 -22.47868,6.37152 -30.261075,13.44936 -7.78239,7.07785 -13.042622,17.30132 -11.528028,28.2524 l 0.04367,0.17467 c 1.096134,-8.01621 5.529331,-15.28213 11.484361,-20.69805 7.782395,-7.07785 18.305405,-11.79584 30.261075,-13.44937 L 228.0827,130.69842 z m -49.4238,83.07271 -7.404,1.39569 -122.879141,138.28692 c -8.02484,9.01572 -12.99873,19.47872 -14.322698,29.91174 -0.373279,2.94148 -0.424166,5.95636 -0.131,8.90802 0.03843,-0.39296 0.08135,-0.78776 0.131,-1.179 1.323968,-10.43302 6.297858,-20.89602 14.322698,-29.91174 z"
     id="path3776"
     inkscape:connector-curvature="0"
     sodipodi:nodetypes="scccccccccscccsccscccsccsccsccccccscscc" />
  <path
     style="font-size:medium;font-style:normal;font-variant:normal;font-weight:normal;font-stretch:normal;text-indent:0;text-align:start;text-decoration:none;line-height:normal;letter-spacing:normal;word-spacing:normal;text-transform:none;direction:ltr;block-progression:tb;writing-mode:lr-tb;text-anchor:start;baseline-shift:baseline;color:#000000;fill:#000000;fill-opacity:0.03809521;fill-rule:nonzero;stroke:none;stroke-width:15;marker:none;visibility:visible;display:inline;overflow:visible;enable-background:accumulate;font-family:Sans;-inkscape-font-specification:Sans"
     d="m 151.50515,66.119805 c -0.59618,7.121205 1.40642,14.362958 4.97802,20.567049 5.24795,9.116029 13.83969,16.822316 24.71539,22.051716 l 28.42707,13.6677 7.81635,-1.09166 -36.24342,-17.42305 c -10.8757,-5.229404 -19.46744,-12.935688 -24.71539,-22.051717 -2.76234,-4.798357 -4.56955,-10.2217 -4.97802,-15.720038 z M 17.404496,183.49608 c -0.182277,2.0434 -0.161529,4.12926 0.131,6.24435 l 0.655002,4.75968 c 1.514009,10.94688 9.324892,19.3622 18.733041,24.06039 9.40816,4.6982 20.84011,6.36926 32.79375,4.71601 l 86.198211,-11.87736 4.93434,-5.54568 -91.132551,12.57603 c -11.95364,1.65325 -23.38559,-0.0178 -32.79375,-4.71601 -9.408149,-4.6982 -17.219032,-13.11352 -18.733041,-24.06039 l -0.655002,-4.75968 c -0.06437,-0.46538 -0.09078,-0.93476 -0.131,-1.39734 z m 477.277814,97.46424 c -0.37573,21.25936 -4.77862,42.40295 -12.96903,62.05048 -8.574,20.56771 -21.23379,39.41528 -37.07309,55.15114 -15.8393,15.73585 -34.76918,28.29742 -55.4568,36.81108 -20.68761,8.51367 -43.02373,12.92257 -65.41282,12.92537 -40.9247,-0.0469 -81.37893,-15.12799 -112.2236,-41.87644 -25.41623,-22.0409 -43.67322,-51.64945 -52.48746,-83.92753 l -64.321161,72.26851 c -8.02707,9.01825 -17.81973,15.16129 -28.03407,17.68504 -10.21433,2.52374 -21.61128,1.14862 -29.86807,-6.20068 l -3.58067,-3.18768 c -6.327672,-5.63223 -9.354881,-13.51057 -9.825028,-21.57138 -0.632288,9.68231 2.225466,19.65407 9.825028,26.41839 l 3.58067,3.18768 c 8.25679,7.3493 19.65374,8.72442 29.86807,6.20068 10.21434,-2.52374 20.007,-8.66679 28.03407,-17.68504 l 64.321161,-72.26851 c 8.81424,32.27809 27.07123,61.88663 52.48746,83.92754 30.84467,26.74844 71.2989,41.82955 112.2236,41.87643 22.38909,-0.003 44.72521,-4.4117 65.41282,-12.92536 20.68762,-8.51367 39.6175,-21.07524 55.4568,-36.81109 15.8393,-15.73586 28.49909,-34.58343 37.07309,-55.15114 8.57401,-20.5677 13.01661,-42.75473 13.0127,-65.01982 -9.1e-4,-0.62443 -0.0358,-1.25341 -0.0437,-1.87767 z"
     id="path3781"
     inkscape:connector-curvature="0" />
</svg>
