<?xml version="1.0" encoding="UTF-8" standalone="no"?>
<!-- Created with Inkscape (http://www.inkscape.org/) -->

<svg
   xmlns:dc="http://purl.org/dc/elements/1.1/"
   xmlns:cc="http://creativecommons.org/ns#"
   xmlns:rdf="http://www.w3.org/1999/02/22-rdf-syntax-ns#"
   xmlns:svg="http://www.w3.org/2000/svg"
   xmlns="http://www.w3.org/2000/svg"
   xmlns:xlink="http://www.w3.org/1999/xlink"
   xmlns:sodipodi="http://sodipodi.sourceforge.net/DTD/sodipodi-0.dtd"
   xmlns:inkscape="http://www.inkscape.org/namespaces/inkscape"
   id="svg2"
   version="1.1"
   inkscape:version="0.48.4 r9939"
   width="512"
   height="512"
   sodipodi:docname="access.svg">
  <sodipodi:namedview
     pagecolor="#ffffff"
     bordercolor="#666666"
     borderopacity="1"
     objecttolerance="10"
     gridtolerance="10"
     guidetolerance="10"
     inkscape:pageopacity="0"
     inkscape:pageshadow="2"
     inkscape:window-width="1360"
     inkscape:window-height="721"
     id="namedview4"
     showgrid="false"
     inkscape:zoom="0.70710678"
     inkscape:cx="-128.93118"
     inkscape:cy="236.58304"
     inkscape:window-x="0"
     inkscape:window-y="25"
     inkscape:window-maximized="1"
     inkscape:current-layer="svg2" />
  <metadata
     id="metadata8">
    <rdf:RDF>
      <cc:Work
         rdf:about="">
        <dc:format>image/svg+xml</dc:format>
        <dc:type
           rdf:resource="http://purl.org/dc/dcmitype/StillImage" />
        <dc:title></dc:title>
      </cc:Work>
    </rdf:RDF>
  </metadata>
  <defs
     id="defs6">
    <linearGradient
       inkscape:collect="always"
       id="linearGradient4213">
      <stop
         style="stop-color:#f2a558;stop-opacity:1;"
         offset="0"
         id="stop4215" />
      <stop
         style="stop-color:#f2a558;stop-opacity:0;"
         offset="1"
         id="stop4217" />
    </linearGradient>
    <linearGradient
       id="linearGradient3887"
       inkscape:collect="always">
      <stop
         id="stop3889"
         offset="0"
         style="stop-color:#008dff;stop-opacity:1;" />
      <stop
         id="stop3891"
         offset="1"
         style="stop-color:#008dff;stop-opacity:0;" />
    </linearGradient>
    <clipPath
       id="clipPath3881"
       clipPathUnits="userSpaceOnUse">
      <path
         transform="translate(-412,-17)"
         d="m 643,152.5 a 103.5,103.5 0 1 1 -207,0 103.5,103.5 0 1 1 207,0 z"
         sodipodi:ry="103.5"
         sodipodi:rx="103.5"
         sodipodi:cy="152.5"
         sodipodi:cx="539.5"
         id="path3883"
         style="fill:#008dff;fill-opacity:1;fill-rule:evenodd;stroke:none"
         sodipodi:type="arc" />
    </clipPath>
    <linearGradient
       y2="122.80152"
       x2="518.54919"
       y1="230.28175"
       x1="621.26202"
       gradientUnits="userSpaceOnUse"
       id="linearGradient3950"
       xlink:href="#linearGradient3887"
       inkscape:collect="always" />
    <linearGradient
       y2="122.80152"
       x2="518.54919"
       y1="230.28175"
       x1="621.26202"
       gradientUnits="userSpaceOnUse"
       id="linearGradient4039"
       xlink:href="#linearGradient3887"
       inkscape:collect="always" />
    <clipPath
       clipPathUnits="userSpaceOnUse"
       id="clipPath4207">
      <path
         transform="matrix(2.1304347,0,0,2.1304347,-892.86953,-62.391327)"
         d="m 643,152.5 a 103.5,103.5 0 1 1 -207,0 103.5,103.5 0 1 1 207,0 z"
         sodipodi:ry="103.5"
         sodipodi:rx="103.5"
         sodipodi:cy="152.5"
         sodipodi:cx="539.5"
         id="path4209"
         style="fill:#f2a558;fill-opacity:1;fill-rule:evenodd;stroke:none"
         sodipodi:type="arc" />
    </clipPath>
    <linearGradient
       inkscape:collect="always"
       xlink:href="#linearGradient4213"
       id="linearGradient4219"
       x1="616.55756"
       y1="240.78734"
       x2="480.36545"
       y2="98.067207"
       gradientUnits="userSpaceOnUse" />
  </defs>
  <path
     sodipodi:type="arc"
     style="fill:#f2a558;fill-opacity:1;fill-rule:evenodd;stroke:none"
     id="path3772"
     sodipodi:cx="539.5"
     sodipodi:cy="152.5"
     sodipodi:rx="103.5"
     sodipodi:ry="103.5"
     d="m 643,152.5 a 103.5,103.5 0 1 1 -207,0 103.5,103.5 0 1 1 207,0 z"
     transform="matrix(2.1304347,0,0,2.1304347,-892.86953,-62.391327)" />
  <g
     id="g4090"
     clip-path="url(#clipPath4207)"
     style="opacity:0.24347826">
    <g
       id="g4092"
       style="color:#000000;fill:#000000;fill-opacity:1;fill-rule:evenodd;stroke:none;stroke-width:50.79999923999999822;marker:none;visibility:visible;display:inline;overflow:visible;enable-background:accumulate">
      <path
         id="path4094"
         d="M194.25367 105.21548C194.25367 105.21548 180.29818 134.17004 182.39849 149.21428L394.530524356 361.346314356C392.430214356 346.302074356 406.385704356 317.347514356 406.385704356 317.347514356Z" />
      <path
         id="path4096"
         d="M182.39849 149.21428C183.763 158.98804 195.43762 164.98748 197.63819 174.60755L409.770224356 386.739584356C407.569654356 377.119514356 395.895034356 371.120074356 394.530524356 361.346314356Z" />
      <path
         id="path4098"
         d="M197.63819 174.60755C200.41718 186.75618 194.25367 211.8373 194.25367 211.8373L406.385704356 423.969334356C406.385704356 423.969334356 412.549214356 398.888214356 409.770224356 386.739584356Z" />
      <path
         id="path4100"
         d="M194.25367 211.8373C194.25367 211.8373 218.85517 182.09113 217.94533 164.45398L430.077364356 376.586014356C430.987204356 394.223164356 406.385704356 423.969334356 406.385704356 423.969334356Z" />
      <path
         id="path4102"
         d="M217.94533 164.45398C217.56639 157.10817 209.12476 152.53018 206.09016 145.82976L418.222194356 357.961794356C421.256794356 364.662214356 429.698424356 369.240204356 430.077364356 376.586014356Z" />
      <path
         id="path4104"
         d="M206.09016 145.82976C200.27154 132.98227 194.25367 105.21548 194.25367 105.21548L406.385704356 317.347514356C406.385704356 317.347514356 412.403574356 345.114304356 418.222194356 357.961794356Z" />
      <path
         id="path4106"
         d="M243.33861 105.21548C243.33861 105.21548 229.38311 134.17005 231.48342 149.21428L443.615454356 361.346314356C441.515144356 346.302084356 455.470644356 317.347514356 455.470644356 317.347514356Z" />
      <path
         id="path4108"
         d="M231.48342 149.21428C232.84793 158.98804 244.52255 164.98748 246.72312 174.60755L458.855154356 386.739584356C456.654584356 377.119514356 444.979964356 371.120074356 443.615454356 361.346314356Z" />
      <path
         id="path4110"
         d="M246.72312 174.60755C249.50211 186.75618 243.33861 211.8373 243.33861 211.8373L455.470644356 423.969334356C455.470644356 423.969334356 461.634144356 398.888214356 458.855154356 386.739584356Z" />
      <path
         id="path4112"
         d="M243.33861 211.8373C243.33861 211.8373 267.9401 182.09113 267.03026 164.45398L479.162294356 376.586014356C480.072134356 394.223164356 455.470644356 423.969334356 455.470644356 423.969334356Z" />
      <path
         id="path4114"
         d="M267.03026 164.45398C266.65131 157.10817 258.20969 152.53017 255.17508 145.82976L467.307114356 357.961794356C470.341724356 364.662204356 478.783344356 369.240204356 479.162294356 376.586014356Z" />
      <path
         id="path4116"
         d="M255.17508 145.82976C249.35647 132.98227 243.33861 105.21548 243.33861 105.21548L455.470644356 317.347514356C455.470644356 317.347514356 461.488504356 345.114304356 467.307114356 357.961794356Z" />
      <path
         id="path4118"
         d="M292.40484 105.21548C292.40484 105.21548 278.46804 134.17004 280.56835 149.21428L492.700384356 361.346314356C490.600074356 346.302074356 504.536874356 317.347514356 504.536874356 317.347514356Z" />
      <path
         id="path4120"
         d="M280.56835 149.21428C281.93286 158.98804 293.58878 164.98748 295.78936 174.60755L507.921394356 386.739584356C505.720814356 377.119514356 494.064894356 371.120074356 492.700384356 361.346314356Z" />
      <path
         id="path4122"
         d="M295.78936 174.60755C298.56834 186.75618 292.40484 211.8373 292.40484 211.8373L504.536874356 423.969334356C504.536874356 423.969334356 510.700374356 398.888214356 507.921394356 386.739584356Z" />
      <path
         id="path4124"
         d="M292.40484 211.8373C292.40484 211.8373 317.02503 182.09113 316.11519 164.45398L528.247224356 376.586014356C529.157064356 394.223164356 504.536874356 423.969334356 504.536874356 423.969334356Z" />
      <path
         id="path4126"
         d="M316.11519 164.45398C315.73624 157.10817 307.29462 152.53018 304.26001 145.82976L516.392044356 357.961794356C519.426654356 364.662214356 527.868274356 369.240204356 528.247224356 376.586014356Z" />
      <path
         id="path4128"
         d="M304.26001 145.82976C298.44141 132.98227 292.40484 105.21548 292.40484 105.21548L504.536874356 317.347514356C504.536874356 317.347514356 510.573444356 345.114304356 516.392044356 357.961794356Z" />
      <path
         id="path4130"
         d="M153.35892 229.78836C153.03149 232.53364 152.85404 235.32926 152.85404 238.16553L364.986074356 450.297564356C364.986074356 447.461294356 365.163524356 444.665674356 365.490954356 441.920394356Z" />
      <path
         id="path4132"
         d="M152.85404 238.16553L152.85404 331.51104L364.986074356 543.643074356L364.986074356 450.297564356Z" />
      <path
         id="path4134"
         d="M152.85404 331.51104C152.85404 369.9646 183.81124 400.9218 222.2648 400.9218L434.396834356 613.053834356C395.943274356 613.053834356 364.986074356 582.096634356 364.986074356 543.643074356Z" />
      <path
         id="path4136"
         d="M222.2648 400.9218L277.31473 400.9218L489.446764356 613.053834356L434.396834356 613.053834356Z" />
      <path
         id="path4138"
         d="M277.31473 400.9218C309.99333 400.9218 337.25378 378.56213 344.706 348.24665L556.838034356 560.378684356C549.385814356 590.694164356 522.125364356 613.053834356 489.446764356 613.053834356Z" />
      <path
         id="path4140"
         d="M344.706 348.24665C374.99174 347.72847 399.38193 323.02644 399.38193 292.61707L611.513964356 504.749104356C611.513964356 535.158474356 587.123774356 559.860504356 556.838034356 560.378684356Z" />
      <path
         id="path4142"
         d="M399.38193 292.61707C399.38193 277.249941835 393.152440383 263.33673631 383.081161408 253.265457335L595.213195764 465.397491691C605.284474739 475.468770666 611.513964356 489.381976191 611.513964356 504.749104356Z" />
      <path
         id="path4144"
         d="M383.081161408 253.265457335C373.664432333 243.84872826 360.889055584 237.790766798 346.70679 237.04358L558.838824356 449.175614356C573.02108994 449.922801154 585.796466689 455.980762616 595.213195764 465.397491691Z" />
      <path
         id="path4146"
         d="M346.70679 237.04358C346.66639 234.59331 346.50458 232.16924 346.22061 229.78836L558.352644356 441.920394356C558.636614356 444.301274356 558.798424356 446.725344356 558.838824356 449.175614356Z" />
      <path
         id="path4148"
         d="M346.22061 229.78836L153.35892 229.78836L365.490954356 441.920394356L558.352644356 441.920394356Z" />
      <path
         id="path4150"
         d="M346.72549 258.84664C355.743927808 260.997510449 363.581194919 265.29890994 369.277954828 270.995669848L581.409989184 483.127704204C575.713229275 477.430944296 567.875962164 473.129544805 558.857524356 470.978674356Z" />
      <path
         id="path4152"
         d="M369.277954828 270.995669848C375.389427557 277.107142578 379.0374 284.82452945 379.0374 293.21544L591.169434356 505.347474356C591.169434356 496.956563806 587.521461913 489.239176934 581.409989184 483.127704204Z" />
      <path
         id="path4154"
         d="M379.0374 293.21544C379.0374 309.42787 365.41889 323.12592 346.72549 327.58424L558.857524356 539.716274356C577.550924356 535.257954356 591.169434356 521.559904356 591.169434356 505.347474356Z" />
      <path
         id="path4156"
         d="M346.72549 327.58424L346.72549 258.84664L558.857524356 470.978674356L558.857524356 539.716274356Z" />
    </g>
    <path
       style="color:#000000;fill:#000000;fill-opacity:1;fill-rule:evenodd;stroke:none;stroke-width:50.79999923999999822;marker:none;visibility:visible;display:inline;overflow:visible;enable-background:accumulate"
       d="m 194.25367,105.21548 c 0,0 -13.95549,28.95456 -11.85518,43.9988 1.36451,9.77376 13.03913,15.7732 15.2397,25.39327 2.77899,12.14863 -3.38452,37.22975 -3.38452,37.22975 0,0 24.6015,-29.74617 23.69166,-47.38332 -0.37894,-7.34581 -8.82057,-11.9238 -11.85517,-18.62422 -5.81862,-12.84749 -11.83649,-40.61428 -11.83649,-40.61428 z m 49.08494,0 c 0,0 -13.9555,28.95457 -11.85519,43.9988 1.36451,9.77376 13.03913,15.7732 15.2397,25.39327 2.77899,12.14863 -3.38451,37.22975 -3.38451,37.22975 0,0 24.60149,-29.74617 23.69165,-47.38332 -0.37895,-7.34581 -8.82057,-11.92381 -11.85518,-18.62422 -5.81861,-12.84749 -11.83647,-40.61428 -11.83647,-40.61428 z m 49.06623,0 c 0,0 -13.9368,28.95456 -11.83649,43.9988 1.36451,9.77376 13.02043,15.7732 15.22101,25.39327 2.77898,12.14863 -3.38452,37.22975 -3.38452,37.22975 0,0 24.62019,-29.74617 23.71035,-47.38332 -0.37895,-7.34581 -8.82057,-11.9238 -11.85518,-18.62422 -5.8186,-12.84749 -11.85517,-40.61428 -11.85517,-40.61428 z M 153.35892,229.78836 c -0.32743,2.74528 -0.50488,5.5409 -0.50488,8.37717 l 0,93.34551 c 0,38.45356 30.9572,69.41076 69.41076,69.41076 l 55.04993,0 c 32.6786,0 59.93905,-22.35967 67.39127,-52.67515 30.28574,-0.51818 54.67593,-25.22021 54.67593,-55.62958 0,-29.73552 -23.32481,-54.02718 -52.67514,-55.57349 -0.0404,-2.45027 -0.20221,-4.87434 -0.48618,-7.25522 l -192.86169,0 z m 193.36657,29.05828 c 18.6934,4.45832 32.31191,18.15637 32.31191,34.3688 0,16.21243 -13.61851,29.91048 -32.31191,34.3688 l 0,-68.7376 z"
       id="path4075"
       inkscape:connector-curvature="0" />
  </g>
  <path
     transform="matrix(2.1304347,0,0,2.1304347,-892.86953,-62.391327)"
     d="m 643,152.5 a 103.5,103.5 0 1 1 -207,0 103.5,103.5 0 1 1 207,0 z"
     sodipodi:ry="103.5"
     sodipodi:rx="103.5"
     sodipodi:cy="152.5"
     sodipodi:cx="539.5"
     id="path4211"
     style="fill:url(#linearGradient4219);fill-opacity:1;fill-rule:evenodd;stroke:none"
     sodipodi:type="arc" />
  <path
     inkscape:connector-curvature="0"
     id="rect4019"
     d="m 194.25367,105.21548 c 0,0 -13.95549,28.95456 -11.85518,43.9988 1.36451,9.77376 13.03913,15.7732 15.2397,25.39327 2.77899,12.14863 -3.38452,37.22975 -3.38452,37.22975 0,0 24.6015,-29.74617 23.69166,-47.38332 -0.37894,-7.34581 -8.82057,-11.9238 -11.85517,-18.62422 -5.81862,-12.84749 -11.83649,-40.61428 -11.83649,-40.61428 z m 49.08494,0 c 0,0 -13.9555,28.95457 -11.85519,43.9988 1.36451,9.77376 13.03913,15.7732 15.2397,25.39327 2.77899,12.14863 -3.38451,37.22975 -3.38451,37.22975 0,0 24.60149,-29.74617 23.69165,-47.38332 -0.37895,-7.34581 -8.82057,-11.92381 -11.85518,-18.62422 -5.81861,-12.84749 -11.83647,-40.61428 -11.83647,-40.61428 z m 49.06623,0 c 0,0 -13.9368,28.95456 -11.83649,43.9988 1.36451,9.77376 13.02043,15.7732 15.22101,25.39327 2.77898,12.14863 -3.38452,37.22975 -3.38452,37.22975 0,0 24.62019,-29.74617 23.71035,-47.38332 -0.37895,-7.34581 -8.82057,-11.9238 -11.85518,-18.62422 -5.8186,-12.84749 -11.85517,-40.61428 -11.85517,-40.61428 z M 153.35892,229.78836 c -0.32743,2.74528 -0.50488,5.5409 -0.50488,8.37717 l 0,93.34551 c 0,38.45356 30.9572,69.41076 69.41076,69.41076 l 55.04993,0 c 32.6786,0 59.93905,-22.35967 67.39127,-52.67515 30.28574,-0.51818 54.67593,-25.22021 54.67593,-55.62958 0,-29.73552 -23.32481,-54.02718 -52.67514,-55.57349 -0.0404,-2.45027 -0.20221,-4.87434 -0.48618,-7.25522 l -192.86169,0 z m 193.36657,29.05828 c 18.6934,4.45832 32.31191,18.15637 32.31191,34.3688 0,16.21243 -13.61851,29.91048 -32.31191,34.3688 l 0,-68.7376 z"
     style="color:#000000;fill:#fffff7;fill-opacity:1;fill-rule:evenodd;stroke:none;stroke-width:50.79999924;marker:none;visibility:visible;display:inline;overflow:visible;enable-background:accumulate" />
</svg>
