<?xml version="1.0" encoding="UTF-8" standalone="no"?>
<!-- Created with Inkscape (http://www.inkscape.org/) -->

<svg
   xmlns:dc="http://purl.org/dc/elements/1.1/"
   xmlns:cc="http://creativecommons.org/ns#"
   xmlns:rdf="http://www.w3.org/1999/02/22-rdf-syntax-ns#"
   xmlns:svg="http://www.w3.org/2000/svg"
   xmlns="http://www.w3.org/2000/svg"
   xmlns:xlink="http://www.w3.org/1999/xlink"
   xmlns:sodipodi="http://sodipodi.sourceforge.net/DTD/sodipodi-0.dtd"
   xmlns:inkscape="http://www.inkscape.org/namespaces/inkscape"
   width="512"
   height="512"
   id="svg2"
   version="1.1"
   inkscape:version="0.48.4 r9939"
   sodipodi:docname="calendar.svg">
  <defs
     id="defs4">
    <linearGradient
       id="linearGradient3831">
      <stop
         style="stop-color:#000000;stop-opacity:0.06164384;"
         offset="0"
         id="stop3833" />
      <stop
         style="stop-color:#47b39a;stop-opacity:0.17123288;"
         offset="1"
         id="stop3835" />
    </linearGradient>
    <clipPath
       clipPathUnits="userSpaceOnUse"
       id="clipPath3790">
      <rect
         style="color:#000000;fill:#47b39a;fill-opacity:1;fill-rule:evenodd;stroke:none;stroke-width:50;marker:none;visibility:visible;display:inline;overflow:visible;enable-background:accumulate"
         id="rect3792"
         width="541.44177"
         height="541.44177"
         x="120.20812"
         y="254.34166"
         ry="33.346149" />
    </clipPath>
    <clipPath
       clipPathUnits="userSpaceOnUse"
       id="clipPath3809">
      <rect
         ry="33.346149"
         y="254.34166"
         x="113.13709"
         height="541.44177"
         width="541.44177"
         id="rect3811"
         style="color:#000000;fill:#b3b3b3;fill-opacity:1;fill-rule:evenodd;stroke:none;stroke-width:50;marker:none;visibility:visible;display:inline;overflow:visible;enable-background:accumulate" />
    </clipPath>
    <linearGradient
       inkscape:collect="always"
       xlink:href="#linearGradient3831"
       id="linearGradient3837"
       x1="254.55844"
       y1="709.92047"
       x2="579.82758"
       y2="837.19971"
       gradientUnits="userSpaceOnUse" />
    <clipPath
       clipPathUnits="userSpaceOnUse"
       id="clipPath3849">
      <rect
         ry="33.346149"
         y="254.34166"
         x="113.13709"
         height="541.44177"
         width="541.44177"
         id="rect3851"
         style="color:#000000;fill:#b3b3b3;fill-opacity:1;fill-rule:evenodd;stroke:none;stroke-width:50;marker:none;visibility:visible;display:inline;overflow:visible;enable-background:accumulate" />
    </clipPath>
  </defs>
  <sodipodi:namedview
     id="base"
     pagecolor="#ffffff"
     bordercolor="#666666"
     borderopacity="1.0"
     inkscape:pageopacity="0.0"
     inkscape:pageshadow="2"
     inkscape:zoom="0.35"
     inkscape:cx="359.87077"
     inkscape:cy="366.36396"
     inkscape:document-units="px"
     inkscape:current-layer="layer1"
     showgrid="false"
     inkscape:window-width="1360"
     inkscape:window-height="719"
     inkscape:window-x="0"
     inkscape:window-y="25"
     inkscape:window-maximized="1" />
  <metadata
     id="metadata7">
    <rdf:RDF>
      <cc:Work
         rdf:about="">
        <dc:format>image/svg+xml</dc:format>
        <dc:type
           rdf:resource="http://purl.org/dc/dcmitype/StillImage" />
        <dc:title></dc:title>
      </cc:Work>
    </rdf:RDF>
  </metadata>
  <g
     inkscape:label="Capa 1"
     inkscape:groupmode="layer"
     id="layer1"
     transform="translate(0,-540.36218)">
    <rect
       style="color:#000000;fill:#293d39;fill-opacity:1;fill-rule:evenodd;stroke:none;stroke-width:50;marker:none;visibility:visible;display:inline;overflow:visible;enable-background:accumulate"
       id="rect3763"
       width="386.32922"
       height="403.62781"
       x="61.606209"
       y="578.89709"
       ry="24.50596" />
    <rect
       style="color:#000000;fill:#3e7766;fill-opacity:1;fill-rule:evenodd;stroke:none;stroke-width:50;marker:none;visibility:visible;display:inline;overflow:visible;enable-background:accumulate"
       id="rect2991"
       width="386.32922"
       height="386.32922"
       x="61.606209"
       y="640.88275"
       ry="23.793125" />
    <path
       style="color:#000000;fill:#000000;fill-opacity:0.30392157;fill-rule:evenodd;stroke:none;stroke-width:50;marker:none;visibility:visible;display:inline;overflow:visible;enable-background:accumulate"
       d="m 85.388998,631.51931 c -13.181398,0 -23.791417,10.61003 -23.791417,23.79142 l 0,9.36495 c 0,-13.1814 10.610019,-23.79142 23.791417,-23.79142 l 338.743342,0 c 13.1814,0 23.81372,10.61002 23.81372,23.79142 l 0,-9.36495 c 0,-13.18139 -10.63232,-23.79142 -23.81372,-23.79142 l -338.743342,0 z"
       id="rect3794"
       inkscape:connector-curvature="0" />
    <path
       style="color:#000000;fill:#5db39a;fill-opacity:1;fill-rule:evenodd;stroke:none;stroke-width:50;marker:none;visibility:visible;display:inline;overflow:visible;enable-background:accumulate"
       d="m 85.144525,640.88277 338.742975,0 c 13.18139,0 23.79313,10.61173 23.79313,23.79312 l 0,338.74291 c 0,13.1815 -10.61174,23.7932 -23.79313,23.7932 -84.68574,0 -169.37149,0 -254.05723,0 L 61.351398,918.73313 c 0,-84.68574 0,-169.37149 0,-254.05724 0,-13.18139 10.611738,-23.79312 23.793127,-23.79312 z"
       id="rect3761"
       inkscape:connector-curvature="0"
       sodipodi:nodetypes="ssssccccs" />
    <g
       transform="matrix(0.71351945,0,0,0.71351945,-24.16462,459.40505)"
       id="g3776"
       style="fill:#000000;fill-opacity:0.19607843"
       clip-path="url(#clipPath3790)">
      <rect
         style="color:#000000;fill:#000000;fill-opacity:0.19607843;fill-rule:evenodd;stroke:none;stroke-width:50;marker:none;visibility:visible;display:inline;overflow:visible;enable-background:accumulate"
         id="rect3778"
         width="38.385796"
         height="92.934036"
         x="173.74623"
         y="217.97617"
         ry="19.192898" />
      <rect
         ry="19.192898"
         y="217.97617"
         x="379.81732"
         height="92.934036"
         width="38.385796"
         id="rect3780"
         style="color:#000000;fill:#000000;fill-opacity:0.19607843;fill-rule:evenodd;stroke:none;stroke-width:50;marker:none;visibility:visible;display:inline;overflow:visible;enable-background:accumulate" />
      <rect
         style="color:#000000;fill:#000000;fill-opacity:0.19607843;fill-rule:evenodd;stroke:none;stroke-width:50;marker:none;visibility:visible;display:inline;overflow:visible;enable-background:accumulate"
         id="rect3782"
         width="38.385796"
         height="92.934036"
         x="585.88843"
         y="217.97617"
         ry="19.192898" />
    </g>
    <g
       id="g3771"
       transform="matrix(0.71351945,0,0,0.71351945,-29.930727,459.40505)">
      <rect
         ry="19.192898"
         y="217.97617"
         x="173.74623"
         height="92.934036"
         width="38.385796"
         id="rect3765"
         style="color:#000000;fill:#f9f9f9;fill-opacity:1;fill-rule:evenodd;stroke:none;stroke-width:50;marker:none;visibility:visible;display:inline;overflow:visible;enable-background:accumulate" />
      <rect
         style="color:#000000;fill:#f9f9f9;fill-opacity:1;fill-rule:evenodd;stroke:none;stroke-width:50;marker:none;visibility:visible;display:inline;overflow:visible;enable-background:accumulate"
         id="rect3767"
         width="38.385796"
         height="92.934036"
         x="379.81732"
         y="217.97617"
         ry="19.192898" />
      <rect
         ry="19.192898"
         y="217.97617"
         x="585.88843"
         height="92.934036"
         width="38.385796"
         id="rect3769"
         style="color:#000000;fill:#f9f9f9;fill-opacity:1;fill-rule:evenodd;stroke:none;stroke-width:50;marker:none;visibility:visible;display:inline;overflow:visible;enable-background:accumulate" />
    </g>
    <g
       transform="matrix(1.1229845,0,0,1.1229845,-62.025988,258.61372)"
       style="font-size:250px;font-style:normal;font-variant:normal;font-weight:normal;font-stretch:normal;line-height:125%;letter-spacing:0px;word-spacing:0px;fill:#fffaec;fill-opacity:1;stroke:none;font-family:Bebas;-inkscape-font-specification:Bebas"
       id="flowRoot3853">
      <path
         d="m 227.39915,586.36534 c 15.38818,3e-5 23.0823,-7.16142 23.08238,-21.48438 l 0,-13.1392 c -8e-5,-22.84555 -11.95556,-34.26836 -35.86647,-34.26847 l 0,-28.7642 c 12.9024,1.3e-4 22.43127,-3.61019 28.58664,-10.83097 5.68174,-6.51027 8.52264,-15.62484 8.52273,-27.34375 l 0,-5.14914 c -9e-5,-14.55948 -6.39213,-21.8393 -19.17613,-21.83949 -7.10234,1.9e-4 -12.31067,2.72273 -15.625,8.16761 -2.48585,4.14318 -3.72875,9.52906 -3.7287,16.15767 l 0,5.85938 -32.84801,0 0,-5.14915 c -2e-5,-15.86156 4.0246,-28.76401 12.07386,-38.70739 9.11455,-11.36341 21.95781,-17.04523 38.52983,-17.04545 15.74329,2.2e-4 28.34981,5.32692 37.81961,15.98011 8.52261,9.58827 12.78397,21.54375 12.78409,35.86648 l 0,9.41051 c -1.2e-4,13.84958 -4.14311,25.80506 -12.42898,35.86648 -3.55124,4.26149 -7.69423,7.8718 -12.42898,10.83096 9.94308,5.56356 17.6372,14.0271 23.08239,25.39063 2.84079,5.80027 4.26124,12.84335 4.26136,21.12926 l 0,17.57812 c -1.2e-4,16.45364 -5.62274,29.94794 -16.8679,40.48296 -10.77187,10.17993 -23.7335,15.26988 -38.88494,15.26989 -14.79645,-1e-5 -27.34379,-5.20833 -37.64204,-15.625 -10.29832,-10.41665 -15.44746,-22.9048 -15.44745,-37.46449 l 0,-5.50426 31.96023,-2.4858 0.71023,7.8125 c 0.47344,5.56349 2.42656,10.12078 5.85937,13.67188 3.55109,3.55117 8.10837,5.32673 13.67188,5.3267"
         style=""
         id="path4065" />
      <path
         d="m 335.44247,618.32557 0,-171.34233 -28.40909,0 0,-23.4375 c 8.04922,-0.94678 15.68416,-3.96524 22.90483,-9.0554 7.33897,-5.20812 12.60649,-11.48179 15.80256,-18.82102 l 23.4375,0 0,222.65625 -33.7358,0"
         style=""
         id="path4067" />
    </g>
    <path
       style="fill:url(#linearGradient3837);fill-opacity:1;stroke:none"
       d="M 254.55844,656.38239 583.86817,805.88496 246.47722,836.18954 z"
       id="path3829"
       inkscape:connector-curvature="0"
       clip-path="url(#clipPath3849)"
       transform="matrix(0.71351945,0,0,0.71351945,-19.119304,459.40505)" />
    <path
       sodipodi:nodetypes="csscc"
       inkscape:connector-curvature="0"
       id="path3797"
       d="m 61.351398,918.73312 84.685782,0 c 13.18134,0 23.79309,10.61174 23.79309,23.79316 l 0,84.68572 z"
       style="color:#000000;fill:#7dd0b7;fill-opacity:1;fill-rule:evenodd;stroke:none;stroke-width:50;marker:none;visibility:visible;display:inline;overflow:visible;enable-background:accumulate" />
    <path
       style="color:#000000;fill:#ffffff;fill-opacity:0.24509804;fill-rule:evenodd;stroke:none;stroke-width:50;marker:none;visibility:visible;display:inline;overflow:visible;enable-background:accumulate"
       d="m 85.143726,640.88426 c -13.181389,0 -23.791418,10.61002 -23.791418,23.79142 l 0,4.3257 c 0,-13.18139 10.610029,-23.7914 23.791418,-23.7914 l 338.743344,0 c 13.18139,0 23.79142,10.61001 23.79142,23.7914 l 0,-4.3257 c 0,-13.1814 -10.61003,-23.79142 -23.79142,-23.79142 l -338.743344,0 z"
       id="path3822"
       inkscape:connector-curvature="0" />
  </g>
</svg>
