<?xml version="1.0" encoding="UTF-8" standalone="no"?>
<!-- Created with Inkscape (http://www.inkscape.org/) -->

<svg
   xmlns:dc="http://purl.org/dc/elements/1.1/"
   xmlns:cc="http://creativecommons.org/ns#"
   xmlns:rdf="http://www.w3.org/1999/02/22-rdf-syntax-ns#"
   xmlns:svg="http://www.w3.org/2000/svg"
   xmlns="http://www.w3.org/2000/svg"
   xmlns:xlink="http://www.w3.org/1999/xlink"
   xmlns:sodipodi="http://sodipodi.sourceforge.net/DTD/sodipodi-0.dtd"
   xmlns:inkscape="http://www.inkscape.org/namespaces/inkscape"
   width="512"
   height="512"
   id="svg2"
   version="1.1"
   inkscape:version="0.91 r13725"
   sodipodi:docname="calibre.svg">
  <sodipodi:namedview
     id="base"
     pagecolor="#ffffff"
     bordercolor="#666666"
     borderopacity="1.0"
     inkscape:pageopacity="0.0"
     inkscape:pageshadow="2"
     inkscape:zoom="0.35"
     inkscape:cx="112.50718"
     inkscape:cy="226.23555"
     inkscape:document-units="px"
     inkscape:current-layer="layer1"
     showgrid="false"
     inkscape:window-width="1360"
     inkscape:window-height="717"
     inkscape:window-x="0"
     inkscape:window-y="25"
     inkscape:window-maximized="1" />
  <defs
     id="defs4">
    <linearGradient
       inkscape:collect="always"
       id="linearGradient4204">
      <stop
         style="stop-color:#458e76;stop-opacity:1;"
         offset="0"
         id="stop4206" />
      <stop
         style="stop-color:#458e76;stop-opacity:0;"
         offset="1"
         id="stop4208" />
    </linearGradient>
    <linearGradient
       id="linearGradient4090">
      <stop
         style="stop-color:#4a8962;stop-opacity:1;"
         offset="0"
         id="stop4092" />
      <stop
         style="stop-color:#4a8962;stop-opacity:0;"
         offset="1"
         id="stop4094" />
    </linearGradient>
    <linearGradient
       inkscape:collect="always"
       xlink:href="#linearGradient4090"
       id="linearGradient4096"
       x1="-552.85724"
       y1="843.79077"
       x2="-934.28571"
       y2="408.07648"
       gradientUnits="userSpaceOnUse" />
    <clipPath
       clipPathUnits="userSpaceOnUse"
       id="clipPath4100">
      <path
         transform="translate(1102.8571,-85.714286)"
         d="m -408.57144,622.36218 a 318.57144,318.57144 0 1 1 -637.14286,0 318.57144,318.57144 0 1 1 637.14286,0 z"
         sodipodi:ry="318.57144"
         sodipodi:rx="318.57144"
         sodipodi:cy="622.36218"
         sodipodi:cx="-727.14288"
         id="path4102"
         style="fill:url(#linearGradient4104);fill-opacity:1;fill-rule:evenodd;stroke:none"
         sodipodi:type="arc" />
    </clipPath>
    <linearGradient
       inkscape:collect="always"
       xlink:href="#linearGradient4090"
       id="linearGradient4104"
       gradientUnits="userSpaceOnUse"
       x1="-552.85724"
       y1="843.79077"
       x2="-934.28571"
       y2="408.07648" />
    <linearGradient
       inkscape:collect="always"
       xlink:href="#linearGradient4090"
       id="linearGradient4171"
       gradientUnits="userSpaceOnUse"
       x1="-552.85724"
       y1="843.79077"
       x2="-934.28571"
       y2="408.07648" />
    <linearGradient
       inkscape:collect="always"
       xlink:href="#linearGradient4204"
       id="linearGradient4210"
       x1="-505.93494"
       y1="952.06525"
       x2="-805.38226"
       y2="581.51404"
       gradientUnits="userSpaceOnUse"
       gradientTransform="matrix(0.69242442,0,0,0.69242442,761.01785,366.99201)" />
  </defs>
  <metadata
     id="metadata7">
    <rdf:RDF>
      <cc:Work
         rdf:about="">
        <dc:format>image/svg+xml</dc:format>
        <dc:type
           rdf:resource="http://purl.org/dc/dcmitype/StillImage" />
        <dc:title />
      </cc:Work>
    </rdf:RDF>
  </metadata>
  <g
     id="layer1"
     inkscape:groupmode="layer"
     inkscape:label="Capa 1"
     transform="translate(0,-540.36218)">
    <circle
       id="path3789"
       style="fill:#458e76;fill-opacity:1;fill-rule:evenodd;stroke:none"
       cx="257.52637"
       cy="797.93079"
       r="220.58664" />
    <g
       id="g4032"
       style="opacity:0.34347827"
       clip-path="url(#clipPath4100)"
       transform="matrix(0.69242442,0,0,0.69242442,-2.6273348,426.34267)">
      <path
         inkscape:connector-curvature="0"
         d="m 557.24652,795.30126 c -2.60517,6.13002 -4.46525,12.58593 -6.11835,19.0335 -0.36727,3.48905 -3.01687,8.47331 -0.67806,11.7182 0.21436,0.0827 0.41519,0.27754 0.6431,0.24822 0.27717,-0.0357 1.00247,-0.4128 0.72324,-0.42401 -4.83759,-0.19429 -9.687,0.081 -14.52387,-0.13025 -0.32901,-0.0144 0.60486,-0.2722 0.87121,-0.46588 0.81141,-0.59003 1.15038,-1.10964 1.78038,-1.88085 2.1631,-3.27494 2.08394,-6.40896 1.30426,-10.10494 -2.80596,-9.09875 -8.53199,-16.8681 -14.32332,-24.28124 -5.00443,-6.00339 -10.33456,-11.68454 -16.46519,-16.53914 -2.49631,-1.04091 -4.51908,-3.12299 -6.98315,-4.19548 -0.3345,-0.14559 -0.71423,-0.14904 -1.07134,-0.22356 4.98316,0.0623 9.96633,0.1246 14.9495,0.1869 0.97574,-0.0125 0.1267,-0.0859 1.4017,1.62481 4.00899,5.3791 8.78131,9.99761 13.7005,14.52718 6.70307,6.30152 13.9486,11.98039 20.93502,17.95664 2.96483,2.67737 6.18053,5.08095 9.51356,7.27508 2.02036,1.73211 4.18463,3.27663 6.36024,4.80543 2.23772,1.85429 4.80723,3.22313 7.16114,4.89246 0.28627,0.38713 0.57254,0.77427 0.85881,1.16141 0,0 -15.49392,1.11939 -15.49392,1.11939 l 0,0 c -0.27642,-0.25284 -0.55284,-0.50569 -0.82926,-0.75853 -2.45032,-1.53822 -4.77384,-3.25141 -7.13123,-4.92808 -2.18072,-1.51958 -4.26715,-3.16327 -6.36309,-4.79671 -3.22137,-2.33749 -6.42742,-4.70241 -9.30828,-7.46237 -6.83249,-6.00175 -13.82796,-11.82033 -20.46595,-18.04101 -4.20875,-3.86912 -8.31091,-7.75045 -12.04794,-12.08658 -0.72867,-0.84549 -3.04178,-3.51858 -3.54126,-4.87782 -0.24888,-0.67729 -0.18884,-1.43072 -0.28326,-2.14608 5.34188,-0.11479 10.68289,-0.40679 16.02564,-0.34438 1.01152,0.0118 6.68852,4.39068 7.90766,4.95337 5.9631,5.03132 11.09879,10.8987 16.04774,16.91549 5.88698,7.67261 11.80146,15.62757 14.80497,24.93773 0.89757,4.10957 0.95571,7.65599 -1.18024,11.41988 -0.26994,0.39692 -2.23262,3.18387 -2.67214,3.22233 -5.01991,0.4393 -14.01981,4.33738 -17.83567,-0.79336 -1.76151,-4.15003 0.15743,-8.69709 0.99084,-12.87324 1.72499,-6.48242 3.62851,-12.93453 5.81768,-19.27318 0,0 15.51833,0.62867 15.51833,0.62867 z"
         id="path3974"
         style="fill:#000000;fill-opacity:1;fill-rule:nonzero;stroke:none" />
      <g
         id="g3978">
        <g
           id="g3796"
           transform="translate(1095.2952,-84.568068)">
          <g
             id="g3816"
             transform="translate(-1095.2952,84.568068)">
            <g
               id="g3818"
               style="color:#000000;display:inline;overflow:visible;visibility:visible;fill:#000000;fill-opacity:1;fill-rule:evenodd;stroke:none;stroke-width:50.79999924;marker:none;enable-background:accumulate">
              <path
                 inkscape:connector-curvature="0"
                 id="path3820"
                 d="m 216.3125,358.8125 c -11.6453,0 -21.03125,9.38595 -21.03125,21.03125 l 212.13203,212.13203 c 0,-11.6453 9.38595,-21.03125 21.03125,-21.03125 z" />
              <path
                 inkscape:connector-curvature="0"
                 id="path3822"
                 d="m 195.28125,379.84375 0,41.4375 212.13203,212.13203 0,-41.4375 z" />
              <path
                 inkscape:connector-curvature="0"
                 id="path3824"
                 d="m 195.28125,421.28125 90.625,0 212.13203,212.13203 -90.625,0 z" />
              <path
                 inkscape:connector-curvature="0"
                 id="path3826"
                 d="m 285.90625,421.28125 0,-41.4375 212.13203,212.13203 0,41.4375 z" />
              <path
                 inkscape:connector-curvature="0"
                 id="path3828"
                 d="m 285.90625,379.84375 c 0,-11.6453 -9.38595,-21.03125 -21.03125,-21.03125 l 212.13203,212.13203 c 11.6453,0 21.03125,9.38595 21.03125,21.03125 z" />
              <path
                 inkscape:connector-curvature="0"
                 id="path3830"
                 d="m 264.875,358.8125 -48.5625,0 212.13203,212.13203 48.5625,0 z" />
              <path
                 inkscape:connector-curvature="0"
                 id="path3832"
                 d="m 449.59375,416.1875 c -2.40112,-0.0159 -4.85112,0.39286 -7.25,1.25 l 212.13203,212.13203 c 2.39888,-0.85714 4.84888,-1.26587 7.25,-1.25 z" />
              <path
                 inkscape:connector-curvature="0"
                 id="path3834"
                 d="m 442.34375,417.4375 -45.75,16.34375 212.13203,212.13203 45.75,-16.34375 z" />
              <path
                 inkscape:connector-curvature="0"
                 id="path3836"
                 d="m 396.59375,433.78125 c -6.82052,2.43703 -11.58966,8.00862 -13.28125,14.5 l 212.13203,212.13203 c 1.69159,-6.49138 6.46073,-12.06297 13.28125,-14.5 z" />
              <path
                 inkscape:connector-curvature="0"
                 id="path3838"
                 d="m 383.3125,448.28125 0,-9.53125 212.13203,212.13203 0,9.53125 z" />
              <path
                 inkscape:connector-curvature="0"
                 id="path3840"
                 d="m 383.3125,438.75 c 0,-5.83046 -2.34496,-11.09457 -6.14829,-14.89791 l 212.13203,212.13204 c 3.80334,3.80333 6.14829,9.06744 6.14829,14.8979 z" />
              <path
                 inkscape:connector-curvature="0"
                 id="path3842"
                 d="m 377.16421,423.85209 c -3.79315,-3.79315 -9.03687,-6.13334 -14.85171,-6.13334 l 212.13203,212.13203 c 5.81484,0 11.05857,2.3402 14.85171,6.13335 z" />
              <path
                 inkscape:connector-curvature="0"
                 id="path3844"
                 d="m 362.3125,417.71875 -48.59375,0 212.13203,212.13203 48.59375,0 z" />
              <path
                 inkscape:connector-curvature="0"
                 id="path3846"
                 d="m 313.71875,417.71875 c -11.6453,0 -21.03125,9.38595 -21.03125,21.03125 l 212.13203,212.13203 c 0,-11.6453 9.38595,-21.03125 21.03125,-21.03125 z" />
              <path
                 inkscape:connector-curvature="0"
                 id="path3848"
                 d="m 292.6875,438.75 0,38.59375 212.13203,212.13203 0,-38.59375 z" />
              <path
                 inkscape:connector-curvature="0"
                 id="path3850"
                 d="m 292.6875,477.34375 90.625,0 212.13203,212.13203 -90.625,0 z" />
              <path
                 inkscape:connector-curvature="0"
                 id="path3852"
                 d="m 383.3125,477.34375 0,-18.53125 212.13203,212.13203 0,18.53125 z" />
              <path
                 inkscape:connector-curvature="0"
                 id="path3854"
                 d="m 383.3125,458.8125 c 0.15975,0.61722 0.34366,1.23129 0.5625,1.84375 l 212.13203,212.13203 c -0.21884,-0.61246 -0.40275,-1.22653 -0.5625,-1.84375 z" />
              <path
                 inkscape:connector-curvature="0"
                 id="path3856"
                 d="M 383.875,460.65625 469.59375,700.5 681.72578,912.63203 596.00703,672.78828 Z" />
              <path
                 inkscape:connector-curvature="0"
                 id="path3858"
                 d="m 469.59375,700.5 c 1.08919,3.04832 2.79967,5.68746 4.93742,7.82521 l 212.13204,212.13204 c -2.13775,-2.13775 -3.84824,-4.7769 -4.93743,-7.82522 z" />
              <path
                 inkscape:connector-curvature="0"
                 id="path3860"
                 d="m 474.53117,708.32521 c 5.55279,5.5528 13.98835,7.7227 21.90633,4.89354 l 212.13203,212.13203 c -7.91798,2.82916 -16.35353,0.65926 -21.90632,-4.89353 z" />
              <path
                 inkscape:connector-curvature="0"
                 id="path3862"
                 d="m 496.4375,713.21875 45.75,-16.34375 212.13203,212.13203 -45.75,16.34375 z" />
              <path
                 inkscape:connector-curvature="0"
                 id="path3864"
                 d="m 542.1875,696.875 c 10.9663,-3.91835 16.6371,-15.87745 12.71875,-26.84375 l 212.13203,212.13203 c 3.91835,10.9663 -1.75245,22.9254 -12.71875,26.84375 z" />
              <path
                 inkscape:connector-curvature="0"
                 id="path3866"
                 d="m 554.90625,670.03125 -85.6875,-239.875 212.13203,212.13203 85.6875,239.875 z" />
              <path
                 inkscape:connector-curvature="0"
                 id="path3868"
                 d="m 469.21875,430.15625 c -1.08808,-3.0452 -2.79864,-5.68325 -4.93679,-7.8214 L 676.414,634.46689 c 2.13815,2.13815 3.84871,4.77619 4.93678,7.82139 z" />
              <path
                 inkscape:connector-curvature="0"
                 id="path3870"
                 d="m 464.28196,422.33485 c -3.87736,-3.87736 -9.16084,-6.11082 -14.68821,-6.14735 l 212.13203,212.13203 c 5.52737,0.0365 10.81086,2.27 14.68822,6.14736 z" />
              <path
                 inkscape:connector-curvature="0"
                 id="path3872"
                 d="m 195.28125,430 0,213.28125 212.13203,212.13203 0,-213.28125 z" />
              <path
                 inkscape:connector-curvature="0"
                 id="path3874"
                 d="m 195.28125,643.28125 90.625,0 212.13203,212.13203 -90.625,0 z" />
              <path
                 inkscape:connector-curvature="0"
                 id="path3876"
                 d="m 285.90625,643.28125 0,-213.28125 212.13203,212.13203 0,213.28125 z" />
              <path
                 inkscape:connector-curvature="0"
                 id="path3878"
                 d="m 285.90625,430 -90.625,0 212.13203,212.13203 90.625,0 z" />
              <path
                 inkscape:connector-curvature="0"
                 id="path3880"
                 d="m 292.6875,486.0625 0,160.0625 212.13203,212.13203 0,-160.0625 z" />
              <path
                 inkscape:connector-curvature="0"
                 id="path3882"
                 d="m 292.6875,646.125 90.625,0 212.13203,212.13203 -90.625,0 z" />
              <path
                 inkscape:connector-curvature="0"
                 id="path3884"
                 d="m 383.3125,646.125 0,-160.0625 212.13203,212.13203 0,160.0625 z" />
              <path
                 inkscape:connector-curvature="0"
                 id="path3886"
                 d="m 383.3125,486.0625 -90.625,0 212.13203,212.13203 90.625,0 z" />
              <path
                 inkscape:connector-curvature="0"
                 id="path3888"
                 d="m 195.28125,652 0,41.4375 212.13203,212.13203 0,-41.4375 z" />
              <path
                 inkscape:connector-curvature="0"
                 id="path3890"
                 d="m 195.28125,693.4375 c 0,5.90466 2.41305,11.22846 6.31016,15.0424 l 212.13203,212.13203 c -3.8971,-3.81394 -6.31016,-9.13774 -6.31016,-15.0424 z" />
              <path
                 inkscape:connector-curvature="0"
                 id="path3892"
                 d="m 201.59141,708.4799 c 3.78885,3.708 8.98045,5.98885 14.72109,5.98885 l 212.13203,212.13203 c -5.74064,0 -10.93224,-2.28085 -14.72109,-5.98885 z" />
              <path
                 inkscape:connector-curvature="0"
                 id="path3894"
                 d="m 216.3125,714.46875 48.5625,0 212.13203,212.13203 -48.5625,0 z" />
              <path
                 inkscape:connector-curvature="0"
                 id="path3896"
                 d="m 264.875,714.46875 c 11.6453,0 21.03125,-9.38595 21.03125,-21.03125 l 212.13203,212.13203 c 0,11.6453 -9.38595,21.03125 -21.03125,21.03125 z" />
              <path
                 inkscape:connector-curvature="0"
                 id="path3898"
                 d="m 285.90625,693.4375 0,-41.4375 212.13203,212.13203 0,41.4375 z" />
              <path
                 inkscape:connector-curvature="0"
                 id="path3900"
                 d="m 285.90625,652 -90.625,0 212.13203,212.13203 90.625,0 z" />
              <path
                 inkscape:connector-curvature="0"
                 id="path3902"
                 d="m 292.6875,654.84375 0,38.59375 212.13203,212.13203 0,-38.59375 z" />
              <path
                 inkscape:connector-curvature="0"
                 id="path3904"
                 d="m 292.6875,693.4375 c 0,11.6453 9.38595,21.03125 21.03125,21.03125 l 212.13203,212.13203 c -11.6453,0 -21.03125,-9.38595 -21.03125,-21.03125 z" />
              <path
                 inkscape:connector-curvature="0"
                 id="path3906"
                 d="m 313.71875,714.46875 48.59375,0 212.13203,212.13203 -48.59375,0 z" />
              <path
                 inkscape:connector-curvature="0"
                 id="path3908"
                 d="m 362.3125,714.46875 c 11.6453,0 21,-9.38595 21,-21.03125 l 212.13203,212.13203 c 0,11.6453 -9.3547,21.03125 -21,21.03125 z" />
              <path
                 inkscape:connector-curvature="0"
                 id="path3910"
                 d="m 383.3125,693.4375 0,-38.59375 212.13203,212.13203 0,38.59375 z" />
              <path
                 inkscape:connector-curvature="0"
                 id="path3912"
                 d="m 383.3125,654.84375 -90.625,0 212.13203,212.13203 90.625,0 z" />
            </g>
            <path
               inkscape:connector-curvature="0"
               id="path3798"
               d="m 216.3125,358.8125 c -11.6453,0 -21.03125,9.38595 -21.03125,21.03125 l 0,41.4375 90.625,0 0,-41.4375 c 0,-11.6453 -9.38595,-21.03125 -21.03125,-21.03125 l -48.5625,0 z m 233.28125,57.375 c -2.40112,-0.0159 -4.85112,0.39286 -7.25,1.25 l -45.75,16.34375 c -6.82052,2.43703 -11.58966,8.00862 -13.28125,14.5 l 0,-9.53125 c 0,-11.6453 -9.3547,-21.03125 -21,-21.03125 l -48.59375,0 c -11.6453,0 -21.03125,9.38595 -21.03125,21.03125 l 0,38.59375 90.625,0 0,-18.53125 c 0.15975,0.61722 0.34366,1.23129 0.5625,1.84375 L 469.59375,700.5 c 3.91835,10.9663 15.87745,16.6371 26.84375,12.71875 l 45.75,-16.34375 c 10.9663,-3.91835 16.6371,-15.87745 12.71875,-26.84375 l -85.6875,-239.875 c -3.06121,-8.56742 -11.04959,-13.91208 -19.625,-13.96875 z M 195.28125,430 l 0,213.28125 90.625,0 0,-213.28125 -90.625,0 z m 97.40625,56.0625 0,160.0625 90.625,0 0,-160.0625 -90.625,0 z M 195.28125,652 l 0,41.4375 c 0,11.6453 9.38595,21.03125 21.03125,21.03125 l 48.5625,0 c 11.6453,0 21.03125,-9.38595 21.03125,-21.03125 l 0,-41.4375 -90.625,0 z m 97.40625,2.84375 0,38.59375 c 0,11.6453 9.38595,21.03125 21.03125,21.03125 l 48.59375,0 c 11.6453,0 21,-9.38595 21,-21.03125 l 0,-38.59375 -90.625,0 z"
               style="color:#000000;display:inline;overflow:visible;visibility:visible;fill:#000000;fill-opacity:1;fill-rule:evenodd;stroke:none;stroke-width:50.79999924;marker:none;enable-background:accumulate" />
          </g>
        </g>
        <path
           style="fill:#000000;fill-opacity:1;fill-rule:nonzero;stroke:none"
           id="path3976"
           d="m 535.46592,790.88478 c -4.46794,3.44506 -8.92461,6.86958 -13.15233,10.61012 -4.04888,3.58684 -7.63475,7.65082 -10.92645,11.93195 -2.74215,3.56646 -5.51904,7.10439 -8.29351,10.64553 -3.29151,4.18979 -7.18829,7.79367 -11.18644,11.28628 -4.32327,3.58955 -9.28609,6.31836 -14.19206,9.01934 -5.44704,2.98047 -10.89414,5.95133 -16.21134,9.16073 -4.4493,2.56013 -8.88497,5.13417 -13.22469,7.87767 -3.68018,2.38546 -7.30578,4.85002 -10.9718,7.25629 -2.43899,1.74132 -5.24691,2.80804 -8.07014,3.74471 -6.20079,1.48723 -19.48137,3.45078 -22.34089,0.37846 0.0851,-0.59047 0.0112,-1.22702 0.25527,-1.7714 0.80643,-1.79902 5.44609,-5.1901 6.7085,-6.19526 5.02759,-4.00312 6.35911,-4.8022 12.01839,-8.79662 13.39277,-9.63653 27.8823,-17.5551 42.21255,-25.66911 8.43001,-4.77321 15.10717,-8.65771 23.482,-13.499 20.67825,-11.78936 40.3818,-25.16341 59.90405,-38.75127 15.54577,-10.55793 31.9933,-19.6395 48.65941,-28.27609 9.057,-4.42691 17.47799,-9.87054 25.47937,-15.96444 4.9208,-3.95283 9.96011,-7.7433 15.11374,-11.38537 3.44871,-2.24437 6.47005,-5.1265 9.94666,-7.32111 5.17114,0.6177 10.46752,0.56425 15.51343,1.85308 0.66433,0.16969 -0.40982,1.31695 -0.73115,1.92265 -2.08608,3.93219 -5.65873,7.06796 -8.77813,10.14445 -3.91046,3.82182 -7.7712,7.72588 -12.69763,10.20274 -11.86927,3.93765 -18.17024,4.06206 -22.2761,-5.05921 -1.05902,-2.0233 -1.68942,-4.91873 -3.85304,-6.14897 -0.24243,-0.13785 -1.09682,-0.1791 -0.81795,-0.17593 4.95632,0.0562 9.91075,0.22354 14.86613,0.33531 -1.64404,1.74146 -1.27536,6.14799 -1.3318,8.4755 0.15771,3.33237 0.005,6.46801 -1.03988,9.6399 -4.2491,9.56799 -3.52819,5.58917 -19.20872,4.45059 -0.84068,-5.03147 -0.77467,-10.18482 -0.84329,-15.2754 -0.84347,-0.71333 0.53817,-2.74768 -0.29123,-3.6374 -0.16803,-0.18024 -0.83244,0.43288 -0.58661,0.44989 4.86884,0.33675 9.79248,-0.10844 14.63211,0.52157 0.58974,0.0768 -0.91431,0.76754 -1.30849,1.21286 -0.55249,0.62419 -1.01444,1.32302 -1.52166,1.98453 -4.17731,6.18167 -8.17086,12.47543 -12.58587,18.49687 -6.36646,9.29571 -13.72585,17.82675 -21.10826,26.31518 -10.29021,10.63781 -19.65633,22.11355 -29.75155,32.92915 -6.25786,6.88794 -13.11342,13.11045 -20.87269,18.24595 -5.23237,3.41782 -10.83919,6.10336 -16.8861,7.67818 -2.18569,0.58316 -4.40243,1.02383 -6.62169,1.45349 -0.7434,0.14393 -1.48176,0.56824 -2.22828,0.44152 -4.94653,-0.83969 -9.85935,-1.8671 -14.78903,-2.80065 0.51448,-0.59692 0.98401,-1.23576 1.54344,-1.79077 3.13377,-3.10903 6.87506,-5.6379 10.23685,-8.48197 3.83009,-3.24024 5.88927,-5.21067 9.62853,-8.65106 8.82846,-7.91539 16.11529,-17.31049 23.98814,-26.12921 5.13404,-5.4563 9.55647,-11.47062 13.94749,-17.52084 3.25142,-4.40757 6.31813,-8.94883 9.55845,-13.36347 1.88337,-2.38354 3.92269,-4.62437 5.55467,-7.19106 3.42168,-5.11053 0.13241,-2.90362 15.67917,0.34101 0.82167,0.17149 -1.5091,0.74445 -2.21228,1.20281 -1.41705,0.92368 -2.78466,1.92258 -4.13841,2.93678 -1.89239,1.41774 -3.7318,2.90488 -5.5977,4.35732 -9.84675,8.42758 -20.03488,16.48406 -29.46241,25.39013 -6.47896,6.12059 -6.78719,6.66707 -12.69091,13.06354 -8.86264,10.05394 -17.11537,20.62737 -25.59054,31.00909 -3.09895,4.5185 -6.97449,8.3667 -10.96119,12.08518 -2.92044,2.59661 -6.2102,4.7209 -9.22762,7.19337 -3.10711,2.56899 -6.07882,5.29346 -9.24669,7.78782 -2.57337,1.80731 -5.21318,3.55236 -7.95598,5.09415 -2.55684,0.94887 -5.09158,1.95114 -7.63867,2.93993 -2.51127,0.79259 -4.98833,1.69921 -7.41102,2.73135 -3.13933,1.27967 -6.40621,2.19141 -9.58353,3.36767 -3.39715,1.39669 -6.93717,2.3909 -10.43031,3.51074 -2.61784,1.0765 -5.29865,1.97165 -8.01959,2.74789 1.0476,-6.22985 0.66352,-1.04918 -14.22905,-1.94269 -0.62977,-0.0378 1.25925,-0.11635 1.87662,-0.24634 3.30204,-0.69527 6.3473,-2.15968 9.41423,-3.51006 8.57074,-3.9959 16.68508,-8.85587 24.75375,-13.76293 6.71941,-4.50618 13.77313,-8.48307 20.3942,-13.13373 4.90036,-3.59828 9.21645,-7.93578 13.3927,-12.33665 3.42693,-3.52917 6.40118,-7.43297 8.94068,-11.63778 3.04972,-4.7044 5.10629,-9.90307 7.19164,-15.07605 2.14767,-5.5792 3.69818,-11.35081 5.2947,-17.10292 1.57495,-5.55529 2.8189,-11.15764 3.50121,-16.89161 0.29996,-4.23266 0.77794,-8.52515 0.3489,-12.7629 -0.3457,-5.00614 -3.68851,-8.58643 -6.92837,-12.08402 -11.86715,-11.46405 -26.41517,-19.37161 -41.10623,-26.56752 -15.49917,-7.35148 -31.65456,-13.06196 -47.7189,-18.99797 -6.24844,-2.1125 -12.46701,-4.41555 -18.35212,-7.41215 -4.34223,-2.34735 -8.26759,-5.39072 -12.17141,-8.40179 -1.86961,-1.94733 -6.2004,-4.46876 -7.25938,-7.00256 -0.1585,-0.37924 -0.11642,-0.81377 -0.17464,-1.22065 0.65897,-2.11871 2.55085,-2.47964 4.60672,-2.48677 13.97939,-0.0485 16.09469,-0.29317 26.89198,1.64717 13.11743,2.9101 25.52329,8.24477 37.54312,14.13121 14.81218,7.46803 28.5524,16.82439 43.0282,24.88136 2.96473,1.65011 5.99361,3.18223 8.99041,4.77335 11.98831,5.97569 24.15499,11.71128 36.60957,16.66359 5.4418,2.36889 11.00146,4.41233 16.60704,6.34967 5.78831,1.74223 11.41214,3.98228 17.06745,6.11362 4.87284,1.46186 9.51726,3.56837 14.34327,5.1546 3.61465,0.91111 7.21372,1.83542 10.95811,1.85801 -23.93481,0.16442 -14.14744,0.42417 -8.79949,-0.90357 2.00568,-0.49795 3.91466,-1.1833 5.82898,-1.95155 3.72003,-1.81342 7.36181,-3.76849 10.78273,-6.10068 2.85962,-1.86367 5.60086,-3.91581 8.1142,-6.2275 2.0964,-2.30919 4.64281,-4.1308 7.12477,-5.99329 2.3665,-1.88621 5.09257,-3.00986 8.07228,-3.42445 2.6087,0.62915 15.04228,-2.24244 20.07188,1.77454 0.55871,0.44622 1.31457,1.39873 1.76693,1.93561 1.73045,2.39861 2.18291,5.27686 2.46324,8.14615 0.0863,2.89836 0.48397,5.864 -0.17329,8.7079 -0.61221,1.49616 -1.39451,1.89059 -2.87223,2.27937 0,0 -15.36438,-2.3144 -15.36438,-2.3144 l 0,0 c 1.07541,0.13779 1.91846,0.51331 2.71241,-0.38 0.85584,-2.56755 0.15184,-5.47104 0.18277,-8.13636 -0.26902,-2.56293 -0.67482,-5.13695 -2.44217,-7.14125 -4.83789,-4.68058 -17.4076,-2.16062 9.00838,-2.47676 -2.87941,-0.26943 -5.6496,0.83038 -8.00014,2.45043 -2.41083,1.87438 -5.05479,3.52326 -7.09581,5.80747 -2.42653,2.50295 -5.31221,4.56557 -8.22069,6.46893 -3.41922,2.46657 -7.08818,4.46105 -10.81757,6.41659 -8.9746,4.10592 -17.22972,4.07508 -27.58021,3.4028 -3.75596,-0.32892 -7.45599,-1.14603 -11.04773,-2.29302 -4.7204,-1.72832 -9.37058,-3.65018 -14.15144,-5.21557 -5.68799,-2.1177 -11.358,-4.29107 -17.16549,-6.06309 -5.55014,-1.92702 -11.00126,-4.1061 -16.38357,-6.4625 -12.15181,-5.14193 -24.06124,-10.89073 -35.79948,-16.90733 -17.61422,-9.52529 -34.42021,-20.46131 -52.26908,-29.56486 -12.1711,-5.76973 -24.72457,-11.01299 -37.99268,-13.65643 -1.57085,-0.25369 -3.13678,-0.54002 -4.71255,-0.76108 -1.35651,-0.1903 -5.44707,-0.3577 -4.08211,-0.47271 3.99031,-0.33619 8.00842,-0.10055 12.01174,-0.19539 0.75166,-0.0178 -1.50345,-0.0331 -2.25532,-0.0357 -1.94194,-0.007 -0.82526,0.0812 -1.96831,-0.0299 0.35869,2.14256 5.58743,5.53262 7.12895,7.04886 3.88071,2.95022 7.80929,5.91004 12.17967,8.10408 5.78979,2.80773 11.77786,5.18014 17.84589,7.31579 15.82125,6.04825 31.71185,11.9269 47.02276,19.22167 15.00361,7.39628 29.9089,15.46533 42.19452,27.00772 3.49267,3.77093 6.83453,7.71809 7.21678,13.07978 0.35736,4.35803 -0.15511,8.74444 -0.48702,13.09102 -0.73545,5.80319 -1.93346,11.49245 -3.54389,17.11884 -1.61643,5.80363 -3.16666,11.63096 -5.30653,17.27177 -2.0921,5.2319 -4.07605,10.54082 -7.12655,15.31418 -2.52279,4.33524 -5.47876,8.39085 -9.00229,11.97703 -4.23699,4.48145 -8.60816,8.90728 -13.54519,12.62067 -6.62017,4.77307 -13.79688,8.65896 -20.55641,13.2289 -8.08544,4.89352 -16.15755,9.82341 -24.67335,13.94994 -10.66454,5.03722 -13.24211,5.7936 -27.47731,3.9913 -0.58055,-0.0735 -0.11807,-1.16439 -0.1771,-1.74659 2.40967,-1.62082 5.83707,-1.23407 8.25453,-2.96741 3.47674,-1.08317 6.9648,-2.13018 10.37619,-3.40557 3.11354,-1.31917 6.39348,-2.11689 9.52776,-3.37536 2.48213,-0.90814 4.85659,-2.15209 7.44475,-2.77492 2.57032,-0.85945 4.9174,-2.22691 7.59327,-2.75349 2.83424,-1.2826 5.32608,-3.21373 8.00082,-4.79073 3.19218,-2.45757 6.18851,-5.13091 9.28453,-7.70883 2.88916,-2.60386 6.18579,-4.69049 9.20639,-7.1406 4.03762,-3.69221 8.13033,-7.37547 11.32451,-11.85805 8.76594,-10.31629 17.2513,-20.86111 26.16761,-31.04505 6.05216,-6.51367 6.24622,-6.9326 12.86738,-13.1723 9.38172,-8.84121 19.49111,-16.86669 29.04783,-25.51417 1.77199,-1.47852 3.54398,-2.95705 5.31596,-4.43558 1.26915,-1.00549 2.5558,-1.98927 3.80744,-3.01647 0.68409,-0.56142 1.11374,-1.71741 1.99817,-1.74809 7.29563,-0.2531 19.90453,-3.07417 15.31965,2.54279 -1.63496,2.65456 -3.59804,4.99584 -5.66961,7.32807 -3.42011,4.30692 -6.41287,8.94269 -9.75018,13.31481 -4.44063,6.10565 -8.86317,12.21468 -14.10916,17.67303 -8.06228,8.78032 -15.56289,18.10277 -24.30845,26.23153 -6.72609,6.34281 -13.76591,12.30615 -20.62525,18.48609 -5.37569,-0.11378 -10.75095,-0.24991 -16.12707,-0.34134 -0.28443,-0.005 0.56616,0.10684 0.8495,0.0815 2.75977,-0.24651 5.48857,-1.11108 8.1923,-1.66094 6.10544,-1.27229 11.75088,-3.78523 17.0132,-7.13506 7.86727,-4.96384 14.84453,-11.02499 21.16332,-17.86011 10.25802,-10.6873 19.74132,-22.0777 29.91418,-32.8447 7.18742,-8.49796 14.41697,-16.99383 20.65413,-26.23143 4.38788,-5.98869 8.41845,-12.20182 12.36112,-18.48692 0.45681,-0.69556 2.33561,-3.6762 2.66285,-3.71854 14.35819,-1.85796 17.21943,-5.26949 17.05527,4.11365 0.059,4.74025 -0.1741,9.70188 1.09983,14.29319 -5.0238,0.023 -10.05037,-0.0994 -15.0714,0.0689 -0.23358,0.008 0.34116,0.48979 0.56337,0.41738 0.97148,-0.31655 2.02105,-3.59919 2.64724,-4.42871 0.28734,-0.86961 0.6787,-1.71045 0.87055,-2.60598 0.46102,-2.15201 -0.002,-4.40698 0.20828,-6.57943 0.0923,-3.45199 0.0444,-7.02193 1.28131,-10.29549 16.40071,-0.17038 15.69637,-3.82053 20.73191,7.14805 0.69109,1.29859 0.87438,1.87727 1.87709,2.92177 0.28817,0.30018 0.6037,0.58976 0.97217,0.78309 0.31329,0.16439 1.38106,0.25341 1.02749,0.26612 -18.60773,0.66896 -18.13063,0.66821 -12.36891,0.0182 5.11989,-2.02639 9.00803,-5.85044 12.90714,-9.6393 3.02289,-2.93789 6.27548,-5.88087 8.46255,-9.53841 0.25145,-0.42051 0.11779,-1.29687 0.60592,-1.33915 5.15923,-0.44695 10.35703,-0.0395 15.53555,-0.0592 -1.58699,0.45767 -2.53514,1.43508 -3.85605,2.41119 -2.09784,1.55024 -4.25772,3.02188 -6.3392,4.59695 -5.18379,3.6235 -10.26043,7.3801 -15.20897,11.32148 -8.19575,6.18066 -16.76737,11.75234 -26.07097,16.16588 -16.82318,8.54583 -33.44854,17.49727 -49.13227,28.0334 -19.60366,13.65197 -39.41732,27.05055 -60.21551,38.83888 -7.24893,4.17705 -16.2629,9.38647 -23.52709,13.5102 -14.12008,8.01567 -28.40137,15.86338 -41.45192,25.58664 -5.14469,3.77559 -6.85885,4.88741 -11.43857,8.71848 -0.24445,0.20448 -6.07552,5.60311 -6.14399,5.62027 -0.2318,0.0581 -0.20166,-0.43331 -0.30249,-0.64997 4.94974,-1.40876 0.13006,-0.008 -14.17197,-0.006 -0.47005,5e-5 0.93913,-0.0448 1.40796,-0.0786 0.92597,-0.0669 1.86725,-0.16008 2.78403,-0.30983 0.45943,-0.075 0.91418,-0.17645 1.37127,-0.26468 2.80203,-0.74306 5.59299,-1.76483 8.07062,-3.27774 3.64127,-2.48227 7.42625,-4.75098 11.04999,-7.27024 4.30802,-2.86937 8.84155,-5.37484 13.35118,-7.9112 5.3052,-3.2396 10.72053,-6.27562 16.18638,-9.23245 4.84377,-2.63392 9.7398,-5.29334 14.08931,-8.70051 3.96934,-3.41342 7.90613,-6.86501 11.1824,-10.97888 2.71349,-3.5757 5.47576,-7.11351 8.24186,-10.64823 3.35947,-4.35253 6.98484,-8.51822 11.07658,-12.20383 4.15025,-3.76016 8.57305,-7.14454 12.86999,-10.72059 0,0 15.4978,1.39242 15.4978,1.39242 z"
           inkscape:connector-curvature="0" />
      </g>
    </g>
    <circle
       style="fill:url(#linearGradient4210);fill-opacity:1;fill-rule:evenodd;stroke:none"
       id="path4202"
       cx="257.52637"
       cy="797.93079"
       r="220.58664" />
    <path
       inkscape:connector-curvature="0"
       id="rect2985"
       d="m 147.15586,674.79477 c -8.06349,0 -14.56531,6.50181 -14.56531,14.5653 l 0,28.68456 62.75605,0 0,-28.68456 c 0,-8.06349 -6.50181,-14.5653 -14.5653,-14.5653 l -33.62544,0 z m -14.56531,49.28871 0,147.67744 62.75605,0 0,-147.67744 -62.75605,0 z m 0,153.71629 0,28.70171 c 0,8.06349 6.50182,14.56531 14.56531,14.56531 l 33.62544,0 c 8.06349,0 14.5653,-6.50182 14.5653,-14.56531 l 0,-28.70171 -62.75605,0 z"
       style="color:#000000;display:inline;overflow:visible;visibility:visible;fill:#ffffff;fill-opacity:1;fill-rule:evenodd;stroke:none;stroke-width:50.79999924;marker:none;enable-background:accumulate" />
    <path
       inkscape:connector-curvature="0"
       id="rect2987"
       d="m 214.59545,715.57419 c -8.06349,0 -14.54815,6.50181 -14.54815,14.5653 l 0,26.7288 62.73889,0 0,-26.7288 c 0,-8.06349 -6.48466,-14.5653 -14.54815,-14.5653 l -33.64259,0 z m -14.54815,47.33295 0,110.8267 62.73889,0 0,-110.8267 -62.73889,0 z m 0,116.86556 0,26.72878 c 0,8.06349 6.48466,14.56531 14.54815,14.56531 l 33.64259,0 c 8.06349,0 14.54815,-6.50182 14.54815,-14.56531 l 0,-26.72878 -62.73889,0 z"
       style="color:#000000;display:inline;overflow:visible;visibility:visible;fill:#ffffff;fill-opacity:1;fill-rule:evenodd;stroke:none;stroke-width:50.79999924;marker:none;enable-background:accumulate" />
    <rect
       transform="matrix(0.94169261,-0.33647441,0.33647441,0.94169261,0,0)"
       ry="14.55504"
       y="775.84766"
       x="-2.9446225"
       height="205.47791"
       width="62.741344"
       id="rect2989"
       style="color:#000000;display:inline;overflow:visible;visibility:visible;fill:#ffffff;fill-opacity:1;fill-rule:evenodd;stroke:none;stroke-width:50.79999924;marker:none;enable-background:accumulate" />
  </g>
</svg>
