<?xml version="1.0" encoding="UTF-8" standalone="no"?>
<svg
   xmlns:dc="http://purl.org/dc/elements/1.1/"
   xmlns:cc="http://creativecommons.org/ns#"
   xmlns:rdf="http://www.w3.org/1999/02/22-rdf-syntax-ns#"
   xmlns:svg="http://www.w3.org/2000/svg"
   xmlns="http://www.w3.org/2000/svg"
   xmlns:sodipodi="http://sodipodi.sourceforge.net/DTD/sodipodi-0.dtd"
   xmlns:inkscape="http://www.inkscape.org/namespaces/inkscape"
   viewBox="0 0 48 48"
   id="svg2"
   version="1.1"
   inkscape:version="0.48.4 r9939"
   width="100%"
   height="100%"
   sodipodi:docname="catfish.svg">
  <metadata
     id="metadata71">
    <rdf:RDF>
      <cc:Work
         rdf:about="">
        <dc:format>image/svg+xml</dc:format>
        <dc:type
           rdf:resource="http://purl.org/dc/dcmitype/StillImage" />
      </cc:Work>
    </rdf:RDF>
  </metadata>
  <sodipodi:namedview
     pagecolor="#ffffff"
     bordercolor="#666666"
     borderopacity="1"
     objecttolerance="10"
     gridtolerance="10"
     guidetolerance="10"
     inkscape:pageopacity="0"
     inkscape:pageshadow="2"
     inkscape:window-width="640"
     inkscape:window-height="480"
     id="namedview69"
     showgrid="false"
     inkscape:zoom="4.9166667"
     inkscape:cx="24"
     inkscape:cy="45.152542"
     inkscape:window-x="149"
     inkscape:window-y="68"
     inkscape:window-maximized="0"
     inkscape:current-layer="svg2" />
  <defs
     id="defs4">
    <linearGradient
       id="linearGradient3764"
       x1="1"
       x2="47"
       gradientUnits="userSpaceOnUse"
       gradientTransform="matrix(0,-1,1,0,-1.5e-6,47.999998)">
      <stop
         style="stop-color:#e5e5e5;stop-opacity:1"
         id="stop7" />
      <stop
         offset="1"
         style="stop-color:#efefef;stop-opacity:1"
         id="stop9" />
    </linearGradient>
    <clipPath
       id="clipPath-869224407">
      <g
         transform="translate(0,-1004.3622)"
         id="g12">
        <path
           d="m -24 13 c 0 1.105 -0.672 2 -1.5 2 -0.828 0 -1.5 -0.895 -1.5 -2 0 -1.105 0.672 -2 1.5 -2 0.828 0 1.5 0.895 1.5 2 z"
           transform="matrix(15.333333,0,0,11.5,414.99999,878.8622)"
           style="fill:#1890d0"
           id="path14" />
      </g>
    </clipPath>
    <clipPath
       id="clipPath-878396824">
      <g
         transform="translate(0,-1004.3622)"
         id="g17">
        <path
           d="m -24 13 c 0 1.105 -0.672 2 -1.5 2 -0.828 0 -1.5 -0.895 -1.5 -2 0 -1.105 0.672 -2 1.5 -2 0.828 0 1.5 0.895 1.5 2 z"
           transform="matrix(15.333333,0,0,11.5,414.99999,878.8622)"
           style="fill:#1890d0"
           id="path19" />
      </g>
    </clipPath>
  </defs>
  <g
     id="g21">
    <path
       d="m 36.31 5 c 5.859 4.062 9.688 10.831 9.688 18.5 c 0 12.426 -10.07 22.5 -22.5 22.5 c -7.669 0 -14.438 -3.828 -18.5 -9.688 c 1.037 1.822 2.306 3.499 3.781 4.969 c 4.085 3.712 9.514 5.969 15.469 5.969 c 12.703 0 23 -10.298 23 -23 c 0 -5.954 -2.256 -11.384 -5.969 -15.469 c -1.469 -1.475 -3.147 -2.744 -4.969 -3.781 z m 4.969 3.781 c 3.854 4.113 6.219 9.637 6.219 15.719 c 0 12.703 -10.297 23 -23 23 c -6.081 0 -11.606 -2.364 -15.719 -6.219 c 4.16 4.144 9.883 6.719 16.219 6.719 c 12.703 0 23 -10.298 23 -23 c 0 -6.335 -2.575 -12.06 -6.719 -16.219 z"
       style="opacity:0.05"
       id="path23" />
    <path
       d="m 41.28 8.781 c 3.712 4.085 5.969 9.514 5.969 15.469 c 0 12.703 -10.297 23 -23 23 c -5.954 0 -11.384 -2.256 -15.469 -5.969 c 4.113 3.854 9.637 6.219 15.719 6.219 c 12.703 0 23 -10.298 23 -23 c 0 -6.081 -2.364 -11.606 -6.219 -15.719 z"
       style="opacity:0.1"
       id="path25" />
    <path
       d="m 31.25 2.375 c 8.615 3.154 14.75 11.417 14.75 21.13 c 0 12.426 -10.07 22.5 -22.5 22.5 c -9.708 0 -17.971 -6.135 -21.12 -14.75 a 23 23 0 0 0 44.875 -7 a 23 23 0 0 0 -16 -21.875 z"
       style="opacity:0.2"
       id="path27" />
  </g>
  <g
     id="g29">
    <path
       d="m 24 1 c 12.703 0 23 10.297 23 23 c 0 12.703 -10.297 23 -23 23 -12.703 0 -23 -10.297 -23 -23 0 -12.703 10.297 -23 23 -23 z"
       style="fill:#c8d3b0;fill-opacity:1"
       id="path31" />
  </g>
  <g
     id="g33">
    <g
       style="clip-path:url(#clipPath-869224407)"
       id="g35"
       clip-path="url(#clipPath-869224407)">
      <g
         transform="translate(1,1)"
         id="g37">
        <g
           style="opacity:0.1"
           id="g39">
          <!-- color: #efefef -->
          <g
             id="g41">
            <path
               d="m 24 9 c -0.551 0 -1 0.449 -1 1 l 0 3.182 c -5.01 0.849 -8.969 4.812 -9.818 9.818 l -3.182 0 c -0.551 0 -1 0.449 -1 1 l 0 2 c 0 0.551 0.449 1 1 1 l 3.182 0 c 0.849 5.01 4.812 8.969 9.818 9.818 l 0 3.182 c 0 0.551 0.449 1 1 1 l 2 0 c 0.551 0 1 -0.449 1 -1 l 0 -3.182 c 5.01 -0.849 8.969 -4.812 9.818 -9.818 l 3.182 0 c 0.551 0 1 -0.449 1 -1 l 0 -2 c 0 -0.551 -0.449 -1 -1 -1 l -3.182 0 c -0.849 -5.01 -4.812 -8.969 -9.818 -9.818 l 0 -3.182 c 0 -0.551 -0.449 -1 -1 -1 l -2 0 z m 1 6 c 5.523 0 10 4.477 10 10 c 0 5.523 -4.477 10 -10 10 c -5.523 0 -10 -4.477 -10 -10 c 0 -5.523 4.477 -10 10 -10 z m 0 2 c -4.418 0 -8 3.582 -8 8 c 0 4.418 3.582 8 8 8 c 4.418 0 8 -3.582 8 -8 c 0 -4.418 -3.582 -8 -8 -8 z m 0 2 c 3.313 0 6 2.688 6 6 c 0 3.313 -2.688 6 -6 6 c -3.313 0 -6 -2.688 -6 -6 c 0 -3.313 2.688 -6 6 -6 z m 0 2 c -2.207 0 -4 1.789 -4 4 c 0 2.211 1.793 4 4 4 c 2.211 0 4 -1.789 4 -4 c 0 -2.211 -1.789 -4 -4 -4 z"
               transform="translate(-1,-1)"
               id="path43" />
          </g>
        </g>
      </g>
    </g>
  </g>
  <g
     id="g45">
    <g
       style="clip-path:url(#clipPath-878396824)"
       id="g47"
       clip-path="url(#clipPath-878396824)">
      <!-- color: #efefef -->
      <g
         id="g49">
        <path
           d="m 24 12 c -6.605 0 -12 5.395 -12 12 c 0 6.605 5.395 12 12 12 c 6.605 0 12 -5.395 12 -12 c 0 -6.605 -5.395 -12 -12 -12 m 0 2 c 5.523 0 10 4.477 10 10 c 0 5.523 -4.477 10 -10 10 c -5.523 0 -10 -4.477 -10 -10 c 0 -5.523 4.477 -10 10 -10 m 0 0"
           style="fill:#535353;fill-opacity:1;stroke:none;fill-rule:nonzero"
           id="path51" />
        <path
           d="m 24 16 c -4.418 0 -8 3.582 -8 8 c 0 4.418 3.582 8 8 8 c 4.418 0 8 -3.582 8 -8 c 0 -4.418 -3.582 -8 -8 -8 m 0 2 c 3.313 0 6 2.688 6 6 c 0 3.313 -2.688 6 -6 6 c -3.313 0 -6 -2.688 -6 -6 c 0 -3.313 2.688 -6 6 -6 m 0 0"
           style="fill:#9e9e9e;fill-opacity:1;stroke:none;fill-rule:nonzero"
           id="path53" />
        <path
           d="m 9 22 l 4 0 c 0.551 0 1 0.449 1 1 l 0 2 c 0 0.551 -0.449 1 -1 1 l -4 0 c -0.551 0 -1 -0.449 -1 -1 l 0 -2 c 0 -0.551 0.449 -1 1 -1 m 0 0"
           style="fill:#535353;fill-opacity:1;stroke:none;fill-rule:nonzero"
           id="path55" />
        <path
           d="m 23 8 l 2 0 c 0.551 0 1 0.449 1 1 l 0 4 c 0 0.551 -0.449 1 -1 1 l -2 0 c -0.551 0 -1 -0.449 -1 -1 l 0 -4 c 0 -0.551 0.449 -1 1 -1 m 0 0"
           style="fill:#535353;fill-opacity:1;stroke:none;fill-rule:nonzero"
           id="path57" />
        <path
           d="m 35 22 l 4 0 c 0.551 0 1 0.449 1 1 l 0 2 c 0 0.551 -0.449 1 -1 1 l -4 0 c -0.551 0 -1 -0.449 -1 -1 l 0 -2 c 0 -0.551 0.449 -1 1 -1 m 0 0"
           style="fill:#535353;fill-opacity:1;stroke:none;fill-rule:nonzero"
           id="path59" />
        <path
           d="m 23 34 l 2 0 c 0.551 0 1 0.449 1 1 l 0 4 c 0 0.551 -0.449 1 -1 1 l -2 0 c -0.551 0 -1 -0.449 -1 -1 l 0 -4 c 0 -0.551 0.449 -1 1 -1 m 0 0"
           style="fill:#535353;fill-opacity:1;stroke:none;fill-rule:nonzero"
           id="path61" />
        <path
           d="m 28 24 c 0 2.211 -1.789 4 -4 4 c -2.207 0 -4 -1.789 -4 -4 c 0 -2.211 1.793 -4 4 -4 c 2.211 0 4 1.789 4 4 m 0 0"
           style="fill:#535353;fill-opacity:1;stroke:none;fill-rule:nonzero"
           id="path63" />
      </g>
    </g>
  </g>
  <g
     id="g65">
    <path
       d="m 40.03 7.531 c 3.712 4.084 5.969 9.514 5.969 15.469 0 12.703 -10.297 23 -23 23 c -5.954 0 -11.384 -2.256 -15.469 -5.969 4.178 4.291 10.01 6.969 16.469 6.969 c 12.703 0 23 -10.298 23 -23 0 -6.462 -2.677 -12.291 -6.969 -16.469 z"
       style="opacity:0.1"
       id="path67" />
  </g>
</svg>
