<?xml version="1.0" encoding="UTF-8" standalone="no"?>
<!-- Created with Inkscape (http://www.inkscape.org/) -->

<svg
   xmlns:dc="http://purl.org/dc/elements/1.1/"
   xmlns:cc="http://creativecommons.org/ns#"
   xmlns:rdf="http://www.w3.org/1999/02/22-rdf-syntax-ns#"
   xmlns:svg="http://www.w3.org/2000/svg"
   xmlns="http://www.w3.org/2000/svg"
   xmlns:sodipodi="http://sodipodi.sourceforge.net/DTD/sodipodi-0.dtd"
   xmlns:inkscape="http://www.inkscape.org/namespaces/inkscape"
   id="svg2"
   version="1.1"
   inkscape:version="0.91 r13725"
   width="512"
   height="512"
   sodipodi:docname="chromium.svg"
   viewBox="0 0 512 512"
   inkscape:export-filename="/home/silerio/Imágenes/chrome12.png"
   inkscape:export-xdpi="90"
   inkscape:export-ydpi="90">
  <metadata
     id="metadata8">
    <rdf:RDF>
      <cc:Work
         rdf:about="">
        <dc:format>image/svg+xml</dc:format>
        <dc:type
           rdf:resource="http://purl.org/dc/dcmitype/StillImage" />
        <dc:title />
      </cc:Work>
    </rdf:RDF>
  </metadata>
  <defs
     id="defs6">
    <clipPath
       id="clipPath3947"
       clipPathUnits="userSpaceOnUse">
      <ellipse
         ry="212.23589"
         rx="203.24309"
         cy="256.47083"
         cx="256.52075"
         id="ellipse3949"
         style="opacity:1;fill:#ffc82d;fill-opacity:1;stroke:none;stroke-width:0;stroke-linecap:butt;stroke-linejoin:miter;stroke-miterlimit:4;stroke-dasharray:none;stroke-dashoffset:0;stroke-opacity:1" />
    </clipPath>
    <clipPath
       id="clipPath4806"
       clipPathUnits="userSpaceOnUse">
      <circle
         r="211.62711"
         cy="248.91539"
         cx="249.4608"
         id="circle4808"
         style="opacity:1;fill:#f6c439;fill-opacity:1;stroke:none;stroke-width:0;stroke-linecap:butt;stroke-linejoin:miter;stroke-miterlimit:4;stroke-dasharray:none;stroke-dashoffset:0;stroke-opacity:1" />
    </clipPath>
    <clipPath
       id="clipPath4837"
       clipPathUnits="userSpaceOnUse">
      <circle
         r="207.13615"
         cy="256"
         cx="256"
         id="circle4839"
         style="opacity:1;fill:#0fa15f;fill-opacity:1;stroke:none;stroke-width:0;stroke-linecap:butt;stroke-linejoin:miter;stroke-miterlimit:4;stroke-dasharray:none;stroke-dashoffset:0;stroke-opacity:1" />
    </clipPath>
    <clipPath
       id="clipPath5050"
       clipPathUnits="userSpaceOnUse">
      <path
         inkscape:connector-curvature="0"
         id="path5052"
         d="M 255.99999,45.26758 A 210.73167,210.73167 0 0 0 45.267565,256 210.73167,210.73167 0 0 0 255.99999,466.73242 210.73167,210.73167 0 0 0 466.73244,256 210.73167,210.73167 0 0 0 255.99999,45.26758 Z m 0,111.84375 A 98.888542,98.888542 0 0 1 354.88866,256 98.888542,98.888542 0 0 1 255.99999,354.88867 98.888542,98.888542 0 0 1 157.11132,256 98.888542,98.888542 0 0 1 255.99999,157.11133 Z"
         style="opacity:1;fill:#f9f9f9;fill-opacity:1;stroke:none;stroke-width:0;stroke-linecap:butt;stroke-linejoin:miter;stroke-miterlimit:4;stroke-dasharray:none;stroke-dashoffset:0;stroke-opacity:1" />
    </clipPath>
    <clipPath
       id="clipPath5127"
       clipPathUnits="userSpaceOnUse">
      <path
         inkscape:connector-curvature="0"
         id="path5129"
         d="M 255.99999,45.26758 A 210.73167,210.73167 0 0 0 45.26756,256 210.73167,210.73167 0 0 0 255.99999,466.73242 210.73167,210.73167 0 0 0 466.73244,256 210.73167,210.73167 0 0 0 255.99999,45.26758 Z m 0,111.84375 A 98.888542,98.888542 0 0 1 354.88864,256 98.888542,98.888542 0 0 1 255.99999,354.88867 98.888542,98.888542 0 0 1 157.11132,256 98.888542,98.888542 0 0 1 255.99999,157.11133 Z"
         style="opacity:1;fill:#f9f9f9;fill-opacity:1;stroke:none;stroke-width:0;stroke-linecap:butt;stroke-linejoin:miter;stroke-miterlimit:4;stroke-dasharray:none;stroke-dashoffset:0;stroke-opacity:1" />
    </clipPath>
    <clipPath
       clipPathUnits="userSpaceOnUse"
       id="clipPath3898">
      <path
         id="path3900"
         d="m 55.90625,146.625 c -0.555933,0.96227 -1.114024,1.93481 -1.65625,2.90625 0.540984,-0.96928 1.10151,-1.94581 1.65625,-2.90625 z M 396.5,150.21875 c -56.55187,0 -108.27154,20.73776 -147.96875,55 66.86748,43.61442 108.61716,121.31077 102.34375,206.5625 -1.47296,20.01658 -5.50471,39.25363 -11.75,57.375 14.32657,-5.96432 27.91857,-13.39232 40.625,-22.0625 1.02458,-0.69989 2.04619,-1.40613 3.0625,-2.125 27.24965,-19.25151 50.15857,-44.38032 66.75,-73.75 0.6351,-1.12664 1.26035,-2.27059 1.875,-3.40625 0.75104,-1.38473 1.49572,-2.78494 2.21875,-4.1875 0.46981,-0.9135 0.91822,-1.83116 1.375,-2.75 2.32135,-4.65763 4.49475,-9.4093 6.5,-14.25 0.37449,-0.90613 0.73135,-1.80852 1.09375,-2.71875 7.89969,-19.79999 13.11659,-41.04611 15.15625,-63.3125 0.12138,-1.32236 0.24549,-2.64439 0.34375,-3.96875 0.004,-0.0518 -0.004,-0.10442 0,-0.15625 0.45621,-6.19965 0.6366,-12.35925 0.59375,-18.46875 -0.01,-1.29335 -0.0304,-2.58152 -0.0625,-3.875 -0.82814,-34.44372 -9.44198,-67.1926 -24.25,-96.4375 -18.48497,-4.87247 -37.89075,-7.46875 -57.90625,-7.46875 z m -365.75,61.6875 c -0.246006,1.1397 -0.49035,2.2945 -0.71875,3.4375 0.228672,-1.14963 0.472754,-2.29421 0.71875,-3.4375 z m -1.4375,7.21875 c -0.178427,0.9786 -0.334436,1.95682 -0.5,2.9375 0.164559,-0.98169 0.32286,-1.96014 0.5,-2.9375 z"
         style="fill:#f8d544;fill-opacity:1;fill-rule:evenodd;stroke:none"
         inkscape:connector-curvature="0" />
    </clipPath>
    <clipPath
       clipPathUnits="userSpaceOnUse"
       id="clipPath3915">
      <path
         id="path3917"
         d="m 55.90625,146.625 c -0.555933,0.96227 -1.114024,1.93481 -1.65625,2.90625 0.540984,-0.96928 1.10151,-1.94581 1.65625,-2.90625 z M 396.5,150.21875 c -56.55187,0 -108.27154,20.73776 -147.96875,55 66.86748,43.61442 108.61716,121.31077 102.34375,206.5625 -1.47296,20.01658 -5.50471,39.25363 -11.75,57.375 14.32657,-5.96432 27.91857,-13.39232 40.625,-22.0625 1.02458,-0.69989 2.04619,-1.40613 3.0625,-2.125 27.24965,-19.25151 50.15857,-44.38032 66.75,-73.75 0.6351,-1.12664 1.26035,-2.27059 1.875,-3.40625 0.75104,-1.38473 1.49572,-2.78494 2.21875,-4.1875 0.46981,-0.9135 0.91822,-1.83116 1.375,-2.75 2.32135,-4.65763 4.49475,-9.4093 6.5,-14.25 0.37449,-0.90613 0.73135,-1.80852 1.09375,-2.71875 7.89969,-19.79999 13.11659,-41.04611 15.15625,-63.3125 0.12138,-1.32236 0.24549,-2.64439 0.34375,-3.96875 0.004,-0.0518 -0.004,-0.10442 0,-0.15625 0.45621,-6.19965 0.6366,-12.35925 0.59375,-18.46875 -0.01,-1.29335 -0.0304,-2.58152 -0.0625,-3.875 -0.82814,-34.44372 -9.44198,-67.1926 -24.25,-96.4375 -18.48497,-4.87247 -37.89075,-7.46875 -57.90625,-7.46875 z m -365.75,61.6875 c -0.246006,1.1397 -0.49035,2.2945 -0.71875,3.4375 0.228672,-1.14963 0.472754,-2.29421 0.71875,-3.4375 z m -1.4375,7.21875 c -0.178427,0.9786 -0.334436,1.95682 -0.5,2.9375 0.164559,-0.98169 0.32286,-1.96014 0.5,-2.9375 z"
         style="fill:#f8d544;fill-opacity:1;fill-rule:evenodd;stroke:none"
         inkscape:connector-curvature="0" />
    </clipPath>
    <clipPath
       clipPathUnits="userSpaceOnUse"
       id="clipPath3924">
      <path
         id="path3926"
         d="m 45.1875,167.625 c -33.629633,75.62504 -24.433208,166.99318 31.46875,235.5 64.8405,79.46081 172.39314,103.49563 262.46875,66.03125 6.24529,-18.12137 10.27704,-37.35842 11.75,-57.375 3.26386,-44.35382 -6.49375,-86.65669 -26,-123.1875 C 237.79159,318.32207 137.64904,292.84817 76.0625,217.375 63.373255,201.82456 53.107889,185.07938 45.1875,167.625 z m 433.46875,86.5 c 0.031,1.29038 0.0534,2.58002 0.0625,3.875 -0.01,-1.29335 -0.0304,-2.58152 -0.0625,-3.875 z m -0.53125,22.5 c -0.0985,1.32574 -0.22296,2.65012 -0.34375,3.96875 0.12138,-1.32236 0.24549,-2.64439 0.34375,-3.96875 z m -15.5,67.28125 c -0.36422,0.91289 -0.71814,1.81203 -1.09375,2.71875 0.37449,-0.90613 0.73135,-1.80852 1.09375,-2.71875 z m -7.59375,16.96875 c -0.45598,0.91489 -0.90716,1.84246 -1.375,2.75 0.46981,-0.9135 0.91822,-1.83116 1.375,-2.75 z m -3.59375,6.9375 c -0.61851,1.14036 -1.23775,2.2782 -1.875,3.40625 0.6351,-1.12664 1.26035,-2.27059 1.875,-3.40625 z m -3.8125,6.75 c -1.31156,2.23109 -2.67818,4.4451 -4.0625,6.625 1.39037,-2.19282 2.75345,-4.39333 4.0625,-6.625 z m -4.0625,6.625 c -0.69216,1.08995 -1.38374,2.17313 -2.09375,3.25 0.70979,-1.07796 1.40394,-2.16206 2.09375,-3.25 z m -4.25,6.46875 c -3.6382,5.31793 -7.50034,10.46606 -11.5625,15.4375 4.0935,-5.0076 7.95449,-10.15863 11.5625,-15.4375 z m -11.5625,15.4375 c -0.81243,0.99429 -1.64003,1.9889 -2.46875,2.96875 0.8345,-0.98582 1.65343,-1.97137 2.46875,-2.96875 z m -2.46875,2.96875 c -2.48616,2.93955 -5.02754,5.78764 -7.65625,8.59375 2.63807,-2.81243 5.18579,-5.67531 7.65625,-8.59375 z m -7.65625,8.59375 c -0.87624,0.93537 -1.76462,1.89234 -2.65625,2.8125 0.89872,-0.92597 1.77613,-1.87421 2.65625,-2.8125 z m -2.65625,2.8125 c -0.89163,0.92016 -1.7807,1.814 -2.6875,2.71875 0.9037,-0.90031 1.80184,-1.80624 2.6875,-2.71875 z M 403.78125,428.25 c -0.90779,0.81718 -1.82923,1.6038 -2.75,2.40625 0.91932,-0.8004 1.84662,-1.59412 2.75,-2.40625 z m -2.75,2.40625 c -0.96523,0.84119 -1.92697,1.67518 -2.90625,2.5 0.97937,-0.82445 1.9443,-1.66248 2.90625,-2.5 z m -18.21875,14.3125 c -1.00914,0.71295 -2.04155,1.42836 -3.0625,2.125 1.02458,-0.69989 2.04619,-1.40613 3.0625,-2.125 z m -12.90625,8.5 c -2.06861,1.26035 -4.13972,2.49268 -6.25,3.6875 2.10283,-1.19151 4.17541,-2.42223 6.25,-3.6875 z m -6.5625,3.875 c -1.08671,0.61298 -2.18384,1.1859 -3.28125,1.78125 1.09181,-0.59272 2.19657,-1.16897 3.28125,-1.78125 z m -3.28125,1.78125 c -1.1304,0.61325 -2.26471,1.21814 -3.40625,1.8125 1.13498,-0.59132 2.27862,-1.20033 3.40625,-1.8125 z m -6.875,3.59375 c -1.15246,0.57528 -2.3056,1.13149 -3.46875,1.6875 1.15981,-0.55435 2.31589,-1.11197 3.46875,-1.6875 z m -3.46875,1.6875 c -1.16315,0.55601 -2.32638,1.08846 -3.5,1.625 1.1708,-0.53508 2.33593,-1.06861 3.5,-1.625 z"
         style="fill:#53b7af;fill-opacity:1;fill-rule:evenodd;stroke:none"
         inkscape:connector-curvature="0" />
    </clipPath>
    <clipPath
       clipPathUnits="userSpaceOnUse"
       id="clipPath3933">
      <path
         id="path3935"
         d="m 252.21875,33.21875 c -92.31738,0 -171.726889,55.205633 -207.03125,134.40625 7.920389,17.45438 18.185755,34.19956 30.875,49.75 29.79273,36.51045 68.59862,61.29251 110.59375,73.8125 C 220.4331,208.49848 301.65937,150.21875 396.5,150.21875 c 20.0707,0 39.53166,2.60145 58.0625,7.5 -37.33141,-73.867881 -113.9231,-124.5 -202.34375,-124.5 z M 38.09375,185.625 c -0.420007,1.21295 -0.81887,2.43404 -1.21875,3.65625 0.399463,-1.22246 0.798213,-2.43986 1.21875,-3.65625 z m -1.21875,3.65625 c -0.40202,1.22875 -0.806023,2.4496 -1.1875,3.6875 0.37836,-1.22823 0.788037,-2.46504 1.1875,-3.6875 z m -2.28125,7.375 c -0.354411,1.22416 -0.697028,2.4549 -1.03125,3.6875 0.336064,-1.2389 0.674023,-2.45379 1.03125,-3.6875 z m -1.03125,3.6875 c -0.337962,1.2464 -0.682877,2.49517 -1,3.75 0.314872,-1.24379 0.663936,-2.5111 1,-3.75 z m -2.8125,11.5625 c -0.245996,1.14329 -0.490078,2.28787 -0.71875,3.4375 0.2284,-1.143 0.472744,-2.2978 0.71875,-3.4375 z m -1.4375,7.21875 c -0.17714,0.97736 -0.335441,1.95581 -0.5,2.9375 0.165564,-0.98068 0.321573,-1.9589 0.5,-2.9375 z m 449.34375,35 c 0.0321,1.29348 0.0525,2.58165 0.0625,3.875 -0.009,-1.29498 -0.0315,-2.58462 -0.0625,-3.875 z m -0.53125,22.5 c -0.0983,1.32436 -0.22237,2.64639 -0.34375,3.96875 0.12079,-1.31863 0.2453,-2.64301 0.34375,-3.96875 z m -15.5,67.28125 c -0.3624,0.91023 -0.71926,1.81262 -1.09375,2.71875 0.37561,-0.90672 0.72953,-1.80586 1.09375,-2.71875 z m -7.59375,16.96875 c -0.45678,0.91884 -0.90519,1.8365 -1.375,2.75 0.46784,-0.90754 0.91902,-1.83511 1.375,-2.75 z m -3.59375,6.9375 c -0.61465,1.13566 -1.2399,2.27961 -1.875,3.40625 0.63725,-1.12805 1.25649,-2.26589 1.875,-3.40625 z m -68.625,77.15625 c -1.01631,0.71887 -2.03792,1.42511 -3.0625,2.125 1.02095,-0.69664 2.05336,-1.41205 3.0625,-2.125 z"
         style="fill:#f15852;fill-opacity:1;fill-rule:evenodd;stroke:none"
         inkscape:connector-curvature="0" />
    </clipPath>
    <clipPath
       clipPathUnits="userSpaceOnUse"
       id="clipPath4054">
      <path
         id="path4056"
         d="m 55.90625,146.625 c -0.555933,0.96227 -1.114024,1.93481 -1.65625,2.90625 0.540984,-0.96928 1.10151,-1.94581 1.65625,-2.90625 z M 396.5,150.21875 c -56.55187,0 -108.27154,20.73776 -147.96875,55 66.86748,43.61442 108.61716,121.31077 102.34375,206.5625 -1.47296,20.01658 -5.50471,39.25363 -11.75,57.375 14.32657,-5.96432 27.91857,-13.39232 40.625,-22.0625 1.02458,-0.69989 2.04619,-1.40613 3.0625,-2.125 27.24965,-19.25151 50.15857,-44.38032 66.75,-73.75 0.6351,-1.12664 1.26035,-2.27059 1.875,-3.40625 0.75104,-1.38473 1.49572,-2.78494 2.21875,-4.1875 0.46981,-0.9135 0.91822,-1.83116 1.375,-2.75 2.32135,-4.65763 4.49475,-9.4093 6.5,-14.25 0.37449,-0.90613 0.73135,-1.80852 1.09375,-2.71875 7.89969,-19.79999 13.11659,-41.04611 15.15625,-63.3125 0.12138,-1.32236 0.24549,-2.64439 0.34375,-3.96875 0.004,-0.0518 -0.004,-0.10442 0,-0.15625 0.45621,-6.19965 0.6366,-12.35925 0.59375,-18.46875 -0.01,-1.29335 -0.0304,-2.58152 -0.0625,-3.875 -0.82814,-34.44372 -9.44198,-67.1926 -24.25,-96.4375 -18.48497,-4.87247 -37.89075,-7.46875 -57.90625,-7.46875 z m -365.75,61.6875 c -0.246006,1.1397 -0.49035,2.2945 -0.71875,3.4375 0.228672,-1.14963 0.472754,-2.29421 0.71875,-3.4375 z m -1.4375,7.21875 c -0.178427,0.9786 -0.334436,1.95682 -0.5,2.9375 0.164559,-0.98169 0.32286,-1.96014 0.5,-2.9375 z"
         style="fill:#f8d544;fill-opacity:1;fill-rule:evenodd;stroke:none"
         inkscape:connector-curvature="0" />
    </clipPath>
    <clipPath
       clipPathUnits="userSpaceOnUse"
       id="clipPath4068">
      <path
         id="path4070"
         d="m 45.1875,167.625 c -33.629633,75.62504 -24.433208,166.99318 31.46875,235.5 64.8405,79.46081 172.39314,103.49563 262.46875,66.03125 6.24529,-18.12137 10.27704,-37.35842 11.75,-57.375 3.26386,-44.35382 -6.49375,-86.65669 -26,-123.1875 C 237.79159,318.32207 137.64904,292.84817 76.0625,217.375 63.373255,201.82456 53.107889,185.07938 45.1875,167.625 z m 433.46875,86.5 c 0.031,1.29038 0.0534,2.58002 0.0625,3.875 -0.01,-1.29335 -0.0304,-2.58152 -0.0625,-3.875 z m -0.53125,22.5 c -0.0985,1.32574 -0.22296,2.65012 -0.34375,3.96875 0.12138,-1.32236 0.24549,-2.64439 0.34375,-3.96875 z m -15.5,67.28125 c -0.36422,0.91289 -0.71814,1.81203 -1.09375,2.71875 0.37449,-0.90613 0.73135,-1.80852 1.09375,-2.71875 z m -7.59375,16.96875 c -0.45598,0.91489 -0.90716,1.84246 -1.375,2.75 0.46981,-0.9135 0.91822,-1.83116 1.375,-2.75 z m -3.59375,6.9375 c -0.61851,1.14036 -1.23775,2.2782 -1.875,3.40625 0.6351,-1.12664 1.26035,-2.27059 1.875,-3.40625 z m -3.8125,6.75 c -1.31156,2.23109 -2.67818,4.4451 -4.0625,6.625 1.39037,-2.19282 2.75345,-4.39333 4.0625,-6.625 z m -4.0625,6.625 c -0.69216,1.08995 -1.38374,2.17313 -2.09375,3.25 0.70979,-1.07796 1.40394,-2.16206 2.09375,-3.25 z m -4.25,6.46875 c -3.6382,5.31793 -7.50034,10.46606 -11.5625,15.4375 4.0935,-5.0076 7.95449,-10.15863 11.5625,-15.4375 z m -11.5625,15.4375 c -0.81243,0.99429 -1.64003,1.9889 -2.46875,2.96875 0.8345,-0.98582 1.65343,-1.97137 2.46875,-2.96875 z m -2.46875,2.96875 c -2.48616,2.93955 -5.02754,5.78764 -7.65625,8.59375 2.63807,-2.81243 5.18579,-5.67531 7.65625,-8.59375 z m -7.65625,8.59375 c -0.87624,0.93537 -1.76462,1.89234 -2.65625,2.8125 0.89872,-0.92597 1.77613,-1.87421 2.65625,-2.8125 z m -2.65625,2.8125 c -0.89163,0.92016 -1.7807,1.814 -2.6875,2.71875 0.9037,-0.90031 1.80184,-1.80624 2.6875,-2.71875 z M 403.78125,428.25 c -0.90779,0.81718 -1.82923,1.6038 -2.75,2.40625 0.91932,-0.8004 1.84662,-1.59412 2.75,-2.40625 z m -2.75,2.40625 c -0.96523,0.84119 -1.92697,1.67518 -2.90625,2.5 0.97937,-0.82445 1.9443,-1.66248 2.90625,-2.5 z m -18.21875,14.3125 c -1.00914,0.71295 -2.04155,1.42836 -3.0625,2.125 1.02458,-0.69989 2.04619,-1.40613 3.0625,-2.125 z m -12.90625,8.5 c -2.06861,1.26035 -4.13972,2.49268 -6.25,3.6875 2.10283,-1.19151 4.17541,-2.42223 6.25,-3.6875 z m -6.5625,3.875 c -1.08671,0.61298 -2.18384,1.1859 -3.28125,1.78125 1.09181,-0.59272 2.19657,-1.16897 3.28125,-1.78125 z m -3.28125,1.78125 c -1.1304,0.61325 -2.26471,1.21814 -3.40625,1.8125 1.13498,-0.59132 2.27862,-1.20033 3.40625,-1.8125 z m -6.875,3.59375 c -1.15246,0.57528 -2.3056,1.13149 -3.46875,1.6875 1.15981,-0.55435 2.31589,-1.11197 3.46875,-1.6875 z m -3.46875,1.6875 c -1.16315,0.55601 -2.32638,1.08846 -3.5,1.625 1.1708,-0.53508 2.33593,-1.06861 3.5,-1.625 z"
         style="fill:#53b7af;fill-opacity:1;fill-rule:evenodd;stroke:none"
         inkscape:connector-curvature="0" />
    </clipPath>
    <clipPath
       clipPathUnits="userSpaceOnUse"
       id="clipPath4077">
      <path
         id="path4079"
         d="m 252.21875,33.21875 c -92.31738,0 -171.726889,55.205633 -207.03125,134.40625 7.920389,17.45438 18.185755,34.19956 30.875,49.75 29.79273,36.51045 68.59862,61.29251 110.59375,73.8125 C 220.4331,208.49848 301.65937,150.21875 396.5,150.21875 c 20.0707,0 39.53166,2.60145 58.0625,7.5 -37.33141,-73.867881 -113.9231,-124.5 -202.34375,-124.5 z M 38.09375,185.625 c -0.420007,1.21295 -0.81887,2.43404 -1.21875,3.65625 0.399463,-1.22246 0.798213,-2.43986 1.21875,-3.65625 z m -1.21875,3.65625 c -0.40202,1.22875 -0.806023,2.4496 -1.1875,3.6875 0.37836,-1.22823 0.788037,-2.46504 1.1875,-3.6875 z m -2.28125,7.375 c -0.354411,1.22416 -0.697028,2.4549 -1.03125,3.6875 0.336064,-1.2389 0.674023,-2.45379 1.03125,-3.6875 z m -1.03125,3.6875 c -0.337962,1.2464 -0.682877,2.49517 -1,3.75 0.314872,-1.24379 0.663936,-2.5111 1,-3.75 z m -2.8125,11.5625 c -0.245996,1.14329 -0.490078,2.28787 -0.71875,3.4375 0.2284,-1.143 0.472744,-2.2978 0.71875,-3.4375 z m -1.4375,7.21875 c -0.17714,0.97736 -0.335441,1.95581 -0.5,2.9375 0.165564,-0.98068 0.321573,-1.9589 0.5,-2.9375 z m 449.34375,35 c 0.0321,1.29348 0.0525,2.58165 0.0625,3.875 -0.009,-1.29498 -0.0315,-2.58462 -0.0625,-3.875 z m -0.53125,22.5 c -0.0983,1.32436 -0.22237,2.64639 -0.34375,3.96875 0.12079,-1.31863 0.2453,-2.64301 0.34375,-3.96875 z m -15.5,67.28125 c -0.3624,0.91023 -0.71926,1.81262 -1.09375,2.71875 0.37561,-0.90672 0.72953,-1.80586 1.09375,-2.71875 z m -7.59375,16.96875 c -0.45678,0.91884 -0.90519,1.8365 -1.375,2.75 0.46784,-0.90754 0.91902,-1.83511 1.375,-2.75 z m -3.59375,6.9375 c -0.61465,1.13566 -1.2399,2.27961 -1.875,3.40625 0.63725,-1.12805 1.25649,-2.26589 1.875,-3.40625 z m -68.625,77.15625 c -1.01631,0.71887 -2.03792,1.42511 -3.0625,2.125 1.02095,-0.69664 2.05336,-1.41205 3.0625,-2.125 z"
         style="fill:#f15852;fill-opacity:1;fill-rule:evenodd;stroke:none"
         inkscape:connector-curvature="0" />
    </clipPath>
  </defs>
  <sodipodi:namedview
     pagecolor="#ffffff"
     bordercolor="#666666"
     borderopacity="1"
     objecttolerance="10"
     gridtolerance="10"
     guidetolerance="10"
     inkscape:pageopacity="0"
     inkscape:pageshadow="2"
     inkscape:window-width="1360"
     inkscape:window-height="721"
     id="namedview4"
     showgrid="false"
     inkscape:zoom="0.48996029"
     inkscape:cx="-75.659968"
     inkscape:cy="202.11347"
     inkscape:window-x="0"
     inkscape:window-y="25"
     inkscape:window-maximized="1"
     inkscape:current-layer="svg2"
     inkscape:document-units="px"
     showguides="true"
     inkscape:guide-bbox="true" />
  <g
     id="g3851"
     transform="translate(-188.82406,1.1047704)" />
  <path
     inkscape:connector-curvature="0"
     style="fill:#2664ae;fill-opacity:1;fill-rule:evenodd;stroke:none"
     d="m 252.21875,33.21875 c -92.31738,0 -171.726889,55.205633 -207.03125,134.40625 7.920389,17.45438 18.185755,34.19956 30.875,49.75 29.79273,36.51045 68.59862,61.29251 110.59375,73.8125 C 220.4331,208.49848 301.65937,150.21875 396.5,150.21875 c 20.0707,0 39.53166,2.60145 58.0625,7.5 -37.33141,-73.867881 -113.9231,-124.5 -202.34375,-124.5 z M 38.09375,185.625 c -0.420007,1.21295 -0.81887,2.43404 -1.21875,3.65625 0.399463,-1.22246 0.798213,-2.43986 1.21875,-3.65625 z m -1.21875,3.65625 c -0.40202,1.22875 -0.806023,2.4496 -1.1875,3.6875 0.37836,-1.22823 0.788037,-2.46504 1.1875,-3.6875 z m -2.28125,7.375 c -0.354411,1.22416 -0.697028,2.4549 -1.03125,3.6875 0.336064,-1.2389 0.674023,-2.45379 1.03125,-3.6875 z m -1.03125,3.6875 c -0.337962,1.2464 -0.682877,2.49517 -1,3.75 0.314872,-1.24379 0.663936,-2.5111 1,-3.75 z m -2.8125,11.5625 c -0.245996,1.14329 -0.490078,2.28787 -0.71875,3.4375 0.2284,-1.143 0.472744,-2.2978 0.71875,-3.4375 z m -1.4375,7.21875 c -0.17714,0.97736 -0.335441,1.95581 -0.5,2.9375 0.165564,-0.98068 0.321573,-1.9589 0.5,-2.9375 z m 449.34375,35 c 0.0321,1.29348 0.0525,2.58165 0.0625,3.875 -0.009,-1.29498 -0.0315,-2.58462 -0.0625,-3.875 z m -0.53125,22.5 c -0.0983,1.32436 -0.22237,2.64639 -0.34375,3.96875 0.12079,-1.31863 0.2453,-2.64301 0.34375,-3.96875 z m -15.5,67.28125 c -0.3624,0.91023 -0.71926,1.81262 -1.09375,2.71875 0.37561,-0.90672 0.72953,-1.80586 1.09375,-2.71875 z m -7.59375,16.96875 c -0.45678,0.91884 -0.90519,1.8365 -1.375,2.75 0.46784,-0.90754 0.91902,-1.83511 1.375,-2.75 z m -3.59375,6.9375 c -0.61465,1.13566 -1.2399,2.27961 -1.875,3.40625 0.63725,-1.12805 1.25649,-2.26589 1.875,-3.40625 z m -68.625,77.15625 c -1.01631,0.71887 -2.03792,1.42511 -3.0625,2.125 1.02095,-0.69664 2.05336,-1.41205 3.0625,-2.125 z"
     id="path3847" />
  <path
     inkscape:connector-curvature="0"
     style="fill:#378ee9;fill-opacity:1;fill-rule:evenodd;stroke:none"
     d="m 45.1875,167.625 c -33.629633,75.62504 -24.433208,166.99318 31.46875,235.5 64.8405,79.46081 172.39314,103.49563 262.46875,66.03125 6.24529,-18.12137 10.27704,-37.35842 11.75,-57.375 3.26386,-44.35382 -6.49375,-86.65669 -26,-123.1875 C 237.79159,318.32207 137.64904,292.84817 76.0625,217.375 63.373255,201.82456 53.107889,185.07938 45.1875,167.625 z m 433.46875,86.5 c 0.031,1.29038 0.0534,2.58002 0.0625,3.875 -0.01,-1.29335 -0.0304,-2.58152 -0.0625,-3.875 z m -0.53125,22.5 c -0.0985,1.32574 -0.22296,2.65012 -0.34375,3.96875 0.12138,-1.32236 0.24549,-2.64439 0.34375,-3.96875 z m -15.5,67.28125 c -0.36422,0.91289 -0.71814,1.81203 -1.09375,2.71875 0.37449,-0.90613 0.73135,-1.80852 1.09375,-2.71875 z m -7.59375,16.96875 c -0.45598,0.91489 -0.90716,1.84246 -1.375,2.75 0.46981,-0.9135 0.91822,-1.83116 1.375,-2.75 z m -3.59375,6.9375 c -0.61851,1.14036 -1.23775,2.2782 -1.875,3.40625 0.6351,-1.12664 1.26035,-2.27059 1.875,-3.40625 z m -3.8125,6.75 c -1.31156,2.23109 -2.67818,4.4451 -4.0625,6.625 1.39037,-2.19282 2.75345,-4.39333 4.0625,-6.625 z m -4.0625,6.625 c -0.69216,1.08995 -1.38374,2.17313 -2.09375,3.25 0.70979,-1.07796 1.40394,-2.16206 2.09375,-3.25 z m -4.25,6.46875 c -3.6382,5.31793 -7.50034,10.46606 -11.5625,15.4375 4.0935,-5.0076 7.95449,-10.15863 11.5625,-15.4375 z m -11.5625,15.4375 c -0.81243,0.99429 -1.64003,1.9889 -2.46875,2.96875 0.8345,-0.98582 1.65343,-1.97137 2.46875,-2.96875 z m -2.46875,2.96875 c -2.48616,2.93955 -5.02754,5.78764 -7.65625,8.59375 2.63807,-2.81243 5.18579,-5.67531 7.65625,-8.59375 z m -7.65625,8.59375 c -0.87624,0.93537 -1.76462,1.89234 -2.65625,2.8125 0.89872,-0.92597 1.77613,-1.87421 2.65625,-2.8125 z m -2.65625,2.8125 c -0.89163,0.92016 -1.7807,1.814 -2.6875,2.71875 0.9037,-0.90031 1.80184,-1.80624 2.6875,-2.71875 z M 403.78125,428.25 c -0.90779,0.81718 -1.82923,1.6038 -2.75,2.40625 0.91932,-0.8004 1.84662,-1.59412 2.75,-2.40625 z m -2.75,2.40625 c -0.96523,0.84119 -1.92697,1.67518 -2.90625,2.5 0.97937,-0.82445 1.9443,-1.66248 2.90625,-2.5 z m -18.21875,14.3125 c -1.00914,0.71295 -2.04155,1.42836 -3.0625,2.125 1.02458,-0.69989 2.04619,-1.40613 3.0625,-2.125 z m -12.90625,8.5 c -2.06861,1.26035 -4.13972,2.49268 -6.25,3.6875 2.10283,-1.19151 4.17541,-2.42223 6.25,-3.6875 z m -6.5625,3.875 c -1.08671,0.61298 -2.18384,1.1859 -3.28125,1.78125 1.09181,-0.59272 2.19657,-1.16897 3.28125,-1.78125 z m -3.28125,1.78125 c -1.1304,0.61325 -2.26471,1.21814 -3.40625,1.8125 1.13498,-0.59132 2.27862,-1.20033 3.40625,-1.8125 z m -6.875,3.59375 c -1.15246,0.57528 -2.3056,1.13149 -3.46875,1.6875 1.15981,-0.55435 2.31589,-1.11197 3.46875,-1.6875 z m -3.46875,1.6875 c -1.16315,0.55601 -2.32638,1.08846 -3.5,1.625 1.1708,-0.53508 2.33593,-1.06861 3.5,-1.625 z"
     id="path3857" />
  <path
     inkscape:connector-curvature="0"
     style="fill:#45a1e2;fill-opacity:1;fill-rule:evenodd;stroke:none"
     d="m 55.90625,146.625 c -0.555933,0.96227 -1.114024,1.93481 -1.65625,2.90625 0.540984,-0.96928 1.10151,-1.94581 1.65625,-2.90625 z M 396.5,150.21875 c -56.55187,0 -108.27154,20.73776 -147.96875,55 66.86748,43.61442 108.61716,121.31077 102.34375,206.5625 -1.47296,20.01658 -5.50471,39.25363 -11.75,57.375 14.32657,-5.96432 27.91857,-13.39232 40.625,-22.0625 1.02458,-0.69989 2.04619,-1.40613 3.0625,-2.125 27.24965,-19.25151 50.15857,-44.38032 66.75,-73.75 0.6351,-1.12664 1.26035,-2.27059 1.875,-3.40625 0.75104,-1.38473 1.49572,-2.78494 2.21875,-4.1875 0.46981,-0.9135 0.91822,-1.83116 1.375,-2.75 2.32135,-4.65763 4.49475,-9.4093 6.5,-14.25 0.37449,-0.90613 0.73135,-1.80852 1.09375,-2.71875 7.89969,-19.79999 13.11659,-41.04611 15.15625,-63.3125 0.12138,-1.32236 0.24549,-2.64439 0.34375,-3.96875 0.004,-0.0518 -0.004,-0.10442 0,-0.15625 0.45621,-6.19965 0.6366,-12.35925 0.59375,-18.46875 -0.01,-1.29335 -0.0304,-2.58152 -0.0625,-3.875 -0.82814,-34.44372 -9.44198,-67.1926 -24.25,-96.4375 -18.48497,-4.87247 -37.89075,-7.46875 -57.90625,-7.46875 z m -365.75,61.6875 c -0.246006,1.1397 -0.49035,2.2945 -0.71875,3.4375 0.228672,-1.14963 0.472754,-2.29421 0.71875,-3.4375 z m -1.4375,7.21875 c -0.178427,0.9786 -0.334436,1.95682 -0.5,2.9375 0.164559,-0.98169 0.32286,-1.96014 0.5,-2.9375 z"
     id="path3855" />
  <path
     style="fill:#000000;fill-opacity:0.1;stroke:none"
     d="m 396.5,150.21875 c -58.3959,0 -111.63778,22.09157 -151.8125,58.375 L 295,246 c 62.63488,4.81807 149.52339,-82.84511 155.78125,-89.25 C 433.3857,152.47267 415.2157,150.21875 396.5,150.21875 z m -365.75,61.6875 c -0.246006,1.1397 -0.49035,2.2945 -0.71875,3.4375 0.228672,-1.14963 0.472754,-2.29421 0.71875,-3.4375 z m -1.4375,7.21875 c -0.178427,0.9786 -0.334436,1.95682 -0.5,2.9375 0.164559,-0.98169 0.32286,-1.96014 0.5,-2.9375 z m 449.34375,35 c 0.031,1.29038 0.0535,2.58002 0.0625,3.875 -0.01,-1.29335 -0.0304,-2.58152 -0.0625,-3.875 z m -0.53125,22.5 c -0.0985,1.32574 -0.22296,2.65012 -0.34375,3.96875 0.12138,-1.32236 0.24545,-2.64439 0.34375,-3.96875 z m -15.5,67.28125 c -0.36422,0.91289 -0.71814,1.81203 -1.09375,2.71875 0.37449,-0.90613 0.73135,-1.80852 1.09375,-2.71875 z m -7.59375,16.96875 c -0.45598,0.91489 -0.90716,1.84246 -1.375,2.75 0.46981,-0.9135 0.91822,-1.83116 1.375,-2.75 z m -3.59375,6.9375 c -0.61851,1.14036 -1.23775,2.2782 -1.875,3.40625 0.6351,-1.12664 1.26035,-2.27059 1.875,-3.40625 z m -68.625,77.15625 c -1.00914,0.71295 -2.04155,1.42836 -3.0625,2.125 1.02458,-0.69989 2.04619,-1.40613 3.0625,-2.125 z"
     id="path3937"
     clip-path="url(#clipPath4054)"
     inkscape:connector-curvature="0"
     transform="translate(0.51024543,-0.51024543)" />
  <path
     style="fill:#000000;fill-opacity:0.1;stroke:none"
     d="m 55.90625,146.625 c -0.55474,0.96044 -1.115266,1.93697 -1.65625,2.90625 0.542226,-0.97144 1.100317,-1.94398 1.65625,-2.90625 z M 30.75,211.90625 c -0.245996,1.14329 -0.490078,2.28787 -0.71875,3.4375 0.2284,-1.143 0.472744,-2.2978 0.71875,-3.4375 z m -1.4375,7.21875 c -0.17714,0.97736 -0.335441,1.95581 -0.5,2.9375 0.165564,-0.98068 0.321573,-1.9589 0.5,-2.9375 z M 322.53125,284.3125 252.65625,301 c -1.98956,48.74426 85.83165,166.11764 86.75,167.34375 6.08677,-17.88342 10.01779,-36.84494 11.46875,-56.5625 3.39223,-46.09833 -7.27439,-89.98265 -28.34375,-127.46875 z"
     id="path3948"
     clip-path="url(#clipPath4068)"
     inkscape:connector-curvature="0"
     transform="translate(0.51024544,-0.51024543)" />
  <path
     style="fill:#000000;fill-opacity:0.1;stroke:none"
     d="m 45.71875,168.78125 c 7.846338,17.03553 17.936434,33.38881 30.34375,48.59375 32.28044,39.55909 75.15456,65.38156 121.1875,76.71875 L 215,240 C 164.74128,169.04651 49.077293,168.77457 45.71875,168.78125 z m 432.9375,85.34375 c 0.0321,1.29348 0.0525,2.58165 0.0625,3.875 -0.009,-1.29498 -0.0315,-2.58462 -0.0625,-3.875 z m -0.53125,22.5 c -0.0983,1.32436 -0.22237,2.64639 -0.34375,3.96875 0.12079,-1.31863 0.24525,-2.64301 0.34375,-3.96875 z m -15.5,67.28125 c -0.3624,0.91023 -0.71926,1.81262 -1.09375,2.71875 0.37561,-0.90672 0.72953,-1.80586 1.09375,-2.71875 z m -7.59375,16.96875 c -0.45678,0.91884 -0.90519,1.8365 -1.375,2.75 0.46784,-0.90754 0.91902,-1.83511 1.375,-2.75 z m -3.59375,6.9375 c -0.61465,1.13566 -1.2399,2.27961 -1.875,3.40625 0.63725,-1.12805 1.25649,-2.26589 1.875,-3.40625 z m -68.625,77.15625 c -1.01631,0.71887 -2.03792,1.42511 -3.0625,2.125 1.02095,-0.69664 2.05336,-1.41205 3.0625,-2.125 z"
     id="path3952"
     clip-path="url(#clipPath4077)"
     inkscape:connector-curvature="0"
     transform="translate(0,0.51024543)" />
</svg>
