<?xml version="1.0" encoding="UTF-8" standalone="no"?>
<!-- Created with Inkscape (http://www.inkscape.org/) -->

<svg
   xmlns:dc="http://purl.org/dc/elements/1.1/"
   xmlns:cc="http://creativecommons.org/ns#"
   xmlns:rdf="http://www.w3.org/1999/02/22-rdf-syntax-ns#"
   xmlns:svg="http://www.w3.org/2000/svg"
   xmlns="http://www.w3.org/2000/svg"
   xmlns:sodipodi="http://sodipodi.sourceforge.net/DTD/sodipodi-0.dtd"
   xmlns:inkscape="http://www.inkscape.org/namespaces/inkscape"
   width="512"
   height="512"
   id="svg2"
   version="1.1"
   inkscape:version="0.48.4 r9939"
   sodipodi:docname="chromium-bsu.svg">
  <defs
     id="defs4">
    <clipPath
       clipPathUnits="userSpaceOnUse"
       id="clipPath3788">
      <path
         sodipodi:nodetypes="ccccc"
         inkscape:connector-curvature="0"
         id="path3790"
         d="M 125.71429,611.44596 C 238.75878,447.27309 343.52284,279.78804 381.48439,85.581987 419.2999,282.43416 515.9607,452.53847 637.2545,611.44596 l -255.77011,70.36907 z"
         style="fill:#0e59b0;fill-opacity:1;stroke:none" />
    </clipPath>
    <clipPath
       clipPathUnits="userSpaceOnUse"
       id="clipPath3828">
      <path
         id="path3830"
         d="m 381.47484,85.58826 c -18.01271,92.1506 -51.04754,178.27631 -92.88925,260.89529 l 0,-65.5594 c 0,-15.82857 -12.7362,-28.56479 -28.56479,-28.56479 -15.82857,0 -28.56479,12.73622 -28.56479,28.56479 l 0,168.3282 c -33.02625,54.95401 -68.9217,108.76276 -105.72192,162.20718 l 255.74075,70.3381 255.79443,-70.3381 C 596.94402,558.62928 559.31753,504.53859 525.69479,448.66173 l 0,-167.73758 c 0,-15.82857 -12.7362,-28.56479 -28.56479,-28.56479 -15.82857,0 -28.56478,12.73622 -28.56478,28.56479 l 0,62.60628 C 429.18036,262.25836 398.99636,176.79821 381.47484,85.58826 z m -2.30881,366.13398 c 32.13743,0 58.41821,26.28077 58.41821,58.41821 l 0,55.78724 c 0,32.13744 -26.28078,58.41821 -58.41821,58.41821 -32.13744,0 -58.41821,-26.28077 -58.41821,-58.41821 l 0,-55.78724 c 0,-32.13744 26.28077,-58.41821 58.41821,-58.41821 z m 0,26.57814 c -17.8625,0 -31.84007,13.97757 -31.84007,31.84007 l 0,55.78724 c 0,17.8625 13.97757,31.84007 31.84007,31.84007 17.8625,0 31.84007,-13.97757 31.84007,-31.84007 l 0,-55.78724 c 0,-17.8625 -13.97757,-31.84007 -31.84007,-31.84007 z"
         style="fill:#0e7eb0;fill-opacity:1;stroke:none"
         inkscape:connector-curvature="0" />
    </clipPath>
  </defs>
  <sodipodi:namedview
     id="base"
     pagecolor="#ffffff"
     bordercolor="#666666"
     borderopacity="1.0"
     inkscape:pageopacity="0.0"
     inkscape:pageshadow="2"
     inkscape:zoom="0.49497475"
     inkscape:cx="265.67619"
     inkscape:cy="236.12017"
     inkscape:document-units="px"
     inkscape:current-layer="layer1"
     showgrid="false"
     inkscape:window-width="1360"
     inkscape:window-height="721"
     inkscape:window-x="0"
     inkscape:window-y="25"
     inkscape:window-maximized="1" />
  <metadata
     id="metadata7">
    <rdf:RDF>
      <cc:Work
         rdf:about="">
        <dc:format>image/svg+xml</dc:format>
        <dc:type
           rdf:resource="http://purl.org/dc/dcmitype/StillImage" />
        <dc:title></dc:title>
      </cc:Work>
    </rdf:RDF>
  </metadata>
  <g
     inkscape:label="Capa 1"
     inkscape:groupmode="layer"
     id="layer1"
     transform="translate(0,-540.36218)">
    <path
       style="color:#000000;fill:#0b6790;fill-opacity:1;fill-rule:evenodd;stroke:none;stroke-width:15.47999954;marker:none;visibility:visible;display:inline;overflow:visible;enable-background:accumulate"
       d="m 206.85282,808.55096 c -14.03682,0 -25.31819,11.31421 -25.31819,25.35103 l 0,101.33845 c 0,14.03684 11.28137,25.35104 25.31819,25.35104 l 25.35104,0 c 14.03682,0 25.31819,-11.3142 25.31819,-25.35104 l 0,-61.37445 C 244.0435,868.7431 234.40401,855.65871 234.40401,840.43678 l 0,-31.78731 c -0.72562,-0.062 -1.45789,-0.0985 -2.20015,-0.0985 l -25.35104,0 z m 103.96551,0 c -1.70777,0 -3.34707,0.14047 -4.95856,0.45973 l 0,31.42609 c 0,14.16351 -8.34103,26.44484 -20.35964,32.2142 l 0,62.58946 c 0,14.03684 11.28138,25.35104 25.3182,25.35104 l 25.35103,0 c 14.03682,0 25.31819,-11.3142 25.31819,-25.35104 l 0,-101.33845 c 0,-14.03682 -11.28137,-25.35103 -25.31819,-25.35103 l -25.35103,0 z m -60.15945,7.94682 0,23.939 c 0,6.05989 2.65597,11.36434 6.86317,14.90851 l 0,-21.4433 c 0,-6.74013 -2.60357,-12.87278 -6.86317,-17.40421 z m 38.94602,3.51368 c -2.60646,3.98434 -4.10477,8.75532 -4.10477,13.89053 l 0,18.58638 c 2.56835,-3.29594 4.10477,-7.45372 4.10477,-12.05159 l 0,-20.42532 z"
       id="rect3766"
       inkscape:connector-curvature="0" />
    <path
       style="fill:#0e7eb0;fill-opacity:1;stroke:none"
       d="m 271.54393,546.66691 c -11.01636,56.35821 -31.22006,109.03166 -56.80996,159.56045 l 0,-40.09535 c 0,-9.68057 -7.7893,-17.46988 -17.46988,-17.46988 -9.68056,0 -17.46988,7.78931 -17.46988,17.46988 l 0,102.94752 c -20.19846,33.60922 -42.15169,66.51801 -64.65827,99.20398 l 156.40799,43.01794 156.44083,-43.01794 c -24.66244,-32.31035 -47.67436,-65.39158 -68.23763,-99.5652 l 0,-102.5863 c 0,-9.68057 -7.7893,-17.46988 -17.46988,-17.46988 -9.68056,0 -17.46988,7.78931 -17.46988,17.46988 l 0,38.28925 C 300.72006,654.71624 282.25989,602.44983 271.54393,546.66691 z m -1.41204,223.92317 c 19.65487,0 35.72788,16.07301 35.72788,35.72788 l 0,34.11882 c 0,19.65487 -16.07301,35.72788 -35.72788,35.72788 -19.65487,0 -35.72788,-16.07301 -35.72788,-35.72788 l 0,-34.11882 c 0,-19.65487 16.07301,-35.72788 35.72788,-35.72788 z m 0,16.25488 c -10.92449,0 -19.47301,8.54851 -19.47301,19.473 l 0,34.11882 c 0,10.92449 8.54852,19.473 19.47301,19.473 10.92449,0 19.47301,-8.54851 19.47301,-19.473 l 0,-34.11882 c 0,-10.92449 -8.54852,-19.473 -19.47301,-19.473 z"
       id="path2985"
       inkscape:connector-curvature="0" />
    <path
       style="fill:#f85c59;fill-opacity:1;stroke:none"
       d="m 300.25672,992.01857 c -4.35695,11.52103 15.61068,33.21523 15.61068,33.21523 0,0 -1.72284,-27.71692 6.24428,-26.22253 14.40639,2.70223 -3.12214,48.94883 -3.12214,48.94883 0,0 26.55714,-27.654 30.44081,-46.3266 1.6787,-8.07113 2.38879,-20.11116 -3.90267,-24.47442 -13.36909,-9.27174 -39.13859,-1.35625 -45.27096,14.85949 z"
       id="path3773"
       inkscape:connector-curvature="0"
       sodipodi:nodetypes="acacaaa" />
    <path
       sodipodi:nodetypes="acacaaa"
       inkscape:connector-curvature="0"
       id="path3775"
       d="m 300.25672,992.01857 c -4.35695,11.52103 15.61068,33.21523 15.61068,33.21523 0,0 -1.72284,-27.71692 6.24428,-26.22253 14.40639,2.70223 -3.12214,48.94883 -3.12214,48.94883 0,0 26.55714,-27.654 30.44081,-46.3266 1.6787,-8.07113 2.38879,-20.11116 -3.90267,-24.47442 -13.36909,-9.27174 -39.13859,-1.35625 -45.27096,14.85949 z"
       style="fill:#f85c59;fill-opacity:1;stroke:none" />
    <path
       style="fill:#f85c59;fill-opacity:1;stroke:none"
       d="m 242.47607,992.01857 c 4.35696,11.52103 -15.61067,33.21523 -15.61067,33.21523 0,0 1.72284,-27.71692 -6.24427,-26.22253 -14.4064,2.70223 3.12213,48.94883 3.12213,48.94883 0,0 -26.55714,-27.654 -30.44081,-46.3266 -1.67871,-8.07113 -2.38879,-20.11116 3.90267,-24.47442 13.36909,-9.27174 39.13859,-1.35625 45.27095,14.85949 z"
       id="path3777"
       inkscape:connector-curvature="0"
       sodipodi:nodetypes="acacaaa" />
    <path
       style="fill:#108dc4;fill-opacity:1;stroke:none"
       d="M 285.71429,159.50504 377.14286,680.93361 484.28571,136.6479 C 380.86572,-39.22138 338.21478,84.413936 285.71429,159.50504 z"
       id="path3784"
       inkscape:connector-curvature="0"
       sodipodi:nodetypes="cccc"
       clip-path="url(#clipPath3828)"
       transform="matrix(0.61158808,0,0,0.61158808,38.238474,494.32215)" />
  </g>
</svg>
