<?xml version="1.0" encoding="UTF-8" standalone="no"?>
<!-- Created with Inkscape (http://www.inkscape.org/) -->

<svg
   xmlns:dc="http://purl.org/dc/elements/1.1/"
   xmlns:cc="http://creativecommons.org/ns#"
   xmlns:rdf="http://www.w3.org/1999/02/22-rdf-syntax-ns#"
   xmlns:svg="http://www.w3.org/2000/svg"
   xmlns="http://www.w3.org/2000/svg"
   xmlns:xlink="http://www.w3.org/1999/xlink"
   xmlns:sodipodi="http://sodipodi.sourceforge.net/DTD/sodipodi-0.dtd"
   xmlns:inkscape="http://www.inkscape.org/namespaces/inkscape"
   id="svg2"
   version="1.1"
   inkscape:version="0.92.2 (5c3e80d, 2017-08-06)"
   width="512"
   height="512"
   sodipodi:docname="clementine.svg">
  <metadata
     id="metadata8">
    <rdf:RDF>
      <cc:Work
         rdf:about="">
        <dc:format>image/svg+xml</dc:format>
        <dc:type
           rdf:resource="http://purl.org/dc/dcmitype/StillImage" />
        <dc:title></dc:title>
      </cc:Work>
    </rdf:RDF>
  </metadata>
  <defs
     id="defs6">
    <linearGradient
       inkscape:collect="always"
       id="linearGradient911">
      <stop
         style="stop-color:#000000;stop-opacity:1;"
         offset="0"
         id="stop907" />
      <stop
         style="stop-color:#000000;stop-opacity:0;"
         offset="1"
         id="stop909" />
    </linearGradient>
    <linearGradient
       id="linearGradient3889">
      <stop
         id="stop3891"
         offset="0"
         style="stop-color:#000000;stop-opacity:1;" />
      <stop
         id="stop3893"
         offset="1"
         style="stop-color:#000000;stop-opacity:0;" />
    </linearGradient>
    <linearGradient
       id="linearGradient3783">
      <stop
         id="stop3785"
         offset="0"
         style="stop-color:#000000;stop-opacity:1;" />
      <stop
         id="stop3787"
         offset="1"
         style="stop-color:#fb5549;stop-opacity:0;" />
    </linearGradient>
    <linearGradient
       gradientUnits="userSpaceOnUse"
       y2="1369.8314"
       x2="-1068.8168"
       y1="379.88196"
       x1="-3045.6099"
       id="linearGradient3789"
       xlink:href="#linearGradient3783"
       inkscape:collect="always" />
    <clipPath
       id="clipPath3793"
       clipPathUnits="userSpaceOnUse">
      <path
         sodipodi:type="arc"
         style="fill:#fb5549;fill-opacity:1;fill-rule:evenodd;stroke:none"
         id="path3795"
         sodipodi:cx="-1700"
         sodipodi:cy="872.36218"
         sodipodi:rx="762.85712"
         sodipodi:ry="762.85712"
         d="m -937.14288,872.36218 a 762.85712,762.85712 0 1 1 -1525.71422,0 762.85712,762.85712 0 1 1 1525.71422,0 z" />
    </clipPath>
    <clipPath
       id="clipPath3899"
       clipPathUnits="userSpaceOnUse">
      <path
         style="color:#000000;fill:#1cc1c1;fill-opacity:1;fill-rule:evenodd;stroke:none;stroke-width:46.59999847;marker:none;visibility:visible;display:inline;overflow:visible;enable-background:accumulate"
         d="m 54.285714,83.428574 407.142846,0 c 16.62,0 30,13.38 30,29.999996 0,48.33333 -4.28571,96.66667 -4.28571,145 l 0,145 c 0,16.62 -13.38,30 -30,30 l -397.14285,0 c -16.62,0 -30,-13.38 -30,-30 l 0,-145 c 0,-48.33333 -5.714286,-96.66667 -5.714286,-145 0,-16.619996 13.38,-29.999996 30,-29.999996 z"
         id="path3901"
         inkscape:connector-curvature="0"
         sodipodi:nodetypes="ssccssssccs" />
    </clipPath>
    <clipPath
       id="clipPath4230"
       clipPathUnits="userSpaceOnUse">
      <path
         style="color:#000000;display:inline;overflow:visible;visibility:visible;fill:#708299;fill-opacity:1;fill-rule:evenodd;stroke:none;stroke-width:46.59999847;marker:none;enable-background:accumulate"
         d="m 54.285714,623.79075 407.142846,0 c 16.62,0 30,13.38 30,30 0,48.33333 -4.28571,96.66667 -4.28571,145 l 0,145 c 0,16.62 -13.38,30 -30,30 l -397.14285,0 c -16.62,0 -30,-13.38 -30,-30 l 0,-145 c 0,-48.33333 -5.714286,-96.66667 -5.714286,-145 0,-16.62 13.38,-30 30,-30 z"
         id="path4232"
         inkscape:connector-curvature="0"
         sodipodi:nodetypes="ssccssssccs" />
    </clipPath>
    <linearGradient
       inkscape:collect="always"
       xlink:href="#linearGradient911"
       id="linearGradient913"
       x1="-287.04196"
       y1="-281.00949"
       x2="402.71805"
       y2="428.41425"
       gradientUnits="userSpaceOnUse" />
    <clipPath
       clipPathUnits="userSpaceOnUse"
       id="clipPath917">
      <circle
         id="circle919"
         style="fill:#ff9956;fill-opacity:1;fill-rule:evenodd;stroke:none;stroke-width:0.42487094"
         cx="259.96674"
         cy="260.71121"
         r="220.29919" />
    </clipPath>
  </defs>
  <sodipodi:namedview
     pagecolor="#ffffff"
     bordercolor="#666666"
     borderopacity="1"
     objecttolerance="10"
     gridtolerance="10"
     guidetolerance="10"
     inkscape:pageopacity="0"
     inkscape:pageshadow="2"
     inkscape:window-width="1360"
     inkscape:window-height="716"
     id="namedview4"
     showgrid="false"
     inkscape:zoom="0.65186406"
     inkscape:cx="75.938232"
     inkscape:cy="333.54966"
     inkscape:window-x="0"
     inkscape:window-y="24"
     inkscape:window-maximized="1"
     inkscape:current-layer="svg2" />
  <path
     transform="matrix(0.42487095,0,0,0.42487095,-23.011712,-44.389348)"
     style="fill:#ff934b;fill-opacity:1;fill-rule:evenodd;stroke:none"
     d="M 1184.5424,718.10168 A 518.50848,518.50848 0 0 1 666.03387,1236.6102 518.50848,518.50848 0 0 1 147.52539,718.10168 518.50848,518.50848 0 0 1 666.03387,199.5932 518.50848,518.50848 0 0 1 1184.5424,718.10168 Z"
     id="path2985" />
  <path
     style="fill:url(#linearGradient913);stroke:none;stroke-width:1px;stroke-linecap:butt;stroke-linejoin:miter;stroke-opacity:1;fill-opacity:1"
     d="M 368.54714,499.46431 210.53873,341.4559 C 156.44111,255.65166 178.68233,214.95672 184.73,164.69287 l 24.66088,42.71389 -0.24302,-66.99173 280.34986,280.34986"
     id="path893"
     inkscape:connector-curvature="0"
     sodipodi:nodetypes="cccccc"
     clip-path="url(#clipPath917)" />
  <path
     style="fill:#ffffff;fill-opacity:1;stroke:none;stroke-width:1.48086846px;stroke-linecap:butt;stroke-linejoin:miter;stroke-opacity:1"
     d="m 202.63938,140.14379 c -0.069,0.025 -0.14323,0.0665 -0.21291,0.0936 -22.56171,90.83239 -0.87215,149.07768 40.5926,177.49873 36.41476,24.95966 89.74508,27.374 144.80768,5.82249 2.82751,-6.36786 -11.58616,-9.36037 -20.48646,-11.22713 -20.47393,-6.25188 -44.58392,-22.66803 -67.68544,-43.74548 l 41.1668,47.22731 -45.33594,-43.97672 27.06649,48.8977 -34.01872,-53.11518 17.98558,53.81345 -25.48249,-52.91702 -3.46631,39.21976 -1.15055,-42.74427 -21.83861,30.04115 21.04355,-32.62308 -38.86956,18.32752 34.49927,-23.34007 -52.42593,4.13184 52.97062,-9.24577 -61.46748,-29.82422 59.67913,24.01661 -58.54129,-45.56388 63.90411,44.61982 0.95071,-0.16807 c -22.34469,-24.18961 -41.95914,-51.29751 -53.85294,-75.49402 -4.51244,-7.94529 -6.63426,-23.61218 -12.74391,-28.66108 -1.90865,-1.57727 -4.20649,-2.1183 -7.08799,-1.06394 z M 184.73,164.69287 c -3.07403,7.75782 -6.11796,15.6261 -8.43734,22.62209 -44.07334,133.75688 79.33511,230.27071 187.89072,158.31695 1.20841,-0.72605 2.42503,-1.48395 3.64374,-2.2797 -49.48667,13.53024 -96.85233,8.63817 -131.84632,-15.34766 C 194.24342,299.39661 171.88313,244.11918 184.73,164.69287 Z"
     id="path12"
     inkscape:connector-curvature="0"
     sodipodi:nodetypes="ccscccccccccccccccccccccccsccccccsc" />
  <path
     style="fill:#ffffff;stroke:#000000;stroke-width:1.40996027px;stroke-linecap:butt;stroke-linejoin:miter;stroke-opacity:1"
     d="M 139.62165,180.91204 Z"
     id="path14"
     inkscape:connector-curvature="0" />
</svg>
