<?xml version="1.0" encoding="UTF-8" standalone="no"?>
<!-- Created with Inkscape (http://www.inkscape.org/) -->

<svg
   xmlns:dc="http://purl.org/dc/elements/1.1/"
   xmlns:cc="http://creativecommons.org/ns#"
   xmlns:rdf="http://www.w3.org/1999/02/22-rdf-syntax-ns#"
   xmlns:svg="http://www.w3.org/2000/svg"
   xmlns="http://www.w3.org/2000/svg"
   xmlns:sodipodi="http://sodipodi.sourceforge.net/DTD/sodipodi-0.dtd"
   xmlns:inkscape="http://www.inkscape.org/namespaces/inkscape"
   id="svg2"
   version="1.1"
   inkscape:version="0.48.4 r9939"
   width="1024"
   height="1024"
   sodipodi:docname="gnutella.svg">
  <metadata
     id="metadata8">
    <rdf:RDF>
      <cc:Work
         rdf:about="">
        <dc:format>image/svg+xml</dc:format>
        <dc:type
           rdf:resource="http://purl.org/dc/dcmitype/StillImage" />
        <dc:title></dc:title>
      </cc:Work>
    </rdf:RDF>
  </metadata>
  <defs
     id="defs6" />
  <sodipodi:namedview
     pagecolor="#ffffff"
     bordercolor="#666666"
     borderopacity="1"
     objecttolerance="10"
     gridtolerance="10"
     guidetolerance="10"
     inkscape:pageopacity="0"
     inkscape:pageshadow="2"
     inkscape:window-width="885"
     inkscape:window-height="598"
     id="namedview4"
     showgrid="false"
     inkscape:zoom="0.081483008"
     inkscape:cx="509.54122"
     inkscape:cy="599.69108"
     inkscape:window-x="15"
     inkscape:window-y="39"
     inkscape:window-maximized="0"
     inkscape:current-layer="svg2" />
  <path
     sodipodi:nodetypes="ccccc"
     inkscape:connector-curvature="0"
     id="path3759"
     d="m 951.01999,550.16356 c -3.58161,-35.23874 2.32533,-108.42066 -35.71372,-96.47623 -90.00601,28.50203 -178.57879,57.0555 -268.58481,85.55753 l 261.7988,103.56505 c 42.43452,17.2643 41.07728,-61.96337 42.49973,-92.64635 z"
     style="fill:#ffffff;fill-opacity:1;stroke:none"
     inkscape:transform-center-x="408.38196"
     inkscape:transform-center-y="249.65571" />
  <path
     sodipodi:type="arc"
     style="fill:#ff6418;fill-opacity:1;fill-rule:evenodd;stroke:none"
     id="path2985"
     sodipodi:cx="666.03387"
     sodipodi:cy="718.10168"
     sodipodi:rx="518.50848"
     sodipodi:ry="518.50848"
     d="m 1184.5424,718.10168 a 518.50848,518.50848 0 1 1 -1037.01701,0 518.50848,518.50848 0 1 1 1037.01701,0 z"
     transform="matrix(0.89349019,0,0,0.89349019,-70.450033,-120.56663)" />
  <path
     id="path3790"
     d="m 532.39083,435.76163 c -55.66909,0 -100.79686,45.12776 -100.79686,100.79686 0,1.41211 0.0263,2.81818 0.0837,4.21615 L 185.54911,439.75441 c -42.21194,-17.80162 -41.85748,61.42289 -43.66934,92.08533 3.13396,35.28138 -3.70449,108.37632 34.48314,96.91577 85.87764,-25.99988 170.48697,-52.03468 256.23624,-78.04079 3.17246,22.57672 13.82862,42.74681 29.37349,57.93726 -80.97602,38.35684 -161.15263,75.91893 -242.21961,114.36674 -35.98258,17.17246 18.20652,66.69816 39.59278,94.93334 21.94546,21.49105 74.90709,80.41488 94.20738,38.86682 L 468.86927,614.82264 c 16.23949,13.19847 36.65721,21.42996 58.97035,22.42102 l -89.54447,252.52267 c -15.73157,43.0263 63.38144,38.82474 94.09568,39.14604 35.08766,-4.84291 108.42956,-1.55976 95.12879,-39.14604 -30.18316,-84.6411 -60.3665,-168.00678 -90.54965,-252.52267 22.76333,-1.01725 43.58477,-9.55722 59.97553,-23.23074 l 115.67906,242.80596 c 19.30029,41.54806 72.26192,-17.37577 94.20737,-38.86682 21.38626,-28.23518 75.57537,-77.76088 39.59279,-94.93334 -81.37627,-38.59448 -161.84974,-76.30396 -243.14102,-114.81349 15.52187,-15.35887 26.06827,-35.7162 29.03843,-58.46776 86.85166,26.32991 172.49547,52.69297 259.44721,79.01804 38.18767,11.46055 31.34913,-61.63439 34.48314,-96.91577 -1.81191,-30.66244 -1.45742,-109.88695 -43.66933,-92.08533 L 633.04809,542.17072 c 0.10177,-1.85607 0.13961,-3.73074 0.13961,-5.61223 0,-55.6691 -45.12777,-100.79686 -100.79687,-100.79686 z"
     style="fill:#000000;fill-opacity:0.20100505;fill-rule:evenodd;stroke:none"
     inkscape:connector-curvature="0" />
  <path
     style="fill:#e8dfd0;fill-opacity:1;fill-rule:evenodd;stroke:none"
     d="m 524.63715,420.25427 c -55.66909,0 -100.79686,45.12777 -100.79686,100.79686 0,1.41211 0.0263,2.81819 0.0838,4.21616 L 177.79543,424.24706 c -42.21193,-17.80163 -41.85747,61.42289 -43.66934,92.08533 3.13396,35.28138 -3.70449,108.37632 34.48314,96.91576 85.87764,-25.99987 170.48696,-52.03468 256.23624,-78.04078 3.17246,22.57672 13.82862,42.7468 29.37349,57.93725 -80.97602,38.35685 -161.15263,75.91894 -242.21961,114.36675 -35.98258,17.17245 18.20652,66.69816 39.59278,94.93333 21.94545,21.49106 74.90709,80.41489 94.20738,38.86683 L 461.11558,599.31529 c 16.2395,13.19847 36.65722,21.42995 58.97036,22.42102 l -89.54447,252.52267 c -15.73157,43.02629 63.38144,38.82474 94.09568,39.14604 35.08766,-4.84292 108.42956,-1.55976 95.12879,-39.14604 -30.18316,-84.64111 -60.3665,-168.00678 -90.54965,-252.52267 22.76333,-1.01726 43.58476,-9.55723 59.97553,-23.23074 l 115.67906,242.80596 c 19.30029,41.54806 72.26192,-17.37577 94.20737,-38.86683 21.38626,-28.23517 75.57537,-77.76088 39.59278,-94.93333 -81.37626,-38.59449 -161.84973,-76.30396 -243.14101,-114.81349 15.52187,-15.35887 26.06827,-35.7162 29.03843,-58.46777 86.85166,26.32992 172.49547,52.69298 259.44721,79.01804 38.18767,11.46056 31.34913,-61.63438 34.48314,-96.91576 -1.81191,-30.66244 -1.45742,-109.88696 -43.66933,-92.08533 L 625.29441,526.66337 c 0.10177,-1.85607 0.1396,-3.73074 0.1396,-5.61224 0,-55.66909 -45.12776,-100.79686 -100.79686,-100.79686 z"
     id="path2987"
     inkscape:connector-curvature="0" />
  <path
     inkscape:connector-curvature="0"
     id="path3792"
     d="m 524.98097,145.20978 c -67.39402,0.14935 -136.46721,13.26168 -204.41381,43.55765 a 17.871591,17.871591 0 1 0 14.54714,32.64031 c 134.89082,-60.14501 274.23161,-47.74215 395.11812,0.27922 a 17.871591,17.871591 0 1 0 13.2069,-33.19875 C 679.57258,163.11757 610.0736,147.01403 538.43916,145.34939 c -4.47715,-0.10404 -8.96526,-0.14956 -13.45819,-0.13961 z m 1.70321,99.23326 c -57.60132,0.22106 -116.81881,13.42309 -175.09615,43.64141 a 17.871591,17.871591 0 1 0 16.4458,31.7189 c 113.74177,-58.97807 228.91291,-47.2668 329.16737,0.27922 a 17.871591,17.871591 0 1 0 15.30102,-32.27734 c -53.96516,-25.59316 -113.1158,-41.63318 -174.31435,-43.22258 -3.82491,-0.0993 -7.6636,-0.15435 -11.50369,-0.13961 z m 2.95969,85.94259 c -41.31215,0.35694 -84.13065,13.91972 -126.06588,44.39529 a 17.871591,17.871591 0 1 0 21.02494,28.89882 c 78.82126,-57.28174 149.78,-46.69285 215.61035,0.11169 a 17.871591,17.871591 0 1 0 20.7178,-29.1222 c -37.25053,-26.48465 -79.20887,-42.69333 -123.05035,-44.17192 -2.74009,-0.0924 -5.48271,-0.13548 -8.23686,-0.11168 z"
     style="font-size:medium;font-style:normal;font-variant:normal;font-weight:normal;font-stretch:normal;text-indent:0;text-align:start;text-decoration:none;line-height:normal;letter-spacing:normal;word-spacing:normal;text-transform:none;direction:ltr;block-progression:tb;writing-mode:lr-tb;text-anchor:start;baseline-shift:baseline;color:#000000;fill:#000000;fill-opacity:0.20100505;stroke:none;stroke-width:40;marker:none;visibility:visible;display:inline;overflow:visible;enable-background:accumulate;font-family:Sans;-inkscape-font-specification:Sans" />
  <path
     style="font-size:medium;font-style:normal;font-variant:normal;font-weight:normal;font-stretch:normal;text-indent:0;text-align:start;text-decoration:none;line-height:normal;letter-spacing:normal;word-spacing:normal;text-transform:none;direction:ltr;block-progression:tb;writing-mode:lr-tb;text-anchor:start;baseline-shift:baseline;color:#000000;fill:#e8dfd0;fill-opacity:1;stroke:none;stroke-width:40;marker:none;visibility:visible;display:inline;overflow:visible;enable-background:accumulate;font-family:Sans;-inkscape-font-specification:Sans"
     d="m 517.22729,129.70243 c -67.39402,0.14934 -136.46721,13.26167 -204.41381,43.55765 a 17.871591,17.871591 0 1 0 14.54714,32.64031 c 134.89082,-60.14502 274.23161,-47.74216 395.11812,0.27922 a 17.871591,17.871591 0 1 0 13.2069,-33.19875 C 671.8189,147.61022 602.31992,131.50668 530.68548,129.84204 c -4.47715,-0.10404 -8.96526,-0.14957 -13.45819,-0.13961 z m 1.70321,99.23325 c -57.60132,0.22107 -116.81881,13.4231 -175.09615,43.64142 a 17.871591,17.871591 0 1 0 16.4458,31.7189 c 113.74177,-58.97807 228.91291,-47.2668 329.16737,0.27921 a 17.871591,17.871591 0 1 0 15.30102,-32.27733 c -53.96516,-25.59316 -113.1158,-41.63319 -174.31435,-43.22259 -3.82491,-0.0993 -7.6636,-0.15434 -11.50369,-0.13961 z m 2.95969,85.94259 c -41.31216,0.35695 -84.13065,13.91973 -126.06588,44.3953 a 17.871591,17.871591 0 1 0 21.02494,28.89882 c 78.82125,-57.28175 149.78,-46.69285 215.61035,0.11169 a 17.871591,17.871591 0 1 0 20.7178,-29.1222 c -37.25053,-26.48466 -79.20888,-42.69333 -123.05035,-44.17192 -2.74009,-0.0924 -5.48271,-0.13548 -8.23686,-0.11169 z"
     id="path3770"
     inkscape:connector-curvature="0" />
</svg>
