<?xml version="1.0" encoding="UTF-8" standalone="no"?>
<!-- Created with Inkscape (http://www.inkscape.org/) -->

<svg
   xmlns:dc="http://purl.org/dc/elements/1.1/"
   xmlns:cc="http://creativecommons.org/ns#"
   xmlns:rdf="http://www.w3.org/1999/02/22-rdf-syntax-ns#"
   xmlns:svg="http://www.w3.org/2000/svg"
   xmlns="http://www.w3.org/2000/svg"
   xmlns:xlink="http://www.w3.org/1999/xlink"
   xmlns:sodipodi="http://sodipodi.sourceforge.net/DTD/sodipodi-0.dtd"
   xmlns:inkscape="http://www.inkscape.org/namespaces/inkscape"
   id="svg2"
   version="1.1"
   inkscape:version="0.48.4 r9939"
   width="512"
   height="512"
   sodipodi:docname="caffeine.svg">
  <sodipodi:namedview
     pagecolor="#ffffff"
     bordercolor="#666666"
     borderopacity="1"
     objecttolerance="10"
     gridtolerance="10"
     guidetolerance="10"
     inkscape:pageopacity="0"
     inkscape:pageshadow="2"
     inkscape:window-width="1360"
     inkscape:window-height="721"
     id="namedview4"
     showgrid="false"
     inkscape:zoom="0.70710678"
     inkscape:cx="-128.93118"
     inkscape:cy="236.58304"
     inkscape:window-x="0"
     inkscape:window-y="25"
     inkscape:window-maximized="1"
     inkscape:current-layer="svg2" />
  <metadata
     id="metadata8">
    <rdf:RDF>
      <cc:Work
         rdf:about="">
        <dc:format>image/svg+xml</dc:format>
        <dc:type
           rdf:resource="http://purl.org/dc/dcmitype/StillImage" />
        <dc:title></dc:title>
      </cc:Work>
    </rdf:RDF>
  </metadata>
  <defs
     id="defs6">
    <linearGradient
       inkscape:collect="always"
       id="linearGradient4411">
      <stop
         style="stop-color:#d75a9e;stop-opacity:1;"
         offset="0"
         id="stop4413" />
      <stop
         style="stop-color:#d75a9e;stop-opacity:0;"
         offset="1"
         id="stop4415" />
    </linearGradient>
    <linearGradient
       id="linearGradient4213"
       inkscape:collect="always">
      <stop
         id="stop4215"
         offset="0"
         style="stop-color:#f2a558;stop-opacity:1;" />
      <stop
         id="stop4217"
         offset="1"
         style="stop-color:#f2a558;stop-opacity:0;" />
    </linearGradient>
    <clipPath
       clipPathUnits="userSpaceOnUse"
       id="clipPath3881">
      <path
         sodipodi:type="arc"
         style="fill:#008dff;fill-opacity:1;fill-rule:evenodd;stroke:none"
         id="path3883"
         sodipodi:cx="539.5"
         sodipodi:cy="152.5"
         sodipodi:rx="103.5"
         sodipodi:ry="103.5"
         d="m 643,152.5 a 103.5,103.5 0 1 1 -207,0 103.5,103.5 0 1 1 207,0 z"
         transform="translate(-412,-17)" />
    </clipPath>
    <clipPath
       id="clipPath4207"
       clipPathUnits="userSpaceOnUse">
      <path
         sodipodi:type="arc"
         style="fill:#f2a558;fill-opacity:1;fill-rule:evenodd;stroke:none"
         id="path4209"
         sodipodi:cx="539.5"
         sodipodi:cy="152.5"
         sodipodi:rx="103.5"
         sodipodi:ry="103.5"
         d="m 643,152.5 a 103.5,103.5 0 1 1 -207,0 103.5,103.5 0 1 1 207,0 z"
         transform="matrix(2.1304347,0,0,2.1304347,-892.86953,-62.391327)" />
    </clipPath>
    <linearGradient
       gradientUnits="userSpaceOnUse"
       y2="98.067207"
       x2="480.36545"
       y1="240.78734"
       x1="616.55756"
       id="linearGradient4219"
       xlink:href="#linearGradient4213"
       inkscape:collect="always" />
    <clipPath
       clipPathUnits="userSpaceOnUse"
       id="clipPath4405">
      <path
         sodipodi:type="arc"
         style="fill:#d75a9e;fill-opacity:1;fill-rule:evenodd;stroke:none"
         id="path4407"
         sodipodi:cx="539.5"
         sodipodi:cy="152.5"
         sodipodi:rx="103.5"
         sodipodi:ry="103.5"
         d="m 643,152.5 a 103.5,103.5 0 1 1 -207,0 103.5,103.5 0 1 1 207,0 z"
         transform="matrix(2.1304347,0,0,2.1304347,-892.86953,-62.391327)" />
    </clipPath>
    <linearGradient
       inkscape:collect="always"
       xlink:href="#linearGradient4411"
       id="linearGradient4417"
       x1="609.91937"
       y1="220.20908"
       x2="458.45956"
       y2="87.446167"
       gradientUnits="userSpaceOnUse" />
  </defs>
  <path
     transform="matrix(2.1304347,0,0,2.1304347,-892.86953,-62.391327)"
     d="m 643,152.5 a 103.5,103.5 0 1 1 -207,0 103.5,103.5 0 1 1 207,0 z"
     sodipodi:ry="103.5"
     sodipodi:rx="103.5"
     sodipodi:cy="152.5"
     sodipodi:cx="539.5"
     id="path3772"
     style="fill:#d75a9e;fill-opacity:1;fill-rule:evenodd;stroke:none"
     sodipodi:type="arc" />
  <g
     id="g4263"
     clip-path="url(#clipPath4405)"
     style="opacity:0.24782609">
    <g
       id="g4265"
       style="fill:#000000;fill-opacity:1">
      <path
         id="path4267"
         d="M245.28113 385.86481C244.246933965 385.165366229 243.485873644 384.614665869 242.970887802 384.099680027L455.102922158 596.231714383C455.617907999 596.746700225 456.378968321 597.297400585 457.413164356 597.996844356Z" />
      <path
         id="path4269"
         d="M242.970887802 384.099680027C241.606661092 382.735453318 241.96926243 381.621853296 243.55563 378.6577L455.687664356 590.789734356C454.101296786 593.753887652 453.738695448 594.867487674 455.102922158 596.231714383Z" />
      <path
         id="path4271"
         d="M243.55563 378.6577C246.90169 372.40551 245.10554 362.05856 236.88917 340.25493L449.021204356 552.386964356C457.237574356 574.190594356 459.033724356 584.537544356 455.687664356 590.789734356Z" />
      <path
         id="path4273"
         d="M236.88917 340.25493C233.09948 330.19832 229.99884 320.66854 229.99884 319.07765L442.130874356 531.209684356C442.130874356 532.800574356 445.231514356 542.330354356 449.021204356 552.386964356Z" />
      <path
         id="path4275"
         d="M229.99884 319.07765C230.9668 313.88287 236.00207 309.96987 235.75333 305.34984L447.885364356 517.481874356C448.134104356 522.101904356 443.098834356 526.014904356 442.130874356 531.209684356Z" />
      <path
         id="path4277"
         d="M235.75333 305.34984C233.91142 303.50793 189.3719 307.87988 174.24056 311.38786L386.372594356 523.519894356C401.503934356 520.011914356 446.043454356 515.639964356 447.885364356 517.481874356Z" />
      <path
         id="path4279"
         d="M174.24056 311.38786C168.57896 312.70043 156.90981 316.46363 148.30911 319.75056L360.441144356 531.882594356C369.041844356 528.595664356 380.710994356 524.832464356 386.372594356 523.519894356Z" />
      <path
         id="path4281"
         d="M148.30911 319.75056C129.690054453 326.866185096 121.693834302 329.236070767 120.391682934 327.933919399L332.52371729 540.065953755C333.825868658 541.368105123 341.822088809 538.998219452 360.441144356 531.882594356Z" />
      <path
         id="path4283"
         d="M120.391682934 327.933919399C120.261196521 327.803432985 120.19793 327.636073044 120.19793 327.43292L332.329964356 539.564954356C332.329964356 539.768107399 332.393230877 539.935467341 332.52371729 540.065953755Z" />
      <path
         id="path4285"
         d="M120.19793 327.43292C120.19793 326.47705 121.83715 325.26629 123.84064 324.74236L335.972674356 536.874394356C333.969184356 537.398324356 332.329964356 538.609084356 332.329964356 539.564954356Z" />
      <path
         id="path4287"
         d="M123.84064 324.74236L127.48337 323.78977L339.615404356 535.921804356L335.972674356 536.874394356Z" />
      <path
         id="path4289"
         d="M127.48337 323.78977L123.71947 321.77539L335.851504356 533.907424356L339.615404356 535.921804356Z" />
      <path
         id="path4291"
         d="M123.71947 321.77539C123.101641478 321.444738073 122.607398342 321.15013958 122.286595477 320.829336715L334.418629833 532.961371071C334.739432698 533.282173935 335.233675834 533.576772429 335.851504356 533.907424356Z" />
      <path
         id="path4293"
         d="M122.286595477 320.829336715C120.750187124 319.292928362 123.191980376 317.155470035 135.0886 307.57786L347.220634356 519.709894356C335.324014732 529.287504391 332.88222148 531.424962718 334.418629833 532.961371071Z" />
      <path
         id="path4295"
         d="M135.0886 307.57786C143.41176 300.87712 161.03014 285.21719 174.24056 272.77802L386.372594356 484.910054356C373.162174356 497.349224356 355.543794356 513.009154356 347.220634356 519.709894356Z" />
      <path
         id="path4297"
         d="M174.24056 272.77802C207.97058 241.01722 225.10096 226.96387 249.63095 210.92961L461.762984356 423.061644356C437.232994356 439.095904356 420.102614356 453.149254356 386.372594356 484.910054356Z" />
      <path
         id="path4299"
         d="M249.63095 210.92961C261.34983 203.26945 267.43753 202.25448 272.14823 194.1703L484.280264356 406.302334356C479.569564356 414.386514356 473.481864356 415.401484356 461.762984356 423.061644356Z" />
      <path
         id="path4301"
         d="M272.14823 194.1703C276.62039 186.49545 274.29999 180.71354 275.45072 167.72746L487.582754356 379.859494356C486.432024356 392.845574356 488.752424356 398.627484356 484.280264356 406.302334356Z" />
      <path
         id="path4303"
         d="M275.45072 167.72746C277.73667 141.93025 279.09903 140.4378 289.56219 134.48563L501.694224356 346.617664356C491.231064356 352.569834356 489.868704356 354.062284356 487.582754356 379.859494356Z" />
      <path
         id="path4305"
         d="M289.56219 134.48563C297.30161 130.08294 302.18957 131.57294 316.03164 138.07856L528.163674356 350.210594356C514.321604356 343.704974356 509.433644356 342.214974356 501.694224356 346.617664356Z" />
      <path
         id="path4307"
         d="M316.03164 138.07856C323.92344 141.78763 334.58259 145.01832 344.4953 146.70563L556.627334356 358.837664356C546.714624356 357.150354356 536.055474356 353.919664356 528.163674356 350.210594356Z" />
      <path
         id="path4309"
         d="M344.4953 146.70563C350.385795556 147.371943266 386.399230799 156.372550886 392.054924296 162.028244383L604.186958651 374.160278739C598.531265155 368.504585242 562.517829912 359.503977622 556.627334356 358.837664356Z" />
      <path
         id="path4311"
         d="M392.054924296 162.028244383C392.744634688 162.717954775 392.982872612 163.357920471 392.65995 163.92696L604.791984356 376.058994356C605.114906968 375.489954827 604.876669044 374.849989131 604.186958651 374.160278739Z" />
      <path
         id="path4313"
         d="M392.65995 163.92696C392.26857 164.31833 382.4603 160.5753 375.22241 158.75189L587.354444356 370.883924356C594.592334356 372.707334356 604.400604356 376.450364356 604.791984356 376.058994356Z" />
      <path
         id="path4315"
         d="M375.22241 158.75189C357.44456 155.75556 325.6535 148.43455 313.26667 157.1554L525.398704356 369.287434356C537.785534356 360.566584356 569.576594356 367.887594356 587.354444356 370.883924356Z" />
      <path
         id="path4317"
         d="M313.26667 157.1554C303.90242 161.90612 309.22661 173.43256 309.96452 182.61945L522.096554356 394.751484356C521.358644356 385.564594356 516.034454356 374.038154356 525.398704356 369.287434356Z" />
      <path
         id="path4319"
         d="M309.96452 182.61945C312.54267 214.71666 311.67948 234.42966 307.18243 246.15507L519.314464356 458.287104356C523.811514356 446.561694356 524.674704356 426.848694356 522.096554356 394.751484356Z" />
      <path
         id="path4321"
         d="M307.18243 246.15507C303.199 256.54128 297.12401 263.49024 271.8622 286.55649L483.994234356 498.688524356C509.256044356 475.622274356 515.331034356 468.673314356 519.314464356 458.287104356Z" />
      <path
         id="path4323"
         d="M271.8622 286.55649C265.60008 292.27436 259.71036 299.67439 256.91509 305.33646L469.047124356 517.468494356C471.842394356 511.806424356 477.732114356 504.406394356 483.994234356 498.688524356Z" />
      <path
         id="path4325"
         d="M256.91509 305.33646C252.62436 314.02775 252.30215 316.23751 252.30215 336.97252L464.434184356 549.104554356C464.434184356 528.369544356 464.756394356 526.159784356 469.047124356 517.468494356Z" />
      <path
         id="path4327"
         d="M252.30215 336.97252C252.30215 357.63225 254.39653 376.62396 257.32619 382.5302L469.458224356 594.662234356C466.528564356 588.755994356 464.434184356 569.764284356 464.434184356 549.104554356Z" />
      <path
         id="path4329"
         d="M257.32619 382.5302C257.367641751 382.572984619 257.409304883 382.615309418 257.451176405 382.65718094L469.583210761 594.789215296C469.541339239 594.747343774 469.499676107 594.705018975 469.458224356 594.662234356Z" />
      <path
         id="path4331"
         d="M257.451176405 382.65718094C263.124874763 388.330879298 272.624800286 385.681995895 278.50565 390.99314L490.637684356 603.125174356C484.756834642 597.814030251 475.256909119 600.462913654 469.583210761 594.789215296Z" />
      <path
         id="path4333"
         d="M278.50565 390.99314C259.275489152 394.372981097 249.942175467 393.21391511 246.665323774 389.937063417L458.79735813 602.069097773C462.074209823 605.345949466 471.407523508 606.505015453 490.637684356 603.125174356Z" />
      <path
         id="path4335"
         d="M246.665323774 389.937063417C245.528940682 388.800680326 245.120932455 387.409603673 245.28113 385.86481L457.413164356 597.996844356C457.252966811 599.541638029 457.660975038 600.932714682 458.79735813 602.069097773Z" />
      <path
         id="path4337"
         d="M245.92999 321.20722C246.479301029 312.63881188 246.375892119 308.629296999 245.507572432 307.760977313L457.639606788 519.893011669C458.507926475 520.761331355 458.611335385 524.770846236 458.062024356 533.339254356Z" />
      <path
         id="path4339"
         d="M245.507572432 307.760977313C245.324350111 307.577754992 245.107070644 307.534392306 244.85468 307.61757L456.986714356 519.749604356C457.239105 519.666426662 457.456384467 519.709789348 457.639606788 519.893011669Z" />
      <path
         id="path4341"
         d="M244.85468 307.61757C239.27689 309.45585 236.99072 322.66929 240.50582 332.75272L452.637854356 544.884754356C449.122754356 534.801324356 451.408924356 521.587884356 456.986714356 519.749604356Z" />
      <path
         id="path4343"
         d="M240.50582 332.75272C241.203833162 334.755043274 241.826825522 336.045971128 242.384885541 336.604031147L454.516919897 548.736065503C453.958859878 548.178005484 453.335867518 546.88707763 452.637854356 544.884754356Z" />
      <path
         id="path4345"
         d="M242.384885541 336.604031147C244.061469968 338.280615574 245.151983567 333.342430744 245.92999 321.20722L458.062024356 533.339254356C457.284017923 545.4744651 456.193504324 550.41264993 454.516919897 548.736065503Z" />
    </g>
    <path
       style="fill:#000000;fill-opacity:1"
       d="m 245.28113,385.86481 c -3.77384,-2.55231 -3.91071,-3.12401 -1.7255,-7.20711 3.34606,-6.25219 1.54991,-16.59914 -6.66646,-38.40277 -3.78969,-10.05661 -6.89033,-19.58639 -6.89033,-21.17728 0.96796,-5.19478 6.00323,-9.10778 5.75449,-13.72781 -1.84191,-1.84191 -46.38143,2.53004 -61.51277,6.03802 -5.6616,1.31257 -17.33075,5.07577 -25.93145,8.3627 -20.48484,7.82867 -28.11118,9.91282 -28.11118,7.68236 0,-0.95587 1.63922,-2.16663 3.64271,-2.69056 l 3.64273,-0.95259 -3.7639,-2.01438 c -3.57677,-1.91423 -3.01151,-2.62011 11.36913,-14.19753 8.32316,-6.70074 25.94154,-22.36067 39.15196,-34.79984 33.73002,-31.7608 50.8604,-45.81415 75.39039,-61.84841 11.71888,-7.66016 17.80658,-8.67513 22.51728,-16.75931 4.47216,-7.67485 2.15176,-13.45676 3.30249,-26.44284 2.28595,-25.79721 3.64831,-27.28966 14.11147,-33.24183 7.73942,-4.40269 12.62738,-2.91269 26.46945,3.59293 7.8918,3.70907 18.55095,6.93976 28.46366,8.62707 6.60884,0.74757 51.13557,11.98611 48.16465,17.22133 -0.39138,0.39137 -10.19965,-3.35166 -17.43754,-5.17507 -17.77785,-2.99633 -49.56891,-10.31734 -61.95574,-1.59649 -9.36425,4.75072 -4.04006,16.27716 -3.30215,25.46405 2.57815,32.09721 1.71496,51.81021 -2.78209,63.53562 -3.98343,10.38621 -10.05842,17.33517 -35.32023,40.40142 -6.26212,5.71787 -12.15184,13.1179 -14.94711,18.77997 -4.29073,8.69129 -4.61294,10.90105 -4.61294,31.63606 0,20.65973 2.09438,39.65144 5.02404,45.55768 5.65827,5.84021 15.25521,3.1126 21.17946,8.46294 -25.89901,4.55194 -33.84666,0.871 -33.22452,-5.12833 z m 0.64886,-64.65759 c 0.66522,-10.37641 0.3732,-14.06702 -1.07531,-13.58965 -5.57779,1.83828 -7.86396,15.05172 -4.34886,25.13515 2.79506,8.01792 4.3872,4.62898 5.42417,-11.5455 z"
       id="path4247"
       inkscape:connector-curvature="0"
       sodipodi:nodetypes="cssccsssscssssasascccccsssscccssss" />
  </g>
  <path
     sodipodi:type="arc"
     style="fill:url(#linearGradient4417);fill-opacity:1;fill-rule:evenodd;stroke:none"
     id="path4409"
     sodipodi:cx="539.5"
     sodipodi:cy="152.5"
     sodipodi:rx="103.5"
     sodipodi:ry="103.5"
     d="m 643,152.5 a 103.5,103.5 0 1 1 -207,0 103.5,103.5 0 1 1 207,0 z"
     transform="matrix(2.1304347,0,0,2.1304347,-892.86953,-62.391327)" />
  <path
     sodipodi:nodetypes="cssccsssscssssasascccccsssscccssss"
     inkscape:connector-curvature="0"
     id="path2987"
     d="m 245.28113,385.86481 c -3.77384,-2.55231 -3.91071,-3.12401 -1.7255,-7.20711 3.34606,-6.25219 1.54991,-16.59914 -6.66646,-38.40277 -3.78969,-10.05661 -6.89033,-19.58639 -6.89033,-21.17728 0.96796,-5.19478 6.00323,-9.10778 5.75449,-13.72781 -1.84191,-1.84191 -46.38143,2.53004 -61.51277,6.03802 -5.6616,1.31257 -17.33075,5.07577 -25.93145,8.3627 -20.48484,7.82867 -28.11118,9.91282 -28.11118,7.68236 0,-0.95587 1.63922,-2.16663 3.64271,-2.69056 l 3.64273,-0.95259 -3.7639,-2.01438 c -3.57677,-1.91423 -3.01151,-2.62011 11.36913,-14.19753 8.32316,-6.70074 25.94154,-22.36067 39.15196,-34.79984 33.73002,-31.7608 50.8604,-45.81415 75.39039,-61.84841 11.71888,-7.66016 17.80658,-8.67513 22.51728,-16.75931 4.47216,-7.67485 2.15176,-13.45676 3.30249,-26.44284 2.28595,-25.79721 3.64831,-27.28966 14.11147,-33.24183 7.73942,-4.40269 12.62738,-2.91269 26.46945,3.59293 7.8918,3.70907 18.55095,6.93976 28.46366,8.62707 6.60884,0.74757 51.13557,11.98611 48.16465,17.22133 -0.39138,0.39137 -10.19965,-3.35166 -17.43754,-5.17507 -17.77785,-2.99633 -49.56891,-10.31734 -61.95574,-1.59649 -9.36425,4.75072 -4.04006,16.27716 -3.30215,25.46405 2.57815,32.09721 1.71496,51.81021 -2.78209,63.53562 -3.98343,10.38621 -10.05842,17.33517 -35.32023,40.40142 -6.26212,5.71787 -12.15184,13.1179 -14.94711,18.77997 -4.29073,8.69129 -4.61294,10.90105 -4.61294,31.63606 0,20.65973 2.09438,39.65144 5.02404,45.55768 5.65827,5.84021 15.25521,3.1126 21.17946,8.46294 -25.89901,4.55194 -33.84666,0.871 -33.22452,-5.12833 z m 0.64886,-64.65759 c 0.66522,-10.37641 0.3732,-14.06702 -1.07531,-13.58965 -5.57779,1.83828 -7.86396,15.05172 -4.34886,25.13515 2.79506,8.01792 4.3872,4.62898 5.42417,-11.5455 z"
     style="fill:#fffff6;fill-opacity:1" />
</svg>
