<?xml version="1.0" encoding="UTF-8" standalone="no"?>
<!-- Created with Inkscape (http://www.inkscape.org/) -->

<svg
   xmlns:dc="http://purl.org/dc/elements/1.1/"
   xmlns:cc="http://creativecommons.org/ns#"
   xmlns:rdf="http://www.w3.org/1999/02/22-rdf-syntax-ns#"
   xmlns:svg="http://www.w3.org/2000/svg"
   xmlns="http://www.w3.org/2000/svg"
   xmlns:xlink="http://www.w3.org/1999/xlink"
   xmlns:sodipodi="http://sodipodi.sourceforge.net/DTD/sodipodi-0.dtd"
   xmlns:inkscape="http://www.inkscape.org/namespaces/inkscape"
   width="512"
   height="512"
   id="svg2"
   version="1.1"
   inkscape:version="0.92.2pre0 (973e216, 2017-07-25)"
   sodipodi:docname="deepin-font-installer.svg">
  <defs
     id="defs4">
    <linearGradient
       id="linearGradient3837">
      <stop
         id="stop3839"
         offset="0"
         style="stop-color:#000000;stop-opacity:0.64782609" />
      <stop
         id="stop3841"
         offset="1"
         style="stop-color:#000000;stop-opacity:0;" />
    </linearGradient>
    <linearGradient
       id="linearGradient3889">
      <stop
         style="stop-color:#000000;stop-opacity:1;"
         offset="0"
         id="stop3891" />
      <stop
         style="stop-color:#000000;stop-opacity:0;"
         offset="1"
         id="stop3893" />
    </linearGradient>
    <linearGradient
       id="linearGradient3783">
      <stop
         style="stop-color:#000000;stop-opacity:1;"
         offset="0"
         id="stop3785" />
      <stop
         style="stop-color:#fb5549;stop-opacity:0;"
         offset="1"
         id="stop3787" />
    </linearGradient>
    <linearGradient
       inkscape:collect="always"
       xlink:href="#linearGradient3783"
       id="linearGradient3789"
       x1="-3045.6099"
       y1="379.88196"
       x2="-1068.8168"
       y2="1369.8314"
       gradientUnits="userSpaceOnUse" />
    <clipPath
       clipPathUnits="userSpaceOnUse"
       id="clipPath3793">
      <path
         d="m -937.14288,872.36218 a 762.85712,762.85712 0 1 1 -1525.71422,0 762.85712,762.85712 0 1 1 1525.71422,0 z"
         sodipodi:ry="762.85712"
         sodipodi:rx="762.85712"
         sodipodi:cy="872.36218"
         sodipodi:cx="-1700"
         id="path3795"
         style="fill:#fb5549;fill-opacity:1;fill-rule:evenodd;stroke:none"
         sodipodi:type="arc" />
    </clipPath>
    <linearGradient
       inkscape:collect="always"
       xlink:href="#linearGradient3783"
       id="linearGradient3821"
       gradientUnits="userSpaceOnUse"
       x1="-3045.6099"
       y1="379.88196"
       x2="-1068.8168"
       y2="1369.8314" />
    <linearGradient
       inkscape:collect="always"
       xlink:href="#linearGradient3889"
       id="linearGradient3895"
       x1="-217.5"
       y1="-22.843369"
       x2="470.71426"
       y2="420.01376"
       gradientUnits="userSpaceOnUse" />
    <clipPath
       clipPathUnits="userSpaceOnUse"
       id="clipPath3899">
      <path
         sodipodi:nodetypes="ssccssssccs"
         inkscape:connector-curvature="0"
         id="path3901"
         d="m 54.285714,83.428574 407.142846,0 c 16.62,0 30,13.38 30,29.999996 0,48.33333 -4.28571,96.66667 -4.28571,145 l 0,145 c 0,16.62 -13.38,30 -30,30 l -397.14285,0 c -16.62,0 -30,-13.38 -30,-30 l 0,-145 c 0,-48.33333 -5.714286,-96.66667 -5.714286,-145 0,-16.619996 13.38,-29.999996 30,-29.999996 z"
         style="color:#000000;fill:#1cc1c1;fill-opacity:1;fill-rule:evenodd;stroke:none;stroke-width:46.59999847;marker:none;visibility:visible;display:inline;overflow:visible;enable-background:accumulate" />
    </clipPath>
    <linearGradient
       y2="1369.8314"
       x2="-1068.8168"
       y1="379.88196"
       x1="-3045.6099"
       gradientUnits="userSpaceOnUse"
       id="linearGradient3821-5"
       xlink:href="#linearGradient3783-6"
       inkscape:collect="always" />
    <clipPath
       id="clipPath3793-8"
       clipPathUnits="userSpaceOnUse">
      <path
         sodipodi:type="arc"
         style="fill:#fb5549;fill-opacity:1;fill-rule:evenodd;stroke:none"
         id="path3795-3"
         sodipodi:cx="-1700"
         sodipodi:cy="872.36218"
         sodipodi:rx="762.85712"
         sodipodi:ry="762.85712"
         d="m -937.14288,872.36218 a 762.85712,762.85712 0 1 1 -1525.71422,0 762.85712,762.85712 0 1 1 1525.71422,0 z" />
    </clipPath>
    <linearGradient
       gradientUnits="userSpaceOnUse"
       y2="1369.8314"
       x2="-1068.8168"
       y1="379.88196"
       x1="-3045.6099"
       id="linearGradient3789-6"
       xlink:href="#linearGradient3783-6"
       inkscape:collect="always" />
    <linearGradient
       id="linearGradient3783-6">
      <stop
         id="stop3785-8"
         offset="0"
         style="stop-color:#000000;stop-opacity:1;" />
      <stop
         id="stop3787-8"
         offset="1"
         style="stop-color:#fb5549;stop-opacity:0;" />
    </linearGradient>
    <clipPath
       id="clipPath3891"
       clipPathUnits="userSpaceOnUse">
      <path
         style="color:#000000;fill:#385a5a;fill-opacity:1;fill-rule:evenodd;stroke:none;stroke-width:16;marker:none;visibility:visible;display:inline;overflow:visible;enable-background:accumulate"
         d="m 14.929796,1019.9515 c -1.088214,0 -1.96875,0.8806 -1.96875,1.9688 0.166816,1.3072 -0.268516,1.3767 -1.328125,1.9999 -1.104701,0.7979 -1.295073,0.8007 -2.3906252,0.1563 -0.942421,-0.5441 -2.143393,-0.2237 -2.6875,0.7188 l -0.8125,1.4062 c -0.544107,0.9424 -0.223671,2.1434 0.71875,2.6875 1.207179,0.5004 1.034696,0.9384 1.046875,2.1563 0.137759,1.3588 0.06562,1.5346 -1.046875,2.1562 -0.942421,0.5441 -1.262857,1.7138 -0.71875,2.6563 l 0.8125,1.4062 c 0.544107,0.9424 1.745079,1.2629 2.6875,0.7188 1.0596202,-0.7832 1.3312692,-0.4357 2.3906252,0.1875 1.203764,0.5637 1.328125,0.7296 1.328125,1.9687 0,1.0882 0.880536,1.9688 1.96875,1.9688 l 1.625,0 c 1.088214,0 1.96875,-0.8806 1.96875,-1.9688 -0.167594,-1.2868 0.290497,-1.3618 1.328125,-1.9843 1.103834,-0.8098 1.289728,-0.8195 2.390625,-0.1719 0.942421,0.5441 2.143393,0.2236 2.6875,-0.7188 l 0.8125,-1.4062 c 0.544107,-0.9425 0.223671,-2.1122 -0.71875,-2.6563 -1.207208,-0.5003 -1.034697,-0.9383 -1.04688,-2.1562 -0.137778,-1.3588 -0.06559,-1.5346 1.04687,-2.1563 0.942421,-0.5441 1.262857,-1.7451 0.71875,-2.6875 l -0.8125,-1.4062 c -0.544107,-0.9425 -1.745079,-1.2629 -2.6875,-0.7188 -1.057834,0.8147 -1.317775,0.4748 -2.390625,-0.1563 -1.220815,-0.569 -1.328125,-0.7444 -1.328125,-1.9999 0,-1.0882 -0.880536,-1.9688 -1.96875,-1.9688 z"
         id="path3893"
         inkscape:connector-curvature="0"
         sodipodi:nodetypes="scccccccccccccsscccccccccccccss" />
    </clipPath>
    <linearGradient
       inkscape:collect="always"
       xlink:href="#linearGradient3837"
       id="linearGradient3835"
       x1="-522.85718"
       y1="15.664351"
       x2="402.87421"
       y2="464.23578"
       gradientUnits="userSpaceOnUse" />
    <clipPath
       clipPathUnits="userSpaceOnUse"
       id="clipPath3845">
      <path
         sodipodi:nodetypes="csssscc"
         inkscape:connector-curvature="0"
         id="path3847"
         d="m 416.18301,301.68523 0,162.27579 c 0,8.70572 -7.00857,15.71429 -15.71428,15.71429 l -240.14672,0 c -8.70571,0 -15.71428,-7.00857 -15.71428,-15.71429 l 0,-162.27579 z"
         style="color:#000000;fill:#ce8757;fill-opacity:1;fill-rule:evenodd;stroke:none;stroke-width:46.59999847;marker:none;visibility:visible;display:inline;overflow:visible;enable-background:accumulate" />
    </clipPath>
    <clipPath
       clipPathUnits="userSpaceOnUse"
       id="clipPath3872">
      <path
         style="color:#000000;fill:#fb803b;fill-opacity:1;fill-rule:evenodd;stroke:none;stroke-width:16;marker:none;visibility:visible;display:inline;overflow:visible;enable-background:accumulate"
         d="m 302.909,244.00824 c -7.95532,0 -14.39242,6.43753 -14.39242,14.39312 1.21951,9.55592 -1.96296,10.06428 -9.70915,14.61944 -8.07583,5.83332 -9.46754,5.8539 -17.47649,1.14318 -6.8895,-3.97805 -15.66912,-1.63548 -19.64678,5.2547 l -5.93972,10.28009 c -3.97765,6.88918 -1.63513,15.66877 5.25437,19.64631 8.825,3.65838 7.56407,6.86008 7.65311,15.76413 1.00707,9.93281 0.4797,11.21801 -7.65311,15.76212 -6.8895,3.97805 -9.23202,12.5288 -5.25437,19.41899 l 5.93972,10.27958 c 3.97766,6.88968 12.75728,9.23225 19.64678,5.25471 7.74627,-5.72543 9.73215,-3.18514 17.47649,1.37101 8.80003,4.12106 9.70915,5.3335 9.70915,14.3921 0,7.95511 6.4371,14.39263 14.39242,14.39263 l 11.87944,0 c 7.95531,0 14.3924,-6.43752 14.3924,-14.39263 -1.22518,-9.40739 2.12366,-9.9554 9.70916,-14.50652 8.0695,-5.91963 9.42847,-5.9904 17.47649,-1.25659 6.8895,3.97754 15.66912,1.63497 19.64678,-5.25471 l 5.93972,-10.27958 c 3.97765,-6.89019 1.63513,-15.44094 -5.25437,-19.41899 -8.82521,-3.65737 -7.56408,-6.85907 -7.65314,-15.76212 -1.00722,-9.93381 -0.4795,-11.21901 7.65306,-15.76413 6.88951,-3.97754 9.23203,-12.75713 5.25437,-19.64631 l -5.93972,-10.28009 c -3.97765,-6.89018 -12.75728,-9.23275 -19.64677,-5.2547 -7.73322,5.95577 -9.63351,3.47069 -17.47649,-1.14318 -8.92468,-4.15921 -9.70916,-5.44139 -9.70916,-14.61944 0,-7.95559 -6.4371,-14.39312 -14.3924,-14.39312 z"
         id="path3874"
         inkscape:connector-curvature="0"
         sodipodi:nodetypes="scccccccccccccsscccccccccccccss" />
    </clipPath>
    <clipPath
       clipPathUnits="userSpaceOnUse"
       id="clipPath3890">
      <g
         style="fill:#fb803b;fill-opacity:1"
         inkscape:label="Capa 1"
         id="g3892"
         transform="translate(-169.08898,-42.45523)">
        <path
           style="color:#000000;fill:#fb803b;fill-opacity:1;fill-rule:evenodd;stroke:none;stroke-width:16;marker:none;visibility:visible;display:inline;overflow:visible;enable-background:accumulate"
           d="m 167.98141,661.40578 c -16.30492,0 -29.49816,13.19413 -29.49816,29.49961 2.49945,19.58548 -4.02321,20.6274 -19.89952,29.96347 -16.55194,11.95577 -19.40432,11.99794 -35.819182,2.34302 -14.12047,-8.15325 -32.114855,-3.35202 -40.26731,10.76986 l -12.173837,21.06968 c -8.152454,14.11982 -3.351303,32.11415 10.769163,40.26637 18.087387,7.49808 15.503042,14.06017 15.685521,32.30958 2.064069,20.35793 0.983193,22.99202 -15.685521,32.30546 -14.120466,8.15326 -18.921617,25.67858 -10.769163,39.80045 l 12.173837,21.06866 c 8.152455,14.12084 26.14684,18.92207 40.26731,10.76985 15.876482,-11.73463 19.946652,-6.52815 35.819182,2.80998 18.03621,8.44637 19.89952,10.93134 19.89952,29.49752 0,16.3045 13.19324,29.4986 29.49816,29.4986 l 24.34767,0 c 16.30491,0 29.49814,-13.1941 29.49814,-29.4986 -2.51109,-19.28104 4.35258,-20.40423 19.89955,-29.73203 16.53894,-12.13267 19.32424,-12.2777 35.81917,-2.57547 14.12046,8.15222 32.11485,3.35099 40.26731,-10.76985 l 12.17384,-21.06866 c 8.15244,-14.12187 3.3513,-31.64719 -10.76917,-39.80045 -18.08782,-7.49601 -15.50306,-14.0581 -15.6856,-32.30546 -2.06435,-20.35998 -0.98276,-22.99408 15.68544,-32.30958 14.12048,-8.15222 18.92163,-26.14655 10.76917,-40.26637 l -12.17384,-21.06968 c -8.15245,-14.12188 -26.14685,-18.92311 -40.2673,-10.76986 -15.84972,12.20673 -19.74448,7.1134 -35.81917,-2.34302 -18.2917,-8.52455 -19.89954,-11.15247 -19.89954,-29.96347 0,-16.30548 -13.19324,-29.49961 -29.49814,-29.49961 z"
           id="path3894"
           inkscape:connector-curvature="0"
           sodipodi:nodetypes="scccccccccccccsscccccccccccccss" />
        <path
           sodipodi:nodetypes="scccccccccccccsscccccccccccccss"
           inkscape:connector-curvature="0"
           id="path3896"
           d="m 167.98141,661.40578 c -16.30492,0 -29.49816,13.19413 -29.49816,29.49961 2.49945,19.58548 -4.02321,20.6274 -19.89952,29.96347 -16.55194,11.95577 -19.40432,11.99794 -35.819182,2.34302 -14.12047,-8.15325 -32.114855,-3.35202 -40.26731,10.76986 l -12.173837,21.06968 c -8.152454,14.11982 -3.351303,32.11415 10.769163,40.26637 18.087387,7.49808 15.503042,14.06017 15.685521,32.30958 2.064069,20.35793 0.983193,22.99202 -15.685521,32.30546 -14.120466,8.15326 -18.921617,25.67858 -10.769163,39.80045 l 12.173837,21.06866 c 8.152455,14.12084 26.14684,18.92207 40.26731,10.76985 15.876482,-11.73463 19.946652,-6.52815 35.819182,2.80998 18.03621,8.44637 19.89952,10.93134 19.89952,29.49752 0,16.3045 13.19324,29.4986 29.49816,29.4986 l 24.34767,0 c 16.30491,0 29.49814,-13.1941 29.49814,-29.4986 -2.51109,-19.28104 4.35258,-20.40423 19.89955,-29.73203 16.53894,-12.13267 19.32424,-12.2777 35.81917,-2.57547 14.12046,8.15222 32.11485,3.35099 40.26731,-10.76985 l 12.17384,-21.06866 c 8.15244,-14.12187 3.3513,-31.64719 -10.76917,-39.80045 -18.08782,-7.49601 -15.50306,-14.0581 -15.6856,-32.30546 -2.06435,-20.35998 -0.98276,-22.99408 15.68544,-32.30958 14.12048,-8.15222 18.92163,-26.14655 10.76917,-40.26637 l -12.17384,-21.06968 c -8.15245,-14.12188 -26.14685,-18.92311 -40.2673,-10.76986 -15.84972,12.20673 -19.74448,7.1134 -35.81917,-2.34302 -18.2917,-8.52455 -19.89954,-11.15247 -19.89954,-29.96347 0,-16.30548 -13.19324,-29.49961 -29.49814,-29.49961 z"
           style="color:#000000;fill:#fb803b;fill-opacity:1;fill-rule:evenodd;stroke:none;stroke-width:16;marker:none;visibility:visible;display:inline;overflow:visible;enable-background:accumulate" />
        <path
           style="color:#000000;fill:#fb803b;fill-opacity:1;fill-rule:evenodd;stroke:none;stroke-width:16;marker:none;visibility:visible;display:inline;overflow:visible;enable-background:accumulate"
           d="m 167.98141,661.40578 c -16.30492,0 -29.49816,13.19413 -29.49816,29.49961 2.49945,19.58548 -4.02321,20.6274 -19.89952,29.96347 -16.55194,11.95577 -19.40432,11.99794 -35.819182,2.34302 -14.12047,-8.15325 -32.114855,-3.35202 -40.26731,10.76986 l -12.173837,21.06968 c -8.152454,14.11982 -3.351303,32.11415 10.769163,40.26637 18.087387,7.49808 15.503042,14.06017 15.685521,32.30958 2.064069,20.35793 0.983193,22.99202 -15.685521,32.30546 -14.120466,8.15326 -18.921617,25.67858 -10.769163,39.80045 l 12.173837,21.06866 c 8.152455,14.12084 26.14684,18.92207 40.26731,10.76985 15.876482,-11.73463 19.946652,-6.52815 35.819182,2.80998 18.03621,8.44637 19.89952,10.93134 19.89952,29.49752 0,16.3045 13.19324,29.4986 29.49816,29.4986 l 24.34767,0 c 16.30491,0 29.49814,-13.1941 29.49814,-29.4986 -2.51109,-19.28104 4.35258,-20.40423 19.89955,-29.73203 16.53894,-12.13267 19.32424,-12.2777 35.81917,-2.57547 14.12046,8.15222 32.11485,3.35099 40.26731,-10.76985 l 12.17384,-21.06866 c 8.15244,-14.12187 3.3513,-31.64719 -10.76917,-39.80045 -18.08782,-7.49601 -15.50306,-14.0581 -15.6856,-32.30546 -2.06435,-20.35998 -0.98276,-22.99408 15.68544,-32.30958 14.12048,-8.15222 18.92163,-26.14655 10.76917,-40.26637 l -12.17384,-21.06968 c -8.15245,-14.12188 -26.14685,-18.92311 -40.2673,-10.76986 -15.84972,12.20673 -19.74448,7.1134 -35.81917,-2.34302 -18.2917,-8.52455 -19.89954,-11.15247 -19.89954,-29.96347 0,-16.30548 -13.19324,-29.49961 -29.49814,-29.49961 z"
           id="path3898"
           inkscape:connector-curvature="0"
           sodipodi:nodetypes="scccccccccccccsscccccccccccccss" />
      </g>
    </clipPath>
  </defs>
  <sodipodi:namedview
     id="base"
     pagecolor="#ffffff"
     bordercolor="#666666"
     borderopacity="1.0"
     inkscape:pageopacity="0.0"
     inkscape:pageshadow="2"
     inkscape:zoom="0.7"
     inkscape:cx="100.36013"
     inkscape:cy="245.7485"
     inkscape:document-units="px"
     inkscape:current-layer="layer1"
     showgrid="false"
     showguides="true"
     inkscape:guide-bbox="true"
     inkscape:window-width="1360"
     inkscape:window-height="740"
     inkscape:window-x="0"
     inkscape:window-y="0"
     inkscape:window-maximized="1" />
  <metadata
     id="metadata7">
    <rdf:RDF>
      <cc:Work
         rdf:about="">
        <dc:format>image/svg+xml</dc:format>
        <dc:type
           rdf:resource="http://purl.org/dc/dcmitype/StillImage" />
        <dc:title />
      </cc:Work>
    </rdf:RDF>
  </metadata>
  <g
     inkscape:label="Capa 1"
     inkscape:groupmode="layer"
     id="layer1"
     transform="translate(0,-540.36218)">
    <g
       transform="matrix(-0.91228668,0.4095522,0.4095522,0.91228668,-313.94233,76.213487)"
       id="g910">
      <rect
         style="fill:#2eaf76;fill-opacity:1"
         id="rect900"
         width="175.76654"
         height="235.36555"
         x="-270.72089"
         y="680.62604"
         ry="15.152288" />
      <g
         aria-label="A"
         transform="matrix(4.2909634,0,0,4.2909634,690.85986,-140.57494)"
         style="font-style:normal;font-variant:normal;font-weight:bold;font-stretch:normal;font-size:40px;line-height:1.25;font-family:sans-serif;-inkscape-font-specification:'sans-serif Bold';letter-spacing:0px;word-spacing:0px;fill:#ffffff;fill-opacity:1;stroke:none"
         id="flowRoot908">
        <path
           d="m -190.07336,224.10023 -10.08,-29.16 h -6.64 l -10.36,29.16 h 6.12 l 1.96,-5.88 h 10.92 l 1.92,5.88 z m -9.72,-10.88 h -7.6 l 3.8,-11.4 z"
           style=""
           id="path60" />
      </g>
    </g>
    <g
       id="g898"
       transform="rotate(24.176708,214.06244,1949.0119)">
      <rect
         ry="15.152288"
         y="680.62604"
         x="-270.72089"
         height="235.36555"
         width="175.76654"
         id="rect883"
         style="fill:#2e5daf;fill-opacity:1" />
      <g
         aria-label="A"
         transform="matrix(4.2909634,0,0,4.2909634,690.85986,-140.57494)"
         style="font-style:normal;font-variant:normal;font-weight:bold;font-stretch:normal;font-size:40px;line-height:1.25;font-family:sans-serif;-inkscape-font-specification:'sans-serif Bold';letter-spacing:0px;word-spacing:0px;fill:#ffffff;fill-opacity:1;stroke:none"
         id="flowRoot885">
        <path
           d="m -190.07336,224.10023 -10.08,-29.16 h -6.64 l -10.36,29.16 h 6.12 l 1.96,-5.88 h 10.92 l 1.92,5.88 z m -9.72,-10.88 h -7.6 l 3.8,-11.4 z"
           style=""
           id="path63" />
      </g>
    </g>
    <path
       style="color:#000000;fill:#535d6c;fill-opacity:1;fill-rule:evenodd;stroke:none;stroke-width:46.59999847;marker:none;visibility:visible;display:inline;overflow:visible;enable-background:accumulate"
       d="m 447.13721,733.2243 0,231.53491 c 0,12.42125 -9.99672,22.42115 -22.41418,22.42115 l -342.534934,0 c -12.41745,0 -22.41417,-9.9999 -22.41417,-22.42115 l 0,-231.53491 z"
       id="rect3796"
       inkscape:connector-curvature="0"
       sodipodi:nodetypes="csssscc" />
    <path
       style="color:#000000;fill:#ffffff;fill-opacity:1;fill-rule:evenodd;stroke:none;stroke-width:46.59999847;marker:none;visibility:visible;display:inline;overflow:visible;enable-background:accumulate"
       d="m 252.82277,781.55397 c -18.59985,0 -33.5809,14.98567 -33.5809,33.5913 l 0,43.75426 -11.58573,0 c -5.33779,-0.004 -10.59456,3.00578 -13.26126,7.63113 -2.66668,4.62534 -2.64092,10.67829 0.0358,15.29795 l 45.8083,79.34249 c 2.66635,4.61698 7.89505,7.63106 13.22561,7.63106 5.33051,0 10.55921,-3.01408 13.22557,-7.63106 l 45.80834,-79.34249 c 2.67654,-4.61966 2.66668,-10.67261 0,-15.29795 -2.66672,-4.62535 -7.88785,-7.63496 -13.22561,-7.63113 l -11.58577,0 0,-43.75426 c 0,-18.60563 -14.98102,-33.5913 -33.58085,-33.5913 l -1.28336,0 z"
       id="rect3849"
       inkscape:connector-curvature="0" />
    <path
       style="fill:url(#linearGradient3835);fill-opacity:1;stroke:none"
       d="M 144.28571,350.57143 396.9922,496.47158 c 0,0 88.72209,-45.90015 87.29351,-55.90015 -1.42857,-10 -10,-108.57143 -10,-108.57143 z"
       id="path3827"
       inkscape:connector-curvature="0"
       transform="matrix(1.4263569,0,0,1.4267989,-146.48831,302.78015)"
       clip-path="url(#clipPath3845)" />
    <path
       style="fill:#6f7c91;fill-opacity:1;stroke:none"
       d="m 60.755446,732.23213 -32.60244,74.39736 458.471864,0 -40.75306,-74.39736 z"
       id="path3799"
       inkscape:connector-curvature="0"
       sodipodi:nodetypes="ccccc" />
    <g
       style="fill:#693a1f;fill-opacity:1"
       transform="matrix(0.48790879,0,0,0.48790879,231.30653,468.09329)"
       id="g3862"
       inkscape:label="Capa 1" />
    <g
       style="fill:#fb803b;fill-opacity:1"
       inkscape:label="Capa 1"
       id="g3867"
       transform="matrix(0.48790879,0,0,0.48790879,138.44939,440.95044)" />
  </g>
</svg>
