<svg height="512" width="512" xmlns="http://www.w3.org/2000/svg" xmlns:xlink="http://www.w3.org/1999/xlink"><linearGradient id="a" gradientUnits="userSpaceOnUse" x1="29.511513" x2="458.77386" y1="-128.74805" y2="342.47689"><stop offset="0"/><stop offset="1" stop-opacity="0"/></linearGradient><path d="m44.322082 27.405077c0 10.896448-8.833315 19.729765-19.729762 19.729765s-19.7297621-8.833317-19.7297621-19.729765c.000001-10.896448 8.8333161-19.7297633 19.7297621-19.7297632 10.896446 0 19.729761 8.8333152 19.729762 19.7297632z" fill="#296df7" opacity=".99" transform="matrix(12.332308 0 0 12.332308 -47.545312 -73.4136)"/><path d="m283.13477 168.17188c-157.56123-.83398-159.91643 77.45761-116.48243 179.09179l152.29297 152.29297c84.39131-22.64353 150.67935-89.51445 172.45899-174.25586l-154.26758-154.26758c-19.74248-1.84155-37.70252-2.77505-54.00195-2.86132z" fill="url(#a)"/><g fill="#fff" transform="matrix(.03952922 0 0 -.03952922 131.21771 389.012011)"><path d="m2790 6284c-667-80-1288-365-1779-817-523-483-869-1137-983-1858-20-128-22-180-22-464s2-336 22-464c161-1022 784-1888 1687-2348 326-165 627-262 980-314 189-28 721-28 910 0 630 93 1215 373 1684 804 523 483 869 1137 983 1858 20 128 22 180 22 464s-2 336-22 464c-163 1032-792 1900-1711 2359-347 174-677 272-1061 316-167 20-547 20-710 0zm-830-1839c219-39 434-140 610-286 31-26 173-171 315-323s261-275 264-274c4 2 109 113 235 248 323 346 403 415 614 520 192 96 348 129 604 130 267 0 423-36 639-147 351-181 595-505 681-906 28-132 30-359 5-489-82-415-329-748-694-936-203-104-368-142-621-142-246 0-413 35-600 125-209 100-278 159-604 507-137 148-253 268-258 268s-13-6-17-14c-10-17-463-496-516-545-68-63-208-158-304-205-204-101-363-136-612-136-195 0-298 15-448 65-450 150-774 516-875 988-31 145-30 370 1 517 112 527 511 923 1036 1030 118 24 420 27 545 5z"/><path d="m1589 3900c-200-20-401-132-517-286-224-299-212-680 32-967 87-103 243-195 391-232 95-24 313-24 410-1 127 32 255 102 350 193 63 61 500 534 500 542 0 5-22 33-50 63-515 555-513 552-638 612-50 24-121 51-157 59-83 20-224 27-321 17z"/><path d="m4484 3900c-134-14-265-65-369-142-52-39-123-111-384-393-31-33-89-94-129-136l-73-77 262-278c271-288 334-346 429-394 236-119 569-114 784 12 198 116 333 307 372 528 51 288-72 585-312 748-117 79-216 115-359 132-99 11-116 11-221 0z"/></g></svg>