<?xml version="1.0" encoding="UTF-8" standalone="no"?>
<!-- Created with Inkscape (http://www.inkscape.org/) -->

<svg
   xmlns:dc="http://purl.org/dc/elements/1.1/"
   xmlns:cc="http://creativecommons.org/ns#"
   xmlns:rdf="http://www.w3.org/1999/02/22-rdf-syntax-ns#"
   xmlns:svg="http://www.w3.org/2000/svg"
   xmlns="http://www.w3.org/2000/svg"
   xmlns:xlink="http://www.w3.org/1999/xlink"
   xmlns:sodipodi="http://sodipodi.sourceforge.net/DTD/sodipodi-0.dtd"
   xmlns:inkscape="http://www.inkscape.org/namespaces/inkscape"
   width="512"
   height="512"
   id="svg2"
   version="1.1"
   inkscape:version="0.48.4 r9939"
   sodipodi:docname="eclipse.svg"
   viewBox="0 0 512 512"
   inkscape:export-filename="/home/cecilia/Descargas/iconos/eclipse.png"
   inkscape:export-xdpi="90"
   inkscape:export-ydpi="90">
  <defs
     id="defs4">
    <linearGradient
       id="linearGradient6154"
       inkscape:collect="always">
      <stop
         id="stop6156"
         offset="0"
         style="stop-color:#eeeeec;stop-opacity:1;" />
      <stop
         id="stop6158"
         offset="1"
         style="stop-color:#eeeeec;stop-opacity:0;" />
    </linearGradient>
    <linearGradient
       id="linearGradient7987">
      <stop
         id="stop7989"
         offset="0"
         style="stop-color:#5c3566;stop-opacity:1;" />
      <stop
         id="stop7991"
         offset="1"
         style="stop-color:#2e1a33;stop-opacity:1;" />
    </linearGradient>
    <radialGradient
       gradientTransform="matrix(0,1.3497047,-1.3415671,0,786.32749,52.080333)"
       gradientUnits="userSpaceOnUse"
       r="196.85715"
       fy="405.91141"
       fx="241.43044"
       cy="405.91141"
       cx="241.43044"
       id="radialGradient7993"
       xlink:href="#linearGradient7987"
       inkscape:collect="always" />
    <radialGradient
       r="196.85715"
       fy="405.91141"
       fx="241.43044"
       cy="405.91141"
       cx="241.43044"
       gradientTransform="matrix(0,1.3497047,-1.3415671,0,786.32749,52.080333)"
       gradientUnits="userSpaceOnUse"
       id="radialGradient3146"
       xlink:href="#linearGradient7987"
       inkscape:collect="always" />
    <linearGradient
       gradientTransform="translate(18.428579,-2.3571416)"
       gradientUnits="userSpaceOnUse"
       y2="254.5"
       x2="446.5"
       y1="254.5"
       x1="52.499993"
       id="linearGradient6160"
       xlink:href="#linearGradient6154"
       inkscape:collect="always" />
    <radialGradient
       gradientTransform="matrix(0,1.3497047,-1.3415671,0,786.32749,52.080333)"
       gradientUnits="userSpaceOnUse"
       r="196.85715"
       fy="405.91141"
       fx="241.43044"
       cy="405.91141"
       cx="241.43044"
       id="radialGradient7993-8"
       xlink:href="#linearGradient7987"
       inkscape:collect="always" />
    <radialGradient
       r="196.85715"
       fy="405.91141"
       fx="241.43044"
       cy="405.91141"
       cx="241.43044"
       gradientTransform="matrix(0,1.3497047,-1.3415671,0,786.32749,52.080333)"
       gradientUnits="userSpaceOnUse"
       id="radialGradient3146-9"
       xlink:href="#linearGradient7987"
       inkscape:collect="always" />
    <linearGradient
       gradientTransform="translate(18.428579,-2.3571416)"
       gradientUnits="userSpaceOnUse"
       y2="254.5"
       x2="446.5"
       y1="254.5"
       x1="52.499993"
       id="linearGradient7661"
       xlink:href="#linearGradient6154"
       inkscape:collect="always" />
    <linearGradient
       y2="405.68152"
       x2="400.82437"
       y1="165.89639"
       x1="161.03925"
       gradientTransform="matrix(1.2359473,0,0,1.2359473,-40.440259,-62.405718)"
       gradientUnits="userSpaceOnUse"
       id="linearGradient7201"
       xlink:href="#linearGradient6154"
       inkscape:collect="always" />
    <radialGradient
       r="196.85715"
       fy="405.91141"
       fx="241.43044"
       cy="405.91141"
       cx="241.43044"
       gradientTransform="matrix(0,1.5526404,-1.5432793,0,954.63684,-36.903022)"
       gradientUnits="userSpaceOnUse"
       id="radialGradient2189"
       xlink:href="#linearGradient7987"
       inkscape:collect="always" />
    <clipPath
       id="clipPath3778"
       clipPathUnits="userSpaceOnUse">
      <path
         style="fill:#268fd1;fill-opacity:1;stroke:none"
         d="m 253.01694,355.52542 4.0678,-4.88135 c -15.18797,0.78705 -19.80867,-2.65281 -24.40678,-6.1017 l 13.01695,-2.84745 c -12.11974,-14.4479 -9.14699,-22.8588 -11.38984,-33.35594 l 6.91526,6.1017 c 2.39559,-76.65068 33.62727,-116.11645 63.60328,-125.07612 16.02146,-6.38812 2.39612,-24.46596 5.14248,-25.83914 l -45.9661,10.98306 19.52542,-53.69492 2.44068,-5.28814 c 0,0 11.79661,-21.559319 -12.20339,-38.644065 l -79.32203,56.135595 -46.77966,11.38983 -39.86441,38.64407 -27.833607,7.32033 c 0,0 -12.19134,15.07543 -19.55929,21.28511 -10.81871,9.11796 -35.66695,23.01094 -35.66695,23.01094 0,0 23.40901,29.77238 40.26913,36.24221 7.87728,3.0228 17.38746,2.89653 25.31203,0 7.54074,-2.75624 18.408737,-15.53238 18.408737,-15.53238 0,0 -3.85544,17.31939 -3.77751,26.11447 0.10467,11.81406 9.22626,23.70863 5.69492,34.98305 -3.38213,10.79805 -23.593207,24.40678 -23.593207,24.40678 z"
         id="path3780"
         inkscape:connector-curvature="0"
         sodipodi:nodetypes="csccccccccccccccacaacaacc" />
    </clipPath>
    <clipPath
       id="clipPath3798"
       clipPathUnits="userSpaceOnUse">
      <path
         sodipodi:nodetypes="ccccccscc"
         inkscape:connector-curvature="0"
         id="path3800"
         d="m 186.05157,146.54572 -42.23324,24.02788 -13.80656,35.09167 -50.048779,1.15055 -47.172412,29.33894 12.080739,20.70984 c -69.650534,-35.4392 4.004178,-68.43483 47.473263,-90.49264 27.012749,-13.70726 52.873029,-22.31591 55.531329,-22.15384 z"
         style="fill:#ffffff;fill-opacity:0.16336634;stroke:none" />
    </clipPath>
    <clipPath
       id="clipPath3829"
       clipPathUnits="userSpaceOnUse">
      <path
         sodipodi:type="arc"
         style="fill:#f000ca;fill-opacity:1;fill-rule:evenodd;stroke:none"
         id="path3831"
         sodipodi:cx="165.96609"
         sodipodi:cy="175.72882"
         sodipodi:rx="182.23729"
         sodipodi:ry="182.23729"
         d="m 348.20338,175.72882 a 182.23729,182.23729 0 1 1 -364.474574,0 182.23729,182.23729 0 1 1 364.474574,0 z"
         transform="translate(19.624122,6.7876437)" />
    </clipPath>
    <radialGradient
       inkscape:collect="always"
       xlink:href="#linearGradient7987"
       id="radialGradient8407"
       gradientUnits="userSpaceOnUse"
       gradientTransform="matrix(0,1.5526404,-1.5432793,0,238.12619,-270.61595)"
       cx="241.43044"
       cy="405.91141"
       fx="241.43044"
       fy="405.91141"
       r="196.85715" />
    <radialGradient
       inkscape:collect="always"
       xlink:href="#linearGradient7987"
       id="radialGradient8424"
       gradientUnits="userSpaceOnUse"
       gradientTransform="matrix(0,1.5526404,-1.5432793,0,238.12619,-270.61595)"
       cx="241.43044"
       cy="405.91141"
       fx="241.43044"
       fy="405.91141"
       r="196.85715" />
    <clipPath
       clipPathUnits="userSpaceOnUse"
       id="clipPath3018">
      <circle
         d="m 658.12578,484.36798 c 0,122.52676 -99.32757,221.85433 -221.85433,221.85433 -122.52676,0 -221.85432,-99.32757 -221.85432,-221.85433 0,-122.52676 99.32756,-221.85432 221.85432,-221.85432 122.52676,0 221.85433,99.32756 221.85433,221.85432 z"
         r="221.85432"
         id="circle3020"
         style="fill:url(#radialGradient3022);fill-opacity:1;fill-rule:nonzero;stroke:none"
         cx="436.27145"
         cy="484.36798"
         sodipodi:cx="436.27145"
         sodipodi:cy="484.36798"
         sodipodi:rx="221.85432"
         sodipodi:ry="221.85432"
         transform="matrix(1.1268656,0,0,1.1268656,-479.04591,-565.94553)" />
    </clipPath>
    <radialGradient
       inkscape:collect="always"
       xlink:href="#linearGradient7987"
       id="radialGradient3022"
       gradientUnits="userSpaceOnUse"
       gradientTransform="matrix(0,1.5526404,-1.5432793,0,954.63684,-36.903022)"
       cx="241.43044"
       cy="405.91141"
       fx="241.43044"
       fy="405.91141"
       r="196.85715" />
  </defs>
  <sodipodi:namedview
     id="base"
     pagecolor="#ffffff"
     bordercolor="#666666"
     borderopacity="1.0"
     inkscape:pageopacity="0.0"
     inkscape:pageshadow="2"
     inkscape:zoom="0.57982756"
     inkscape:cx="361.91658"
     inkscape:cy="255.65585"
     inkscape:document-units="px"
     inkscape:current-layer="layer1"
     showgrid="false"
     fit-margin-top="0"
     fit-margin-left="0"
     fit-margin-right="0"
     fit-margin-bottom="0"
     inkscape:window-width="1360"
     inkscape:window-height="721"
     inkscape:window-x="0"
     inkscape:window-y="25"
     inkscape:window-maximized="1" />
  <metadata
     id="metadata7">
    <rdf:RDF>
      <cc:Work
         rdf:about="">
        <dc:format>image/svg+xml</dc:format>
        <dc:type
           rdf:resource="http://purl.org/dc/dcmitype/StillImage" />
        <dc:title></dc:title>
      </cc:Work>
    </rdf:RDF>
  </metadata>
  <g
     inkscape:label="Capa 1"
     inkscape:groupmode="layer"
     id="layer1"
     transform="translate(-180.23661,-225.8125)">
    <path
       style="fill:url(#radialGradient8424);fill-opacity:1;fill-rule:nonzero;stroke:none;stroke-width:12.94553566;stroke-miterlimit:4;stroke-dasharray:none;stroke-opacity:1"
       d="M -350.08008 40.373047 C -353.27469 41.49521 -356.44846 42.673308 -359.58984 43.9375 C -360.59057 44.340225 -361.56749 44.799734 -362.5625 45.216797 A 221.85432 221.85432 0 0 1 -350.08008 40.373047 z "
       id="path8422"
       transform="translate(180.23661,225.8125)" />
    <path
       style="fill:url(#radialGradient8407);fill-opacity:1;fill-rule:nonzero;stroke:none;stroke-width:12.94553566;stroke-miterlimit:4;stroke-dasharray:none;stroke-opacity:1"
       d="M -338.32617 36.601562 A 221.85432 221.85432 0 0 0 -346.9082 39.318359 C -344.30458 38.446815 -341.69986 37.576551 -339.06641 36.800781 C -338.82124 36.72856 -338.57158 36.672946 -338.32617 36.601562 z "
       id="path8420"
       transform="translate(180.23661,225.8125)" />
    <circle
       cy="484.36798"
       cx="436.27145"
       style="fill:#7c3173;fill-opacity:1;fill-rule:nonzero;stroke:none;stroke-width:12.94553566000000089;stroke-miterlimit:4;stroke-dasharray:none;stroke-opacity:1"
       id="path9029"
       r="221.85432"
       d="m 658.12578,484.36798 c 0,122.52676 -99.32757,221.85433 -221.85433,221.85433 -122.52676,0 -221.85432,-99.32757 -221.85432,-221.85433 0,-122.52676 99.32756,-221.85432 221.85432,-221.85432 122.52676,0 221.85433,99.32756 221.85433,221.85432 z" />
    <path
       style="opacity:1;fill:#3c2242;fill-opacity:1;fill-rule:nonzero;stroke:none;stroke-width:0.5;stroke-linecap:butt;stroke-linejoin:miter;stroke-miterlimit:4;stroke-dasharray:none;stroke-opacity:1"
       d=""
       id="path7454"
       inkscape:connector-curvature="0"
       transform="translate(180.23661,225.8125)" />
    <path
       style="opacity:1;fill:#3c2242;fill-opacity:1;fill-rule:nonzero;stroke:none;stroke-width:0.5;stroke-linecap:butt;stroke-linejoin:miter;stroke-miterlimit:4;stroke-dasharray:none;stroke-opacity:1"
       d=""
       id="path7466"
       inkscape:connector-curvature="0"
       transform="translate(180.23661,225.8125)" />
    <g
       id="g7520"
       transform="matrix(0.88741731,0,0,0.88741731,425.11363,502.22986)"
       style="fill:#e1cfd1;fill-opacity:1"
       clip-path="url(#clipPath3018)">
      <path
         inkscape:connector-curvature="0"
         id="path7440"
         d="m -160.1108,6.890541 c -21.9402,-0.959903 -53.5935,-6.648145 -67.3929,-12.110823 -11.1143,-4.399721 -22.2103,-11.735889 -29.7769,-19.687118 -4.1349,-4.3451 -6.1545,-8.02999 -6.8446,-12.48865 -1.2926,-8.35081 3.0413,-18.36195 11.4493,-26.447328 5.9592,-5.73062 17.2393,-14.45634 21.4602,-16.60064 2.8888,-1.46754 2.157,-0.33596 -1.5848,2.45084 -4.1194,3.06796 -12.0303,11.00183 -14.2567,14.29815 -2.1136,3.12922 -3.7867,6.745328 -4.6342,10.015888 -0.7937,3.06286 -0.8206,8.24946 -0.056,10.79004 2.0382,6.77231 15.065,18.86951 25.8239,23.981059 7.46,3.544259 21.5346,7.648409 33.8784,9.878985 5.9395,1.073295 18.7423,2.852238 23.1855,3.221629 1.4415,0.119839 5.8871,0.488125 9.879,0.818407 30.8232,2.550234 73.9742,1.324214 113.5081,-3.225032 64.3525,-7.405193 118.9547,-21.372888 175.9331,-45.005198 8.4136,-3.4896 10.8208,-4.20669 7.8825,-2.34816 -1.9916,1.25976 -15.0163,7.59472 -21.4241,10.42027 C 63.0153,-21.378001 -5.5328,-3.783366 -74.9866,4.110364 -98.4019,6.771622 -135.291,7.976432 -160.1108,6.890541 Z"
         style="opacity:1;fill:#e1cfd1;fill-opacity:1;fill-rule:nonzero;stroke:none;stroke-width:0.50000000000000000;stroke-linecap:butt;stroke-linejoin:miter;stroke-miterlimit:4;stroke-dasharray:none;stroke-opacity:1" />
      <path
         inkscape:connector-curvature="0"
         id="path7491"
         d="m -241.644,-21.977859 c -2.437,2.11074 -4.745,4.20278 -6.5879,6.08593 -8.1588,8.33678 -12.1881,18.47351 -10.6426,26.78125 0.825,4.43566 2.9559,8.05777 7.2207,12.27539 7.8043,7.71798 19.1167,14.71299 30.3595,18.77344 13.9588,5.04144 45.7711,9.76878 67.7304,10.0625 24.8413,0.33227 61.6763,-1.99274 85,-5.36328 69.1823,-9.99757 137.1647,-29.66477 190.3223,-55.05859 6.3191,-3.01869 19.1472,-9.74485 21.0996,-11.06446 0.7202,-0.4867 1.1103,-0.80212 1.1621,-0.94336 0.1555,-0.42371 -2.7428,0.72183 -8.9707,3.5293 -56.2351,25.35035 -110.3862,40.96781 -174.4844,50.32227 -39.3777,5.74674 -82.473,8.2837 -113.3593,6.66992 -4.0002,-0.209 -8.4559,-0.44349 -9.9004,-0.51953 -4.4523,-0.2344 -17.3023,-1.62501 -23.2715,-2.51758 -12.4058,-1.855 -26.6,-5.52748 -34.1641,-8.84375 -10.9091,-4.78273 -24.2943,-16.48015 -26.5371,-23.1875 -0.841,-2.51619 -0.9738,-7.70158 -0.2735,-10.78711 0.7479,-3.29477 2.3124,-6.95847 4.3301,-10.15039 0.6955,-1.10027 1.9427,-2.62759 3.461,-4.32617 l -2.4942,-1.73828 z"
         style="opacity:1;fill:#e1cfd1;fill-opacity:1;fill-rule:nonzero;stroke:none;stroke-width:0.50000000000000000;stroke-linecap:butt;stroke-linejoin:miter;stroke-miterlimit:4;stroke-dasharray:none;stroke-opacity:1" />
      <path
         transform="translate(180.23661,225.8125)"
         id="path7481"
         d="m -15.736328,-230.90625 c 0.131,-0.44963 -2.790569,0.93936 -9.042969,4.28125 -56.4568,30.17586 -111.436743,50.12858 -177.152343,64.29102 -40.3714,8.70044 -84.8148,14.33613 -116.9082,14.82226 -4.1562,0.063 -8.78416,0.13217 -10.28516,0.1543 -4.6262,0.0683 -18.03044,-0.4732 -24.27344,-0.98047 -12.975,-1.05433 -27.92653,-3.86795 -35.99023,-6.77344 -11.6296,-4.19029 -26.31086,-15.36597 -29.10156,-22.15429 -1.0469,-2.5466 -1.54271,-7.90856 -1.03321,-11.15235 0.5447,-3.46367 1.90509,-7.36467 3.77149,-10.81055 0.7012,-1.29472 2.08489,-3.18103 3.71875,-5.24804 l -2.39258,-1.81836 c -2.65213,2.60392 -5.18781,5.19367 -7.14258,7.48047 -7.8657,9.20193 -11.32894,19.98047 -9.14844,28.47461 1.164,4.53519 3.62183,8.13591 8.33203,12.20507 8.6201,7.44637 20.82335,13.90118 32.74805,17.32032 14.8053,4.24516 48.07238,6.91698 70.83008,5.6875 25.7449,-1.39084 63.72582,-6.37139 87.64062,-11.49024 70.9351,-15.18337 139.949301,-40.29485 193.216801,-70.30078 6.3322,-3.56696 19.144719,-11.42892 21.074219,-12.93164 0.7117,-0.55423 1.094972,-0.90677 1.138672,-1.05664 z"
         style="opacity:1;fill:#e1cfd1;fill-opacity:1;fill-rule:nonzero;stroke:none;stroke-width:0.50000000000000000;stroke-linecap:butt;stroke-linejoin:miter;stroke-miterlimit:4;stroke-dasharray:none;stroke-opacity:1"
         inkscape:connector-curvature="0" />
      <path
         inkscape:connector-curvature="0"
         id="path7493"
         d="m 172.70536,18.40039 c 0.1049,-0.43896 -2.64025,1.03789 -8.49805,4.55273 -52.8936,31.73778 -104.85658,53.56556 -167.42578,70.33399 -38.4384,10.3014 -80.94089,17.84713 -111.80469,19.84766 -3.9971,0.25908 -8.44887,0.54763 -9.89257,0.64062 -4.4492,0.28663 -17.37345,0.40494 -23.40625,0.21484 -12.5374,-0.39503 -27.06369,-2.38961 -34.96289,-4.80078 -11.3927,-3.47741 -26.0527,-13.53175 -29.0625,-19.93164 -1.1292,-2.40088 -1.8645,-7.53542 -1.5293,-10.68164 0.25296,-2.37107 1.01254,-4.93647 1.95703,-7.45117 l -4.61133,-2.1582 c -6.96467,9.16102 -9.73143,19.55562 -7.2539,27.54101 1.337,4.30913 3.87561,7.65832 8.60351,11.34961 8.6515,6.75479 20.7022,12.3824 32.3418,15.10352 14.4517,3.37855 46.5979,4.35994 68.4414,2.08984 24.7106,-2.56805 61.02353,-9.1717 83.79493,-15.24023 67.5434,-18.00027 132.76751,-45.46479 182.59961,-76.88672 5.9238,-3.73527 17.87886,-11.91278 19.66406,-13.45117 0.6584,-0.56739 1.00992,-0.92595 1.04492,-1.07227 z"
         style="opacity:1;fill:#e1cfd1;fill-opacity:1;fill-rule:nonzero;stroke:none;stroke-width:0.50000000000000000;stroke-linecap:butt;stroke-linejoin:miter;stroke-miterlimit:4;stroke-dasharray:none;stroke-opacity:1" />
    </g>
    <path
       style="fill:#b55999;fill-opacity:1;fill-rule:nonzero;stroke:none;stroke-width:12.94553566;stroke-miterlimit:4;stroke-dasharray:none;stroke-opacity:1"
       d="m 266.36642,344.1875 c -1.93398,1.75066 -3.87332,3.49581 -5.74308,5.31549 -0.54227,0.52774 -1.0501,1.09059 -1.58681,1.62407 a 222.79833,222.79833 0 0 0 -9.93467,14.50482 c 1.74768,-1.38236 3.39747,-2.8858 5.18604,-4.21513 5.14063,-3.82075 10.44587,-7.42048 15.89547,-10.78986 5.4496,-3.36937 11.04455,-6.50888 16.76048,-9.40705 5.71592,-2.89817 11.55444,-5.55435 17.49404,-7.96146 5.93961,-2.40711 11.97948,-4.56476 18.10012,-6.46097 6.12066,-1.89621 12.32164,-3.53224 18.58069,-4.89771 6.25905,-1.36545 12.57696,-2.46072 18.93178,-3.2756 6.35481,-0.81486 12.74548,-1.34825 19.15342,-1.59267 3.63772,-0.13877 7.27743,-0.18413 10.91539,-0.13731 3.63795,0.0468 7.27549,0.18641 10.90558,0.41583 3.63009,0.22941 7.25417,0.54817 10.86832,0.95717 3.61413,0.40901 7.21742,0.90707 10.80751,1.49266 3.59009,0.5856 7.16717,1.25912 10.72512,2.01832 3.55796,0.75918 7.09757,1.60438 10.6153,2.53418 3.51773,0.92979 7.01249,1.94479 10.48191,3.04218 3.46941,1.0974 6.91395,2.27643 10.32696,3.53843 3.413,1.262 6.79408,2.60714 10.14258,4.03075 3.34851,1.4236 6.66267,2.92713 9.9386,4.50934 3.27592,1.58222 6.51386,3.24226 9.7091,4.98008 3.19524,1.73783 6.34962,3.55255 9.45609,5.44299 3.10647,1.89044 6.16598,3.85601 9.1756,5.89608 3.00961,2.04005 5.96887,4.15464 8.87352,6.34132 2.90467,2.18667 5.75436,4.44646 8.54598,6.77676 2.79163,2.33029 5.52439,4.73147 8.19489,7.20239 2.67048,2.47092 5.27692,5.00985 7.81632,7.61233 2.53939,2.60248 5.01149,5.26862 7.41618,7.99482 2.4047,2.72619 4.74185,5.51166 7.00821,8.35375 2.26637,2.84208 4.46209,5.74098 6.5865,8.69112 2.12442,2.95014 4.17809,5.95263 6.15695,9.00299 1.97885,3.05037 3.88398,6.14857 5.71367,9.29132 1.82967,3.14276 3.58369,6.32881 5.26057,9.55611 1.67687,3.22732 3.27524,6.4953 4.79571,9.79934 1.52046,3.30404 2.96257,6.64412 4.32299,10.01705 1.36044,3.37294 2.6398,6.77921 3.83658,10.2132 1.19677,3.43399 2.31081,6.89662 3.34032,10.38384 1.02951,3.48721 1.97369,6.99834 2.83231,10.53095 0.85863,3.5326 1.63234,7.0863 2.31646,10.65648 0.68413,3.57017 1.27891,7.15661 1.78491,10.75651 0.50599,3.59991 0.9232,7.21318 1.24747,10.83497 0.32426,3.6218 0.55544,7.25207 0.69435,10.88794 0.24433,6.39692 0.1984,12.80068 -0.12946,19.18872 -0.32786,6.38804 -0.93664,12.76131 -1.82021,19.09653 -0.88358,6.33523 -2.04109,12.6325 -3.46389,18.87098 -1.42281,6.23848 -3.11102,12.41813 -5.05658,18.51595 -1.94557,6.09783 -4.1484,12.11431 -6.60024,18.02756 -2.45183,5.91324 -5.15322,11.723 -8.09484,17.40774 -2.73456,5.28456 -5.72358,10.4331 -8.86765,15.48357 a 222.79833,222.79833 0 0 0 15.87782,-13.36129 c 3.18125,-4.31331 6.29606,-8.67761 9.15598,-13.21027 3.41495,-5.41233 6.5988,-10.97177 9.54042,-16.65652 2.94164,-5.68475 5.64105,-11.49449 8.09289,-17.40774 2.45183,-5.91324 4.65467,-11.92974 6.60023,-18.02755 1.94556,-6.09783 3.63377,-12.27747 5.05658,-18.51595 1.42281,-6.23851 2.58032,-12.53576 3.4639,-18.87098 0.88357,-6.33523 1.49431,-12.70851 1.82217,-19.09655 0.32786,-6.38803 0.37379,-12.79179 0.12945,-19.18872 -0.1389,-3.63587 -0.37204,-7.26613 -0.6963,-10.88792 -0.32427,-3.62181 -0.73952,-7.23508 -1.24552,-10.83498 -0.506,-3.5999 -1.10274,-7.18634 -1.78686,-10.75651 -0.68413,-3.57017 -1.45587,-7.12387 -2.3145,-10.65648 -0.85862,-3.53262 -1.8028,-7.04373 -2.83231,-10.53095 -1.02951,-3.48722 -2.14355,-6.94985 -3.34033,-10.38384 -1.19677,-3.43399 -2.4781,-6.84027 -3.83853,-10.2132 -1.36043,-3.37293 -2.80058,-6.71301 -4.32104,-10.01705 -1.52046,-3.30403 -3.1208,-6.57202 -4.79767,-9.79933 -1.67688,-3.22732 -3.4309,-6.41336 -5.26057,-9.55611 -1.82967,-3.14276 -3.73481,-6.24097 -5.71366,-9.29133 -1.97885,-3.05037 -4.03057,-6.05285 -6.15499,-9.00299 -2.12442,-2.95014 -4.3221,-5.84903 -6.58847,-8.69112 -2.26636,-2.84209 -4.60155,-5.62756 -7.00624,-8.35376 -2.40469,-2.72619 -4.87875,-5.39234 -7.41815,-7.9948 -2.5394,-2.60248 -5.14387,-5.14142 -7.81436,-7.61234 -2.6705,-2.47092 -5.40521,-4.87209 -8.19684,-7.20239 -2.79162,-2.3303 -5.64132,-4.59008 -8.54597,-6.77676 -2.90467,-2.18667 -5.86393,-4.30127 -8.87354,-6.34133 -3.00961,-2.04005 -6.06913,-4.00563 -9.1756,-5.89607 -3.10647,-1.89044 -6.25888,-3.70516 -9.45412,-5.44298 -3.19524,-1.73782 -6.43318,-3.39788 -9.7091,-4.98009 -3.27592,-1.58222 -6.5901,-3.08574 -9.9386,-4.50934 -3.34851,-1.4236 -6.73154,-2.76875 -10.14455,-4.03075 -3.413,-1.26199 -6.85559,-2.44104 -10.325,-3.53843 -3.46941,-1.0974 -6.96614,-2.11239 -10.48387,-3.04219 -3.51773,-0.92979 -7.05733,-1.77498 -10.61528,-2.53418 -3.55796,-0.75918 -7.13309,-1.43271 -10.72318,-2.01831 -3.59009,-0.5856 -7.19534,-1.08365 -10.80947,-1.49265 -3.61413,-0.40901 -7.23822,-0.72777 -10.86832,-0.95718 -3.63009,-0.22942 -7.26566,-0.369 -10.90362,-0.41583 -3.63795,-0.0468 -7.27765,-10e-4 -10.91539,0.1373 -6.40793,0.24444 -12.80057,0.77978 -19.15538,1.59465 -6.35481,0.81487 -12.67273,1.90817 -18.93178,3.27364 -6.25905,1.36545 -12.45806,3.0015 -18.57872,4.8977 -6.12065,1.89621 -12.16248,4.05386 -18.10209,6.46098 -5.9396,2.4071 -11.77812,5.06525 -17.49404,7.96342 -5.71593,2.89817 -11.30891,6.0357 -16.75851,9.40509 -5.4496,3.36937 -10.75483,6.96911 -15.89548,10.78985 -5.14063,3.82074 -10.11591,7.86352 -14.90494,12.11579 0.41291,-0.54387 0.8591,-1.06059 1.27689,-1.60053 z"
       id="path8429"
       inkscape:connector-curvature="0" />
    <path
       style="fill:#d379b7;fill-opacity:1;fill-rule:nonzero;stroke:none;stroke-width:12.94553566;stroke-miterlimit:4;stroke-dasharray:none;stroke-opacity:1"
       d="m 378.73365,269.00178 c -0.24646,0.0717 -0.49718,0.12754 -0.74339,0.20007 -2.64466,0.77907 -5.26046,1.65304 -7.87516,2.52829 a 222.79833,222.79833 0 0 0 -3.18538,1.05918 c -3.2082,1.12693 -6.39547,2.31005 -9.55022,3.57962 -3.37573,1.3585 -6.71991,2.79879 -10.02686,4.31712 -3.30696,1.51833 -6.57685,3.11527 -9.80718,4.78982 -3.23034,1.67456 -6.42202,3.42556 -9.56789,5.25273 -3.14587,1.82717 -6.24755,3.72963 -9.30113,5.70582 -3.05357,1.97618 -6.05739,4.02554 -9.01083,6.14713 -2.95343,2.1216 -5.85547,4.31527 -8.70092,6.57866 -2.84547,2.2634 -5.63588,4.59681 -8.36553,6.9984 -2.72964,2.40159 -5.39862,4.87216 -8.00463,7.40835 -2.60599,2.53618 -5.14763,5.13933 -7.62213,7.8065 -2.4046,2.59185 -4.74119,5.2394 -7.01017,7.94382 -2.26898,2.70442 -4.47009,5.46572 -6.60611,8.27922 4.78903,-4.25226 9.76431,-8.29504 14.90494,-12.11578 5.14064,-3.82075 10.44588,-7.42048 15.89548,-10.78986 5.4496,-3.36939 11.04258,-6.50692 16.75851,-9.40509 5.71592,-2.89816 11.55443,-5.55631 17.49404,-7.96342 5.93961,-2.40712 11.98144,-4.56476 18.10209,-6.46098 6.12065,-1.8962 12.31967,-3.53223 18.57872,-4.8977 6.25905,-1.36546 12.57697,-2.45877 18.93177,-3.27364 6.35482,-0.81486 12.74746,-1.35021 19.15539,-1.59465 3.63773,-0.13875 7.27743,-0.18412 10.91539,-0.1373 3.63795,0.0468 7.27352,0.18642 10.90362,0.41583 3.6301,0.22942 7.25418,0.54818 10.86832,0.95718 3.61413,0.409 7.21938,0.90705 10.80947,1.49265 3.59009,0.5856 7.16522,1.25913 10.72317,2.01833 3.55796,0.75918 7.09755,1.60437 10.61529,2.53416 3.51772,0.9298 7.01446,1.9448 10.48387,3.04219 3.46941,1.09739 6.912,2.27644 10.325,3.53844 3.41301,1.26199 6.79603,2.60714 10.14454,4.03074 3.34851,1.42361 6.66268,2.92713 9.9386,4.50934 3.27592,1.58221 6.51386,3.24227 9.70911,4.98009 3.19524,1.73782 6.34765,3.55254 9.45412,5.44298 3.10647,1.89044 6.16598,3.85602 9.1756,5.89608 3.00961,2.04006 5.96887,4.15465 8.87353,6.34132 2.90466,2.18668 5.75436,4.44646 8.54597,6.77676 2.79163,2.3303 5.52635,4.73148 8.19684,7.2024 2.6705,2.47091 5.27496,5.00985 7.81436,7.61233 2.5394,2.60247 5.01347,5.26861 7.41816,7.9948 2.40468,2.7262 4.73988,5.51168 7.00624,8.35376 2.26636,2.84209 4.46405,5.74098 6.58847,8.69112 2.12442,2.95014 4.17613,5.95263 6.15499,9.00299 1.97885,3.05036 3.88398,6.14857 5.71366,9.29133 1.82967,3.14275 3.58369,6.32879 5.26056,9.55611 1.67688,3.22731 3.27722,6.4953 4.79767,9.79933 1.52047,3.30404 2.96062,6.64412 4.32105,10.01705 1.36043,3.37293 2.64175,6.77922 3.83852,10.21321 1.19679,3.43399 2.31083,6.89662 3.34034,10.38383 1.0295,3.48722 1.97368,6.99834 2.83231,10.53095 0.85862,3.53261 1.63037,7.08631 2.3145,10.65649 0.68411,3.57016 1.28086,7.1566 1.78686,10.7565 0.506,3.5999 0.92125,7.21317 1.24551,10.83498 0.32427,3.6218 0.55741,7.25206 0.69631,10.88792 0.24434,6.39694 0.1984,12.80069 -0.12945,19.18873 -0.32786,6.38803 -0.9386,12.76132 -1.82218,19.09654 -0.88357,6.33522 -2.04108,12.63249 -3.46389,18.87098 -1.42281,6.23848 -3.11102,12.41812 -5.05659,18.51595 -1.94556,6.09782 -4.14839,12.11431 -6.60022,18.02756 -2.45184,5.91324 -5.15126,11.72299 -8.09289,17.40773 -2.94163,5.68475 -6.12548,11.2442 -9.54043,16.65652 -2.85991,4.53266 -5.97471,8.89697 -9.15597,13.21027 a 222.79833,222.79833 0 0 0 69.73884,-161.72822 222.79833,222.79833 0 0 0 -222.79752,-222.79753 222.79833,222.79833 0 0 0 -58.33506,7.83397 z"
       id="circle8405"
       inkscape:connector-curvature="0" />
  </g>
</svg>
