<svg height="512" width="512" xmlns="http://www.w3.org/2000/svg" xmlns:xlink="http://www.w3.org/1999/xlink"><clipPath id="a"><rect height="417" ry="60.628601" width="416" x="51" y="54"/></clipPath><linearGradient id="b" gradientUnits="userSpaceOnUse" x1="-241" x2="454" y1="73" y2="454"><stop offset="0"/><stop offset="1" stop-opacity="0"/></linearGradient><rect fill="#ececec" height="366" rx="16" width="418" x="47" y="56"/><rect fill="#1f61f5" height="112" rx="16" width="452" x="30" y="385"/><rect fill="#1f61f5" height="112" rx="16" width="452" x="30" y="385"/><path d="m336.60742 306.69141-57.60742 22.30859-4 56-7.98633 111.79688h183.76758l-3.61719 10.5625c47.35966-1.02361 85.92895-1.95764 87.79492-2.31836l-52.95898-52.95899-67.08398-67.08203z" fill="url(#b)"/><rect fill="#96a1ae" fill-opacity=".536946" height="15.556366" rx="3.272078" width="113.1371" x="65.053833" y="340.88019"/><rect fill="#96a1ae" fill-opacity=".536946" height="15.556366" rx="3.272078" width="113.1371" x="65.053833" y="307.88187"/><circle cx="256" cy="387" fill="#1f61f5" r="114"/><path clip-path="url(#a)" d="m319.41016 93.494141c-17.93684.02813-22.4672.466954-29.08204 1.835937-12.38836 2.563802-20.13684 5.502232-28 10.617192-15.59625 10.14532-24.50816 23.60751-29.65429 44.79882-1.54705 6.37059-2.0419 14.18931-2.52539 39.80274l-.60156 31.875-16.46876.53125-16.46874.53125v32.9375 32.9375l16.46874.53125 16.46876.53125v96.6875 96.64648h91.375l-.27149-96.91211-.27148-96.95312h25.375c20.11493 0 25.62431-.30035 26.57617-1.44727 1.06409-1.28215 7.56054-54.99109 7.56054-62.50781v-2.94922l-29.48437-.28125-29.48437-.2832-.28907-20.61719c-.15903-11.33947.19996-23.26825.79883-26.50781 1.26455-6.84057 4.83656-11.24025 10.58594-13.04102 2.07854-.65102 14.77617-1.48363 28.2168-1.85156l24.4375-.66992v-32.9375-32.937502l-42.28126-.277344c-9.53136-.06264-17.00152-.09922-22.98046-.08984z" fill="#fff" transform="matrix(.43104021 0 0 .43104021 130.7222 265.34048)"/><g fill="#96a1ae" fill-opacity=".536946"><rect height="86.267029" rx="3.272078" width="197.9899" x="217.78889" y="135.81918"/><rect height="15.556366" rx="3.272078" width="113.1371" x="217.78889" y="240.47099"/><rect height="15.556366" rx="3.272078" width="113.1371" x="65.053833" y="142.89026"/><rect height="15.556366" rx="3.272078" width="113.1371" x="65.053833" y="175.8886"/><rect height="15.556366" rx="3.272078" width="113.1371" x="65.053833" y="208.8869"/><rect height="15.556366" rx="3.272078" width="113.1371" x="65.053833" y="241.88522"/><rect height="15.556366" rx="3.272078" width="113.1371" x="65.053833" y="274.88354"/></g></svg>