<svg height="512" width="512" xmlns="http://www.w3.org/2000/svg" xmlns:xlink="http://www.w3.org/1999/xlink"><linearGradient id="a" gradientUnits="userSpaceOnUse" x1="138.95711" x2="283.89377" y1="-370.97635" y2="475.5845"><stop offset="0"/><stop offset="1" stop-opacity="0"/></linearGradient><path d="m44.322082 27.405077c0 10.896448-8.833315 19.729765-19.729762 19.729765s-19.7297621-8.833317-19.7297621-19.729765c.000001-10.896448 8.8333161-19.7297633 19.7297621-19.7297632 10.896446 0 19.729761 8.8333152 19.729762 19.7297632z" fill="#6042f8" opacity=".99" transform="matrix(12.332308 0 0 12.332308 -47.545312 -73.4136)"/><path d="m189.49609 179.00391-34.75195 83.93359-34.75 83.93359 159.8125 159.8125c94.501-9.28205 173.13306-72.62299 204.55274-158.68945l-110.32618-110.32617c-.20151-.20152-.41666-.3894-.62304-.58594-.25244-.2404-.50199-.48383-.76172-.7168-.29277-.26258-.5964-.51444-.89844-.76757-.25408-.21295-.50498-.42851-.76562-.63477-.31053-.24574-.63132-.48055-.95118-.7168-.27673-.20438-.55026-.41209-.83398-.60937-.31675-.22025-.64525-.42924-.9707-.64063-.29517-.19171-.58635-.38784-.88868-.57226-.32399-.19765-.65995-.38298-.99218-.57227-.33093-.18854-.65894-.38031-.99805-.56054-.30474-.16197-.62029-.31349-.93164-.46875-.37115-.18509-.73859-.37327-1.11914-.54883-.34635-.15979-.70445-.30709-1.0586-.45899-.35998-.1544-.71593-.31273-1.08398-.45898-.36884-.14656-.75002-.28155-1.12695-.41992-.37211-.13661-.73914-.27762-1.11914-.40625-.38917-.13173-.792-.24969-1.18946-.37305-.38837-.12054-.77167-.24683-1.16797-.35937-.37222-.10572-.7575-.19821-1.13671-.29688-.43384-.11288-.86171-.23229-1.30469-.33594-.38343-.08972-.77963-.16523-1.16992-.24804-.45755-.09708-.90997-.19954-1.37696-.28711-.46361-.08694-.94309-.15876-1.41601-.23633-.39232-.06435-.77706-.13545-1.17578-.19336-.54228-.07877-1.10016-.14213-1.6543-.20899-.36867-.04446-.72959-.09557-1.10352-.13476-.49663-.05207-1.00776-.09006-1.51367-.13281-.43832-.03705-.86916-.08127-1.31445-.11133-.35625-.02405-.72523-.03512-1.08594-.05469-.6157-.03342-1.22676-.07141-1.85547-.0918-.98388-.0319-1.98423-.04882-3-.04882-7.0426 0-14.31709.57775-21.79297 1.73242s-15.15314 2.88627-23.0039 5.19531l1.15429 9.8125 1.1543 9.81445 23.74805 23.74805c-3.5187 1.13059-6.75768 2.4124-9.70899 3.85156l-100.5664-100.5664h-9.4668z" fill="url(#a)"/><g fill="#fff" stroke-width="5.772619" transform="translate(-.265243 392.554263)"><path d="m277.73571-45.682449-69.04053-167.867771h-18.93419l-69.50233 167.867771h23.78319l21.47414-55.186241h66.26967l21.93595 55.186241zm-54.26262-73.889531h-49.87543l25.63043-68.80962z"/><path d="m328.01161-42.449783c14.77791 0 28.17038-5.310809 39.94653-15.470619l3.46357 15.470619 20.31962-4.38719c-3.23267-11.545239-4.849-21.705049-4.849-30.47943v-39.253807c0-33.7121-16.16334-50.56815-49.18272-50.56815-14.08519 0-29.094 2.30905-44.79552 6.92714l2.30904 19.62691c15.00881-5.77262 28.8631-8.54348 41.33196-8.54348 16.85605 0 26.32314 8.77439 28.63219 26.09224-52.64629.69272-78.96943 15.70153-78.96943 45.026433 0 22.166858 18.70328 35.559334 41.79376 35.559334zm37.17567-40.639239c0 12.699762-21.93595 21.474144-36.25205 21.474144-13.62338 0-20.55052-6.234429-20.55052-18.472382 0-15.239715 19.16509-23.32138 56.80257-24.0141z"/></g></svg>