<?xml version="1.0" encoding="UTF-8" standalone="no"?>
<!-- Created with Inkscape (http://www.inkscape.org/) -->

<svg
   xmlns:dc="http://purl.org/dc/elements/1.1/"
   xmlns:cc="http://creativecommons.org/ns#"
   xmlns:rdf="http://www.w3.org/1999/02/22-rdf-syntax-ns#"
   xmlns:svg="http://www.w3.org/2000/svg"
   xmlns="http://www.w3.org/2000/svg"
   xmlns:xlink="http://www.w3.org/1999/xlink"
   xmlns:sodipodi="http://sodipodi.sourceforge.net/DTD/sodipodi-0.dtd"
   xmlns:inkscape="http://www.inkscape.org/namespaces/inkscape"
   id="svg2"
   version="1.1"
   inkscape:version="0.48.4 r9939"
   width="512"
   height="513"
   sodipodi:docname="alienarena.svg"
   viewBox="0 0 512 513"
   inkscape:export-filename="/home/silerio/Imágenes/iconos/alien arena.png"
   inkscape:export-xdpi="90"
   inkscape:export-ydpi="90">
  <sodipodi:namedview
     pagecolor="#ffffff"
     bordercolor="#666666"
     borderopacity="1"
     objecttolerance="10"
     gridtolerance="10"
     guidetolerance="10"
     inkscape:pageopacity="0"
     inkscape:pageshadow="2"
     inkscape:window-width="1360"
     inkscape:window-height="721"
     id="namedview4"
     showgrid="false"
     showguides="false"
     inkscape:guide-bbox="true"
     inkscape:zoom="0.1767767"
     inkscape:cx="735.31775"
     inkscape:cy="126.65377"
     inkscape:window-x="0"
     inkscape:window-y="25"
     inkscape:window-maximized="1"
     inkscape:current-layer="svg2"
     inkscape:document-units="px" />
  <metadata
     id="metadata8">
    <rdf:RDF>
      <cc:Work
         rdf:about="">
        <dc:format>image/svg+xml</dc:format>
        <dc:type
           rdf:resource="http://purl.org/dc/dcmitype/StillImage" />
        <dc:title></dc:title>
      </cc:Work>
    </rdf:RDF>
  </metadata>
  <defs
     id="defs6">
    <linearGradient
       inkscape:collect="always"
       id="linearGradient4250">
      <stop
         style="stop-color:#ffd075;stop-opacity:1;"
         offset="0"
         id="stop4252" />
      <stop
         style="stop-color:#ffd075;stop-opacity:0;"
         offset="1"
         id="stop4254" />
    </linearGradient>
    <linearGradient
       inkscape:collect="always"
       id="linearGradient4240">
      <stop
         style="stop-color:#ffd075;stop-opacity:1;"
         offset="0"
         id="stop4242" />
      <stop
         style="stop-color:#ffd075;stop-opacity:0;"
         offset="1"
         id="stop4244" />
    </linearGradient>
    <clipPath
       id="clipPath3866"
       clipPathUnits="userSpaceOnUse">
      <path
         transform="matrix(0.68724124,0,0,0.68724124,-521.35527,-47.661719)"
         sodipodi:type="arc"
         style="fill:#44abb1;fill-opacity:1;fill-rule:evenodd;stroke:none"
         id="path3868"
         sodipodi:cx="1132"
         sodipodi:cy="449"
         sodipodi:rx="312"
         sodipodi:ry="312"
         d="m 1444,449 a 312,312 0 1 1 -624,0 312,312 0 1 1 624,0 z" />
    </clipPath>
    <clipPath
       clipPathUnits="userSpaceOnUse"
       id="clipPath4234">
      <path
         transform="matrix(0.68724124,0,0,0.68724124,-521.35527,-47.661719)"
         sodipodi:type="arc"
         style="fill:#ffd075;fill-opacity:1;fill-rule:evenodd;stroke:none"
         id="path4236"
         sodipodi:cx="1132"
         sodipodi:cy="449"
         sodipodi:rx="312"
         sodipodi:ry="312"
         d="m 1444,449 a 312,312 0 1 1 -624,0 312,312 0 1 1 624,0 z" />
    </clipPath>
    <linearGradient
       inkscape:collect="always"
       xlink:href="#linearGradient4240"
       id="linearGradient4246"
       x1="1416.7656"
       y1="759.72968"
       x2="1444"
       y2="449"
       gradientUnits="userSpaceOnUse" />
    <linearGradient
       inkscape:collect="always"
       xlink:href="#linearGradient4250"
       id="linearGradient4256"
       x1="1371.4938"
       y1="691.82184"
       x2="894.56409"
       y2="263.79688"
       gradientUnits="userSpaceOnUse" />
  </defs>
  <path
     d="m 1444,449 a 312,312 0 1 1 -624,0 312,312 0 1 1 624,0 z"
     sodipodi:ry="312"
     sodipodi:rx="312"
     sodipodi:cy="449"
     sodipodi:cx="1132"
     id="path3779"
     style="fill:#ffd075;fill-opacity:1;fill-rule:evenodd;stroke:none"
     sodipodi:type="arc"
     transform="matrix(0.68724124,0,0,0.68724124,-521.35527,-47.661719)" />
  <g
     id="g3942"
     clip-path="url(#clipPath4234)"
     style="opacity:0.32608696">
    <g
       id="g3944"
       style="fill:#000000;fill-opacity:1;fill-rule:evenodd;stroke:none">
      <path
         id="path3946"
         d="M177.70696 183.7427C150.9843 183.7427 129.33035 205.41216 129.33035 232.13481L412.173062475 514.977522475C412.173062475 488.254872475 433.827012475 466.585412475 460.549672475 466.585412475Z" />
      <path
         id="path3948"
         d="M129.33035 232.13481C129.33035 235.14424 129.59484 238.07881 130.12061 240.9362L412.963322475 523.778912475C412.437552475 520.921522475 412.173062475 517.986952475 412.173062475 514.977522475Z" />
      <path
         id="path3950"
         d="M130.12061 240.9362C130.60985 266.95526 133.49115 307.93806 149.55183 333.18027L432.394542475 616.022982475C416.333862475 590.780772475 413.452562475 549.797972475 412.963322475 523.778912475Z" />
      <path
         id="path3952"
         d="M149.55183 333.18027C166.36541 348.51413 200.22479 313.87842 217.29769 293.729L500.140402475 576.571712475C483.067502475 596.721132475 449.208122475 631.356842475 432.394542475 616.022982475Z" />
      <path
         id="path3954"
         d="M217.29769 293.729C218.00494 293.8008 218.72539 293.83747 219.45155 293.83747L502.294262475 576.680182475C501.568102475 576.680182475 500.847652475 576.643512475 500.140402475 576.571712475Z" />
      <path
         id="path3956"
         d="M219.45155 293.83747C227.63555 293.83747 244.53443 289.16048 248.00955 282.33988L530.852262475 565.182592475C527.377142475 572.003192475 510.478262475 576.680182475 502.294262475 576.680182475Z" />
      <path
         id="path3958"
         d="M248.00955 282.33988C260.36318 281.65017 255.18014 281.8585 267.53375 282.80474L550.376462475 565.647452475C538.022852475 564.701212475 543.205892475 564.492882475 530.852262475 565.182592475Z" />
      <path
         id="path3960"
         d="M267.53375 282.80474C267.969803552 283.609857978 268.572939964 284.38330155 269.310385156 285.120746742L552.153097631 567.963459217C551.415652439 567.226014024 550.812516027 566.452570453 550.376462475 565.647452475Z" />
      <path
         id="path3962"
         d="M269.310385156 285.120746742C274.592019888 290.402381473 286.763058313 293.83747 293.78295 293.83747L576.625662475 576.680182475C569.605770788 576.680182475 557.434732362 573.245093948 552.153097631 567.963459217Z" />
      <path
         id="path3964"
         d="M293.78295 293.83747C295.24571 293.83747 296.66579 293.6875 298.0442 293.40359L580.886912475 576.246302475C579.508502475 576.530212475 578.088422475 576.680182475 576.625662475 576.680182475Z" />
      <path
         id="path3966"
         d="M298.0442 293.40359C302.608360923 298.134081141 307.833773787 303.641459774 313.332934526 309.140620513L596.175647001 591.983332988C590.676486262 586.484172249 585.451073397 580.976793615 580.886912475 576.246302475Z" />
      <path
         id="path3968"
         d="M313.332934526 309.140620513C332.463422206 328.271108193 354.906822729 347.302142433 364.34896 333.18027L647.191672475 616.022982475C637.749535204 630.144854908 615.30613468 611.113820667 596.175647001 591.983332988Z" />
      <path
         id="path3970"
         d="M364.34896 333.18027C382.78129 304.21066 383.85952 248.45357 383.87315 232.13481L666.715862475 514.977522475C666.702232475 531.296282475 665.624002475 587.053372475 647.191672475 616.022982475Z" />
      <path
         id="path3972"
         d="M383.87315 232.13481C383.87315 232.06271 383.87345 231.98996 383.87315 231.91788L666.715862475 514.760592475C666.716162475 514.832672475 666.715862475 514.905422475 666.715862475 514.977522475Z" />
      <path
         id="path3974"
         d="M383.87315 231.91788C383.87295 230.13152 383.85765 228.61736 383.85765 228.61736L666.700362475 511.460072475C666.700362475 511.460072475 666.715662475 512.974232475 666.715862475 514.760592475Z" />
      <path
         id="path3976"
         d="M383.85765 228.61736L383.7492 228.63286L666.591912475 511.475572475L666.700362475 511.460072475Z" />
      <path
         id="path3978"
         d="M383.7492 228.63286C382.895266194 216.66177125 377.688569129 205.895840325 369.702536001 197.909807197L652.545248475 480.752519672C660.531281603 488.7385528 665.737978668 499.504483725 666.591912475 511.475572475Z" />
      <path
         id="path3980"
         d="M369.702536001 197.909807197C360.949051179 189.156322375 348.856378797 183.7427 335.49655 183.7427L618.339262475 466.585412475C631.699091271 466.585412475 643.791763654 471.99903485 652.545248475 480.752519672Z" />
      <path
         id="path3982"
         d="M335.49655 183.7427C325.28516 183.7427 315.81508 186.91165 308.00773 192.31166L590.850442475 475.154372475C598.657792475 469.754362475 608.127872475 466.585412475 618.339262475 466.585412475Z" />
      <path
         id="path3984"
         d="M308.00773 192.31166C273.73704 199.19047 239.46645 198.10262 205.1958 192.29616L488.038512475 475.138872475C522.309162475 480.945332475 556.579752475 482.033182475 590.850442475 475.154372475Z" />
      <path
         id="path3986"
         d="M205.1958 192.29616C197.38984 186.89919 187.91521 183.7427 177.70697 183.7427L460.549682475 466.585412475C470.757922475 466.585412475 480.232552475 469.741902475 488.038512475 475.138872475Z" />
      <path
         id="path3988"
         d="M173.15131 206.18003C177.23043 206.18003 180.51162 209.46122 180.51162 213.54034L463.354332475 496.383052475C463.354332475 492.303932475 460.073142475 489.022742475 455.994022475 489.022742475Z" />
      <path
         id="path3990"
         d="M180.51162 213.54034L180.51162 220.55976L463.354332475 503.402472475L463.354332475 496.383052475Z" />
      <path
         id="path3992"
         d="M180.51162 220.55976L187.51555 220.55976L470.358262475 503.402472475L463.354332475 503.402472475Z" />
      <path
         id="path3994"
         d="M187.51555 220.55976C189.558982486 220.55976 191.406061463 221.383175434 192.74071337 222.717827341L475.583425845 505.560539816C474.248773937 504.225887908 472.401694961 503.402472475 470.358262475 503.402472475Z" />
      <path
         id="path3996"
         d="M192.74071337 222.717827341C194.070306711 224.047420682 194.89135 225.884382486 194.89135 227.92007L477.734062475 510.762782475C477.734062475 508.727094961 476.913019185 506.890133156 475.583425845 505.560539816Z" />
      <path
         id="path3998"
         d="M194.89135 227.92007C194.89135 231.99919 191.59467 235.28038 187.51555 235.28038L470.358262475 518.123092475C474.437382475 518.123092475 477.734062475 514.841902475 477.734062475 510.762782475Z" />
      <path
         id="path4000"
         d="M187.51555 235.28038L180.51162 235.28038L463.354332475 518.123092475L470.358262475 518.123092475Z" />
      <path
         id="path4002"
         d="M180.51162 235.28038L180.51162 242.29979L463.354332475 525.142502475L463.354332475 518.123092475Z" />
      <path
         id="path4004"
         d="M180.51162 242.29979C180.51162 246.37892 177.23043 249.66011 173.15131 249.66011L455.994022475 532.502822475C460.073142475 532.502822475 463.354332475 529.221632475 463.354332475 525.142502475Z" />
      <path
         id="path4006"
         d="M173.15131 249.66011C171.11175125 249.66011 169.271674756 248.839813506 167.941487446 247.509626196L450.78419992 530.35233867C452.11438723 531.68252598 453.954463725 532.502822475 455.994022475 532.502822475Z" />
      <path
         id="path4008"
         d="M167.941487446 247.509626196C166.611298506 246.179437256 165.791 244.33935625 165.791 242.29979L448.633712475 525.142502475C448.633712475 527.182068725 449.45401098 529.02214973 450.78419992 530.35233867Z" />
      <path
         id="path4010"
         d="M165.791 242.29979L165.791 235.28038L448.633712475 518.123092475L448.633712475 525.142502475Z" />
      <path
         id="path4012"
         d="M165.791 235.28038L158.77159 235.28038L441.614302475 518.123092475L448.633712475 518.123092475Z" />
      <path
         id="path4014"
         d="M158.77159 235.28038C156.7320275 235.28038 154.891945489 234.460080489 153.561755108 233.129890108L436.404467583 515.972602583C437.734657964 517.302792964 439.574739975 518.123092475 441.614302475 518.123092475Z" />
      <path
         id="path4016"
         d="M153.561755108 233.129890108C152.231567989 231.799702989 151.41127 229.9596275 151.41127 227.92007L434.253982475 510.762782475C434.253982475 512.802339975 435.074280464 514.642415464 436.404467583 515.972602583Z" />
      <path
         id="path4018"
         d="M151.41127 227.92007C151.41127 223.84095 154.69247 220.55976 158.77159 220.55976L441.614302475 503.402472475C437.535182475 503.402472475 434.253982475 506.683662475 434.253982475 510.762782475Z" />
      <path
         id="path4020"
         d="M158.77159 220.55976L165.791 220.55976L448.633712475 503.402472475L441.614302475 503.402472475Z" />
      <path
         id="path4022"
         d="M165.791 220.55976L165.791 213.54034L448.633712475 496.383052475L448.633712475 503.402472475Z" />
      <path
         id="path4024"
         d="M165.791 213.54034C165.791 209.46122 169.07219 206.18003 173.15131 206.18003L455.994022475 489.022742475C451.914902475 489.022742475 448.633712475 492.303932475 448.633712475 496.383052475Z" />
      <path
         id="path4026"
         d="M338.9985 210.39478C341.1285575 210.39478 343.057734528 211.258924528 344.454396168 212.655586168L627.297108642 495.498298642C625.900447003 494.101637003 623.971269975 493.237492475 621.841212475 493.237492475Z" />
      <path
         id="path4028"
         d="M344.454396168 212.655586168C345.851054528 214.052244528 346.7152 215.9814175 346.7152 218.11148L629.557912475 500.954192475C629.557912475 498.824129975 628.693767003 496.894957003 627.297108642 495.498298642Z" />
      <path
         id="path4030"
         d="M346.7152 218.11148C346.7152 222.37161 343.25861 225.82819 338.9985 225.82819L621.841212475 508.670902475C626.101322475 508.670902475 629.557912475 505.214322475 629.557912475 500.954192475Z" />
      <path
         id="path4032"
         d="M338.9985 225.82819C336.8684225 225.82819 334.939253585 224.964051085 333.542601003 223.567398503L616.385313478 506.410110978C617.78196606 507.80676356 619.711134975 508.670902475 621.841212475 508.670902475Z" />
      <path
         id="path4034"
         d="M333.542601003 223.567398503C332.145938585 222.170736085 331.2818 220.2415525 331.2818 218.11148L614.124512475 500.954192475C614.124512475 503.084264975 614.98865106 505.01344856 616.385313478 506.410110978Z" />
      <path
         id="path4036"
         d="M331.2818 218.11148C331.2818 213.85135 334.73833 210.39478 338.9985 210.39478L621.841212475 493.237492475C617.581042475 493.237492475 614.124512475 496.694062475 614.124512475 500.954192475Z" />
      <path
         id="path4038"
         d="M227.85006 218.80878L238.37142 218.80878L521.214132475 501.651492475L510.692772475 501.651492475Z" />
      <path
         id="path4040"
         d="M238.37142 218.80878C239.82825125 218.80878 241.141487254 219.393601004 242.090514943 220.342628693L524.933227418 503.185341168C523.984199728 502.236313478 522.670963725 501.651492475 521.214132475 501.651492475Z" />
      <path
         id="path4042"
         d="M242.090514943 220.342628693C243.039541004 221.291654754 243.62436 222.60488625 243.62436 224.06171L526.467072475 506.904422475C526.467072475 505.447598725 525.882253478 504.134367228 524.933227418 503.185341168Z" />
      <path
         id="path4044"
         d="M243.62436 224.06171C243.62436 226.97538 241.28508 229.33015 238.37142 229.33015L521.214132475 512.172862475C524.127792475 512.172862475 526.467072475 509.818092475 526.467072475 506.904422475Z" />
      <path
         id="path4046"
         d="M238.37142 229.33015L227.85006 229.33015L510.692772475 512.172862475L521.214132475 512.172862475Z" />
      <path
         id="path4048"
         d="M227.85006 229.33015C226.397097473 229.33015 225.086970055 228.744582996 224.138534422 227.796147363L506.981246897 510.638859837C507.92968253 511.58729547 509.239809947 512.172862475 510.692772475 512.172862475Z" />
      <path
         id="path4050"
         d="M224.138534422 227.796147363C223.1850432 226.842656141 222.59711 225.522417473 222.59711 224.06171L505.439822475 506.904422475C505.439822475 508.365129947 506.027755675 509.685368615 506.981246897 510.638859837Z" />
      <path
         id="path4052"
         d="M222.59711 224.06171C222.59711 221.14806 224.93639 218.80878 227.85006 218.80878L510.692772475 501.651492475C507.779102475 501.651492475 505.439822475 503.990772475 505.439822475 506.904422475Z" />
      <path
         id="path4054"
         d="M274.83208 218.80878L285.35345 218.80878L568.196162475 501.651492475L557.674792475 501.651492475Z" />
      <path
         id="path4056"
         d="M285.35345 218.80878C286.81029375 218.80878 288.123536761 219.393603011 289.072567329 220.342633579L571.915279803 503.185346053C570.966249235 502.236315485 569.653006225 501.651492475 568.196162475 501.651492475Z" />
      <path
         id="path4058"
         d="M289.072567329 220.342633579C290.021593011 221.291659261 290.60641 222.60488875 290.60641 224.06171L573.449122475 506.904422475C573.449122475 505.447601225 572.864305485 504.134371735 571.915279803 503.185346053Z" />
      <path
         id="path4060"
         d="M290.60641 224.06171C290.60641 226.97538 288.26713 229.33015 285.35345 229.33015L568.196162475 512.172862475C571.109842475 512.172862475 573.449122475 509.818092475 573.449122475 506.904422475Z" />
      <path
         id="path4062"
         d="M285.35345 229.33015L274.83208 229.33015L557.674792475 512.172862475L568.196162475 512.172862475Z" />
      <path
         id="path4064"
         d="M274.83208 229.33015C273.379123716 229.33015 272.068999808 228.744584009 271.120565623 227.796149824L553.963278098 510.638862298C554.911712283 511.587296483 556.221836191 512.172862475 557.674792475 512.172862475Z" />
      <path
         id="path4066"
         d="M271.120565623 227.796149824C270.167074212 226.842658412 269.57914 225.522418729 269.57914 224.06171L552.421852475 506.904422475C552.421852475 508.365131204 553.009786686 509.685370887 553.963278098 510.638862298Z" />
      <path
         id="path4068"
         d="M269.57914 224.06171C269.57914 221.14806 271.91842 218.80878 274.83208 218.80878L557.674792475 501.651492475C554.761132475 501.651492475 552.421852475 503.990772475 552.421852475 506.904422475Z" />
      <path
         id="path4070"
         d="M322.86777 224.41811C324.9978425 224.41811 326.927046699 225.282266699 328.323725674 226.678945674L611.166438149 509.521658148C609.769759174 508.124979174 607.840554975 507.260822475 605.710482475 507.260822475Z" />
      <path
         id="path4072"
         d="M328.323725674 226.678945674C329.720381699 228.075601699 330.58453 230.0047625 330.58453 232.13481L613.427242475 514.977522475C613.427242475 512.847474975 612.563094174 510.918314174 611.166438149 509.521658148Z" />
      <path
         id="path4074"
         d="M330.58453 232.13481C330.58453 236.39495 327.12788 239.85152 322.86777 239.85152L605.710482475 522.694232475C609.970592475 522.694232475 613.427242475 519.237662475 613.427242475 514.977522475Z" />
      <path
         id="path4076"
         d="M322.86777 239.85152C320.73777625 239.85152 318.80860415 238.9873704 317.411934038 237.590700288L600.254646512 520.433412762C601.651316625 521.830082875 603.580488725 522.694232475 605.710482475 522.694232475Z" />
      <path
         id="path4078"
         d="M317.411934038 237.590700288C316.0152754 236.19404165 315.15111 234.26487125 315.15111 232.13481L597.993822475 514.977522475C597.993822475 517.107583724 598.857987875 519.036754125 600.254646512 520.433412762Z" />
      <path
         id="path4080"
         d="M315.15111 232.13481C315.15111 227.87468 318.6078 224.41811 322.86777 224.41811L605.710482475 507.260822475C601.450512475 507.260822475 597.993822475 510.717392475 597.993822475 514.977522475Z" />
      <path
         id="path4082"
         d="M354.41639 224.41811C356.54646 224.41811 358.475659671 225.282264671 359.872335756 226.678940756L642.715048231 509.521653231C641.318372145 508.124977145 639.389172475 507.260822475 637.259102475 507.260822475Z" />
      <path
         id="path4084"
         d="M359.872335756 226.678940756C361.268992171 228.075597171 362.13314 230.00476 362.13314 232.13481L644.975852475 514.977522475C644.975852475 512.847472475 644.111704645 510.918309645 642.715048231 509.521653231Z" />
      <path
         id="path4086"
         d="M362.13314 232.13481C362.13314 236.39495 358.6765 239.85152 354.41639 239.85152L637.259102475 522.694232475C641.519212475 522.694232475 644.975852475 519.237662475 644.975852475 514.977522475Z" />
      <path
         id="path4088"
         d="M354.41639 239.85152C352.29026366 239.85152 350.368083873 238.990505609 348.975881047 237.598302783L631.818593522 520.441015257C633.210796348 521.833218083 635.132976135 522.694232475 637.259102475 522.694232475Z" />
      <path
         id="path4090"
         d="M348.975881047 237.598302783C347.578624864 236.2010466 346.7152 234.268738814 346.7152 232.13481L629.557912475 514.977522475C629.557912475 517.111451289 630.421337339 519.043759074 631.818593522 520.441015257Z" />
      <path
         id="path4092"
         d="M346.7152 232.13481C346.7152 227.87468 350.15642 224.41811 354.41639 224.41811L637.259102475 507.260822475C632.999132475 507.260822475 629.557912475 510.717392475 629.557912475 514.977522475Z" />
      <path
         id="path4094"
         d="M338.9985 238.44144C341.1285575 238.44144 343.057734528 239.305584528 344.454396168 240.702246168L627.297108642 523.544958642C625.900447003 522.148297003 623.971269975 521.284152475 621.841212475 521.284152475Z" />
      <path
         id="path4096"
         d="M344.454396168 240.702246168C345.851054528 242.098904528 346.7152 244.0280775 346.7152 246.15814L629.557912475 529.000852475C629.557912475 526.870789975 628.693767003 524.941617003 627.297108642 523.544958642Z" />
      <path
         id="path4098"
         d="M346.7152 246.15814C346.7152 250.41827 343.25861 253.87485 338.9985 253.87485L621.841212475 536.717562475C626.101322475 536.717562475 629.557912475 533.260982475 629.557912475 529.000852475Z" />
      <path
         id="path4100"
         d="M338.9985 253.87485C336.8684225 253.87485 334.939253585 253.010711085 333.542601003 251.614058503L616.385313478 534.456770978C617.78196606 535.85342356 619.711134975 536.717562475 621.841212475 536.717562475Z" />
      <path
         id="path4102"
         d="M333.542601003 251.614058503C332.145938585 250.217396085 331.2818 248.2882125 331.2818 246.15814L614.124512475 529.000852475C614.124512475 531.130924975 614.98865106 533.06010856 616.385313478 534.456770978Z" />
      <path
         id="path4104"
         d="M331.2818 246.15814C331.2818 241.89801 334.73833 238.44144 338.9985 238.44144L621.841212475 521.284152475C617.581042475 521.284152475 614.124512475 524.740722475 614.124512475 529.000852475Z" />
      <path
         id="path4106"
         d="M225.04539 251.07018C229.793501249 251.07018 234.092735837 252.993419849 237.203370897 256.104054909L520.046083372 538.946767383C516.935448312 535.836132324 512.636213724 533.912892475 507.888102475 533.912892475Z" />
      <path
         id="path4108"
         d="M237.203370897 256.104054909C240.308933605 259.209617617 242.22977 263.498706245 242.22977 268.23907L525.072482475 551.081782475C525.072482475 546.34141872 523.15164608 542.052330092 520.046083372 538.946767383Z" />
      <path
         id="path4110"
         d="M242.22977 268.23907C242.22977 277.72755 234.53387 285.42347 225.04539 285.42347L507.888102475 568.266182475C517.376582475 568.266182475 525.072482475 560.570262475 525.072482475 551.081782475Z" />
      <path
         id="path4112"
         d="M225.04539 285.42347C220.3011525 285.42347 216.005057027 283.499492028 212.895019916 280.389454916L495.737732391 563.232167391C498.847769502 566.342204502 503.143864974 568.266182475 507.888102475 568.266182475Z" />
      <path
         id="path4114"
         d="M212.895019916 280.389454916C209.784979528 277.279414527 207.861 272.9833125 207.861 268.23907L490.703712475 551.081782475C490.703712475 555.826024974 492.627692002 560.122127002 495.737732391 563.232167391Z" />
      <path
         id="path4116"
         d="M207.861 268.23907C207.861 258.7506 215.55691 251.07018 225.04539 251.07018L507.888102475 533.912892475C498.399622475 533.912892475 490.703712475 541.593312475 490.703712475 551.081782475Z" />
      <path
         id="path4118"
         d="M291.6601 251.07018C296.4081162 251.07018 300.707366191 252.993440142 303.81803019 256.10410414L586.660742665 538.946816615C583.550078666 535.836152616 579.250828675 533.912892475 574.502812475 533.912892475Z" />
      <path
         id="path4120"
         d="M303.81803019 256.10410414C306.923588996 259.209662946 308.84446 263.498731295 308.84446 268.23907L591.687172475 551.081782475C591.687172475 546.341443769 589.76630147 542.052375421 586.660742665 538.946816615Z" />
      <path
         id="path4122"
         d="M308.84446 268.23907C308.84446 277.72755 301.14834 285.42347 291.6601 285.42347L574.502812475 568.266182475C583.991052475 568.266182475 591.687172475 560.570262475 591.687172475 551.081782475Z" />
      <path
         id="path4124"
         d="M291.6601 285.42347C286.91577625 285.42347 282.619688485 283.499507235 279.50967304 280.38949179L562.352385515 563.232204265C565.46240096 566.34221971 569.758488725 568.266182475 574.502812475 568.266182475Z" />
      <path
         id="path4126"
         d="M279.50967304 280.38949179C276.399629735 277.279448485 274.47568 272.98333125 274.47568 268.23907L557.318392475 551.081782475C557.318392475 555.826043724 559.242342209 560.12216096 562.352385515 563.232204265Z" />
      <path
         id="path4128"
         d="M274.47568 268.23907C274.47568 258.7506 282.17141 251.07018 291.6601 251.07018L574.502812475 533.912892475C565.014122475 533.912892475 557.318392475 541.593312475 557.318392475 551.081782475Z" />
    </g>
    <path
       style="fill:#000000;fill-opacity:1;fill-rule:evenodd;stroke:none"
       d="m 177.70696,183.7427 c -26.72266,0 -48.37661,21.66946 -48.37661,48.39211 0,3.00943 0.26449,5.944 0.79026,8.80139 0.48924,26.01906 3.37054,67.00186 19.43122,92.24407 16.81358,15.33386 50.67296,-19.30185 67.74586,-39.45127 0.70725,0.0718 1.4277,0.10847 2.15386,0.10847 8.184,0 25.08288,-4.67699 28.558,-11.49759 12.35363,-0.68971 7.17059,-0.48138 19.5242,0.46486 3.5591,6.57143 18.24916,11.03273 26.2492,11.03273 1.46276,0 2.88284,-0.14997 4.26125,-0.43388 20.44197,21.18693 54.14843,57.95796 66.30476,39.77668 18.43233,-28.96961 19.51056,-84.7267 19.52419,-101.04546 0,-0.0721 3e-4,-0.14485 0,-0.21693 -2e-4,-1.78636 -0.0155,-3.30052 -0.0155,-3.30052 l -0.10845,0.0155 c -1.78993,-25.09259 -22.7043,-44.89016 -48.25265,-44.89016 -10.21139,0 -19.68147,3.16895 -27.48882,8.56896 -34.27069,6.87881 -68.54128,5.79096 -102.81193,-0.0155 -7.80596,-5.39697 -17.28059,-8.55346 -27.48883,-8.55346 z m -4.55565,22.43733 c 4.07912,0 7.36031,3.28119 7.36031,7.36031 l 0,7.01942 7.00393,0 c 4.07912,0 7.3758,3.28119 7.3758,7.36031 0,4.07912 -3.29668,7.36031 -7.3758,7.36031 l -7.00393,0 0,7.01941 c 0,4.07913 -3.28119,7.36032 -7.36031,7.36032 -4.07912,0 -7.36031,-3.28119 -7.36031,-7.36032 l 0,-7.01941 -7.01941,0 c -4.07912,0 -7.36032,-3.28119 -7.36032,-7.36031 0,-4.07912 3.2812,-7.36031 7.36032,-7.36031 l 7.01941,0 0,-7.01942 c 0,-4.07912 3.28119,-7.36031 7.36031,-7.36031 z m 165.84719,4.21475 c 4.26011,0 7.7167,3.45657 7.7167,7.7167 0,4.26013 -3.45659,7.71671 -7.7167,7.71671 -4.26017,0 -7.7167,-3.45658 -7.7167,-7.71671 0,-4.26013 3.45653,-7.7167 7.7167,-7.7167 z m -111.14844,8.414 10.52136,0 c 2.91366,0 5.25294,2.33928 5.25294,5.25293 0,2.91367 -2.33928,5.26844 -5.25294,5.26844 l -10.52136,0 c -2.91367,0 -5.25295,-2.35477 -5.25295,-5.26844 0,-2.91365 2.33928,-5.25293 5.25295,-5.25293 z m 46.98202,0 10.52137,0 c 2.91368,0 5.25296,2.33928 5.25296,5.25293 0,2.91367 -2.33928,5.26844 -5.25296,5.26844 l -10.52137,0 c -2.91366,0 -5.25294,-2.35477 -5.25294,-5.26844 0,-2.91365 2.33928,-5.25293 5.25294,-5.25293 z m 48.03569,5.60933 c 4.26011,0 7.71676,3.45657 7.71676,7.7167 0,4.26014 -3.45665,7.71671 -7.71676,7.71671 -4.25997,0 -7.71666,-3.45657 -7.71666,-7.71671 0,-4.26013 3.45669,-7.7167 7.71666,-7.7167 z m 31.54862,0 c 4.26011,0 7.71675,3.45657 7.71675,7.7167 0,4.26014 -3.45664,7.71671 -7.71675,7.71671 -4.25997,0 -7.70119,-3.45657 -7.70119,-7.71671 0,-4.26013 3.44122,-7.7167 7.70119,-7.7167 z m -15.41789,14.02333 c 4.26011,0 7.7167,3.45657 7.7167,7.7167 0,4.26013 -3.45659,7.71671 -7.7167,7.71671 -4.26017,0 -7.7167,-3.45658 -7.7167,-7.71671 0,-4.26013 3.45653,-7.7167 7.7167,-7.7167 z m -113.95311,12.62874 c 9.48848,0 17.18438,7.68042 17.18438,17.16889 0,9.48848 -7.6959,17.1844 -17.18438,17.1844 -9.48848,0 -17.18439,-7.69592 -17.18439,-17.1844 0,-9.48847 7.69591,-17.16889 17.18439,-17.16889 z m 66.61471,0 c 9.48824,0 17.18436,7.68042 17.18436,17.16889 0,9.48848 -7.69612,17.1844 -17.18436,17.1844 -9.48869,0 -17.18442,-7.69592 -17.18442,-17.1844 0,-9.48847 7.69573,-17.16889 17.18442,-17.16889 z"
       id="path3932"
       inkscape:connector-curvature="0" />
  </g>
  <path
     transform="matrix(0.68724124,0,0,0.68724124,-521.35527,-47.661719)"
     sodipodi:type="arc"
     style="fill:url(#linearGradient4256);fill-opacity:1;fill-rule:evenodd;stroke:none"
     id="path4248"
     sodipodi:cx="1132"
     sodipodi:cy="449"
     sodipodi:rx="312"
     sodipodi:ry="312"
     d="m 1444,449 a 312,312 0 1 1 -624,0 312,312 0 1 1 624,0 z" />
  <path
     inkscape:connector-curvature="0"
     id="path3880"
     d="m 177.70696,183.7427 c -26.72266,0 -48.37661,21.66946 -48.37661,48.39211 0,3.00943 0.26449,5.944 0.79026,8.80139 0.48924,26.01906 3.37054,67.00186 19.43122,92.24407 16.81358,15.33386 50.67296,-19.30185 67.74586,-39.45127 0.70725,0.0718 1.4277,0.10847 2.15386,0.10847 8.184,0 25.08288,-4.67699 28.558,-11.49759 12.35363,-0.68971 7.17059,-0.48138 19.5242,0.46486 3.5591,6.57143 18.24916,11.03273 26.2492,11.03273 1.46276,0 2.88284,-0.14997 4.26125,-0.43388 20.44197,21.18693 54.14843,57.95796 66.30476,39.77668 18.43233,-28.96961 19.51056,-84.7267 19.52419,-101.04546 0,-0.0721 3e-4,-0.14485 0,-0.21693 -2e-4,-1.78636 -0.0155,-3.30052 -0.0155,-3.30052 l -0.10845,0.0155 c -1.78993,-25.09259 -22.7043,-44.89016 -48.25265,-44.89016 -10.21139,0 -19.68147,3.16895 -27.48882,8.56896 -34.27069,6.87881 -68.54128,5.79096 -102.81193,-0.0155 -7.80596,-5.39697 -17.28059,-8.55346 -27.48883,-8.55346 z m -4.55565,22.43733 c 4.07912,0 7.36031,3.28119 7.36031,7.36031 l 0,7.01942 7.00393,0 c 4.07912,0 7.3758,3.28119 7.3758,7.36031 0,4.07912 -3.29668,7.36031 -7.3758,7.36031 l -7.00393,0 0,7.01941 c 0,4.07913 -3.28119,7.36032 -7.36031,7.36032 -4.07912,0 -7.36031,-3.28119 -7.36031,-7.36032 l 0,-7.01941 -7.01941,0 c -4.07912,0 -7.36032,-3.28119 -7.36032,-7.36031 0,-4.07912 3.2812,-7.36031 7.36032,-7.36031 l 7.01941,0 0,-7.01942 c 0,-4.07912 3.28119,-7.36031 7.36031,-7.36031 z m 165.84719,4.21475 c 4.26011,0 7.7167,3.45657 7.7167,7.7167 0,4.26013 -3.45659,7.71671 -7.7167,7.71671 -4.26017,0 -7.7167,-3.45658 -7.7167,-7.71671 0,-4.26013 3.45653,-7.7167 7.7167,-7.7167 z m -111.14844,8.414 10.52136,0 c 2.91366,0 5.25294,2.33928 5.25294,5.25293 0,2.91367 -2.33928,5.26844 -5.25294,5.26844 l -10.52136,0 c -2.91367,0 -5.25295,-2.35477 -5.25295,-5.26844 0,-2.91365 2.33928,-5.25293 5.25295,-5.25293 z m 46.98202,0 10.52137,0 c 2.91368,0 5.25296,2.33928 5.25296,5.25293 0,2.91367 -2.33928,5.26844 -5.25296,5.26844 l -10.52137,0 c -2.91366,0 -5.25294,-2.35477 -5.25294,-5.26844 0,-2.91365 2.33928,-5.25293 5.25294,-5.25293 z m 48.03569,5.60933 c 4.26011,0 7.71676,3.45657 7.71676,7.7167 0,4.26014 -3.45665,7.71671 -7.71676,7.71671 -4.25997,0 -7.71666,-3.45657 -7.71666,-7.71671 0,-4.26013 3.45669,-7.7167 7.71666,-7.7167 z m 31.54862,0 c 4.26011,0 7.71675,3.45657 7.71675,7.7167 0,4.26014 -3.45664,7.71671 -7.71675,7.71671 -4.25997,0 -7.70119,-3.45657 -7.70119,-7.71671 0,-4.26013 3.44122,-7.7167 7.70119,-7.7167 z m -15.41789,14.02333 c 4.26011,0 7.7167,3.45657 7.7167,7.7167 0,4.26013 -3.45659,7.71671 -7.7167,7.71671 -4.26017,0 -7.7167,-3.45658 -7.7167,-7.71671 0,-4.26013 3.45653,-7.7167 7.7167,-7.7167 z m -113.95311,12.62874 c 9.48848,0 17.18438,7.68042 17.18438,17.16889 0,9.48848 -7.6959,17.1844 -17.18438,17.1844 -9.48848,0 -17.18439,-7.69592 -17.18439,-17.1844 0,-9.48847 7.69591,-17.16889 17.18439,-17.16889 z m 66.61471,0 c 9.48824,0 17.18436,7.68042 17.18436,17.16889 0,9.48848 -7.69612,17.1844 -17.18436,17.1844 -9.48869,0 -17.18442,-7.69592 -17.18442,-17.1844 0,-9.48847 7.69573,-17.16889 17.18442,-17.16889 z"
     style="fill:#ffffe5;fill-opacity:1;fill-rule:evenodd;stroke:none" />
</svg>
