<?xml version="1.0" encoding="UTF-8" standalone="no"?>
<!-- Created with Inkscape (http://www.inkscape.org/) -->

<svg
   xmlns:dc="http://purl.org/dc/elements/1.1/"
   xmlns:cc="http://creativecommons.org/ns#"
   xmlns:rdf="http://www.w3.org/1999/02/22-rdf-syntax-ns#"
   xmlns:svg="http://www.w3.org/2000/svg"
   xmlns="http://www.w3.org/2000/svg"
   xmlns:xlink="http://www.w3.org/1999/xlink"
   xmlns:sodipodi="http://sodipodi.sourceforge.net/DTD/sodipodi-0.dtd"
   xmlns:inkscape="http://www.inkscape.org/namespaces/inkscape"
   width="512"
   height="512"
   id="svg2"
   version="1.1"
   inkscape:version="0.48.4 r9939"
   sodipodi:docname="gambas3.svg">
  <sodipodi:namedview
     id="base"
     pagecolor="#ffffff"
     bordercolor="#666666"
     borderopacity="1.0"
     inkscape:pageopacity="0.0"
     inkscape:pageshadow="2"
     inkscape:zoom="0.35355339"
     inkscape:cx="274.8881"
     inkscape:cy="213.88099"
     inkscape:document-units="px"
     inkscape:current-layer="layer1"
     showgrid="false"
     inkscape:window-width="1360"
     inkscape:window-height="717"
     inkscape:window-x="0"
     inkscape:window-y="25"
     inkscape:window-maximized="1" />
  <defs
     id="defs4">
    <linearGradient
       inkscape:collect="always"
       id="linearGradient4542">
      <stop
         style="stop-color:#fcb45d;stop-opacity:1;"
         offset="0"
         id="stop4544" />
      <stop
         style="stop-color:#fcb45d;stop-opacity:0;"
         offset="1"
         id="stop4546" />
    </linearGradient>
    <linearGradient
       id="linearGradient4307"
       inkscape:collect="always">
      <stop
         id="stop4309"
         offset="0"
         style="stop-color:#fcb45d;stop-opacity:1;" />
      <stop
         id="stop4311"
         offset="1"
         style="stop-color:#fcb45d;stop-opacity:0;" />
    </linearGradient>
    <linearGradient
       inkscape:collect="always"
       id="linearGradient3837">
      <stop
         style="stop-color:#7db257;stop-opacity:1;"
         offset="0"
         id="stop3839" />
      <stop
         style="stop-color:#7db257;stop-opacity:0;"
         offset="1"
         id="stop3841" />
    </linearGradient>
    <clipPath
       clipPathUnits="userSpaceOnUse"
       id="clipPath3847">
      <path
         transform="matrix(0.88586957,0,0,0.88586957,-24.010886,495.98978)"
         d="m 582.65601,342.29437 a 260.2153,260.2153 0 1 1 -520.430607,0 260.2153,260.2153 0 1 1 520.430607,0 z"
         sodipodi:ry="260.2153"
         sodipodi:rx="260.2153"
         sodipodi:cy="342.29437"
         sodipodi:cx="322.4407"
         id="path3849"
         style="fill:url(#linearGradient3851);fill-opacity:1;fill-rule:evenodd;stroke:none"
         sodipodi:type="arc" />
    </clipPath>
    <linearGradient
       inkscape:collect="always"
       xlink:href="#linearGradient3837"
       id="linearGradient3851"
       gradientUnits="userSpaceOnUse"
       x1="502.83536"
       y1="546.63525"
       x2="316.05505"
       y2="356.66208" />
    <clipPath
       id="clipPath4301"
       clipPathUnits="userSpaceOnUse">
      <path
         sodipodi:type="arc"
         style="fill:#fcb45d;fill-opacity:1;fill-rule:evenodd;stroke:none"
         id="path4303"
         sodipodi:cx="322.4407"
         sodipodi:cy="342.29437"
         sodipodi:rx="260.2153"
         sodipodi:ry="260.2153"
         d="m 582.65601,342.29437 a 260.2153,260.2153 0 1 1 -520.430607,0 260.2153,260.2153 0 1 1 520.430607,0 z"
         transform="matrix(0.88586957,0,0,0.88586957,-24.010886,495.98978)" />
    </clipPath>
    <linearGradient
       gradientUnits="userSpaceOnUse"
       y2="312.94467"
       x2="240.6192"
       y1="587.2514"
       x1="526.17633"
       id="linearGradient4313"
       xlink:href="#linearGradient4307"
       inkscape:collect="always" />
    <clipPath
       clipPathUnits="userSpaceOnUse"
       id="clipPath4536">
      <path
         sodipodi:type="arc"
         style="fill:#fcb45d;fill-opacity:1;fill-rule:evenodd;stroke:none"
         id="path4538"
         sodipodi:cx="322.4407"
         sodipodi:cy="342.29437"
         sodipodi:rx="260.2153"
         sodipodi:ry="260.2153"
         d="m 582.65601,342.29437 a 260.2153,260.2153 0 1 1 -520.430607,0 260.2153,260.2153 0 1 1 520.430607,0 z"
         transform="matrix(0.88586957,0,0,0.88586957,-24.010886,495.98978)" />
    </clipPath>
    <linearGradient
       inkscape:collect="always"
       xlink:href="#linearGradient4542"
       id="linearGradient4548"
       x1="601.81293"
       y1="664.76978"
       x2="-49.523487"
       y2="-40.844715"
       gradientUnits="userSpaceOnUse" />
  </defs>
  <metadata
     id="metadata7">
    <rdf:RDF>
      <cc:Work
         rdf:about="">
        <dc:format>image/svg+xml</dc:format>
        <dc:type
           rdf:resource="http://purl.org/dc/dcmitype/StillImage" />
        <dc:title></dc:title>
      </cc:Work>
    </rdf:RDF>
  </metadata>
  <g
     transform="translate(0,-540.36218)"
     id="layer1"
     inkscape:groupmode="layer"
     inkscape:label="Capa 1">
    <path
       transform="matrix(0.88586957,0,0,0.88586957,-24.010886,495.98978)"
       d="m 582.65601,342.29437 c 0,143.71295 -116.50236,260.2153 -260.21531,260.2153 -143.71294,0 -260.215297,-116.50235 -260.215297,-260.2153 0,-143.71294 116.502357,-260.215299 260.215297,-260.215299 143.71295,0 260.21531,116.502359 260.21531,260.215299 z"
       sodipodi:ry="260.2153"
       sodipodi:rx="260.2153"
       sodipodi:cy="342.29437"
       sodipodi:cx="322.4407"
       id="path2990"
       style="fill:#fcb45d;fill-rule:evenodd;stroke:none;fill-opacity:1"
       sodipodi:type="arc" />
    <g
       id="g4362"
       clip-path="url(#clipPath4536)"
       style="opacity:0.29565217">
      <g
         id="g4364"
         style="fill:#000000;fill-opacity:1;stroke:none">
        <path
           id="path4366"
           d="M163.47194 669.47721C163.21764 669.56201 163.03386 669.72714 162.90703 669.97296L516.460420593 1023.52635059C516.587250593 1023.28053059 516.771030593 1023.11540059 517.025330593 1023.03060059Z" />
        <path
           id="path4368"
           d="M162.90703 669.97296C163.16276 669.74521 163.47194 669.47721 163.47194 669.47721L517.025330593 1023.03060059C517.025330593 1023.03060059 516.716150593 1023.29860059 516.460420593 1023.52635059Z" />
        <path
           id="path4370"
           d="M162.90703 669.97296C160.16065 672.41895 144.15038 687.07186 142.91585 697.63084L496.469240593 1051.18423059C497.703770593 1040.62525059 513.714040593 1025.97234059 516.460420593 1023.52635059Z" />
        <path
           id="path4372"
           d="M142.91585 697.63084C141.31815 711.29647 159.07424 721.93013 158.90647 735.68782L512.459860593 1089.24121059C512.627630593 1075.48352059 494.871540593 1064.84986059 496.469240593 1051.18423059Z" />
        <path
           id="path4374"
           d="M158.90647 735.68782C158.74039 749.31389 142.15495 772.98388 142.15495 772.98388L495.708340593 1126.53727059C495.708340593 1126.53727059 512.293780593 1102.86728059 512.459860593 1089.24121059Z" />
        <path
           id="path4376"
           d="M142.15495 772.98388L177.92925 741.77509L531.482640593 1095.32848059L495.708340593 1126.53727059Z" />
        <path
           id="path4378"
           d="M177.92925 741.77509C177.92925 741.77509 197.35472189 720.855118106 190.265502623 713.765898839L543.818893217 1067.31928943C550.908112484 1074.4085087 531.482640593 1095.32848059 531.482640593 1095.32848059Z" />
        <path
           id="path4380"
           d="M190.265502623 713.765898839C190.216693615 713.71708983 190.166627738 713.668936437 190.11529 713.62145L543.668680593 1067.17484059C543.720018331 1067.22232703 543.770084208 1067.27048042 543.818893217 1067.31928943Z" />
        <path
           id="path4382"
           d="M190.11529 713.62145C189.555341618 713.103514337 188.989870355 712.558414849 188.420526059 711.989070552L541.973916652 1065.54246115C542.543260948 1066.11180544 543.108732212 1066.65690493 543.668680593 1067.17484059Z" />
        <path
           id="path4384"
           d="M188.420526059 711.989070552C175.596712462 699.165256956 160.808020611 674.041497417 162.90703 669.97296L516.460420593 1023.52635059C514.361411204 1027.59488801 529.150103056 1052.71864755 541.973916652 1065.54246115Z" />
        <path
           id="path4386"
           d="M266.93251 780.78896C258.94581 780.78896 252.46373 787.25952 252.46373 795.24624L606.017120593 1148.79963059C606.017120593 1140.81291059 612.499200593 1134.34235059 620.485900593 1134.34235059Z" />
        <path
           id="path4388"
           d="M252.46373 795.24624C252.46373 795.88308 252.51073 796.49882 252.59052 797.11392L606.143910593 1150.66731059C606.064120593 1150.05221059 606.017120593 1149.43647059 606.017120593 1148.79963059Z" />
        <path
           id="path4390"
           d="M252.59052 797.11392C233.63186 803.29977 212.05487 817.50858 212.05487 817.50858L565.608260593 1171.06197059C565.608260593 1171.06197059 587.185250593 1156.85316059 606.143910593 1150.66731059Z" />
        <path
           id="path4392"
           d="M212.05487 817.50858L197.71288 817.50858L551.266270593 1171.06197059L565.608260593 1171.06197059Z" />
        <path
           id="path4394"
           d="M197.71288 817.50858C193.295193426 817.309214632 188.825229069 813.640105529 183.98992601 808.80480247L537.543316603 1162.35819306C542.378619662 1167.19349612 546.848584019 1170.86260523 551.266270593 1171.06197059Z" />
        <path
           id="path4396"
           d="M183.98992601 808.80480247C178.892183924 803.707060384 173.388368944 797.31309714 167.111628695 792.322268222L520.665019288 1145.87565882C526.941759537 1150.86648773 532.445574517 1157.26045098 537.543316603 1162.35819306Z" />
        <path
           id="path4398"
           d="M167.111628695 792.322268222C162.136829864 788.366652906 156.676496371 785.292455727 150.54798 784.44363L504.101370593 1137.99702059C510.229886965 1138.84584632 515.690220458 1141.9200435 520.665019288 1145.87565882Z" />
        <path
           id="path4400"
           d="M150.54798 784.44363L125.40344 788.20206L478.956830593 1141.75545059L504.101370593 1137.99702059Z" />
        <path
           id="path4402"
           d="M125.40344 788.20206C135.182549209 789.919067879 142.073275367 793.596331226 147.036583868 798.559639726L500.589974461 1152.11303032C495.626665961 1147.14972182 488.735939803 1143.47245847 478.956830593 1141.75545059Z" />
        <path
           id="path4404"
           d="M147.036583868 798.559639726C155.949026603 807.472082461 158.646674478 820.531268783 160.69349 833.83354L514.246880593 1187.38693059C512.200065071 1174.08465938 509.502417196 1161.02547305 500.589974461 1152.11303032Z" />
        <path
           id="path4406"
           d="M160.69349 833.83354C162.75151 847.2088 164.15386 860.83243 170.57376 870.73763L524.127150593 1224.29102059C517.707250593 1214.38582059 516.304900593 1200.76219059 514.246880593 1187.38693059Z" />
        <path
           id="path4408"
           d="M170.57376 870.73763C172.474296967 873.271413675 174.597268041 875.701027639 176.917478299 878.021237897L530.470868892 1231.57462849C528.150658634 1229.25441823 526.02768756 1226.82480427 524.127150593 1224.29102059Z" />
        <path
           id="path4410"
           d="M176.917478299 878.021237897C193.20334426 894.307103858 219.206837186 905.20284201 246.21504 908.89843L599.768430593 1262.45182059C572.760227779 1258.7562326 546.756734853 1247.86049445 530.470868892 1231.57462849Z" />
        <path
           id="path4412"
           d="M246.21504 908.89843L241.98395 919.8047L595.537340593 1273.35809059L599.768430593 1262.45182059Z" />
        <path
           id="path4414"
           d="M241.98395 919.8047L205.37961 928.95869L558.933000593 1282.51208059L595.537340593 1273.35809059Z" />
        <path
           id="path4416"
           d="M205.37961 928.95869L315.16954 928.95869L668.722930593 1282.51208059L558.933000593 1282.51208059Z" />
        <path
           id="path4418"
           d="M315.16954 928.95869L278.57671 919.8047L632.130100593 1273.35809059L668.722930593 1282.51208059Z" />
        <path
           id="path4420"
           d="M278.57671 919.8047L274.46089 910.06276L628.014280593 1263.61615059L632.130100593 1273.35809059Z" />
        <path
           id="path4422"
           d="M274.46089 910.06276C304.77628 908.29973 332.46631 896.38563 344.69508 871.65994L698.248470593 1225.21333059C686.019700593 1249.93902059 658.329670593 1261.85312059 628.014280593 1263.61615059Z" />
        <path
           id="path4424"
           d="M344.69508 871.65994C347.772372187 876.632043261 352.100906358 882.929542185 356.826848805 887.655484632L710.380239398 1241.20887523C705.654296951 1236.48293278 701.325762781 1230.18543385 698.248470593 1225.21333059Z" />
        <path
           id="path4426"
           d="M356.826848805 887.655484632C361.778032555 892.606668382 367.16540875 895.832923128 372.00715 894.00303L725.560540593 1247.55642059C720.718799343 1249.38631372 715.331423149 1246.16005898 710.380239398 1241.20887523Z" />
        <path
           id="path4428"
           d="M372.00715 894.00303C400.213441175 883.342542342 406.582804169 823.444754133 384.908882611 801.770832576L738.462273204 1155.32422317C760.136194762 1176.99814473 753.766831768 1236.89593294 725.560540593 1247.55642059Z" />
        <path
           id="path4430"
           d="M384.908882611 801.770832576C383.518150728 800.380100693 382.011956412 799.146747688 380.38866 798.09388L733.942050593 1151.64727059C735.565347005 1152.70013828 737.071541322 1153.93349129 738.462273204 1155.32422317Z" />
        <path
           id="path4432"
           d="M380.38866 798.09388C369.43128 790.98697 346.13621 817.12813 346.13621 817.12813L699.689600593 1170.68152059C699.689600593 1170.68152059 722.984670593 1144.54036059 733.942050593 1151.64727059Z" />
        <path
           id="path4434"
           d="M346.13621 817.12813L346.19391 817.50858L699.747300593 1171.06197059L699.689600593 1170.68152059Z" />
        <path
           id="path4436"
           d="M346.19391 817.50858L322.5365 817.50858L676.089890593 1171.06197059L699.747300593 1171.06197059Z" />
        <path
           id="path4438"
           d="M322.5365 817.50858C322.5365 817.50858 300.4132 802.95033 281.28603 796.89487L634.839420593 1150.44826059C653.966590593 1156.50372059 676.089890593 1171.06197059 676.089890593 1171.06197059Z" />
        <path
           id="path4440"
           d="M281.28603 796.89487C281.34793 796.35188 281.38979 795.80577 281.38979 795.24624L634.943180593 1148.79963059C634.943180593 1149.35916059 634.901320593 1149.90527059 634.839420593 1150.44826059Z" />
        <path
           id="path4442"
           d="M281.38979 795.24624C281.38979 791.25287125 279.772155411 787.638544161 277.156174054 785.022562804L630.709564647 1138.5759534C633.325546004 1141.19193475 634.943180593 1144.80626184 634.943180593 1148.79963059Z" />
        <path
           id="path4444"
           d="M277.156174054 785.022562804C274.540204161 782.406592911 270.92589625 780.78896 266.93253 780.78896L620.485920593 1134.34235059C624.479286843 1134.34235059 628.093594754 1135.9599835 630.709564647 1138.5759534Z" />
        <path
           id="path4446"
           d="M363.69478 818.0735C365.7642 818.0479 367.79338 819.11629 370.00111 821.09408L723.554500593 1174.64747059C721.346770593 1172.66968059 719.317590593 1171.60129059 717.248170593 1171.62689059Z" />
        <path
           id="path4448"
           d="M370.00111 821.09408C370.274852438 821.342063321 370.542046328 821.59655084 370.802742505 821.857247017L724.356133098 1175.41063761C724.095436922 1175.14994143 723.828243032 1174.89545391 723.554500593 1174.64747059Z" />
        <path
           id="path4450"
           d="M370.802742505 821.857247017C382.818666009 833.873170521 381.030570677 859.079028747 370.41615 868.5356L723.969540593 1222.08899059C734.58396127 1212.63241934 736.372056602 1187.42656111 724.356133098 1175.41063761Z" />
        <path
           id="path4452"
           d="M370.41615 868.5356C368.21271 870.41132 365.54784 872.0732 362.8762 871.04891L716.429590593 1224.60230059C719.101230593 1225.62659059 721.766100593 1223.96471059 723.969540593 1222.08899059Z" />
        <path
           id="path4454"
           d="M362.8762 871.04891C361.701181961 870.58343584 360.54429396 869.723219134 359.431087615 868.610012789L712.984478208 1222.16340338C714.097684553 1223.27660973 715.254572554 1224.13682643 716.429590593 1224.60230059Z" />
        <path
           id="path4456"
           d="M359.431087615 868.610012789C355.477094368 864.656019541 352.074187394 857.510317687 350.36735 853.52494L703.920740593 1207.07833059C705.627577988 1211.06370828 709.030484961 1218.20941013 712.984478208 1222.16340338Z" />
        <path
           id="path4458"
           d="M350.36735 853.52494C351.5062 846.34987 351.6286 838.4255 350.57484 829.72924L704.128230593 1183.28263059C705.181990593 1191.97889059 705.059590593 1199.90326059 703.920740593 1207.07833059Z" />
        <path
           id="path4460"
           d="M350.57484 829.72924C352.19103 827.34519 354.56283 824.1476 357.15787 821.61288L710.711260593 1175.16627059C708.116220593 1177.70099059 705.744420593 1180.89858059 704.128230593 1183.28263059Z" />
        <path
           id="path4462"
           d="M357.15787 821.61288C359.51261 819.22599 361.62535 818.09912 363.69478 818.0735L717.248170593 1171.62689059C715.178740593 1171.65251059 713.066000593 1172.77938059 710.711260593 1175.16627059Z" />
      </g>
      <path
         style="fill:#000000;fill-opacity:1;stroke:none"
         d="m 163.47194,669.47721 c -0.2543,0.0848 -0.43808,0.24993 -0.56491,0.49575 0.25573,-0.22775 0.56491,-0.49575 0.56491,-0.49575 z m -0.56491,0.49575 c -2.74638,2.44599 -18.75665,17.0989 -19.99118,27.65788 -1.5977,13.66563 16.15839,24.29929 15.99062,38.05698 -0.16608,13.62607 -16.75152,37.29606 -16.75152,37.29606 l 35.7743,-31.20879 c 0,0 19.69388,-21.20903 12.18604,-28.15364 -13.17213,-12.18383 -29.40046,-39.39932 -27.20826,-43.64849 z m 104.02548,110.816 c -7.9867,0 -14.46878,6.47056 -14.46878,14.45728 0,0.63684 0.047,1.25258 0.12679,1.86768 -18.95866,6.18585 -40.53565,20.39466 -40.53565,20.39466 l -14.34199,0 c -12.76654,-0.57614 -25.96967,-30.12932 -47.1649,-33.06495 l -25.14454,3.75843 c 27.33912,4.80018 32.10337,24.92122 35.29005,45.63148 2.05802,13.37526 3.46037,26.99889 9.88027,36.90409 15.24066,20.31875 44.78528,33.93871 75.64128,38.1608 l -4.23109,10.90627 -36.60434,9.15399 109.78993,0 -36.59283,-9.15399 -4.11582,-9.74194 c 30.31539,-1.76303 58.00542,-13.67713 70.23419,-38.40282 6.30125,10.18118 17.84885,25.91963 27.31207,22.34309 30.01618,-11.34453 35.30314,-78.44782 8.38151,-95.90915 -10.95738,-7.10691 -34.25245,19.03425 -34.25245,19.03425 l 0.0577,0.38045 -23.65741,0 c 0,0 -22.1233,-14.55825 -41.25047,-20.61371 0.0619,-0.54299 0.10376,-1.0891 0.10376,-1.64863 0,-7.98672 -6.47051,-14.45728 -14.45726,-14.45728 z m 96.76227,37.28454 c 2.06942,-0.0256 4.0986,1.04279 6.30633,3.02058 12.89099,11.67795 11.25975,37.77978 0.41504,47.44152 -2.20344,1.87572 -4.86831,3.5376 -7.53995,2.51331 -5.34856,-2.11879 -10.32147,-12.41655 -12.50885,-17.52397 1.13885,-7.17507 1.26125,-15.09944 0.20749,-23.7957 1.61619,-2.38405 3.98799,-5.58164 6.58303,-8.11636 2.35474,-2.38689 4.46748,-3.51376 6.53691,-3.53938 z"
         id="path4341"
         inkscape:connector-curvature="0" />
    </g>
    <path
       sodipodi:type="arc"
       style="fill:url(#linearGradient4548);fill-rule:evenodd;stroke:none;fill-opacity:1"
       id="path4540"
       sodipodi:cx="322.4407"
       sodipodi:cy="342.29437"
       sodipodi:rx="260.2153"
       sodipodi:ry="260.2153"
       d="m 582.65601,342.29437 c 0,143.71295 -116.50236,260.2153 -260.21531,260.2153 -143.71294,0 -260.215297,-116.50235 -260.215297,-260.2153 0,-143.71294 116.502357,-260.215299 260.215297,-260.215299 143.71295,0 260.21531,116.502359 260.21531,260.215299 z"
       transform="matrix(0.88586957,0,0,0.88586957,-24.010886,495.98978)" />
    <path
       inkscape:connector-curvature="0"
       id="path3761"
       d="m 163.47194,669.47721 c -0.2543,0.0848 -0.43808,0.24993 -0.56491,0.49575 0.25573,-0.22775 0.56491,-0.49575 0.56491,-0.49575 z m -0.56491,0.49575 c -2.74638,2.44599 -18.75665,17.0989 -19.99118,27.65788 -1.5977,13.66563 16.15839,24.29929 15.99062,38.05698 -0.16608,13.62607 -16.75152,37.29606 -16.75152,37.29606 l 35.7743,-31.20879 c 0,0 19.69388,-21.20903 12.18604,-28.15364 -13.17213,-12.18383 -29.40046,-39.39932 -27.20826,-43.64849 z m 104.02548,110.816 c -7.9867,0 -14.46878,6.47056 -14.46878,14.45728 0,0.63684 0.047,1.25258 0.12679,1.86768 -18.95866,6.18585 -40.53565,20.39466 -40.53565,20.39466 l -14.34199,0 c -12.76654,-0.57614 -25.96967,-30.12932 -47.1649,-33.06495 l -25.14454,3.75843 c 27.33912,4.80018 32.10337,24.92122 35.29005,45.63148 2.05802,13.37526 3.46037,26.99889 9.88027,36.90409 15.24066,20.31875 44.78528,33.93871 75.64128,38.1608 l -4.23109,10.90627 -36.60434,9.15399 109.78993,0 -36.59283,-9.15399 -4.11582,-9.74194 c 30.31539,-1.76303 58.00542,-13.67713 70.23419,-38.40282 6.30125,10.18118 17.84885,25.91963 27.31207,22.34309 30.01618,-11.34453 35.30314,-78.44782 8.38151,-95.90915 -10.95738,-7.10691 -34.25245,19.03425 -34.25245,19.03425 l 0.0577,0.38045 -23.65741,0 c 0,0 -22.1233,-14.55825 -41.25047,-20.61371 0.0619,-0.54299 0.10376,-1.0891 0.10376,-1.64863 0,-7.98672 -6.47051,-14.45728 -14.45726,-14.45728 z m 96.76227,37.28454 c 2.06942,-0.0256 4.0986,1.04279 6.30633,3.02058 12.89099,11.67795 11.25975,37.77978 0.41504,47.44152 -2.20344,1.87572 -4.86831,3.5376 -7.53995,2.51331 -5.34856,-2.11879 -10.32147,-12.41655 -12.50885,-17.52397 1.13885,-7.17507 1.26125,-15.09944 0.20749,-23.7957 1.61619,-2.38405 3.98799,-5.58164 6.58303,-8.11636 2.35474,-2.38689 4.46748,-3.51376 6.53691,-3.53938 z"
       style="fill:#ffffe9;fill-opacity:1;stroke:none" />
  </g>
</svg>
