<?xml version="1.0" encoding="UTF-8" standalone="no"?>
<!-- Created with Inkscape (http://www.inkscape.org/) -->

<svg
   xmlns:dc="http://purl.org/dc/elements/1.1/"
   xmlns:cc="http://creativecommons.org/ns#"
   xmlns:rdf="http://www.w3.org/1999/02/22-rdf-syntax-ns#"
   xmlns:svg="http://www.w3.org/2000/svg"
   xmlns="http://www.w3.org/2000/svg"
   xmlns:sodipodi="http://sodipodi.sourceforge.net/DTD/sodipodi-0.dtd"
   xmlns:inkscape="http://www.inkscape.org/namespaces/inkscape"
   width="48"
   height="48"
   id="svg2"
   version="1.1"
   inkscape:version="0.48.4 r9939"
   sodipodi:docname="gkdebconf.svg">
  <defs
     id="defs4">
    <clipPath
       clipPathUnits="userSpaceOnUse"
       id="clipPath3891">
      <path
         sodipodi:nodetypes="scccccccccccccsscccccccccccccss"
         inkscape:connector-curvature="0"
         id="path3893"
         d="m 14.929796,1019.9515 c -1.088214,0 -1.96875,0.8806 -1.96875,1.9688 0.166816,1.3072 -0.268516,1.3767 -1.328125,1.9999 -1.104701,0.7979 -1.295073,0.8007 -2.3906252,0.1563 -0.942421,-0.5441 -2.143393,-0.2237 -2.6875,0.7188 l -0.8125,1.4062 c -0.544107,0.9424 -0.223671,2.1434 0.71875,2.6875 1.207179,0.5004 1.034696,0.9384 1.046875,2.1563 0.137759,1.3588 0.06562,1.5346 -1.046875,2.1562 -0.942421,0.5441 -1.262857,1.7138 -0.71875,2.6563 l 0.8125,1.4062 c 0.544107,0.9424 1.745079,1.2629 2.6875,0.7188 1.0596202,-0.7832 1.3312692,-0.4357 2.3906252,0.1875 1.203764,0.5637 1.328125,0.7296 1.328125,1.9687 0,1.0882 0.880536,1.9688 1.96875,1.9688 l 1.625,0 c 1.088214,0 1.96875,-0.8806 1.96875,-1.9688 -0.167594,-1.2868 0.290497,-1.3618 1.328125,-1.9843 1.103834,-0.8098 1.289728,-0.8195 2.390625,-0.1719 0.942421,0.5441 2.143393,0.2236 2.6875,-0.7188 l 0.8125,-1.4062 c 0.544107,-0.9425 0.223671,-2.1122 -0.71875,-2.6563 -1.207208,-0.5003 -1.034697,-0.9383 -1.04688,-2.1562 -0.137778,-1.3588 -0.06559,-1.5346 1.04687,-2.1563 0.942421,-0.5441 1.262857,-1.7451 0.71875,-2.6875 l -0.8125,-1.4062 c -0.544107,-0.9425 -1.745079,-1.2629 -2.6875,-0.7188 -1.057834,0.8147 -1.317775,0.4748 -2.390625,-0.1563 -1.220815,-0.569 -1.328125,-0.7444 -1.328125,-1.9999 0,-1.0882 -0.880536,-1.9688 -1.96875,-1.9688 z"
         style="color:#000000;fill:#385a5a;fill-opacity:1;fill-rule:evenodd;stroke:none;stroke-width:16;marker:none;visibility:visible;display:inline;overflow:visible;enable-background:accumulate" />
    </clipPath>
  </defs>
  <sodipodi:namedview
     id="base"
     pagecolor="#ffffff"
     bordercolor="#666666"
     borderopacity="1.0"
     inkscape:pageopacity="0.0"
     inkscape:pageshadow="2"
     inkscape:zoom="5.6"
     inkscape:cx="28.716548"
     inkscape:cy="18.979277"
     inkscape:document-units="px"
     inkscape:current-layer="layer1"
     showgrid="false"
     showguides="true"
     inkscape:guide-bbox="true"
     inkscape:window-width="1360"
     inkscape:window-height="721"
     inkscape:window-x="0"
     inkscape:window-y="25"
     inkscape:window-maximized="1" />
  <metadata
     id="metadata7">
    <rdf:RDF>
      <cc:Work
         rdf:about="">
        <dc:format>image/svg+xml</dc:format>
        <dc:type
           rdf:resource="http://purl.org/dc/dcmitype/StillImage" />
        <dc:title></dc:title>
      </cc:Work>
    </rdf:RDF>
  </metadata>
  <g
     inkscape:label="Capa 1"
     inkscape:groupmode="layer"
     id="layer1"
     transform="translate(0,-1004.3622)">
    <path
       sodipodi:nodetypes="scccccccccccccsscccccccccccccss"
       inkscape:connector-curvature="0"
       id="path3881"
       d="m 22.507635,1006.9717 c -2.143264,0 -3.877503,1.7344 -3.877503,3.8777 0.328548,2.5745 -0.52885,2.7115 -2.615778,3.9389 -2.175737,1.5714 -2.55068,1.577 -4.708398,0.3078 -1.8561211,-1.0716 -4.2214671,-0.4405 -5.2930993,1.4158 l -1.6002412,2.7695 c -1.0716322,1.8561 -0.4405251,4.2213 1.4155981,5.2931 2.3775694,0.9855 2.0378603,1.848 2.061848,4.2468 0.2713184,2.6762 0.1292386,3.0225 -2.061848,4.2468 -1.8561232,1.0716 -2.4872303,3.3753 -1.4155981,5.2316 l 1.6002412,2.7695 c 1.0716322,1.8562 3.4369782,2.4874 5.2930993,1.4156 2.08695,-1.5424 2.62197,-0.858 4.708398,0.3694 2.370845,1.1103 2.615778,1.437 2.615778,3.8774 0,2.1432 1.734239,3.8776 3.877503,3.8776 l 3.20048,0 c 2.143267,0 3.877503,-1.7344 3.877503,-3.8776 -0.330079,-2.5344 0.572144,-2.6822 2.615777,-3.9083 2.17403,-1.5947 2.540153,-1.6138 4.708398,-0.3385 1.856124,1.0718 4.221468,0.4406 5.293103,-1.4156 l 1.600238,-2.7695 c 1.071633,-1.8563 0.440525,-4.16 -1.415596,-5.2316 -2.377627,-0.9854 -2.037862,-1.848 -2.061858,-4.2468 -0.271357,-2.6761 -0.129185,-3.0224 2.061838,-4.2468 1.856122,-1.0718 2.48723,-3.437 1.415597,-5.2931 l -1.60024,-2.7695 c -1.071633,-1.8563 -3.436979,-2.4874 -5.2931,-1.4158 -2.083434,1.6046 -2.595393,0.9351 -4.708399,-0.3078 -2.404427,-1.1207 -2.615777,-1.4661 -2.615777,-3.9389 0,-2.1433 -1.734237,-3.8777 -3.877503,-3.8777 z"
       style="color:#000000;fill:#38435a;fill-opacity:1;fill-rule:evenodd;stroke:none;stroke-width:16;marker:none;visibility:visible;display:inline;overflow:visible;enable-background:accumulate" />
    <rect
       style="color:#000000;fill:#000000;fill-opacity:0.38118813;fill-rule:evenodd;stroke:none;stroke-width:16;marker:none;visibility:visible;display:inline;overflow:visible;enable-background:accumulate"
       id="rect3895"
       width="19.363783"
       height="8.7041569"
       x="14.425983"
       y="1024.4385"
       ry="3.8687115" />
    <path
       style="color:#000000;fill:#ffffff;fill-opacity:0.05499998;fill-rule:evenodd;stroke:none;stroke-width:16;marker:none;visibility:visible;display:inline;overflow:visible;enable-background:accumulate"
       d="m 14.407308,1029.2872 0,0.3076 c 0,2.1433 1.734239,3.8775 3.877504,3.8775 l 11.632512,0 c 1.986216,0 3.588127,-1.5236 3.815957,-3.4467 -0.359563,1.7662 -1.940599,3.139 -3.815957,3.139 l -11.632512,0 c -2.143265,0 -3.877504,-1.7342 -3.877504,-3.8774 z"
       id="rect3910"
       inkscape:connector-curvature="0" />
    <path
       sodipodi:type="arc"
       style="fill:#d9c4b7;fill-opacity:1;fill-rule:evenodd;stroke:none"
       id="path3897"
       sodipodi:cx="22.63373"
       sodipodi:cy="22.904022"
       sodipodi:rx="2.3675451"
       sodipodi:ry="2.3675451"
       d="m 25.001275,22.904022 a 2.3675451,2.3675451 0 1 1 -4.73509,0 2.3675451,2.3675451 0 1 1 4.73509,0 z"
       transform="matrix(1.969526,0,0,1.969526,-25.488792,983.68042)" />
    <path
       style="color:#000000;fill:#000000;fill-opacity:0.17326732;fill-rule:evenodd;stroke:none;stroke-width:16;marker:none;visibility:visible;display:inline;overflow:visible;enable-background:accumulate"
       d="m 18.705313,1010.2099 c -0.03631,0.2134 -0.0845,0.41 -0.0845,0.6338 0.01036,0.081 0.03425,0.1347 0.04225,0.2112 0.04429,-0.2367 0.05381,-0.5245 0.04225,-0.845 z m 25.561413,10.2669 c -0.178104,1.1101 -0.807157,2.1389 -1.859012,2.7462 -1.917709,1.0717 -2.23745,1.545 -2.112513,3.4223 0.167974,-0.8624 0.743124,-1.305 2.112513,-2.0702 1.472727,-0.8504 2.167334,-2.5197 1.859012,-4.0983 z m -40.3067573,0.042 c -0.2880535,1.5662 0.3992172,3.2132 1.859012,4.0561 1.7831778,0.7391 2.0442377,1.4032 2.0702632,2.704 -0.00603,-2.2504 0.2412614,-3.0979 -2.0702632,-4.0561 -1.0373383,-0.5989 -1.6703067,-1.6116 -1.859012,-2.704 z m 3.9292752,6.929 c 0.00333,0.4006 -0.00531,0.8595 0,1.3944 0.033913,0.3344 0.024449,0.5347 0.042252,0.8027 0.1007764,-0.5175 0.059496,-1.1935 -0.042252,-2.1971 z m -3.9292752,8.2388 c -0.1610895,0.8609 -0.015741,1.7873 0.4647523,2.6196 l 1.6055109,2.7463 c 1.0716313,1.8561 3.4251627,2.5082 5.2812831,1.4365 2.08695,-1.5425 2.603352,-0.8471 4.68978,0.3802 2.370845,1.1103 2.619517,1.4043 2.619517,3.8447 0,2.1432 1.74376,3.8871 3.887025,3.8871 l 3.211021,0 c 2.143266,0 3.887024,-1.7439 3.887024,-3.8871 -0.03308,-0.254 -0.07608,-0.4663 -0.0845,-0.6759 -0.314074,1.8268 -1.885329,3.211 -3.802524,3.211 l -3.211021,0 c -2.143264,0 -3.887024,-1.7438 -3.887024,-3.887 0,-2.4405 -0.248673,-2.7768 -2.619517,-3.887 -2.086429,-1.2274 -2.60283,-1.8805 -4.689781,-0.3381 -1.8561201,1.0718 -4.2096515,0.4197 -5.2812828,-1.4364 l -1.6055109,-2.7463 c -0.2308723,-0.3999 -0.3871666,-0.8429 -0.4647523,-1.2676 z m 40.3067573,0.085 c -0.0814,0.398 -0.248062,0.8076 -0.464753,1.183 l -1.60551,2.7462 c -1.071634,1.8562 -3.425161,2.5083 -5.281284,1.4365 -2.168246,-1.2753 -2.558,-1.2568 -4.732031,0.3381 -1.980402,1.188 -2.823319,1.3596 -2.577266,3.6758 0.240365,-1.0928 1.085966,-1.4292 2.577266,-2.3238 2.174031,-1.5949 2.563785,-1.6134 4.732031,-0.3381 1.856123,1.0718 4.20965,0.4197 5.281284,-1.4364 l 1.60551,-2.7463 c 0.464345,-0.8043 0.600934,-1.6993 0.464753,-2.535 z"
       id="path3758"
       inkscape:connector-curvature="0" />
  </g>
</svg>
