<?xml version="1.0" encoding="UTF-8" standalone="no"?>
<svg
   xmlns:dc="http://purl.org/dc/elements/1.1/"
   xmlns:cc="http://creativecommons.org/ns#"
   xmlns:rdf="http://www.w3.org/1999/02/22-rdf-syntax-ns#"
   xmlns:svg="http://www.w3.org/2000/svg"
   xmlns="http://www.w3.org/2000/svg"
   xmlns:sodipodi="http://sodipodi.sourceforge.net/DTD/sodipodi-0.dtd"
   xmlns:inkscape="http://www.inkscape.org/namespaces/inkscape"
   viewBox="0 0 48 48"
   id="svg2"
   version="1.1"
   inkscape:version="0.48.4 r9939"
   width="100%"
   height="100%"
   sodipodi:docname="audio-recorder.svg">
  <metadata
     id="metadata63">
    <rdf:RDF>
      <cc:Work
         rdf:about="">
        <dc:format>image/svg+xml</dc:format>
        <dc:type
           rdf:resource="http://purl.org/dc/dcmitype/StillImage" />
        <dc:title />
      </cc:Work>
    </rdf:RDF>
  </metadata>
  <sodipodi:namedview
     pagecolor="#ffffff"
     bordercolor="#666666"
     borderopacity="1"
     objecttolerance="10"
     gridtolerance="10"
     guidetolerance="10"
     inkscape:pageopacity="0"
     inkscape:pageshadow="2"
     inkscape:window-width="1360"
     inkscape:window-height="717"
     id="namedview61"
     showgrid="false"
     inkscape:zoom="3.4766083"
     inkscape:cx="32.096463"
     inkscape:cy="19.178043"
     inkscape:window-x="0"
     inkscape:window-y="25"
     inkscape:window-maximized="1"
     inkscape:current-layer="svg2" />
  <defs
     id="defs4">
    <linearGradient
       id="linearGradient3764"
       x1="1"
       x2="47"
       gradientUnits="userSpaceOnUse"
       gradientTransform="matrix(0,-1,1,0,-1.5e-6,47.999998)">
      <stop
         style="stop-color:#3d3d3d;stop-opacity:1"
         id="stop7" />
      <stop
         offset="1"
         style="stop-color:#474747;stop-opacity:1"
         id="stop9" />
    </linearGradient>
    <clipPath
       id="clipPath-934908849">
      <g
         transform="translate(0,-1004.3622)"
         id="g12">
        <path
           d="m -24 13 c 0 1.105 -0.672 2 -1.5 2 -0.828 0 -1.5 -0.895 -1.5 -2 0 -1.105 0.672 -2 1.5 -2 0.828 0 1.5 0.895 1.5 2 z"
           transform="matrix(15.333333,0,0,11.5,414.99999,878.8622)"
           style="fill:#1890d0"
           id="path14" />
      </g>
    </clipPath>
    <clipPath
       id="clipPath-942748752">
      <g
         transform="translate(0,-1004.3622)"
         id="g17">
        <path
           d="m -24 13 c 0 1.105 -0.672 2 -1.5 2 -0.828 0 -1.5 -0.895 -1.5 -2 0 -1.105 0.672 -2 1.5 -2 0.828 0 1.5 0.895 1.5 2 z"
           transform="matrix(15.333333,0,0,11.5,414.99999,878.8622)"
           style="fill:#1890d0"
           id="path19" />
      </g>
    </clipPath>
  </defs>
  <path
     sodipodi:type="arc"
     style="fill:#f15e70;fill-opacity:1;fill-rule:evenodd;stroke:none"
     id="path3872"
     sodipodi:cx="-96.64592"
     sodipodi:cy="36.206898"
     sodipodi:rx="19.271656"
     sodipodi:ry="19.271656"
     d="m -77.374264,36.206898 a 19.271656,19.271656 0 1 1 -38.543316,0 19.271656,19.271656 0 1 1 38.543316,0 z"
     transform="translate(120.51976,-11.793103)" />
  <path
     inkscape:connector-curvature="0"
     id="path3875"
     d="m 24.47007,13.601467 c -2.591592,0 -4.687499,2.095908 -4.687499,4.6875 l 0,6.6875 c 0,2.591592 2.095907,4.6875 4.687499,4.6875 2.591592,0 4.65625,-2.095908 4.65625,-4.6875 l 0,-6.6875 c 0,-2.591592 -2.064658,-4.6875 -4.65625,-4.6875 z m -7.781249,10.375 a 0.98308594,0.98308594 0 0 0 -0.8125,1.28125 c 0.46346,1.468725 1.1237,2.804791 1.96875,3.9375 0.84505,1.132709 1.87497,2.063209 3.031249,2.71875 0.838586,0.47543 1.762167,0.793019 2.71875,0.9375 l 0,1.78125 -1.28125,0 a 1.10011,1.10011 0 0 0 -0.125,0 1.1111342,1.1111342 0 1 0 0.125,2.21875 l 4.75,0 a 1.109375,1.109375 0 0 0 0,-2.21875 l -1.28125,0 0,-1.78125 c 0.956583,-0.144481 1.880164,-0.462071 2.71875,-0.9375 1.156275,-0.655541 2.154948,-1.586041 3,-2.71875 0.845051,-1.13271 1.536543,-2.468776 2,-3.9375 a 0.98338244,0.98338244 0 1 0 -1.875,-0.59375 c -0.401605,1.272712 -0.985745,2.434366 -1.6875,3.375 -0.701754,0.940633 -1.517291,1.683511 -2.40625,2.1875 -0.88896,0.503989 -1.841597,0.75 -2.84375,0.75 -1.002152,0 -1.954791,-0.246012 -2.84375,-0.75 l -0.03125,-0.03125 c -0.875119,-0.503552 -1.682772,-1.228386 -2.374999,-2.15625 -0.70176,-0.940635 -1.2859,-2.102289 -1.6875,-3.375 a 0.98308594,0.98308594 0 0 0 -1.0625,-0.6875 z"
     style="color:#000000;fill:#000000;fill-opacity:0.1641791;fill-rule:evenodd;stroke:none;stroke-width:14.78400040000000004;marker:none;visibility:visible;display:inline;overflow:visible;enable-background:accumulate" />
  <path
     style="color:#000000;fill:#202034;fill-opacity:1;fill-rule:evenodd;stroke:none;stroke-width:14.7840004;marker:none;visibility:visible;display:inline;overflow:visible;enable-background:accumulate"
     d="m 23.656511,12.787908 c -2.591592,0 -4.687499,2.095908 -4.687499,4.6875 l 0,6.6875 c 0,2.591592 2.095907,4.6875 4.687499,4.6875 2.591592,0 4.65625,-2.095908 4.65625,-4.6875 l 0,-6.6875 c 0,-2.591592 -2.064658,-4.6875 -4.65625,-4.6875 z m -7.781249,10.375 a 0.98308594,0.98308594 0 0 0 -0.8125,1.28125 c 0.46346,1.468725 1.1237,2.804791 1.96875,3.9375 0.84505,1.132709 1.87497,2.063209 3.031249,2.71875 0.838586,0.47543 1.762167,0.793019 2.71875,0.9375 l 0,1.78125 -1.28125,0 a 1.10011,1.10011 0 0 0 -0.125,0 1.1111342,1.1111342 0 1 0 0.125,2.21875 l 4.75,0 a 1.109375,1.109375 0 0 0 0,-2.21875 l -1.28125,0 0,-1.78125 c 0.956583,-0.144481 1.880164,-0.462071 2.71875,-0.9375 1.156275,-0.655541 2.154948,-1.586041 3,-2.71875 0.845051,-1.13271 1.536543,-2.468776 2,-3.9375 a 0.98338244,0.98338244 0 1 0 -1.875,-0.59375 c -0.401605,1.272712 -0.985745,2.434366 -1.6875,3.375 -0.701754,0.940633 -1.517291,1.683511 -2.40625,2.1875 -0.88896,0.503989 -1.841597,0.75 -2.84375,0.75 -1.002152,0 -1.954791,-0.246012 -2.84375,-0.75 l -0.03125,-0.03125 c -0.875119,-0.503552 -1.682772,-1.228386 -2.374999,-2.15625 -0.70176,-0.940635 -1.2859,-2.102289 -1.6875,-3.375 a 0.98308594,0.98308594 0 0 0 -1.0625,-0.6875 z"
     id="rect3848"
     inkscape:connector-curvature="0" />
  <path
     style="fill:#000000;fill-opacity:0.13930348;fill-rule:evenodd;stroke:none"
     d="M 40.28125 14.34375 C 41.723618 17.045341 42.53125 20.129806 42.53125 23.40625 C 42.53125 34.049692 33.893442 42.65625 23.25 42.65625 C 16.597849 42.65625 10.744506 39.282544 7.28125 34.15625 C 10.630595 39.848531 16.792756 43.6875 23.875 43.6875 C 34.518442 43.6875 43.15625 35.049692 43.15625 24.40625 C 43.15625 20.715072 42.080888 17.274343 40.28125 14.34375 z "
     id="path3877" />
</svg>
