<svg height="512" width="512" xmlns="http://www.w3.org/2000/svg" xmlns:xlink="http://www.w3.org/1999/xlink"><linearGradient id="a" gradientUnits="userSpaceOnUse" x1="-162.59503" x2="422.89948" y1="-51.96661" y2="383.611153"><stop offset="0"/><stop offset="1" stop-opacity="0"/></linearGradient><g transform="translate(0 464)"><path d="m44.322082 27.405077a19.729762 19.729765 0 0 1 -19.729762 19.729765 19.729762 19.729765 0 0 1 -19.7297621-19.729765 19.729762 19.729765 0 0 1 19.7297621-19.7297632 19.729762 19.729765 0 0 1 19.729762 19.7297632z" fill="#a7165f" opacity=".99" transform="matrix(12.332308 0 0 12.332308 -47.545312 -534.58518)"/><path d="m278.59961 118.14062-84.33789 79.29883 15.95508 15.95508-15.95508 5.90235 17.22461 17.2246-17.22461 4.63282 19.55273 19.55273 11.72071-1.49805 4.4414 2.56446-2.93945 21.35547-49.98828-28.86133-7.30274 50.47265 5.15625 24.32422c36.45038 40.63644 81.18543 47.96686 80.83594 57.06055-.21461 5.58413 4.1112 20.44569-7.04101 23.67188-18.84468 5.45148-56.96075-1.32527-54.43555 10.58593l265.03711 265.03711h122l-206.29492-206.29492c57.10199-32.11321 97.98439-85.32483 115.10937-146.74414zm211.51367 214.24024 7.66016 7.75781c.62514 6.05602 1.01822-48.71246 1.1875-66.89258-.51416 20.245-3.53613 40.08478-8.84766 59.13477zm8.84766-59.13477c.04956-1.9514.0852-3.90468.08789-5.86328-.01402-1.49551-.04631 1.39731-.08789 5.86328z" fill="url(#a)" transform="translate(0 -464)"/><path d="m255.46153-349.61732c-33.9048 0-61.2 27.2952-61.2 61.2v21.85715h52.45715v13.11428h-52.45715v8.74285h52.45715v13.11429h-52.45715v8.74286h52.45715v13.11429h-52.45715v30.6c0 33.9048 27.2952 61.2 61.2 61.2s61.2-27.2952 61.2-61.2v-30.6h-52.45713v-13.11429h52.45713v-8.74286h-52.45713v-13.11429h52.45713v-8.74285h-52.45713v-13.11428h52.45713v-21.85715c0-33.9048-27.2952-61.2-61.2-61.2zm0 34.97143a13.114285 13.114285 0 0 1 13.1143 13.11429 13.114285 13.114285 0 0 1 -13.1143 13.11428 13.114285 13.114285 0 0 1 -13.11428-13.11428 13.114285 13.114285 0 0 1 13.11428-13.11429zm-95.8982 104.91429v34.92871c0 54.68929 42.04526 90.953658 87.15535 95.257895v18.441961h-52.45715v17.485715h122.4v-17.485715h-52.45713v-18.339502c45.3158-3.382734 87.70178-34.076684 87.70178-95.360354v-34.92871h-17.48572v34.92871c0 51.97655-39.07261 78.20762-78.68571 78.20762s-78.68572-34.93519-78.68572-78.20762v-34.92871z" fill="#fff"/></g></svg>