<?xml version="1.0" encoding="UTF-8" standalone="no"?>
<!-- Created with Inkscape (http://www.inkscape.org/) -->

<svg
   xmlns:dc="http://purl.org/dc/elements/1.1/"
   xmlns:cc="http://creativecommons.org/ns#"
   xmlns:rdf="http://www.w3.org/1999/02/22-rdf-syntax-ns#"
   xmlns:svg="http://www.w3.org/2000/svg"
   xmlns="http://www.w3.org/2000/svg"
   xmlns:xlink="http://www.w3.org/1999/xlink"
   xmlns:sodipodi="http://sodipodi.sourceforge.net/DTD/sodipodi-0.dtd"
   xmlns:inkscape="http://www.inkscape.org/namespaces/inkscape"
   width="512"
   height="512"
   id="svg2"
   version="1.1"
   inkscape:version="0.92.2pre0 (973e216, 2017-07-25)"
   sodipodi:docname="screenie.svg">
  <defs
     id="defs4">
    <linearGradient
       inkscape:collect="always"
       id="linearGradient967">
      <stop
         style="stop-color:#000000;stop-opacity:1;"
         offset="0"
         id="stop963" />
      <stop
         style="stop-color:#000000;stop-opacity:0;"
         offset="1"
         id="stop965" />
    </linearGradient>
    <linearGradient
       inkscape:collect="always"
       id="linearGradient955">
      <stop
         style="stop-color:#000000;stop-opacity:1;"
         offset="0"
         id="stop951" />
      <stop
         style="stop-color:#000000;stop-opacity:0;"
         offset="1"
         id="stop953" />
    </linearGradient>
    <linearGradient
       id="linearGradient3889">
      <stop
         style="stop-color:#000000;stop-opacity:1;"
         offset="0"
         id="stop3891" />
      <stop
         style="stop-color:#000000;stop-opacity:0;"
         offset="1"
         id="stop3893" />
    </linearGradient>
    <linearGradient
       id="linearGradient3783">
      <stop
         style="stop-color:#000000;stop-opacity:1;"
         offset="0"
         id="stop3785" />
      <stop
         style="stop-color:#fb5549;stop-opacity:0;"
         offset="1"
         id="stop3787" />
    </linearGradient>
    <linearGradient
       inkscape:collect="always"
       xlink:href="#linearGradient3783"
       id="linearGradient3789"
       x1="-3045.6099"
       y1="379.88196"
       x2="-1068.8168"
       y2="1369.8314"
       gradientUnits="userSpaceOnUse" />
    <clipPath
       clipPathUnits="userSpaceOnUse"
       id="clipPath3793">
      <path
         d="m -937.14288,872.36218 a 762.85712,762.85712 0 1 1 -1525.71422,0 762.85712,762.85712 0 1 1 1525.71422,0 z"
         sodipodi:ry="762.85712"
         sodipodi:rx="762.85712"
         sodipodi:cy="872.36218"
         sodipodi:cx="-1700"
         id="path3795"
         style="fill:#fb5549;fill-opacity:1;fill-rule:evenodd;stroke:none"
         sodipodi:type="arc" />
    </clipPath>
    <linearGradient
       inkscape:collect="always"
       xlink:href="#linearGradient3783"
       id="linearGradient3821"
       gradientUnits="userSpaceOnUse"
       x1="-3045.6099"
       y1="379.88196"
       x2="-1068.8168"
       y2="1369.8314" />
    <clipPath
       clipPathUnits="userSpaceOnUse"
       id="clipPath3899">
      <path
         sodipodi:nodetypes="ssccssssccs"
         inkscape:connector-curvature="0"
         id="path3901"
         d="m 54.285714,83.428574 407.142846,0 c 16.62,0 30,13.38 30,29.999996 0,48.33333 -4.28571,96.66667 -4.28571,145 l 0,145 c 0,16.62 -13.38,30 -30,30 l -397.14285,0 c -16.62,0 -30,-13.38 -30,-30 l 0,-145 c 0,-48.33333 -5.714286,-96.66667 -5.714286,-145 0,-16.619996 13.38,-29.999996 30,-29.999996 z"
         style="color:#000000;fill:#1cc1c1;fill-opacity:1;fill-rule:evenodd;stroke:none;stroke-width:46.59999847;marker:none;visibility:visible;display:inline;overflow:visible;enable-background:accumulate" />
    </clipPath>
    <linearGradient
       id="linearGradient3866">
      <stop
         style="stop-color:#000000;stop-opacity:0.52083331"
         offset="0"
         id="stop3868" />
      <stop
         style="stop-color:#2883c3;stop-opacity:0;"
         offset="1"
         id="stop3870" />
    </linearGradient>
    <linearGradient
       id="linearGradient3874">
      <stop
         style="stop-color:#000d0e;stop-opacity:0.84105963;"
         offset="0"
         id="stop3876" />
      <stop
         style="stop-color:#000000;stop-opacity:0;"
         offset="1"
         id="stop3878" />
    </linearGradient>
    <linearGradient
       id="linearGradient3791">
      <stop
         style="stop-color:#063a54;stop-opacity:1;"
         offset="0"
         id="stop3793" />
      <stop
         style="stop-color:#5f91b0;stop-opacity:1;"
         offset="1"
         id="stop3795" />
    </linearGradient>
    <linearGradient
       id="linearGradient3783-3">
      <stop
         id="stop3858"
         offset="0"
         style="stop-color:#5ad2f3;stop-opacity:1;" />
      <stop
         style="stop-color:#083a6b;stop-opacity:0.99731797;"
         offset="1"
         id="stop3787-6" />
    </linearGradient>
    <linearGradient
       id="linearGradient4050-7">
      <stop
         id="stop4052-6"
         offset="0"
         style="stop-color:white;stop-opacity:0.50196081;" />
      <stop
         id="stop4054-0"
         offset="1"
         style="stop-color:#ffffff;stop-opacity:0;" />
    </linearGradient>
    <radialGradient
       gradientTransform="matrix(1.8129474,0,0,1.4,29.417831,-17.400037)"
       gradientUnits="userSpaceOnUse"
       xlink:href="#linearGradient3688-166-749-2-324"
       id="radialGradient3013-896"
       fy="43.5"
       fx="4.9929786"
       r="2.5"
       cy="43.5"
       cx="4.9929786" />
    <linearGradient
       id="linearGradient3688-166-749-2-324">
      <stop
         offset="0"
         style="stop-color:#181818;stop-opacity:1"
         id="stop3216" />
      <stop
         offset="1"
         style="stop-color:#181818;stop-opacity:0"
         id="stop3218" />
    </linearGradient>
    <radialGradient
       gradientTransform="matrix(1.8129474,0,0,1.4,-18.582168,-104.4)"
       gradientUnits="userSpaceOnUse"
       xlink:href="#linearGradient3688-166-749-2-324"
       id="radialGradient3015-826"
       fy="43.5"
       fx="4.9929786"
       r="2.5"
       cy="43.5"
       cx="4.9929786" />
    <linearGradient
       gradientUnits="userSpaceOnUse"
       xlink:href="#linearGradient3702-501-757-6-946"
       id="linearGradient4360"
       y2="39.999443"
       x2="25.058096"
       y1="47.027729"
       x1="25.058096"
       gradientTransform="matrix(1.0340136,0,0,1,-0.81632648,-3.7562839e-5)" />
    <linearGradient
       id="linearGradient3702-501-757-6-946">
      <stop
         offset="0"
         style="stop-color:#181818;stop-opacity:0"
         id="stop3228" />
      <stop
         offset="0.5"
         style="stop-color:#181818;stop-opacity:1"
         id="stop3230" />
      <stop
         offset="1"
         style="stop-color:#181818;stop-opacity:0"
         id="stop3232" />
    </linearGradient>
    <linearGradient
       inkscape:collect="always"
       xlink:href="#linearGradient955"
       id="linearGradient957"
       x1="-384.0831"
       y1="433.33606"
       x2="428.8259"
       y2="983.94897"
       gradientUnits="userSpaceOnUse"
       gradientTransform="translate(0,-540.36218)" />
    <linearGradient
       inkscape:collect="always"
       xlink:href="#linearGradient967"
       id="linearGradient969"
       x1="-104.47875"
       y1="593.55029"
       x2="405.74014"
       y2="933.31903"
       gradientUnits="userSpaceOnUse"
       gradientTransform="translate(0,-540.36218)" />
  </defs>
  <sodipodi:namedview
     id="base"
     pagecolor="#ffffff"
     bordercolor="#666666"
     borderopacity="1.0"
     inkscape:pageopacity="0.0"
     inkscape:pageshadow="2"
     inkscape:zoom="0.7"
     inkscape:cx="350.56203"
     inkscape:cy="257.94325"
     inkscape:document-units="px"
     inkscape:current-layer="layer1"
     showgrid="false"
     showguides="true"
     inkscape:guide-bbox="true"
     inkscape:window-width="1360"
     inkscape:window-height="740"
     inkscape:window-x="0"
     inkscape:window-y="0"
     inkscape:window-maximized="1" />
  <metadata
     id="metadata7">
    <rdf:RDF>
      <cc:Work
         rdf:about="">
        <dc:format>image/svg+xml</dc:format>
        <dc:type
           rdf:resource="http://purl.org/dc/dcmitype/StillImage" />
        <dc:title></dc:title>
      </cc:Work>
    </rdf:RDF>
  </metadata>
  <g
     inkscape:label="Capa 1"
     inkscape:groupmode="layer"
     id="layer1"
     transform="translate(0,-540.36218)">
    <path
       style="color:#000000;fill:#939dac;fill-opacity:1;fill-rule:evenodd;stroke:none;stroke-width:46.59999847;marker:none;visibility:visible;display:inline;overflow:visible;enable-background:accumulate"
       d="m 54.285714,83.428574 407.142846,0 c 16.62,0 30,13.38 30,29.999996 0,48.33333 -4.28571,96.66667 -4.28571,145 l 0,145 c 0,16.62 -13.38,30 -30,30 l -397.14285,0 c -16.62,0 -30,-13.38 -30,-30 l 0,-145 c 0,-48.33333 -5.714286,-96.66667 -5.714286,-145 0,-16.619996 13.38,-29.999996 30,-29.999996 z"
       id="rect3859"
       inkscape:connector-curvature="0"
       sodipodi:nodetypes="ssccssssccs"
       transform="translate(0,540.36218)" />
    <path
       style="fill:url(#linearGradient957);stroke:none;stroke-width:1px;stroke-linecap:butt;stroke-linejoin:miter;stroke-opacity:1;fill-opacity:1"
       d="M 238.57227 217 L 193.57031 225.78711 L 180.71484 242.92969 L 162.81836 242.74023 C 147.2147 287.44522 154.35578 326.68197 160 364.85742 L 278.76562 433.42773 L 457.14258 433.42773 C 473.76258 433.42773 487.14258 420.04773 487.14258 403.42773 L 487.14258 316.7832 L 351.42773 238.42773 L 275.76758 238.47461 L 238.57227 217 z "
       transform="translate(0,540.36218)"
       id="path945" />
    <path
       transform="translate(0,540.36218)"
       sodipodi:nodetypes="ssccccs"
       inkscape:connector-curvature="0"
       id="path836"
       d="M 54.285714,83.428574 H 461.42856 c 16.62,0 30,13.38 30,29.999996 0,24.16666 -1.07143,48.33333 -2.14286,72.5 H 27.142857 c -1.428572,-24.16667 -2.857143,-48.33334 -2.857143,-72.5 0,-16.619996 13.38,-29.999996 30,-29.999996 z"
       style="color:#000000;display:inline;overflow:visible;visibility:visible;fill:#636f81;fill-opacity:1;fill-rule:evenodd;stroke:none;stroke-width:46.59999847;marker:none;enable-background:accumulate" />
    <path
       transform="translate(0,540.36218)"
       sodipodi:nodetypes="ssccccs"
       inkscape:connector-curvature="0"
       id="path3881"
       d="m 54.285714,83.428574 407.142846,0 c 16.62,0 30,13.38 30,29.999996 0,48.33333 -4.28571,96.66667 -4.28571,145 l -457.14285,0 c 0,-48.33333 -5.714286,-96.66667 -5.714286,-145 0,-16.619996 13.38,-29.999996 30,-29.999996 z"
       style="color:#000000;fill:#000000;fill-opacity:0.075;fill-rule:evenodd;stroke:none;stroke-width:46.59999847000000273;marker:none;visibility:visible;display:inline;overflow:visible;enable-background:accumulate" />
    <circle
       style="fill:#ff8080;fill-opacity:1"
       id="path830"
       cx="76.771591"
       cy="675.57526"
       r="25.253813" />
    <circle
       r="25.253813"
       cy="675.57526"
       cx="151.01781"
       id="circle832"
       style="fill:#afe9c6;fill-opacity:1" />
    <circle
       style="fill:#e9ddaf;fill-opacity:1"
       id="circle834"
       cx="225.26402"
       cy="675.57526"
       r="25.253813" />
    <path
       style="color:#000000;font-style:normal;font-variant:normal;font-weight:normal;font-stretch:normal;font-size:medium;line-height:normal;font-family:sans-serif;font-variant-ligatures:normal;font-variant-position:normal;font-variant-caps:normal;font-variant-numeric:normal;font-variant-alternates:normal;font-feature-settings:normal;text-indent:0;text-align:start;text-decoration:none;text-decoration-line:none;text-decoration-style:solid;text-decoration-color:#000000;letter-spacing:normal;word-spacing:normal;text-transform:none;writing-mode:lr-tb;direction:ltr;text-orientation:mixed;dominant-baseline:auto;baseline-shift:baseline;text-anchor:start;white-space:normal;shape-padding:0;clip-rule:nonzero;display:inline;overflow:visible;visibility:visible;opacity:1;isolation:auto;mix-blend-mode:normal;color-interpolation:sRGB;color-interpolation-filters:linearRGB;solid-color:#000000;solid-opacity:1;vector-effect:none;fill:#ffffff;fill-opacity:1;fill-rule:nonzero;stroke:none;stroke-width:9;stroke-linecap:butt;stroke-linejoin:miter;stroke-miterlimit:4;stroke-dasharray:none;stroke-dashoffset:0;stroke-opacity:1;color-rendering:auto;image-rendering:auto;shape-rendering:auto;text-rendering:auto;enable-background:accumulate"
       d="m 193.57002,757.14929 c -5.18515,0 -9.5,4.31484 -9.5,9.5 v 7.14258 c 0,0.16862 0.0164,0.33333 0.0254,0.5 h -3.38085 c -16.66088,0 -30.21485,13.55396 -30.21485,30.21484 v 78.57031 c 0,16.66088 13.55397,30.21485 30.21485,30.21485 h 154.28515 c 16.66088,0 30.21485,-13.55397 30.21485,-30.21485 v -78.57031 c 0,-16.66088 -13.55397,-30.21484 -30.21485,-30.21484 h -90.52539 c 0.009,-0.16667 0.0254,-0.33138 0.0254,-0.5 v -7.14258 c 0,-5.18516 -4.31485,-9.5 -9.5,-9.5 z m 0,9 h 41.42969 c 0.35483,0 0.5,0.14517 0.5,0.5 v 7.14258 c 0,0.35482 -0.14517,0.5 -0.5,0.5 h -41.42969 c -0.35482,0 -0.5,-0.14518 -0.5,-0.5 v -7.14258 c 0,-0.35483 0.14518,-0.5 0.5,-0.5 z m -12.85546,17.14258 h 12.85546 41.42969 100 c 11.83055,0 21.21485,9.38429 21.21485,21.21484 v 78.57031 c 0,11.83055 -9.3843,21.21485 -21.21485,21.21485 H 180.71456 c -11.83056,0 -21.21485,-9.3843 -21.21485,-21.21485 v -78.57031 c 0,-11.83055 9.38429,-21.21484 21.21485,-21.21484 z m 64.51562,12.65625 c -0.56539,-0.005 -1.13001,8.2e-4 -1.69531,0.0156 -1.63188,0.0437 -3.24226,0.17131 -4.83008,0.3711 a 49.16089,49.16089 0 0 0 -0.20898,0.0312 c -1.52763,0.19893 -3.03187,0.46821 -4.51172,0.80468 a 49.16089,49.16089 0 0 0 -0.44922,0.10743 c -1.39607,0.3314 -2.76822,0.72189 -4.11524,1.16992 a 49.16089,49.16089 0 0 0 -0.69531,0.23633 c -1.23441,0.43137 -2.44544,0.91249 -3.63281,1.4375 a 49.16089,49.16089 0 0 0 -0.98828,0.43945 c -1.06308,0.49842 -2.10097,1.0407 -3.1211,1.61133 a 49.16089,49.16089 0 0 0 -1.78711,1.04883 c -0.71549,0.44067 -1.41858,0.89745 -2.10937,1.37304 a 49.16089,49.16089 0 0 0 -2.08594,1.51367 c -0.64717,0.49695 -1.28676,1.00361 -1.9082,1.53125 -0.002,0.002 -0.004,0.004 -0.006,0.006 a 49.16089,49.16089 0 0 0 -5.48633,5.46485 c -0.2446,0.2842 -0.48052,0.57548 -0.71875,0.86523 a 49.16089,49.16089 0 0 0 -2.0039,2.5918 c -0.50589,0.70524 -0.98998,1.42784 -1.45899,2.16015 a 49.16089,49.16089 0 0 0 -1.08008,1.76563 c -0.53225,0.9133 -1.03189,1.84734 -1.50586,2.79687 a 49.16089,49.16089 0 0 0 -0.63086,1.31446 c -0.54983,1.18892 -1.0584,2.40026 -1.51367,3.63867 a 49.16089,49.16089 0 0 0 -0.23242,0.66406 c -0.4676,1.33106 -0.87924,2.68878 -1.23242,4.07031 a 49.16089,49.16089 0 0 0 -0.11914,0.47266 c -0.35462,1.44757 -0.64641,2.91992 -0.86914,4.41602 a 49.16089,49.16089 0 0 0 -0.0449,0.28906 c -0.22438,1.57184 -0.37977,3.16706 -0.45118,4.78515 -0.0674,1.52292 -0.0527,3.0287 0.0254,4.51954 a 49.16089,49.16089 0 0 0 0.0508,0.85156 c 0.0819,1.16714 0.20672,2.32177 0.36914,3.4668 a 49.16089,49.16089 0 0 0 0.36328,2.21289 c 0.1255,0.67225 0.25771,1.34229 0.4082,2.00586 h 0.01 a 49.16089,49.16089 0 0 0 0.97851,3.625 h -0.0176 c 0.0679,0.21963 0.15172,0.43206 0.22266,0.65039 a 49.16089,49.16089 0 0 0 1.63672,4.32812 c 0.11663,0.2692 0.22636,0.54187 0.34765,0.8086 a 49.16089,49.16089 0 0 0 1.21094,2.48828 c 0.0194,0.0369 0.0411,0.0725 0.0606,0.10937 a 49.16089,49.16089 0 0 0 2.87109,4.75586 c 0.10453,0.15313 0.21019,0.30514 0.31641,0.45703 a 49.16089,49.16089 0 0 0 9.81055,10.41016 c 0.076,0.0601 0.15212,0.11998 0.22851,0.17969 a 49.16089,49.16089 0 0 0 4.75391,3.29101 49.16089,49.16089 0 0 0 2.57617,1.46094 c 0.0345,0.0182 0.071,0.0327 0.10547,0.0508 a 49.16089,49.16089 0 0 0 5.09961,2.30469 c 0.18014,0.0695 0.35982,0.13957 0.54101,0.20703 a 49.16089,49.16089 0 0 0 7.86328,2.21875 c 1.01262,0.19927 2.03478,0.37041 3.06836,0.50976 a 49.16089,49.16089 0 0 0 1.23438,0.14844 c 0.89711,0.097 1.79871,0.17854 2.71289,0.22071 1.64648,0.0758 3.2768,0.0632 4.88867,-0.0215 0.008,-4.4e-4 0.017,4.5e-4 0.0254,0 a 49.16089,49.16089 0 0 0 0.01,0 c 6.69157,-0.35615 13.04974,-2.06387 18.79687,-4.86328 a 49.16089,49.16089 0 0 0 0.14063,-0.0644 c 1.36196,-0.66872 2.6856,-1.40335 3.97461,-2.19141 a 49.16089,49.16089 0 0 0 0.65039,-0.41016 c 1.13021,-0.71543 2.23239,-1.47238 3.29883,-2.27539 a 49.16089,49.16089 0 0 0 0.89648,-0.70117 c 1.0207,-0.80599 2.0188,-1.6401 2.97266,-2.52344 v -0.002 a 49.16089,49.16089 0 0 0 2.63867,-2.68945 l 0.0156,0.0273 c 0.17398,-0.18762 0.33867,-0.38388 0.50977,-0.57422 a 49.16089,49.16089 0 0 0 0.79883,-0.89648 c 0.87062,-1.01691 1.699,-2.07124 2.48633,-3.15821 a 49.16089,49.16089 0 0 0 0.51367,-0.72851 c 0.78417,-1.12479 1.52248,-2.28288 2.21289,-3.47461 a 49.16089,49.16089 0 0 0 0.33398,-0.5918 c 0.70767,-1.26143 1.36013,-2.55816 1.95703,-3.88672 a 49.16089,49.16089 0 0 0 0.14063,-0.31054 c 1.27943,-2.90178 2.28772,-5.95319 2.99023,-9.12696 a 49.16089,49.16089 0 0 0 0.0391,-0.18945 c 0.32224,-1.48357 0.5764,-2.99238 0.76171,-4.52539 a 49.16089,49.16089 0 0 0 0.0625,-0.5293 c 0.11112,-1.01069 0.20278,-2.02708 0.25196,-3.05664 l 0.0137,-0.35547 c 0.0626,-1.54127 0.0432,-3.06473 -0.043,-4.57226 a 49.16089,49.16089 0 0 0 -0.0508,-0.77539 c -0.0853,-1.16281 -0.21378,-2.31446 -0.37891,-3.45508 a 49.16089,49.16089 0 0 0 -0.60351,-3.31641 c -0.0535,-0.25246 -0.0915,-0.5105 -0.14844,-0.76171 h -0.0137 a 49.16089,49.16089 0 0 0 -0.97461,-3.625 h 0.0176 c -0.0766,-0.24751 -0.17158,-0.48658 -0.25196,-0.73243 a 49.16089,49.16089 0 0 0 -1.61914,-4.26953 c -0.122,-0.28119 -0.23815,-0.56527 -0.36523,-0.84375 a 49.16089,49.16089 0 0 0 -4.15235,-7.35156 c -0.0918,-0.13407 -0.18428,-0.26728 -0.27734,-0.40039 a 49.16089,49.16089 0 0 0 -3.40039,-4.33594 c -0.0342,-0.0388 -0.0673,-0.0785 -0.10156,-0.11719 a 49.16089,49.16089 0 0 0 -6.21485,-5.88476 c -0.16521,-0.13142 -0.33304,-0.25934 -0.5,-0.38867 a 49.16089,49.16089 0 0 0 -4.15039,-2.88086 c -0.19177,-0.11921 -0.3787,-0.24469 -0.57226,-0.36133 a 49.16089,49.16089 0 0 0 -2.4043,-1.36133 c -0.15138,-0.0799 -0.30861,-0.1501 -0.46094,-0.22852 a 49.16089,49.16089 0 0 0 -4.5625,-2.05859 c -0.33742,-0.13201 -0.67644,-0.25999 -1.01758,-0.38476 a 49.16089,49.16089 0 0 0 -7.62109,-2.12696 c -1.07316,-0.20994 -2.15712,-0.38729 -3.25391,-0.52929 a 49.16089,49.16089 0 0 0 -1.15624,-0.13672 c -0.91335,-0.0955 -1.83128,-0.17348 -2.76172,-0.21289 -0.56498,-0.0242 -1.13188,-0.0383 -1.69727,-0.043 z m 81.22266,1.85547 a 14.142136,14.142136 0 0 0 -14.14258,14.14257 14.142136,14.142136 0 0 0 14.14258,14.14258 14.142136,14.142136 0 0 0 14.14062,-14.14258 14.142136,14.142136 0 0 0 -14.14062,-14.14257 z m -75.76758,8.16992 a 39.579158,39.579158 0 0 1 3.75586,0.74219 l -13.78906,23.88086 h 40.96484 a 39.579158,39.579158 0 0 1 1.23047,3.625 h -27.52149 l 20.48438,35.48046 a 39.579158,39.579158 0 0 1 -2.52539,2.88672 l -13.76758,-23.84375 -20.50195,35.50977 a 39.579158,39.579158 0 0 1 -3.75977,-0.74805 l 13.78906,-23.88476 h -40.96875 a 39.579158,39.579158 0 0 1 -1.23242,-3.625 h 27.5293 l -20.48438,-35.48829 a 39.579158,39.579158 0 0 1 2.52149,-2.8789 l 13.76953,23.85156 z"
       id="rect838"
       inkscape:connector-curvature="0" />
    <path
       style="fill:url(#linearGradient969);stroke:none;stroke-width:1px;stroke-linecap:butt;stroke-linejoin:miter;stroke-opacity:1;fill-opacity:1"
       d="M 263.65039 258.95703 L 213.0918 267.27734 L 196.96484 315.63477 L 218.19336 346.83984 L 365.96875 432.1582 L 485.87891 412.08789 C 486.69835 409.34769 487.14258 406.44146 487.14258 403.42773 L 487.14258 387.99023 L 263.65039 258.95703 z M 332.8457 258.95703 L 318.70312 283.20117 L 487.14258 380.44922 L 487.14258 348.03906 L 332.8457 258.95703 z "
       transform="translate(0,540.36218)"
       id="path961" />
    <path
       inkscape:connector-curvature="0"
       id="path978"
       d="m 245.23018,795.94812 c -0.56539,-0.005 -1.13001,8.2e-4 -1.69531,0.0156 -1.63188,0.0437 -3.24226,0.17131 -4.83008,0.3711 -0.0697,0.0102 -0.13934,0.0206 -0.20898,0.0312 -1.52763,0.19893 -3.03187,0.46821 -4.51172,0.80468 -0.14991,0.0351 -0.29965,0.0709 -0.44922,0.10743 -1.39607,0.3314 -2.76822,0.72189 -4.11524,1.16992 -0.23236,0.077 -0.46413,0.15582 -0.69531,0.23633 -1.23441,0.43137 -2.44544,0.91249 -3.63281,1.4375 -0.33103,0.14285 -0.66047,0.28935 -0.98828,0.43945 -1.06308,0.49842 -2.10097,1.0407 -3.1211,1.61133 -0.60301,0.33702 -1.19884,0.6867 -1.78711,1.04883 -0.71549,0.44067 -1.41858,0.89745 -2.10937,1.37304 -0.70842,0.48624 -1.40397,0.99097 -2.08594,1.51367 -0.64717,0.49695 -1.28676,1.00361 -1.9082,1.53125 l -0.006,0.006 c -1.96962,1.67453 -3.80409,3.50181 -5.48633,5.46485 -0.2446,0.2842 -0.48052,0.57548 -0.71875,0.86523 -0.69658,0.84143 -1.36491,1.70584 -2.0039,2.5918 -0.50589,0.70524 -0.98998,1.42784 -1.45899,2.16015 -0.37238,0.5809 -0.73248,1.16957 -1.08008,1.76563 -0.53225,0.9133 -1.03189,1.84734 -1.50586,2.79687 -0.21677,0.43501 -0.42708,0.87321 -0.63086,1.31446 -0.54983,1.18892 -1.0584,2.40026 -1.51367,3.63867 -0.0791,0.2208 -0.15653,0.44216 -0.23242,0.66406 -0.4676,1.33106 -0.87924,2.68878 -1.23242,4.07031 -0.0405,0.15736 -0.0802,0.31491 -0.11914,0.47266 -0.35462,1.44757 -0.64641,2.91992 -0.86914,4.41602 -0.0152,0.0963 -0.0302,0.19266 -0.0449,0.28906 -0.22438,1.57184 -0.37977,3.16706 -0.45118,4.78515 -0.0674,1.52292 -0.0527,3.0287 0.0254,4.51954 0.0145,0.28399 0.0314,0.56786 0.0508,0.85156 0.0819,1.16714 0.20672,2.32177 0.36914,3.4668 0.10425,0.7403 0.22538,1.47812 0.36328,2.21289 0.1255,0.67225 0.25771,1.34229 0.4082,2.00586 h 0.01 c 0.27989,1.22035 0.6063,2.42957 0.97851,3.625 h -0.0176 c 0.0679,0.21963 0.15172,0.43206 0.22266,0.65039 0.47734,1.4676 1.02351,2.9119 1.63672,4.32812 0.11663,0.2692 0.22636,0.54187 0.34765,0.8086 0.38022,0.84063 0.78402,1.67038 1.21094,2.48828 0.0194,0.0369 0.0411,0.0725 0.0606,0.10937 0.86662,1.63814 1.82518,3.22596 2.87109,4.75586 0.10453,0.15313 0.21019,0.30514 0.31641,0.45703 2.74515,3.92981 6.05031,7.43698 9.81055,10.41016 0.076,0.0601 0.15212,0.11998 0.22851,0.17969 1.5187,1.18932 3.10608,2.28822 4.75391,3.29101 0.84386,0.51274 1.70297,0.99994 2.57617,1.46094 0.0345,0.0182 0.071,0.0327 0.10547,0.0508 1.65473,0.86444 3.35736,1.63391 5.09961,2.30469 0.18014,0.0695 0.35982,0.13957 0.54101,0.20703 2.55499,0.95649 5.18516,1.69863 7.86328,2.21875 1.01262,0.19927 2.03478,0.37041 3.06836,0.50976 0.41082,0.0547 0.82231,0.10417 1.23438,0.14844 0.89711,0.097 1.79871,0.17854 2.71289,0.22071 1.64648,0.0758 3.2768,0.0632 4.88867,-0.0215 0.008,-4.4e-4 0.017,4.5e-4 0.0254,0 h 0.01 c 6.69157,-0.35615 13.04974,-2.06387 18.79687,-4.86328 0.0469,-0.0214 0.0938,-0.0429 0.14063,-0.0644 1.36196,-0.66872 2.6856,-1.40335 3.97461,-2.19141 0.21786,-0.13502 0.43467,-0.27175 0.65039,-0.41016 1.13021,-0.71543 2.23239,-1.47238 3.29883,-2.27539 0.30152,-0.23026 0.60037,-0.464 0.89648,-0.70117 1.0207,-0.80599 2.0188,-1.6401 2.97266,-2.52344 v -0.002 c 0.9136,-0.86244 1.7938,-1.75958 2.63867,-2.68945 l 0.0156,0.0273 c 0.17398,-0.18762 0.33867,-0.38388 0.50977,-0.57422 0.26992,-0.29556 0.53621,-0.59441 0.79883,-0.89648 0.87062,-1.01691 1.699,-2.07124 2.48633,-3.15821 0.17342,-0.24128 0.34465,-0.48413 0.51367,-0.72851 0.78417,-1.12479 1.52248,-2.28288 2.21289,-3.47461 0.11269,-0.19649 0.22402,-0.39377 0.33398,-0.5918 0.70767,-1.26143 1.36013,-2.55816 1.95703,-3.88672 0.0472,-0.10335 0.0941,-0.20686 0.14063,-0.31054 1.27943,-2.90178 2.28772,-5.95319 2.99023,-9.12696 0.0132,-0.0631 0.0262,-0.12627 0.0391,-0.18945 0.32224,-1.48357 0.5764,-2.99238 0.76171,-4.52539 0.0218,-0.17632 0.0426,-0.35276 0.0625,-0.5293 0.11112,-1.01069 0.20278,-2.02708 0.25196,-3.05664 l 0.0137,-0.35547 c 0.0626,-1.54127 0.0432,-3.06473 -0.043,-4.57226 -0.0149,-0.25859 -0.0318,-0.51706 -0.0508,-0.77539 -0.0853,-1.16281 -0.21378,-2.31446 -0.37891,-3.45508 -0.1632,-1.11204 -0.36449,-2.21816 -0.60351,-3.31641 -0.0535,-0.25246 -0.0915,-0.5105 -0.14844,-0.76171 h -0.0137 c -0.2786,-1.2203 -0.60371,-2.42951 -0.97461,-3.625 h 0.0176 c -0.0766,-0.24751 -0.17158,-0.48658 -0.25196,-0.73243 -0.47329,-1.44749 -1.01359,-2.8722 -1.61914,-4.26953 -0.122,-0.28119 -0.23815,-0.56527 -0.36523,-0.84375 -1.17073,-2.56506 -2.55997,-5.02465 -4.15235,-7.35156 -0.0918,-0.13407 -0.18428,-0.26728 -0.27734,-0.40039 -1.05151,-1.50775 -2.18675,-2.95534 -3.40039,-4.33594 -0.0342,-0.0388 -0.0673,-0.0785 -0.10156,-0.11719 -1.8966,-2.13853 -3.97609,-4.10758 -6.21485,-5.88476 -0.16521,-0.13142 -0.33304,-0.25934 -0.5,-0.38867 -1.33317,-1.03079 -2.71846,-1.99234 -4.15039,-2.88086 -0.19177,-0.11921 -0.3787,-0.24469 -0.57226,-0.36133 -0.78852,-0.47621 -1.59027,-0.93017 -2.4043,-1.36133 -0.15138,-0.0799 -0.30861,-0.1501 -0.46094,-0.22852 -1.48489,-0.76323 -3.0077,-1.45031 -4.5625,-2.05859 -0.33742,-0.13201 -0.67644,-0.25999 -1.01758,-0.38476 -2.47909,-0.9126 -5.02771,-1.62389 -7.62109,-2.12696 -1.07316,-0.20994 -2.15712,-0.38729 -3.25391,-0.52929 -0.38486,-0.0501 -0.7703,-0.0957 -1.15624,-0.13672 -0.91335,-0.0955 -1.83128,-0.17348 -2.76172,-0.21289 -0.56498,-0.0242 -1.13188,-0.0383 -1.69727,-0.043 z m 81.22266,1.85547 c -7.81083,-2.5e-4 -14.14282,6.33174 -14.14258,14.14257 -2.5e-4,7.81083 6.33175,14.14283 14.14258,14.14258 7.81007,-8.4e-4 14.14087,-6.33251 14.14062,-14.14258 2.4e-4,-7.81006 -6.33056,-14.14173 -14.14062,-14.14257 z m -75.76758,8.16992 c 1.26319,0.18667 2.51661,0.43435 3.75586,0.74219 l -13.78906,23.88086 h 40.96484 c 0.46839,1.18778 0.87902,2.39753 1.23047,3.625 h -27.52149 l 20.48438,35.48046 c -0.79465,1.00249 -1.63744,1.96586 -2.52539,2.88672 l -13.76758,-23.84375 -20.50195,35.50977 c -1.2646,-0.18848 -2.51933,-0.43812 -3.75977,-0.74805 l 13.78906,-23.88476 h -40.96875 c -0.46905,-1.18774 -0.88033,-2.39749 -1.23242,-3.625 h 27.5293 l -20.48438,-35.48829 c 0.79358,-0.99973 1.63506,-1.96049 2.52149,-2.8789 l 13.76953,23.85156 z"
       style="color:#000000;font-style:normal;font-variant:normal;font-weight:normal;font-stretch:normal;font-size:medium;line-height:normal;font-family:sans-serif;font-variant-ligatures:normal;font-variant-position:normal;font-variant-caps:normal;font-variant-numeric:normal;font-variant-alternates:normal;font-feature-settings:normal;text-indent:0;text-align:start;text-decoration:none;text-decoration-line:none;text-decoration-style:solid;text-decoration-color:#000000;letter-spacing:normal;word-spacing:normal;text-transform:none;writing-mode:lr-tb;direction:ltr;text-orientation:mixed;dominant-baseline:auto;baseline-shift:baseline;text-anchor:start;white-space:normal;shape-padding:0;clip-rule:nonzero;display:inline;overflow:visible;visibility:visible;opacity:1;isolation:auto;mix-blend-mode:normal;color-interpolation:sRGB;color-interpolation-filters:linearRGB;solid-color:#000000;solid-opacity:1;vector-effect:none;fill:#ffffff;fill-opacity:1;fill-rule:nonzero;stroke:none;stroke-width:9;stroke-linecap:butt;stroke-linejoin:miter;stroke-miterlimit:4;stroke-dasharray:none;stroke-dashoffset:0;stroke-opacity:1;color-rendering:auto;image-rendering:auto;shape-rendering:auto;text-rendering:auto;enable-background:accumulate"
       sodipodi:nodetypes="cccccccccccccccccccccccccccccccccccccccccccccccccccccccccccccccccccccccccccccccccccccccccccccccccccccccccccccccccccccccccccccccccccccccc" />
  </g>
</svg>
