<?xml version="1.0" encoding="UTF-8" standalone="no"?>
<!-- Created with Inkscape (http://www.inkscape.org/) -->

<svg
   xmlns:dc="http://purl.org/dc/elements/1.1/"
   xmlns:cc="http://creativecommons.org/ns#"
   xmlns:rdf="http://www.w3.org/1999/02/22-rdf-syntax-ns#"
   xmlns:svg="http://www.w3.org/2000/svg"
   xmlns="http://www.w3.org/2000/svg"
   xmlns:sodipodi="http://sodipodi.sourceforge.net/DTD/sodipodi-0.dtd"
   xmlns:inkscape="http://www.inkscape.org/namespaces/inkscape"
   width="512"
   height="512"
   id="svg3752"
   version="1.1"
   inkscape:version="0.48.4 r9939"
   sodipodi:docname="gnumeric5.svg"
   inkscape:export-filename="/home/silerio/Imágenes/iconos/gnumeric3.png"
   inkscape:export-xdpi="90"
   inkscape:export-ydpi="90">
  <defs
     id="defs3754">
    <clipPath
       clipPathUnits="userSpaceOnUse"
       id="clipPath4355">
      <path
         sodipodi:nodetypes="ccccccccccc"
         inkscape:connector-curvature="0"
         id="path4357"
         d="m 413.15743,-331.13406 -86.52622,-80.17627 -86.52623,80.17627 -86.52622,-80.17627 -86.526225,80.17627 0,320.87256 86.526225,-80.17627 86.52622,80.17627 86.52623,-80.17627 86.52622,80.17627 z"
         style="fill:#fcc199;fill-opacity:1;stroke:none" />
    </clipPath>
    <clipPath
       clipPathUnits="userSpaceOnUse"
       id="clipPath4098">
      <rect
         ry="0"
         y="-244.30171"
         x="87.910294"
         height="248.34657"
         width="401.83319"
         id="rect4100"
         style="color:#000000;fill:#1f3944;fill-opacity:1;fill-rule:evenodd;stroke:none;stroke-width:16;marker:none;visibility:visible;display:inline;overflow:visible;enable-background:accumulate" />
    </clipPath>
    <clipPath
       clipPathUnits="userSpaceOnUse"
       id="clipPath4102">
      <rect
         ry="0"
         y="-244.30171"
         x="87.910294"
         height="248.34657"
         width="401.83319"
         id="rect4104"
         style="color:#000000;fill:#1f3944;fill-opacity:1;fill-rule:evenodd;stroke:none;stroke-width:16;marker:none;visibility:visible;display:inline;overflow:visible;enable-background:accumulate" />
    </clipPath>
    <clipPath
       clipPathUnits="userSpaceOnUse"
       id="clipPath4106">
      <rect
         ry="0"
         y="219.69829"
         x="87.910294"
         height="248.34657"
         width="401.83319"
         id="rect4108"
         style="color:#000000;fill:#1f3944;fill-opacity:1;fill-rule:evenodd;stroke:none;stroke-width:16;marker:none;visibility:visible;display:inline;overflow:visible;enable-background:accumulate" />
    </clipPath>
    <clipPath
       clipPathUnits="userSpaceOnUse"
       id="clipPath4121">
      <rect
         ry="0"
         y="-244.30171"
         x="87.910294"
         height="248.34657"
         width="401.83319"
         id="rect4123"
         style="color:#000000;fill:#1f3944;fill-opacity:1;fill-rule:evenodd;stroke:none;stroke-width:16;marker:none;visibility:visible;display:inline;overflow:visible;enable-background:accumulate" />
    </clipPath>
    <clipPath
       clipPathUnits="userSpaceOnUse"
       id="clipPath4474">
      <rect
         ry="0"
         y="-258.9483"
         x="68.675484"
         height="241.94299"
         width="391.47198"
         id="rect4476"
         style="color:#000000;fill:#2f3945;fill-opacity:1;fill-rule:evenodd;stroke:none;stroke-width:16;marker:none;visibility:visible;display:inline;overflow:visible;enable-background:accumulate" />
    </clipPath>
    <clipPath
       clipPathUnits="userSpaceOnUse"
       id="clipPath4620">
      <rect
         ry="0"
         y="-271.98083"
         x="75.770462"
         height="269.43243"
         width="435.95084"
         id="rect4622"
         style="color:#000000;fill:#2f3945;fill-opacity:1;fill-rule:evenodd;stroke:none;stroke-width:16;marker:none;visibility:visible;display:inline;overflow:visible;enable-background:accumulate" />
    </clipPath>
    <clipPath
       clipPathUnits="userSpaceOnUse"
       id="clipPath3803">
      <path
         inkscape:connector-curvature="0"
         id="path3805"
         d="m 991.48327,-135.37776 c -101.27676,0 -183.37779,-82.1011 -183.37779,-183.37783 0,-101.27676 82.10103,-183.37779 183.37779,-183.37779 101.27673,0 183.37783,82.10103 183.37783,183.37779 0,101.27673 -82.1011,183.37783 -183.37783,183.37783 z"
         style="fill:#ff0000;fill-rule:evenodd;stroke:none" />
    </clipPath>
    <clipPath
       clipPathUnits="userSpaceOnUse"
       id="clipPath3817">
      <path
         inkscape:connector-curvature="0"
         id="path3819"
         d="m 1003.9157,-135.37776 c -101.2768,0 -183.37783,-82.1011 -183.37783,-183.37783 0,-101.27676 82.10103,-183.37779 183.37783,-183.37779 101.2767,0 183.3778,82.10103 183.3778,183.37779 0,101.27673 -82.1011,183.37783 -183.3778,183.37783 z"
         style="fill:#ff0000;fill-rule:evenodd;stroke:none" />
    </clipPath>
    <clipPath
       clipPathUnits="userSpaceOnUse"
       id="clipPath3803-6">
      <path
         inkscape:connector-curvature="0"
         id="path3805-5"
         d="m 991.48327,-135.37776 c -101.27676,0 -183.37779,-82.1011 -183.37779,-183.37783 0,-101.27676 82.10103,-183.37779 183.37779,-183.37779 101.27673,0 183.37783,82.10103 183.37783,183.37779 0,101.27673 -82.1011,183.37783 -183.37783,183.37783 z"
         style="fill:#ff0000;fill-rule:evenodd;stroke:none" />
    </clipPath>
    <clipPath
       clipPathUnits="userSpaceOnUse"
       id="clipPath3902">
      <path
         inkscape:connector-curvature="0"
         id="path3904"
         d="m 264.18836,13.810948 c -101.2768,0 -183.377829,-82.1011 -183.377829,-183.377828 0,-101.27676 82.101029,-183.37779 183.377829,-183.37779 101.2767,0 183.3778,82.10103 183.3778,183.37779 0,101.276728 -82.1011,183.377828 -183.3778,183.377828 z"
         style="fill:#d9454d;fill-opacity:1;fill-rule:evenodd;stroke:none" />
    </clipPath>
    <clipPath
       clipPathUnits="userSpaceOnUse"
       id="clipPath3932">
      <path
         inkscape:connector-curvature="0"
         id="path3934"
         d="m 276.27602,16.008705 c -101.2768,0 -183.377824,-82.1011 -183.377824,-183.377825 0,-101.27676 82.101024,-183.37779 183.377824,-183.37779 101.2767,0 183.3778,82.10103 183.3778,183.37779 0,101.276725 -82.1011,183.377825 -183.3778,183.377825 z"
         style="fill:#d9454d;fill-opacity:1;fill-rule:evenodd;stroke:none" />
    </clipPath>
  </defs>
  <sodipodi:namedview
     id="base"
     pagecolor="#ffffff"
     bordercolor="#666666"
     borderopacity="1.0"
     inkscape:pageopacity="0.0"
     inkscape:pageshadow="2"
     inkscape:zoom="0.45500931"
     inkscape:cx="114.50508"
     inkscape:cy="303.63886"
     inkscape:current-layer="layer1"
     showgrid="true"
     inkscape:grid-bbox="true"
     inkscape:document-units="px"
     inkscape:window-width="1360"
     inkscape:window-height="719"
     inkscape:window-x="0"
     inkscape:window-y="25"
     inkscape:window-maximized="1"
     showguides="true"
     inkscape:guide-bbox="true" />
  <metadata
     id="metadata3757">
    <rdf:RDF>
      <cc:Work
         rdf:about="">
        <dc:format>image/svg+xml</dc:format>
        <dc:type
           rdf:resource="http://purl.org/dc/dcmitype/StillImage" />
        <dc:title></dc:title>
      </cc:Work>
    </rdf:RDF>
  </metadata>
  <g
     id="layer1"
     inkscape:label="Layer 1"
     inkscape:groupmode="layer"
     transform="translate(0,464)">
    <flowRoot
       xml:space="preserve"
       id="flowRoot4139"
       style="fill:black;stroke:none;stroke-opacity:1;stroke-width:1px;stroke-linejoin:miter;stroke-linecap:butt;fill-opacity:1;font-family:Sans;font-style:normal;font-weight:normal;font-size:12px;line-height:125%;letter-spacing:0px;word-spacing:0px"><flowRegion
         id="flowRegion4141"><rect
           id="rect4143"
           width="175.82059"
           height="50.548416"
           x="41.757389"
           y="120.79921" /></flowRegion><flowPara
         id="flowPara4145" /></flowRoot>    <g
       id="g4013">
      <path
         inkscape:connector-curvature="0"
         id="path3019"
         d="m 281.77042,13.810948 c -101.2768,0 -183.377831,-82.1011 -183.377831,-183.377828 0,-101.27676 82.101031,-183.37779 183.377831,-183.37779 101.2767,0 183.3778,82.10103 183.3778,183.37779 0,101.276728 -82.1011,183.377828 -183.3778,183.377828 z"
         style="fill:#d95144;fill-opacity:1;fill-rule:evenodd;stroke:none" />
      <path
         transform="matrix(1.0378345,0,0,1.0378345,-741.32269,159.99084)"
         clip-path="url(#clipPath3803)"
         inkscape:connector-curvature="0"
         id="path3792"
         d="m 1261.8878,-318.75557 -540.80905,0 9.3243,450.67422 494.18755,-80.810552 z"
         style="fill:#f2bd59;fill-opacity:1;stroke:none" />
      <path
         transform="translate(17.582058,0)"
         clip-path="url(#clipPath3932)"
         style="fill:#2b2b2b;fill-opacity:0.18686871;fill-rule:evenodd;stroke:none"
         d="m 472.11578,-159.80376 c 0,55.38948 -22.45102,105.53525 -58.74941,141.833645 l -141.83365,-141.833645 0,-200.58307 c 110.77899,0 200.58306,89.80411 200.58306,200.58307 z"
         id="path3906"
         inkscape:connector-curvature="0"
         sodipodi:nodetypes="scccs" />
      <path
         sodipodi:nodetypes="scccs"
         inkscape:connector-curvature="0"
         id="path3020"
         d="m 489.69784,-170.79255 c 0,55.38948 -22.45102,105.535254 -58.74941,141.833649 l -141.83365,-141.833649 0,-200.58307 c 110.77899,0 200.58306,89.80411 200.58306,200.58307 z"
         style="fill:#70d28f;fill-opacity:1;fill-rule:evenodd;stroke:none" />
    </g>
    <g
       id="g4005">
      <g
         id="g3999">
        <path
           sodipodi:nodetypes="ccccccccccc"
           inkscape:connector-curvature="0"
           id="path3850"
           d="m 23.029585,-404.49664 c -3.608222,-0.0121 -6.900976,3.26325 -6.90923,6.87148 l 0,266.25076 c -0.0116,3.6208 3.288418,6.92079 6.90923,6.90923 l 89.933255,0 c 1.6828,-0.002 3.35693,-0.647 4.60616,-1.77451 l 139.2795,-125.19675 c 1.43281,-1.27782 2.29104,-3.17718 2.30307,-5.09697 l 0,-141.09176 c -0.009,-3.60823 -3.30101,-6.883 -6.90923,-6.87148 z"
           style="font-size:medium;font-style:normal;font-variant:normal;font-weight:normal;font-stretch:normal;text-indent:0;text-align:start;text-decoration:none;line-height:normal;letter-spacing:normal;word-spacing:normal;text-transform:none;direction:ltr;block-progression:tb;writing-mode:lr-tb;text-anchor:start;baseline-shift:baseline;color:#000000;fill:#363636;fill-opacity:0.35353537;fill-rule:evenodd;stroke:none;stroke-width:11.39999962;marker:none;visibility:visible;display:inline;overflow:visible;enable-background:accumulate;font-family:Sans;-inkscape-font-specification:Sans"
           clip-path="url(#clipPath3902)"
           transform="translate(17.582058,0)" />
        <g
           id="g3995">
          <path
             sodipodi:nodetypes="ccccccccccc"
             inkscape:connector-curvature="0"
             id="rect4110"
             d="m 30.721736,-424.27645 c -3.608222,-0.0121 -6.900977,3.26325 -6.909231,6.87148 l 0,266.25076 c -0.0116,3.6208 3.288418,6.92079 6.909231,6.90923 l 89.933254,0 c 1.6828,-0.002 3.35693,-0.647 4.60616,-1.77451 l 139.2795,-125.19675 c 1.43281,-1.27782 2.29104,-3.17718 2.30307,-5.09697 l 0,-141.09176 c -0.009,-3.60823 -3.30101,-6.883 -6.90923,-6.87148 z"
             style="font-size:medium;font-style:normal;font-variant:normal;font-weight:normal;font-stretch:normal;text-indent:0;text-align:start;text-decoration:none;line-height:normal;letter-spacing:normal;word-spacing:normal;text-transform:none;direction:ltr;block-progression:tb;writing-mode:lr-tb;text-anchor:start;baseline-shift:baseline;color:#000000;fill:#4ab4d5;fill-opacity:1;fill-rule:evenodd;stroke:none;stroke-width:11.39999961999999911;marker:none;visibility:visible;display:inline;overflow:visible;enable-background:accumulate;font-family:Sans;-inkscape-font-specification:Sans" />
          <path
             inkscape:connector-curvature="0"
             id="path4160"
             d="m 30.721736,-424.27645 c -3.608222,-0.0121 -6.900977,3.26325 -6.909231,6.87148 l 0,13.13886 c 0.0083,-3.60824 3.301009,-6.88356 6.909231,-6.87147 l 229.212754,0 c 3.60822,-0.0116 6.90078,3.26323 6.90923,6.87147 l 0,-13.13886 c -0.009,-3.60823 -3.30101,-6.883 -6.90923,-6.87148 l -229.212754,0 z"
             style="font-size:medium;font-style:normal;font-variant:normal;font-weight:normal;font-stretch:normal;text-indent:0;text-align:start;text-decoration:none;line-height:normal;letter-spacing:normal;word-spacing:normal;text-transform:none;direction:ltr;block-progression:tb;writing-mode:lr-tb;text-anchor:start;baseline-shift:baseline;color:#000000;fill:#ffffff;fill-opacity:0.09500002;fill-rule:evenodd;stroke:none;stroke-width:11.39999962;marker:none;visibility:visible;display:inline;overflow:visible;enable-background:accumulate;font-family:Sans;-inkscape-font-specification:Sans" />
        </g>
      </g>
      <path
         id="path4129"
         transform="translate(0,-464)"
         d="M 80.28125 59 L 80 59.75 L 61.09375 114.71875 L 60.5625 116.25 L 62.1875 116.25 L 73.3125 116.25 L 74.15625 116.25 L 74.4375 115.4375 L 77.90625 104.375 L 95.53125 104.375 L 99 115.4375 L 99.25 116.25 L 100.09375 116.25 L 111.21875 116.25 L 112.84375 116.25 L 112.34375 114.71875 L 93.5 59.75 L 93.21875 59 L 92.40625 59 L 81.09375 59 L 80.28125 59 z M 86.71875 76.4375 L 92.09375 93.46875 L 81.34375 93.46875 L 86.71875 76.4375 z M 60.09375 129.40625 L 60.09375 153.90625 L 215.4375 153.90625 L 215.4375 129.40625 L 60.09375 129.40625 z M 60.09375 181.84375 L 60.09375 206.34375 L 215.4375 206.34375 L 215.4375 181.84375 L 60.09375 181.84375 z M 60.09375 234.28125 L 60.09375 258.78125 L 157 258.78125 L 157 234.28125 L 60.09375 234.28125 z "
         style="font-size:medium;font-style:normal;font-variant:normal;font-weight:normal;font-stretch:normal;text-indent:0;text-align:start;text-decoration:none;line-height:normal;letter-spacing:normal;word-spacing:normal;text-transform:none;direction:ltr;block-progression:tb;writing-mode:lr-tb;text-anchor:start;baseline-shift:baseline;color:#000000;fill:#f9ebd1;fill-opacity:1;stroke:none;stroke-width:24.52587891;marker:none;visibility:visible;display:inline;overflow:visible;enable-background:accumulate;font-family:Sans;-inkscape-font-specification:Sans" />
    </g>
    <g
       style="font-size:64px;font-style:normal;font-variant:normal;font-weight:bold;font-stretch:normal;line-height:125%;letter-spacing:0px;word-spacing:0px;fill:#f9ebd1;fill-opacity:1;stroke:#f9ebd1;stroke-opacity:1;font-family:Roboto;-inkscape-font-specification:Roboto Bold"
       id="text4147"
       transform="matrix(1.2081714,0,0,1.2081714,-3.3159072,13.974733)" />
  </g>
</svg>
