<?xml version="1.0" encoding="UTF-8" standalone="no"?>
<!-- Created with Inkscape (http://www.inkscape.org/) -->

<svg
   xmlns:dc="http://purl.org/dc/elements/1.1/"
   xmlns:cc="http://creativecommons.org/ns#"
   xmlns:rdf="http://www.w3.org/1999/02/22-rdf-syntax-ns#"
   xmlns:svg="http://www.w3.org/2000/svg"
   xmlns="http://www.w3.org/2000/svg"
   xmlns:xlink="http://www.w3.org/1999/xlink"
   xmlns:sodipodi="http://sodipodi.sourceforge.net/DTD/sodipodi-0.dtd"
   xmlns:inkscape="http://www.inkscape.org/namespaces/inkscape"
   width="255"
   height="48"
   viewBox="0 0 255 48.000001"
   id="svg2"
   version="1.1"
   inkscape:version="0.91 r13725"
   sodipodi:docname="gtk tehemes.svg">
  <defs
     id="defs4">
    <clipPath
       id="clipPath4157"
       clipPathUnits="userSpaceOnUse">
      <path
         style="fill:#f9f8f2;fill-opacity:1;stroke-width:1.00658333"
         inkscape:connector-curvature="0"
         id="path4159"
         d="m 27.642964,3.2951379 13.085584,13.0855841 -11.072418,0 c -0.977824,0 -2.013166,-1.035372 -2.013166,-2.013167 l 0,-11.0724171 z" />
    </clipPath>
    <clipPath
       clipPathUnits="userSpaceOnUse"
       id="clipPath4157-2">
      <path
         d="m 27.642964,3.2951379 13.085584,13.0855841 -11.072418,0 c -0.977824,0 -2.013166,-1.035372 -2.013166,-2.013167 l 0,-11.0724171 z"
         id="path4159-9"
         inkscape:connector-curvature="0"
         style="fill:#f9f8f2;fill-opacity:1;stroke-width:1.00658333" />
    </clipPath>
    <clipPath
       id="clipPath3840"
       clipPathUnits="userSpaceOnUse">
      <path
         id="path3842"
         style="color:#000000;font-style:normal;font-variant:normal;font-weight:normal;font-stretch:normal;font-size:medium;line-height:normal;font-family:Sans;-inkscape-font-specification:Sans;text-indent:0;text-align:start;text-decoration:none;text-decoration-line:none;letter-spacing:normal;word-spacing:normal;text-transform:none;direction:ltr;block-progression:tb;writing-mode:lr-tb;baseline-shift:baseline;text-anchor:start;display:inline;overflow:visible;visibility:visible;fill:#f1ead6;fill-opacity:1;stroke:none;stroke-width:6;marker:none;enable-background:accumulate"
         d="m 13.792544,16.65625 c 4.834712,1.232329 9.158527,2.334433 13.608717,3.46875 0.37802,0.09635 0.75604,0.192708 1.13406,0.289062 1.253534,0.22229 2.429507,0.702686 3.402179,1.367188 L 31.86742,15.891268 C 30.873914,15.060474 29.884961,14.84802 28.777209,14.544467 28.433852,14.450377 28.090495,14.35629 27.747139,14.262201 23.597155,13.124994 19.188953,11.91703 15.386294,10.875 Z"
         inkscape:connector-curvature="0"
         sodipodi:nodetypes="ccccccccc" />
    </clipPath>
    <clipPath
       id="clipPath3846"
       clipPathUnits="userSpaceOnUse">
      <path
         id="path3848"
         style="color:#000000;font-style:normal;font-variant:normal;font-weight:normal;font-stretch:normal;font-size:medium;line-height:normal;font-family:Sans;-inkscape-font-specification:Sans;text-indent:0;text-align:start;text-decoration:none;text-decoration-line:none;letter-spacing:normal;word-spacing:normal;text-transform:none;direction:ltr;block-progression:tb;writing-mode:lr-tb;baseline-shift:baseline;text-anchor:start;display:inline;overflow:visible;visibility:visible;fill:#f1ead6;fill-opacity:1;stroke:none;stroke-width:6;marker:none;enable-background:accumulate"
         d="m 13.792544,16.65625 c 4.834712,1.232329 9.158527,2.334433 13.608717,3.46875 0.37802,0.09635 0.75604,0.192708 1.13406,0.289062 1.253534,0.22229 2.429507,0.702686 3.402179,1.367188 L 31.86742,15.891268 C 30.873914,15.060474 29.884961,14.84802 28.777209,14.544467 28.433852,14.450377 28.090495,14.35629 27.747139,14.262201 23.597155,13.124994 19.188953,11.91703 15.386294,10.875 Z"
         inkscape:connector-curvature="0"
         sodipodi:nodetypes="ccccccccc" />
    </clipPath>
    <clipPath
       id="clipPath3933"
       clipPathUnits="userSpaceOnUse">
      <path
         style="fill:#ed9734;fill-opacity:1;stroke:none"
         d="m 21.892857,8.098214 c -4.107143,9.0625 -8.214285,18.125 -12.3214284,27.1875 8.7619044,0 17.5238094,0 26.2857144,0 -4.107143,-9.0625 -8.214286,-18.125 -12.321428,-27.1875 -0.547619,0.2963082 -1.095239,0.1727678 -1.642858,0 z"
         id="path3935"
         inkscape:connector-curvature="0"
         sodipodi:nodetypes="ccccc" />
    </clipPath>
    <clipPath
       id="clipPath3977"
       clipPathUnits="userSpaceOnUse">
      <path
         style="fill:#ed9734;fill-opacity:1;stroke:none"
         d="m 21.1184,4.3980547 c -0.361517,0.7976977 -0.723035,1.5953949 -1.084554,2.3930921 -0.723036,1.5953944 -1.446071,3.1907901 -2.169108,4.7861862 -0.723036,1.595394 -1.446072,3.19079 -2.169109,4.786185 -0.723035,1.595396 -1.446071,3.19079 -2.169108,4.786186 -2.892144,6.38158 -5.7842898,12.763161 -8.6764338,19.144741 6.1699088,0 12.3398168,0 18.5097268,0 6.169908,0 12.339818,0 18.509727,0 -2.892145,-6.38158 -5.78429,-12.763161 -8.676434,-19.144741 -0.723037,-1.595396 -1.446073,-3.19079 -2.16911,-4.786186 C 30.300961,14.768123 29.577925,13.172727 28.85489,11.577333 28.131853,9.9819369 27.408817,8.3865426 26.68578,6.7911468 26.324263,5.9934496 25.962745,5.1957524 25.601226,4.3980547 c -1.6507,0.8189891 -2.796577,0.6620441 -4.482826,0 z"
         id="path3979"
         inkscape:connector-curvature="0"
         sodipodi:nodetypes="csssscscsssscc" />
    </clipPath>
    <clipPath
       id="clipPath4000"
       clipPathUnits="userSpaceOnUse">
      <path
         style="fill:#f08b29;fill-opacity:1;stroke:none"
         d="m 21.1184,4.3980547 c -0.361517,0.7976977 -0.723035,1.5953949 -1.084554,2.3930921 -0.723036,1.5953944 -1.446071,3.1907901 -2.169108,4.7861862 -0.723036,1.595394 -1.446072,3.19079 -2.169109,4.786185 -0.723035,1.595396 -1.446071,3.19079 -2.169108,4.786186 -2.892144,6.38158 -5.7842898,12.763161 -8.6764338,19.144741 6.1699088,0 12.3398168,0 18.5097268,0 6.169908,0 12.339818,0 18.509727,0 -2.892145,-6.38158 -5.78429,-12.763161 -8.676434,-19.144741 -0.723037,-1.595396 -1.446073,-3.19079 -2.16911,-4.786186 C 30.300961,14.768123 29.577925,13.172727 28.85489,11.577333 28.131853,9.9819369 27.408817,8.3865426 26.68578,6.7911468 26.324263,5.9934496 25.962745,5.1957524 25.601226,4.3980547 c -1.6507,0.8189891 -2.796577,0.6620441 -4.482826,0 z"
         id="path4002"
         inkscape:connector-curvature="0"
         sodipodi:nodetypes="csssscscsssscc" />
    </clipPath>
    <clipPath
       id="clipPath4723"
       clipPathUnits="userSpaceOnUse">
      <path
         style="color:#000000;font-style:normal;font-variant:normal;font-weight:normal;font-stretch:normal;font-size:medium;line-height:normal;font-family:sans-serif;text-indent:0;text-align:start;text-decoration:none;text-decoration-line:none;text-decoration-style:solid;text-decoration-color:#000000;letter-spacing:normal;word-spacing:normal;text-transform:none;direction:ltr;block-progression:tb;writing-mode:lr-tb;baseline-shift:baseline;text-anchor:start;white-space:normal;clip-rule:nonzero;display:inline;overflow:visible;visibility:visible;opacity:1;isolation:auto;mix-blend-mode:normal;color-interpolation:sRGB;color-interpolation-filters:linearRGB;solid-color:#000000;solid-opacity:1;fill:#024c9f;fill-opacity:1;fill-rule:evenodd;stroke:none;stroke-width:5.5999999;stroke-linecap:butt;stroke-linejoin:round;stroke-miterlimit:4;stroke-dasharray:none;stroke-dashoffset:0;stroke-opacity:1;color-rendering:auto;image-rendering:auto;shape-rendering:auto;text-rendering:auto;enable-background:accumulate"
         d="m 92.927734,392.41797 c -1.546943,-2.8e-4 -2.801057,1.25384 -2.800781,2.80078 l 0,150.2168 c 1.47e-4,1.10306 0.647837,2.10327 1.654297,2.55468 l 40.13493,13.82618 c 1.00574,0.45064 2.18228,0.26946 3.00585,-0.46289 l 62.87485,-64.19141 63.37796,64.19141 c 0.82357,0.73235 2.00012,0.91354 3.00586,0.46289 l 39.62985,-13.82618 c 1.00646,-0.45142 1.65414,-1.45162 1.65429,-2.55468 l 0,-150.2168 c 2.8e-4,-1.54694 -1.25384,-2.80106 -2.80078,-2.80078 l -37,0 c -1.54694,-2.8e-4 -2.80106,1.25384 -2.80078,2.80078 l 0,102.78516 -33.01585,-29.34814 -64.10179,10e-6 -33.01712,29.34813 0,-102.78516 c 2.8e-4,-1.54695 -1.25384,-2.80106 -2.80079,-2.80078 z"
         id="path4725"
         inkscape:connector-curvature="0"
         sodipodi:nodetypes="cccccccccccccccccccccc" />
    </clipPath>
    <clipPath
       id="clipPath4735"
       clipPathUnits="userSpaceOnUse">
      <path
         style="color:#000000;font-style:normal;font-variant:normal;font-weight:normal;font-stretch:normal;font-size:medium;line-height:normal;font-family:sans-serif;text-indent:0;text-align:start;text-decoration:none;text-decoration-line:none;text-decoration-style:solid;text-decoration-color:#000000;letter-spacing:normal;word-spacing:normal;text-transform:none;direction:ltr;block-progression:tb;writing-mode:lr-tb;baseline-shift:baseline;text-anchor:start;white-space:normal;clip-rule:nonzero;display:inline;overflow:visible;visibility:visible;opacity:1;isolation:auto;mix-blend-mode:normal;color-interpolation:sRGB;color-interpolation-filters:linearRGB;solid-color:#000000;solid-opacity:1;fill:#024c9f;fill-opacity:1;fill-rule:evenodd;stroke:none;stroke-width:5.5999999;stroke-linecap:butt;stroke-linejoin:round;stroke-miterlimit:4;stroke-dasharray:none;stroke-dashoffset:0;stroke-opacity:1;color-rendering:auto;image-rendering:auto;shape-rendering:auto;text-rendering:auto;enable-background:accumulate"
         d="m 92.927734,392.41797 c -1.546943,-2.8e-4 -2.801057,1.25384 -2.800781,2.80078 l 0,150.2168 c 1.47e-4,1.10306 0.647837,2.10327 1.654297,2.55468 l 40.13493,13.82618 c 1.00574,0.45064 2.18228,0.26946 3.00585,-0.46289 l 62.87485,-64.19141 63.37796,64.19141 c 0.82357,0.73235 2.00012,0.91354 3.00586,0.46289 l 39.62985,-13.82618 c 1.00646,-0.45142 1.65414,-1.45162 1.65429,-2.55468 l 0,-150.2168 c 2.8e-4,-1.54694 -1.25384,-2.80106 -2.80078,-2.80078 l -37,0 c -1.54694,-2.8e-4 -2.80106,1.25384 -2.80078,2.80078 l 0,102.78516 -33.01585,-29.34814 -64.10179,10e-6 -33.01712,29.34813 0,-102.78516 c 2.8e-4,-1.54695 -1.25384,-2.80106 -2.80079,-2.80078 z"
         id="path4737"
         inkscape:connector-curvature="0"
         sodipodi:nodetypes="cccccccccccccccccccccc" />
    </clipPath>
    <clipPath
       id="clipPath4767"
       clipPathUnits="userSpaceOnUse">
      <path
         style="color:#000000;font-style:normal;font-variant:normal;font-weight:normal;font-stretch:normal;font-size:medium;line-height:normal;font-family:sans-serif;text-indent:0;text-align:start;text-decoration:none;text-decoration-line:none;text-decoration-style:solid;text-decoration-color:#000000;letter-spacing:normal;word-spacing:normal;text-transform:none;direction:ltr;block-progression:tb;writing-mode:lr-tb;baseline-shift:baseline;text-anchor:start;white-space:normal;clip-rule:nonzero;display:inline;overflow:visible;visibility:visible;opacity:1;isolation:auto;mix-blend-mode:normal;color-interpolation:sRGB;color-interpolation-filters:linearRGB;solid-color:#000000;solid-opacity:1;fill:#024c9f;fill-opacity:1;fill-rule:evenodd;stroke:none;stroke-width:5.5999999;stroke-linecap:butt;stroke-linejoin:round;stroke-miterlimit:4;stroke-dasharray:none;stroke-dashoffset:0;stroke-opacity:1;color-rendering:auto;image-rendering:auto;shape-rendering:auto;text-rendering:auto;enable-background:accumulate"
         d="m 92.927734,413.13226 c -1.546943,-2.8e-4 -2.801057,1.25384 -2.800781,2.80078 l 0,129.50251 c 1.47e-4,1.10306 0.647837,2.10327 1.654297,2.55468 l 40.13493,13.82618 c 1.00574,0.45064 2.18228,0.26946 3.00585,-0.46289 l 62.87485,-64.19141 63.37796,64.19141 c 0.82357,0.73235 2.00012,0.91354 3.00586,0.46289 l 39.62985,-13.82618 c 1.00646,-0.45142 1.65414,-1.45162 1.65429,-2.55468 l 0,-129.50251 c 2.8e-4,-1.54694 -1.25384,-2.80106 -2.80078,-2.80078 l -37,0 c -1.54694,-2.8e-4 -2.80106,1.25384 -2.80078,2.80078 l 0,82.07087 -33.01585,-29.34814 -64.10179,10e-6 -33.01712,29.34813 0,-82.07087 c 2.8e-4,-1.54695 -1.25384,-2.80106 -2.80079,-2.80078 z"
         id="path4769"
         inkscape:connector-curvature="0"
         sodipodi:nodetypes="cccccccccccccccccccccc"
         inkscape:export-xdpi="150"
         inkscape:export-ydpi="150" />
    </clipPath>
    <clipPath
       id="clipPath4204"
       clipPathUnits="userSpaceOnUse">
      <path
         style="color:#000000;font-style:normal;font-variant:normal;font-weight:normal;font-stretch:normal;font-size:medium;line-height:normal;font-family:sans-serif;text-indent:0;text-align:start;text-decoration:none;text-decoration-line:none;text-decoration-style:solid;text-decoration-color:#000000;letter-spacing:normal;word-spacing:normal;text-transform:none;direction:ltr;block-progression:tb;writing-mode:lr-tb;baseline-shift:baseline;text-anchor:start;white-space:normal;clip-rule:nonzero;display:inline;overflow:visible;visibility:visible;opacity:1;isolation:auto;mix-blend-mode:normal;color-interpolation:sRGB;color-interpolation-filters:linearRGB;solid-color:#000000;solid-opacity:1;fill:#f05b21;fill-opacity:1;fill-rule:evenodd;stroke:none;stroke-width:13;stroke-linecap:butt;stroke-linejoin:round;stroke-miterlimit:4;stroke-dasharray:none;stroke-dashoffset:0;stroke-opacity:1;color-rendering:auto;image-rendering:auto;shape-rendering:auto;text-rendering:auto;enable-background:accumulate"
         d="m -405.26953,599.57422 c -3.5897,3.6e-4 -6.49964,2.9103 -6.5,6.5 l 0,70 c 3.6e-4,3.5897 2.9103,6.49964 6.5,6.5 l 128.20508,0 0,61.42187 -68.46479,0 -83.0567,82.9262 0,99.74959 c 3.6e-4,3.5897 2.9103,6.49964 6.5,6.5 l 70,0 c 3.5897,-3.6e-4 6.49964,-2.9103 6.5,-6.5 l 0,-99.67579 68.45031,0 83.07118,-83.00983 0,-61.4366 -83.02149,-82.97544 z"
         id="path4206"
         inkscape:connector-curvature="0"
         sodipodi:nodetypes="cccccccccccccccccc" />
    </clipPath>
    <clipPath
       id="clipPath4213"
       clipPathUnits="userSpaceOnUse">
      <path
         sodipodi:nodetypes="cccccc"
         inkscape:connector-curvature="0"
         id="path4215"
         d="m -277.06445,743.99609 -68.46479,0 -0.0567,83 68.45031,0 83.07118,-83.00983 z"
         style="color:#000000;font-style:normal;font-variant:normal;font-weight:normal;font-stretch:normal;font-size:medium;line-height:normal;font-family:sans-serif;text-indent:0;text-align:start;text-decoration:none;text-decoration-line:none;text-decoration-style:solid;text-decoration-color:#000000;letter-spacing:normal;word-spacing:normal;text-transform:none;direction:ltr;block-progression:tb;writing-mode:lr-tb;baseline-shift:baseline;text-anchor:start;white-space:normal;clip-rule:nonzero;display:inline;overflow:visible;visibility:visible;opacity:1;isolation:auto;mix-blend-mode:normal;color-interpolation:sRGB;color-interpolation-filters:linearRGB;solid-color:#000000;solid-opacity:1;fill:#ed4f13;fill-opacity:1;fill-rule:evenodd;stroke:none;stroke-width:13;stroke-linecap:butt;stroke-linejoin:round;stroke-miterlimit:4;stroke-dasharray:none;stroke-dashoffset:0;stroke-opacity:1;color-rendering:auto;image-rendering:auto;shape-rendering:auto;text-rendering:auto;enable-background:accumulate" />
    </clipPath>
    <clipPath
       id="clipPath4226"
       clipPathUnits="userSpaceOnUse">
      <path
         sodipodi:nodetypes="ccccc"
         inkscape:connector-curvature="0"
         id="path4228"
         d="m -277.06445,142.21206 0,61.42187 83,-0.01 0,-61.4366 z"
         style="color:#000000;font-style:normal;font-variant:normal;font-weight:normal;font-stretch:normal;font-size:medium;line-height:normal;font-family:sans-serif;text-indent:0;text-align:start;text-decoration:none;text-decoration-line:none;text-decoration-style:solid;text-decoration-color:#000000;letter-spacing:normal;word-spacing:normal;text-transform:none;direction:ltr;block-progression:tb;writing-mode:lr-tb;baseline-shift:baseline;text-anchor:start;white-space:normal;clip-rule:nonzero;display:inline;overflow:visible;visibility:visible;opacity:1;isolation:auto;mix-blend-mode:normal;color-interpolation:sRGB;color-interpolation-filters:linearRGB;solid-color:#000000;solid-opacity:1;fill:#e0490f;fill-opacity:1;fill-rule:evenodd;stroke:none;stroke-width:13;stroke-linecap:butt;stroke-linejoin:round;stroke-miterlimit:4;stroke-dasharray:none;stroke-dashoffset:0;stroke-opacity:1;color-rendering:auto;image-rendering:auto;shape-rendering:auto;text-rendering:auto;enable-background:accumulate" />
    </clipPath>
    <clipPath
       id="clipPath4234"
       clipPathUnits="userSpaceOnUse">
      <path
         sodipodi:nodetypes="ccccc"
         inkscape:connector-curvature="0"
         id="path4236"
         d="m -277.06445,682.57422 0,61.42187 83,-0.01 0,-61.4366 z"
         style="color:#000000;font-style:normal;font-variant:normal;font-weight:normal;font-stretch:normal;font-size:medium;line-height:normal;font-family:sans-serif;text-indent:0;text-align:start;text-decoration:none;text-decoration-line:none;text-decoration-style:solid;text-decoration-color:#000000;letter-spacing:normal;word-spacing:normal;text-transform:none;direction:ltr;block-progression:tb;writing-mode:lr-tb;baseline-shift:baseline;text-anchor:start;white-space:normal;clip-rule:nonzero;display:inline;overflow:visible;visibility:visible;opacity:1;isolation:auto;mix-blend-mode:normal;color-interpolation:sRGB;color-interpolation-filters:linearRGB;solid-color:#000000;solid-opacity:1;fill:#e0490f;fill-opacity:1;fill-rule:evenodd;stroke:none;stroke-width:13;stroke-linecap:butt;stroke-linejoin:round;stroke-miterlimit:4;stroke-dasharray:none;stroke-dashoffset:0;stroke-opacity:1;color-rendering:auto;image-rendering:auto;shape-rendering:auto;text-rendering:auto;enable-background:accumulate" />
    </clipPath>
    <clipPath
       id="clipPath3787"
       clipPathUnits="userSpaceOnUse">
      <circle
         style="fill:#0000ff;fill-opacity:1;fill-rule:evenodd;stroke:none"
         id="path3789"
         transform="matrix(0.90147705,0,0,0.90147705,144.85364,-2.3719297)"
         cx="175.42319"
         cy="93.614182"
         r="46.651001" />
    </clipPath>
    <clipPath
       id="clipPath3834"
       clipPathUnits="userSpaceOnUse">
      <circle
         style="fill:#9df6f0;fill-opacity:1;fill-rule:evenodd;stroke:none"
         id="path3836"
         transform="matrix(3.5616692,0,0,3.5616692,-380.18914,-41.770804)"
         cx="175.42319"
         cy="93.614182"
         r="46.651001" />
    </clipPath>
    <clipPath
       id="clipPath3844"
       clipPathUnits="userSpaceOnUse">
      <path
         style="fill:#2d8fff;fill-opacity:1;stroke:none"
         d="m 213.27377,114.18643 c 0.15212,0.6085 3.06534,7.69955 4.28714,10.66295 0.32998,1.34778 1.15149,1.71559 2.24912,2.47173 l 5.1915,3.57637 c 1.88405,0.97343 1.82323,1.62667 1.03584,3.22976 -1.74782,2.47302 -6.27552,2.80766 -11.22187,2.82027 -2.28746,0.25411 -2.92083,-0.24503 -4.48864,-1.87393 l -17.64941,-13.56179 z"
         id="path3846"
         inkscape:connector-curvature="0"
         sodipodi:nodetypes="ccccccccc" />
    </clipPath>
    <clipPath
       id="clipPath3852"
       clipPathUnits="userSpaceOnUse">
      <path
         sodipodi:nodetypes="ccscac"
         inkscape:connector-curvature="0"
         id="path3854"
         d="m 385.18497,222.99264 85.65555,-27.12948 c 0.75995,18.65826 -1.34877,37.62372 -5.14747,54.59319 -7.40083,33.06077 -61.70666,84.69774 -61.70666,84.69774 0,0 -1.66206,-37.89028 -4.78133,-56.54791 -3.15247,-18.85612 -14.02009,-55.61354 -14.02009,-55.61354 z"
         style="fill:#2d8fff;fill-opacity:1;stroke:none" />
    </clipPath>
    <clipPath
       id="clipPath3860"
       clipPathUnits="userSpaceOnUse">
      <circle
         style="fill:#9df6f0;fill-opacity:1;fill-rule:evenodd;stroke:none"
         id="path3862"
         transform="matrix(3.5616692,0,0,3.5616692,-380.18914,-41.770804)"
         cx="175.42319"
         cy="93.614182"
         r="46.651001" />
    </clipPath>
    <clipPath
       id="clipPath3798"
       clipPathUnits="userSpaceOnUse">
      <path
         style="fill:#92c5ff;fill-opacity:1;stroke:none"
         d="m 398.40699,222.99264 -91.23657,1.26721 c -3.98105,0.43064 -7.51747,0.13997 -11.27835,-0.96625 l -37.61343,-11.06276 c -5.09158,-0.84561 -5.63299,-2.08575 -7.48642,-6.53395 l -3.05947,-7.34274 c -2.85471,-4.82574 -0.16882,-5.93687 3.27314,-9.72311 L 269.26137,168.55 c 18.92136,-26.80737 37.80332,-58.05491 64.40123,-70.150215 38.79089,-14.80412 81.86805,-6.07688 110.05951,22.977145 19.50096,20.09761 26.94745,50.01011 27.26184,80.11897 l -69.30072,32.20038 c -1.87775,-6.38081 -3.27624,-10.70364 -3.27624,-10.70364 z"
         id="path3800"
         inkscape:connector-curvature="0"
         sodipodi:nodetypes="cccccccccsccc" />
    </clipPath>
    <clipPath
       id="clipPath3804"
       clipPathUnits="userSpaceOnUse">
      <path
         sodipodi:nodetypes="ccscac"
         inkscape:connector-curvature="0"
         id="path3806"
         d="m 385.18497,222.99264 85.65555,-27.12948 c 0.75995,18.65826 -1.34877,37.62372 -5.14747,54.59319 -7.40083,33.06077 -61.70666,84.69774 -61.70666,84.69774 0,0 -1.66206,-37.89028 -4.78133,-56.54791 -3.15247,-18.85612 -14.02009,-55.61354 -14.02009,-55.61354 z"
         style="fill:#92c5ff;fill-opacity:1;stroke:none" />
    </clipPath>
    <clipPath
       id="clipPath3814"
       clipPathUnits="userSpaceOnUse">
      <path
         style="fill:#5b5b5b;fill-opacity:1;stroke:none"
         d="m 295.49543,170.71488 c 0,0 10.91719,-20.17893 22.15521,-22.80199 9.39952,-2.19394 27.54446,8.31726 27.54446,8.31726 0,0 -11.65371,14.21401 -20.7294,16.8779 -9.16254,2.68942 -28.97027,-2.39317 -28.97027,-2.39317 z"
         id="path3816"
         inkscape:connector-curvature="0"
         sodipodi:nodetypes="cacac"
         inkscape:transform-center-y="7.5" />
    </clipPath>
    <linearGradient
       inkscape:collect="always"
       id="linearGradient3837">
      <stop
         style="stop-color:#7db257;stop-opacity:1;"
         offset="0"
         id="stop3839" />
      <stop
         style="stop-color:#7db257;stop-opacity:0;"
         offset="1"
         id="stop3841" />
    </linearGradient>
    <clipPath
       clipPathUnits="userSpaceOnUse"
       id="clipPath3847">
      <circle
         transform="matrix(0.88586957,0,0,0.88586957,-24.010886,495.98978)"
         id="path3849"
         style="fill:url(#linearGradient3851);fill-opacity:1;fill-rule:evenodd;stroke:none"
         cx="322.4407"
         cy="342.29437"
         r="260.2153" />
    </clipPath>
    <linearGradient
       inkscape:collect="always"
       xlink:href="#linearGradient3837"
       id="linearGradient3851"
       gradientUnits="userSpaceOnUse"
       x1="502.83536"
       y1="546.63525"
       x2="316.05505"
       y2="356.66208" />
    <clipPath
       id="clipPath3959"
       clipPathUnits="userSpaceOnUse">
      <circle
         style="fill:#37bea9;fill-opacity:1;fill-rule:evenodd;stroke:none"
         id="path3961"
         transform="matrix(0.88586957,0,0,0.88586957,-24.010886,495.98978)"
         cx="322.4407"
         cy="342.29437"
         r="260.2153" />
    </clipPath>
  </defs>
  <sodipodi:namedview
     id="base"
     pagecolor="#ffffff"
     bordercolor="#666666"
     borderopacity="1.0"
     inkscape:pageopacity="0.0"
     inkscape:pageshadow="2"
     inkscape:zoom="0.98994949"
     inkscape:cx="411.11528"
     inkscape:cy="192.99347"
     inkscape:document-units="px"
     inkscape:current-layer="layer1"
     showgrid="false"
     units="px"
     inkscape:window-width="1360"
     inkscape:window-height="721"
     inkscape:window-x="0"
     inkscape:window-y="25"
     inkscape:window-maximized="1" />
  <metadata
     id="metadata7">
    <rdf:RDF>
      <cc:Work
         rdf:about="">
        <dc:format>image/svg+xml</dc:format>
        <dc:type
           rdf:resource="http://purl.org/dc/dcmitype/StillImage" />
        <dc:title></dc:title>
      </cc:Work>
    </rdf:RDF>
  </metadata>
  <g
     inkscape:label="Capa 1"
     inkscape:groupmode="layer"
     id="layer1"
     transform="translate(0,-1004.3622)">
    <flowRoot
       xml:space="preserve"
       id="flowRoot4632"
       style="font-style:normal;font-weight:normal;font-size:40px;line-height:125%;font-family:sans-serif;letter-spacing:0px;word-spacing:0px;fill:#000000;fill-opacity:1;stroke:none;stroke-width:1px;stroke-linecap:butt;stroke-linejoin:miter;stroke-opacity:1"
       transform="translate(0,572.36216)"><flowRegion
         id="flowRegion4634"><rect
           id="rect4636"
           width="251.52798"
           height="40.406101"
           x="209.10158"
           y="184.0253" /></flowRegion><flowPara
         id="flowPara4638">tE</flowPara></flowRoot>    <flowRoot
       xml:space="preserve"
       id="flowRoot4640"
       style="font-style:normal;font-weight:normal;font-size:40px;line-height:125%;font-family:sans-serif;letter-spacing:0px;word-spacing:0px;fill:#000000;fill-opacity:1;stroke:none;stroke-width:1px;stroke-linecap:butt;stroke-linejoin:miter;stroke-opacity:1"
       transform="translate(0,572.36216)"><flowRegion
         id="flowRegion4642"><rect
           id="rect4644"
           width="236.3757"
           height="40.406101"
           x="214.15234"
           y="182.005" /></flowRegion><flowPara
         id="flowPara4646">TEMAS</flowPara></flowRoot>    <flowRoot
       xml:space="preserve"
       id="flowRoot4648"
       style="font-style:normal;font-variant:normal;font-weight:normal;font-stretch:condensed;font-size:40px;line-height:125%;font-family:Impact;-inkscape-font-specification:'Impact Condensed';letter-spacing:0px;word-spacing:0px;fill:#313b40;fill-opacity:1;stroke:none;stroke-width:1px;stroke-linecap:butt;stroke-linejoin:miter;stroke-opacity:1"
       transform="translate(-197.9899,726.9155)"
       inkscape:export-xdpi="120"
       inkscape:export-ydpi="120"><flowRegion
         id="flowRegion4650"><rect
           id="rect4652"
           width="503.05597"
           height="200.01021"
           x="229.30463"
           y="275.94919"
           style="font-style:normal;font-variant:normal;font-weight:normal;font-stretch:condensed;font-family:Impact;-inkscape-font-specification:'Impact Condensed';fill:#313b40;fill-opacity:1" /></flowRegion><flowPara
         id="flowPara4654">Themas gtk</flowPara></flowRoot>  </g>
</svg>
