<?xml version="1.0" encoding="UTF-8" standalone="no"?>
<!-- Created with Inkscape (http://www.inkscape.org/) -->

<svg
   xmlns:dc="http://purl.org/dc/elements/1.1/"
   xmlns:cc="http://creativecommons.org/ns#"
   xmlns:rdf="http://www.w3.org/1999/02/22-rdf-syntax-ns#"
   xmlns:svg="http://www.w3.org/2000/svg"
   xmlns="http://www.w3.org/2000/svg"
   xmlns:sodipodi="http://sodipodi.sourceforge.net/DTD/sodipodi-0.dtd"
   xmlns:inkscape="http://www.inkscape.org/namespaces/inkscape"
   id="svg2"
   version="1.1"
   inkscape:version="0.48.4 r9939"
   width="512"
   height="512"
   sodipodi:docname="515354135.jpg">
  <metadata
     id="metadata8">
    <rdf:RDF>
      <cc:Work
         rdf:about="">
        <dc:format>image/svg+xml</dc:format>
        <dc:type
           rdf:resource="http://purl.org/dc/dcmitype/StillImage" />
        <dc:title></dc:title>
      </cc:Work>
    </rdf:RDF>
  </metadata>
  <defs
     id="defs6">
    <clipPath
       clipPathUnits="userSpaceOnUse"
       id="clipPath3794">
      <path
         sodipodi:nodetypes="sscssscss"
         inkscape:connector-curvature="0"
         id="path3796"
         d="m 202.86061,213.01712 c 4.61728,4.61527 3.52209,10.96161 -0.87368,15.78833 l -17.97662,19.73908 -60.06954,60.09572 c -4.61526,4.61729 -12.04797,4.6189 -16.66525,0.004 -4.61728,-4.61527 -4.6189,-12.04796 -0.004,-16.66524 l 60.06953,-60.09574 20.60837,-17.98541 c 4.91865,-4.29264 10.29354,-5.49564 14.91082,-0.88037 z"
         style="color:#000000;fill:#ff6d63;fill-opacity:1;fill-rule:evenodd;stroke:none;stroke-width:10;marker:none;visibility:visible;display:inline;overflow:visible;enable-background:accumulate" />
    </clipPath>
  </defs>
  <sodipodi:namedview
     pagecolor="#ffffff"
     bordercolor="#666666"
     borderopacity="1"
     objecttolerance="10"
     gridtolerance="10"
     guidetolerance="10"
     inkscape:pageopacity="0"
     inkscape:pageshadow="2"
     inkscape:window-width="1360"
     inkscape:window-height="719"
     id="namedview4"
     showgrid="false"
     inkscape:zoom="1.1400966"
     inkscape:cx="202.14929"
     inkscape:cy="158.75228"
     inkscape:window-x="0"
     inkscape:window-y="25"
     inkscape:window-maximized="1"
     inkscape:current-layer="svg2" />
  <path
     sodipodi:type="arc"
     style="fill:#4b5f79;fill-opacity:1;fill-rule:evenodd;stroke:none"
     id="path3778"
     sodipodi:cx="251.1877"
     sodipodi:cy="171.49533"
     sodipodi:rx="51.477974"
     sodipodi:ry="51.477974"
     d="m 302.66567,171.49533 a 51.477974,51.477974 0 1 1 -102.95595,0 51.477974,51.477974 0 1 1 102.95595,0 z"
     transform="matrix(1.9919854,0,0,1.9919854,-161.23506,-153.27774)" />
  <path
     style="color:#000000;fill:#ef665d;fill-opacity:1;fill-rule:evenodd;stroke:none;stroke-width:10;marker:none;visibility:visible;display:inline;overflow:visible;enable-background:accumulate"
     d="m 253.97948,277.22657 c 9.19756,9.19355 7.01595,21.83536 -1.74035,31.45012 L 216.42996,347.99665 96.772307,467.70646 c -9.19353,9.19756 -23.999382,9.20077 -33.19694,0.008 -9.197557,-9.19355 -9.200785,-23.99937 -0.0079,-33.19692 L 183.2251,314.8076 224.27667,278.98092 c 9.79788,-8.55088 20.50459,-10.94723 29.70215,-1.75368 z"
     id="rect3784"
     inkscape:connector-curvature="0"
     sodipodi:nodetypes="sscssscss" />
  <path
     transform="matrix(1.6386183,0,0,1.6386183,169.69435,-11.662062)"
     d="m 169.31912,122.80833 a 66.673279,66.673279 0 1 1 -133.346555,0 66.673279,66.673279 0 1 1 133.346555,0 z"
     sodipodi:ry="66.673279"
     sodipodi:rx="66.673279"
     sodipodi:cy="122.80833"
     sodipodi:cx="102.64584"
     id="path3774"
     style="fill:none;stroke:#ffb263;stroke-width:10;stroke-linecap:butt;stroke-linejoin:miter;stroke-miterlimit:4;stroke-opacity:1;stroke-dasharray:none"
     sodipodi:type="arc" />
  <path
     style="color:#000000;fill:#000000;fill-opacity:1;fill-rule:evenodd;stroke:none;stroke-width:10;marker:none;visibility:visible;display:inline;overflow:visible;enable-background:accumulate"
     d="m 233.38699,265.89193 35.924,32.81413 c 2.21131,2.01991 2.36543,5.42625 0.34553,7.63758 -2.01989,2.21132 -5.42624,2.36542 -7.63757,0.34555 l -35.92398,-32.81416 c -2.21132,-2.01989 -2.36544,-5.42624 -0.34555,-7.63757 2.01989,-2.21132 5.42625,-2.36544 7.63757,-0.34553 z"
     id="rect3787"
     inkscape:connector-curvature="0" />
  <path
     sodipodi:type="arc"
     style="fill:none;stroke:#ff6d63;stroke-width:10;stroke-linecap:butt;stroke-linejoin:miter;stroke-miterlimit:4;stroke-opacity:1;stroke-dasharray:none"
     id="path3772"
     sodipodi:cx="102.64584"
     sodipodi:cy="122.80833"
     sodipodi:rx="66.673279"
     sodipodi:ry="66.673279"
     d="m 169.31912,122.80833 a 66.673279,66.673279 0 1 1 -133.346555,0 66.673279,66.673279 0 1 1 133.346555,0 z"
     transform="matrix(1.8454673,0,0,1.8454673,148.46216,-38.300305)" />
  <path
     sodipodi:type="arc"
     style="fill:#fffff3;fill-opacity:1;fill-rule:evenodd;stroke:none"
     id="path3780"
     sodipodi:cx="240.64401"
     sodipodi:cy="144.20581"
     sodipodi:rx="16.745846"
     sodipodi:ry="16.745846"
     d="m 257.38986,144.20581 a 16.745846,16.745846 0 1 1 -33.49169,0 16.745846,16.745846 0 1 1 33.49169,0 z"
     transform="matrix(1.9919854,0,0,1.9919854,-150.1159,-147.10043)" />
  <path
     d="m 257.38986,144.20581 a 16.745846,16.745846 0 1 1 -33.49169,0 16.745846,16.745846 0 1 1 33.49169,0 z"
     sodipodi:ry="16.745846"
     sodipodi:rx="16.745846"
     sodipodi:cy="144.20581"
     sodipodi:cx="240.64401"
     id="path3782"
     style="fill:#fffff3;fill-opacity:1;fill-rule:evenodd;stroke:none"
     sodipodi:type="arc"
     transform="matrix(1.2039646,0,0,1.2039646,3.6881789,22.132568)" />
  <path
     style="fill:#ffffa4;fill-opacity:1;stroke:none"
     d="m 97.36017,265.76695 53.50424,61.3983 57.01271,-65.78389 -49.11865,-55.25848 z"
     id="path3790"
     inkscape:connector-curvature="0"
     clip-path="url(#clipPath3794)"
     transform="matrix(1.9919854,0,0,1.9919854,-150.1159,-147.10043)" />
</svg>
