<?xml version="1.0" encoding="UTF-8" standalone="no"?>
<!-- Created with Inkscape (http://www.inkscape.org/) -->

<svg
   xmlns:dc="http://purl.org/dc/elements/1.1/"
   xmlns:cc="http://creativecommons.org/ns#"
   xmlns:rdf="http://www.w3.org/1999/02/22-rdf-syntax-ns#"
   xmlns:svg="http://www.w3.org/2000/svg"
   xmlns="http://www.w3.org/2000/svg"
   xmlns:xlink="http://www.w3.org/1999/xlink"
   xmlns:sodipodi="http://sodipodi.sourceforge.net/DTD/sodipodi-0.dtd"
   xmlns:inkscape="http://www.inkscape.org/namespaces/inkscape"
   width="512"
   height="512"
   viewBox="0 0 512.00001 512.00001"
   id="svg4186"
   version="1.1"
   inkscape:version="0.91 r13725"
   sodipodi:docname="hexchat.svg">
  <defs
     id="defs4188">
    <clipPath
       clipPathUnits="userSpaceOnUse"
       id="clipPath4231">
      <path
         sodipodi:nodetypes="cccccccccc"
         inkscape:connector-curvature="0"
         id="path4233"
         d="m 74.716174,12.225624 23.86315,41.335409 -23.86315,41.333115 -47.728596,0 L 25.339945,92.039473 2.1017852,99.920747 16.564804,76.841315 3.1244294,53.561033 26.987578,12.225624 Z"
         style="fill:#d84c4b;fill-opacity:1;stroke:none;stroke-width:15;stroke-linejoin:round;stroke-miterlimit:4;stroke-dasharray:none;stroke-opacity:1" />
    </clipPath>
    <linearGradient
       inkscape:collect="always"
       xlink:href="#linearGradient4247"
       id="linearGradient4253"
       x1="-11.203374"
       y1="-155.69913"
       x2="83.961456"
       y2="114.94713"
       gradientUnits="userSpaceOnUse" />
    <linearGradient
       inkscape:collect="always"
       id="linearGradient4247">
      <stop
         style="stop-color:#000000;stop-opacity:1;"
         offset="0"
         id="stop4249" />
      <stop
         style="stop-color:#000000;stop-opacity:0;"
         offset="1"
         id="stop4251" />
    </linearGradient>
    <clipPath
       clipPathUnits="userSpaceOnUse"
       id="clipPath4257">
      <path
         style="fill:#f48c4b;fill-opacity:1;stroke:none;stroke-width:15;stroke-linejoin:round;stroke-miterlimit:4;stroke-dasharray:none;stroke-opacity:1"
         d="m 54.973913,25.696664 -23.86315,41.335408 23.86315,41.333128 47.728597,0 1.64762,-2.85468 23.23818,7.88128 -14.46304,-23.079445 13.4404,-23.280283 -23.86316,-41.335408 z"
         id="path4259"
         inkscape:connector-curvature="0"
         sodipodi:nodetypes="cccccccccc" />
    </clipPath>
  </defs>
  <sodipodi:namedview
     id="base"
     pagecolor="#ffffff"
     bordercolor="#666666"
     borderopacity="1.0"
     inkscape:pageopacity="0.0"
     inkscape:pageshadow="2"
     inkscape:zoom="0.35"
     inkscape:cx="-110.71429"
     inkscape:cy="520"
     inkscape:document-units="px"
     inkscape:current-layer="layer1"
     showgrid="false"
     units="px"
     inkscape:window-width="1360"
     inkscape:window-height="719"
     inkscape:window-x="0"
     inkscape:window-y="25"
     inkscape:window-maximized="1" />
  <metadata
     id="metadata4191">
    <rdf:RDF>
      <cc:Work
         rdf:about="">
        <dc:format>image/svg+xml</dc:format>
        <dc:type
           rdf:resource="http://purl.org/dc/dcmitype/StillImage" />
        <dc:title></dc:title>
      </cc:Work>
    </rdf:RDF>
  </metadata>
  <g
     inkscape:label="Capa 1"
     inkscape:groupmode="layer"
     id="layer1"
     transform="translate(0,-540.36216)">
    <g
       id="g4157"
       transform="matrix(4.044004,0,0,4.044004,-5.0907771,-997.3912)">
      <path
         sodipodi:nodetypes="cccccccccc"
         inkscape:connector-curvature="0"
         id="path4186"
         d="m 74.716174,396.22562 23.86315,41.33541 -23.86315,41.33312 -47.728596,0 -1.647633,-2.85468 L 2.1017852,483.92075 16.564804,460.84131 3.1244294,437.56103 26.987578,396.22562 Z"
         style="fill:#d84c4b;fill-opacity:1;stroke:none;stroke-width:15;stroke-linejoin:round;stroke-miterlimit:4;stroke-dasharray:none;stroke-opacity:1" />
      <path
         transform="translate(0,384)"
         clip-path="url(#clipPath4231)"
         sodipodi:nodetypes="cccccccccc"
         inkscape:connector-curvature="0"
         id="path4227"
         d="m 53.346794,25.289884 -23.86315,41.527145 23.86315,41.524851 47.728596,0 1.64762,-2.86792 23.23818,7.91784 -14.46304,-23.186501 13.4404,-23.38827 -23.86316,-41.527145 z"
         style="fill:#000000;fill-opacity:0.07772019;stroke:none;stroke-width:15;stroke-linejoin:round;stroke-miterlimit:4;stroke-dasharray:none;stroke-opacity:1" />
      <path
         style="fill:#f48c4b;fill-opacity:1;stroke:none;stroke-width:15;stroke-linejoin:round;stroke-miterlimit:4;stroke-dasharray:none;stroke-opacity:1"
         d="m 54.973913,409.69666 -23.86315,41.33541 23.86315,41.33313 47.728597,0 1.64762,-2.85468 23.23818,7.88128 -14.46304,-23.07944 13.4404,-23.28029 -23.86316,-41.33541 z"
         id="path4191"
         inkscape:connector-curvature="0"
         sodipodi:nodetypes="cccccccccc" />
      <path
         transform="translate(0,384)"
         clip-path="url(#clipPath4257)"
         sodipodi:nodetypes="cccccccc"
         inkscape:connector-curvature="0"
         id="path4239"
         d="m 114.76193,111.26062 -63.304302,-36.548756 8.542373,-13.423729 16.559712,9.560754 5.81317,-10.374313 19.159257,11.061601 4.84074,-10.451431 63.3043,36.548754 -4.57374,17.71049 L 144.10597,128 Z"
         style="opacity:0.57999998;fill:url(#linearGradient4253);fill-opacity:1;fill-rule:evenodd;stroke:none;stroke-width:1px;stroke-linecap:butt;stroke-linejoin:miter;stroke-opacity:1" />
      <path
         inkscape:connector-curvature="0"
         id="path4193"
         d="m 55.774105,443.99616 a 8.1248303,8.1248303 0 0 0 -8.12343,8.12343 8.1248303,8.1248303 0 0 0 8.12343,8.12573 8.1248303,8.1248303 0 0 0 8.125725,-8.12573 8.1248303,8.1248303 0 0 0 -8.125725,-8.12343 z m 23.420261,0 a 8.1248303,8.1248303 0 0 0 -8.125724,8.12343 8.1248303,8.1248303 0 0 0 8.125724,8.12573 8.1248303,8.1248303 0 0 0 8.123432,-8.12573 8.1248303,8.1248303 0 0 0 -8.123432,-8.12343 z m 23.417964,0 a 8.1248303,8.1248303 0 0 0 -8.125724,8.12343 8.1248303,8.1248303 0 0 0 8.125724,8.12573 8.1248303,8.1248303 0 0 0 8.12574,-8.12573 8.1248303,8.1248303 0 0 0 -8.12574,-8.12343 z"
         style="fill:#ffffff;fill-opacity:1;stroke:none;stroke-width:15;stroke-linejoin:round;stroke-miterlimit:4;stroke-dasharray:none;stroke-opacity:1" />
    </g>
  </g>
</svg>
