<?xml version="1.0" encoding="UTF-8" standalone="no"?>
<!-- Created with Inkscape (http://www.inkscape.org/) -->

<svg
   xmlns:dc="http://purl.org/dc/elements/1.1/"
   xmlns:cc="http://creativecommons.org/ns#"
   xmlns:rdf="http://www.w3.org/1999/02/22-rdf-syntax-ns#"
   xmlns:svg="http://www.w3.org/2000/svg"
   xmlns="http://www.w3.org/2000/svg"
   xmlns:sodipodi="http://sodipodi.sourceforge.net/DTD/sodipodi-0.dtd"
   xmlns:inkscape="http://www.inkscape.org/namespaces/inkscape"
   width="512"
   height="512"
   id="svg2"
   version="1.1"
   inkscape:version="0.92.3 (2405546, 2018-03-11)"
   sodipodi:docname="inkscape.svg">
  <sodipodi:namedview
     id="base"
     pagecolor="#ffffff"
     bordercolor="#666666"
     borderopacity="1.0"
     inkscape:pageopacity="0.0"
     inkscape:pageshadow="2"
     inkscape:zoom="0.88360727"
     inkscape:cx="525.71429"
     inkscape:cy="202.85714"
     inkscape:document-units="px"
     inkscape:current-layer="layer1"
     showgrid="false"
     inkscape:window-width="1920"
     inkscape:window-height="1029"
     inkscape:window-x="0"
     inkscape:window-y="25"
     inkscape:window-maximized="1" />
  <defs
     id="defs4">
    <clipPath
       id="clipPath3839"
       clipPathUnits="userSpaceOnUse">
      <path
         sodipodi:nodetypes="sccsccsccsccs"
         inkscape:connector-curvature="0"
         id="path3841"
         d="m 302.72322,31.5 c -5.15761,0.03227 -10.28618,2.157894 -14.25019,5.90625 l -219.227391,207.375 c -4.724367,4.47496 -7.711236,11.23676 -8.045611,18.214 -0.334375,6.97724 1.988658,14.0674 6.257459,19.0985 l 219.227393,258.4375 c 4.17751,4.92309 10.1564,7.80968 16.17589,7.80968 6.01949,0 11.99839,-2.88659 16.1759,-7.80968 l 219.22739,-258.4375 c 4.26557,-5.03521 6.5837,-12.128 6.24418,-19.10533 -0.33952,-6.97734 -3.33171,-13.73669 -8.05985,-18.20717 L 317.221,37.40625 C 313.19355,33.597915 307.96337,31.467188 302.72322,31.5 z"
         style="font-size:medium;font-style:normal;font-variant:normal;font-weight:normal;font-stretch:normal;text-indent:0;text-align:start;text-decoration:none;line-height:normal;letter-spacing:normal;word-spacing:normal;text-transform:none;direction:ltr;block-progression:tb;writing-mode:lr-tb;text-anchor:start;baseline-shift:baseline;color:#000000;fill:#2d2d35;fill-opacity:1;fill-rule:evenodd;stroke:none;stroke-width:51.03818512;marker:none;visibility:visible;display:inline;overflow:visible;enable-background:accumulate;font-family:Sans;-inkscape-font-specification:Sans" />
    </clipPath>
    <clipPath
       clipPathUnits="userSpaceOnUse"
       id="clipPath3924">
      <path
         sodipodi:nodetypes="sccsccsccsccs"
         inkscape:connector-curvature="0"
         id="path3926"
         d="m 302.72322,31.5 c -5.15761,0.03227 -10.28618,2.157894 -14.25019,5.90625 l -219.227391,207.375 c -4.724367,4.47496 -7.711236,11.23676 -8.045611,18.214 -0.334375,6.97724 1.988658,14.0674 6.257459,19.0985 l 219.227393,258.4375 c 4.17751,4.92309 10.1564,7.80968 16.17589,7.80968 6.01949,0 11.99839,-2.88659 16.1759,-7.80968 l 219.22739,-258.4375 c 4.26557,-5.03521 6.5837,-12.128 6.24418,-19.10533 -0.33952,-6.97734 -3.33171,-13.73669 -8.05985,-18.20717 L 317.221,37.40625 C 313.19355,33.597915 307.96337,31.467188 302.72322,31.5 z"
         style="font-size:medium;font-style:normal;font-variant:normal;font-weight:normal;font-stretch:normal;text-indent:0;text-align:start;text-decoration:none;line-height:normal;letter-spacing:normal;word-spacing:normal;text-transform:none;direction:ltr;block-progression:tb;writing-mode:lr-tb;text-anchor:start;baseline-shift:baseline;color:#000000;fill:#2d2d35;fill-opacity:1;fill-rule:evenodd;stroke:none;stroke-width:51.03818512;marker:none;visibility:visible;display:inline;overflow:visible;enable-background:accumulate;font-family:Sans;-inkscape-font-specification:Sans" />
    </clipPath>
  </defs>
  <metadata
     id="metadata7">
    <rdf:RDF>
      <cc:Work
         rdf:about="">
        <dc:format>image/svg+xml</dc:format>
        <dc:type
           rdf:resource="http://purl.org/dc/dcmitype/StillImage" />
        <dc:title />
      </cc:Work>
    </rdf:RDF>
  </metadata>
  <g
     inkscape:label="Capa 1"
     inkscape:groupmode="layer"
     id="layer1"
     transform="translate(0,-540.36218)">
    <path
       style="color:#000000;font-style:normal;font-variant:normal;font-weight:normal;font-stretch:normal;font-size:medium;line-height:normal;font-family:Sans;-inkscape-font-specification:Sans;text-indent:0;text-align:start;text-decoration:none;text-decoration-line:none;letter-spacing:normal;word-spacing:normal;text-transform:none;writing-mode:lr-tb;direction:ltr;baseline-shift:baseline;text-anchor:start;display:inline;overflow:visible;visibility:visible;fill:#667e8b;fill-opacity:1;fill-rule:evenodd;stroke:none;stroke-width:57.1591301;marker:none;enable-background:accumulate"
       d="m 252.51818,546.17367 c -4.95675,0.031 -9.88559,2.07386 -13.69523,5.67623 L 28.133323,751.14873 c -4.540378,4.30069 -7.410924,10.79915 -7.732277,17.50467 -0.321352,6.70551 1.911209,13.51954 6.013764,18.35471 l 210.68963,248.37279 c 4.01483,4.7314 9.76086,7.5054 15.54592,7.5054 5.78507,0 11.53113,-2.774 15.54594,-7.5054 L 478.88594,787.00811 c 4.09945,-4.83912 6.3273,-11.65568 6.001,-18.36129 -0.32629,-6.70561 -3.20195,-13.20171 -7.74595,-17.49809 L 266.45135,551.8499 c -3.87061,-3.66002 -8.8971,-5.70777 -13.93317,-5.67623 z"
       id="path2987"
       inkscape:connector-curvature="0"
       sodipodi:nodetypes="sccsccsccsccs" />
    <g
       id="g3856"
       style="opacity:0.09387758;fill:#000000;fill-opacity:1"
       clip-path="url(#clipPath3924)"
       transform="matrix(0.96105525,0,0,0.96105525,-38.415562,515.90042)">
      <g
         id="g3858"
         style="color:#000000;font-style:normal;font-variant:normal;font-weight:normal;font-stretch:normal;font-size:medium;line-height:normal;font-family:Sans;-inkscape-font-specification:Sans;text-indent:0;text-align:start;text-decoration:none;text-decoration-line:none;letter-spacing:normal;word-spacing:normal;text-transform:none;writing-mode:lr-tb;direction:ltr;baseline-shift:baseline;text-anchor:start;display:inline;overflow:visible;visibility:visible;fill:#000000;fill-opacity:1;fill-rule:evenodd;stroke:none;stroke-width:51.03818512;marker:none;enable-background:accumulate">
        <path
           id="path3860"
           d="m 302.47122,74.357104 c -4.61589,0.02888 -9.20578,1.931243 -12.75344,5.285895 L 643.27117,433.19639 c 3.54766,-3.35465 8.13755,-5.25702 12.75344,-5.2859 z"
           style="fill:#000000;fill-opacity:1"
           inkscape:connector-curvature="0" />
        <path
           id="path3862"
           d="M 289.71778,79.642999 191.61721,172.43982 545.1706,525.99321 643.27117,433.19639 Z"
           style="fill:#000000;fill-opacity:1"
           inkscape:connector-curvature="0" />
        <path
           id="path3864"
           d="m 191.61721,172.43982 c -11.49798,10.8687 -26.34154,24.17056 -37.44239,34.75044 l 353.55339,353.55339 c 11.10085,-10.57988 25.94441,-23.88174 37.44239,-34.75044 z"
           style="fill:#000000;fill-opacity:1"
           inkscape:connector-curvature="0" />
        <path
           id="path3866"
           d="m 154.17482,207.19026 c -1.10809,1.05609 -2.1789,2.08506 -3.20536,3.08178 l 353.55339,353.55339 c 1.02646,-0.99672 2.09727,-2.02569 3.20536,-3.08178 z"
           style="fill:#000000;fill-opacity:1"
           inkscape:connector-curvature="0" />
        <path
           id="path3868"
           d="m 150.96946,210.27204 c -5.63731,4.10109 -5.92143,7.59634 -3.00801,10.50975 l 353.55339,353.5534 c -2.91341,-2.91342 -2.6293,-6.40867 3.00801,-10.50976 z"
           style="fill:#000000;fill-opacity:1"
           inkscape:connector-curvature="0" />
        <path
           id="path3870"
           d="m 147.96145,220.78179 c 8.98399,8.98399 48.37314,12.43535 54.95837,11.05795 l 353.55339,353.55339 c -6.58523,1.3774 -45.97438,-2.07396 -54.95837,-11.05794 z"
           style="fill:#000000;fill-opacity:1"
           inkscape:connector-curvature="0" />
        <path
           id="path3872"
           d="m 202.91982,231.83974 c 21.70882,-5.61313 9.67534,-41.23393 26.36547,-42.83742 l 353.55339,353.55339 c -16.69013,1.60349 -4.65665,37.22429 -26.36547,42.83742 z"
           style="fill:#000000;fill-opacity:1"
           inkscape:connector-curvature="0" />
        <path
           id="path3874"
           d="m 229.28529,189.00232 c 4.29764,-0.41289 7.65795,1.17145 10.47575,3.98925 l 353.55339,353.55339 c -2.8178,-2.8178 -6.17811,-4.40214 -10.47575,-3.98925 z"
           style="fill:#000000;fill-opacity:1"
           inkscape:connector-curvature="0" />
        <path
           id="path3876"
           d="m 239.76104,192.99157 c 9.18906,9.18907 12.60879,31.4955 23.952,40.43133 l 353.55339,353.55339 c -11.34321,-8.93583 -14.76294,-31.24226 -23.952,-40.43133 z"
           style="fill:#000000;fill-opacity:1"
           inkscape:connector-curvature="0" />
        <path
           id="path3878"
           d="m 263.71304,233.4229 c 2.75445,2.16986 5.9761,3.55133 9.86102,3.76513 l 353.55339,353.55339 c -3.88492,-0.2138 -7.10657,-1.59527 -9.86102,-3.76513 z"
           style="fill:#000000;fill-opacity:1"
           inkscape:connector-curvature="0" />
        <path
           id="path3880"
           d="m 273.57406,237.18803 c 27.38488,1.50709 61.0755,-49.57549 97.25962,-48.34979 l 353.55339,353.55339 c -36.18412,-1.2257 -69.87474,49.85688 -97.25962,48.34979 z"
           style="fill:#000000;fill-opacity:1"
           inkscape:connector-curvature="0" />
        <path
           id="path3882"
           d="m 370.83368,188.83824 c 26.45424,0.89611 42.33995,43.76476 68.55155,40.07936 l 353.55339,353.55339 c -26.2116,3.6854 -42.09731,-39.18325 -68.55155,-40.07936 z"
           style="fill:#000000;fill-opacity:1"
           inkscape:connector-curvature="0" />
        <path
           id="path3884"
           d="m 439.38523,228.9176 c 7.57522,-1.0651 28.50988,-4.41011 16.59871,-16.32128 l 353.55339,353.55339 c 11.91117,11.91117 -9.02349,15.25618 -16.59871,16.32128 z"
           style="fill:#000000;fill-opacity:1"
           inkscape:connector-curvature="0" />
        <path
           id="path3886"
           d="m 455.98394,212.59632 c -0.16844,-0.16844 -0.34346,-0.3386 -0.52517,-0.51049 l 353.55339,353.55339 c 0.18171,0.17189 0.35673,0.34205 0.52517,0.51049 z"
           style="fill:#000000;fill-opacity:1"
           inkscape:connector-curvature="0" />
        <path
           id="path3888"
           d="m 455.45877,212.08583 -41.91195,-39.64601 353.55339,353.55339 41.91195,39.64601 z"
           style="fill:#000000;fill-opacity:1"
           inkscape:connector-curvature="0" />
        <path
           id="path3890"
           d="M 413.54682,172.43982 315.44625,79.642999 668.99964,433.19639 767.10021,525.99321 Z"
           style="fill:#000000;fill-opacity:1"
           inkscape:connector-curvature="0" />
        <path
           id="path3892"
           d="m 315.44625,79.642999 c -3.60444,-3.408332 -8.28527,-5.315261 -12.97503,-5.285895 L 656.02461,427.91049 c 4.68976,-0.0294 9.37059,1.87757 12.97503,5.2859 z"
           style="fill:#000000;fill-opacity:1"
           inkscape:connector-curvature="0" />
      </g>
      <path
         style="color:#000000;font-style:normal;font-variant:normal;font-weight:normal;font-stretch:normal;font-size:medium;line-height:normal;font-family:Sans;-inkscape-font-specification:Sans;text-indent:0;text-align:start;text-decoration:none;text-decoration-line:none;letter-spacing:normal;word-spacing:normal;text-transform:none;writing-mode:lr-tb;direction:ltr;baseline-shift:baseline;text-anchor:start;display:inline;overflow:visible;visibility:visible;fill:#000000;fill-opacity:1;fill-rule:evenodd;stroke:none;stroke-width:51.03818512;marker:none;enable-background:accumulate"
         d="m 302.47122,74.357104 c -4.61589,0.02888 -9.20578,1.931243 -12.75344,5.285895 l -98.10057,92.796821 c -11.49798,10.8687 -26.34154,24.17056 -37.44239,34.75044 -1.10809,1.05609 -2.1789,2.08506 -3.20536,3.08178 -23.02085,16.74744 43.22961,23.39178 51.95036,21.5677 21.70882,-5.61313 9.67534,-41.23393 26.36547,-42.83742 21.71579,-2.08632 19.49921,46.82145 44.28877,48.18571 27.38488,1.50709 61.0755,-49.57549 97.25962,-48.34979 26.45424,0.89611 42.33995,43.76476 68.55155,40.07936 7.68235,-1.08016 29.10466,-4.50517 16.07354,-16.83177 L 413.54682,172.43982 315.44625,79.642999 c -3.60444,-3.408332 -8.28527,-5.315261 -12.97503,-5.285895 z"
         id="path3845"
         inkscape:connector-curvature="0"
         sodipodi:nodetypes="sccsccasaacccs" />
    </g>
    <path
       sodipodi:nodetypes="sccsccasaacccs"
       inkscape:connector-curvature="0"
       id="path3762"
       d="m 252.276,587.36171 c -4.43613,0.0278 -8.84728,1.85604 -12.25678,5.08005 l -94.28006,89.18286 c -11.05019,10.44543 -25.31567,23.22925 -35.9842,33.39709 -1.06495,1.01497 -2.09404,2.00387 -3.08052,2.96177 -22.124318,16.09521 41.54603,22.48078 49.92715,20.72775 20.86338,-5.39453 9.29854,-39.62809 25.33868,-41.16913 20.87007,-2.00506 18.73981,44.998 42.56395,46.30913 26.31839,1.44839 58.69692,-47.64478 93.47187,-46.46682 25.42398,0.8612 40.69103,42.06034 65.88182,38.51848 7.38317,-1.03809 27.97119,-4.32971 15.44757,-16.17626 l -40.27969,-38.10201 -94.28008,-89.18286 c -3.46407,-3.27561 -7.9626,-5.10827 -12.46971,-5.08005 z"
       style="color:#000000;font-style:normal;font-variant:normal;font-weight:normal;font-stretch:normal;font-size:medium;line-height:normal;font-family:Sans;-inkscape-font-specification:Sans;text-indent:0;text-align:start;text-decoration:none;text-decoration-line:none;letter-spacing:normal;word-spacing:normal;text-transform:none;writing-mode:lr-tb;direction:ltr;baseline-shift:baseline;text-anchor:start;display:inline;overflow:visible;visibility:visible;fill:#ffffff;fill-opacity:1;fill-rule:evenodd;stroke:none;stroke-width:57.1591301;marker:none;enable-background:accumulate" />
  </g>
</svg>
