<?xml version="1.0" encoding="UTF-8" standalone="no"?>
<!-- Created with Inkscape (http://www.inkscape.org/) -->

<svg
   xmlns:dc="http://purl.org/dc/elements/1.1/"
   xmlns:cc="http://creativecommons.org/ns#"
   xmlns:rdf="http://www.w3.org/1999/02/22-rdf-syntax-ns#"
   xmlns:svg="http://www.w3.org/2000/svg"
   xmlns="http://www.w3.org/2000/svg"
   xmlns:sodipodi="http://sodipodi.sourceforge.net/DTD/sodipodi-0.dtd"
   xmlns:inkscape="http://www.inkscape.org/namespaces/inkscape"
   width="512"
   height="512"
   id="svg2"
   version="1.1"
   inkscape:version="0.48.4 r9939"
   sodipodi:docname="Nuevo documento 1">
  <sodipodi:namedview
     id="base"
     pagecolor="#ffffff"
     bordercolor="#666666"
     borderopacity="1.0"
     inkscape:pageopacity="0.0"
     inkscape:pageshadow="2"
     inkscape:zoom="0.175"
     inkscape:cx="190.8809"
     inkscape:cy="856.09407"
     inkscape:document-units="px"
     inkscape:current-layer="layer1"
     showgrid="false"
     inkscape:window-width="1360"
     inkscape:window-height="721"
     inkscape:window-x="0"
     inkscape:window-y="25"
     inkscape:window-maximized="1" />
  <defs
     id="defs4">
    <clipPath
       id="clipPath3839"
       clipPathUnits="userSpaceOnUse">
      <path
         sodipodi:nodetypes="sccsccsccsccs"
         inkscape:connector-curvature="0"
         id="path3841"
         d="m 302.72322,31.5 c -5.15761,0.03227 -10.28618,2.157894 -14.25019,5.90625 l -219.227391,207.375 c -4.724367,4.47496 -7.711236,11.23676 -8.045611,18.214 -0.334375,6.97724 1.988658,14.0674 6.257459,19.0985 l 219.227393,258.4375 c 4.17751,4.92309 10.1564,7.80968 16.17589,7.80968 6.01949,0 11.99839,-2.88659 16.1759,-7.80968 l 219.22739,-258.4375 c 4.26557,-5.03521 6.5837,-12.128 6.24418,-19.10533 -0.33952,-6.97734 -3.33171,-13.73669 -8.05985,-18.20717 L 317.221,37.40625 C 313.19355,33.597915 307.96337,31.467188 302.72322,31.5 z"
         style="font-size:medium;font-style:normal;font-variant:normal;font-weight:normal;font-stretch:normal;text-indent:0;text-align:start;text-decoration:none;line-height:normal;letter-spacing:normal;word-spacing:normal;text-transform:none;direction:ltr;block-progression:tb;writing-mode:lr-tb;text-anchor:start;baseline-shift:baseline;color:#000000;fill:#2d2d35;fill-opacity:1;fill-rule:evenodd;stroke:none;stroke-width:51.03818512;marker:none;visibility:visible;display:inline;overflow:visible;enable-background:accumulate;font-family:Sans;-inkscape-font-specification:Sans" />
    </clipPath>
    <clipPath
       clipPathUnits="userSpaceOnUse"
       id="clipPath3924">
      <path
         sodipodi:nodetypes="sccsccsccsccs"
         inkscape:connector-curvature="0"
         id="path3926"
         d="m 302.72322,31.5 c -5.15761,0.03227 -10.28618,2.157894 -14.25019,5.90625 l -219.227391,207.375 c -4.724367,4.47496 -7.711236,11.23676 -8.045611,18.214 -0.334375,6.97724 1.988658,14.0674 6.257459,19.0985 l 219.227393,258.4375 c 4.17751,4.92309 10.1564,7.80968 16.17589,7.80968 6.01949,0 11.99839,-2.88659 16.1759,-7.80968 l 219.22739,-258.4375 c 4.26557,-5.03521 6.5837,-12.128 6.24418,-19.10533 -0.33952,-6.97734 -3.33171,-13.73669 -8.05985,-18.20717 L 317.221,37.40625 C 313.19355,33.597915 307.96337,31.467188 302.72322,31.5 z"
         style="font-size:medium;font-style:normal;font-variant:normal;font-weight:normal;font-stretch:normal;text-indent:0;text-align:start;text-decoration:none;line-height:normal;letter-spacing:normal;word-spacing:normal;text-transform:none;direction:ltr;block-progression:tb;writing-mode:lr-tb;text-anchor:start;baseline-shift:baseline;color:#000000;fill:#2d2d35;fill-opacity:1;fill-rule:evenodd;stroke:none;stroke-width:51.03818512;marker:none;visibility:visible;display:inline;overflow:visible;enable-background:accumulate;font-family:Sans;-inkscape-font-specification:Sans" />
    </clipPath>
  </defs>
  <metadata
     id="metadata7">
    <rdf:RDF>
      <cc:Work
         rdf:about="">
        <dc:format>image/svg+xml</dc:format>
        <dc:type
           rdf:resource="http://purl.org/dc/dcmitype/StillImage" />
        <dc:title></dc:title>
      </cc:Work>
    </rdf:RDF>
  </metadata>
  <g
     inkscape:label="Capa 1"
     inkscape:groupmode="layer"
     id="layer1"
     transform="translate(0,-540.36218)">
    <path
       style="font-size:medium;font-style:normal;font-variant:normal;font-weight:normal;font-stretch:normal;text-indent:0;text-align:start;text-decoration:none;line-height:normal;letter-spacing:normal;word-spacing:normal;text-transform:none;direction:ltr;block-progression:tb;writing-mode:lr-tb;text-anchor:start;baseline-shift:baseline;color:#000000;fill:#3c3c47;fill-opacity:1;fill-rule:evenodd;stroke:none;stroke-width:51.03818512;marker:none;visibility:visible;display:inline;overflow:visible;enable-background:accumulate;font-family:Sans;-inkscape-font-specification:Sans"
       d="m 262.74186,567.67639 c -4.42595,0.0277 -8.82698,1.85178 -12.22866,5.06839 L 62.385498,750.70148 c -4.054167,3.84014 -6.617317,9.64271 -6.904258,15.63016 -0.28694,5.98744 1.706546,12.07179 5.369774,16.38918 L 248.97872,1004.4963 c 3.58489,4.2247 8.71561,6.7017 13.88117,6.7017 5.16557,0 10.2963,-2.477 13.88118,-6.7017 L 464.86878,782.72082 c 3.66046,-4.32092 5.64974,-10.40752 5.35838,-16.39505 -0.29135,-5.98753 -2.85907,-11.78799 -6.91647,-15.62429 L 275.18298,572.74478 c -3.45612,-3.26808 -7.94434,-5.09655 -12.44112,-5.06839 z"
       id="path2987"
       inkscape:connector-curvature="0"
       sodipodi:nodetypes="sccsccsccsccs" />
    <g
       id="g3856"
       style="opacity:0.09387758;fill:#000000;fill-opacity:1"
       clip-path="url(#clipPath3924)"
       transform="matrix(0.85813962,0,0,0.85813962,2.9630713,540.64499)">
      <g
         id="g3858"
         style="font-size:medium;font-style:normal;font-variant:normal;font-weight:normal;font-stretch:normal;text-indent:0;text-align:start;text-decoration:none;line-height:normal;letter-spacing:normal;word-spacing:normal;text-transform:none;direction:ltr;block-progression:tb;writing-mode:lr-tb;text-anchor:start;baseline-shift:baseline;color:#000000;fill:#000000;fill-opacity:1;fill-rule:evenodd;stroke:none;stroke-width:51.03818512;marker:none;visibility:visible;display:inline;overflow:visible;enable-background:accumulate;font-family:Sans;-inkscape-font-specification:Sans">
        <path
           id="path3860"
           d="m 302.47122,74.357104 c -4.61589,0.02888 -9.20578,1.931243 -12.75344,5.285895 L 643.27117,433.19639 c 3.54766,-3.35465 8.13755,-5.25702 12.75344,-5.2859 z"
           style="fill:#000000;fill-opacity:1"
           inkscape:connector-curvature="0" />
        <path
           id="path3862"
           d="M 289.71778,79.642999 191.61721,172.43982 545.1706,525.99321 643.27117,433.19639 z"
           style="fill:#000000;fill-opacity:1"
           inkscape:connector-curvature="0" />
        <path
           id="path3864"
           d="m 191.61721,172.43982 c -11.49798,10.8687 -26.34154,24.17056 -37.44239,34.75044 l 353.55339,353.55339 c 11.10085,-10.57988 25.94441,-23.88174 37.44239,-34.75044 z"
           style="fill:#000000;fill-opacity:1"
           inkscape:connector-curvature="0" />
        <path
           id="path3866"
           d="m 154.17482,207.19026 c -1.10809,1.05609 -2.1789,2.08506 -3.20536,3.08178 l 353.55339,353.55339 c 1.02646,-0.99672 2.09727,-2.02569 3.20536,-3.08178 z"
           style="fill:#000000;fill-opacity:1"
           inkscape:connector-curvature="0" />
        <path
           id="path3868"
           d="m 150.96946,210.27204 c -5.63731,4.10109 -5.92143,7.59634 -3.00801,10.50975 l 353.55339,353.5534 c -2.91341,-2.91342 -2.6293,-6.40867 3.00801,-10.50976 z"
           style="fill:#000000;fill-opacity:1"
           inkscape:connector-curvature="0" />
        <path
           id="path3870"
           d="m 147.96145,220.78179 c 8.98399,8.98399 48.37314,12.43535 54.95837,11.05795 l 353.55339,353.55339 c -6.58523,1.3774 -45.97438,-2.07396 -54.95837,-11.05794 z"
           style="fill:#000000;fill-opacity:1"
           inkscape:connector-curvature="0" />
        <path
           id="path3872"
           d="m 202.91982,231.83974 c 21.70882,-5.61313 9.67534,-41.23393 26.36547,-42.83742 l 353.55339,353.55339 c -16.69013,1.60349 -4.65665,37.22429 -26.36547,42.83742 z"
           style="fill:#000000;fill-opacity:1"
           inkscape:connector-curvature="0" />
        <path
           id="path3874"
           d="m 229.28529,189.00232 c 4.29764,-0.41289 7.65795,1.17145 10.47575,3.98925 l 353.55339,353.55339 c -2.8178,-2.8178 -6.17811,-4.40214 -10.47575,-3.98925 z"
           style="fill:#000000;fill-opacity:1"
           inkscape:connector-curvature="0" />
        <path
           id="path3876"
           d="m 239.76104,192.99157 c 9.18906,9.18907 12.60879,31.4955 23.952,40.43133 l 353.55339,353.55339 c -11.34321,-8.93583 -14.76294,-31.24226 -23.952,-40.43133 z"
           style="fill:#000000;fill-opacity:1"
           inkscape:connector-curvature="0" />
        <path
           id="path3878"
           d="m 263.71304,233.4229 c 2.75445,2.16986 5.9761,3.55133 9.86102,3.76513 l 353.55339,353.55339 c -3.88492,-0.2138 -7.10657,-1.59527 -9.86102,-3.76513 z"
           style="fill:#000000;fill-opacity:1"
           inkscape:connector-curvature="0" />
        <path
           id="path3880"
           d="m 273.57406,237.18803 c 27.38488,1.50709 61.0755,-49.57549 97.25962,-48.34979 l 353.55339,353.55339 c -36.18412,-1.2257 -69.87474,49.85688 -97.25962,48.34979 z"
           style="fill:#000000;fill-opacity:1"
           inkscape:connector-curvature="0" />
        <path
           id="path3882"
           d="m 370.83368,188.83824 c 26.45424,0.89611 42.33995,43.76476 68.55155,40.07936 l 353.55339,353.55339 c -26.2116,3.6854 -42.09731,-39.18325 -68.55155,-40.07936 z"
           style="fill:#000000;fill-opacity:1"
           inkscape:connector-curvature="0" />
        <path
           id="path3884"
           d="m 439.38523,228.9176 c 7.57522,-1.0651 28.50988,-4.41011 16.59871,-16.32128 l 353.55339,353.55339 c 11.91117,11.91117 -9.02349,15.25618 -16.59871,16.32128 z"
           style="fill:#000000;fill-opacity:1"
           inkscape:connector-curvature="0" />
        <path
           id="path3886"
           d="m 455.98394,212.59632 c -0.16844,-0.16844 -0.34346,-0.3386 -0.52517,-0.51049 l 353.55339,353.55339 c 0.18171,0.17189 0.35673,0.34205 0.52517,0.51049 z"
           style="fill:#000000;fill-opacity:1"
           inkscape:connector-curvature="0" />
        <path
           id="path3888"
           d="m 455.45877,212.08583 -41.91195,-39.64601 353.55339,353.55339 41.91195,39.64601 z"
           style="fill:#000000;fill-opacity:1"
           inkscape:connector-curvature="0" />
        <path
           id="path3890"
           d="M 413.54682,172.43982 315.44625,79.642999 668.99964,433.19639 767.10021,525.99321 z"
           style="fill:#000000;fill-opacity:1"
           inkscape:connector-curvature="0" />
        <path
           id="path3892"
           d="m 315.44625,79.642999 c -3.60444,-3.408332 -8.28527,-5.315261 -12.97503,-5.285895 L 656.02461,427.91049 c 4.68976,-0.0294 9.37059,1.87757 12.97503,5.2859 z"
           style="fill:#000000;fill-opacity:1"
           inkscape:connector-curvature="0" />
      </g>
      <path
         style="font-size:medium;font-style:normal;font-variant:normal;font-weight:normal;font-stretch:normal;text-indent:0;text-align:start;text-decoration:none;line-height:normal;letter-spacing:normal;word-spacing:normal;text-transform:none;direction:ltr;block-progression:tb;writing-mode:lr-tb;text-anchor:start;baseline-shift:baseline;color:#000000;fill:#000000;fill-opacity:1;fill-rule:evenodd;stroke:none;stroke-width:51.03818512;marker:none;visibility:visible;display:inline;overflow:visible;enable-background:accumulate;font-family:Sans;-inkscape-font-specification:Sans"
         d="m 302.47122,74.357104 c -4.61589,0.02888 -9.20578,1.931243 -12.75344,5.285895 l -98.10057,92.796821 c -11.49798,10.8687 -26.34154,24.17056 -37.44239,34.75044 -1.10809,1.05609 -2.1789,2.08506 -3.20536,3.08178 -23.02085,16.74744 43.22961,23.39178 51.95036,21.5677 21.70882,-5.61313 9.67534,-41.23393 26.36547,-42.83742 21.71579,-2.08632 19.49921,46.82145 44.28877,48.18571 27.38488,1.50709 61.0755,-49.57549 97.25962,-48.34979 26.45424,0.89611 42.33995,43.76476 68.55155,40.07936 7.68235,-1.08016 29.10466,-4.50517 16.07354,-16.83177 L 413.54682,172.43982 315.44625,79.642999 c -3.60444,-3.408332 -8.28527,-5.315261 -12.97503,-5.285895 z"
         id="path3845"
         inkscape:connector-curvature="0"
         sodipodi:nodetypes="sccsccasaacccs" />
    </g>
    <path
       sodipodi:nodetypes="sccsccasaacccs"
       inkscape:connector-curvature="0"
       id="path3762"
       d="m 262.52561,604.45377 c -3.96108,0.0248 -7.89985,1.65728 -10.94424,4.53604 l -84.18398,79.63262 c -9.86687,9.32687 -22.60472,20.74172 -32.1308,29.82073 -0.9509,0.90628 -1.8698,1.78928 -2.75064,2.6446 -19.75511,14.37164 37.09703,20.07341 44.58065,18.5081 18.6292,-4.81685 8.3028,-35.38447 22.62526,-36.76049 18.63518,-1.79035 16.73304,40.17934 38.00595,41.35007 23.50005,1.29329 52.4113,-42.54269 83.46233,-41.49087 22.70143,0.76898 36.33359,37.55627 58.8268,34.39368 6.59253,-0.92692 24.97586,-3.86606 13.79334,-14.444 l -35.9663,-34.02182 -84.18399,-79.63262 c -3.09311,-2.92483 -7.10992,-4.56124 -11.13438,-4.53604 z"
       style="font-size:medium;font-style:normal;font-variant:normal;font-weight:normal;font-stretch:normal;text-indent:0;text-align:start;text-decoration:none;line-height:normal;letter-spacing:normal;word-spacing:normal;text-transform:none;direction:ltr;block-progression:tb;writing-mode:lr-tb;text-anchor:start;baseline-shift:baseline;color:#000000;fill:#ede2e2;fill-opacity:1;fill-rule:evenodd;stroke:none;stroke-width:51.03818512;marker:none;visibility:visible;display:inline;overflow:visible;enable-background:accumulate;font-family:Sans;-inkscape-font-specification:Sans" />
  </g>
</svg>
