<svg height="512" width="512" xmlns="http://www.w3.org/2000/svg" xmlns:xlink="http://www.w3.org/1999/xlink"><clipPath id="a"><path d="m643 152.5a103.5 103.5 0 1 1 -207 0 103.5 103.5 0 1 1 207 0z" transform="matrix(2.1304347 0 0 2.1304347 -892.86953 -62.391327)"/></clipPath><linearGradient id="b" gradientUnits="userSpaceOnUse" x1="608.73468" x2="483.40814" y1="237.92857" y2="88.193878"><stop offset="0" stop-color="#cd519a"/><stop offset="1" stop-color="#cd519a" stop-opacity="0"/></linearGradient><path d="m643 152.5a103.5 103.5 0 1 1 -207 0 103.5 103.5 0 1 1 207 0z" fill="#cd519a" fill-rule="evenodd" transform="matrix(2.1304347 0 0 2.1304347 -892.86953 -62.391327)"/><g clip-path="url(#a)" opacity=".165217"><g><path d="m283.25 98.78125-.375.34375 707.10678119 707.10678119.375-.34375z"/><path d="m282.875 99.125h-.5l707.10678119 707.10678119h.5z"/><path d="m282.375 99.125v.0625l707.10678119 707.10678119v-.0625z"/><path d="m282.375 99.1875v.15625l707.10678119 707.10678119v-.15625z"/><path d="m282.375 99.34375.0625.03125 707.10678119 707.10678119-.0625-.03125z"/><path d="m282.4375 99.375c2.94744 12.13735 1.78965 22.11704-1.875 30.78125l707.10678119 707.10678119c3.66465-8.66421 4.82244-18.6439 1.875-30.78125z"/><path d="m280.5625 130.15625c-3.67796 8.69567-9.89858 16.07396-17.15625 22.90625l707.10678119 707.10678119c7.25767-6.83229 13.47829-14.21058 17.15625-22.90625z"/><path d="m263.40625 153.0625c-14.51534 13.66458-33.09654 25.09005-43.0625 40.625l707.10678119 707.10678119c9.96596-15.53495 28.54716-26.96042 43.0625-40.625z"/><path d="m220.34375 193.6875c-6.84688 10.58781-5.23516 21.64718 1.5 33.09375l707.10678119 707.10678119c-6.73516-11.44657-8.34688-22.50594-1.5-33.09375z"/><path d="m221.84375 226.78125c4.65220865 7.90654297 11.72579201 16.05191986 20.18285196 24.50897981l707.10678118 707.10678119c-8.45705995-8.45705995-15.53064331-16.60243685-20.18285195-24.50897981z"/><path d="m242.02660196 251.29022981c3.78651213 3.78651213 7.85036374 7.635506 12.09839804 11.55352019l707.10678119 707.10678119c-4.2480343-3.91801419-8.31188591-7.76700806-12.09839805-11.55352019z"/><path d="m254.125 262.84375.8125-.5625 707.10678119 707.10678119-.8125.5625z"/><path d="m254.9375 262.28125c-.0285-.0668-.0961-.12077-.125-.1875l707.10678119 707.10678119c.0289.06673.0965.1207.125.1875z"/><path d="m254.8125 262.09375c-5.39516-12.47541-16.90793-24.07942-21.34375-37.1875l707.10678119 707.10678119c4.43582 13.10808 15.94859 24.71209 21.34375 37.1875z"/><path d="m233.46875 224.90625c-2.22977-6.5891-2.69342-13.54953.28125-21.25l707.10678119 707.10678119c-2.97467 7.70047-2.51102 14.6609-.28125 21.25z"/><path d="m233.75 203.65625c2.97467-7.70047 9.39477-16.16535 21.03125-25.6875l707.10678119 707.10678119c-11.63648 9.52215-18.05658 17.98703-21.03125 25.6875z"/><path d="m254.78125 177.96875c29.21155-23.64229 36.43288-43.41885 36.25-57.3125l707.10678119 707.10678119c.18288 13.89365-7.03845 33.67021-36.25 57.3125z"/><path d="m291.03125 120.65625c-.18288-13.89365-7.78125-21.875-7.78125-21.875l707.10678119 707.10678119s7.59837 7.98135 7.78125 21.875z"/><path d="m283.25 98.78125 707.10678119 707.10678119z"/><path d="m318.875 159.71875s-24.73511 6.33101-43.625 19.75l707.10678119 707.10678119c18.88989-13.41899 43.625-19.75 43.625-19.75z"/><path d="m275.25 179.46875c-9.44494 6.70949-17.46268 15.22312-20.125 25.65625l707.10678119 707.10678119c2.66232-10.43313 10.68006-18.94676 20.125-25.65625z"/><path d="m255.125 205.125c-2.64774 10.376.0795 22.58594 11.78125 36.59375l707.10678119 707.10678119c-11.70175-14.00781-14.42899-26.21775-11.78125-36.59375z"/><path d="m266.90625 241.71875.1875.21875 707.10678119 707.10678119-.1875-.21875z"/><path d="m267.09375 241.9375c6.86661 8.05464 5.90462 15.59458 3.25 21.25l707.10678119 707.10678119c2.65462-5.65542 3.61661-13.19536-3.25-21.25z"/><path d="m270.34375 263.1875c-2.62185 5.58561-6.86294 9.19206-6.96875 9.28125l707.10678119 707.10678119c.10581-.08919 4.3469-3.69564 6.96875-9.28125z"/><path d="m263.375 272.46875-.0625.0625 707.10678119 707.10678119.0625-.0625z"/><path d="m263.3125 272.53125.53125.8125 707.10678119 707.10678119-.53125-.8125z"/><path d="m263.84375 273.34375s.09235-.0618.09375-.0625l707.10678119 707.10678119c-.0014.0007-.09375.0625-.09375.0625z"/><path d="m263.9375 273.28125c.15734-.0834 8.93598-4.75788 15.8125-12.40625l707.10678119 707.10678119c-6.87652 7.64837-15.65516 12.32285-15.8125 12.40625z"/><path d="m279.75 260.875c3.46912-3.85851 6.46749-8.45183 7.53125-13.625l707.10678119 707.10678119c-1.06376 5.17317-4.06213 9.76649-7.53125 13.625z"/><path d="m287.28125 247.25c1.06153-5.16232.16965-10.89645-3.96875-16.8125l707.10678119 707.10678119c4.1384 5.91605 5.03028 11.65018 3.96875 16.8125z"/><path d="m283.3125 230.4375c-.00176429-.00280081-.00385688-.00526846-.00613832-.00754991l707.10678119 707.10678119c.00228144.00228144.00437403.0047491.00613832.00754991z"/><path d="m283.30636168 230.42995009c-.00643623-.00643622-.01437551-.01139045-.02068709-.018162l707.10678119 707.10678118c.00631158.00677156.01425086.01172578.02068709.01816201z"/><path d="m283.28567459 230.41178809c-.00159578-.00171208-.00308751-.00354034-.00442459-.00553809l707.10678119 707.10678119c.00133708.00199775.00282881.003826.00442459.00553808z"/><path d="m283.28125 230.40625c-3.72919-5.57831-7.23691-10.45419-9.40625-15.125l707.10678119 707.10678119c2.16934 4.67081 5.67706 9.54669 9.40625 15.125z"/><path d="m273.875 215.28125c-2.17428-4.68143-3.02682-9.13624-1.53125-14.09375l707.10678119 707.10678119c-1.49557 4.95751-.64303 9.41232 1.53125 14.09375z"/><path d="m272.34375 201.1875c2.98678-9.90056 15.60639-21.94667 46.78125-40.5l707.10678119 707.10678119c-31.17486 18.55333-43.79447 30.59944-46.78125 40.5z"/><path d="m319.125 160.6875c.0455-.0271.0794-.0354.125-.0625l707.10678119 707.10678119c-.0456.0271-.0795.0354-.125.0625z"/><path d="m319.25 160.625-.375-.90625 707.10678119 707.10678119.375.90625z"/><path d="m334.5 263.90625c-3.49842-.0036-7.18518.63045-10.96875 2l707.10678119 707.10678119c3.78357-1.36955 7.47033-2.0036 10.96875-2z"/><path d="m323.53125 265.90625c-.01.004-.02125-.004-.03125 0l707.10678119 707.10678119c.01-.004.02125.004.03125 0z"/><path d="m323.5 265.90625c-3.56266 1.07119-5.09375 4.21875-5.09375 4.21875l707.10678119 707.10678119s1.53109-3.14756 5.09375-4.21875z"/><path d="m318.40625 270.125-.65625 1.34375 707.10678119 707.10678119.65625-1.34375z"/><path d="m317.75 271.46875 1.34375-.6875 707.10678119 707.10678119-1.34375.6875z"/><path d="m319.09375 270.78125s1.82966-.95368 6.125-1.9375l707.10678119 707.10678119c-4.29534.98382-6.125 1.9375-6.125 1.9375z"/><path d="m325.21875 268.84375c5.35139093-1.07267533 11.50597042.96279106 15.67728091 5.13410156l707.10678119 707.10678118c-4.1713105-4.17131049-10.32588999-6.20677689-15.67728091-5.13410155z"/><path d="m340.89603091 273.97785156c2.3541193 2.3541193 4.07656385 5.38850881 4.66646909 8.92839844l707.10678119 707.10678119c-.58990525-3.53988964-2.31234979-6.57427914-4.66646909-8.92839845z"/><path d="m345.5625 282.90625c.81759 4.90614-.50135 10.82433-5.40625 17.34375l707.10678119 707.10678119c4.9049-6.51942 6.22384-12.43761 5.40625-17.34375z"/><path d="m340.15625 300.25c-4.9049 6.51942-13.40249 13.60593-26.84375 20.78125l707.10678119 707.10678119c13.44126-7.17532 21.93885-14.26183 26.84375-20.78125z"/><path d="m313.3125 321.03125-.25.15625 707.10678119 707.10678119.25-.15625z"/><path d="m313.0625 321.1875v.125l707.10678119 707.10678119v-.125z"/><path d="m313.0625 321.3125c-.43022.85207-.8125 1.3125-.8125 1.3125l707.10678119 707.10678119s.38228-.46043.8125-1.3125z"/><path d="m312.25 322.625-1.28125 1.28125 707.10678119 707.10678119 1.28125-1.28125z"/><path d="m310.96875 323.90625 1.75-.46875 707.10678119 707.10678119-1.75.46875z"/><path d="m312.71875 323.4375c18.11929-4.85642 30.06792-11.60482 37.25-18.875l707.10678119 707.10678119c-7.18208 7.27018-19.13071 14.01858-37.25 18.875z"/><path d="m349.96875 304.5625c7.18208-7.27018 9.58109-15.06615 8.5625-21.875l707.10678119 707.10678119c1.01859 6.80885-1.38042 14.60482-8.5625 21.875z"/><path d="m358.53125 282.6875c-.66634562-4.45437201-2.78970485-8.46763878-5.95264148-11.63057541l707.10678118 707.10678119c3.16293664 3.16293663 5.28629587 7.1762034 5.95264149 11.63057541z"/><path d="m352.57860852 271.05692459c-4.08924746-4.08924746-9.91614624-6.75716999-16.57860852-7.11942459l707.10678119 707.10678119c6.66246228.36225459 12.48936106 3.03017713 16.57860851 7.11942459z"/><path d="m336 263.9375c-.4912-.02671-1.00023-.03074-1.5-.03125l707.10678119 707.10678119c.49977.00051 1.0088.00454 1.5.03125z"/><path d="m216.03125 266.8125c-7.04428.16401-23.50788 1.6807-42.375 11.03125l707.10678119 707.10678119c18.86712-9.35055 35.33072-10.86724 42.375-11.03125z"/><path d="m173.65625 277.84375c-1.86566.94577-3.21552 1.85846-4.125 2.78125l707.10678119 707.10678119c.90948-.92279 2.25934-1.83548 4.125-2.78125z"/><path d="m169.53125 280.625c-.90948.92279-1.37262 1.87599-1.3125 2.84375l707.10678119 707.10678119c-.06012-.96776.40302-1.92096 1.3125-2.84375z"/><path d="m168.21875 283.46875c.04952407.79746119.45190866 1.52700661 1.10823954 2.18333748l707.10678118 707.10678119c-.65633087-.65633087-1.05871546-1.38587629-1.10823953-2.18333748z"/><path d="m169.32698954 285.65208748c.14016026.14016026.29190151.27698164.45426046.41041252l707.10678119 707.10678119c-.16235895-.13343089-.31410021-.27025226-.45426047-.41041252z"/><path d="m169.78125 286.0625c.92264.75825 2.20194 1.46327 3.8125 2.09375l707.10678119 707.10678119c-1.61056-.63048-2.88986-1.3355-3.8125-2.09375z"/><path d="m173.59375 288.15625c6.44223 2.52194 18.1784 4.2545 32.53125 5.09375l707.10678119 707.10678119c-14.35285-.83925-26.08902-2.57181-32.53125-5.09375z"/><path d="m206.125 293.25c28.7057 1.67849 67.73798-.30685 94.5625-7.53125l707.10678119 707.10678119c-26.82452 7.2244-65.8568 9.20974-94.5625 7.53125z"/><path d="m300.6875 285.71875.0625-.03125 707.10678119 707.10678119-.0625.03125z"/><path d="m300.75 285.6875.0625-.03125 707.10678119 707.10678119-.0625.03125z"/><path d="m300.8125 285.65625c5.18786-3.4037 12.695-6.80772 12.84375-6.875l707.10678119 707.10678119c-.14875.06728-7.65589 3.4713-12.84375 6.875z"/><path d="m313.65625 278.78125c.001-.00067.09375-.03125.09375-.03125l707.10678119 707.10678119s-.09275.03058-.09375.03125z"/><path d="m313.75 278.75-.28125-.96875 707.10678119 707.10678119.28125.96875z"/><path d="m313.46875 277.78125s-.12405.03105-.125.03125l707.10678119 707.10678119c.00095-.0002.125-.03125.125-.03125z"/><path d="m313.34375 277.8125c-.20126.0368-21.62593 3.96277-43.15625 5.9375l707.10678119 707.10678119c21.53032-1.97473 42.95499-5.9007 43.15625-5.9375z"/><path d="m270.1875 283.75c-.0105.00096-.02075-.00096-.03125 0l707.10678119 707.10678119c.0105-.00096.02075.00096.03125 0z"/><path d="m270.15625 283.75c-26.45955 1.98255-54.87458 2.4713-69.21875.5l707.10678119 707.10678119c14.34417 1.9713 42.7592 1.48255 69.21875-.5z"/><path d="m200.9375 284.25c-4.19015-.55535-7.03918-1.25438-8.75-2l707.10678119 707.10678119c1.71082.74562 4.55985 1.44465 8.75 2z"/><path d="m192.1875 282.25c-.79070594-.34461028-1.34170739-.71308506-1.67305763-1.04443529l707.10678119 707.10678119c.33135023.33135023.88235169.69982501 1.67305763 1.04443529z"/><path d="m190.51444237 281.20556471c-.02711464-.02711464-.05275843-.05398068-.07694237-.08056471l707.10678119 707.10678119c.02418394.02658402.04982773.05345007.07694237.08056471z"/><path d="m190.4375 281.125c-.31972-.35145-.40609-.62095-.375-.9375l707.10678119 707.10678119c-.03109.31655.05528.58605.375.9375z"/><path d="m190.0625 280.1875c.0622-.6331.83602-1.55757 2.21875-2.5l707.10678119 707.10678119c-1.38273.94243-2.15655 1.8669-2.21875 2.5z"/><path d="m192.28125 277.6875c1.38273-.94243 3.32098-1.90467 5.53125-2.84375l707.10678119 707.10678119c-2.21027.93908-4.14852 1.90132-5.53125 2.84375z"/><path d="m197.8125 274.84375c8.75254-3.71869 21.52294-6.90497 21.78125-6.96875l707.10678119 707.10678119c-.25831.06378-13.02871 3.25006-21.78125 6.96875z"/><path d="m219.59375 267.875c.00099-.00024.0619.00015.0625 0l707.10678119 707.10678119c-.0006.00015-.06151-.00024-.0625 0z"/><path d="m219.65625 267.875.03125-.03125 707.10678119 707.10678119-.03125.03125z"/><path d="m219.6875 267.84375c.00038-.00009.0625 0 .0625 0l707.10678119 707.10678119s-.06212-.00009-.0625 0z"/><path d="m219.75 267.84375 707.10678119 707.10678119z"/><path d="m219.75 267.84375-.0625-.96875 707.10678119 707.10678119.0625.96875z"/><path d="m219.6875 266.875s-.09205.00012-.09375 0l707.10678119 707.10678119c.0017.00012.09375 0 .09375 0z"/><path d="m219.59375 266.875c-.001-.00008-.0606.00013-.0625 0l707.10678119 707.10678119c.0019.00013.0615-.00008.0625 0z"/><path d="m219.53125 266.875c-.10616-.007-1.25222-.11483-3.5-.0625l707.10678119 707.10678119c2.24778-.05233 3.39384.0555 3.5.0625z"/><path d="m207.03125 300.625-.0625.03125 707.10678119 707.10678119.0625-.03125z"/><path d="m206.96875 300.65625h-.03125l707.10678119 707.10678119h.03125z"/><path d="m206.9375 300.65625-.09375.03125 707.10678119 707.10678119.09375-.03125z"/><path d="m206.84375 300.6875v.03125l707.10678119 707.10678119v-.03125z"/><path d="m206.84375 300.71875c-.0105.004-.02075-.004-.03125 0l707.10678119 707.10678119c.0105-.004.02075.004.03125 0z"/><path d="m206.8125 300.71875c-6.01312 2.10063-10.15615 4.23461-12.65625 6.375l707.10678119 707.10678119c2.5001-2.14039 6.64313-4.27437 12.65625-6.375z"/><path d="m194.15625 307.09375c-1.26273 1.08105-2.14451 2.17128-2.59375 3.28125l707.10678119 707.10678119c.44924-1.10997 1.33102-2.2002 2.59375-3.28125z"/><path d="m191.5625 310.375c-.44924 1.10997-.4707 2.21917-.09375 3.28125l707.10678119 707.10678119c-.37695-1.06208-.35549-2.17128.09375-3.28125z"/><path d="m191.46875 313.65625c.30592346.86207268.85398668 1.67346981 1.62017486 2.43965798l707.10678118 707.10678119c-.76618817-.76618818-1.31425139-1.57758531-1.62017485-2.43965798z"/><path d="m193.08892486 316.09590798c1.12171097 1.12171098 2.71093788 2.14652381 4.69232514 3.09159202l707.10678119 707.10678119c-1.98138726-.94506822-3.57061417-1.96988104-4.69232515-3.09159202z"/><path d="m197.78125 319.1875c3.33478 1.5906 7.83313 2.97078 13.21875 4.03125l707.10678119 707.10678119c-5.38562-1.06047-9.88397-2.44065-13.21875-4.03125z"/><path d="m211 323.21875c21.54249 4.24187 57.58136 3.73458 91.625-6.71875l707.10678119 707.10678119c-34.04364 10.45333-70.08251 10.96062-91.625 6.71875z"/><path d="m302.625 316.5 1.46875-.46875 707.10678119 707.10678119-1.46875.46875z"/><path d="m304.09375 316.03125-1.46875-.5 707.10678119 707.10678119 1.46875.5z"/><path d="m302.625 315.53125c-5.65467438-1.94333336-9.50666468-5.42004954-10.83338706-6.74677192l707.10678118 707.10678118c1.32672238 1.32672238 5.17871268 4.80343857 10.83338707 6.74677193z"/><path d="m291.79161294 308.78447808c-.33631841-.33631841-.51036294-.53447808-.51036294-.53447808l707.10678119 707.10678119s.17404452.19815966.51036293.53447807z"/><path d="m291.28125 308.25-.1875-.21875 707.10678119 707.10678119.1875.21875z"/><path d="m291.09375 308.03125-.28125.0625 707.10678119 707.10678119.28125-.0625z"/><path d="m290.8125 308.09375c-33.18797 6.94139-52.36312 6.41815-76.90625 3.9375l707.10678119 707.10678119c24.54313 2.48065 43.71828 3.00389 76.90625-3.9375z"/><path d="m213.90625 312.03125c-4.64898-.49147-7.33442-1.43513-8.71875-2.5l707.10678119 707.10678119c1.38433 1.06487 4.06977 2.00853 8.71875 2.5z"/><path d="m205.1875 309.53125c-.18490113-.14223174-.34797977-.28482011-.49106277-.42790312l707.10678118 707.10678119c.14308301.14308301.30616165.28567137.49106278.42790312z"/><path d="m204.69643723 309.10334688c-.92816032-.92816031-1.01491613-1.87713485-.75893723-2.88459688l707.10678119 707.10678119c-.2559789 1.00746202-.16922309 1.95643656.75893722 2.88459688z"/><path d="m203.9375 306.21875c.29544-1.16277 1.16219-2.36619 1.96875-3.25l707.10678119 707.10678119c-.80656.88381-1.67331 2.08723-1.96875 3.25z"/><path d="m205.90625 302.96875c.78119-.85601 1.42547-1.40334 1.46875-1.4375l707.10678119 707.10678119c-.04328.03416-.68756.58149-1.46875 1.4375z"/><path d="m207.375 301.53125c.00047-.00037.03085.00025.03125 0l707.10678119 707.10678119c-.0004.00025-.03078-.00037-.03125 0z"/><path d="m207.40625 301.53125c.00062-.00049.03125-.03125.03125-.03125l707.10678119 707.10678119s-.03063.03076-.03125.03125z"/><path d="m207.4375 301.5-.25-.28125 707.10678119 707.10678119.25.28125z"/><path d="m207.1875 301.21875v-.03125l707.10678119 707.10678119v.03125z"/><path d="m207.1875 301.1875-.15625-.5625 707.10678119 707.10678119.15625.5625z"/><path d="m215.25 332.25-1.0625.65625 707.10678119 707.10678119 1.0625-.65625z"/><path d="m214.1875 332.90625-.125.0625 707.10678119 707.10678119.125-.0625z"/><path d="m214.0625 332.96875c-5.4761 1.61128-9.25004 3.4089-11.5 5.375l707.10678119 707.10678119c2.24996-1.9661 6.0239-3.76372 11.5-5.375z"/><path d="m202.5625 338.34375c-2.27539 1.98833-3.01217 4.2691-2.28125 6.40625l707.10678119 707.10678119c-.73092-2.13715.00586-4.41792 2.28125-6.40625z"/><path d="m200.28125 344.75c.35767961 1.04582579 1.0321595 2.04416255 1.98619819 2.99820124l707.10678119 707.10678118c-.95403869-.95403868-1.62851858-1.95237544-1.98619819-2.99820123z"/><path d="m202.26744819 347.74820124c.99554393.99554392 2.29550005 1.94285158 3.85755181 2.84554876l707.10678119 707.10678119c-1.56205177-.90269719-2.86200789-1.85000484-3.85755181-2.84554877z"/><path d="m206.125 350.59375c3.05898 1.76776 7.1375 3.34456 12 4.625l707.10678119 707.10678119c-4.8625-1.28044-8.94102-2.85724-12-4.625z"/><path d="m218.125 355.21875c19.45001 5.12177 51.44519 5.50052 79.75-6.96875l707.10678119 707.10678119c-28.30481 12.46927-60.29999 12.09052-79.75 6.96875z"/><path d="m297.875 348.25 1.09375-.5 707.10678119 707.10678119-1.09375.5z"/><path d="m298.96875 347.75-1.125-.4375 707.10678119 707.10678119 1.125.4375z"/><path d="m297.84375 347.3125c-9.09345-3.45386-15.8125-7.875-15.8125-7.875l707.10678119 707.10678119s6.71905 4.42114 15.8125 7.875z"/><path d="m282.03125 339.4375-.15625-.125 707.10678119 707.10678119.15625.125z"/><path d="m281.875 339.3125-.21875.03125 707.10678119 707.10678119.21875-.03125z"/><path d="m281.65625 339.34375c-25.01987 4.96013-36.92572 5.47471-59.53125 2.5l707.10678119 707.10678119c22.60553 2.97471 34.51138 2.46013 59.53125-2.5z"/><path d="m222.125 341.84375h-.03125l707.10678119 707.10678119h.03125z"/><path d="m222.09375 341.84375c-4.66025-.49271-7.41589-1.32196-8.90625-2.1875l707.10678119 707.10678119c1.49036.86554 4.246 1.69479 8.90625 2.1875z"/><path d="m213.1875 339.65625c-.41980908-.2438079-.73564723-.48294396-.9693694-.71666613l707.10678118 707.10678118c.23372218.23372218.54956033.47285823.96936941.71666614z"/><path d="m212.2181306 338.93958387c-.1811452-.1811452-.31296377-.35903831-.4056306-.53333387l707.10678119 707.10678119c.09266683.17429556.22448539.35218867.40563059.53333386z"/><path d="m211.8125 338.40625c-.21223-.39918-.2416-.78533-.15625-1.1875l707.10678119 707.10678119c-.08535.40217-.05598.78832.15625 1.1875z"/><path d="m211.65625 337.21875c.1707-.80434.88461-1.69397 1.59375-2.34375l707.10678119 707.10678119c-.70914.64978-1.42305 1.53941-1.59375 2.34375z"/><path d="m213.25 334.875c.69125-.63339 1.31186-1.01108 1.34375-1.03125l707.10678119 707.10678119c-.03189.02017-.6525.39786-1.34375 1.03125z"/><path d="m214.59375 333.84375c.00083-.00052.03125-.03125.03125-.03125l707.10678119 707.10678119s-.03042.03073-.03125.03125z"/><path d="m214.625 333.8125.125-.03125 707.10678119 707.10678119-.125.03125z"/><path d="m214.75 333.78125.0625-.25 707.10678119 707.10678119-.0625.25z"/><path d="m214.8125 333.53125.4375-1.28125 707.10678119 707.10678119-.4375 1.28125z"/><path d="m185.46875 354.65625c-2.74244-.0831-5.96316.26537-9.375.90625l707.10678119 707.10678119c3.41184-.64088 6.63256-.98935 9.375-.90625z"/><path d="m176.09375 355.5625c-6.82368 1.28175-14.42296 3.80735-20.375 6.8125l707.10678119 707.10678119c5.95204-3.00515 13.55132-5.53075 20.375-6.8125z"/><path d="m155.71875 362.375c-2.97602 1.50258-5.5386 3.11114-7.40625 4.78125l707.10678119 707.10678119c1.86765-1.67011 4.43023-3.27867 7.40625-4.78125z"/><path d="m148.3125 367.15625c-1.86765 1.67011-3.07056 3.40438-3.15625 5.1875l707.10678119 707.10678119c.08569-1.78312 1.2886-3.51739 3.15625-5.1875z"/><path d="m145.15625 372.34375c-.05719346 1.18999771.42533396 2.32640724 1.45587208 3.35694536l707.10678119 707.10678119c-1.03053812-1.03053812-1.51306554-2.16694766-1.45587208-3.35694536z"/><path d="m146.61212208 375.70069536c.51364397.51364397 1.16342779 1.00098677 1.95037792 1.45555464l707.10678119 707.10678119c-.78695013-.45456788-1.43673396-.94191068-1.95037792-1.45555464z"/><path d="m148.5625 377.15625c2.36583 1.36658 6.01068 2.53192 11.28125 3.40625l707.10678119 707.10678119c-5.27057-.87433-8.91542-2.03967-11.28125-3.40625z"/><path d="m159.84375 380.5625c57.61327 9.69137 110.15034 7.56166 144.59375 1.28125l707.10678119 707.10678119c-34.44341 6.28041-86.98048 8.41012-144.59375-1.28125z"/><path d="m304.4375 381.84375c17.22171-3.1402 29.91392-7.28501 36.53125-11.625l707.10678119 707.10678119c-6.61733 4.33999-19.30954 8.4848-36.53125 11.625z"/><path d="m340.96875 370.21875c3.30866-2.17 5.16956-4.41373 5.125-6.75l707.10678119 707.10678119c.04456 2.33627-1.81634 4.58-5.125 6.75z"/><path d="m346.09375 363.46875c-.0223-1.16814-.55115-2.31567-1.53125-3.34375l707.10678119 707.10678119c.9801 1.02808 1.50895 2.17561 1.53125 3.34375z"/><path d="m344.5625 360.125c-.04083493-.04283371-.08253196-.0855268-.12508588-.12808072l707.10678119 707.10678119c.04255392.04255392.08425095.085247.12508588.12808072z"/><path d="m344.43741412 359.99691928c-.94806269-.94806269-2.32144763-1.82704976-4.06241412-2.65316928l707.10678119 707.10678119c1.74096648.82611951 3.11435142 1.70510658 4.06241412 2.65316928z"/><path d="m340.375 357.34375-.0625-.0625 707.10678119 707.10678119.0625.0625z"/><path d="m340.3125 357.28125c-.0253-.0119-.037-.01935-.0625-.03125l707.10678119 707.10678119c.0255.0119.0372.01935.0625.03125z"/><path d="m340.25 357.25-.71875-.625 707.10678119 707.10678119.71875.625z"/><path d="m339.53125 356.625v1.09375l707.10678119 707.10678119v-1.09375z"/><path d="m339.53125 357.71875h.4375l707.10678119 707.10678119h-.4375z"/><path d="m339.96875 357.71875-.03125.125 707.10678119 707.10678119.03125-.125z"/><path d="m339.9375 357.84375-.21875.25 707.10678119 707.10678119.21875-.25z"/><path d="m339.71875 358.09375s.05548269.04850356.14671447.13973534l707.10678119 707.10678118c-.09123178-.09123178-.14671447-.13973533-.14671447-.13973533z"/><path d="m339.86546447 358.23348534c.43641383.43641383 1.69085851 1.85055899 1.60328553 3.61026466l707.10678119 707.10678119c.08757297-1.75970568-1.1668717-3.17385084-1.60328553-3.61026467z"/><path d="m341.46875 361.84375c-.0529 1.06378-.56237 2.30189-2.15625 3.65625l707.10678119 707.10678119c1.59388-1.35436 2.10335-2.59247 2.15625-3.65625z"/><path d="m339.3125 365.5c-1.59388 1.35436-4.26767 2.80353-8.5625 4.15625l707.10678119 707.10678119c4.29483-1.35272 6.96862-2.80189 8.5625-4.15625z"/><path d="m330.75 369.65625c-16.00412 4.92468-49.86736 8.15926-83.25 8.53125l707.10678119 707.10678119c33.38264-.37199 67.24588-3.60657 83.25-8.53125z"/><path d="m247.5 378.1875c-16.69132.186-33.26423-.34042-47.46875-1.71875l707.10678119 707.10678119c14.20452 1.37833 30.77743 1.90475 47.46875 1.71875z"/><path d="m200.03125 376.46875c-14.20452-1.37833-26.04052-3.60243-33.15625-6.78125l707.10678119 707.10678119c7.11573 3.17882 18.95173 5.40292 33.15625 6.78125z"/><path d="m166.875 369.6875c-.94525089-.41756406-1.58908154-.85231939-1.99199193-1.25522978l707.10678119 707.10678118c.40291039.4029104 1.04674103.83766573 1.99199193 1.25522979z"/><path d="m164.88300807 368.43227022c-.11586209-.11586209-.2118019-.22909085-.28925807-.33852022l707.10678119 707.10678119c.07745617.10942937.17339598.22265812.28925807.33852021z"/><path d="m164.59375 368.09375c-.34681-.48997-.37937-.90874-.1875-1.40625l707.10678119 707.10678119c-.19187.49751-.15931.91628.1875 1.40625z"/><path d="m164.40625 366.6875c.38373-.99503 1.93551-2.24829 4.0625-3.375l707.10678119 707.10678119c-2.12699 1.12671-3.67877 2.37997-4.0625 3.375z"/><path d="m168.46875 363.3125c4.25398-2.25342 10.64434-4.11116 13.6875-4.59375l707.10678119 707.10678119c-3.04316.48259-9.43352 2.34033-13.6875 4.59375z"/><path d="m182.15625 358.71875h.03125l707.10678119 707.10678119h-.03125z"/><path d="m182.1875 358.71875v-.03125l707.10678119 707.10678119v.03125z"/><path d="m182.1875 358.6875c6.22164-1.47987 9.53125-1.46875 9.53125-1.46875l707.10678119 707.10678119s-3.30961-.01112-9.53125 1.46875z"/><path d="m191.71875 357.21875h1.5625l707.10678119 707.10678119h-1.5625z"/><path d="m193.28125 357.21875-1.28125-.90625 707.10678119 707.10678119 1.28125.90625z"/><path d="m192 356.3125c-1.52428-1.09316-3.78881-1.5732-6.53125-1.65625l707.10678119 707.10678119c2.74244.08305 5.00697.56309 6.53125 1.65625z"/><path d="m357.875 372.4375s-.16195.49478-1.09375 1.5l707.10678119 707.10678119c.9318-1.00522 1.09375-1.5 1.09375-1.5z"/><path d="m356.78125 373.9375c-.9318 1.00522-2.61555 2.43905-5.5 4.125l707.10678119 707.10678119c2.88445-1.68595 4.5682-3.11978 5.5-4.125z"/><path d="m351.28125 378.0625c-5.76891 3.3719-16.43856 7.72131-35.90625 11.4375l707.10678119 707.10678119c19.46769-3.71619 30.13734-8.0656 35.90625-11.4375z"/><path d="m315.375 389.5c-44.22601 8.42452-99.10053 7.41608-131.28125 1.96875l707.10678119 707.10678119c32.18072 5.44733 87.05524 6.45577 131.28125-1.96875z"/><path d="m184.09375 391.46875-1.71875-.28125 707.10678119 707.10678119 1.71875.28125z"/><path d="m182.375 391.1875 1.3125 1.15625 707.10678119 707.10678119-1.3125-1.15625z"/><path d="m183.6875 392.34375s.48875.42533 1.6875 1.03125l707.10678119 707.10678119c-1.19875-.60592-1.6875-1.03125-1.6875-1.03125z"/><path d="m185.375 393.375c1.19875.60592 3.12039 1.43648 6.125 2.3125l707.10678119 707.10678119c-3.00461-.87602-4.92625-1.70658-6.125-2.3125z"/><path d="m191.5 395.6875c6.00117 1.7497 16.26103 3.72294 33.34375 4.71875l707.10678119 707.10678119c-17.08272-.99581-27.34258-2.96905-33.34375-4.71875z"/><path d="m224.84375 400.40625c.0115.00067.01975-.00067.03125 0l707.10678119 707.10678119c-.0115-.00067-.01975.00067-.03125 0z"/><path d="m224.875 400.40625c.0115.00067.01975-.00067.03125 0l707.10678119 707.10678119c-.0115-.00067-.01975.00067-.03125 0z"/><path d="m224.90625 400.40625c26.04102 1.74 58.93044 1.26051 85.59375-2.84375l707.10678119 707.10678119c-26.66331 4.10426-59.55273 4.58375-85.59375 2.84375z"/><path d="m310.5 397.5625c13.33166-2.05213 25.11075-5.00918 33.71875-9.0625l707.10678119 707.10678119c-8.608 4.05332-20.38709 7.01037-33.71875 9.0625z"/><path d="m344.21875 388.5c8.55096-4.02645 14.02945-9.19286 14.59375-15.71875l707.10678119 707.10678119c-.5643 6.52589-6.04279 11.6923-14.59375 15.71875z"/><path d="m358.8125 372.78125c.004-.0435.02785-.0813.03125-.125l707.10678119 707.10678119c-.0034.0437-.02725.0815-.03125.125z"/><path d="m358.84375 372.65625-.96875-.21875 707.10678119 707.10678119.96875.21875z"/></g><path d="m283.25 98.78125-.375.34375h-.5v.0625.15625l.0625.03125c2.94744 12.13735 1.78965 22.11704-1.875 30.78125-3.67796 8.69567-9.89858 16.07396-17.15625 22.90625-14.51534 13.66458-33.09654 25.09005-43.0625 40.625-6.84688 10.58781-5.23516 21.64718 1.5 33.09375s18.54536 23.39372 32.28125 36.0625l.8125-.5625c-.0285-.0668-.0961-.12077-.125-.1875-5.39516-12.47541-16.90793-24.07942-21.34375-37.1875-2.22977-6.5891-2.69342-13.54953.28125-21.25s9.39477-16.16535 21.03125-25.6875c29.21155-23.64229 36.43288-43.41885 36.25-57.3125s-7.78125-21.875-7.78125-21.875zm35.625 60.9375s-24.73511 6.33101-43.625 19.75c-9.44494 6.70949-17.46268 15.22312-20.125 25.65625-2.64774 10.376.0795 22.58594 11.78125 36.59375l.1875.21875c6.86661 8.05464 5.90462 15.59458 3.25 21.25-2.62185 5.58561-6.86294 9.19206-6.96875 9.28125l-.0625.0625.53125.8125s.09235-.0618.09375-.0625c.15734-.0834 8.93598-4.75788 15.8125-12.40625 3.46912-3.85851 6.46749-8.45183 7.53125-13.625 1.06153-5.16232.16965-10.89645-3.96875-16.8125-.008-.0127-.02275-.01855-.03125-.03125-3.72919-5.57831-7.23691-10.45419-9.40625-15.125-2.17428-4.68143-3.02682-9.13624-1.53125-14.09375 2.98678-9.90056 15.60639-21.94667 46.78125-40.5.0455-.0271.0794-.0354.125-.0625zm15.625 104.1875c-3.49842-.0036-7.18518.63045-10.96875 2-.01.004-.02125-.004-.03125 0-3.56266 1.07119-5.09375 4.21875-5.09375 4.21875l-.65625 1.34375 1.34375-.6875s1.82966-.95368 6.125-1.9375c8.3715-1.67805 18.70858 4.25021 20.34375 14.0625.81759 4.90614-.50135 10.82433-5.40625 17.34375s-13.40249 13.60593-26.84375 20.78125l-.25.15625v.125c-.43022.85207-.8125 1.3125-.8125 1.3125l-1.28125 1.28125 1.75-.46875c18.11929-4.85642 30.06792-11.60482 37.25-18.875s9.58109-15.06615 8.5625-21.875c-1.52784-10.21327-10.71553-18.10755-22.53125-18.75-.4912-.02671-1.00023-.03074-1.5-.03125zm-118.46875 2.90625c-7.04428.16401-23.50788 1.6807-42.375 11.03125-1.86566.94577-3.21552 1.85846-4.125 2.78125s-1.37262 1.87599-1.3125 2.84375c.0601.96776.63986 1.8355 1.5625 2.59375s2.20194 1.46327 3.8125 2.09375c6.44223 2.52194 18.1784 4.2545 32.53125 5.09375 28.7057 1.67849 67.73798-.30685 94.5625-7.53125l.0625-.03125.0625-.03125c5.18786-3.4037 12.695-6.80772 12.84375-6.875.001-.00067.09375-.03125.09375-.03125l-.28125-.96875s-.12405.03105-.125.03125c-.20126.0368-21.62593 3.96277-43.15625 5.9375-.0105.00096-.02075-.00096-.03125 0-26.45955 1.98255-54.87458 2.4713-69.21875.5-4.19015-.55535-7.03918-1.25438-8.75-2-.85541-.37281-1.43028-.77355-1.75-1.125s-.40609-.62095-.375-.9375c.0622-.6331.83602-1.55757 2.21875-2.5s3.32098-1.90467 5.53125-2.84375c8.75254-3.71869 21.52294-6.90497 21.78125-6.96875.00099-.00024.0619.00015.0625 0l.03125-.03125c.00038-.00009.0625 0 .0625 0l-.0625-.96875s-.09205.00012-.09375 0c-.001-.00008-.0606.00013-.0625 0-.10616-.007-1.25222-.11483-3.5-.0625zm-9 33.8125-.0625.03125h-.03125l-.09375.03125v.03125c-.0105.004-.02075-.004-.03125 0-6.01312 2.10063-10.15615 4.23461-12.65625 6.375-1.26273 1.08105-2.14451 2.17128-2.59375 3.28125s-.4707 2.21917-.09375 3.28125c.7538 2.12416 2.97772 3.94065 6.3125 5.53125s7.83313 2.97078 13.21875 4.03125c21.54249 4.24187 57.58136 3.73458 91.625-6.71875l1.46875-.46875-1.46875-.5c-7.08811-2.43596-11.34375-7.28125-11.34375-7.28125l-.1875-.21875-.28125.0625c-33.18797 6.94139-52.36312 6.41815-76.90625 3.9375-4.64898-.49147-7.33442-1.43513-8.71875-2.5s-1.54544-2.14973-1.25-3.3125 1.16219-2.36619 1.96875-3.25c.78119-.85601 1.42547-1.40334 1.46875-1.4375.00047-.00037.03085.00025.03125 0 .00062-.00049.03125-.03125.03125-.03125l-.25-.28125v-.03125zm8.21875 31.625-1.0625.65625-.125.0625c-5.4761 1.61128-9.25004 3.4089-11.5 5.375-2.27539 1.98833-3.01217 4.2691-2.28125 6.40625s2.78477 4.07599 5.84375 5.84375 7.1375 3.34456 12 4.625c19.45001 5.12177 51.44519 5.50052 79.75-6.96875l1.09375-.5-1.125-.4375c-9.09345-3.45386-15.8125-7.875-15.8125-7.875l-.15625-.125-.21875.03125c-25.01987 4.96013-36.92572 5.47471-59.53125 2.5h-.03125c-4.66025-.49271-7.41589-1.32196-8.90625-2.1875-.74518-.43277-1.16277-.85082-1.375-1.25s-.2416-.78533-.15625-1.1875c.1707-.80434.88461-1.69397 1.59375-2.34375.69125-.63339 1.31186-1.01108 1.34375-1.03125.00083-.00052.03125-.03125.03125-.03125l.125-.03125.0625-.25zm-29.78125 22.40625c-2.74244-.0831-5.96316.26537-9.375.90625-6.82368 1.28175-14.42296 3.80735-20.375 6.8125-2.97602 1.50258-5.5386 3.11114-7.40625 4.78125s-3.07056 3.40438-3.15625 5.1875c-.0857 1.78312 1.04042 3.44592 3.40625 4.8125s6.01068 2.53192 11.28125 3.40625c57.61327 9.69137 110.15034 7.56166 144.59375 1.28125 17.22171-3.1402 29.91392-7.28501 36.53125-11.625 3.30866-2.17 5.16956-4.41373 5.125-6.75-.0223-1.16814-.55115-2.31567-1.53125-3.34375-.9506-.99713-2.36839-1.91805-4.1875-2.78125l-.0625-.0625c-.0253-.0119-.037-.01935-.0625-.03125l-.71875-.625v1.09375h.4375l-.03125.125-.21875.25s1.85588 1.62243 1.75 3.75c-.0529 1.06378-.56237 2.30189-2.15625 3.65625s-4.26767 2.80353-8.5625 4.15625c-16.00412 4.92468-49.86736 8.15926-83.25 8.53125-16.69132.186-33.26423-.34042-47.46875-1.71875s-26.04052-3.60243-33.15625-6.78125c-1.21707-.53764-1.93444-1.10378-2.28125-1.59375s-.37937-.90874-.1875-1.40625c.38373-.99503 1.93551-2.24829 4.0625-3.375 4.25398-2.25342 10.64434-4.11116 13.6875-4.59375h.03125v-.03125c6.22164-1.47987 9.53125-1.46875 9.53125-1.46875h1.5625l-1.28125-.90625c-1.52428-1.09316-3.78881-1.5732-6.53125-1.65625zm172.40625 17.78125s-.16195.49478-1.09375 1.5-2.61555 2.43905-5.5 4.125c-5.76891 3.3719-16.43856 7.72131-35.90625 11.4375-44.22601 8.42452-99.10053 7.41608-131.28125 1.96875l-1.71875-.28125 1.3125 1.15625s.48875.42533 1.6875 1.03125 3.12039 1.43648 6.125 2.3125c6.00117 1.7497 16.26103 3.72294 33.34375 4.71875.0115.00067.01975-.00067.03125 0s.01975-.00067.03125 0c26.04102 1.74 58.93044 1.26051 85.59375-2.84375 13.33166-2.05213 25.11075-5.00918 33.71875-9.0625 8.55096-4.02645 14.02945-9.19286 14.59375-15.71875.004-.0435.02785-.0813.03125-.125z"/></g><path d="m643 152.5a103.5 103.5 0 1 1 -207 0 103.5 103.5 0 1 1 207 0z" fill="url(#b)" fill-rule="evenodd" transform="matrix(2.1304347 0 0 2.1304347 -892.86953 -62.391327)"/><path d="m283.25 98.78125-.375.34375h-.5v.0625.15625l.0625.03125c2.94744 12.13735 1.78965 22.11704-1.875 30.78125-3.67796 8.69567-9.89858 16.07396-17.15625 22.90625-14.51534 13.66458-33.09654 25.09005-43.0625 40.625-6.84688 10.58781-5.23516 21.64718 1.5 33.09375s18.54536 23.39372 32.28125 36.0625l.8125-.5625c-.0285-.0668-.0961-.12077-.125-.1875-5.39516-12.47541-16.90793-24.07942-21.34375-37.1875-2.22977-6.5891-2.69342-13.54953.28125-21.25s9.39477-16.16535 21.03125-25.6875c29.21155-23.64229 36.43288-43.41885 36.25-57.3125s-7.78125-21.875-7.78125-21.875zm35.625 60.9375s-24.73511 6.33101-43.625 19.75c-9.44494 6.70949-17.46268 15.22312-20.125 25.65625-2.64774 10.376.0795 22.58594 11.78125 36.59375l.1875.21875c6.86661 8.05464 5.90462 15.59458 3.25 21.25-2.62185 5.58561-6.86294 9.19206-6.96875 9.28125l-.0625.0625.53125.8125s.09235-.0618.09375-.0625c.15734-.0834 8.93598-4.75788 15.8125-12.40625 3.46912-3.85851 6.46749-8.45183 7.53125-13.625 1.06153-5.16232.16965-10.89645-3.96875-16.8125-.008-.0127-.02275-.01855-.03125-.03125-3.72919-5.57831-7.23691-10.45419-9.40625-15.125-2.17428-4.68143-3.02682-9.13624-1.53125-14.09375 2.98678-9.90056 15.60639-21.94667 46.78125-40.5.0455-.0271.0794-.0354.125-.0625zm15.625 104.1875c-3.49842-.0036-7.18518.63045-10.96875 2-.01.004-.02125-.004-.03125 0-3.56266 1.07119-5.09375 4.21875-5.09375 4.21875l-.65625 1.34375 1.34375-.6875s1.82966-.95368 6.125-1.9375c8.3715-1.67805 18.70858 4.25021 20.34375 14.0625.81759 4.90614-.50135 10.82433-5.40625 17.34375s-13.40249 13.60593-26.84375 20.78125l-.25.15625v.125c-.43022.85207-.8125 1.3125-.8125 1.3125l-1.28125 1.28125 1.75-.46875c18.11929-4.85642 30.06792-11.60482 37.25-18.875s9.58109-15.06615 8.5625-21.875c-1.52784-10.21327-10.71553-18.10755-22.53125-18.75-.4912-.02671-1.00023-.03074-1.5-.03125zm-118.46875 2.90625c-7.04428.16401-23.50788 1.6807-42.375 11.03125-1.86566.94577-3.21552 1.85846-4.125 2.78125s-1.37262 1.87599-1.3125 2.84375c.0601.96776.63986 1.8355 1.5625 2.59375s2.20194 1.46327 3.8125 2.09375c6.44223 2.52194 18.1784 4.2545 32.53125 5.09375 28.7057 1.67849 67.73798-.30685 94.5625-7.53125l.0625-.03125.0625-.03125c5.18786-3.4037 12.695-6.80772 12.84375-6.875.001-.00067.09375-.03125.09375-.03125l-.28125-.96875s-.12405.03105-.125.03125c-.20126.0368-21.62593 3.96277-43.15625 5.9375-.0105.00096-.02075-.00096-.03125 0-26.45955 1.98255-54.87458 2.4713-69.21875.5-4.19015-.55535-7.03918-1.25438-8.75-2-.85541-.37281-1.43028-.77355-1.75-1.125s-.40609-.62095-.375-.9375c.0622-.6331.83602-1.55757 2.21875-2.5s3.32098-1.90467 5.53125-2.84375c8.75254-3.71869 21.52294-6.90497 21.78125-6.96875.00099-.00024.0619.00015.0625 0l.03125-.03125c.00038-.00009.0625 0 .0625 0l-.0625-.96875s-.09205.00012-.09375 0c-.001-.00008-.0606.00013-.0625 0-.10616-.007-1.25222-.11483-3.5-.0625zm-9 33.8125-.0625.03125h-.03125l-.09375.03125v.03125c-.0105.004-.02075-.004-.03125 0-6.01312 2.10063-10.15615 4.23461-12.65625 6.375-1.26273 1.08105-2.14451 2.17128-2.59375 3.28125s-.4707 2.21917-.09375 3.28125c.7538 2.12416 2.97772 3.94065 6.3125 5.53125s7.83313 2.97078 13.21875 4.03125c21.54249 4.24187 57.58136 3.73458 91.625-6.71875l1.46875-.46875-1.46875-.5c-7.08811-2.43596-11.34375-7.28125-11.34375-7.28125l-.1875-.21875-.28125.0625c-33.18797 6.94139-52.36312 6.41815-76.90625 3.9375-4.64898-.49147-7.33442-1.43513-8.71875-2.5s-1.54544-2.14973-1.25-3.3125 1.16219-2.36619 1.96875-3.25c.78119-.85601 1.42547-1.40334 1.46875-1.4375.00047-.00037.03085.00025.03125 0 .00062-.00049.03125-.03125.03125-.03125l-.25-.28125v-.03125zm8.21875 31.625-1.0625.65625-.125.0625c-5.4761 1.61128-9.25004 3.4089-11.5 5.375-2.27539 1.98833-3.01217 4.2691-2.28125 6.40625s2.78477 4.07599 5.84375 5.84375 7.1375 3.34456 12 4.625c19.45001 5.12177 51.44519 5.50052 79.75-6.96875l1.09375-.5-1.125-.4375c-9.09345-3.45386-15.8125-7.875-15.8125-7.875l-.15625-.125-.21875.03125c-25.01987 4.96013-36.92572 5.47471-59.53125 2.5h-.03125c-4.66025-.49271-7.41589-1.32196-8.90625-2.1875-.74518-.43277-1.16277-.85082-1.375-1.25s-.2416-.78533-.15625-1.1875c.1707-.80434.88461-1.69397 1.59375-2.34375.69125-.63339 1.31186-1.01108 1.34375-1.03125.00083-.00052.03125-.03125.03125-.03125l.125-.03125.0625-.25zm-29.78125 22.40625c-2.74244-.0831-5.96316.26537-9.375.90625-6.82368 1.28175-14.42296 3.80735-20.375 6.8125-2.97602 1.50258-5.5386 3.11114-7.40625 4.78125s-3.07056 3.40438-3.15625 5.1875c-.0857 1.78312 1.04042 3.44592 3.40625 4.8125s6.01068 2.53192 11.28125 3.40625c57.61327 9.69137 110.15034 7.56166 144.59375 1.28125 17.22171-3.1402 29.91392-7.28501 36.53125-11.625 3.30866-2.17 5.16956-4.41373 5.125-6.75-.0223-1.16814-.55115-2.31567-1.53125-3.34375-.9506-.99713-2.36839-1.91805-4.1875-2.78125l-.0625-.0625c-.0253-.0119-.037-.01935-.0625-.03125l-.71875-.625v1.09375h.4375l-.03125.125-.21875.25s1.85588 1.62243 1.75 3.75c-.0529 1.06378-.56237 2.30189-2.15625 3.65625s-4.26767 2.80353-8.5625 4.15625c-16.00412 4.92468-49.86736 8.15926-83.25 8.53125-16.69132.186-33.26423-.34042-47.46875-1.71875s-26.04052-3.60243-33.15625-6.78125c-1.21707-.53764-1.93444-1.10378-2.28125-1.59375s-.37937-.90874-.1875-1.40625c.38373-.99503 1.93551-2.24829 4.0625-3.375 4.25398-2.25342 10.64434-4.11116 13.6875-4.59375h.03125v-.03125c6.22164-1.47987 9.53125-1.46875 9.53125-1.46875h1.5625l-1.28125-.90625c-1.52428-1.09316-3.78881-1.5732-6.53125-1.65625zm172.40625 17.78125s-.16195.49478-1.09375 1.5-2.61555 2.43905-5.5 4.125c-5.76891 3.3719-16.43856 7.72131-35.90625 11.4375-44.22601 8.42452-99.10053 7.41608-131.28125 1.96875l-1.71875-.28125 1.3125 1.15625s.48875.42533 1.6875 1.03125 3.12039 1.43648 6.125 2.3125c6.00117 1.7497 16.26103 3.72294 33.34375 4.71875.0115.00067.01975-.00067.03125 0s.01975-.00067.03125 0c26.04102 1.74 58.93044 1.26051 85.59375-2.84375 13.33166-2.05213 25.11075-5.00918 33.71875-9.0625 8.55096-4.02645 14.02945-9.19286 14.59375-15.71875.004-.0435.02785-.0813.03125-.125z" fill="#fffff1"/></svg>