<?xml version="1.0" encoding="UTF-8" standalone="no"?>
<!-- Created with Inkscape (http://www.inkscape.org/) -->

<svg
   xmlns:dc="http://purl.org/dc/elements/1.1/"
   xmlns:cc="http://creativecommons.org/ns#"
   xmlns:rdf="http://www.w3.org/1999/02/22-rdf-syntax-ns#"
   xmlns:svg="http://www.w3.org/2000/svg"
   xmlns="http://www.w3.org/2000/svg"
   xmlns:sodipodi="http://sodipodi.sourceforge.net/DTD/sodipodi-0.dtd"
   xmlns:inkscape="http://www.inkscape.org/namespaces/inkscape"
   width="512"
   height="512"
   id="svg2"
   version="1.1"
   inkscape:version="0.48.4 r9939"
   sodipodi:docname="google eart.svg">
  <defs
     id="defs4">
    <clipPath
       clipPathUnits="userSpaceOnUse"
       id="clipPath3815">
      <path
         transform="matrix(0.92270493,0,0,0.92270493,13.354211,-124.7516)"
         d="m 802.85715,622.36218 a 352.85715,352.85715 0 1 1 -705.714297,0 352.85715,352.85715 0 1 1 705.714297,0 z"
         sodipodi:ry="352.85715"
         sodipodi:rx="352.85715"
         sodipodi:cy="622.36218"
         sodipodi:cx="450"
         id="path3817"
         style="fill:#008080;fill-opacity:1;fill-rule:evenodd;stroke:none"
         sodipodi:type="arc" />
    </clipPath>
    <clipPath
       clipPathUnits="userSpaceOnUse"
       id="clipPath3819">
      <path
         transform="matrix(0.92270493,0,0,0.92270493,13.354211,-124.7516)"
         d="m 802.85715,622.36218 a 352.85715,352.85715 0 1 1 -705.714297,0 352.85715,352.85715 0 1 1 705.714297,0 z"
         sodipodi:ry="352.85715"
         sodipodi:rx="352.85715"
         sodipodi:cy="622.36218"
         sodipodi:cx="450"
         id="path3821"
         style="fill:#008080;fill-opacity:1;fill-rule:evenodd;stroke:none"
         sodipodi:type="arc" />
    </clipPath>
    <clipPath
       clipPathUnits="userSpaceOnUse"
       id="clipPath4226">
      <path
         transform="matrix(0.46488132,0,0,0.46488132,78.629747,-63.30724)"
         d="m 802.85715,622.36218 a 352.85715,352.85715 0 1 1 -705.714297,0 352.85715,352.85715 0 1 1 705.714297,0 z"
         sodipodi:ry="352.85715"
         sodipodi:rx="352.85715"
         sodipodi:cy="622.36218"
         sodipodi:cx="450"
         id="path4228"
         style="fill:#6fcda0;fill-opacity:1;fill-rule:evenodd;stroke:none"
         sodipodi:type="arc" />
    </clipPath>
    <clipPath
       clipPathUnits="userSpaceOnUse"
       id="clipPath4234">
      <path
         sodipodi:nodetypes="ccccc"
         inkscape:connector-curvature="0"
         id="path4236"
         d="M 463.20536,140.6741 144.63393,339.26339 203.79986,389.41694 462.5,223.3125 z"
         style="font-size:medium;font-style:normal;font-variant:normal;font-weight:normal;font-stretch:normal;text-indent:0;text-align:start;text-decoration:none;line-height:normal;letter-spacing:normal;word-spacing:normal;text-transform:none;direction:ltr;block-progression:tb;writing-mode:lr-tb;text-anchor:start;baseline-shift:baseline;color:#000000;fill:#dfb26c;fill-opacity:1;stroke:none;stroke-width:70;marker:none;visibility:visible;display:inline;overflow:visible;enable-background:accumulate;font-family:Sans;-inkscape-font-specification:Sans" />
    </clipPath>
  </defs>
  <sodipodi:namedview
     id="base"
     pagecolor="#ffffff"
     bordercolor="#666666"
     borderopacity="1.0"
     inkscape:pageopacity="0.0"
     inkscape:pageshadow="2"
     inkscape:zoom="0.70000002"
     inkscape:cx="392.35082"
     inkscape:cy="349.8386"
     inkscape:document-units="px"
     inkscape:current-layer="layer1"
     showgrid="false"
     inkscape:window-width="1360"
     inkscape:window-height="721"
     inkscape:window-x="0"
     inkscape:window-y="25"
     inkscape:window-maximized="1" />
  <metadata
     id="metadata7">
    <rdf:RDF>
      <cc:Work
         rdf:about="">
        <dc:format>image/svg+xml</dc:format>
        <dc:type
           rdf:resource="http://purl.org/dc/dcmitype/StillImage" />
        <dc:title></dc:title>
      </cc:Work>
    </rdf:RDF>
  </metadata>
  <g
     inkscape:label="Capa 1"
     inkscape:groupmode="layer"
     id="layer1"
     transform="translate(0,-540.36218)">
    <path
       style="fill:#d0a665;fill-opacity:1;stroke:none"
       d="m 304.9144,563.60413 174.0851,151.41775 -68.00199,51.68152 -97.92287,-91.576 z"
       id="path4214"
       inkscape:connector-curvature="0"
       sodipodi:nodetypes="ccccc" />
    <path
       style="fill:#d5aa67;fill-opacity:1;stroke:none"
       d="m 84.707678,927.33071 c -0.64113,2.56451 -7.05241,37.18547 -7.05241,37.18547 l 75.012072,63.47172 c 0,0 21.15726,-85.2701 16.02823,-85.91123 -5.12903,-0.64114 -83.987892,-14.74596 -83.987892,-14.74596 z"
       id="path4218"
       inkscape:connector-curvature="0" />
    <path
       style="fill:#000000;fill-opacity:0.10499998;stroke:none"
       d="m 305.8211,564.51082 69.81538,89.76263 -92.4827,-12.69371 z"
       id="path4220"
       inkscape:connector-curvature="0" />
    <path
       sodipodi:type="arc"
       style="fill:#6fcda0;fill-opacity:1;fill-rule:evenodd;stroke:none"
       id="path2985"
       sodipodi:cx="450"
       sodipodi:cy="622.36218"
       sodipodi:rx="352.85715"
       sodipodi:ry="352.85715"
       d="m 802.85715,622.36218 a 352.85715,352.85715 0 1 1 -705.714297,0 352.85715,352.85715 0 1 1 705.714297,0 z"
       transform="matrix(0.59010662,0,0,0.59010662,-7.8207084,453.50424)" />
    <path
       style="fill:#feeed3;fill-opacity:1;stroke:none"
       d="m 436.3859,74.53452 8.08122,145.46197 -153.54319,-72.73099 -113.13708,169.70563 96.97464,32.32488 64.64976,-64.64976 32.32489,48.48732 -129.29953,161.62441 56.56854,56.56854 -121.2183,-8.08122 137.38074,161.62441 8.08122,177.78685 -872.77179,-234.35539 670.74129,-751.5535 z"
       id="path3800"
       inkscape:connector-curvature="0"
       clip-path="url(#clipPath3819)"
       transform="matrix(0.59010662,0,0,0.59010662,4.8244326,555.50837)" />
    <path
       style="fill:#f5eed3;fill-opacity:1;stroke:none"
       d="m 630.33519,106.8594 -105.05587,169.70563 153.54319,153.54319 -242.43661,24.24366 0,105.05586 153.54319,80.8122 32.32488,185.86807 226.27417,-533.36054 z"
       id="path3802"
       inkscape:connector-curvature="0"
       clip-path="url(#clipPath3815)"
       transform="matrix(0.59010662,0,0,0.59010662,4.8244326,555.50837)" />
    <path
       style="fill:#000000;fill-opacity:0.10499998;stroke:none"
       d="m 324.99999,62.000011 55,18.571428 12.85714,147.142851 -68.57142,5 z"
       id="path4222"
       inkscape:connector-curvature="0"
       transform="matrix(1.2693705,0,0,1.2693705,-107.63099,533.86458)"
       clip-path="url(#clipPath4226)" />
    <path
       style="font-size:medium;font-style:normal;font-variant:normal;font-weight:normal;font-stretch:normal;text-indent:0;text-align:start;text-decoration:none;line-height:normal;letter-spacing:normal;word-spacing:normal;text-transform:none;direction:ltr;block-progression:tb;writing-mode:lr-tb;text-anchor:start;baseline-shift:baseline;color:#000000;fill:#dfb26c;fill-opacity:1;stroke:none;stroke-width:70;marker:none;visibility:visible;display:inline;overflow:visible;enable-background:accumulate;font-family:Sans;-inkscape-font-specification:Sans"
       d="M 480.34822,712.43213 75.963048,964.51551 151.06654,1028.1789 479.45286,817.33087 z"
       id="path2990"
       inkscape:connector-curvature="0"
       sodipodi:nodetypes="ccccc" />
    <path
       style="fill:#000000;fill-opacity:0.10499998;stroke:none"
       d="m 369.21075,198.85272 5.05076,64.14468 22.72843,0 -11.11168,15.15229 -39.90102,17.17259 -11.11168,-79.80204 z"
       id="path4230"
       inkscape:connector-curvature="0"
       transform="matrix(1.2693705,0,0,1.2693705,-107.63099,533.86458)"
       clip-path="url(#clipPath4234)" />
    <path
       style="font-size:medium;font-style:normal;font-variant:normal;font-weight:normal;font-stretch:normal;text-indent:0;text-align:start;text-decoration:none;line-height:normal;letter-spacing:normal;word-spacing:normal;text-transform:none;direction:ltr;block-progression:tb;writing-mode:lr-tb;text-anchor:start;baseline-shift:baseline;color:#000000;fill:#edbd73;fill-opacity:1;fill-rule:nonzero;stroke:none;stroke-width:70;marker:none;visibility:visible;display:inline;overflow:visible;enable-background:accumulate;font-family:Sans;-inkscape-font-specification:Sans"
       d="m 305.50943,563.69479 -86.39652,48.75176 33.00363,283.86297 -31.85327,3.96678 87.34856,91.43434 62.27849,-110.07822 -29.55253,3.68911 -34.82836,-321.62674 z"
       id="path2992"
       inkscape:connector-curvature="0" />
    <path
       style="font-size:medium;font-style:normal;font-variant:normal;font-weight:normal;font-stretch:normal;text-indent:0;text-align:start;text-decoration:none;line-height:normal;letter-spacing:normal;word-spacing:normal;text-transform:none;direction:ltr;block-progression:tb;writing-mode:lr-tb;text-anchor:start;baseline-shift:baseline;color:#000000;fill:#ffffff;fill-opacity:0.175;fill-rule:nonzero;stroke:none;stroke-width:70;marker:none;visibility:visible;display:inline;overflow:visible;enable-background:accumulate;font-family:Sans;-inkscape-font-specification:Sans"
       d="m 305.50943,563.69479 -86.39652,48.75176 33.00363,283.86297 -31.85327,3.96678 87.34856,91.43434 0.0793,-0.15867 -81.99339,-85.84118 31.85326,-3.96678 -33.00363,-283.86297 81.83473,-46.17335 -0.8727,-8.0129 z m 64.38089,317.93763 -24.75273,3.09409 0.63469,6.02951 20.38926,-2.53874 3.72878,-6.58486 z"
       id="path4239"
       inkscape:connector-curvature="0" />
  </g>
</svg>
