<svg height="512" width="512" xmlns="http://www.w3.org/2000/svg" xmlns:xlink="http://www.w3.org/1999/xlink"><linearGradient id="a" gradientUnits="userSpaceOnUse" x1="138.95711" x2="283.89377" y1="-370.97635" y2="475.5845"><stop offset="0"/><stop offset="1" stop-opacity="0"/></linearGradient><path d="m44.322082 27.405077c0 10.896448-8.833315 19.729765-19.729762 19.729765s-19.7297621-8.833317-19.7297621-19.729765c.000001-10.896448 8.8333161-19.7297633 19.7297621-19.7297632 10.896446 0 19.729761 8.8333152 19.729762 19.7297632z" fill="#6042f8" opacity=".99" transform="matrix(12.332308 0 0 12.332308 -47.545312 -73.4136)"/><path d="m189.49609 179.00391-34.75195 83.93359-34.75 83.93359 159.8125 159.8125c94.501-9.28205 173.13306-72.62299 204.55274-158.68945l-110.32618-110.32617c-.20151-.20152-.41666-.3894-.62304-.58594-.25244-.2404-.50199-.48383-.76172-.7168-.29277-.26258-.5964-.51444-.89844-.76757-.25408-.21295-.50498-.42851-.76562-.63477-.31053-.24574-.63132-.48055-.95118-.7168-.27673-.20438-.55026-.41209-.83398-.60937-.31675-.22025-.64525-.42924-.9707-.64063-.29517-.19171-.58635-.38784-.88868-.57226-.32399-.19765-.65995-.38298-.99218-.57227-.33093-.18854-.65894-.38031-.99805-.56054-.30474-.16197-.62029-.31349-.93164-.46875-.37115-.18509-.73859-.37327-1.11914-.54883-.34635-.15979-.70445-.30709-1.0586-.45899-.35998-.1544-.71593-.31273-1.08398-.45898-.36884-.14656-.75002-.28155-1.12695-.41992-.37211-.13661-.73914-.27762-1.11914-.40625-.38917-.13173-.792-.24969-1.18946-.37305-.38837-.12054-.77167-.24683-1.16797-.35937-.37222-.10572-.7575-.19821-1.13671-.29688-.43384-.11288-.86171-.23229-1.30469-.33594-.38343-.0897-.77963-.16523-1.16992-.24804-.45755-.0971-.90997-.19954-1.37696-.28711-.46361-.0869-.94309-.15876-1.41601-.23633-.39232-.0644-.77706-.13545-1.17578-.19336-.54228-.0788-1.10016-.14213-1.6543-.20899-.36867-.0445-.72959-.0956-1.10352-.13476-.49663-.0521-1.00776-.0901-1.51367-.13281-.43832-.037-.86916-.0813-1.31445-.11133-.35625-.0241-.72523-.0351-1.08594-.0547-.6157-.0334-1.22676-.0714-1.85547-.0918-.98388-.0319-1.98423-.0488-3-.0488-7.0426 0-14.31709.57775-21.79297 1.73242s-15.15314 2.88627-23.0039 5.19531l1.15429 9.8125 1.1543 9.81445 23.74805 23.74805c-3.5187 1.13059-6.75768 2.4124-9.70899 3.85156l-100.5664-100.5664h-9.4668z" fill="url(#a)"/><path d="m189.49609 179.00391-69.50195 167.86718h23.7832l21.47266-55.18554h66.26953l21.9375 55.18554h24.01367l-69.04101-167.86718zm9.4668 25.16797 24.24414 68.81054h-49.875zm138.48242 21.24414c-14.08519 0-29.09535 2.30964-44.79687 6.92773l2.30859 19.62695c15.00881-5.77262 28.86317-8.54492 41.33203-8.54492 16.85605 0 26.32377 8.7759 28.63282 26.09375-52.6463.69272-78.96875 15.70049-78.96876 45.02539 0 22.16686 18.70249 35.5586 41.79297 35.5586 14.77791 0 28.17112-5.30894 39.94727-15.46875l3.46289 15.46875 20.32031-4.38672c-3.23267-11.54524-4.84961-21.70414-4.84961-30.47852v-39.2539c0-33.71211-16.16226-50.56836-49.18164-50.56836zm27.47657 63.0371v21.01172c0 12.69977-21.93586 21.47461-36.25196 21.47461-13.62338 0-20.55078-6.2347-20.55078-18.47265 0-15.23972 19.16526-23.32095 56.80274-24.01368z" fill="#fff" transform="translate(0 .000003)"/></svg>