<?xml version="1.0" encoding="UTF-8" standalone="no"?>
<!-- Created with Inkscape (http://www.inkscape.org/) -->

<svg
   xmlns:dc="http://purl.org/dc/elements/1.1/"
   xmlns:cc="http://creativecommons.org/ns#"
   xmlns:rdf="http://www.w3.org/1999/02/22-rdf-syntax-ns#"
   xmlns:svg="http://www.w3.org/2000/svg"
   xmlns="http://www.w3.org/2000/svg"
   xmlns:sodipodi="http://sodipodi.sourceforge.net/DTD/sodipodi-0.dtd"
   xmlns:inkscape="http://www.inkscape.org/namespaces/inkscape"
   width="512"
   height="512"
   id="svg2"
   version="1.1"
   inkscape:version="0.92.2 (5c3e80d, 2017-08-06)"
   sodipodi:docname="tomboy.svg">
  <defs
     id="defs4">
    <linearGradient
       id="linearGradient3831">
      <stop
         style="stop-color:#000000;stop-opacity:0.06164384;"
         offset="0"
         id="stop3833" />
      <stop
         style="stop-color:#47b39a;stop-opacity:0.17123288;"
         offset="1"
         id="stop3835" />
    </linearGradient>
    <clipPath
       clipPathUnits="userSpaceOnUse"
       id="clipPath3790">
      <rect
         style="color:#000000;fill:#47b39a;fill-opacity:1;fill-rule:evenodd;stroke:none;stroke-width:50;marker:none;visibility:visible;display:inline;overflow:visible;enable-background:accumulate"
         id="rect3792"
         width="541.44177"
         height="541.44177"
         x="120.20812"
         y="254.34166"
         ry="33.346149" />
    </clipPath>
    <clipPath
       clipPathUnits="userSpaceOnUse"
       id="clipPath3809">
      <rect
         ry="33.346149"
         y="254.34166"
         x="113.13709"
         height="541.44177"
         width="541.44177"
         id="rect3811"
         style="color:#000000;fill:#b3b3b3;fill-opacity:1;fill-rule:evenodd;stroke:none;stroke-width:50;marker:none;visibility:visible;display:inline;overflow:visible;enable-background:accumulate" />
    </clipPath>
    <clipPath
       clipPathUnits="userSpaceOnUse"
       id="clipPath3849">
      <rect
         ry="33.346149"
         y="254.34166"
         x="113.13709"
         height="541.44177"
         width="541.44177"
         id="rect3851"
         style="color:#000000;fill:#b3b3b3;fill-opacity:1;fill-rule:evenodd;stroke:none;stroke-width:50;marker:none;visibility:visible;display:inline;overflow:visible;enable-background:accumulate" />
    </clipPath>
  </defs>
  <sodipodi:namedview
     id="base"
     pagecolor="#ffffff"
     bordercolor="#666666"
     borderopacity="1.0"
     inkscape:pageopacity="0.0"
     inkscape:pageshadow="2"
     inkscape:zoom="0.49497475"
     inkscape:cx="329.56898"
     inkscape:cy="288.1386"
     inkscape:document-units="px"
     inkscape:current-layer="layer1"
     showgrid="false"
     inkscape:window-width="1360"
     inkscape:window-height="716"
     inkscape:window-x="0"
     inkscape:window-y="24"
     inkscape:window-maximized="1" />
  <metadata
     id="metadata7">
    <rdf:RDF>
      <cc:Work
         rdf:about="">
        <dc:format>image/svg+xml</dc:format>
        <dc:type
           rdf:resource="http://purl.org/dc/dcmitype/StillImage" />
        <dc:title></dc:title>
      </cc:Work>
    </rdf:RDF>
  </metadata>
  <g
     inkscape:label="Capa 1"
     inkscape:groupmode="layer"
     id="layer1"
     transform="translate(0,-540.36218)">
    <rect
       id="rect35"
       width="434.28574"
       height="465.71387"
       x="40"
       y="580.93359"
       ry="48.57143"
       style="fill:#e9ddaf" />
    <path
       style="fill:#484537"
       d="m 88.57143,580.93359 h 337.14288 c 26.90857,0 48.57143,21.66286 48.57143,48.57143 V 696.6479 H 40 v -67.14288 c 0,-26.90857 21.662858,-48.57143 48.57143,-48.57143 z"
       id="rect37"
       inkscape:connector-curvature="0"
       sodipodi:nodetypes="sssccss" />
    <path
       style="fill:#ffffff"
       d="m 124.81376,616.48132 a 29.7995,29.7995 0 0 0 -29.800774,29.79883 29.7995,29.7995 0 0 0 29.800774,29.80078 29.7995,29.7995 0 0 0 29.79883,-29.80078 29.7995,29.7995 0 0 0 -29.79883,-29.79883 z m 264.65821,0 a 29.7995,29.7995 0 0 0 -29.79883,29.79883 29.7995,29.7995 0 0 0 29.79883,29.80078 29.7995,29.7995 0 0 0 29.80078,-29.80078 29.7995,29.7995 0 0 0 -29.80078,-29.79883 z"
       id="path42"
       inkscape:connector-curvature="0" />
    <g
       aria-label="notes"
       transform="matrix(3.2818993,-0.96901906,0.96901906,3.2818993,-569.43672,-39.53721)"
       style="font-style:normal;font-variant:normal;font-weight:normal;font-stretch:normal;font-size:40px;line-height:1.25;font-family:Purisa;-inkscape-font-specification:Purisa;letter-spacing:0px;word-spacing:0px;fill:#4d4d4d;fill-opacity:1;stroke:none"
       id="flowRoot47">
      <path
         style="stroke-width:3.42196751"
         d="M 245.91211 235.86719 C 245.67008 235.87324 245.4188 235.91467 245.15625 235.99219 C 244.36859 236.22475 243.70894 236.89617 243.17969 238.00391 C 242.71211 238.99829 242.55418 240.23314 242.70508 241.71094 C 242.7726 242.26188 243.052 243.36842 243.54297 245.03125 C 244.52491 248.35691 246.059 252.42482 248.14453 257.23242 C 250.23006 262.04003 251.75093 266.06264 252.70703 269.30078 C 253.86985 273.23906 254.07237 275.69921 253.31641 276.68359 C 252.5346 277.58046 250.25958 279.06116 246.49219 281.125 C 242.69896 283.10132 239.33821 285.0933 236.41016 287.09961 C 233.56962 289.08008 232.36931 290.81494 232.80859 292.30273 C 233.42877 294.40315 235.00887 295.0775 237.54688 294.32812 C 238.85963 293.94052 242.04335 292.47841 247.09766 289.93945 C 252.15197 287.40049 255.37902 285.92321 256.7793 285.50977 C 257.04185 285.43224 257.25488 285.51134 257.41992 285.74805 C 257.55912 285.89724 257.8723 286.47218 258.35742 287.4707 C 258.84254 288.46923 259.45202 290.04885 260.18555 292.21094 C 261.00659 294.34719 262.14253 297.38962 263.59375 301.33789 C 266.42865 308.6835 269.21182 315.85407 271.94336 322.84961 C 274.73658 329.73179 276.76873 334.84013 278.03906 338.17578 C 279.28355 341.42392 280.38374 344.66811 281.33984 347.90625 C 282.65771 352.36963 284.21041 355.85869 286 358.375 C 287.8771 360.86547 289.60438 361.87919 291.17969 361.41406 C 293.19259 360.81973 293.79715 359.16616 292.99609 356.45312 C 292.55681 354.96533 290.05867 348.75609 285.5 337.82812 C 280.91549 326.81264 276.47923 314.85033 272.19141 301.93945 L 264.85352 279.98633 L 270.95117 276.47266 C 279.88038 271.26723 284.06068 267.70272 283.49219 265.77734 C 282.9237 263.85196 280.45204 263.53415 276.07617 264.82617 C 273.88824 265.47218 271.20405 266.69285 268.02344 268.48828 C 264.9045 270.17036 262.99506 271.11554 262.29492 271.32227 C 262.11989 271.37395 261.97469 271.36832 261.86133 271.30664 C 261.63461 271.18329 260.47614 268.38597 258.38477 262.91406 C 256.29339 257.44216 254.1197 251.8512 251.86328 246.14258 C 249.60686 240.43396 248.25789 237.31244 247.81445 236.77734 C 247.27308 236.15223 246.63819 235.84904 245.91211 235.86719 z M 424.33789 241.79883 C 423.33175 241.77478 422.07413 241.98589 420.56445 242.43164 C 415.83852 243.82703 412.14769 245.34398 409.49219 246.98438 C 403.65607 250.4202 399.33303 255.5986 396.52344 262.51758 C 393.68801 269.34903 392.73576 274.33961 393.66602 277.49023 C 394.64795 280.81589 397.76141 283.46359 403.00586 285.43555 C 408.22447 287.31999 411.48997 288.06925 412.80273 287.68164 C 413.24032 287.55244 414.35078 287.60483 416.13281 287.83984 C 418.00237 288.04901 420.31755 288.31786 423.07812 288.64453 C 425.8387 288.9712 428.22735 289.16831 430.24609 289.23828 C 432.3782 289.36993 434.25043 289.91229 435.86328 290.86328 C 437.47613 291.81427 438.55672 292.73202 439.10352 293.61719 C 439.71199 294.389 440.10623 295.08074 440.28711 295.69336 C 441.03648 298.23136 440.64007 302.20378 439.0957 307.60742 C 437.5255 312.92354 434.85699 316.13691 431.09375 317.24805 C 428.2932 318.07494 425.01667 318.09112 421.26172 317.29688 C 417.59429 316.47679 414.91302 315.12785 413.2168 313.25 C 411.35554 311.13544 409.76784 310.2706 408.45508 310.6582 C 407.75494 310.86493 407.25738 311.44011 406.96484 312.38281 C 406.73398 313.21215 406.76068 314.10762 407.04492 315.07031 C 407.58757 316.90818 408.86455 318.81566 410.875 320.79102 C 412.85961 322.67886 414.75658 323.7849 416.56445 324.10742 C 418.77408 324.50162 421.86402 324.49303 425.83398 324.08203 C 429.82979 323.75855 433.00813 323.24652 435.37109 322.54883 C 438.4342 321.64441 441.07651 319.15315 443.29688 315.07227 C 445.51724 310.99138 446.73395 307.53904 446.94727 304.7168 C 447.3656 300.97769 446.98163 297.09611 445.79297 293.07031 C 444.52678 288.78196 442.02965 285.80786 438.30469 284.14844 C 434.57972 282.48901 428.09034 281.45426 418.83594 281.04688 C 412.95473 280.78528 408.57877 279.98558 405.70898 278.64453 C 402.81336 277.21597 401.14632 275.75733 400.70703 274.26953 C 400.26774 272.78174 401.3657 269.41241 404.00195 264.16211 C 405.83641 260.38546 408.25981 257.14957 411.26953 254.45312 C 414.27925 251.75668 417.3158 249.9552 420.37891 249.05078 C 422.74187 248.35309 424.77792 248.32222 426.48828 248.95898 C 428.19864 249.59574 429.69011 250.29849 430.96289 251.06445 C 432.20983 251.7429 433.53332 251.87439 434.93359 251.46094 C 436.07132 251.12501 436.48587 250.43302 436.17578 249.38281 C 435.83985 248.24509 433.86355 246.54525 430.24609 244.2832 C 428.04061 242.93631 426.3775 242.14125 425.25977 241.90039 C 424.98033 241.84018 424.67327 241.80684 424.33789 241.79883 z M 346.89453 264.18359 C 345.07666 264.14946 342.01513 264.57652 337.71094 265.4668 C 334.83286 266.03114 332.69325 266.52015 331.29297 266.93359 C 326.21696 268.43234 321.66938 273.01132 317.65039 280.66797 C 313.71892 288.29878 311.66626 295.04112 311.49219 300.89648 C 311.39223 303.78041 311.89862 307.10394 313.00977 310.86719 C 314.8186 316.9934 317.37868 322.27877 320.68945 326.72461 C 324.00023 331.17045 327.58138 334.44205 331.43555 336.53906 C 335.28971 338.63607 339.17007 340.01292 343.07422 340.66797 C 347.04004 341.20966 350.77274 340.96331 354.27344 339.92969 C 363.46276 337.21643 371.45018 330.43439 378.23633 319.58203 C 380.18999 316.53137 381.78747 312.91864 383.0293 308.74609 C 384.35864 304.54771 384.7913 301.66125 384.32617 300.08594 C 384.11945 299.3858 383.79696 299.09931 383.35938 299.22852 C 382.39668 299.51276 380.90792 301.23832 378.89258 304.40234 C 376.85139 307.47885 374.75611 310.85602 372.60742 314.53516 C 370.45873 318.21429 367.5887 321.86889 363.99805 325.49805 C 360.46907 329.01384 356.82379 331.32636 353.06055 332.4375 C 348.15958 333.88457 342.78824 333.09271 336.94531 330.06055 C 329.20114 326.0674 324.37314 320.83175 322.46094 314.35547 L 320.91016 309.10547 L 332.92383 304.84375 C 340.67118 302.08052 348.38829 298.5657 356.07227 294.29883 C 361.96006 291.03803 365.78997 288.38418 367.56445 286.33789 C 369.3131 284.20408 369.77416 281.73805 368.94727 278.9375 C 368.30125 276.74957 366.45105 274.34648 363.39453 271.72852 C 360.39969 268.99719 357.19221 266.99422 353.77148 265.7207 C 351.09258 264.70389 348.79992 264.19189 346.89453 264.18359 z M 344.03711 270.52148 C 344.45876 270.53971 344.86036 270.58788 345.24023 270.66602 C 346.82139 270.86519 349.33101 271.79002 352.76758 273.43945 C 357.73948 275.77732 360.40581 277.55796 360.76758 278.7832 C 361.54279 281.40872 359.89781 283.89214 355.83203 286.23438 C 342.19858 293.8754 331.39962 298.87312 323.43555 301.22461 C 321.33513 301.84478 320.11718 301.58499 319.78125 300.44727 C 319.03188 297.90926 320.85853 291.85132 325.26172 282.27344 C 326.70028 279.08942 328.35285 276.79455 330.2207 275.38672 C 332.15023 273.86553 335.30382 272.45804 339.67969 271.16602 C 341.32064 270.68151 342.77216 270.46681 344.03711 270.52148 z M 207.52148 302.10938 C 204.32759 302.06229 200.69651 302.64021 196.62695 303.8418 C 189.45053 305.96072 183.80889 308.76787 179.70312 312.26367 C 175.65904 315.64612 171.16851 321.53904 166.22852 329.94336 C 160.1425 340.589 158.66236 351.20728 161.78906 361.79688 C 163.44286 367.39798 165.28989 371.56188 167.33203 374.28906 C 169.34833 376.92872 172.88418 379.88176 177.93945 383.14648 C 185.2002 387.7581 193.33728 388.73188 202.35156 386.07031 C 208.82784 384.15811 214.46924 380.54218 219.27344 375.22266 C 224.22683 369.76393 227.36496 361.70153 228.6875 351.03516 C 229.9842 340.28127 229.26253 330.26707 226.52344 320.99023 C 224.86964 315.38913 222.64356 310.90862 219.84375 307.54883 C 216.95298 304.00181 212.84464 302.18786 207.52148 302.10938 z M 205.18164 311.64258 C 207.56416 311.63041 210.01652 312.1734 212.54102 313.27148 C 213.96299 313.89825 215.03598 314.6294 215.75781 315.46289 C 216.47964 316.29638 217.12487 317.67423 217.69336 319.59961 C 221.46607 332.37714 221.83221 344.73492 218.79102 356.66992 C 215.8115 368.49157 210.64442 375.4876 203.29297 377.6582 C 196.09071 379.68961 189.52982 379.05643 183.60938 375.76172 C 177.77645 372.44117 173.78734 367.15066 171.64258 359.88672 C 170.19551 354.98575 169.96016 350.15386 170.93359 345.39453 C 171.88118 340.54769 174.21323 334.91189 177.92969 328.48633 C 179.89335 325.14727 181.61939 322.78261 183.11133 321.39062 C 184.66495 319.88528 186.90985 318.46114 189.84375 317.11914 C 192.04168 316.18474 193.94549 315.38475 195.55664 314.71875 C 197.14195 313.96523 198.27297 313.44073 198.94727 313.14648 C 199.68324 312.73889 200.35613 312.44456 200.96875 312.26367 C 202.34715 311.85668 203.75213 311.64988 205.18164 311.64258 z M 119.07031 327.48242 C 118.46133 327.4541 117.8716 327.52344 117.30273 327.69141 C 113.80204 328.72503 110.16169 334.60447 106.38281 345.33008 C 104.64757 350.40949 103.54227 354.39906 103.06641 357.29883 C 102.65222 360.08524 102.36918 364.92669 102.2168 371.82227 C 102.01858 379.20711 101.79554 383.12469 101.54883 383.57812 C 101.10539 383.04303 98.067818 376.13837 92.435547 362.86328 C 87.288396 350.58672 84.077213 343.25796 82.802734 340.875 C 81.502415 338.40452 80.284209 337.33595 79.146484 337.67188 C 77.396138 338.18869 76.961266 339.93652 77.839844 342.91211 C 78.925145 346.58784 81.478134 353.30224 85.5 363.05664 C 89.418504 372.46098 93.092248 381.84267 96.521484 391.20117 C 99.92488 400.47216 102.27977 406.67382 103.58594 409.80859 C 104.86627 412.85586 106.13002 414.71999 107.37695 415.39844 C 109.129 416.49862 110.35455 416.94501 111.05469 416.73828 C 111.49227 416.60908 110.87421 411.93953 109.20117 402.72852 C 108.09832 397.05988 107.53683 392.42045 107.51758 388.81055 C 107.49833 385.20064 107.86412 379.66917 108.61328 372.2168 C 109.45995 364.45019 110.9788 356.86528 113.16992 349.46289 C 115.3352 341.97298 117.33596 337.95671 119.17383 337.41406 C 120.049 337.15566 121.15015 337.4965 122.47461 338.4375 C 123.79907 339.3785 124.84758 340.35476 125.62109 341.36328 C 127.00308 343.14361 129.01613 347.54308 131.66016 354.56445 C 134.36586 361.47247 136.81723 368.64697 139.01367 376.08594 C 139.89225 379.06153 140.88887 382.76191 142.00586 387.18945 C 143.09701 391.52948 143.837 394.35716 144.22461 395.66992 C 144.9223 398.03289 145.49406 399.48053 145.9375 400.01562 C 146.40678 400.63824 147.03461 400.83413 147.82227 400.60156 C 149.1967 400.1006 150.06939 399.51023 150.43945 398.83008 C 150.92287 398.21161 151.01102 396.90134 150.70508 394.89844 C 150.46082 392.78218 149.69242 389.53602 148.40039 385.16016 C 147.88358 383.40981 146.14159 377.83378 143.17578 368.43359 C 138.57202 353.80821 135.38287 344.61677 133.60742 340.85938 C 131.83198 337.10198 128.9935 333.61146 125.0918 330.38672 C 122.90381 328.53514 120.89725 327.5674 119.07031 327.48242 z "
         transform="matrix(0.280268,0.0827524,-0.0827524,0.280268,111.60683,209.6495)"
         id="path100" />
    </g>
  </g>
</svg>
