<?xml version="1.0" encoding="UTF-8" standalone="no"?>
<!-- Created with Inkscape (http://www.inkscape.org/) -->

<svg
   xmlns:dc="http://purl.org/dc/elements/1.1/"
   xmlns:cc="http://creativecommons.org/ns#"
   xmlns:rdf="http://www.w3.org/1999/02/22-rdf-syntax-ns#"
   xmlns:svg="http://www.w3.org/2000/svg"
   xmlns="http://www.w3.org/2000/svg"
   xmlns:xlink="http://www.w3.org/1999/xlink"
   xmlns:sodipodi="http://sodipodi.sourceforge.net/DTD/sodipodi-0.dtd"
   xmlns:inkscape="http://www.inkscape.org/namespaces/inkscape"
   width="512"
   height="512"
   viewBox="0 0 512.00001 512.00001"
   id="svg2"
   version="1.1"
   inkscape:version="0.91 r13725"
   sodipodi:docname="knotes.svg">
  <defs
     id="defs4">
    <linearGradient
       id="linearGradient4175"
       inkscape:collect="always">
      <stop
         id="stop4177"
         offset="0"
         style="stop-color:#000000;stop-opacity:1" />
      <stop
         id="stop4179"
         offset="1"
         style="stop-color:#000000;stop-opacity:0" />
    </linearGradient>
    <linearGradient
       inkscape:collect="always"
       id="linearGradient4159">
      <stop
         style="stop-color:#000000;stop-opacity:1"
         offset="0"
         id="stop4161" />
      <stop
         style="stop-color:#000000;stop-opacity:0"
         offset="1"
         id="stop4163" />
    </linearGradient>
    <linearGradient
       inkscape:collect="always"
       xlink:href="#linearGradient4159"
       id="linearGradient4165"
       x1="107.14285"
       y1="570.04071"
       x2="408.21426"
       y2="860.04077"
       gradientUnits="userSpaceOnUse" />
    <linearGradient
       inkscape:collect="always"
       xlink:href="#linearGradient4175"
       id="linearGradient4173"
       x1="210.59895"
       y1="765.10229"
       x2="444.08447"
       y2="1020.6709"
       gradientUnits="userSpaceOnUse" />
    <clipPath
       clipPathUnits="userSpaceOnUse"
       id="clipPath4186">
      <path
         style="opacity:1;fill:#000000;fill-opacity:1;stroke:none;stroke-width:20;stroke-linecap:round;stroke-linejoin:round;stroke-miterlimit:4;stroke-dasharray:none;stroke-opacity:1"
         d="m 397.04297,602.85044 c -1.31818,0.0116 -2.65642,0.15402 -3.99805,0.43945 L 259.25,631.75474 123.51367,614.83286 c -10.88897,-1.35744 -20.74802,6.31611 -22.10547,17.20508 l -4.263669,34.20508 -31.914062,6.78906 c -10.733041,2.28347 -17.535418,12.76305 -15.251953,23.4961 l 27.359375,128.5996 -16.263672,130.4668 c -1.357444,10.88897 6.316106,20.74803 17.205078,22.10547 l 32.376953,4.03711 7.17383,33.71484 c 2.28346,10.733 12.7611,17.5354 23.49414,15.252 l 133.79687,-28.4649 135.73438,16.9199 c 10.88897,1.3575 20.74802,-6.3161 22.10547,-17.205 l 4.26367,-34.20317 31.91601,-6.79101 c 10.73305,-2.28347 17.53542,-12.7611 15.25196,-23.49414 L 457.0332,808.86411 473.29688,678.39927 c 1.35744,-10.88897 -6.31611,-20.74803 -17.20508,-22.10547 l -32.37696,-4.03711 -7.17382,-33.71484 c -1.99804,-9.39141 -10.27079,-15.7724 -19.49805,-15.69141 z"
         id="path4188"
         inkscape:connector-curvature="0" />
    </clipPath>
  </defs>
  <sodipodi:namedview
     id="base"
     pagecolor="#ffffff"
     bordercolor="#666666"
     borderopacity="1.0"
     inkscape:pageopacity="0.0"
     inkscape:pageshadow="2"
     inkscape:zoom="0.98994949"
     inkscape:cx="225.67565"
     inkscape:cy="244.33163"
     inkscape:document-units="px"
     inkscape:current-layer="layer1"
     showgrid="false"
     units="px"
     inkscape:window-width="1360"
     inkscape:window-height="716"
     inkscape:window-x="0"
     inkscape:window-y="24"
     inkscape:window-maximized="1" />
  <metadata
     id="metadata7">
    <rdf:RDF>
      <cc:Work
         rdf:about="">
        <dc:format>image/svg+xml</dc:format>
        <dc:type
           rdf:resource="http://purl.org/dc/dcmitype/StillImage" />
        <dc:title></dc:title>
      </cc:Work>
    </rdf:RDF>
  </metadata>
  <g
     inkscape:label="Capa 1"
     inkscape:groupmode="layer"
     id="layer1"
     transform="translate(0,-540.36216)">
    <rect
       ry="19.807323"
       y="671.8736"
       x="-96.058701"
       height="365.67526"
       width="374.76657"
       id="rect4140"
       style="opacity:1;fill:#7dbe9e;fill-opacity:1;stroke:none;stroke-width:20;stroke-linecap:round;stroke-linejoin:round;stroke-miterlimit:4;stroke-dasharray:none;stroke-opacity:1"
       transform="matrix(0.97810892,-0.2080936,0.2080936,0.97810892,0,0)" />
    <rect
       ry="19.807323"
       y="594.8316"
       x="178.81615"
       height="365.67526"
       width="374.76657"
       id="rect4138"
       style="opacity:1;fill:#717171;fill-opacity:1;stroke:none;stroke-width:20;stroke-linecap:round;stroke-linejoin:round;stroke-miterlimit:4;stroke-dasharray:none;stroke-opacity:1"
       transform="matrix(0.99231907,0.12370471,-0.12370471,0.99231907,0,0)" />
    <path
       clip-path="url(#clipPath4186)"
       sodipodi:nodetypes="ccccc"
       style="fill:url(#linearGradient4173);fill-rule:evenodd;stroke:none;stroke-width:1px;stroke-linecap:butt;stroke-linejoin:miter;stroke-opacity:1;fill-opacity:1"
       d="m 350,998.79074 46.78571,46.78566 102.85714,-99.99998 -46.78571,-46.78568 z"
       id="path4190"
       inkscape:connector-curvature="0" />
    <path
       style="opacity:1;fill:#efac63;fill-opacity:1;stroke:none;stroke-width:20;stroke-linecap:round;stroke-linejoin:round;stroke-miterlimit:4;stroke-dasharray:none;stroke-opacity:1"
       d="m 99.609371,634.159 335.151929,0 c 10.97325,0 19.80732,8.83406 19.80732,19.80732 l 0,81.51516 0,81.51515 0,81.51515 -103.5953,101.32248 -83.78798,0 -83.78799,0 -83.787979,0 c -10.973257,0 -19.807323,-8.83407 -19.807323,-19.80732 l 0,-326.06062 c 0,-10.97326 8.834066,-19.80732 19.807323,-19.80732 z"
       id="rect4136"
       inkscape:connector-curvature="0"
       sodipodi:nodetypes="sssccccccssss" />
    <path
       sodipodi:nodetypes="csscc"
       inkscape:connector-curvature="0"
       id="path4145"
       d="m 350.97331,999.83427 0,-81.51516 c 0,-10.97325 8.8341,-19.80732 19.80735,-19.80732 l 83.78798,0 z"
       style="opacity:1;fill:#e4c9aa;fill-opacity:1;stroke:none;stroke-width:20;stroke-linecap:round;stroke-linejoin:round;stroke-miterlimit:4;stroke-dasharray:none;stroke-opacity:1" />
    <g
       transform="matrix(6.250314,-2.9458265,2.9458265,6.250314,-1416.1439,-683.29943)"
       style="font-style:italic;font-variant:normal;font-weight:normal;font-stretch:normal;font-size:40px;line-height:125%;font-family:'Stink on the Death';-inkscape-font-specification:'Stink on the Death Italic';letter-spacing:0px;word-spacing:0px;fill:#515151;fill-opacity:0.75392671;stroke:none;stroke-width:1px;stroke-linecap:butt;stroke-linejoin:miter;stroke-opacity:1"
       id="flowRoot4781">
      <path
         style=""
         d="M 393.58594 177.70508 C 392.91108 177.70486 392.23234 177.73809 391.55078 177.80469 C 388.82455 178.07109 386.46104 178.67648 384.46094 179.61914 C 382.54896 180.31657 381.74612 181.2046 382.05078 182.2832 C 382.20789 182.61655 382.52692 183.07787 383.00781 183.66602 C 383.65538 184.17561 384.25285 185.01296 384.80273 186.17969 C 385.98106 188.67981 386.74294 191.37663 387.08789 194.26953 C 387.43285 197.16243 387.97516 200.47294 388.71289 204.19922 C 389.14597 206.84689 389.57856 211.22439 390.01367 217.33398 C 390.37023 223.2769 390.55667 229.50369 390.57031 236.01562 C 389.57026 236.48696 388.39354 237.45009 387.04102 238.90234 C 385.77661 240.10937 384.70757 241.73304 383.83594 243.77344 C 382.88575 245.64716 382.38356 247.81958 382.32617 250.29102 C 382.10211 252.841 382.69733 255.61508 384.11133 258.61523 C 385.02408 260.55187 386.35459 262.46435 388.05859 264.35352 C 387.14454 265.88401 386.10542 267.41167 384.90625 268.93555 C 383.03457 271.44728 380.83351 273.91017 378.30469 276.32422 C 375.86399 278.49304 373.31133 280.206 370.64453 281.46289 C 367.31103 283.034 364.12443 283.61905 361.08398 283.21875 C 357.96498 282.65177 355.31519 279.62352 353.13477 274.13281 C 352.673 272.72086 352.2504 271.39177 351.86719 270.14648 C 351.48397 268.9012 351.1447 267.53348 350.84961 266.04297 C 353.40916 265.85512 356.02265 265.13189 358.68945 263.875 C 361.85628 262.38245 364.99827 260.18987 368.11523 257.29492 C 371.39887 254.32142 374.19553 250.96445 376.50781 247.22656 C 378.90821 243.24345 380.48961 239.03484 381.25195 234.60156 C 382.18097 230.08973 381.83581 225.46636 380.21484 220.73047 C 378.49619 216.65171 376.4642 213.63774 374.11914 211.6875 C 371.94076 209.65871 369.62007 208.40874 367.1582 207.93945 C 364.78445 207.22493 362.47991 207.09056 360.24414 207.5332 C 358.17505 207.89729 356.47403 208.39304 355.14062 209.02148 C 350.14037 211.37815 345.97404 215.07244 342.64258 220.10547 C 339.23256 224.97182 336.75484 230.5196 335.20898 236.74805 C 333.58457 242.80982 332.94186 249.22351 333.2793 255.99023 C 333.7834 262.67841 335.15879 269.05766 337.4082 275.12695 C 338.56741 278.45089 340.06082 281.61724 341.88672 284.62695 C 341.99163 284.79765 342.10778 284.95166 342.21484 285.11914 C 341.83028 285.88957 341.41494 286.68194 340.92773 287.52344 C 338.69401 291.428 336.77334 294.26888 335.16602 296.04492 C 333.55869 297.82096 332.17063 298.98332 331.00391 299.5332 C 330.00386 300.00454 329.25804 300.1528 328.76758 299.97656 C 328.36524 299.55509 328.00758 299.01045 327.69336 298.34375 C 326.65097 293.53887 326.05397 287.30191 325.90234 279.63281 C 325.67216 271.79704 325.65246 263.75959 325.84375 255.52148 C 325.95648 247.1167 326.18265 239.16863 326.52148 231.67578 C 326.78176 224.01625 327.00374 218.00491 327.1875 213.64062 C 330.93291 212.07908 334.51177 210.59584 337.92383 209.19141 L 347.42383 204.71289 L 358.42578 199.5293 C 360.84735 198.18429 362.47933 197.10937 363.32227 196.30469 C 364.16521 195.50001 364.42946 194.76436 364.11523 194.09766 C 363.96769 193.3524 363.61825 192.39524 363.06836 191.22852 C 362.36136 189.72844 361.5282 188.39113 360.56641 187.21484 C 359.69273 185.79332 359.08921 185.16125 358.75586 185.31836 C 357.92248 185.71114 357.29452 186.10938 356.87305 186.51172 C 356.61825 186.8355 355.61229 187.51218 353.85742 188.54297 C 352.19067 189.32852 349.31293 190.78546 345.22461 192.91602 C 341.30296 194.96802 335.17555 197.95895 326.8418 201.88672 C 325.66347 199.38659 323.97075 197.74034 321.76367 196.94727 C 319.72327 196.07563 317.50811 195.69345 315.11523 195.80273 C 312.72236 195.91202 310.48491 196.35487 308.40625 197.13086 C 306.41571 197.66162 304.92193 198.16343 303.92188 198.63477 C 303.0885 199.02754 302.78972 199.47263 303.02539 199.97266 C 303.1825 200.30601 303.50153 200.76732 303.98242 201.35547 C 304.38476 201.77694 304.82164 202.48823 305.29297 203.48828 C 305.84286 204.65501 306.26545 205.9841 306.56055 207.47461 C 307.02231 208.88657 307.15435 210.24823 306.95898 211.5625 C 303.03734 213.6145 299.36693 215.5489 295.94531 217.36523 C 292.52369 219.18157 289.55656 220.88633 287.04688 222.47656 C 284.53719 224.0668 282.65113 225.46485 281.38672 226.67188 C 279.95563 227.95745 279.39672 228.93291 279.71094 229.59961 C 280.33938 230.93301 283.34916 230.83774 288.74219 229.31445 C 294.05666 227.62449 300.29371 225.29801 307.45117 222.33203 C 307.95732 232.48212 308.3204 241.68006 308.54102 249.92773 C 308.92831 258.09685 309.3748 265.52472 309.87891 272.21289 C 310.2303 276.03573 310.65201 279.58352 311.13086 282.91602 C 309.69332 284.33475 307.95937 285.77238 305.89844 287.22852 C 305.49406 283.34513 304.92328 279.54073 304.18555 275.81445 C 303.53593 271.84295 302.6258 268.40031 301.45703 265.48828 C 300.9857 264.48823 300.27449 263.19366 299.32227 261.60547 C 298.45816 259.77204 297.21659 258.21929 295.59766 256.94531 C 294.06685 255.42611 292.15262 254.3916 289.85742 253.84375 C 287.7289 253.21735 285.24949 253.57276 282.41602 254.9082 C 279.58254 256.24364 277.39165 258.29402 275.84375 261.06055 C 274.2173 263.6604 273.15834 266.60299 272.66992 269.88867 C 272.26962 272.92912 272.27746 276.18477 272.69141 279.65625 C 273.19347 282.8825 273.98987 285.86988 275.08008 288.61523 C 276.94628 293.43925 279.42336 296.752 282.51367 298.55469 C 285.52543 300.1907 288.26685 301.03832 290.73828 301.0957 C 290.26147 307.4314 289.27949 312.47736 287.79102 316.23438 C 286.30255 319.99139 284.47537 322.37917 282.30859 323.40039 C 277.80837 325.52139 273.96161 322.54791 270.76953 314.47852 C 269.28654 310.89978 268.06755 306.58527 267.11328 301.53516 C 266.15901 296.48504 265.7407 291.48779 265.85547 286.54492 C 265.89168 281.43538 266.579 276.63117 267.91992 272.12891 C 269.42752 267.54808 271.77909 263.89233 274.97461 261.16406 C 275.80798 260.77129 276.06813 260.24287 275.75391 259.57617 C 275.43968 258.90947 274.88085 258.15349 274.07617 257.31055 C 273.19293 256.30093 272.05904 255.40871 270.67578 254.63477 C 269.29252 253.86082 267.7379 253.3729 266.01172 253.16797 C 264.45222 252.88448 262.92195 253.09574 261.42188 253.80273 C 258.08837 255.37384 255.29582 258.52358 253.04297 263.25195 C 250.87823 267.73509 249.35572 272.93343 248.47656 278.84766 C 247.76408 284.68332 247.66602 290.73936 248.17969 297.01562 C 248.69336 303.29189 250.04439 308.97002 252.23438 314.04883 C 256.0549 323.45162 260.94196 329.49991 266.89648 332.19336 C 272.77245 334.72014 278.37734 334.72666 283.71094 332.21289 C 289.21121 329.62056 294.13158 325.36548 298.47266 319.44922 C 302.98041 313.4544 305.60051 305.39679 306.33008 295.27539 C 308.68647 293.7237 310.6858 292.11832 312.35742 290.46484 C 313.08302 295.00068 314.24471 298.983 315.85352 302.39648 C 317.34607 305.56331 319.64231 307.84164 322.74219 309.23242 C 325.67539 310.70176 329.05905 310.53334 332.89258 308.72656 C 335.72605 307.39112 338.0389 305.38544 339.83203 302.70703 C 341.71328 299.78339 343.1828 296.84901 344.24023 293.90625 C 344.85355 292.39249 345.36001 290.97973 345.76172 289.66797 C 346.48618 290.4293 347.23262 291.15711 348.02539 291.81641 C 350.45857 293.52141 353.2792 294.53568 356.48633 294.85742 C 359.86013 295.10061 363.63 294.23927 367.79688 292.27539 C 370.46368 291.0185 373.30689 289.27296 376.32617 287.03516 C 379.34545 284.79735 382.16842 282.1415 384.79492 279.07031 C 387.50954 275.7539 389.82053 272.01677 391.73047 267.85742 C 391.74812 267.81572 391.76372 267.77226 391.78125 267.73047 C 393.05697 268.64641 394.44669 269.45247 395.95898 270.14258 C 398.5684 271.35712 401.64312 272.0463 405.18359 272.21094 C 408.81219 272.13034 412.62675 271.14705 416.62695 269.26172 C 422.2939 266.59084 426.57398 263.3518 429.46484 259.54492 C 432.52238 255.65949 434.54887 251.74966 435.54688 247.81641 C 436.71156 243.8046 437.08777 240.06328 436.67383 236.5918 C 436.348 232.87508 435.63493 229.85103 434.53516 227.51758 C 431.86427 221.85063 427.85917 216.81241 422.52148 212.40234 C 417.10525 207.8256 411.47423 203.65507 405.62695 199.89258 L 406.02344 198.78906 C 406.12112 198.13193 406.1842 197.18494 406.21289 195.94922 C 406.40826 194.63495 406.53441 192.74292 406.5918 190.27148 C 406.58019 187.22147 406.10282 184.69541 405.16016 182.69531 C 404.13894 180.52854 402.27546 179.16679 399.56836 178.60938 C 397.60412 178.00739 395.6105 177.70572 393.58594 177.70508 z M 403.36914 211.95703 C 408.12824 216.43609 411.68631 221.17553 414.04297 226.17578 C 415.84974 230.00931 416.99362 233.95189 417.47656 238.00195 C 418.04762 241.80679 417.96196 245.51358 417.21875 249.12305 C 416.56366 252.48728 415.34 255.50909 413.54688 258.1875 C 411.75375 260.86591 409.43894 262.87159 406.60547 264.20703 C 404.27202 265.30681 401.99789 265.66633 399.78125 265.28516 C 397.65273 264.65875 395.69987 263.54287 393.92383 261.93555 C 394.3453 261.53321 394.88397 259.64939 395.53906 256.28516 C 396.28228 252.67569 397.12392 248.40811 398.0625 243.48438 C 399.00108 238.56064 399.90385 233.34802 400.77344 227.8457 C 401.73115 222.09816 402.59723 216.80221 403.36914 211.95703 z M 234.24609 218.33398 C 232.4318 218.37428 230.65156 218.70339 228.90625 219.32227 C 227.08239 219.77447 225.42 220.3555 223.91992 221.0625 C 221.08645 222.39794 218.59678 224.89536 216.45117 228.55469 C 215.67722 229.93795 214.5369 232.91918 213.0293 237.5 C 211.5217 242.08082 209.86706 247.64699 208.06641 254.19922 C 206.35388 260.50622 204.49992 267.59444 202.50391 275.46094 C 200.67456 283.24888 198.92829 290.99764 197.26562 298.70703 C 197.2998 290.13557 197.34915 282.67533 197.41406 276.33008 C 197.56709 269.73959 197.50233 265.49421 197.2168 263.5918 C 196.80285 260.12031 196.12431 257.38487 195.18164 255.38477 C 194.16042 253.21799 192.87416 251.78719 191.32422 251.0918 C 189.77428 250.3964 188.09164 250.06712 186.27734 250.10742 C 184.62972 250.06916 182.93476 250.35964 181.18945 250.97852 C 179.44415 251.59739 177.90371 252.22117 176.57031 252.84961 C 172.40344 254.81349 167.92414 257.84314 163.13086 261.93555 C 158.25903 265.86127 153.69631 270.65904 149.44336 276.33008 C 145.11185 281.83444 141.25623 288.13206 137.87695 295.22461 C 134.41912 302.15049 131.97583 309.71832 130.54883 317.92773 C 129.20995 325.89192 129.01419 334.33583 129.96094 343.25977 C 130.90768 352.1837 133.62 361.39601 138.09766 370.89648 C 141.31843 377.73016 144.65087 383.28858 148.0957 387.57227 C 151.62865 391.61072 155.05879 394.78127 158.38477 397.08398 C 161.71074 399.3867 164.77119 400.69563 167.56641 401.00781 C 170.44018 401.48667 172.79353 401.2938 174.62695 400.42969 C 176.12703 399.72269 177.4745 398.47506 178.66992 396.68945 C 179.9439 395.07052 180.93371 393.2802 181.63867 391.31836 C 182.58886 389.44464 183.20675 387.72942 183.49023 386.16992 C 183.9404 384.53186 184.04621 383.46292 183.81055 382.96289 C 183.73199 382.79622 182.66304 382.68845 180.60352 382.64062 C 178.63211 382.34757 175.2099 380.70123 170.33398 377.70312 C 169.51974 377.27209 167.45313 375.699 164.13672 372.98438 C 160.98698 370.1912 157.72358 365.21195 154.3457 358.04492 C 150.96782 350.8779 148.83459 343.32798 147.94727 335.39453 C 147.05995 327.46108 147.07673 319.71224 147.99414 312.15039 C 148.833 304.42187 150.44108 297.24817 152.82031 290.62695 C 155.28766 283.7605 158.06005 277.97291 161.13672 273.26367 C 163.52756 269.69246 166.10466 266.94918 168.86914 265.03516 C 171.55507 262.95446 173.98577 261.1968 176.16211 259.76367 C 176.49546 259.60656 176.73116 260.10846 176.86914 261.26562 C 177.00712 262.42279 177.06796 263.41252 177.04883 264.23633 C 177.17725 265.80539 177.27662 268.60989 177.34766 272.65039 C 177.41869 276.69089 177.50976 281.63934 177.62109 287.49414 C 177.82054 293.10371 178.00502 299.3305 178.17578 306.17578 C 178.34654 313.02106 178.64065 319.91035 179.05664 326.84375 C 179.13724 330.47234 179.49256 334.68515 180.12305 339.48047 C 180.67498 344.10911 181.30463 348.90324 182.01367 353.86523 C 182.81083 358.582 183.73516 363.13632 184.78711 367.5293 C 185.92718 371.67704 187.12593 375.08515 188.38281 377.75195 C 189.95392 381.08545 192.31921 383.94295 195.47852 386.32422 C 198.80449 388.62694 202.13525 388.99298 205.46875 387.42188 C 206.13545 387.10765 206.42816 386.86589 206.34961 386.69922 C 206.11394 386.19919 205.54494 385.85768 204.64258 385.67188 C 203.74021 385.48607 202.89688 384.55933 202.11133 382.89258 C 200.38311 379.22573 199.12968 372.89117 198.34961 363.88867 C 197.73621 354.80762 197.39152 344.78465 197.31641 333.82031 C 197.36219 328.29887 198.37272 322.0173 200.34961 314.97461 C 202.3265 307.93192 204.67629 300.81524 207.39844 293.625 C 210.28726 286.35621 213.29348 279.33713 216.41797 272.56836 C 219.63057 265.55436 222.659 259.44364 225.5 254.23438 C 225.82787 261.41301 225.935 269.20459 225.82227 277.60938 C 225.79765 285.76893 225.97794 293.93244 226.36523 302.10156 C 226.9192 310.19213 227.72941 317.95935 228.79297 325.40234 C 229.94465 332.6001 231.81588 338.94894 234.4082 344.44922 C 236.13642 348.11607 238.62367 351.01826 241.87109 353.1543 C 245.03996 355.12366 248.2915 355.32111 251.625 353.75 C 251.95835 353.59289 252.08637 353.4323 252.00781 353.26562 C 251.8507 352.93227 251.32034 352.67213 250.41797 352.48633 C 249.68228 352.22197 248.9609 351.33992 248.25391 349.83984 C 246.91846 347.00637 245.95551 342.36872 245.36328 335.92578 C 244.77105 329.48284 244.40378 322.21967 244.26172 314.13867 C 244.0411 305.891 243.99099 297.35966 244.11328 288.54297 C 244.15702 279.5596 244.31004 271.23765 244.57031 263.57812 L 245.04297 243.18945 C 245.17687 237.42278 245.10193 233.58796 244.81641 231.68555 C 244.60943 229.94981 244.39623 228.41954 244.17969 227.0957 C 243.96315 225.77187 243.61977 224.60943 243.14844 223.60938 C 242.20577 221.60927 240.96009 220.2618 239.41016 219.56641 C 237.78166 218.70434 236.06039 218.29369 234.24609 218.33398 z M 362.12891 226.88672 C 362.42742 226.8988 362.71896 226.93933 363.00586 227.00781 C 364.0749 227.11506 364.84097 227.87515 365.30273 229.28711 C 366.15728 231.53244 366.17939 234.17029 365.36719 237.20117 C 364.55498 240.23206 363.32938 243.25387 361.69336 246.26562 C 360.14546 249.03215 358.31418 251.62717 356.19727 254.05078 C 354.0018 256.30772 351.98772 257.86831 350.1543 258.73242 C 349.60033 250.64186 350.37927 243.65311 352.49414 237.76758 C 353.53245 235.64862 354.52833 233.65302 355.47852 231.7793 C 356.35015 229.7389 357.61841 228.32462 359.28516 227.53906 C 360.28521 227.06773 361.23337 226.85047 362.12891 226.88672 z M 390.67578 242.07812 C 390.77551 244.88291 390.7143 247.55939 390.49023 250.10938 C 390.35429 252.41413 390.26267 254.59672 390.21484 256.65625 C 389.11507 254.3228 388.55437 251.83733 388.5332 249.19922 C 388.51203 246.56111 389.22557 244.18751 390.67578 242.07812 z M 286.13086 270.57227 C 286.86655 270.83662 287.54929 271.63535 288.17773 272.96875 C 289.26795 275.71411 289.81847 278.6121 289.83008 281.66211 C 290.00836 284.63357 290.23165 287.48276 290.49805 290.20898 C 288.86955 289.34692 287.65234 288.49528 286.84766 287.65234 C 286.13109 286.56417 285.3793 285.18628 284.59375 283.51953 C 283.81776 281.44088 283.37491 279.20538 283.26562 276.8125 C 283.24446 274.17439 284.19975 272.09351 286.13086 270.57227 z "
         transform="matrix(0.1309122,0.06170004,-0.06170004,0.1309122,109.89055,247.56837)"
         id="path4790" />
    </g>
    <path
       style="fill:url(#linearGradient4165);fill-rule:evenodd;stroke:none;stroke-width:1px;stroke-linecap:butt;stroke-linejoin:miter;stroke-opacity:1;fill-opacity:1;opacity:0.601"
       d="M 280.71428,674.50502 462.5,856.29074 427.5,892.71931 245.71428,710.93359 Z"
       id="path4155"
       inkscape:connector-curvature="0"
       sodipodi:nodetypes="ccccc" />
    <circle
       r="25"
       cy="695.93359"
       cx="266.42856"
       id="circle4149"
       style="opacity:1;fill:#e7482e;fill-opacity:1;stroke:none;stroke-width:20;stroke-linecap:round;stroke-linejoin:round;stroke-miterlimit:4;stroke-dasharray:none;stroke-opacity:1" />
    <circle
       style="opacity:1;fill:#eb6550;fill-opacity:1;stroke:none;stroke-width:20;stroke-linecap:round;stroke-linejoin:round;stroke-miterlimit:4;stroke-dasharray:none;stroke-opacity:1"
       id="path4147"
       cx="266.42856"
       cy="695.93359"
       r="20" />
  </g>
</svg>
