<?xml version="1.0" encoding="UTF-8" standalone="no"?>
<svg
   xmlns:dc="http://purl.org/dc/elements/1.1/"
   xmlns:cc="http://creativecommons.org/ns#"
   xmlns:rdf="http://www.w3.org/1999/02/22-rdf-syntax-ns#"
   xmlns:svg="http://www.w3.org/2000/svg"
   xmlns="http://www.w3.org/2000/svg"
   xmlns:sodipodi="http://sodipodi.sourceforge.net/DTD/sodipodi-0.dtd"
   xmlns:inkscape="http://www.inkscape.org/namespaces/inkscape"
   version="1.1"
   id="Layer_1"
   x="0px"
   y="0px"
   width="512"
   height="512"
   viewBox="0 0 512 512"
   enable-background="new 0 0 100 100"
   xml:space="preserve"
   inkscape:version="0.48.4 r9939"
   sodipodi:docname="krita.svg"><metadata
     id="metadata8"><rdf:RDF><cc:Work
         rdf:about=""><dc:format>image/svg+xml</dc:format><dc:type
           rdf:resource="http://purl.org/dc/dcmitype/StillImage" /><dc:title /></cc:Work></rdf:RDF></metadata><defs
     id="defs6"><clipPath
       id="clipPath4275"
       clipPathUnits="userSpaceOnUse"><path
         inkscape:connector-curvature="0"
         id="path4277"
         d="m 63.727539,106.45411 v 26.70507 5.3418 16.02148 251.02344 h 40.578131 96.13672 100.43359 147.39648 V 258.14942 106.45411 H 189.76075 104.30567 Z"
         style="opacity:1;fill:#424242;fill-opacity:1;stroke:none;stroke-width:21.36363602;stroke-linecap:round;stroke-linejoin:round;stroke-miterlimit:4;stroke-dasharray:none;stroke-opacity:0.55" /></clipPath><clipPath
       clipPathUnits="userSpaceOnUse"
       id="clipPath3856"><path
         sodipodi:nodetypes="cscsccccsccc"
         inkscape:connector-curvature="0"
         id="path3858"
         d="m 1390,-159.25 c -2.6127,0.0409 -5.1785,1.1577 -7,3.03125 -1.8215,1.87354 -2.8764,4.4809 -2.8438,7.09375 0,0 -15.2187,55.333421 -15.2187,83.6875 0,28.354079 15.2187,83.6875 15.2187,83.6875 0.9232,15.068495 0.4063,30.851 0.4063,46.1875 l 18,0 c -2.025,-14.71118 1.625,-32.821268 1.5937,-46.1875 0,0 14.0626,-55.40074 14.0626,-83.6875 0,-28.28676 -14.0626,-83.6875 -14.0626,-83.6875 0.033,-2.66492 -1.05,-5.33713 -2.9374,-7.21875 -1.8876,-1.88163 -4.554,-2.94782 -7.2188,-2.90625 z"
         style="font-size:medium;font-style:normal;font-variant:normal;font-weight:normal;font-stretch:normal;text-indent:0;text-align:start;text-decoration:none;line-height:normal;letter-spacing:normal;word-spacing:normal;text-transform:none;direction:ltr;block-progression:tb;writing-mode:lr-tb;text-anchor:start;baseline-shift:baseline;color:#000000;fill:#1f2831;fill-opacity:1;stroke:none;stroke-width:20;marker:none;visibility:visible;display:inline;overflow:visible;enable-background:accumulate;font-family:Sans;-inkscape-font-specification:Sans" /></clipPath></defs><sodipodi:namedview
     pagecolor="#ffffff"
     bordercolor="#666666"
     borderopacity="1"
     objecttolerance="10"
     gridtolerance="10"
     guidetolerance="10"
     inkscape:pageopacity="0"
     inkscape:pageshadow="2"
     inkscape:window-width="1360"
     inkscape:window-height="717"
     id="namedview4"
     showgrid="false"
     inkscape:zoom="0.2133789"
     inkscape:cx="1283.7764"
     inkscape:cy="118.02067"
     inkscape:window-x="0"
     inkscape:window-y="25"
     inkscape:window-maximized="1"
     inkscape:current-layer="Layer_1" /><path
     sodipodi:type="arc"
     style="fill:#00afff;fill-opacity:1;fill-rule:evenodd;stroke:none"
     id="path3029"
     sodipodi:cx="879.00012"
     sodipodi:cy="358.73419"
     sodipodi:rx="204.63055"
     sodipodi:ry="204.63055"
     d="m 1083.6307,358.73419 a 204.63055,204.63055 0 1 1 -409.26113,0 204.63055,204.63055 0 1 1 409.26113,0 z"
     transform="matrix(1.0343469,0,0,1.0343469,-659.9608,-104.68358)" /><g
     id="g3344"
     transform="matrix(1.0698132,0,0,1.0698132,-189.19775,344.88864)" /><g
     id="g3346"
     transform="matrix(1.0698132,0,0,1.0698132,-189.19775,344.88864)" /><g
     id="g3348"
     transform="matrix(1.0698132,0,0,1.0698132,-189.19775,344.88864)" /><g
     id="g3350"
     transform="matrix(1.0698132,0,0,1.0698132,-189.19775,344.88864)" /><g
     id="g3352"
     transform="matrix(1.0698132,0,0,1.0698132,-189.19775,344.88864)" /><g
     id="g3354"
     transform="matrix(1.0698132,0,0,1.0698132,-189.19775,344.88864)" /><g
     id="g3356"
     transform="matrix(1.0698132,0,0,1.0698132,-189.19775,344.88864)" /><g
     id="g3358"
     transform="matrix(1.0698132,0,0,1.0698132,-189.19775,344.88864)" /><g
     id="g3360"
     transform="matrix(1.0698132,0,0,1.0698132,-189.19775,344.88864)" /><g
     id="g3362"
     transform="matrix(1.0698132,0,0,1.0698132,-189.19775,344.88864)" /><g
     id="g3364"
     transform="matrix(1.0698132,0,0,1.0698132,-189.19775,344.88864)" /><g
     id="g3366"
     transform="matrix(1.0698132,0,0,1.0698132,-189.19775,344.88864)" /><g
     id="g3368"
     transform="matrix(1.0698132,0,0,1.0698132,-189.19775,344.88864)" /><g
     id="g3370"
     transform="matrix(1.0698132,0,0,1.0698132,-189.19775,344.88864)" /><g
     id="g3372"
     transform="matrix(1.0698132,0,0,1.0698132,-189.19775,344.88864)" /><g
     id="g3829"
     transform="matrix(1.0343469,0,0,1.0343469,-1099.8402,-101.25427)"><path
       inkscape:connector-curvature="0"
       id="rect3799"
       d="m 1166.3352,204.24697 c -40.9847,37.42717 -66.6875,91.31501 -66.6875,151.1875 0,59.87175 25.7037,113.73739 66.6875,151.15625 l 0,-302.34375 z"
       style="color:#000000;fill:#7dd5bb;fill-opacity:1;fill-rule:evenodd;stroke:none;stroke-width:200;marker:none;visibility:visible;display:inline;overflow:visible;enable-background:accumulate" /><path
       inkscape:connector-curvature="0"
       id="rect3801"
       d="m 1298.9915,150.84072 c -51.5126,1.30545 -98.2849,21.66929 -133.5625,54.28125 l 0,300.625 c 35.3902,32.70446 82.3582,53.06416 134.0625,54.25 l 0,-409.15625 c -0.1663,0.004 -0.3339,-0.004 -0.5,0 z"
       style="color:#000000;fill:#7db4d5;fill-opacity:1;fill-rule:evenodd;stroke:none;stroke-width:200;marker:none;visibility:visible;display:inline;overflow:visible;enable-background:accumulate" /><path
       inkscape:connector-curvature="0"
       id="rect3803"
       d="m 1304.2727,150.77822 c -1.9027,0 -3.7973,0.0421 -5.6875,0.0937 l 0,409.09375 c 1.8902,0.0516 3.7848,0.0937 5.6875,0.0937 48.6172,0 93.2689,-16.96345 128.375,-45.28125 l 0,-318.6875 c -35.1072,-28.32786 -79.7545,-45.3125 -128.375,-45.3125 z"
       style="color:#000000;fill:#d5cd7d;fill-opacity:1;fill-rule:evenodd;stroke:none;stroke-width:200;marker:none;visibility:visible;display:inline;overflow:visible;enable-background:accumulate" /><path
       inkscape:connector-curvature="0"
       id="rect3805"
       d="m 1431.7414,195.34072 0,320.15625 c 47.0204,-37.49142 77.1563,-95.24774 77.1563,-160.0625 0,-64.81685 -30.1333,-122.59367 -77.1563,-160.09375 z"
       style="color:#000000;fill:#d57dd5;fill-opacity:1;fill-rule:evenodd;stroke:none;stroke-width:200;marker:none;visibility:visible;display:inline;overflow:visible;enable-background:accumulate" /></g><path
     style="fill:#2f4160;fill-opacity:1;fill-rule:evenodd;stroke:none"
     d="m 460.88921,266.37202 c 0,3.653 -0.0931,7.28438 -0.27545,10.89194 -0.18287,3.60755 -0.45604,7.19128 -0.81734,10.74896 -0.36129,3.55768 -0.81072,7.0893 -1.346,10.59267 -0.53526,3.50337 -1.1565,6.97847 -1.8614,10.4231 -0.70481,3.44462 -1.49339,6.85876 -2.36338,10.24021 -0.86999,3.38144 -1.82149,6.73018 -2.85221,10.04402 -1.03073,3.31384 -2.14069,6.59276 -3.3276,9.83456 -1.18702,3.24178 -2.45099,6.44645 -3.78985,9.61176 -1.33876,3.16532 -2.75239,6.29129 -4.23865,9.37569 -1.48625,3.08442 -3.04501,6.12726 -4.67421,9.12633 -1.6292,2.99906 -3.32873,5.95435 -5.09654,8.86364 -1.76769,2.90928 -3.60356,5.77258 -5.50542,8.58766 -1.90185,2.81509 -3.86959,5.58196 -5.90115,8.2984 -2.03146,2.71645 -4.12673,5.38245 -6.28345,7.99582 -2.15671,2.61337 -4.37498,5.1741 -6.6525,7.67995 -2.27753,2.50586 -4.61443,4.95686 -7.00833,7.35079 -2.39389,2.39392 -4.84498,4.73076 -7.35078,7.00831 -2.50592,2.27755 -5.06655,4.4958 -7.67993,6.65254 -2.61338,2.15674 -5.27941,4.25198 -7.99581,6.28349 -2.71649,2.0315 -5.48336,3.99928 -8.29844,5.9011 -2.81509,1.90183 -5.67838,3.73773 -8.58767,5.50546 -2.9093,1.76773 -5.86458,3.4673 -8.86365,5.09648 -2.99907,1.62919 -6.04191,3.188 -9.12631,4.67423 -3.08441,1.48621 -6.21039,2.89984 -9.3757,4.23866 -3.16532,1.33881 -6.36997,2.60282 -9.61177,3.78979 -3.24179,1.18698 -6.52071,2.29693 -9.83455,3.32765 -3.31383,1.03071 -6.66258,1.98217 -10.04402,2.85218 -3.38145,0.87001 -6.79559,1.65855 -10.24021,2.36342 -3.44463,0.70488 -6.91974,1.32608 -10.4231,1.86138 -3.50337,0.53529 -7.03499,0.98471 -10.59267,1.34602 -3.55768,0.3613 -7.14141,0.63449 -10.74896,0.81736 -3.60756,0.18286 -7.23894,0.27541 -10.89195,0.27541 -3.653,0 -7.28439,-0.0926 -10.89194,-0.27541 -3.60755,-0.18287 -7.19128,-0.45606 -10.74895,-0.81736 -3.55768,-0.36131 -7.08932,-0.81073 -10.59268,-1.34602 -3.50337,-0.5353 -6.97846,-1.1565 -10.42309,-1.86138 -3.44462,-0.70487 -6.85877,-1.49341 -10.24021,-2.36342 -3.38144,-0.87001 -6.7302,-1.82147 -10.04403,-2.85218 -3.31383,-1.03072 -6.59276,-2.14067 -9.83454,-3.32765 -3.2418,-1.18697 -6.44647,-2.45098 -9.61177,-3.78979 -3.16533,-1.33882 -6.29129,-2.75245 -9.3757,-4.23866 -3.08441,-1.48623 -6.12725,-3.04504 -9.12632,-4.67423 -2.99907,-1.62918 -5.95435,-3.32875 -8.86363,-5.09648 -2.90931,-1.76773 -5.7726,-3.60363 -8.58769,-5.50546 -2.81507,-1.90182 -5.58194,-3.8696 -8.29839,-5.9011 -2.71644,-2.03151 -5.38244,-4.12675 -7.99581,-6.28349 -2.61337,-2.15674 -5.1741,-4.37499 -7.67996,-6.65254 -2.50586,-2.27755 -4.95686,-4.61439 -7.35078,-7.00831 -2.393926,-2.39393 -4.730768,-4.84493 -7.008318,-7.35079 -2.277542,-2.50585 -4.4958,-5.06658 -6.652547,-7.67995 -2.156738,-2.61337 -4.251973,-5.27937 -6.283479,-7.99582 -2.031496,-2.71644 -3.999281,-5.48331 -5.901108,-8.2984 -1.901824,-2.81508 -3.737718,-5.67838 -5.505448,-8.58766 -1.76773,-2.90929 -3.467296,-5.86458 -5.096485,-8.86364 -1.62919,-2.99907 -3.188003,-6.04191 -4.674224,-9.12633 -1.486211,-3.0844 -2.899844,-6.21037 -4.23866,-9.37569 -1.338818,-3.16531 -2.60282,-6.36998 -3.789796,-9.61176 -1.186986,-3.2418 -2.296932,-6.52072 -3.327649,-9.83456 -1.030706,-3.31384 -1.98217,-6.66258 -2.852181,-10.04402 -0.870009,-3.38145 -1.658554,-6.79559 -2.36342,-10.24021 -0.704876,-3.44463 -1.326074,-6.91973 -1.86138,-10.4231 -0.535294,-3.50337 -0.984708,-7.03499 -1.346016,-10.59267 -0.361297,-3.55768 -0.634489,-7.14141 -0.817361,-10.74896 -0.182862,-3.60756 -0.275405,-7.23894 -0.275405,-10.89194 0,0 18.924545,-4.58624 26.457372,0 14.281093,8.6948 6.316363,44.09767 23.029684,44.55978 21.871111,0.60473 11.526125,-54.5432 33.312741,-56.55664 24.14128,-2.23107 23.58425,56.47785 47.77322,54.8428 17.05362,-1.15272 16.23173,-30.6147 28.17122,-42.84594 7.00832,-7.17958 15.12699,-19.99934 24.74353,-17.13838 19.51013,5.80434 2.69408,55.66303 23.0297,56.55664 20.53189,0.90224 8.59852,-48.57525 28.17122,-54.84281 10.67625,-3.41874 22.01655,7.43974 29.88504,15.42455 12.0932,12.27195 5.82732,45.31232 23.0297,46.27363 18.33309,1.02446 11.72608,-43.55273 29.88506,-46.27363 22.80463,-3.41701 30.17849,48.40523 52.91477,44.55978 17.03229,-2.8807 11.44506,-36.01422 26.45736,-44.55978 7.6644,-4.36285 26.45735,0 26.45735,0 z"
     id="path3901"
     inkscape:connector-curvature="0"
     sodipodi:nodetypes="cssssssssssssssssssssssssssssssssssssssssssssssssssssssssssssssscaaaaaaaaaaaaac" /><path
     style="font-size:medium;font-style:normal;font-variant:normal;font-weight:normal;font-stretch:normal;text-indent:0;text-align:start;text-decoration:none;line-height:normal;letter-spacing:normal;word-spacing:normal;text-transform:none;direction:ltr;block-progression:tb;writing-mode:lr-tb;text-anchor:start;baseline-shift:baseline;color:#000000;fill:#000000;fill-opacity:0.11538463;stroke:none;stroke-width:20;marker:none;visibility:visible;display:inline;overflow:visible;enable-background:accumulate;font-family:Sans;-inkscape-font-specification:Sans"
     d="m 184.42511,127.22178 c -1.72125,-0.0127 -3.45606,0.38812 -4.9779,1.19595 -2.38716,1.2674 -4.21424,3.52615 -5.01006,6.10912 -0.79593,2.58296 -0.54872,5.46333 0.71111,7.85456 0,0 12.02832,58.11898 25.37377,84.23463 13.34545,26.11564 53.43053,69.91538 53.43053,69.91538 0.74836,1.26672 1.46619,2.55772 2.19799,3.84647 l 12.92934,24.69504 c 0.0104,0.0129 0.0258,0.0194 0.0321,0.0324 -0.13022,0.25372 -0.22011,0.41249 -0.35561,0.67879 -5.42939,13.11204 -4.99962,35.08803 12.02428,48.93754 19.60977,15.95319 34.6321,29.50131 40.53347,41.76175 5.54193,11.51378 11.86489,-40.92448 -1.81011,-67.68507 -10.53751,-20.62065 -23.7034,-30.12661 -34.32738,-31.77384 -0.0145,-0.0307 -0.0186,-0.0663 -0.0321,-0.0969 l -10.89292,-25.82635 c -0.62671,-1.37129 -1.26128,-2.71921 -1.90703,-3.97577 0,0 -13.09451,-57.63148 -26.40822,-83.68513 -13.3138,-26.05363 -52.3638,-70.46487 -52.3638,-70.46487 -1.22384,-2.47006 -3.48503,-4.42397 -6.10917,-5.2687 -0.98408,-0.31674 -2.0056,-0.47727 -3.03829,-0.48485 z"
     id="path3867"
     inkscape:connector-curvature="0"
     sodipodi:nodetypes="scccscccccsssccccsccs" /><g
     id="g3860"
     transform="matrix(0.92105426,-0.47067243,0.47067243,0.92105426,-1039.1799,920.85409)"><path
       sodipodi:nodetypes="cscsccccsccc"
       inkscape:connector-curvature="0"
       id="path3835"
       d="m 1390,-159.25 c -2.6127,0.0409 -5.1785,1.1577 -7,3.03125 -1.8215,1.87354 -2.8764,4.4809 -2.8438,7.09375 0,0 -15.2187,55.333421 -15.2187,83.6875 0,28.354079 15.2187,83.6875 15.2187,83.6875 0.9232,15.068495 0.4063,30.851 0.4063,46.1875 l 18,0 c -2.025,-14.71118 1.625,-32.821268 1.5937,-46.1875 0,0 14.0626,-55.40074 14.0626,-83.6875 0,-28.28676 -14.0626,-83.6875 -14.0626,-83.6875 0.033,-2.66492 -1.05,-5.33713 -2.9374,-7.21875 -1.8876,-1.88163 -4.554,-2.94782 -7.2188,-2.90625 z"
       style="font-size:medium;font-style:normal;font-variant:normal;font-weight:normal;font-stretch:normal;text-indent:0;text-align:start;text-decoration:none;line-height:normal;letter-spacing:normal;word-spacing:normal;text-transform:none;direction:ltr;block-progression:tb;writing-mode:lr-tb;text-anchor:start;baseline-shift:baseline;color:#000000;fill:#1f2831;fill-opacity:1;stroke:none;stroke-width:20;marker:none;visibility:visible;display:inline;overflow:visible;enable-background:accumulate;font-family:Sans;-inkscape-font-specification:Sans" /><path
       sodipodi:nodetypes="sssccs"
       inkscape:connector-curvature="0"
       id="path3843"
       d="m 1413.6202,92.081563 c 0,29.054297 -28.5208,71.401687 -28.2266,59.051387 0.3133,-13.15122 -6.6468,-31.41801 -16.5105,-53.77908 -8.563,-19.412402 0.721,-38.527002 11.1636,-47.426568 12.3918,-8.992013 10.4043,-5.932637 17.5699,-0.62174 8.6087,5.920917 16.0036,20.003727 16.0036,42.776001 z"
       style="fill:#ff557d;fill-opacity:1;fill-rule:evenodd;stroke:none" /><path
       transform="matrix(1,0,0,0.9353816,0,1.4549286)"
       inkscape:connector-curvature="0"
       clip-path="url(#clipPath3856)"
       id="rect3851"
       d="m 1354.1764,22.515701 90.073,0 c 7.9906,0 14.4234,6.432869 14.4234,14.423474 0,7.990604 -6.4328,14.423473 -14.4234,14.423473 l -90.073,0 c -7.9906,0 -14.4235,-6.432869 -14.4235,-14.423473 0,-7.990605 6.4329,-14.423474 14.4235,-14.423474 z"
       style="color:#000000;fill:#fff5eb;fill-opacity:1;fill-rule:evenodd;stroke:none;stroke-width:18;marker:none;visibility:visible;display:inline;overflow:visible;enable-background:accumulate" /></g><path
     style="fill:#ffffff;fill-opacity:0.05714285;fill-rule:evenodd;stroke:none"
     d="m 249.22343,54.720305 c -116.89599,0 -211.653232,94.757215 -211.653232,211.653235 0,70.64703 34.630854,133.19041 87.822562,171.63693 C 76.102081,399.25795 44.422746,339.0772 44.422746,271.51295 c 0,-116.89602 94.757234,-211.653234 211.653234,-211.653234 46.23581,0 89.01423,14.828093 123.83066,39.983979 C 343.92295,71.56554 298.53891,54.720305 249.22343,54.720305 z"
     id="path3891"
     inkscape:connector-curvature="0" /><path
     style="fill:#000000;fill-opacity:0.12857145;fill-rule:evenodd;stroke:none"
     d="m 434.98561,164.87825 c 10.06875,24.51907 15.61222,51.24552 15.61222,79.2245 0,118.78909 -99.75634,215.07951 -222.80472,215.07951 -41.81617,0 -80.92565,-11.13519 -114.36008,-30.48092 36.75593,30.78154 84.09746,49.32543 135.7904,49.32543 116.89598,0 211.65322,-94.75721 211.65322,-211.65323 0,-36.78373 -9.38763,-71.35768 -25.89104,-101.49529 z"
     id="path3896"
     inkscape:connector-curvature="0" /></svg>