<?xml version="1.0" encoding="UTF-8" standalone="no"?>
<svg
   xmlns:dc="http://purl.org/dc/elements/1.1/"
   xmlns:cc="http://creativecommons.org/ns#"
   xmlns:rdf="http://www.w3.org/1999/02/22-rdf-syntax-ns#"
   xmlns:svg="http://www.w3.org/2000/svg"
   xmlns="http://www.w3.org/2000/svg"
   xmlns:xlink="http://www.w3.org/1999/xlink"
   xmlns:sodipodi="http://sodipodi.sourceforge.net/DTD/sodipodi-0.dtd"
   xmlns:inkscape="http://www.inkscape.org/namespaces/inkscape"
   version="1.1"
   id="Layer_1"
   x="0px"
   y="0px"
   width="512"
   height="512"
   viewBox="0 0 512 512"
   enable-background="new 0 0 100 100"
   xml:space="preserve"
   inkscape:version="0.92.1 r15371"
   sodipodi:docname="krita.svg"><metadata
     id="metadata8"><rdf:RDF><cc:Work
         rdf:about=""><dc:format>image/svg+xml</dc:format><dc:type
           rdf:resource="http://purl.org/dc/dcmitype/StillImage" /><dc:title /></cc:Work></rdf:RDF></metadata><defs
     id="defs6"><linearGradient
       id="linearGradient868"
       inkscape:collect="always"><stop
         id="stop864"
         offset="0"
         style="stop-color:#000000;stop-opacity:1" /><stop
         id="stop866"
         offset="1"
         style="stop-color:#000000;stop-opacity:0.01149425" /></linearGradient><clipPath
       id="clipPath4275"
       clipPathUnits="userSpaceOnUse"><path
         inkscape:connector-curvature="0"
         id="path4277"
         d="m 63.727539,106.45411 v 26.70507 5.3418 16.02148 251.02344 h 40.578131 96.13672 100.43359 147.39648 V 258.14942 106.45411 H 189.76075 104.30567 Z"
         style="opacity:1;fill:#424242;fill-opacity:1;stroke:none;stroke-width:21.36363602;stroke-linecap:round;stroke-linejoin:round;stroke-miterlimit:4;stroke-dasharray:none;stroke-opacity:0.55" /></clipPath><clipPath
       clipPathUnits="userSpaceOnUse"
       id="clipPath3856"><path
         sodipodi:nodetypes="cscsccccsccc"
         inkscape:connector-curvature="0"
         id="path3858"
         d="m 1390,-159.25 c -2.6127,0.0409 -5.1785,1.1577 -7,3.03125 -1.8215,1.87354 -2.8764,4.4809 -2.8438,7.09375 0,0 -15.2187,55.333421 -15.2187,83.6875 0,28.354079 15.2187,83.6875 15.2187,83.6875 0.9232,15.068495 0.4063,30.851 0.4063,46.1875 l 18,0 c -2.025,-14.71118 1.625,-32.821268 1.5937,-46.1875 0,0 14.0626,-55.40074 14.0626,-83.6875 0,-28.28676 -14.0626,-83.6875 -14.0626,-83.6875 0.033,-2.66492 -1.05,-5.33713 -2.9374,-7.21875 -1.8876,-1.88163 -4.554,-2.94782 -7.2188,-2.90625 z"
         style="font-size:medium;font-style:normal;font-variant:normal;font-weight:normal;font-stretch:normal;text-indent:0;text-align:start;text-decoration:none;line-height:normal;letter-spacing:normal;word-spacing:normal;text-transform:none;direction:ltr;block-progression:tb;writing-mode:lr-tb;text-anchor:start;baseline-shift:baseline;color:#000000;fill:#1f2831;fill-opacity:1;stroke:none;stroke-width:20;marker:none;visibility:visible;display:inline;overflow:visible;enable-background:accumulate;font-family:Sans;-inkscape-font-specification:Sans" /></clipPath><linearGradient
       inkscape:collect="always"
       xlink:href="#linearGradient868"
       id="linearGradient860"
       x1="-336.25632"
       y1="-135.61557"
       x2="306.37988"
       y2="441.99542"
       gradientUnits="userSpaceOnUse" /><linearGradient
       inkscape:collect="always"
       xlink:href="#linearGradient868"
       id="linearGradient862"
       x1="-171.05724"
       y1="-194.19681"
       x2="457.5195"
       y2="391.61557"
       gradientUnits="userSpaceOnUse" /><clipPath
       clipPathUnits="userSpaceOnUse"
       id="clipPath884"><g
         transform="matrix(1.0343469,0,0,1.0343469,-1099.8402,-101.25427)"
         id="g894"><path
           style="color:#000000;display:inline;overflow:visible;visibility:visible;fill:#67d5bb;fill-opacity:1;fill-rule:evenodd;stroke:none;stroke-width:200;marker:none;enable-background:accumulate"
           d="m 1166.3352,204.24697 c -40.9847,37.42717 -66.6875,91.31501 -66.6875,151.1875 0,59.87175 25.7037,113.73739 66.6875,151.15625 z"
           id="path886"
           inkscape:connector-curvature="0" /><path
           style="color:#000000;display:inline;overflow:visible;visibility:visible;fill:#5bb4d5;fill-opacity:1;fill-rule:evenodd;stroke:none;stroke-width:200;marker:none;enable-background:accumulate"
           d="m 1298.9915,150.84072 c -51.5126,1.30545 -98.2849,21.66929 -133.5625,54.28125 v 300.625 c 35.3902,32.70446 82.3582,53.06416 134.0625,54.25 V 150.84072 c -0.1663,0.004 -0.3339,-0.004 -0.5,0 z"
           id="path888"
           inkscape:connector-curvature="0" /><path
           style="color:#000000;display:inline;overflow:visible;visibility:visible;fill:#e3dc7a;fill-opacity:1;fill-rule:evenodd;stroke:none;stroke-width:200;marker:none;enable-background:accumulate"
           d="m 1304.2727,150.77822 c -1.9027,0 -3.7973,0.0421 -5.6875,0.0937 v 409.09375 c 1.8902,0.0516 3.7848,0.0937 5.6875,0.0937 48.6172,0 93.2689,-16.96345 128.375,-45.28125 v -318.6875 c -35.1072,-28.32786 -79.7545,-45.3125 -128.375,-45.3125 z"
           id="path890"
           inkscape:connector-curvature="0" /><path
           style="color:#000000;display:inline;overflow:visible;visibility:visible;fill:#d66089;fill-opacity:1;fill-rule:evenodd;stroke:none;stroke-width:200;marker:none;enable-background:accumulate"
           d="m 1431.7414,195.34072 v 320.15625 c 47.0204,-37.49142 77.1563,-95.24774 77.1563,-160.0625 0,-64.81685 -30.1333,-122.59367 -77.1563,-160.09375 z"
           id="path892"
           inkscape:connector-curvature="0" /></g></clipPath></defs><sodipodi:namedview
     pagecolor="#ffffff"
     bordercolor="#666666"
     borderopacity="1"
     objecttolerance="10"
     gridtolerance="10"
     guidetolerance="10"
     inkscape:pageopacity="0"
     inkscape:pageshadow="2"
     inkscape:window-width="1920"
     inkscape:window-height="1040"
     id="namedview4"
     showgrid="false"
     inkscape:zoom="0.4267578"
     inkscape:cx="-116.17358"
     inkscape:cy="210.22494"
     inkscape:window-x="0"
     inkscape:window-y="0"
     inkscape:window-maximized="1"
     inkscape:current-layer="Layer_1" /><path
     sodipodi:type="arc"
     style="fill:#00afff;fill-opacity:1;fill-rule:evenodd;stroke:none"
     id="path3029"
     sodipodi:cx="879.00012"
     sodipodi:cy="358.73419"
     sodipodi:rx="204.63055"
     sodipodi:ry="204.63055"
     d="m 1083.6307,358.73419 a 204.63055,204.63055 0 1 1 -409.26113,0 204.63055,204.63055 0 1 1 409.26113,0 z"
     transform="matrix(1.0343469,0,0,1.0343469,-659.9608,-104.68358)" /><g
     id="g3344"
     transform="matrix(1.0698132,0,0,1.0698132,-189.19775,344.88864)" /><g
     id="g3346"
     transform="matrix(1.0698132,0,0,1.0698132,-189.19775,344.88864)" /><g
     id="g3348"
     transform="matrix(1.0698132,0,0,1.0698132,-189.19775,344.88864)" /><g
     id="g3350"
     transform="matrix(1.0698132,0,0,1.0698132,-189.19775,344.88864)" /><g
     id="g3352"
     transform="matrix(1.0698132,0,0,1.0698132,-189.19775,344.88864)" /><g
     id="g3354"
     transform="matrix(1.0698132,0,0,1.0698132,-189.19775,344.88864)" /><g
     id="g3356"
     transform="matrix(1.0698132,0,0,1.0698132,-189.19775,344.88864)" /><g
     id="g3358"
     transform="matrix(1.0698132,0,0,1.0698132,-189.19775,344.88864)" /><g
     id="g3360"
     transform="matrix(1.0698132,0,0,1.0698132,-189.19775,344.88864)" /><g
     id="g3362"
     transform="matrix(1.0698132,0,0,1.0698132,-189.19775,344.88864)" /><g
     id="g3364"
     transform="matrix(1.0698132,0,0,1.0698132,-189.19775,344.88864)" /><g
     id="g3366"
     transform="matrix(1.0698132,0,0,1.0698132,-189.19775,344.88864)" /><g
     id="g3368"
     transform="matrix(1.0698132,0,0,1.0698132,-189.19775,344.88864)" /><g
     id="g3370"
     transform="matrix(1.0698132,0,0,1.0698132,-189.19775,344.88864)" /><g
     id="g3372"
     transform="matrix(1.0698132,0,0,1.0698132,-189.19775,344.88864)" /><g
     id="g3829"
     transform="matrix(1.0343469,0,0,1.0343469,-1099.8402,-101.25427)"><path
       inkscape:connector-curvature="0"
       id="rect3799"
       d="m 1166.3352,204.24697 c -40.9847,37.42717 -66.6875,91.31501 -66.6875,151.1875 0,59.87175 25.7037,113.73739 66.6875,151.15625 l 0,-302.34375 z"
       style="color:#000000;fill:#58e4c3;fill-opacity:1;fill-rule:evenodd;stroke:none;stroke-width:200;marker:none;visibility:visible;display:inline;overflow:visible;enable-background:accumulate" /><path
       inkscape:connector-curvature="0"
       id="rect3801"
       d="m 1298.9915,150.84072 c -51.5126,1.30545 -98.2849,21.66929 -133.5625,54.28125 l 0,300.625 c 35.3902,32.70446 82.3582,53.06416 134.0625,54.25 l 0,-409.15625 c -0.1663,0.004 -0.3339,-0.004 -0.5,0 z"
       style="color:#000000;fill:#32b3fe;fill-opacity:1;fill-rule:evenodd;stroke:none;stroke-width:200;marker:none;visibility:visible;display:inline;overflow:visible;enable-background:accumulate" /><path
       inkscape:connector-curvature="0"
       id="rect3803"
       d="m 1304.2727,150.77822 c -1.9027,0 -3.7973,0.0421 -5.6875,0.0937 l 0,409.09375 c 1.8902,0.0516 3.7848,0.0937 5.6875,0.0937 48.6172,0 93.2689,-16.96345 128.375,-45.28125 l 0,-318.6875 c -35.1072,-28.32786 -79.7545,-45.3125 -128.375,-45.3125 z"
       style="color:#000000;fill:#f5d368;fill-opacity:1;fill-rule:evenodd;stroke:none;stroke-width:200;marker:none;visibility:visible;display:inline;overflow:visible;enable-background:accumulate" /><path
       inkscape:connector-curvature="0"
       id="rect3805"
       d="m 1431.7414,195.34072 0,320.15625 c 47.0204,-37.49142 77.1563,-95.24774 77.1563,-160.0625 0,-64.81685 -30.1333,-122.59367 -77.1563,-160.09375 z"
       style="color:#000000;fill:#d66035;fill-opacity:1;fill-rule:evenodd;stroke:none;stroke-width:200;marker:none;visibility:visible;display:inline;overflow:visible;enable-background:accumulate" /></g><g
     id="g872"
     clip-path="url(#clipPath884)"><path
       sodipodi:nodetypes="ccccc"
       inkscape:connector-curvature="0"
       id="path846"
       d="M 304.03662,528.98856 158.16934,383.12128 220.26545,284.7048 402.4531,466.89245 Z"
       style="fill:url(#linearGradient860);stroke:none;stroke-width:1px;stroke-linecap:butt;stroke-linejoin:miter;stroke-opacity:1;fill-opacity:1" /><path
       sodipodi:nodetypes="ccccc"
       inkscape:connector-curvature="0"
       id="path848"
       d="M 400.10985,445.8032 217.9222,263.61555 362.03205,159.34095 544.2197,341.5286 Z"
       style="fill:url(#linearGradient862);stroke:none;stroke-width:1px;stroke-linecap:butt;stroke-linejoin:miter;stroke-opacity:1;fill-opacity:1" /></g><g
     id="g3860"
     transform="matrix(-0.92105426,-0.47067243,-0.47067243,0.92105426,1507.1882,892.73509)"><path
       sodipodi:nodetypes="sssccs"
       inkscape:connector-curvature="0"
       id="path3843"
       d="m 1413.6202,92.081563 c 0,29.054297 -28.5208,71.401687 -28.2266,59.051387 0.3133,-13.15122 -26.3933,-32.60442 -36.257,-54.965495 -8.563,-19.412402 0.721,-38.527002 11.1636,-47.426568 12.3918,-8.992013 24.0767,-5.306099 31.2423,0.0048 8.6087,5.920917 22.0777,20.563604 22.0777,43.335878 z"
       style="fill:#ffffff;fill-opacity:1;fill-rule:evenodd;stroke:none" /></g><path
     style="fill:#ffffff;stroke:none;stroke-width:1px;stroke-linecap:butt;stroke-linejoin:miter;stroke-opacity:1"
     d="M 217.9222,263.61555 306.96568,114.8192 362.03205,159.34095 244.86957,282.36154 Z"
     id="path39"
     inkscape:connector-curvature="0"
     sodipodi:nodetypes="ccccc" /></svg>