<svg height="512" width="512" xmlns="http://www.w3.org/2000/svg" xmlns:xlink="http://www.w3.org/1999/xlink"><linearGradient id="a" gradientUnits="userSpaceOnUse" x1="-241" x2="454" y1="73" y2="454"><stop offset="0"/><stop offset="1" stop-opacity="0"/></linearGradient><rect fill="#ececec" height="366" rx="16" width="418" x="47" y="56"/><rect fill="#1f61f5" height="112" rx="16" width="452" x="30" y="385"/><rect fill="#1f9df5" height="112" rx="16" width="452" x="30" y="385"/><path d="m336.60742 306.69141-57.60742 22.30859-4 56-7.98633 111.79688h183.76758l-3.61719 10.5625c47.35966-1.02361 85.92895-1.95764 87.79492-2.31836l-52.95898-52.95899-67.08398-67.08203z" fill="url(#a)"/><rect fill="#96a1ae" fill-opacity=".536946" height="15.556366" rx="3.272078" width="113.1371" x="62.932503" y="340.88019"/><rect fill="#96a1ae" fill-opacity=".536946" height="15.556366" rx="3.272078" width="113.1371" x="62.932503" y="308.95935"/><circle cx="256" cy="387" fill="#1f9df5" r="114"/><g fill="#96a1ae"><rect fill-opacity=".536946" height="15.556366" rx="3.272078" width="113.1371" x="62.932503" y="277.03851"/><rect fill-opacity=".537255" height="16.263456" rx="5.242641" width="359.91736" x="62.932503" y="116.72731"/><rect fill-opacity=".537255" height="16.263456" rx="5.242641" width="359.91736" x="62.932503" y="148.64815"/><rect fill-opacity=".537255" height="16.263456" rx="5.242641" width="359.91736" x="62.932503" y="180.56895"/><rect fill-opacity=".537255" height="16.263458" rx="5.242641" width="217.08179" x="62.932503" y="212.48976"/><rect fill-opacity=".537255" height="16.263458" rx="5.242641" width="217.08179" x="62.932503" y="244.41061"/></g><path d="m282.12863 403.28468h.4945l12.93956-76.56593h22.74726l-23.15935 120h-21.84066l-16.8956-73.51649h-.49451l-16.73077 73.51649h-21.75824l-23.15934-120h22.74725l12.93956 76.56593h.49451l17.30769-76.56593h16.81319z" fill="#fff"/></svg>