<?xml version="1.0" encoding="UTF-8" standalone="no"?>
<svg
   xmlns:dc="http://purl.org/dc/elements/1.1/"
   xmlns:cc="http://creativecommons.org/ns#"
   xmlns:rdf="http://www.w3.org/1999/02/22-rdf-syntax-ns#"
   xmlns:svg="http://www.w3.org/2000/svg"
   xmlns="http://www.w3.org/2000/svg"
   xmlns:sodipodi="http://sodipodi.sourceforge.net/DTD/sodipodi-0.dtd"
   xmlns:inkscape="http://www.inkscape.org/namespaces/inkscape"
   height="512"
   width="512"
   version="1.1"
   id="svg21"
   sodipodi:docname="libreoffice-calc.svg"
   inkscape:version="0.92.3 (2405546, 2018-03-11)">
  <metadata
     id="metadata27">
    <rdf:RDF>
      <cc:Work
         rdf:about="">
        <dc:format>image/svg+xml</dc:format>
        <dc:type
           rdf:resource="http://purl.org/dc/dcmitype/StillImage" />
      </cc:Work>
    </rdf:RDF>
  </metadata>
  <defs
     id="defs25" />
  <sodipodi:namedview
     pagecolor="#ffffff"
     bordercolor="#666666"
     borderopacity="1"
     objecttolerance="10"
     gridtolerance="10"
     guidetolerance="10"
     inkscape:pageopacity="0"
     inkscape:pageshadow="2"
     inkscape:window-width="1920"
     inkscape:window-height="1029"
     id="namedview23"
     showgrid="false"
     inkscape:zoom="0.4609375"
     inkscape:cx="264.67797"
     inkscape:cy="256"
     inkscape:window-x="0"
     inkscape:window-y="25"
     inkscape:window-maximized="1"
     inkscape:current-layer="svg21" />
  <linearGradient
     id="a"
     gradientUnits="userSpaceOnUse"
     x1="-241"
     x2="454"
     y1="73"
     y2="454">
    <stop
       offset="0"
       id="stop2" />
    <stop
       offset="1"
       stop-opacity="0"
       id="stop4" />
  </linearGradient>
  <rect
     fill="#ececec"
     height="366"
     rx="16"
     width="418"
     x="47"
     y="56"
     id="rect7" />
  <rect
     height="112"
     rx="16"
     width="452"
     x="30"
     y="385"
     id="rect11"
     fill="#1f9d81" />
  <path
     d="m111.44043 123.44336v7.55859 167.55469h295.11914v-175.11328zm15.11718 15.11914h74.88282v34.87891h-74.88282zm90 0h74.88282v34.87891h-74.88282zm90 0h84.88477v34.87891h-84.88477zm-180 49.99609h74.88282v34.88086h-74.88282zm90 0h74.88282v34.88086h-74.88282zm90 0h84.88477v34.88086h-84.88477zm-180 49.99805h74.88282v44.88281h-74.88282zm90 0h74.88282v44.88281h-74.88282zm90 0h84.88477v44.88281h-84.88477z"
     fill="#96a1ae"
     fill-opacity=".537255"
     id="path13" />
  <path
     d="m336.60742 306.69141-57.60742 22.30859-4 56-7.98633 111.79688h183.76758l-3.61719 10.5625c47.35966-1.02361 85.92895-1.95764 87.79492-2.31836l-52.95898-52.95899-67.08398-67.08203z"
     fill="url(#a)"
     id="path15" />
  <circle
     cx="256"
     cy="387"
     fill="#1f9d81"
     r="114"
     id="circle17" />
  <path
     d="m254.92857 368.95055h.49451l16.31868-41.95055h27.11539l-29.09341 59.50549 31.07143 60.49451h-28.26923l-16.81319-42.85714h-.49451l-16.81318 42.85714h-27.28023l29.83517-60.49451-29.09341-59.50549h26.95055z"
     fill="#fff"
     id="path19" />
</svg>
