<?xml version="1.0" encoding="UTF-8" standalone="no"?>
<!-- Created with Inkscape (http://www.inkscape.org/) -->

<svg
   xmlns:dc="http://purl.org/dc/elements/1.1/"
   xmlns:cc="http://creativecommons.org/ns#"
   xmlns:rdf="http://www.w3.org/1999/02/22-rdf-syntax-ns#"
   xmlns:svg="http://www.w3.org/2000/svg"
   xmlns="http://www.w3.org/2000/svg"
   xmlns:xlink="http://www.w3.org/1999/xlink"
   xmlns:sodipodi="http://sodipodi.sourceforge.net/DTD/sodipodi-0.dtd"
   xmlns:inkscape="http://www.inkscape.org/namespaces/inkscape"
   width="512"
   height="512"
   id="svg2"
   version="1.1"
   inkscape:version="0.91 r13725"
   sodipodi:docname="lollypop.svg">
  <sodipodi:namedview
     id="base"
     pagecolor="#ffffff"
     bordercolor="#666666"
     borderopacity="1.0"
     inkscape:pageopacity="0.0"
     inkscape:pageshadow="2"
     inkscape:zoom="0.25"
     inkscape:cx="-277.07893"
     inkscape:cy="209.40664"
     inkscape:document-units="px"
     inkscape:current-layer="layer1"
     showgrid="false"
     inkscape:window-width="771"
     inkscape:window-height="425"
     inkscape:window-x="443"
     inkscape:window-y="74"
     inkscape:window-maximized="0" />
  <defs
     id="defs4">
    <linearGradient
       inkscape:collect="always"
       id="linearGradient4203">
      <stop
         style="stop-color:#000000;stop-opacity:1;"
         offset="0"
         id="stop4205" />
      <stop
         style="stop-color:#000000;stop-opacity:0;"
         offset="1"
         id="stop4207" />
    </linearGradient>
    <linearGradient
       inkscape:collect="always"
       id="linearGradient3837">
      <stop
         style="stop-color:#7db257;stop-opacity:1;"
         offset="0"
         id="stop3839" />
      <stop
         style="stop-color:#7db257;stop-opacity:0;"
         offset="1"
         id="stop3841" />
    </linearGradient>
    <clipPath
       clipPathUnits="userSpaceOnUse"
       id="clipPath3847">
      <path
         transform="matrix(0.88586957,0,0,0.88586957,-24.010886,495.98978)"
         d="m 582.65601,342.29437 a 260.2153,260.2153 0 1 1 -520.430607,0 260.2153,260.2153 0 1 1 520.430607,0 z"
         sodipodi:ry="260.2153"
         sodipodi:rx="260.2153"
         sodipodi:cy="342.29437"
         sodipodi:cx="322.4407"
         id="path3849"
         style="fill:url(#linearGradient3851);fill-opacity:1;fill-rule:evenodd;stroke:none"
         sodipodi:type="arc" />
    </clipPath>
    <linearGradient
       inkscape:collect="always"
       xlink:href="#linearGradient3837"
       id="linearGradient3851"
       gradientUnits="userSpaceOnUse"
       x1="502.83536"
       y1="546.63525"
       x2="316.05505"
       y2="356.66208" />
    <clipPath
       clipPathUnits="userSpaceOnUse"
       id="clipPath4188">
      <circle
         style="fill:#ef4671;fill-opacity:1;fill-rule:evenodd;stroke:none"
         id="path4190"
         cx="261.62952"
         cy="258.85577"
         r="230.51682" />
    </clipPath>
    <linearGradient
       inkscape:collect="always"
       xlink:href="#linearGradient4203"
       id="linearGradient4209"
       x1="-102.01427"
       y1="466.13239"
       x2="462.77591"
       y2="978.0777"
       gradientUnits="userSpaceOnUse" />
    <clipPath
       clipPathUnits="userSpaceOnUse"
       id="clipPath4213">
      <circle
         style="fill:#ef4671;fill-opacity:1;fill-rule:evenodd;stroke:none"
         id="path4215"
         cx="261.62952"
         cy="799.21796"
         r="230.51682" />
    </clipPath>
  </defs>
  <metadata
     id="metadata7">
    <rdf:RDF>
      <cc:Work
         rdf:about="">
        <dc:format>image/svg+xml</dc:format>
        <dc:type
           rdf:resource="http://purl.org/dc/dcmitype/StillImage" />
        <dc:title />
      </cc:Work>
    </rdf:RDF>
  </metadata>
  <g
     transform="translate(0,-540.36218)"
     id="layer1"
     inkscape:groupmode="layer"
     inkscape:label="Capa 1">
    <path
       transform="matrix(0.88586957,0,0,0.88586957,-24.010886,495.98978)"
       d="M 582.65601,342.29437 A 260.2153,260.2153 0 0 1 322.4407,602.50967 260.2153,260.2153 0 0 1 62.225403,342.29437 260.2153,260.2153 0 0 1 322.4407,82.079071 260.2153,260.2153 0 0 1 582.65601,342.29437 Z"
       sodipodi:ry="260.2153"
       sodipodi:rx="260.2153"
       sodipodi:cy="342.29437"
       sodipodi:cx="322.4407"
       id="path2990"
       style="fill:#da3f58;fill-rule:evenodd;stroke:none;fill-opacity:1"
       sodipodi:type="arc" />
    <path
       style="fill:#f3e3ab;fill-rule:evenodd;stroke:none;stroke-width:1px;stroke-linecap:butt;stroke-linejoin:miter;stroke-opacity:1;fill-opacity:1"
       d="M 296.76172 -1.078125 L 232.25195 28.628906 C 166.9697 123.44366 196.60838 192.51601 258.42188 258.42383 C 151.66241 227.71094 134.75124 149.04112 123.89453 67.140625 L 52.810547 96.751953 L 46.28125 167.47266 C 95.751889 271.41566 170.38896 280.28484 258.37305 259.70703 C 178.39553 336.80586 101.81103 312.11628 25.455078 280.56836 L 15.556641 356.93555 L 73.539062 397.94922 C 188.29467 407.07813 233.29205 346.8718 259.46289 260.38281 C 286.24689 368.19826 226.57065 422.18015 161.07031 472.5332 L 222.25586 519.28906 L 286.76562 489.58008 C 290.88446 483.59808 294.62677 477.71835 298.00586 471.93555 C 348.18425 386.06174 318.51142 321.53673 260.59766 259.78711 C 367.35472 290.50055 384.26642 369.16857 395.12305 451.06836 L 466.20898 421.45898 L 472.73438 350.73633 C 469.61311 344.17828 466.39277 337.99942 463.07422 332.18164 C 413.79519 245.79011 343.07874 239.22289 260.64648 258.50195 C 340.62282 181.40695 417.20564 206.09508 493.56055 237.64258 L 503.46094 161.27539 L 445.47656 120.26367 C 438.23649 119.68772 431.2738 119.3865 424.57617 119.35156 C 325.11973 118.83269 284.07469 176.79084 259.55469 257.81836 C 232.77647 150.00916 292.45078 96.029326 357.94922 45.677734 L 296.76172 -1.078125 z "
       transform="translate(0,540.36218)"
       id="path4170"
       clip-path="url(#clipPath4188)" />
    <path
       style="fill:url(#linearGradient4209);fill-opacity:1;fill-rule:evenodd;stroke:none;stroke-width:1px;stroke-linecap:butt;stroke-linejoin:miter;stroke-opacity:1"
       d="M 178,904.36218 424.68633,1043.7567 623.89575,962.25839 190.26494,691.78144 Z"
       id="path4201"
       inkscape:connector-curvature="0"
       sodipodi:nodetypes="ccccc"
       clip-path="url(#clipPath4213)" />
    <path
       style="color:#000000;font-style:normal;font-variant:normal;font-weight:normal;font-stretch:normal;font-size:medium;line-height:normal;font-family:sans-serif;text-indent:0;text-align:start;text-decoration:none;text-decoration-line:none;text-decoration-style:solid;text-decoration-color:#000000;letter-spacing:normal;word-spacing:normal;text-transform:none;direction:ltr;block-progression:tb;writing-mode:lr-tb;baseline-shift:baseline;text-anchor:start;white-space:normal;clip-rule:nonzero;display:inline;overflow:visible;visibility:visible;opacity:1;isolation:auto;mix-blend-mode:normal;color-interpolation:sRGB;color-interpolation-filters:linearRGB;solid-color:#000000;solid-opacity:1;fill:#ffffff;fill-opacity:1;fill-rule:nonzero;stroke:none;stroke-width:15;stroke-linecap:butt;stroke-linejoin:round;stroke-miterlimit:4;stroke-dasharray:none;stroke-dashoffset:0;stroke-opacity:1;color-rendering:auto;image-rendering:auto;shape-rendering:auto;text-rendering:auto;enable-background:accumulate"
       d="m 186.5109,689.68664 c -6.79763,0.17064 -12.21999,5.72915 -12.22207,12.52891 l 0,96.98981 0,96.99308 c 0.001,9.93833 11.01484,15.92306 19.35488,10.51802 l 149.60933,-96.98981 c 7.62291,-4.94166 7.62291,-16.09765 0,-21.03931 L 193.64371,691.69753 c -2.12063,-1.37378 -4.60688,-2.0747 -7.13281,-2.01089 z"
       id="path4192"
       inkscape:connector-curvature="0"
       sodipodi:nodetypes="ccccccccc" />
  </g>
</svg>
