<?xml version="1.0" encoding="UTF-8" standalone="no"?>
<svg
   xmlns:dc="http://purl.org/dc/elements/1.1/"
   xmlns:cc="http://creativecommons.org/ns#"
   xmlns:rdf="http://www.w3.org/1999/02/22-rdf-syntax-ns#"
   xmlns:svg="http://www.w3.org/2000/svg"
   xmlns="http://www.w3.org/2000/svg"
   xmlns:sodipodi="http://sodipodi.sourceforge.net/DTD/sodipodi-0.dtd"
   xmlns:inkscape="http://www.inkscape.org/namespaces/inkscape"
   viewBox="0 0 512 512"
   id="svg2"
   version="1.1"
   inkscape:version="0.48.4 r9939"
   width="100%"
   height="100%"
   sodipodi:docname="machinarium.svg">
  <metadata
     id="metadata58">
    <rdf:RDF>
      <cc:Work
         rdf:about="">
        <dc:format>image/svg+xml</dc:format>
        <dc:type
           rdf:resource="http://purl.org/dc/dcmitype/StillImage" />
        <dc:title></dc:title>
      </cc:Work>
    </rdf:RDF>
  </metadata>
  <defs
     id="defs56">
    <clipPath
       clipPathUnits="userSpaceOnUse"
       id="clipPath3887">
      <path
         id="path3889"
         d="m 57.78125,8.375 0,8.75 2.09375,0 0,-8.75 -2.09375,0 z M 47.625,29.25 l 0,5.75 22.25,0 0,-5.75 -22.25,0 z"
         style="color:#000000;fill:#2d444a;fill-opacity:1;fill-rule:evenodd;stroke:none;stroke-width:5;marker:none;visibility:visible;display:inline;overflow:visible;enable-background:accumulate"
         inkscape:connector-curvature="0" />
    </clipPath>
    <clipPath
       clipPathUnits="userSpaceOnUse"
       id="clipPath3898">
      <path
         id="path3900"
         d="m 57.78125,8.375 0,8.75 2.09375,0 0,-8.75 -2.09375,0 z M 47.625,29.25 l 0,5.75 22.25,0 0,-5.75 -22.25,0 z"
         style="color:#000000;fill:#2d444a;fill-opacity:1;fill-rule:evenodd;stroke:none;stroke-width:5;marker:none;visibility:visible;display:inline;overflow:visible;enable-background:accumulate"
         inkscape:connector-curvature="0" />
    </clipPath>
    <clipPath
       clipPathUnits="userSpaceOnUse"
       id="clipPath3906">
      <path
         id="path3908"
         d="m 58.8125,11.03125 c -6.996351,0 -12.631485,5.572112 -12.78125,12.53125 -0.002,0.09425 0,0.186495 0,0.28125 l 0,2.5625 0,2.53125 0,2.5625 25.59375,0 0,-2.5625 0,-2.53125 0,-2.5625 c 0,-0.09475 0.002,-0.186999 0,-0.28125 C 71.475235,16.603362 65.808851,11.03125 58.8125,11.03125 z M 46.03125,33.375 l 0,4.15625 25.5625,0 0,-4.15625 -25.5625,0 z"
         style="color:#000000;fill:#f6c169;fill-opacity:1;fill-rule:evenodd;stroke:none;stroke-width:5;marker:none;visibility:visible;display:inline;overflow:visible;enable-background:accumulate"
         inkscape:connector-curvature="0" />
    </clipPath>
  </defs>
  <sodipodi:namedview
     pagecolor="#ffffff"
     bordercolor="#666666"
     borderopacity="1"
     objecttolerance="10"
     gridtolerance="10"
     guidetolerance="10"
     inkscape:pageopacity="0"
     inkscape:pageshadow="2"
     inkscape:window-width="1360"
     inkscape:window-height="717"
     id="namedview54"
     showgrid="false"
     inkscape:zoom="0.5"
     inkscape:cx="26.321998"
     inkscape:cy="35.152259"
     inkscape:window-x="0"
     inkscape:window-y="25"
     inkscape:window-maximized="1"
     inkscape:current-layer="svg2" />
  <path
     inkscape:connector-curvature="0"
     style="color:#000000;fill:#2d444a;fill-opacity:1;fill-rule:evenodd;stroke:none;stroke-width:5;marker:none;visibility:visible;display:inline;overflow:visible;enable-background:accumulate"
     d="m 244.85527,74.004084 0,123.739346 29.60906,0 0,-123.739346 -29.60906,0 z m -143.62602,295.206696 0,81.31443 314.65146,0 0,-81.31443 -314.65146,0 z"
     id="rect3813" />
  <path
     style="font-size:medium;font-style:normal;font-variant:normal;font-weight:normal;font-stretch:normal;text-indent:0;text-align:start;text-decoration:none;line-height:normal;letter-spacing:normal;word-spacing:normal;text-transform:none;direction:ltr;block-progression:tb;writing-mode:lr-tb;text-anchor:start;baseline-shift:baseline;color:#000000;fill:#000000;fill-opacity:0.27619048;stroke:none;stroke-width:1px;marker:none;visibility:visible;display:inline;overflow:visible;enable-background:accumulate;font-family:Sans;-inkscape-font-specification:Sans"
     d="m 47.5625,31.0625 0,1 22.4375,0 0,-1 -22.4375,0 z"
     id="path3879"
     inkscape:connector-curvature="0"
     clip-path="url(#clipPath3887)"
     transform="matrix(14.141639,0,0,14.141639,-572.26631,-44.43214)" />
  <path
     style="color:#000000;fill:#f4c889;fill-opacity:1;fill-rule:evenodd;stroke:none;stroke-width:5;marker:none;visibility:visible;display:inline;overflow:visible;enable-background:accumulate"
     d="m 242.82254,26.947681 c -7.89255,-0.09371 -15.11921,7.132921 -15.0255,15.025497 l 0,35.354091 c -0.0933,7.892544 7.13295,15.119202 15.0255,15.025475 l 31.81869,0 c 7.89254,0.09349 15.1192,-7.132931 15.02548,-15.025475 l 0,-35.354091 c 0.0934,-7.892576 -7.13294,-15.119235 -15.02548,-15.025497 l -31.81869,0 z m 16.79319,84.407889 c -98.93987,0 -178.629899,78.79882 -180.747823,177.21242 -0.02821,1.33285 0,2.63736 0,3.97735 l 0,36.23793 0,35.79604 0,36.23795 361.937603,0 0,-36.23795 0,-35.79604 0,-36.23793 c 0,-1.33994 0.0285,-2.64447 0,-3.97735 -2.11795,-98.4136 -82.2499,-177.21242 -181.18978,-177.21242 z m -180.747823,315.97726 0,58.77619 361.495643,0 0,-58.77619 -361.495643,0 z"
     id="rect3035"
     inkscape:connector-curvature="0" />
  <path
     inkscape:connector-curvature="0"
     style="font-size:medium;font-style:normal;font-variant:normal;font-weight:normal;font-stretch:normal;text-indent:0;text-align:start;text-decoration:none;line-height:normal;letter-spacing:normal;word-spacing:normal;text-transform:none;direction:ltr;block-progression:tb;writing-mode:lr-tb;text-anchor:start;baseline-shift:baseline;color:#000000;fill:#4d2121;fill-opacity:0.4;stroke:none;stroke-width:1px;marker:none;visibility:visible;display:inline;overflow:visible;enable-background:accumulate;font-family:Sans;-inkscape-font-specification:Sans"
     d="m 57.625,10.875 0,16.375 -11.625,0 0,1 25.5,0 0,-1 -12.875,0 0,-16.375 -1,0 z m 2.25,2.3125 c -0.512563,0 -0.90625,0.393687 -0.90625,0.90625 0,0.512563 0.393687,0.9375 0.90625,0.9375 0.512563,0 0.9375,-0.424937 0.9375,-0.9375 0,-0.512563 -0.424937,-0.90625 -0.9375,-0.90625 z m 0,3.625 c -0.512563,0 -0.90625,0.393687 -0.90625,0.90625 0,0.512563 0.393687,0.9375 0.90625,0.9375 0.512563,0 0.9375,-0.424937 0.9375,-0.9375 0,-0.512563 -0.424937,-0.90625 -0.9375,-0.90625 z m 0,3.625 c -0.512563,0 -0.90625,0.393687 -0.90625,0.90625 0,0.512563 0.393687,0.9375 0.90625,0.9375 0.512563,0 0.9375,-0.424937 0.9375,-0.9375 0,-0.512563 -0.424937,-0.90625 -0.9375,-0.90625 z m 0,3.59375 c -0.512563,0 -0.90625,0.424937 -0.90625,0.9375 0,0.512563 0.393687,0.9375 0.90625,0.9375 0.512563,0 0.9375,-0.424937 0.9375,-0.9375 0,-0.512563 -0.424937,-0.9375 -0.9375,-0.9375 z"
     id="path3816"
     clip-path="url(#clipPath3906)"
     transform="matrix(14.141639,0,0,14.141639,-572.26631,-44.43214)" />
  <path
     sodipodi:type="arc"
     style="fill:#ff0000;fill-rule:evenodd;stroke:#000000;stroke-width:1.29999995;stroke-linecap:butt;stroke-linejoin:miter;stroke-miterlimit:4;stroke-opacity:1;stroke-dasharray:none"
     id="path3841"
     sodipodi:cx="65.098015"
     sodipodi:cy="27.007767"
     sodipodi:rx="3.0493979"
     sodipodi:ry="3.0493979"
     d="m 68.147413,27.007767 a 3.0493979,3.0493979 0 1 1 -6.098796,0 3.0493979,3.0493979 0 1 1 6.098796,0 z"
     transform="matrix(14.141639,0,0,14.141639,-555.47311,-52.386823)" />
  <path
     transform="matrix(14.141639,0,0,14.141639,-555.31247,-52.386823)"
     d="m 68.147413,27.007767 a 3.0493979,3.0493979 0 1 1 -6.098796,0 3.0493979,3.0493979 0 1 1 6.098796,0 z"
     sodipodi:ry="3.0493979"
     sodipodi:rx="3.0493979"
     sodipodi:cy="27.007767"
     sodipodi:cx="65.098015"
     id="path3843"
     style="fill:#8ca8bf;fill-opacity:1;fill-rule:evenodd;stroke:#243c44;stroke-width:1.29999995;stroke-linecap:butt;stroke-linejoin:miter;stroke-miterlimit:4;stroke-opacity:1;stroke-dasharray:none"
     sodipodi:type="arc" />
  <path
     transform="matrix(14.141639,0,0,14.141639,-766.5532,-52.386823)"
     d="m 68.147413,27.007767 a 3.0493979,3.0493979 0 1 1 -6.098796,0 3.0493979,3.0493979 0 1 1 6.098796,0 z"
     sodipodi:ry="3.0493979"
     sodipodi:rx="3.0493979"
     sodipodi:cy="27.007767"
     sodipodi:cx="65.098015"
     id="path3856"
     style="fill:#8ca8bf;fill-opacity:1;fill-rule:evenodd;stroke:#243c44;stroke-width:1.29999995;stroke-linecap:butt;stroke-linejoin:miter;stroke-miterlimit:4;stroke-opacity:1;stroke-dasharray:none"
     sodipodi:type="arc" />
  <path
     inkscape:connector-curvature="0"
     style="font-size:medium;font-style:normal;font-variant:normal;font-weight:normal;font-stretch:normal;text-indent:0;text-align:start;text-decoration:none;line-height:normal;letter-spacing:normal;word-spacing:normal;text-transform:none;direction:ltr;block-progression:tb;writing-mode:lr-tb;text-anchor:start;baseline-shift:baseline;color:#000000;fill:#000000;fill-opacity:0.32857145;fill-rule:evenodd;stroke:none;stroke-width:2.0999999;marker:none;visibility:visible;display:inline;overflow:visible;enable-background:accumulate;font-family:Sans;-inkscape-font-specification:Sans"
     d="m 56.5625,8.625 0,0.5 c -0.0066,0.5581072 0.504393,1.069127 1.0625,1.0625 l 2.25,0 c 0.558107,0.0066 1.069127,-0.5043928 1.0625,-1.0625 l 0,-0.5 c 0.0066,0.5581072 -0.504393,1.06913 -1.0625,1.0625 l -2.25,0 C 57.066893,9.6941275 56.5559,9.1831072 56.5625,8.625 z"
     id="path3891"
     clip-path="url(#clipPath3898)"
     transform="matrix(14.141639,0,0,14.141639,-572.26631,-44.43214)" />
  <path
     style="color:#000000;fill:#ffffff;fill-opacity:0.15238097;fill-rule:evenodd;stroke:none;stroke-width:5;marker:none;visibility:visible;display:inline;overflow:visible;enable-background:accumulate"
     d="m 242.82254,26.947681 c -7.89255,-0.09371 -15.11921,7.132921 -15.0255,15.025497 l 0,10.606226 c -0.0937,-7.892544 7.13295,-15.119266 15.0255,-15.025497 l 31.81869,0 c 7.89254,-0.09371 15.11882,7.132953 15.02548,15.025497 l 0,-10.606226 c 0.0934,-7.892576 -7.13294,-15.119235 -15.02548,-15.025497 l -31.81869,0 z m 16.79319,84.407889 c -98.93987,0 -178.629899,78.79882 -180.747823,177.21242 -0.02821,1.33285 0,2.63736 0,3.97735 l 0,6.62887 c 2.117924,-98.41359 81.807953,-177.21242 180.747823,-177.21242 98.93988,0 179.07183,78.79883 181.18978,177.21242 l 0,-6.62887 c 0,-1.33994 0.0285,-2.64447 0,-3.97735 -2.11795,-98.4136 -82.2499,-177.21242 -181.18978,-177.21242 z m -180.747823,315.97726 0,10.60622 361.495643,0 0,-10.60622 -361.495643,0 z"
     id="path3933"
     inkscape:connector-curvature="0" />
</svg>
