<?xml version="1.0" encoding="UTF-8" standalone="no"?>
<!-- Created with Inkscape (http://www.inkscape.org/) -->

<svg
   xmlns:dc="http://purl.org/dc/elements/1.1/"
   xmlns:cc="http://creativecommons.org/ns#"
   xmlns:rdf="http://www.w3.org/1999/02/22-rdf-syntax-ns#"
   xmlns:svg="http://www.w3.org/2000/svg"
   xmlns="http://www.w3.org/2000/svg"
   xmlns:sodipodi="http://sodipodi.sourceforge.net/DTD/sodipodi-0.dtd"
   xmlns:inkscape="http://www.inkscape.org/namespaces/inkscape"
   width="512"
   height="512"
   id="svg3752"
   version="1.1"
   inkscape:version="0.92.2pre0 (973e216, 2017-07-25)"
   sodipodi:docname="mailspring.svg"
   inkscape:export-filename="/home/silerio/Imágenes/iconos/email2.png"
   inkscape:export-xdpi="90"
   inkscape:export-ydpi="90">
  <defs
     id="defs3754">
    <clipPath
       clipPathUnits="userSpaceOnUse"
       id="clipPath4355">
      <path
         sodipodi:nodetypes="ccccccccccc"
         inkscape:connector-curvature="0"
         id="path4357"
         d="m 413.15743,-331.13406 -86.52622,-80.17627 -86.52623,80.17627 -86.52622,-80.17627 -86.526225,80.17627 0,320.87256 86.526225,-80.17627 86.52622,80.17627 86.52623,-80.17627 86.52622,80.17627 z"
         style="fill:#fcc199;fill-opacity:1;stroke:none" />
    </clipPath>
    <clipPath
       clipPathUnits="userSpaceOnUse"
       id="clipPath4087">
      <path
         sodipodi:nodetypes="cccsccccsccc"
         inkscape:connector-curvature="0"
         id="path4089"
         d="m 255.40592,22.97148 c -2.28704,0.0508 -4.54873,0.89886 -6.30518,2.36444 L 67.564098,177.67826 c -2.574541,2.1548 -3.967229,5.64239 -3.585104,8.97787 0.382126,3.33547 2.527474,6.41774 5.522634,7.93446 l 186.068482,94.21646 c 2.84639,1.4447 6.38151,1.4447 9.2279,0 l 186.06847,-94.21646 c 3.03867,-1.52923 5.2057,-4.66969 5.55708,-8.05326 0.35137,-3.38358 -1.12414,-6.90229 -3.78375,-9.02327 L 262.03949,25.20456 c -1.85909,-1.48849 -4.2528,-2.29429 -6.63357,-2.23308 z"
         style="font-size:medium;font-style:normal;font-variant:normal;font-weight:normal;font-stretch:normal;text-indent:0;text-align:start;text-decoration:none;line-height:normal;letter-spacing:normal;word-spacing:normal;text-transform:none;direction:ltr;block-progression:tb;writing-mode:lr-tb;text-anchor:start;baseline-shift:baseline;color:#000000;fill:#c87137;fill-opacity:1;fill-rule:nonzero;stroke:none;stroke-width:19.39999962;marker:none;visibility:visible;display:inline;overflow:visible;enable-background:accumulate;font-family:Sans;-inkscape-font-specification:Sans" />
    </clipPath>
    <clipPath
       clipPathUnits="userSpaceOnUse"
       id="clipPath4139">
      <path
         sodipodi:nodetypes="scssssssss"
         inkscape:connector-curvature="0"
         id="path4141"
         d="M 533.97954,176.85017 731.76001,305.5436 929.54048,176.85017 c 13.30694,-8.65867 28.65703,12.78103 28.65703,28.65703 l 0,207.2301 c 0,15.87599 -12.78103,28.65703 -28.65703,28.65703 l -395.56094,0 c -15.876,0 -28.65703,-12.78104 -28.65703,-28.65703 l 0,-207.2301 c 0,-15.876 12.78103,-28.65703 28.65703,-28.65703 z"
         style="color:#000000;fill:#deaa87;fill-opacity:1;fill-rule:evenodd;stroke:none;stroke-width:7;marker:none;visibility:visible;display:inline;overflow:visible;enable-background:accumulate" />
    </clipPath>
  </defs>
  <sodipodi:namedview
     id="base"
     pagecolor="#ffffff"
     bordercolor="#666666"
     borderopacity="1.0"
     inkscape:pageopacity="0.0"
     inkscape:pageshadow="2"
     inkscape:zoom="0.25000001"
     inkscape:cx="205.72062"
     inkscape:cy="324.41465"
     inkscape:current-layer="layer1"
     showgrid="true"
     inkscape:grid-bbox="true"
     inkscape:document-units="px"
     inkscape:window-width="1360"
     inkscape:window-height="740"
     inkscape:window-x="0"
     inkscape:window-y="0"
     inkscape:window-maximized="1"
     units="px"
     width="512px"
     showguides="true"
     inkscape:guide-bbox="true" />
  <metadata
     id="metadata3757">
    <rdf:RDF>
      <cc:Work
         rdf:about="">
        <dc:format>image/svg+xml</dc:format>
        <dc:type
           rdf:resource="http://purl.org/dc/dcmitype/StillImage" />
        <dc:title></dc:title>
      </cc:Work>
    </rdf:RDF>
  </metadata>
  <g
     id="layer1"
     inkscape:label="Layer 1"
     inkscape:groupmode="layer"
     transform="translate(0,464.00004)">
    <path
       style="font-size:medium;font-style:normal;font-variant:normal;font-weight:normal;font-stretch:normal;text-indent:0;text-align:start;text-decoration:none;line-height:normal;letter-spacing:normal;word-spacing:normal;text-transform:none;direction:ltr;block-progression:tb;writing-mode:lr-tb;text-anchor:start;baseline-shift:baseline;color:#000000;fill:#728184;fill-opacity:1;fill-rule:nonzero;stroke:none;stroke-width:19.39999962;marker:none;visibility:visible;display:inline;overflow:visible;enable-background:accumulate;font-family:Sans;-inkscape-font-specification:Sans"
       d="m 258.86556,-441.02856 c -2.28704,0.0508 -4.54873,0.89886 -6.30518,2.36444 L 71.023738,-286.32178 c -2.574541,2.1548 -3.967229,5.64239 -3.585104,8.97787 0.382126,3.33547 2.527474,6.41774 5.522634,7.93446 l 186.068482,94.21646 c 2.84639,1.4447 6.38151,1.4447 9.2279,0 l 186.06847,-94.21646 c 3.03867,-1.52923 5.2057,-4.66969 5.55708,-8.05326 0.35137,-3.38358 -1.12414,-6.90229 -3.78375,-9.02327 l -190.60032,-152.3095 c -1.85909,-1.48849 -4.2528,-2.29429 -6.63357,-2.23308 z"
       id="path3846"
       inkscape:connector-curvature="0"
       sodipodi:nodetypes="cccsccccsccc" />
    <path
       style="fill:#000000;fill-opacity:0.14572868;stroke:none"
       d="M 65.76093,155.61819 259.50819,308.56794 453.25544,157.51768 462.03732,195.05442 258.09397,432.09694 58.352972,195.17383 z"
       id="path4020"
       inkscape:connector-curvature="0"
       transform="translate(3.4596398,-464.00004)"
       sodipodi:nodetypes="ccccccc"
       clip-path="url(#clipPath4087)" />
    <rect
       style="color:#000000;fill:#f77a6e;fill-opacity:1;fill-rule:evenodd;stroke:none;stroke-width:3;marker:none;visibility:visible;display:inline;overflow:visible;enable-background:accumulate"
       id="rect3820"
       width="305.23004"
       height="337.47269"
       x="111.0403"
       y="-405.60904"
       ry="28.657028" />
    <path
       style="color:#000000;fill:#000000;fill-opacity:0.20100503;fill-rule:evenodd;stroke:none;stroke-width:7;marker:none;visibility:visible;display:inline;overflow:visible;enable-background:accumulate"
       d="M 111.03125 196.0625 L 111.03125 209.0625 L 241.8125 294.15625 L 263.65625 308.375 L 285.1875 294.375 L 416.28125 209.0625 L 416.28125 196.0625 L 273.4375 289.03125 C 269.75744 287.88509 266.00146 287.25022 262.125 287.34375 C 259.31697 287.4115 256.44169 287.87987 253.46875 288.75 L 111.03125 196.0625 z "
       transform="translate(0,-464.00004)"
       id="path4170" />
    <g
       id="g4148"
       transform="translate(-468.10469,2.8284271)">
      <path
         sodipodi:nodetypes="scssssssss"
         inkscape:connector-curvature="0"
         id="rect4129"
         d="m 533.97954,-287.14987 197.78047,128.69343 197.78047,-128.69343 c 13.30694,-8.65867 28.65703,12.78103 28.65703,28.65703 l 0,207.230096 c 0,15.87599 -12.78103,28.65703 -28.65703,28.65703 l -395.56094,0 c -15.876,0 -28.65703,-12.78104 -28.65703,-28.65703 l 0,-207.230096 c 0,-15.876 12.78103,-28.65703 28.65703,-28.65703 z"
         style="color:#000000;fill:#d1d1d1;fill-opacity:1;fill-rule:evenodd;stroke:none;stroke-width:7;marker:none;visibility:visible;display:inline;overflow:visible;enable-background:accumulate" />
      <path
         sodipodi:nodetypes="csscccccccc"
         inkscape:connector-curvature="0"
         id="rect4115"
         d="m 948.72378,-30.105734 c -5.17976,5.17976 -12.34402,8.37502 -20.28201,8.37502 l -393.34283,0 c -7.938,0 -15.10226,-3.19526 -20.28202,-8.37502 l 108.47672,-72.873426 54.23835,-36.43671 27.11918,-18.21836 c 21.49297,-16.69699 37.4813,-11.19201 54.23836,0 l 27.11918,18.21836 54.23836,36.43671 z"
         style="color:#000000;fill:#fafafa;fill-opacity:1;fill-rule:evenodd;stroke:none;stroke-width:7;marker:none;visibility:visible;display:inline;overflow:visible;enable-background:accumulate" />
      <path
         clip-path="url(#clipPath4139)"
         id="path4132"
         transform="translate(0,-464.00004)"
         d="m 729.46875,290.15625 c -8.10167,0.19599 -18.17391,-0.86096 -27.91421,6.72611 -67.04486,45.12283 -125.7912,92.73965 -195.21079,139.50857 5.36546,5.37982 12.77741,5.89032 21,5.89032 l 7.75,0 c -7.938,0 -15.10149,-3.19524 -20.28125,-8.375 l 108.46875,-72.875 54.25,-36.4375 27.125,-18.21875 c 21.49297,-16.69699 37.46169,-11.19201 54.21875,0 l 27.125,18.21875 54.25,36.4375 108.46875,72.875 c -5.17976,5.17976 -12.34326,8.375 -20.28125,8.375 l 6.34375,0 c 8.22259,0 14.92743,-0.5105 20.29289,-5.89032 C 890.38981,392.81345 823.71059,336.28811 764.106,296.17525 c -9.76378,-6.53866 -24.22082,-6.27099 -34.63725,-6.019 z"
         style="color:#000000;fill:#000000;fill-opacity:0.12562812;fill-rule:evenodd;stroke:none;stroke-width:7;marker:none;visibility:visible;display:inline;overflow:visible;enable-background:accumulate"
         inkscape:connector-curvature="0"
         sodipodi:nodetypes="sccsccccccccccsccs" />
      <path
         transform="translate(0,-464.00004)"
         id="path4143"
         d="m 730.21875,295.8125 c -7.82126,0.18871 -16.15933,3.25757 -25.5625,10.5625 l -27.125,18.21875 -54.25,36.4375 -108.46875,72.875 c 0.56914,0.56914 1.1658,1.10539 1.78125,1.625 l 106.6875,-71.6875 54.25,-36.4375 27.125,-18.21875 c 21.49297,-16.69699 37.46169,-11.19201 54.21875,0 l 27.125,18.21875 54.25,36.4375 106.6875,71.6875 c 0.61545,-0.51961 1.21211,-1.05586 1.78125,-1.625 L 840.25,361.03125 786,324.59375 758.875,306.375 c -9.42585,-6.29551 -18.60034,-10.80512 -28.65625,-10.5625 z"
         style="color:#000000;fill:#ffffff;fill-opacity:0.1356784;fill-rule:evenodd;stroke:none;stroke-width:7;marker:none;visibility:visible;display:inline;overflow:visible;enable-background:accumulate"
         inkscape:connector-curvature="0" />
    </g>
  </g>
</svg>
