<?xml version="1.0" encoding="UTF-8" standalone="no"?>
<!-- Generator: flash2svg, http://dissentgraphics.com/tools/flash2svg -->

<svg
   xmlns:dc="http://purl.org/dc/elements/1.1/"
   xmlns:cc="http://creativecommons.org/ns#"
   xmlns:rdf="http://www.w3.org/1999/02/22-rdf-syntax-ns#"
   xmlns:svg="http://www.w3.org/2000/svg"
   xmlns="http://www.w3.org/2000/svg"
   xmlns:sodipodi="http://sodipodi.sourceforge.net/DTD/sodipodi-0.dtd"
   xmlns:inkscape="http://www.inkscape.org/namespaces/inkscape"
   id="ClamXav"
   image-rendering="optimizeSpeed"
   version="1.1"
   x="0px"
   y="0px"
   width="512"
   height="512"
   viewBox="0 0 512 512"
   enable-background="new 0 0 1024 1024"
   inkscape:version="0.48.4 r9939"
   sodipodi:docname="megasync.svg">
  <sodipodi:namedview
     pagecolor="#ffffff"
     bordercolor="#666666"
     borderopacity="1"
     objecttolerance="10"
     gridtolerance="10"
     guidetolerance="10"
     inkscape:pageopacity="0"
     inkscape:pageshadow="2"
     inkscape:window-width="1360"
     inkscape:window-height="721"
     id="namedview39"
     showgrid="false"
     inkscape:zoom="0.32593203"
     inkscape:cx="1164.9942"
     inkscape:cy="220.43533"
     inkscape:window-x="0"
     inkscape:window-y="25"
     inkscape:window-maximized="1"
     inkscape:current-layer="ClamXav" />
  <metadata
     id="metadata41">
    <rdf:RDF>
      <cc:Work
         rdf:about="">
        <dc:format>image/svg+xml</dc:format>
        <dc:type
           rdf:resource="http://purl.org/dc/dcmitype/StillImage" />
        <dc:title />
      </cc:Work>
    </rdf:RDF>
  </metadata>
  <defs
     id="defs3"
     transform="matrix(1 0 0 1 0 0) ">
    <clipPath
       id="clipPath3837"
       clipPathUnits="userSpaceOnUse">
      <path
         style="font-size:medium;font-style:normal;font-variant:normal;font-weight:normal;font-stretch:normal;text-indent:0;text-align:start;text-decoration:none;line-height:normal;letter-spacing:normal;word-spacing:normal;text-transform:none;direction:ltr;block-progression:tb;writing-mode:lr-tb;text-anchor:start;baseline-shift:baseline;color:#000000;fill:#e3303d;fill-opacity:1;fill-rule:evenodd;stroke:none;stroke-width:11.67349243;marker:none;visibility:visible;display:inline;overflow:visible;enable-background:accumulate;font-family:Sans;-inkscape-font-specification:Sans"
         d="m 1313.8972,195.89588 c -2.0654,0.08 -4.0306,1.4221 -4.8567,3.31676 -19.4515,44.81126 -30.2357,94.28898 -30.2357,146.23331 0,202.91263 164.5956,367.50819 367.5082,367.50819 202.9127,0 367.5377,-164.59503 367.5377,-367.50819 0,-51.94432 -10.8136,-101.42204 -30.2652,-146.23331 -0.8583,-1.9524 -2.9314,-3.30561 -5.0641,-3.30561 -2.1326,0 -4.2057,1.35321 -5.064,3.30561 -27.2437,62.76553 -71.4367,95.93046 -127.843,114.04303 -56.4064,18.11258 -125.0481,20.64087 -199.3014,20.64087 -74.2533,0 -142.9024,-2.52838 -199.3014,-20.64087 -56.399,-18.11249 -100.5695,-51.27718 -127.8135,-114.04303 -0.8851,-2.03069 -3.0877,-3.40884 -5.3009,-3.31676 z m 664.2689,19.39709 c -1247.81027,518.49946 -623.9051,259.24974 0,0 z"
         id="path3839"
         inkscape:connector-curvature="0"
         sodipodi:nodetypes="ccssscscssscccc" />
    </clipPath>
    <clipPath
       id="clipPath3870"
       clipPathUnits="userSpaceOnUse">
      <path
         style="fill:#e3303d;fill-opacity:1;fill-rule:evenodd;stroke:none"
         d="m 1359.5,636.56303 c -23.0719,23.17447 -37.1562,54.10928 -37.1562,88.0625 0,71.87939 63.1296,130.15625 141,130.15625 77.8703,0 140.9687,-58.27686 140.9687,-130.15625 0,-0.33285 -0.028,-0.66773 -0.031,-1 L 1359.5,636.56303 z m 556.9062,15.15625 -257.8124,73.8125 c 0.5315,71.45951 63.4594,129.25 141,129.25 77.8703,0 141,-58.27686 141,-130.15625 0,-27.0094 -8.9276,-52.10831 -24.1876,-72.90625 z"
         id="path3872"
         inkscape:connector-curvature="0" />
    </clipPath>
    <clipPath
       id="clipPath3897"
       clipPathUnits="userSpaceOnUse">
      <path
         style="fill:#e4383d;fill-opacity:1;fill-rule:evenodd;stroke:none"
         d="m 1285.865,477.02056 c -23.0719,23.17447 -37.1562,54.10928 -37.1562,88.0625 0,71.87939 63.1296,130.15625 141,130.15625 77.8703,0 140.9687,-58.27686 140.9687,-130.15625 0,-0.33285 -0.028,-0.66773 -0.031,-1 l -244.7815,-87.0625 z m 556.9062,15.15625 -257.8124,73.8125 c 0.5315,71.45951 63.4594,129.25 141,129.25 77.8703,0 141,-58.27686 141,-130.15625 0,-27.0094 -8.9276,-52.10831 -24.1876,-72.90625 z"
         id="path3899"
         inkscape:connector-curvature="0" />
    </clipPath>
    <clipPath
       clipPathUnits="userSpaceOnUse"
       id="clipPath4010">
      <path
         style="fill:#ff4132;fill-opacity:1;fill-rule:evenodd;stroke:none"
         d="m 520.43019,184.76156 c -122.84307,0 -225.8805,84.77947 -253.78993,199.02512 -1.96963,-0.0474 -3.94411,-0.0773 -5.92509,-0.0773 -133.38744,0 -241.522015,108.13456 -241.522015,241.52198 0,133.3874 108.134575,241.52196 241.522015,241.52196 l 519.44547,0 c 133.38744,0 241.52206,-108.13456 241.52206,-241.52196 0,-133.38742 -108.13462,-241.52198 -241.52206,-241.52198 -1.98051,0 -3.95601,0.0299 -5.9251,0.0773 C 746.32613,269.54103 643.27326,184.76156 520.43019,184.76156 z"
         id="path4012"
         inkscape:connector-curvature="0"
         sodipodi:nodetypes="scssccsscs" />
    </clipPath>
  </defs>
  <mask
     id="Calque.__214">
    <g
       id="g">
      <g
         id="shape28">
        <path
           d="m 746.9,499.95 q 0,-29.15 -13.15,-52.85 L 527.9,513.45 c 2.75,24.6 13.25,46 31.4,64.15 21.45,21.45 47.35,32.2 77.7,32.2 30.35,0 56.25,-10.75 77.7,-32.2 21.45,-21.45 32.2,-47.3 32.2,-77.65 z m -461.1,0 c 0,30.35 10.7,56.2 32.15,77.65 21.45,21.45 47.35,32.2 77.7,32.2 30.35,0 56.25,-10.75 77.7,-32.2 18.65,-18.65 29.25,-40.65 31.7,-66.1 l -206.1,-64.4 c -8.75,15.8 -13.15,33.4 -13.15,52.85 z"
           id="path19"
           inkscape:connector-curvature="0"
           style="fill:#ffffff;fill-opacity:1" />
      </g>
    </g>
  </mask>
  <g
     id="g4014"
     transform="matrix(0.50115015,0,0,0.50512275,-6.181148,-9.0249374)">
    <path
       style="fill:#ff4d3f;fill-opacity:1;fill-rule:evenodd;stroke:none"
       d="m 520.2673,193.03504 c -121.49971,0 -223.41037,83.85236 -251.01459,196.84867 -1.94809,-0.0469 -3.90098,-0.0765 -5.8603,-0.0765 -131.92877,0 -238.88083,106.95205 -238.88083,238.8808 0,131.92874 106.95206,238.88078 238.88083,238.88078 l 513.76504,0 c 131.92877,0 238.88085,-106.95204 238.88085,-238.88078 0,-131.92875 -106.95208,-238.8808 -238.88085,-238.8808 -1.95885,0 -3.91275,0.0296 -5.8603,0.0765 C 743.69294,276.8874 641.76701,193.03504 520.2673,193.03504 z"
       id="path3905"
       inkscape:connector-curvature="0"
       sodipodi:nodetypes="scssccsscs" />
    <g
       clip-path="url(#clipPath4010)"
       transform="matrix(0.98906443,0,0,0.98906443,5.5283129,10.293955)"
       style="opacity:0.07826089;fill:#000000;fill-opacity:1;stroke:#000000;stroke-opacity:1"
       id="g3950">
      <g
         style="fill:#000000;fill-opacity:1;stroke:#000000;stroke-opacity:1"
         id="g3952">
        <path
           inkscape:connector-curvature="0"
           style="fill:#000000;fill-opacity:1;stroke:#000000;stroke-opacity:1"
           d="m 307.64641,476.74066 85.05133,0 565.68542,565.68544 -85.05133,0 z"
           id="path3954" />
        <path
           inkscape:connector-curvature="0"
           style="fill:#000000;fill-opacity:1;stroke:#000000;stroke-opacity:1"
           d="M 392.69774,476.74066 521.52566,606.81918 1087.2111,1172.5046 958.38316,1042.4261 z"
           id="path3956" />
        <path
           inkscape:connector-curvature="0"
           style="fill:#000000;fill-opacity:1;stroke:#000000;stroke-opacity:1"
           d="M 521.52566,606.81918 649.10295,477.99125 1214.7884,1043.6767 1087.2111,1172.5046 z"
           id="path3958" />
        <path
           inkscape:connector-curvature="0"
           style="fill:#000000;fill-opacity:1;stroke:#000000;stroke-opacity:1"
           d="m 649.10295,477.99125 83.80052,0 565.68543,565.68545 -83.8005,0 z"
           id="path3960" />
        <path
           inkscape:connector-curvature="0"
           style="fill:#000000;fill-opacity:1;stroke:#000000;stroke-opacity:1"
           d="m 732.90347,477.99125 0,293.92795 565.68543,565.6854 0,-293.9279 z"
           id="path3962" />
        <path
           inkscape:connector-curvature="0"
           style="fill:#000000;fill-opacity:1;stroke:#000000;stroke-opacity:1"
           d="m 732.90347,771.9192 -86.30216,0 565.68539,565.6854 86.3022,0 z"
           id="path3964" />
        <path
           inkscape:connector-curvature="0"
           style="fill:#000000;fill-opacity:1;stroke:#000000;stroke-opacity:1"
           d="m 646.60131,771.9192 0,-171.35366 565.68539,565.68546 0,171.3536 z"
           id="path3966" />
        <path
           inkscape:connector-curvature="0"
           style="fill:#000000;fill-opacity:1;stroke:#000000;stroke-opacity:1"
           d="M 646.60131,600.56554 542.78866,704.37819 1108.4741,1270.0636 1212.2867,1166.251 z"
           id="path3968" />
        <path
           inkscape:connector-curvature="0"
           style="fill:#000000;fill-opacity:1;stroke:#000000;stroke-opacity:1"
           d="m 542.78866,704.37819 -41.27496,0 565.6854,565.68541 41.275,0 z"
           id="path3970" />
        <path
           inkscape:connector-curvature="0"
           style="fill:#000000;fill-opacity:1;stroke:#000000;stroke-opacity:1"
           d="M 501.5137,704.37819 393.94856,596.81331 959.63398,1162.4987 1067.1991,1270.0636 z"
           id="path3972" />
        <path
           inkscape:connector-curvature="0"
           style="fill:#000000;fill-opacity:1;stroke:#000000;stroke-opacity:1"
           d="m 393.94856,596.81331 0,172.60425 565.68542,565.68544 0,-172.6043 z"
           id="path3974" />
        <path
           inkscape:connector-curvature="0"
           style="fill:#000000;fill-opacity:1;stroke:#000000;stroke-opacity:1"
           d="m 393.94856,769.41756 -86.30215,0 565.68542,565.68544 86.30215,0 z"
           id="path3976" />
      </g>
      <path
         sodipodi:nodetypes="cccccccccccccc"
         inkscape:connector-curvature="0"
         id="path3932"
         d="m 307.64641,476.74066 85.05133,0 128.82792,130.07852 127.57729,-128.82793 83.80052,0 0,293.92795 -86.30216,0 0,-171.35366 -103.81265,103.81265 -41.27496,0 -107.56514,-107.56488 0,172.60425 -86.30215,0 z"
         style="fill:#000000;fill-opacity:1;stroke:#000000;stroke-opacity:1" />
    </g>
    <path
       style="fill:#f6efeb;fill-opacity:1;stroke:none"
       d="m 307.64641,476.74066 85.05133,0 128.82792,130.07852 127.57729,-128.82793 83.80052,0 0,293.92795 -86.30216,0 0,-171.35366 -103.81265,103.81265 -41.27496,0 -107.56514,-107.56488 0,172.60425 -86.30215,0 z"
       id="path3930"
       inkscape:connector-curvature="0"
       sodipodi:nodetypes="cccccccccccccc" />
  </g>
</svg>
