<?xml version="1.0" encoding="UTF-8" standalone="no"?>
<!-- Created with Inkscape (http://www.inkscape.org/) -->

<svg
   xmlns:dc="http://purl.org/dc/elements/1.1/"
   xmlns:cc="http://creativecommons.org/ns#"
   xmlns:rdf="http://www.w3.org/1999/02/22-rdf-syntax-ns#"
   xmlns:svg="http://www.w3.org/2000/svg"
   xmlns="http://www.w3.org/2000/svg"
   xmlns:sodipodi="http://sodipodi.sourceforge.net/DTD/sodipodi-0.dtd"
   xmlns:inkscape="http://www.inkscape.org/namespaces/inkscape"
   id="svg2"
   version="1.1"
   inkscape:version="0.48.4 r9939"
   width="1000"
   height="1000"
   sodipodi:docname="12177478_1033981073300245_681725660_o.jpg">
  <metadata
     id="metadata8">
    <rdf:RDF>
      <cc:Work
         rdf:about="">
        <dc:format>image/svg+xml</dc:format>
        <dc:type
           rdf:resource="http://purl.org/dc/dcmitype/StillImage" />
        <dc:title></dc:title>
      </cc:Work>
    </rdf:RDF>
  </metadata>
  <defs
     id="defs6" />
  <sodipodi:namedview
     pagecolor="#ffffff"
     bordercolor="#666666"
     borderopacity="1"
     objecttolerance="10"
     gridtolerance="10"
     guidetolerance="10"
     inkscape:pageopacity="0"
     inkscape:pageshadow="2"
     inkscape:window-width="1360"
     inkscape:window-height="717"
     id="namedview4"
     showgrid="false"
     inkscape:zoom="0.472"
     inkscape:cx="562.74002"
     inkscape:cy="484.14312"
     inkscape:window-x="0"
     inkscape:window-y="25"
     inkscape:window-maximized="1"
     inkscape:current-layer="svg2" />
  <path
     sodipodi:type="arc"
     style="fill:#378f41;fill-opacity:1;fill-rule:evenodd;stroke:none"
     id="path3002"
     sodipodi:cx="495.76273"
     sodipodi:cy="648.30511"
     sodipodi:rx="423.72882"
     sodipodi:ry="423.72882"
     d="m 919.49155,648.30511 a 423.72882,423.72882 0 1 1 -847.457645,0 423.72882,423.72882 0 1 1 847.457645,0 z"
     transform="translate(-6.9323684,-141.58565)" />
  <path
     style="color:#000000;fill:#000000;fill-opacity:0.22613065;fill-rule:evenodd;stroke:none;stroke-width:15;marker:none;visibility:visible;display:inline;overflow:visible;enable-background:accumulate"
     d="m 278.24273,275.77695 0,174.41579 157.66974,0 0,98.95154 -106.59798,0 0,117.4603 0,71.0574 106.59798,0 0,-71.0574 106.57419,0 0,71.0574 106.59806,0 0,-71.0574 0,-46.40289 0,-71.05741 -106.59806,0 0,-98.95154 156.93134,0 0,-174.41579 -158.2653,0 0,166.76932 -104.64467,0 0,-166.76932 -158.2653,0 z"
     id="rect2987"
     inkscape:connector-curvature="0" />
  <path
     style="color:#000000;fill:#ffffff;fill-opacity:0.22613065;fill-rule:evenodd;stroke:none;stroke-width:15;marker:none;visibility:visible;display:inline;overflow:visible;enable-background:accumulate"
     d="m 275.05969,275.78882 0,174.40625 3.1875,0 0,-174.40625 -3.1875,0 z m 262.90625,0 0,166.75 3.1875,0 0,-166.75 -3.1875,0 z m -105.21875,174.40625 0,98.9375 3.15625,0 0,-98.9375 -3.15625,0 z m -106.625,98.9375 0,117.46875 0,71.0625 3.1875,0 0,-71.0625 0,-117.46875 -3.1875,0 z m 213.1875,117.46875 0,71.0625 3.1875,0 0,-71.0625 -3.1875,0 z"
     id="path3772"
     inkscape:connector-curvature="0" />
  <path
     style="font-size:medium;font-style:normal;font-variant:normal;font-weight:normal;font-stretch:normal;text-indent:0;text-align:start;text-decoration:none;line-height:normal;letter-spacing:normal;word-spacing:normal;text-transform:none;direction:ltr;block-progression:tb;writing-mode:lr-tb;text-anchor:start;baseline-shift:baseline;color:#000000;fill:#000000;fill-opacity:0.07537686;fill-rule:evenodd;stroke:none;stroke-width:60;marker:none;visibility:visible;display:inline;overflow:visible;enable-background:accumulate;font-family:Sans;-inkscape-font-specification:Sans"
     d="m 277.47861,275.77092 0,174.4375 157.6875,0 0,98.9375 -106.625,0 0,117.46875 0,71.0625 106.625,0 0,-71.0625 106.56245,0 0,71.0625 106.5938,0 0,-71.0625 0,-46.40625 0,-71.0625 -106.5938,0 0,-98.9375 156.9376,0 0,-174.4375 -158.2813,0 0,166.78125 -104.625,0 0,-166.78125 -158.28125,0 z m 30,30 98.28125,0 0,114.40625 -98.28125,0 0,-114.40625 z m 262.93755,0 98.25,0 0,114.40625 -98.25,0 0,-114.40625 z m -105.25,166.78125 46.5624,0 0,76.59375 0,30 30,0 76.5938,0 0,41.0625 0,46.40625 0,41.0625 -46.5938,0 0,-41.0625 0,-30 -30,0 -106.56245,0 -30,0 0,30 0,41.0625 -46.59375,0 0,-41.0625 0,-87.46875 76.59375,0 30.00005,0 0,-30 0,-76.59375 z"
     id="path3816"
     inkscape:connector-curvature="0" />
</svg>
