<svg height="512" width="512" xmlns="http://www.w3.org/2000/svg" xmlns:xlink="http://www.w3.org/1999/xlink"><linearGradient id="a" gradientUnits="userSpaceOnUse" x1="-309.6355" x2="410.39386" y1="-130.72357" y2="328.98169"><stop offset="0"/><stop offset="1" stop-opacity="0"/></linearGradient><g transform="translate(0 -540.36218)"><g transform="translate(0 540.36218)"><path d="m54.285714 83.428574h407.142846c16.62 0 30 13.38 30 29.999996 0 48.33333-4.28571 96.66667-4.28571 145v145c0 16.62-13.38 30-30 30h-397.14285c-16.62 0-30-13.38-30-30v-145c0-48.33333-5.714286-96.66667-5.714286-145 0-16.619996 13.38-29.999996 30-29.999996z" fill="#598184" fill-rule="evenodd"/><path d="m54.285714 83.428574h407.142846c16.62 0 30 13.38 30 29.999996 0 48.33333-4.28571 96.66667-4.28571 145h-457.14285c0-48.33333-5.714286-96.66667-5.714286-145 0-16.619996 13.38-29.999996 30-29.999996z" fill-opacity=".075" fill-rule="evenodd"/><path d="m313.82031 178.24414c-31.09441-.21494-59.87499 5.0964-76.07812 40.45508l53.13672 53.13672c3.5819 109.06705-106.92002 68.87898-160.41407 103.2832l58.3086 58.30859h268.36914c16.62 0 30-13.38 30-30v-107.05468l-117.07031-117.07032c-18.10545 1.18779-37.59531-.92962-56.25196-1.05859z" fill="url(#a)"/></g><path d="m320.67467 699.59265c-1.93155.0154-3.92017.0899-5.9668.22656-65.49234 4.37467-76.9654 59.24247-76.9654 59.24247 11.01817-15.77658 15.75495-23.41904 34.5904-26.45955-10.15771 10.59492-9.87214 15.16274-12.00335 24.41992 2.19049-1.11443 18.01501-18.52966 23.74421-21.17919.88512-.40934-10.79263 11.88075-6.43747 17.62322 2.35764 3.10863 7.55609.46736 8.33333.11485l-16.25977 100.31445c-22.39159-6.93093-44.54068-10.77272-60.05664-8.61523-41.39049 5.75533-69.26735 41.01097-76.77148 57.58008-3.96937 8.76437-3.45695 11.93074-2.09348 12.96908 1.21417.92466 3.10324.16178 3.10324.16178h218.19336s16.48268 9.22195 2.01953-15.15235c-7.28089-12.27027-33.35306-27.72151-62.72851-39.31054l38.51758-110.38086c1.41783 2.49851 3.33651 4.78776 6.02734 6.75586 6.29624-7.13951 4.76317-17.75878 5.42969-27.4004 10.08464 7.30953 11.25419 17.59055 13.58008 27.48633 3.16756-3.50484-1.02758-22.40136 1.56726-22.33604 3.81913.0961 13.6002 19.60942 11.64172 12.50373 4.70975 2.58841-8.1515-27.82368-4.19221-24.23457 6.48859 5.88193 16.75436 23.63242 21.97737 31.20165 0 0-5.37199-56.00793-65.25-55.53125z" fill="#fff"/></g></svg>