<?xml version="1.0" encoding="UTF-8" standalone="no"?>
<!-- Created with Inkscape (http://www.inkscape.org/) -->

<svg
   xmlns:dc="http://purl.org/dc/elements/1.1/"
   xmlns:cc="http://creativecommons.org/ns#"
   xmlns:rdf="http://www.w3.org/1999/02/22-rdf-syntax-ns#"
   xmlns:svg="http://www.w3.org/2000/svg"
   xmlns="http://www.w3.org/2000/svg"
   xmlns:xlink="http://www.w3.org/1999/xlink"
   xmlns:sodipodi="http://sodipodi.sourceforge.net/DTD/sodipodi-0.dtd"
   xmlns:inkscape="http://www.inkscape.org/namespaces/inkscape"
   width="512"
   height="512"
   id="svg2"
   version="1.1"
   inkscape:version="0.91 r13725"
   sodipodi:docname="mkvtoolnix-gui.svg">
  <defs
     id="defs4">
    <linearGradient
       id="linearGradient3889">
      <stop
         style="stop-color:#000000;stop-opacity:1;"
         offset="0"
         id="stop3891" />
      <stop
         style="stop-color:#000000;stop-opacity:0;"
         offset="1"
         id="stop3893" />
    </linearGradient>
    <linearGradient
       id="linearGradient3783">
      <stop
         style="stop-color:#000000;stop-opacity:1;"
         offset="0"
         id="stop3785" />
      <stop
         style="stop-color:#fb5549;stop-opacity:0;"
         offset="1"
         id="stop3787" />
    </linearGradient>
    <linearGradient
       inkscape:collect="always"
       xlink:href="#linearGradient3783"
       id="linearGradient3789"
       x1="-3045.6099"
       y1="379.88196"
       x2="-1068.8168"
       y2="1369.8314"
       gradientUnits="userSpaceOnUse" />
    <clipPath
       clipPathUnits="userSpaceOnUse"
       id="clipPath3793">
      <path
         d="m -937.14288,872.36218 a 762.85712,762.85712 0 1 1 -1525.71422,0 762.85712,762.85712 0 1 1 1525.71422,0 z"
         sodipodi:ry="762.85712"
         sodipodi:rx="762.85712"
         sodipodi:cy="872.36218"
         sodipodi:cx="-1700"
         id="path3795"
         style="fill:#fb5549;fill-opacity:1;fill-rule:evenodd;stroke:none"
         sodipodi:type="arc" />
    </clipPath>
    <linearGradient
       inkscape:collect="always"
       xlink:href="#linearGradient3783"
       id="linearGradient3821"
       gradientUnits="userSpaceOnUse"
       x1="-3045.6099"
       y1="379.88196"
       x2="-1068.8168"
       y2="1369.8314" />
    <clipPath
       clipPathUnits="userSpaceOnUse"
       id="clipPath3899">
      <path
         sodipodi:nodetypes="ssccssssccs"
         inkscape:connector-curvature="0"
         id="path3901"
         d="m 54.285714,83.428574 407.142846,0 c 16.62,0 30,13.38 30,29.999996 0,48.33333 -4.28571,96.66667 -4.28571,145 l 0,145 c 0,16.62 -13.38,30 -30,30 l -397.14285,0 c -16.62,0 -30,-13.38 -30,-30 l 0,-145 c 0,-48.33333 -5.714286,-96.66667 -5.714286,-145 0,-16.619996 13.38,-29.999996 30,-29.999996 z"
         style="color:#000000;fill:#1cc1c1;fill-opacity:1;fill-rule:evenodd;stroke:none;stroke-width:46.59999847;marker:none;visibility:visible;display:inline;overflow:visible;enable-background:accumulate" />
    </clipPath>
    <linearGradient
       inkscape:collect="always"
       xlink:href="#linearGradient3889"
       id="linearGradient4226"
       x1="49.555454"
       y1="409.57578"
       x2="384.93726"
       y2="971.22058"
       gradientUnits="userSpaceOnUse" />
    <clipPath
       clipPathUnits="userSpaceOnUse"
       id="clipPath4230">
      <path
         sodipodi:nodetypes="ssccssssccs"
         inkscape:connector-curvature="0"
         id="path4232"
         d="m 54.285714,623.79075 407.142846,0 c 16.62,0 30,13.38 30,30 0,48.33333 -4.28571,96.66667 -4.28571,145 l 0,145 c 0,16.62 -13.38,30 -30,30 l -397.14285,0 c -16.62,0 -30,-13.38 -30,-30 l 0,-145 c 0,-48.33333 -5.714286,-96.66667 -5.714286,-145 0,-16.62 13.38,-30 30,-30 z"
         style="color:#000000;display:inline;overflow:visible;visibility:visible;fill:#708299;fill-opacity:1;fill-rule:evenodd;stroke:none;stroke-width:46.59999847;marker:none;enable-background:accumulate" />
    </clipPath>
  </defs>
  <sodipodi:namedview
     id="base"
     pagecolor="#ffffff"
     bordercolor="#666666"
     borderopacity="1.0"
     inkscape:pageopacity="0.0"
     inkscape:pageshadow="2"
     inkscape:zoom="0.7"
     inkscape:cx="-87.852172"
     inkscape:cy="156.07647"
     inkscape:document-units="px"
     inkscape:current-layer="layer1"
     showgrid="false"
     showguides="true"
     inkscape:guide-bbox="true"
     inkscape:window-width="1360"
     inkscape:window-height="716"
     inkscape:window-x="0"
     inkscape:window-y="24"
     inkscape:window-maximized="1" />
  <metadata
     id="metadata7">
    <rdf:RDF>
      <cc:Work
         rdf:about="">
        <dc:format>image/svg+xml</dc:format>
        <dc:type
           rdf:resource="http://purl.org/dc/dcmitype/StillImage" />
        <dc:title />
      </cc:Work>
    </rdf:RDF>
  </metadata>
  <g
     inkscape:label="Capa 1"
     inkscape:groupmode="layer"
     id="layer1"
     transform="translate(0,-540.36218)">
    <path
       style="color:#000000;fill:#708299;fill-opacity:1;fill-rule:evenodd;stroke:none;stroke-width:46.59999847000000273;marker:none;visibility:visible;display:inline;overflow:visible;enable-background:accumulate"
       d="m 54.285714,83.428574 407.142846,0 c 16.62,0 30,13.38 30,29.999996 0,48.33333 -4.28571,96.66667 -4.28571,145 l 0,145 c 0,16.62 -13.38,30 -30,30 l -397.14285,0 c -16.62,0 -30,-13.38 -30,-30 l 0,-145 c 0,-48.33333 -5.714286,-96.66667 -5.714286,-145 0,-16.619996 13.38,-29.999996 30,-29.999996 z"
       id="rect3859"
       inkscape:connector-curvature="0"
       sodipodi:nodetypes="ssccssssccs"
       transform="translate(0,540.36218)" />
    <path
       transform="translate(0,540.36218)"
       sodipodi:nodetypes="ssccccs"
       inkscape:connector-curvature="0"
       id="path3881"
       d="m 54.285714,83.428574 407.142846,0 c 16.62,0 30,13.38 30,29.999996 0,48.33333 -4.28571,96.66667 -4.28571,145 l -457.14285,0 c 0,-48.33333 -5.714286,-96.66667 -5.714286,-145 0,-16.619996 13.38,-29.999996 30,-29.999996 z"
       style="color:#000000;fill:#000000;fill-opacity:0.075;fill-rule:evenodd;stroke:none;stroke-width:46.59999847000000273;marker:none;visibility:visible;display:inline;overflow:visible;enable-background:accumulate" />
    <path
       style="fill:#474c52;fill-rule:evenodd;stroke:none;stroke-width:1px;stroke-linecap:butt;stroke-linejoin:miter;stroke-opacity:1;fill-opacity:1"
       d="M 54.285156 83.427734 C 37.665156 83.427734 24.285156 96.807742 24.285156 113.42773 C 24.285156 127.84507 24.800049 142.26235 25.513672 156.67969 L 490.49219 156.67969 C 491.02728 142.26236 491.42773 127.84506 491.42773 113.42773 C 491.42773 96.807742 478.04773 83.427734 461.42773 83.427734 L 54.285156 83.427734 z "
       transform="translate(0,540.36218)"
       id="path4172" />
    <path
       style="color:#000000;font-style:normal;font-variant:normal;font-weight:normal;font-stretch:normal;font-size:medium;line-height:normal;font-family:sans-serif;text-indent:0;text-align:start;text-decoration:none;text-decoration-line:none;text-decoration-style:solid;text-decoration-color:#000000;letter-spacing:normal;word-spacing:normal;text-transform:none;direction:ltr;block-progression:tb;writing-mode:lr-tb;baseline-shift:baseline;text-anchor:start;white-space:normal;clip-rule:nonzero;display:inline;overflow:visible;visibility:visible;opacity:1;isolation:auto;mix-blend-mode:normal;color-interpolation:sRGB;color-interpolation-filters:linearRGB;solid-color:#000000;solid-opacity:1;fill:#ffffff;fill-opacity:1;fill-rule:evenodd;stroke:none;stroke-width:35;stroke-linecap:butt;stroke-linejoin:miter;stroke-miterlimit:4;stroke-dasharray:none;stroke-dashoffset:0;stroke-opacity:1;color-rendering:auto;image-rendering:auto;shape-rendering:auto;text-rendering:auto;enable-background:accumulate"
       d="M 62.6875 83.427734 L 62.628906 83.470703 L 89.777344 120.16797 L 62.765625 156.67969 L 106.30273 156.67969 L 133.3125 120.16797 L 106.13477 83.427734 L 62.6875 83.427734 z M 147.54102 83.427734 L 147.48242 83.470703 L 174.63086 120.16797 L 147.61914 156.67969 L 191.1543 156.67969 L 218.16602 120.16797 L 190.98633 83.427734 L 147.54102 83.427734 z M 232.39453 83.427734 L 232.33594 83.470703 L 259.48242 120.16797 L 232.47266 156.67969 L 276.00781 156.67969 L 303.01953 120.16797 L 275.83984 83.427734 L 232.39453 83.427734 z M 317.24609 83.427734 L 317.1875 83.470703 L 344.33594 120.16797 L 317.32422 156.67969 L 360.86133 156.67969 L 387.87109 120.16797 L 360.69336 83.427734 L 317.24609 83.427734 z M 402.09961 83.427734 L 402.04102 83.470703 L 429.1875 120.16797 L 402.17773 156.67969 L 445.71289 156.67969 L 472.72461 120.16797 L 445.54492 83.427734 L 402.09961 83.427734 z "
       transform="translate(0,540.36218)"
       id="path4151" />
    <path
       style="fill:url(#linearGradient4226);fill-rule:evenodd;stroke:none;stroke-width:1px;stroke-linecap:butt;stroke-linejoin:miter;stroke-opacity:1;fill-opacity:1;opacity:0.692"
       d="M 554.64286,964.86216 319.28571,729.50504 187.85714,767.36218 301.78572,881.29075 290,889.50504 l -110,-110 -43.57143,48.57143 235.35715,235.35713 z"
       id="path4216"
       inkscape:connector-curvature="0"
       sodipodi:nodetypes="ccccccccc"
       clip-path="url(#clipPath4230)" />
    <path
       style="color:#000000;font-style:normal;font-variant:normal;font-weight:normal;font-stretch:normal;font-size:medium;line-height:normal;font-family:sans-serif;text-indent:0;text-align:start;text-decoration:none;text-decoration-line:none;text-decoration-style:solid;text-decoration-color:#000000;letter-spacing:normal;word-spacing:normal;text-transform:none;direction:ltr;block-progression:tb;writing-mode:lr-tb;baseline-shift:baseline;text-anchor:start;white-space:normal;clip-rule:nonzero;display:inline;overflow:visible;visibility:visible;opacity:1;isolation:auto;mix-blend-mode:normal;color-interpolation:sRGB;color-interpolation-filters:linearRGB;solid-color:#000000;solid-opacity:1;fill:#ffffff;fill-opacity:1;fill-rule:nonzero;stroke:none;stroke-width:40;stroke-linecap:round;stroke-linejoin:round;stroke-miterlimit:4;stroke-dasharray:none;stroke-dashoffset:0;stroke-opacity:1;color-rendering:auto;image-rendering:auto;shape-rendering:auto;text-rendering:auto;enable-background:accumulate"
       d="m 259.13644,709.90264 c -27.58332,0 -52.8024,11.2516 -70.9336,29.38281 a 20.002,20.002 0 1 0 28.28321,28.28516 c 10.9378,-10.93781 25.87588,-17.66797 42.65039,-17.66797 16.7745,0 31.71259,6.73016 42.65039,17.66797 6.93182,6.93182 12.16437,15.474 15.07422,25.06836 l -15.94336,0 c -4.31715,0.002 -6.60335,5.10564 -3.73047,8.32812 l 36.22461,40.60157 c 1.98825,2.22739 5.47268,2.22739 7.46093,0 l 36.22657,-40.60157 c 2.87288,-3.22248 0.58668,-8.32632 -3.73047,-8.32812 l -15.46289,0 c -3.66349,-20.61753 -13.63905,-39.15859 -27.83399,-53.35352 -18.1312,-18.13121 -43.35223,-29.38281 -70.93554,-29.38281 z m -80.56446,69.87891 c -1.36817,0 -2.73634,0.55622 -3.73047,1.66992 l -36.22656,40.60156 c -2.87288,3.22248 -0.58668,8.32633 3.73047,8.32813 l 18.51367,0 c 4.01319,19.58338 13.74309,37.17278 27.34375,50.77343 18.1312,18.13122 43.35028,29.38282 70.9336,29.38282 27.58331,0 52.80434,-11.2516 70.93554,-29.38282 a 20.002,20.002 0 1 0 -28.28515,-28.2832 c -10.9378,10.93781 -25.87589,17.66602 -42.65039,17.66602 -16.77451,0 -31.71259,-6.72821 -42.65039,-17.66602 -6.3038,-6.30379 -11.19751,-13.94323 -14.22266,-22.49023 l 12.5332,0 c 4.31715,-0.002 6.60335,-5.10565 3.73047,-8.32813 l -36.22461,-40.60156 c -0.99412,-1.1137 -2.36229,-1.66992 -3.73047,-1.66992 z"
       id="path4191"
       inkscape:connector-curvature="0" />
    <circle
       style="opacity:1;fill:#d8585e;fill-opacity:1;stroke:none;stroke-width:10;stroke-linecap:round;stroke-linejoin:round;stroke-miterlimit:4;stroke-dasharray:none;stroke-opacity:1"
       id="path4253"
       cx="101.42857"
       cy="922.36218"
       r="95.714287" />
    <g
       transform="matrix(1.6466756,0,0,2.5059984,-11.376376,56.368316)"
       style="font-style:normal;font-variant:normal;font-weight:bold;font-stretch:normal;font-size:40px;line-height:125%;font-family:'Univers LT Std';-inkscape-font-specification:'Univers LT Std Bold';letter-spacing:0px;word-spacing:0px;fill:#ffffff;fill-opacity:1;stroke:none;stroke-width:1px;stroke-linecap:butt;stroke-linejoin:miter;stroke-opacity:1"
       id="flowRoot4255">
      <path
         d="m 23.114844,362.16667 5.8,0 0,-24.8 7.72,24.8 5.12,0 7.88,-24.8 0,24.8 6.16,0 0,-28.92 -9.84,0 -6.6,21.04 -6.12,-21.04 -10.12,0 0,28.92 z"
         style=""
         id="path4283" />
      <path
         d="m 61.129219,362.16667 6.2,0 0,-14.72 10.12,14.72 7.72,0 -11.52,-15.96 10.6,-12.96 -7.24,0 -9.68,12.52 0,-12.44 -6.2,0 0,28.84 z"
         style=""
         id="path4285" />
      <path
         d="m 85.647969,333.36667 10.64,28.8 6.760001,0 10.64,-28.8 -6.12,0 -7.600001,22.68 -7.56,-22.68 -6.76,0 z"
         style=""
         id="path4287" />
    </g>
  </g>
</svg>
