<?xml version="1.0" encoding="UTF-8" standalone="no"?>
<!-- Created with Inkscape (http://www.inkscape.org/) -->

<svg
   xmlns:dc="http://purl.org/dc/elements/1.1/"
   xmlns:cc="http://creativecommons.org/ns#"
   xmlns:rdf="http://www.w3.org/1999/02/22-rdf-syntax-ns#"
   xmlns:svg="http://www.w3.org/2000/svg"
   xmlns="http://www.w3.org/2000/svg"
   xmlns:xlink="http://www.w3.org/1999/xlink"
   xmlns:sodipodi="http://sodipodi.sourceforge.net/DTD/sodipodi-0.dtd"
   xmlns:inkscape="http://www.inkscape.org/namespaces/inkscape"
   id="svg2"
   version="1.1"
   inkscape:version="0.48.4 r9939"
   xml:space="preserve"
   width="500"
   height="500"
   viewBox="0 0 500 500"
   sodipodi:docname="modo.svg"
   inkscape:export-filename="/home/cecilia/Downloads/modo.png"
   inkscape:export-xdpi="60"
   inkscape:export-ydpi="60"><sodipodi:namedview
     pagecolor="#ffffff"
     bordercolor="#666666"
     borderopacity="1"
     objecttolerance="10"
     gridtolerance="10"
     guidetolerance="10"
     inkscape:pageopacity="0"
     inkscape:pageshadow="2"
     inkscape:window-width="1360"
     inkscape:window-height="721"
     id="namedview4"
     showgrid="false"
     inkscape:zoom="0.97470287"
     inkscape:cx="349.59985"
     inkscape:cy="239.92868"
     inkscape:window-x="0"
     inkscape:window-y="25"
     inkscape:window-maximized="1"
     inkscape:current-layer="g10" /><metadata
     id="metadata8"><rdf:RDF><cc:Work
         rdf:about=""><dc:format>image/svg+xml</dc:format><dc:type
           rdf:resource="http://purl.org/dc/dcmitype/StillImage" /><dc:title></dc:title></cc:Work></rdf:RDF></metadata><defs
     id="defs6"><linearGradient
       inkscape:collect="always"
       id="linearGradient4620"><stop
         style="stop-color:#445060;stop-opacity:1;"
         offset="0"
         id="stop4622" /><stop
         style="stop-color:#445060;stop-opacity:0;"
         offset="1"
         id="stop4624" /></linearGradient><linearGradient
       inkscape:collect="always"
       xlink:href="#linearGradient4620"
       id="linearGradient4626"
       x1="369.4718"
       y1="50.820827"
       x2="139.75139"
       y2="297.04971"
       gradientUnits="userSpaceOnUse" /><clipPath
       clipPathUnits="userSpaceOnUse"
       id="clipPath4632"><path
         style="fill:url(#linearGradient4636);fill-opacity:1;fill-rule:evenodd;stroke:none"
         d="m 201.21571,396.39789 c 2.1307,-17.11245 -9.1602,-33.2798 -26.34142,-36.89743 -2.54748,-0.53641 -5.09741,-0.76608 -7.59379,-0.71778 1.05068,-2.26505 1.86883,-4.69084 2.40525,-7.23855 3.81473,-18.11708 -7.77305,-35.88628 -25.89014,-39.70099 -4.65854,-0.9809 -9.29337,-0.93298 -13.67553,-0.0273 0.0212,-15.53449 -10.81491,-29.50061 -26.61848,-32.82818 -8.611311,-1.8132 -17.139667,-0.14068 -24.135069,4.05446 -4.03553,-10.02555 -12.830144,-17.91324 -24.199758,-20.30721 -8.492377,-1.78815 -16.923025,-0.18637 -23.866274,3.87917 C 23.888625,240.0628 22.57306,211.36976 28.645607,182.52965 48.821198,86.71041 142.85798,25.405413 238.67722,45.581 c 95.8192,20.175587 157.15116,114.19484 136.97554,210.01408 -17.66191,83.88088 -91.92533,141.32573 -174.43705,140.80281 z"
         id="path4634"
         inkscape:connector-curvature="0" /></clipPath><linearGradient
       inkscape:collect="always"
       xlink:href="#linearGradient4620"
       id="linearGradient4636"
       gradientUnits="userSpaceOnUse"
       x1="369.4718"
       y1="50.820827"
       x2="139.75139"
       y2="297.04971"
       gradientTransform="matrix(0.90764272,0,0,0.90764272,-13.302257,41.085693)" /><linearGradient
       inkscape:collect="always"
       xlink:href="#linearGradient4620"
       id="linearGradient4638"
       gradientUnits="userSpaceOnUse"
       x1="369.4718"
       y1="50.820827"
       x2="139.75139"
       y2="297.04971"
       gradientTransform="matrix(0.87397964,0,0,0.87397964,-9.4824654,19.789149)" /></defs><g
     id="g10"
     inkscape:groupmode="layer"
     inkscape:label="ink_ext_XXXXXX"
     transform="matrix(1.25,0,0,-1.25,0,500.00001)"><path
       style="fill:#445060;fill-opacity:1;fill-rule:evenodd;stroke:none"
       d="m 197.07937,361.92335 c 2.05166,-16.47777 -8.82047,-32.04549 -25.36447,-35.52896 -2.453,-0.51651 -4.90835,-0.73766 -7.31215,-0.69115 1.01172,-2.18105 1.79953,-4.51687 2.31605,-6.97008 3.67325,-17.44515 -7.48476,-34.55532 -24.92991,-38.22854 -4.48576,-0.94452 -8.9487,-0.89839 -13.16833,-0.0263 0.0204,-14.95835 -10.4138,-28.40648 -25.63124,-31.61064 -8.291933,-1.74595 -16.503993,-0.13546 -23.239941,3.90409 -3.885859,-9.65373 -12.354293,-17.24888 -23.302226,-19.55406 -8.177407,-1.72183 -16.295376,-0.17945 -22.981111,3.7353 C 26.329064,211.38649 25.062291,183.75764 30.909617,155.98716 50.336926,63.721714 140.88603,4.6904257 233.15148,24.117731 325.41689,43.545037 384.47415,134.07725 365.0468,226.34271 348.03995,307.11258 276.53084,362.42689 197.07937,361.92335 z"
       id="path2995"
       inkscape:connector-curvature="0" /><g
       style="opacity:0.28695655;fill:#000000"
       transform="matrix(0.96291152,0,0,0.96291152,3.326432,-19.772739)"
       id="g4356"
       clip-path="url(#clipPath4632)"><g
         id="g4369"
         transform="matrix(0.72611418,0,0,-0.72611418,-743.74341,417.82507)"><g
           id="g4371"
           style="fill:#000000;fill-opacity:1;fill-rule:nonzero;stroke:none"><path
             id="path4373"
             d="m 1348.7188,137.46875 c 6.0863,1.88736 11.6814,5.1243 16.069,9.5119 l 212.132,212.13204 c -4.3876,-4.38761 -9.9826,-7.62455 -16.069,-9.51191 z"
             inkscape:connector-curvature="0" /><path
             id="path4375"
             d="m 1364.7878,146.98065 c 2.2866,2.28664 4.2453,4.88581 5.7747,7.76935 l 212.132,212.13203 c -1.5294,-2.88353 -3.4881,-5.4827 -5.7747,-7.76934 z"
             inkscape:connector-curvature="0" /><path
             id="path4377"
             d="m 1370.5625,154.75 c 3.1818,5.99232 4.5,13.79429 4.5,20.46875 l 212.132,212.13203 c 0,-6.67446 -1.3182,-14.47643 -4.5,-20.46875 z"
             inkscape:connector-curvature="0" /><path
             id="path4379"
             d="m 1375.0625,175.21875 c 0,5.63831 -0.9339,10.45425 -2.5313,12.78125 l 212.132,212.13203 c 1.5974,-2.327 2.5313,-7.14294 2.5313,-12.78125 z"
             inkscape:connector-curvature="0" /><path
             id="path4381"
             d="m 1372.5312,188 c -0.097,0.34753 -0.4062,1.62893 -0.4062,4.5625 l 212.132,212.13203 c 0,-2.93357 0.3092,-4.21497 0.4062,-4.5625 z"
             inkscape:connector-curvature="0" /><path
             id="path4383"
             d="m 1372.125,192.5625 c 0,1.40957 0.081,3.21092 0.2812,5.40625 l 212.132,212.13203 c -0.2002,-2.19533 -0.2812,-3.99668 -0.2812,-5.40625 z"
             inkscape:connector-curvature="0" /><path
             id="path4385"
             d="m 1372.4062,197.96875 c 2.6465,0.44467 5.606,1.36324 8.7813,2.65625 l 212.132,212.13203 c -3.1753,-1.29301 -6.1348,-2.21158 -8.7813,-2.65625 z"
             inkscape:connector-curvature="0" /><path
             id="path4387"
             d="m 1381.1875,200.625 c 14.262,-13.44389 18.8672,-33.7209 15.625,-40.46875 l 212.132,212.13203 c 3.2422,6.74785 -1.363,27.02486 -15.625,40.46875 z"
             inkscape:connector-curvature="0" /><path
             id="path4389"
             d="m 1396.8125,160.15625 c -16.9625,-13.34028 -32.6877,-21.63841 -48.0937,-22.6875 l 212.132,212.13203 c 15.406,1.04909 31.1312,9.34722 48.0937,22.6875 z"
             inkscape:connector-curvature="0" /><path
             id="path4391"
             d="m 1335.7812,140.09375 c -3.5195,0.055 -7.0527,0.60672 -10.4374,1.71875 l 212.132,212.13203 c 3.3847,-1.11203 6.9179,-1.66375 10.4374,-1.71875 z"
             inkscape:connector-curvature="0" /><path
             id="path4393"
             d="m 1325.3438,141.8125 c -11.8336,5.01447 -8.3128,34.99721 -1.4376,60.34375 l 212.132,212.13203 c -6.8752,-25.34654 -10.396,-55.32928 1.4376,-60.34375 z"
             inkscape:connector-curvature="0" /><path
             id="path4395"
             d="m 1323.9062,202.15625 c 13.6469,-4.48562 34.062,-4.91675 44.5313,1.65625 l 212.132,212.13203 c -10.4693,-6.573 -30.8844,-6.14187 -44.5313,-1.65625 z"
             inkscape:connector-curvature="0" /><path
             id="path4397"
             d="m 1368.4375,203.8125 c -1.8435,-12.68407 -0.4111,-16.93846 -0.094,-17.6875 l 212.132,212.13203 c -0.3171,0.74904 -1.7495,5.00343 0.094,17.6875 z"
             inkscape:connector-curvature="0" /><path
             id="path4399"
             d="m 1368.3435,186.125 c 0.095,-0.22666 0.2131,-0.44152 0.375,-0.625 l 212.132,212.13203 c -0.1619,0.18348 -0.28,0.39834 -0.375,0.625 z"
             inkscape:connector-curvature="0" /><path
             id="path4401"
             d="m 1368.7185,185.5 c 2.273,-2.57739 3.2155,-18.41154 -2.1876,-28.59375 l 212.132,212.13203 c 5.4031,10.18221 4.4606,26.01636 2.1876,28.59375 z"
             inkscape:connector-curvature="0" /><path
             id="path4403"
             d="m 1366.5309,156.90625 c -1.3428,-2.53075 -3.062,-4.81307 -5.0699,-6.821 l 212.132,212.13204 c 2.008,2.00792 3.7271,4.29024 5.0699,6.82099 z"
             inkscape:connector-curvature="0" /><path
             id="path4405"
             d="m 1361.461,150.08525 c -6.5153,-6.5153 -16.0714,-10.14156 -25.6801,-9.9915 l 212.132,212.13203 c 9.6088,-0.15005 19.1648,3.4762 25.6801,9.99151 z"
             inkscape:connector-curvature="0" /><path
             id="path4407"
             d="m 1315.0938,147.84375 c -15.9933,12.32572 -22.9062,35.3762 -18.9063,74.40625 l 212.132,212.13203 c -3.9999,-39.03005 2.913,-62.08053 18.9063,-74.40625 z"
             inkscape:connector-curvature="0" /><path
             id="path4409"
             d="m 1296.1875,222.25 c 4.7187,-7.84012 14.0345,-14.46234 23.4375,-18.46875 l 212.132,212.13203 c -9.403,4.00641 -18.7188,10.62863 -23.4375,18.46875 z"
             inkscape:connector-curvature="0" /><path
             id="path4411"
             d="m 1319.625,203.78125 c -3.3307,-12.23722 -9.8156,-40.1623 -4.5312,-55.9375 l 212.132,212.13203 c -5.2844,15.7752 1.2005,43.70028 4.5312,55.9375 z"
             inkscape:connector-curvature="0" /><path
             id="path4413"
             d="m 1402.2812,164.59375 c 0.1814,3.97187 -0.5093,8.73758 -2.0937,13.8125 l 212.132,212.13203 c 1.5844,-5.07492 2.2751,-9.84063 2.0937,-13.8125 z"
             inkscape:connector-curvature="0" /><path
             id="path4415"
             d="m 1400.1875,178.40625 c -1.7031,5.45052 -5.7867,15.41158 -14.5313,24.21875 l 212.132,212.13203 c 8.7446,-8.80717 12.8282,-18.76823 14.5313,-24.21875 z"
             inkscape:connector-curvature="0" /><path
             id="path4417"
             d="m 1385.6562,202.625 c 11.73,5.63184 25.5129,15.17575 37.0313,23.875 l 212.132,212.13203 c -11.5184,-8.69925 -25.3013,-18.24316 -37.0313,-23.875 z"
             inkscape:connector-curvature="0" /><path
             id="path4419"
             d="m 1422.6875,226.5 c 5.9233,-5.61673 16.3934,-17.15423 20.4063,-22.46875 l 212.132,212.13203 c -4.0129,5.31452 -14.483,16.85202 -20.4063,22.46875 z"
             inkscape:connector-curvature="0" /><path
             id="path4421"
             d="m 1443.0938,204.03125 c -4.2229,-4.55185 -8.6681,-9.11501 -12.8724,-13.31929 l 212.132,212.13204 c 4.2043,4.20428 8.6495,8.76743 12.8724,13.31928 z"
             inkscape:connector-curvature="0" /><path
             id="path4423"
             d="m 1430.2214,190.71196 c -10.6674,-10.66741 -19.7839,-19.02446 -19.7839,-19.02446 l 212.132,212.13203 c 0,0 9.1165,8.35705 19.7839,19.02447 z"
             inkscape:connector-curvature="0" /><path
             id="path4425"
             d="m 1410.4375,171.6875 c 0,0 0,0 0,0 l 212.132,212.13203 c 0,0 0,0 0,0 z"
             inkscape:connector-curvature="0" /><path
             id="path4427"
             d="m 1410.4375,171.6875 c -2.763,-2.47162 -5.4623,-4.84662 -8.1563,-7.09375 l 212.132,212.13203 c 2.694,2.24713 5.3933,4.62213 8.1563,7.09375 z"
             inkscape:connector-curvature="0" /><path
             id="path4429"
             d="m 1372.9688,202.71875 c 0.1532,1.0901 0.324,2.23186 0.5312,3.46875 l 212.132,212.13203 c -0.2072,-1.23689 -0.378,-2.37865 -0.5312,-3.46875 z"
             inkscape:connector-curvature="0" /><path
             id="path4431"
             d="m 1373.5,206.1875 c 1.3405,-0.80085 2.5468,-1.53766 3.5938,-2.25 l 212.132,212.13203 c -1.047,0.71234 -2.2533,1.44915 -3.5938,2.25 z"
             inkscape:connector-curvature="0" /><path
             id="path4433"
             d="m 1377.0938,203.9375 c -1.455,-0.51375 -2.8256,-0.92734 -4.125,-1.21875 l 212.132,212.13203 c 1.2994,0.29141 2.67,0.705 4.125,1.21875 z"
             inkscape:connector-curvature="0" /><path
             id="path4435"
             d="m 1347.1875,203.40625 c -8.1902,-0.15964 -17.0681,1.15505 -24,3.84375 l 212.132,212.13203 c 6.9319,-2.6887 15.8098,-4.00339 24,-3.84375 z"
             inkscape:connector-curvature="0" /><path
             id="path4437"
             d="m 1323.1875,207.25 c -13.323,5.16559 -26.3061,15.8474 -25.5937,26.375 l 212.132,212.13203 c -0.7124,-10.5276 12.2707,-21.20941 25.5937,-26.375 z"
             inkscape:connector-curvature="0" /><path
             id="path4439"
             d="m 1297.5938,233.625 c 0.8332,5.78511 1.8665,11.85719 3.125,18.28125 l 212.132,212.13203 c -1.2585,-6.42406 -2.2918,-12.49614 -3.125,-18.28125 z"
             inkscape:connector-curvature="0" /><path
             id="path4441"
             d="m 1300.7188,251.90625 c 7.8832,36.42457 29.7363,106.20414 27.5,117.90625 l 212.132,212.13203 c 2.2363,-11.70211 -19.6168,-81.48168 -27.5,-117.90625 z"
             inkscape:connector-curvature="0" /><path
             id="path4443"
             d="m 1328.2188,369.8125 c 1.606,-9.15731 -15.4949,-53.72519 -26.8126,-90.15625 l 212.132,212.13203 c 11.3177,36.43106 28.4186,80.99894 26.8126,90.15625 z"
             inkscape:connector-curvature="0" /><path
             id="path4445"
             d="m 1301.4062,279.65625 c -48.4535,-43.07098 -84.6051,-55.5038 -110.625,-48.40625 l 212.132,212.13203 c 26.0199,-7.09755 62.1715,5.33527 110.625,48.40625 z"
             inkscape:connector-curvature="0" /><path
             id="path4447"
             d="m 1190.7812,231.25 c -27.3033,7.4451 -42.2,33.90555 -46.75,59.96875 l 212.132,212.13203 c 4.55,-26.0632 19.4467,-52.52365 46.75,-59.96875 z"
             inkscape:connector-curvature="0" /><path
             id="path4449"
             d="m 1144.0312,291.21875 c -8.4459,48.36691 10.1808,100.84044 21.4167,112.07632 l 212.132,212.13204 c -11.2359,-11.23588 -29.8626,-63.70941 -21.4167,-112.07633 z"
             inkscape:connector-curvature="0" /><path
             id="path4451"
             d="m 1165.4479,403.29507 c 0.7634,0.76343 1.4927,1.33648 2.1771,1.70493 l 212.132,212.13203 c -0.6843,-0.36844 -1.4137,-0.9415 -2.1771,-1.70492 z"
             inkscape:connector-curvature="0" /><path
             id="path4453"
             d="m 1167.625,405 c 2.6266,1.41412 7.2687,8.38894 26.4688,2.90625 l 212.132,212.13203 c -19.2001,5.48269 -23.8422,-1.49213 -26.4688,-2.90625 z"
             inkscape:connector-curvature="0" /><path
             id="path4455"
             d="m 1194.0938,407.90625 c 11.584,-3.30959 25.1728,-11.2044 28.125,-21.53125 l 212.132,212.13203 c -2.9522,10.32685 -16.541,18.22166 -28.125,21.53125 z"
             inkscape:connector-curvature="0" /><path
             id="path4457"
             d="m 1222.2188,386.375 c 3.6443,-12.7579 -9.096,-63.08251 -9.3438,-85.625 l 212.132,212.13203 c 0.2478,22.54249 12.9881,72.8671 9.3438,85.625 z"
             inkscape:connector-curvature="0" /><path
             id="path4459"
             d="m 1212.875,300.75 0,-0.125 212.132,212.13203 0,0.125 z"
             inkscape:connector-curvature="0" /><path
             id="path4461"
             d="m 1212.875,300.625 c -0.017,-1.97082 0.086,-3.72281 0.2812,-5.21875 l 212.132,212.13203 c -0.1952,1.49594 -0.2982,3.24793 -0.2812,5.21875 z"
             inkscape:connector-curvature="0" /><path
             id="path4463"
             d="m 1213.1562,295.40625 c 1.1948,-11.35218 6.4541,-14.67111 14.0313,-16.15625 l 212.132,212.13203 c -7.5772,1.48514 -12.8365,4.80407 -14.0313,16.15625 z"
             inkscape:connector-curvature="0" /><path
             id="path4465"
             d="m 1227.1875,279.25 c -6.0577,1.8154 -8.1095,7.76443 -8.9375,15.59375 l 212.132,212.13203 c 0.828,-7.82932 2.8798,-13.77835 8.9375,-15.59375 z"
             inkscape:connector-curvature="0" /><path
             id="path4467"
             d="m 1218.25,294.84375 c 11.7975,4.45324 23.5995,13.80599 49.9062,36.09375 l 212.132,212.13203 c -26.3067,-22.28776 -38.1087,-31.64051 -49.9062,-36.09375 z"
             inkscape:connector-curvature="0" /><path
             id="path4469"
             d="m 1268.1562,330.9375 c 5.9661,5.05441 11.5658,10.32847 16.867,15.62973 l 212.1321,212.13203 c -5.3013,-5.30125 -10.9009,-10.57532 -16.8671,-15.62973 z"
             inkscape:connector-curvature="0" /><path
             id="path4471"
             d="m 1285.0232,346.56723 c 15.3942,15.39413 28.2722,31.01755 40.3015,42.15735 l 212.132,212.13204 c -12.0293,-11.1398 -24.9073,-26.76322 -40.3014,-42.15736 z"
             inkscape:connector-curvature="0" /><path
             id="path4473"
             d="m 1325.3247,388.72458 c 8.1824,7.57741 15.9722,13.08031 23.8941,15.02542 l 212.132,212.13203 c -7.9219,-1.9451 -15.7116,-7.448 -23.8941,-15.02541 z"
             inkscape:connector-curvature="0" /><path
             id="path4475"
             d="m 1349.2188,403.75 c 28.4765,6.99459 46.9391,-8.31064 51.3124,-38.0625 l 212.132,212.13203 c -4.3733,29.75186 -22.8359,45.05709 -51.3124,38.0625 z"
             inkscape:connector-curvature="0" /><path
             id="path4477"
             d="m 1400.5312,365.6875 c 3.1538,-21.44375 -8.5983,-70.29288 -17.8437,-105.5 l 212.132,212.13203 c 9.2454,35.20712 20.9975,84.05625 17.8437,105.5 z"
             inkscape:connector-curvature="0" /><path
             id="path4479"
             d="m 1382.6875,260.1875 c -2.2428,-7.70197 -4.2848,-15.13528 -6.0937,-22.1875 l 212.132,212.13203 c 1.8089,7.05222 3.8509,14.48553 6.0937,22.1875 z"
             inkscape:connector-curvature="0" /><path
             id="path4481"
             d="m 1376.5938,238 c -3.2747,-10.87514 -5.4375,-19.5773 -6.8126,-26.5 l 212.132,212.13203 c 1.3751,6.9227 3.5379,15.62486 6.8126,26.5 z"
             inkscape:connector-curvature="0" /><path
             id="path4483"
             d="m 1369.7812,211.5 c -0.3858,-0.75484 -0.9109,-1.45594 -1.5587,-2.10373 l 212.132,212.13203 c 0.6478,0.64779 1.1729,1.34889 1.5587,2.10373 z"
             inkscape:connector-curvature="0" /><path
             id="path4485"
             d="m 1368.2225,209.39627 c -3.8475,-3.84751 -12.0222,-5.81434 -21.035,-5.99002 l 212.132,212.13203 c 9.0128,0.17569 17.1875,2.14252 21.035,5.99002 z"
             inkscape:connector-curvature="0" /><path
             id="path4487"
             d="m 1382.0625,205.9375 c -2.245,1.79166 -5.3691,3.69723 -7.6875,5.03125 l 212.132,212.13203 c 2.3184,-1.33402 5.4425,-3.23959 7.6875,-5.03125 z"
             inkscape:connector-curvature="0" /><path
             id="path4489"
             d="m 1374.375,210.96875 c 1.1505,5.77 2.8549,12.84825 5.3438,21.5 l 212.132,212.13203 c -2.4889,-8.65175 -4.1933,-15.73 -5.3438,-21.5 z"
             inkscape:connector-curvature="0" /><path
             id="path4491"
             d="m 1379.7188,232.46875 c 0.5914,1.81324 1.1693,3.59424 1.75,5.3125 l 212.132,212.13203 c -0.5807,-1.71826 -1.1586,-3.49926 -1.75,-5.3125 z"
             inkscape:connector-curvature="0" /><path
             id="path4493"
             d="m 1381.4688,237.78125 c 4.0517,3.53582 8.4841,7.47447 13,11.3125 l 212.132,212.13203 c -4.5159,-3.83803 -8.9483,-7.77668 -13,-11.3125 z"
             inkscape:connector-curvature="0" /><path
             id="path4495"
             d="m 1394.4688,249.09375 c 4.9453,-1.66646 17.6603,-13.10962 23.875,-18.6875 l 212.132,212.13203 c -6.2147,5.57788 -18.9297,17.02104 -23.875,18.6875 z"
             inkscape:connector-curvature="0" /><path
             id="path4497"
             d="m 1418.3438,230.40625 0.9374,-0.84375 212.132,212.13203 -0.9374,0.84375 z"
             inkscape:connector-curvature="0" /><path
             id="path4499"
             d="m 1419.2812,229.5625 c -11.9587,-8.9734 -25.9723,-18.51985 -37.2187,-23.625 l 212.132,212.13203 c 11.2464,5.10515 25.26,14.6516 37.2187,23.625 z"
             inkscape:connector-curvature="0" /><path
             id="path4501"
             d="m 1446.2188,207.4375 c -4.408,5.65558 -13.9237,16.11476 -19.875,21.84375 l 212.132,212.13203 c 5.9513,-5.72899 15.467,-16.18817 19.875,-21.84375 z"
             inkscape:connector-curvature="0" /><path
             id="path4503"
             d="m 1426.3438,229.28125 c 9.6015,7.40407 17.1026,13.76274 19.5937,15.90625 l 212.132,212.13203 c -2.4911,-2.14351 -9.9922,-8.50218 -19.5937,-15.90625 z"
             inkscape:connector-curvature="0" /><path
             id="path4505"
             d="m 1445.9375,245.1875 c 4.5353,-1.37936 15.54,-8.76727 17.5,-11.4375 l 212.132,212.13203 c -1.96,2.67023 -12.9647,10.05814 -17.5,11.4375 z"
             inkscape:connector-curvature="0" /><path
             id="path4507"
             d="m 1463.4375,233.75 c 0.03,-0.5893 0.031,-1.15863 -0.031,-1.6875 l 212.132,212.13203 c 0.062,0.52887 0.061,1.0982 0.031,1.6875 z"
             inkscape:connector-curvature="0" /><path
             id="path4509"
             d="m 1463.4065,232.0625 c -0.5763,-4.89143 -8.0327,-14.49243 -17.1874,-24.625 l 212.132,212.13203 c 9.1547,10.13257 16.6111,19.73357 17.1874,24.625 z"
             inkscape:connector-curvature="0" /><path
             id="path4511"
             d="m 1422.9688,232.375 -1.5626,1.40625 212.132,212.13203 1.5626,-1.40625 z"
             inkscape:connector-curvature="0" /><path
             id="path4513"
             d="m 1421.4062,233.78125 c -8.6085,7.72571 -17.3679,15.37 -23.125,18.5 l 212.132,212.13203 c 5.7571,-3.13 14.5165,-10.77429 23.125,-18.5 z"
             inkscape:connector-curvature="0" /><path
             id="path4515"
             d="m 1398.2812,252.28125 c 9.7333,8.00417 19.6143,14.96911 27.0313,16.09375 l 212.132,212.13203 c -7.417,-1.12464 -17.298,-8.08958 -27.0313,-16.09375 z"
             inkscape:connector-curvature="0" /><path
             id="path4517"
             d="m 1425.3125,268.375 c 4.7857,-4.11649 14.6886,-13.55436 17.3437,-20 l 212.132,212.13203 c -2.6551,6.44564 -12.558,15.88351 -17.3437,20 z"
             inkscape:connector-curvature="0" /><path
             id="path4519"
             d="m 1442.6562,248.375 c -3.5725,-3.12569 -10.863,-9.23703 -19.6874,-16 l 212.132,212.13203 c 8.8244,6.76297 16.1149,12.87431 19.6874,16 z"
             inkscape:connector-curvature="0" /><path
             id="path4521"
             d="m 1461.1562,241.71875 c -4.6108,3.37393 -10.4866,6.76012 -14.0937,7.84375 l 212.132,212.13203 c 3.6071,-1.08363 9.4829,-4.46982 14.0937,-7.84375 z"
             inkscape:connector-curvature="0" /><path
             id="path4523"
             d="m 1447.0625,249.5625 c -2.2342,5.89519 -9.0071,13.1066 -14,17.875 l 212.132,212.13203 c 4.9929,-4.7684 11.7658,-11.97981 14,-17.875 z"
             inkscape:connector-curvature="0" /><path
             id="path4525"
             d="m 1433.0625,267.4375 c 5.2325,-1.83698 10.7526,-5.73826 15.875,-9.71875 l 212.132,212.13203 c -5.1224,3.98049 -10.6425,7.88177 -15.875,9.71875 z"
             inkscape:connector-curvature="0" /><path
             id="path4527"
             d="m 1448.9375,257.71875 c 4.6583,-3.62433 9.4665,-10.01197 12.2187,-16 l 212.132,212.13203 c -2.7522,5.98803 -7.5604,12.37567 -12.2187,16 z"
             inkscape:connector-curvature="0" /></g><path
           inkscape:connector-curvature="0"
           id="path4358"
           d="m 1348.7188,137.46875 c 9.2583,2.87097 17.3797,8.86478 21.8437,17.28125 3.1818,5.99232 4.5,13.79429 4.5,20.46875 0,5.63831 -0.9339,10.45425 -2.5313,12.78125 -0.097,0.34753 -0.4062,1.62893 -0.4062,4.5625 0,1.40957 0.081,3.21092 0.2812,5.40625 2.6465,0.44467 5.606,1.36324 8.7813,2.65625 14.262,-13.44389 18.8672,-33.7209 15.625,-40.46875 -16.9625,-13.34028 -32.6877,-21.63841 -48.0937,-22.6875 z m -12.9376,2.625 c -3.5195,0.055 -7.0527,0.60672 -10.4374,1.71875 -11.8336,5.01447 -8.3128,34.99721 -1.4376,60.34375 13.6469,-4.48562 34.062,-4.91675 44.5313,1.65625 -1.8435,-12.68407 -0.4111,-16.93846 -0.094,-17.6875 0.095,-0.22666 0.2131,-0.44152 0.375,-0.625 2.273,-2.57739 3.2155,-18.41154 -2.1876,-28.59375 -5.7001,-10.74252 -18.18,-17.0088 -30.75,-16.8125 z m -20.6874,7.75 c -15.9933,12.32572 -22.9062,35.3762 -18.9063,74.40625 4.7187,-7.84012 14.0345,-14.46234 23.4375,-18.46875 -3.3307,-12.23722 -9.8156,-40.1623 -4.5312,-55.9375 z m 87.1874,16.75 c 0.1814,3.97187 -0.5093,8.73758 -2.0937,13.8125 -1.7031,5.45052 -5.7867,15.41158 -14.5313,24.21875 11.73,5.63184 25.5129,15.17575 37.0313,23.875 5.9233,-5.61673 16.3934,-17.15423 20.4063,-22.46875 -14.9377,-16.10116 -32.6563,-32.34375 -32.6563,-32.34375 -2.763,-2.47162 -5.4623,-4.84662 -8.1563,-7.09375 z m -29.3124,38.125 c 0.1532,1.0901 0.324,2.23186 0.5312,3.46875 1.3405,-0.80085 2.5468,-1.53766 3.5938,-2.25 -1.455,-0.51375 -2.8256,-0.92734 -4.125,-1.21875 z m -25.7813,0.6875 c -8.1902,-0.15964 -17.0681,1.15505 -24,3.84375 -13.323,5.16559 -26.3061,15.8474 -25.5937,26.375 0.8332,5.78511 1.8665,11.85719 3.125,18.28125 7.8832,36.42457 29.7363,106.20414 27.5,117.90625 1.606,-9.15731 -15.4949,-53.72519 -26.8126,-90.15625 -48.4535,-43.07098 -84.6051,-55.5038 -110.625,-48.40625 -27.3033,7.4451 -42.2,33.90555 -46.75,59.96875 -9.0198,51.65323 12.837,107.99009 23.5938,113.78125 2.6266,1.41412 7.2687,8.38894 26.4688,2.90625 11.584,-3.30959 25.1728,-11.2044 28.125,-21.53125 3.6443,-12.7579 -9.096,-63.08251 -9.3438,-85.625 l 0,-0.125 c -0.017,-1.97082 0.086,-3.72281 0.2812,-5.21875 1.1948,-11.35218 6.4541,-14.67111 14.0313,-16.15625 -6.0577,1.8154 -8.1095,7.76443 -8.9375,15.59375 11.7975,4.45324 23.5995,13.80599 49.9062,36.09375 35.0755,29.71538 57.4839,67.02308 81.0626,72.8125 28.4765,6.99459 46.9391,-8.31064 51.3124,-38.0625 3.1538,-21.44375 -8.5983,-70.29288 -17.8437,-105.5 -2.2428,-7.70197 -4.2848,-15.13528 -6.0937,-22.1875 -3.2747,-10.87514 -5.4375,-19.5773 -6.8126,-26.5 -2.6773,-5.23817 -12.0635,-7.88849 -22.5937,-8.09375 z m 34.875,2.53125 c -2.245,1.79166 -5.3691,3.69723 -7.6875,5.03125 1.1505,5.77 2.8549,12.84825 5.3438,21.5 0.5914,1.81324 1.1693,3.59424 1.75,5.3125 4.0517,3.53582 8.4841,7.47447 13,11.3125 4.9453,-1.66646 17.6603,-13.10962 23.875,-18.6875 l 0.9374,-0.84375 c -11.9587,-8.9734 -25.9723,-18.51985 -37.2187,-23.625 z m 64.1563,1.5 c -4.408,5.65558 -13.9237,16.11476 -19.875,21.84375 9.6015,7.40407 17.1026,13.76274 19.5937,15.90625 4.5353,-1.37936 15.54,-8.76727 17.5,-11.4375 0.03,-0.5893 0.031,-1.15863 -0.031,-1.6875 -0.5763,-4.89143 -8.0327,-14.49243 -17.1874,-24.625 z m -23.25,24.9375 -1.5626,1.40625 c -8.6085,7.72571 -17.3679,15.37 -23.125,18.5 9.7333,8.00417 19.6143,14.96911 27.0313,16.09375 4.7857,-4.11649 14.6886,-13.55436 17.3437,-20 -3.5725,-3.12569 -10.863,-9.23703 -19.6874,-16 z m 38.1874,9.34375 c -4.6108,3.37393 -10.4866,6.76012 -14.0937,7.84375 -2.2342,5.89519 -9.0071,13.1066 -14,17.875 5.2325,-1.83698 10.7526,-5.73826 15.875,-9.71875 4.6583,-3.62433 9.4665,-10.01197 12.2187,-16 z"
           style="fill:#000000;fill-opacity:1;fill-rule:nonzero;stroke:none" /></g></g><path
       inkscape:connector-curvature="0"
       id="path4618"
       d="m 197.07937,361.92335 c 2.05166,-16.47777 -8.82047,-32.04549 -25.36447,-35.52896 -2.453,-0.51651 -4.90835,-0.73766 -7.31215,-0.69115 1.01172,-2.18105 1.79953,-4.51687 2.31605,-6.97008 3.67325,-17.44515 -7.48476,-34.55532 -24.92991,-38.22854 -4.48576,-0.94452 -8.9487,-0.89839 -13.16833,-0.0263 0.0204,-14.95835 -10.4138,-28.40648 -25.63124,-31.61064 -8.291933,-1.74595 -16.503993,-0.13546 -23.239941,3.90409 -3.885859,-9.65373 -12.354293,-17.24888 -23.302226,-19.55406 -8.177407,-1.72183 -16.295376,-0.17945 -22.981111,3.7353 C 26.329064,211.38649 25.062291,183.75764 30.909617,155.98716 50.336926,63.721714 140.88603,4.6904257 233.15148,24.117731 325.41689,43.545037 384.47415,134.07725 365.0468,226.34271 348.03995,307.11258 276.53084,362.42689 197.07937,361.92335 z"
       style="fill:url(#linearGradient4638);fill-opacity:1;fill-rule:evenodd;stroke:none" /><g
       id="g4179"
       transform="matrix(0.96291152,0,0,0.96291152,3.326432,-19.772739)"><path
         style="fill:#41c1d7;fill-opacity:1;fill-rule:nonzero;stroke:none"
         d="m 1348.7188,137.46875 c 9.2583,2.87097 17.3797,8.86478 21.8437,17.28125 3.1818,5.99232 4.5,13.79429 4.5,20.46875 0,5.63831 -0.9339,10.45425 -2.5313,12.78125 -0.097,0.34753 -0.4062,1.62893 -0.4062,4.5625 0,1.40957 0.081,3.21092 0.2812,5.40625 2.6465,0.44467 5.606,1.36324 8.7813,2.65625 14.262,-13.44389 18.8672,-33.7209 15.625,-40.46875 -16.9625,-13.34028 -32.6877,-21.63841 -48.0937,-22.6875 z m -12.9376,2.625 c -3.5195,0.055 -7.0527,0.60672 -10.4374,1.71875 -11.8336,5.01447 -8.3128,34.99721 -1.4376,60.34375 13.6469,-4.48562 34.062,-4.91675 44.5313,1.65625 -1.8435,-12.68407 -0.4111,-16.93846 -0.094,-17.6875 0.095,-0.22666 0.2131,-0.44152 0.375,-0.625 2.273,-2.57739 3.2155,-18.41154 -2.1876,-28.59375 -5.7001,-10.74252 -18.18,-17.0088 -30.75,-16.8125 z m -20.6874,7.75 c -15.9933,12.32572 -22.9062,35.3762 -18.9063,74.40625 4.7187,-7.84012 14.0345,-14.46234 23.4375,-18.46875 -3.3307,-12.23722 -9.8156,-40.1623 -4.5312,-55.9375 z m 87.1874,16.75 c 0.1814,3.97187 -0.5093,8.73758 -2.0937,13.8125 -1.7031,5.45052 -5.7867,15.41158 -14.5313,24.21875 11.73,5.63184 25.5129,15.17575 37.0313,23.875 5.9233,-5.61673 16.3934,-17.15423 20.4063,-22.46875 -14.9377,-16.10116 -32.6563,-32.34375 -32.6563,-32.34375 -2.763,-2.47162 -5.4623,-4.84662 -8.1563,-7.09375 z m -29.3124,38.125 c 0.1532,1.0901 0.324,2.23186 0.5312,3.46875 1.3405,-0.80085 2.5468,-1.53766 3.5938,-2.25 -1.455,-0.51375 -2.8256,-0.92734 -4.125,-1.21875 z m -25.7813,0.6875 c -8.1902,-0.15964 -17.0681,1.15505 -24,3.84375 -13.323,5.16559 -26.3061,15.8474 -25.5937,26.375 0.8332,5.78511 1.8665,11.85719 3.125,18.28125 7.8832,36.42457 29.7363,106.20414 27.5,117.90625 1.606,-9.15731 -15.4949,-53.72519 -26.8126,-90.15625 -48.4535,-43.07098 -84.6051,-55.5038 -110.625,-48.40625 -27.3033,7.4451 -42.2,33.90555 -46.75,59.96875 -9.0198,51.65323 12.837,107.99009 23.5938,113.78125 2.6266,1.41412 7.2687,8.38894 26.4688,2.90625 11.584,-3.30959 25.1728,-11.2044 28.125,-21.53125 3.6443,-12.7579 -9.096,-63.08251 -9.3438,-85.625 l 0,-0.125 c -0.017,-1.97082 0.086,-3.72281 0.2812,-5.21875 1.1948,-11.35218 6.4541,-14.67111 14.0313,-16.15625 -6.0577,1.8154 -8.1095,7.76443 -8.9375,15.59375 11.7975,4.45324 23.5995,13.80599 49.9062,36.09375 35.0755,29.71538 57.4839,67.02308 81.0626,72.8125 28.4765,6.99459 46.9391,-8.31064 51.3124,-38.0625 3.1538,-21.44375 -8.5983,-70.29288 -17.8437,-105.5 -2.2428,-7.70197 -4.2848,-15.13528 -6.0937,-22.1875 -3.2747,-10.87514 -5.4375,-19.5773 -6.8126,-26.5 -2.6773,-5.23817 -12.0635,-7.88849 -22.5937,-8.09375 z m 34.875,2.53125 c -2.245,1.79166 -5.3691,3.69723 -7.6875,5.03125 1.1505,5.77 2.8549,12.84825 5.3438,21.5 0.5914,1.81324 1.1693,3.59424 1.75,5.3125 4.0517,3.53582 8.4841,7.47447 13,11.3125 4.9453,-1.66646 17.6603,-13.10962 23.875,-18.6875 l 0.9374,-0.84375 c -11.9587,-8.9734 -25.9723,-18.51985 -37.2187,-23.625 z m 64.1563,1.5 c -4.408,5.65558 -13.9237,16.11476 -19.875,21.84375 9.6015,7.40407 17.1026,13.76274 19.5937,15.90625 4.5353,-1.37936 15.54,-8.76727 17.5,-11.4375 0.03,-0.5893 0.031,-1.15863 -0.031,-1.6875 -0.5763,-4.89143 -8.0327,-14.49243 -17.1874,-24.625 z m -23.25,24.9375 -1.5626,1.40625 c -8.6085,7.72571 -17.3679,15.37 -23.125,18.5 9.7333,8.00417 19.6143,14.96911 27.0313,16.09375 4.7857,-4.11649 14.6886,-13.55436 17.3437,-20 -3.5725,-3.12569 -10.863,-9.23703 -19.6874,-16 z m 38.1874,9.34375 c -4.6108,3.37393 -10.4866,6.76012 -14.0937,7.84375 -2.2342,5.89519 -9.0071,13.1066 -14,17.875 5.2325,-1.83698 10.7526,-5.73826 15.875,-9.71875 4.6583,-3.62433 9.4665,-10.01197 12.2187,-16 z"
         transform="matrix(0.72611418,0,0,-0.72611418,-743.74341,417.82507)"
         id="path22"
         inkscape:connector-curvature="0" /></g></g></svg>