<?xml version="1.0" encoding="UTF-8" standalone="no"?>
<!-- Created with Inkscape (http://www.inkscape.org/) -->

<svg
   xmlns:dc="http://purl.org/dc/elements/1.1/"
   xmlns:cc="http://creativecommons.org/ns#"
   xmlns:rdf="http://www.w3.org/1999/02/22-rdf-syntax-ns#"
   xmlns:svg="http://www.w3.org/2000/svg"
   xmlns="http://www.w3.org/2000/svg"
   xmlns:sodipodi="http://sodipodi.sourceforge.net/DTD/sodipodi-0.dtd"
   xmlns:inkscape="http://www.inkscape.org/namespaces/inkscape"
   id="svg2"
   version="1.1"
   inkscape:version="0.48.4 r9939"
   width="512"
   height="512"
   sodipodi:docname="shuttle.png">
  <metadata
     id="metadata8">
    <rdf:RDF>
      <cc:Work
         rdf:about="">
        <dc:format>image/svg+xml</dc:format>
        <dc:type
           rdf:resource="http://purl.org/dc/dcmitype/StillImage" />
        <dc:title></dc:title>
      </cc:Work>
    </rdf:RDF>
  </metadata>
  <defs
     id="defs6" />
  <sodipodi:namedview
     pagecolor="#ffffff"
     bordercolor="#666666"
     borderopacity="1"
     objecttolerance="10"
     gridtolerance="10"
     guidetolerance="10"
     inkscape:pageopacity="0"
     inkscape:pageshadow="2"
     inkscape:window-width="1360"
     inkscape:window-height="717"
     id="namedview4"
     showgrid="false"
     inkscape:zoom="0.61458333"
     inkscape:cx="375.79661"
     inkscape:cy="115.57831"
     inkscape:window-x="0"
     inkscape:window-y="25"
     inkscape:window-maximized="1"
     inkscape:current-layer="svg2" />
  <path
     style="font-size:medium;font-style:normal;font-variant:normal;font-weight:normal;font-stretch:normal;text-indent:0;text-align:start;text-decoration:none;line-height:normal;letter-spacing:normal;word-spacing:normal;text-transform:none;direction:ltr;block-progression:tb;writing-mode:lr-tb;text-anchor:start;baseline-shift:baseline;color:#000000;fill:#30a1e2;fill-opacity:1;stroke:none;stroke-width:33;marker:none;visibility:visible;display:inline;overflow:visible;enable-background:accumulate;font-family:Sans;-inkscape-font-specification:Sans"
     d="m 313.87219,63.417963 0,83.188747 58.84658,0 0,137.86014 c -4.63893,-0.67804 -9.35281,-1.10289 -14.17989,-1.10289 -53.80177,0 -97.44745,43.64566 -97.44745,97.44742 0,53.80176 43.64568,97.44742 97.44745,97.44742 51.4002,0 93.47603,-39.81096 97.1323,-90.27869 l 0.2362,0 0,-7.16873 0,-275.79904 A 41.598531,41.598531 0 0 0 414.31301,63.417963 l -100.44095,0 z"
     id="path3766"
     inkscape:connector-curvature="0" />
  <path
     style="font-size:medium;font-style:normal;font-variant:normal;font-weight:normal;font-stretch:normal;text-indent:0;text-align:start;text-decoration:none;line-height:normal;letter-spacing:normal;word-spacing:normal;text-transform:none;direction:ltr;block-progression:tb;writing-mode:lr-tb;text-anchor:start;baseline-shift:baseline;color:#000000;fill:#ffffff;fill-opacity:0.04285715;stroke:none;stroke-width:33;marker:none;visibility:visible;display:inline;overflow:visible;enable-background:accumulate;font-family:Sans;-inkscape-font-specification:Sans"
     d="m 313.89222,63.410485 0,9.453268 100.44097,0 a 41.598531,41.598531 0 0 1 41.59436,41.594377 l 0,-9.45327 A 41.598531,41.598531 0 0 0 414.33319,63.410485 l -100.44097,0 z m 44.66669,219.945995 c -53.80177,0 -97.44744,43.64565 -97.44744,97.44741 0,1.47122 0.0152,2.95621 0.0789,4.41154 2.61091,-51.47387 45.2482,-92.40569 97.36867,-92.40569 4.82708,0 9.54096,0.42484 14.17989,1.10289 l 0,-9.45327 c -4.63893,-0.67804 -9.35281,-1.10288 -14.17989,-1.10288 z"
     id="path3779"
     inkscape:connector-curvature="0" />
  <path
     style="fill:#1861a8;fill-opacity:1;stroke:none"
     d="M 342.78345,113.6921 313.64107,146.68743 283.30264,95.715816 z"
     id="path3777"
     inkscape:connector-curvature="0"
     sodipodi:nodetypes="cccc" />
  <path
     style="fill:#5bb4e8;fill-opacity:1;fill-rule:evenodd;stroke:none"
     d="m 191.37359,30.56787 c -10.88908,0.0011 -21.71069,4.484178 -29.41045,12.183921 -7.69974,7.699755 -12.18283,18.521365 -12.18392,29.410451 l 0,183.235808 c -3.85463,-0.46887 -7.75657,-0.709 -11.73781,-0.709 -53.235419,0 -96.423306,43.1879 -96.423306,96.42333 0,53.23541 43.187887,96.34453 96.423306,96.34453 53.23543,0 96.42331,-43.10912 96.42331,-96.34453 0,-5.65626 -0.56204,-11.23299 -1.49676,-16.622 l 0,-220.73376 110.13057,0 -40.99219,-83.18875 z"
     id="path2987"
     inkscape:connector-curvature="0"
     sodipodi:nodetypes="csccssssccccc" />
  <path
     style="fill:#ffffff;fill-opacity:0.05238097;fill-rule:evenodd;stroke:none"
     d="m 191.39364,30.560378 c -10.88909,0.0011 -21.76294,4.510731 -29.46268,12.210473 -7.55191,7.551906 -11.96228,18.077339 -12.1317,28.753689 2.08599,-5.330458 5.24734,-10.210314 9.29571,-14.258675 7.69974,-7.699755 18.49483,-12.209384 29.3839,-12.210473 l 110.76079,0 33.79544,68.693738 10.08348,0 -41.04293,-83.188752 -110.68201,0 z m 38.6796,97.683762 0,220.73376 c 0.93472,5.38901 1.49677,10.96574 1.49677,16.62199 0,3.91807 -0.25433,7.78503 -0.709,11.58026 2.32642,-8.29113 3.62376,-17.0394 3.62376,-26.07526 0,-5.65626 -0.56206,-11.23298 -1.49676,-16.622 l 0,-206.23875 -2.91477,0 z m -92.01179,126.43743 c -49.227389,0 -89.874491,36.95208 -95.714313,84.60673 11.456004,-40.45723 48.683694,-70.11173 92.799563,-70.11173 3.98123,0 7.88317,0.24 11.7378,0.70901 l 0,-14.81012 c -2.90901,-0.26512 -5.83839,-0.39389 -8.82305,-0.39389 z"
     id="path3781"
     inkscape:connector-curvature="0" />
  <path
     style="font-size:medium;font-style:normal;font-variant:normal;font-weight:normal;font-stretch:normal;text-indent:0;text-align:start;text-decoration:none;line-height:normal;letter-spacing:normal;word-spacing:normal;text-transform:none;direction:ltr;block-progression:tb;writing-mode:lr-tb;text-anchor:start;baseline-shift:baseline;color:#000000;fill:#000000;fill-opacity:0.16190479;stroke:none;stroke-width:33;marker:none;visibility:visible;display:inline;overflow:visible;enable-background:accumulate;font-family:Sans;-inkscape-font-specification:Sans"
     d="m 313.89222,140.76972 0,5.82951 58.84659,0 0,-5.82951 -58.84659,0 z m -52.70198,237.11942 c -0.0282,0.96534 -0.0789,1.94258 -0.0789,2.91475 0,53.80176 43.64568,97.44742 97.44745,97.44742 51.4002,0 93.47603,-39.81095 97.13231,-90.27869 l 0.23621,0 0,-5.82952 -0.23621,0 c -3.65628,50.46775 -45.73211,90.27869 -97.13231,90.27869 -52.8296,0 -95.83059,-42.0742 -97.36867,-94.53265 z"
     id="path3792"
     inkscape:connector-curvature="0" />
</svg>
