<?xml version="1.0" encoding="UTF-8" standalone="no"?>
<!-- Created with Inkscape (http://www.inkscape.org/) -->

<svg
   xmlns:dc="http://purl.org/dc/elements/1.1/"
   xmlns:cc="http://creativecommons.org/ns#"
   xmlns:rdf="http://www.w3.org/1999/02/22-rdf-syntax-ns#"
   xmlns:svg="http://www.w3.org/2000/svg"
   xmlns="http://www.w3.org/2000/svg"
   xmlns:sodipodi="http://sodipodi.sourceforge.net/DTD/sodipodi-0.dtd"
   xmlns:inkscape="http://www.inkscape.org/namespaces/inkscape"
   width="512"
   height="512"
   id="svg2"
   version="1.1"
   inkscape:version="0.48.4 r9939"
   sodipodi:docname="xpad.svg"
   viewBox="0 0 512 512">
  <sodipodi:namedview
     id="base"
     pagecolor="#ffffff"
     bordercolor="#666666"
     borderopacity="1.0"
     inkscape:pageopacity="0.0"
     inkscape:pageshadow="2"
     inkscape:zoom="0.31626455"
     inkscape:cx="190.69582"
     inkscape:cy="334.91765"
     inkscape:document-units="px"
     inkscape:current-layer="layer1"
     showgrid="false"
     fit-margin-top="0"
     fit-margin-left="0"
     fit-margin-right="0"
     fit-margin-bottom="0"
     inkscape:window-width="1360"
     inkscape:window-height="717"
     inkscape:window-x="0"
     inkscape:window-y="25"
     inkscape:window-maximized="1" />
  <defs
     id="defs4">
    <clipPath
       clipPathUnits="userSpaceOnUse"
       id="clipPath3834">
      <ellipse
         transform="matrix(1.1407578,0,0,1.1407578,-235.31869,-287.38679)"
         sodipodi:ry="179.70776"
         sodipodi:rx="179.70778"
         sodipodi:cy="482.37531"
         sodipodi:cx="436.25208"
         d="m 615.95985,482.37531 c 0,99.24985 -80.45791,179.70776 -179.70777,179.70776 -99.24987,0 -179.70778,-80.45791 -179.70778,-179.70776 0,-99.24986 80.45791,-179.70777 179.70778,-179.70777 99.24986,0 179.70777,80.45791 179.70777,179.70777 z"
         ry="179.70776"
         rx="179.70778"
         cy="482.37531"
         cx="436.25208"
         id="ellipse3836"
         style="fill:#4b96c1;fill-opacity:1;fill-rule:evenodd;stroke:none" />
    </clipPath>
    <clipPath
       clipPathUnits="userSpaceOnUse"
       id="clipPath3856">
      <path
         sodipodi:nodetypes="cscsccccsccc"
         inkscape:connector-curvature="0"
         id="path3858"
         d="m 1390,-159.25 c -2.6127,0.0409 -5.1785,1.1577 -7,3.03125 -1.8215,1.87354 -2.8764,4.4809 -2.8438,7.09375 0,0 -15.2187,55.333421 -15.2187,83.6875 0,28.354079 15.2187,83.6875 15.2187,83.6875 0.9232,15.068495 0.4063,30.851 0.4063,46.1875 l 18,0 c -2.025,-14.71118 1.625,-32.821268 1.5937,-46.1875 0,0 14.0626,-55.40074 14.0626,-83.6875 0,-28.28676 -14.0626,-83.6875 -14.0626,-83.6875 0.033,-2.66492 -1.05,-5.33713 -2.9374,-7.21875 -1.8876,-1.88163 -4.554,-2.94782 -7.2188,-2.90625 z"
         style="font-size:medium;font-style:normal;font-variant:normal;font-weight:normal;font-stretch:normal;text-indent:0;text-align:start;text-decoration:none;line-height:normal;letter-spacing:normal;word-spacing:normal;text-transform:none;direction:ltr;block-progression:tb;writing-mode:lr-tb;text-anchor:start;baseline-shift:baseline;color:#000000;fill:#1f2831;fill-opacity:1;stroke:none;stroke-width:20;marker:none;visibility:visible;display:inline;overflow:visible;enable-background:accumulate;font-family:Sans;-inkscape-font-specification:Sans" />
    </clipPath>
  </defs>
  <metadata
     id="metadata7">
    <rdf:RDF>
      <cc:Work
         rdf:about="">
        <dc:format>image/svg+xml</dc:format>
        <dc:type
           rdf:resource="http://purl.org/dc/dcmitype/StillImage" />
        <dc:title></dc:title>
      </cc:Work>
    </rdf:RDF>
  </metadata>
  <g
     inkscape:label="Capa 1"
     inkscape:groupmode="layer"
     id="layer1"
     transform="translate(-180.23661,-225.8125)">
    <rect
       ry="39.703922"
       transform="translate(180.23661,225.8125)"
       y="72.494537"
       x="66.400108"
       height="382.59109"
       width="382.59109"
       id="rect3947"
       style="color:#000000;fill:#7fbfaa;fill-opacity:1;fill-rule:evenodd;stroke:none;stroke-width:200;marker:none;visibility:visible;display:inline;overflow:visible;enable-background:accumulate" />
    <path
       transform="translate(180.23661,225.8125)"
       style="color:#000000;fill:#c3e1d7;fill-opacity:1;fill-rule:evenodd;stroke:none;stroke-width:200;marker:none;visibility:visible;display:inline;overflow:visible;enable-background:accumulate"
       d="m 106.10403,72.494537 303.18325,0 c 21.99597,0 39.70392,17.70795 39.70392,39.703923 l 0,303.18325 c 0,21.99597 -17.70795,39.70392 -39.70392,39.70392 -63.16318,0 -126.32635,0 -189.48953,0 L 66.400108,301.68799 c 0,-63.16318 0,-126.32635 0,-189.48953 0,-21.995973 17.70795,-39.703923 39.703922,-39.703923 z"
       id="rect3917"
       inkscape:connector-curvature="0"
       sodipodi:nodetypes="ssssccccs" />
    <path
       style="fill:#ef998a;fill-opacity:1;fill-rule:nonzero;stroke:none"
       id="path3781"
       d="m 251.87352,527.15437 c 23.47075,-27.28062 50.25319,-51.40911 76.85123,-75.55607 14.28534,-11.61138 27.63496,-25.11608 44.16057,-33.60756 3.1391,-1.613 6.42783,-6.69263 9.42356,-4.8268 6.577,4.09635 8.90922,12.67964 13.36382,19.01947 -0.17527,0.26239 -0.54024,1.10241 -0.5258,0.78719 0.47657,-10.40223 7.30627,7.63231 -8.36396,-16.51251 -0.39626,-0.61055 -1.31425,-1.34059 -0.94564,-1.96823 0.60233,-1.02561 9.42432,-6.72497 9.46855,-6.75454 0.16146,-0.947 8.45108,-5.05452 10.11842,-5.9584 0.8445,-0.45775 1.84214,-2.04754 2.53093,-1.37801 0.76709,0.74563 -1.27241,2.19928 -0.73466,3.12406 3.47175,5.97028 8.17501,11.13363 12.26252,16.70045 1.56663,-0.43979 3.54496,-2.46564 4.69989,-1.31939 1.00674,0.99918 -2.14997,1.85252 -3.17711,2.83073 -1.48134,1.41075 -2.92427,2.86208 -4.34545,4.33342 -5.45249,5.64493 -10.26124,11.65603 -15.04797,17.86463 -8.25413,11.67356 -16.99271,22.99349 -25.87719,34.19129 -2.44271,3.34258 -5.42812,6.35648 -7.39307,10.03792 -1.88904,3.53921 -2.98294,7.67893 -4.34275,11.4263 -2.69594,7.30646 -4.92487,14.72773 -6.96026,22.2376 -0.43826,3.92758 -2.88967,9.57776 -3.00418,11.37596 -0.16266,-0.29467 0.006,-0.70009 -0.17811,-0.97372 -1.4947,-2.21811 -3.06443,-4.39217 -4.77093,-6.45179 -0.74045,-0.89368 -2.75447,-1.23561 -2.54412,-2.37697 0.32113,-1.7424 2.32402,-2.69675 3.6877,-3.8279 2.92818,-2.42887 6.10041,-4.54748 9.15062,-6.82122 1.99549,-1.68621 3.85224,-3.55186 5.98647,-5.05863 7.82459,-5.52419 23.65035,-15.24167 31.84083,-20.04082 11.50708,-6.74247 23.06277,-12.80371 35.35331,-17.93598 12.54382,-4.84914 15.99854,-9.89617 26.37946,8.5377 2.63454,4.67816 -6.47117,15.47048 -9.45979,19.09508 -0.42534,0.65545 -0.37105,0.42374 -0.43749,1.39748 -0.31941,4.68178 -0.24747,9.2808 -1.18625,13.92208 -0.46897,2.31851 -1.22324,4.57004 -1.83486,6.85506 -4.10569,13.64371 -12.12597,25.5367 -20.1056,37.17201 -0.14893,-6.1466 -3.0631,7.20134 -4.21387,5.26911 -0.62811,-1.0547 0.74922,-2.63738 0.10326,-3.68126 -2.85458,-4.6131 -7.47714,-7.98534 -10.21908,-12.66627 -0.82798,-1.41341 3.08819,-3.66332 6.20676,-5.89646 -1.37821,-2.39344 -0.34797,-0.33893 5.91752,-3.96239 5.63933,-3.26133 15.59866,-10.52292 21.79458,-9.07775 3.49666,0.81557 6.65364,2.70116 9.98046,4.05175 1.68506,2.46748 3.70771,4.73558 5.0552,7.40245 1.21034,2.39546 1.78172,7.4588 2.38061,10.19283 0.97784,4.46404 2.53869,8.67316 4.21142,12.91116 2.82146,6.25715 6.34283,12.1917 10.24094,17.83552 2.51907,3.14916 4.44527,6.67342 6.34583,10.21147 1.59965,3.77095 2.60564,3.85649 5.415,6.46369 2.63764,2.56084 4.73545,5.58556 6.88439,8.54648 0.97926,1.61032 -21.79361,15.45966 -22.77291,13.84937 l 0,0 c -0.69032,-1.54585 -1.17949,-3.12688 -2.42988,-4.3051 -4.16509,-3.76888 -8.26075,-7.59764 -10.12332,-13.08099 -0.90065,-2.09551 -1.25091,-3.79426 -3.1727,-5.14481 -7.05182,-6.73862 -12.54671,-14.76023 -16.26723,-23.81051 -2.23175,-6.07547 -4.08294,-11.87215 -4.86388,-18.32687 -0.14941,-1.23492 -0.27888,-2.48083 -0.23905,-3.72412 0.0128,-0.39862 0.0201,-1.26706 0.39451,-1.12958 1.19105,0.43741 1.98645,1.57915 2.97967,2.36873 2.19722,0.58661 4.44064,1.02164 6.59168,1.75985 0.3024,0.10378 0.31797,0.7693 0.63384,0.71987 1.042,-0.16308 3.62586,-2.03469 2.89691,-1.27245 -1.48886,1.55676 -3.47452,2.5495 -5.26447,3.74796 -7.54284,5.05028 -10.34687,6.23244 -19.60539,11.32345 -1.72684,0.71256 -11.5522,5.27039 -13.80039,4.17083 -15.93567,-7.79396 -17.62541,-12.92039 -11.01149,-24.99143 5.90468,-10.91026 13.44399,-20.88444 18.54076,-32.20798 0.92013,-2.04467 2.62771,-5.57352 3.23441,-7.85194 1.63663,-6.14642 -0.0944,-12.83596 2.81514,-18.74593 0.61192,-1.21375 6.31261,-11.73605 7.96543,-11.20666 1.49781,0.47975 0.16349,3.46782 1.32475,4.5285 13.46627,12.29992 10.03314,11.95398 19.81785,9.42931 -25.62724,22.16602 -56.37936,37.39235 -86.30798,52.79144 -5.3078,2.10985 -14.22011,6.28145 -20.43622,6.68855 -10.13325,0.66365 -17.43186,-4.77009 -18.25456,-14.82704 -0.0748,-1.70906 -0.19001,-3.99956 -0.10349,-5.4777 0.20147,-3.44213 2.06317,-6.6306 1.8056,-10.15747 1.4717,-8.71698 4.35729,-17.05131 6.93449,-25.48834 2.09666,-5.76682 1.01943,-2.57526 3.13464,-9.60688 2.42774,-6.69647 6.22437,-12.61553 10.41176,-18.32609 8.07421,-11.63079 15.58301,-23.64027 24.01026,-35.03004 7.26469,-10.16926 14.57582,-18.84955 24.41279,-26.65557 1.80498,-1.43231 3.58095,-2.93805 5.58951,-4.06727 3.6383,-2.04543 7.52485,-3.61394 11.28728,-5.4209 5.18758,5.15884 11.58543,9.33605 15.56276,15.47653 1.08073,1.6685 -0.93325,3.90967 -1.87018,5.66296 -0.77815,1.45614 -2.02782,2.61542 -3.18368,3.79432 -6.76268,6.89751 -15.63554,10.91263 -23.86956,15.71886 -3.2535,1.55038 -16.79946,8.39479 -20.40731,6.00352 -9.37611,-6.21449 -15.17611,-12.09246 -9.40585,-20.63349 38.2547,43.1412 0.254,11.27663 22.52259,13.02251 1.62399,0.12732 -1.42846,2.9429 -2.35949,4.27961 -9.22419,13.24344 -21.04602,24.50897 -32.4409,35.80776 -6.05432,5.6705 -11.97444,11.48776 -18.16294,17.0115 -15.0284,13.41409 -22.01026,18.71915 -37.83488,30.66189 -10.29138,7.76684 -20.59812,15.81121 -32.29011,21.41999 -1.12348,1.452 -21.65795,-14.43637 -20.53446,-15.88838 z"
       inkscape:connector-curvature="0" />
    <path
       sodipodi:nodetypes="sssccccccccssccccccccss"
       inkscape:connector-curvature="0"
       id="path3925"
       d="m 286.34064,310.95468 303.18325,0 c 21.99597,0 39.70392,17.70795 39.70392,39.70392 l 0,37.89791 -23.91194,0 -23.91195,11.06668 -23.91194,-11.06668 -23.91194,-12.64764 -23.91195,12.64764 -23.91194,12.64764 -23.91194,-4.74287 c 0,0 -13.80887,-17.76737 -23.91195,-18.97145 -3.37293,-0.40199 -7.71356,10.64801 -11.76886,12.71776 -6.43024,3.28188 -12.14308,-1.65108 -12.14308,-1.65108 l -23.91194,12.64764 -23.91195,-12.64764 -23.91194,-11.06668 -23.91194,11.06668 -23.91195,-6.32382 -23.91194,15.80955 -23.91194,-9.48573 0,-37.89791 c 0,-21.99597 17.70795,-39.70392 39.70392,-39.70392 z"
       style="color:#000000;fill:#000000;fill-opacity:0.15714286;fill-rule:evenodd;stroke:none;stroke-width:200;marker:none;visibility:visible;display:inline;overflow:visible;enable-background:accumulate" />
    <path
       style="color:#000000;fill:#d2e8e1;fill-opacity:1;fill-rule:evenodd;stroke:none;stroke-width:200;marker:none;visibility:visible;display:inline;overflow:visible;enable-background:accumulate"
       d="m 106.10403,72.494537 303.18325,0 c 21.99597,0 39.70392,17.70795 39.70392,39.703923 l 0,37.89791 -23.91194,0 -23.91195,11.06668 -23.91194,-11.06668 -23.91194,-12.64764 -23.91195,12.64764 -23.91194,12.64764 -23.91194,-4.74287 c 0,0 -13.80887,-17.76737 -23.91195,-18.97145 -3.37293,-0.40199 -7.71356,10.64801 -11.76886,12.71776 -6.43024,3.28188 -12.14308,-1.65108 -12.14308,-1.65108 l -23.91194,12.64764 -23.91195,-12.64764 -23.91194,-11.06668 -23.91194,11.06668 -23.91195,-6.32382 -23.911939,15.80955 -23.911943,-9.48573 0,-37.89791 c 0,-21.995973 17.70795,-39.703923 39.703922,-39.703923 z"
       id="rect3922"
       inkscape:connector-curvature="0"
       sodipodi:nodetypes="sssccccccccssccccccccss"
       transform="translate(180.23661,225.8125)" />
    <path
       transform="translate(180.23661,225.8125)"
       style="color:#000000;fill:#39445e;fill-opacity:1;fill-rule:evenodd;stroke:none;stroke-width:200;marker:none;visibility:visible;display:inline;overflow:visible;enable-background:accumulate"
       d="m 106.10403,72.494537 303.18325,0 c 21.99597,0 39.70392,17.70795 39.70392,39.703923 l 0,18.94895 -382.591092,0 0,-18.94895 c 0,-21.995973 17.70795,-39.703923 39.703922,-39.703923 z"
       id="rect3919"
       inkscape:connector-curvature="0"
       sodipodi:nodetypes="sssccss" />
    <path
       style="fill:#000000;stroke:none;stroke-width:1px;stroke-linecap:butt;stroke-linejoin:miter;stroke-opacity:1;fill-opacity:0.1"
       d="m 219.35749,454.69038 c 9.15553,-74.715 34.88879,-125.44398 -22.01276,-148.51238 -8.08539,-3.27789 1.68761,44.39875 -9.60634,41.79793 z"
       id="path3965"
       inkscape:connector-curvature="0"
       transform="translate(180.23661,225.8125)"
       sodipodi:nodetypes="cscc" />
    <path
       sodipodi:nodetypes="cccsscccc"
       inkscape:connector-curvature="0"
       id="path3961"
       d="m 246.63672,527.50051 37.8979,0 37.8979,0 37.89791,0 c 21.9959,0 39.7039,17.70795 39.7039,39.70392 l 0,37.8979 0,37.8979 0,37.8979 z"
       style="color:#000000;fill:#e3f1ed;fill-opacity:1;fill-rule:evenodd;stroke:none;stroke-width:200;marker:none;visibility:visible;display:inline;overflow:visible;enable-background:accumulate" />
    <path
       style="color:#000000;fill:#ffffff;fill-opacity:0.07619048;fill-rule:evenodd;stroke:none;stroke-width:200;marker:none;visibility:visible;display:inline;overflow:visible;enable-background:accumulate"
       d="M 106.09375 72.5 C 84.097778 72.5 66.40625 90.191527 66.40625 112.1875 L 66.40625 123.25 C 66.40625 101.25403 84.09778 83.5625 106.09375 83.5625 L 409.28125 83.5625 C 431.27722 83.5625 449 101.25403 449 123.25 L 449 112.1875 C 449 90.191527 431.27722 72.5 409.28125 72.5 L 106.09375 72.5 z "
       transform="translate(180.23661,225.8125)"
       id="path4138" />
    <g
       id="g3860"
       transform="matrix(-0.92105426,-0.47067243,-0.47067243,0.92105426,1805.7216,1135.1363)">
      <path
         sodipodi:nodetypes="cscsccccsccc"
         inkscape:connector-curvature="0"
         id="path3835"
         d="m 1390,-159.25 c -2.6127,0.0409 -5.1785,1.1577 -7,3.03125 -1.8215,1.87354 -2.8764,4.4809 -2.8438,7.09375 0,0 -15.2187,55.333421 -15.2187,83.6875 0,28.354079 15.2187,83.6875 15.2187,83.6875 0.9232,15.068495 0.4063,30.851 0.4063,46.1875 l 18,0 c -2.025,-14.71118 1.625,-32.821268 1.5937,-46.1875 0,0 14.0626,-55.40074 14.0626,-83.6875 0,-28.28676 -14.0626,-83.6875 -14.0626,-83.6875 0.033,-2.66492 -1.05,-5.33713 -2.9374,-7.21875 -1.8876,-1.88163 -4.554,-2.94782 -7.2188,-2.90625 z"
         style="font-size:medium;font-style:normal;font-variant:normal;font-weight:normal;font-stretch:normal;text-indent:0;text-align:start;text-decoration:none;line-height:normal;letter-spacing:normal;word-spacing:normal;text-transform:none;direction:ltr;block-progression:tb;writing-mode:lr-tb;text-anchor:start;baseline-shift:baseline;color:#000000;fill:#213430;fill-opacity:1;stroke:none;stroke-width:20;marker:none;visibility:visible;display:inline;overflow:visible;enable-background:accumulate;font-family:Sans;-inkscape-font-specification:Sans" />
      <path
         sodipodi:nodetypes="sssccs"
         inkscape:connector-curvature="0"
         id="path3843"
         d="m 1413.6202,92.081563 c 0,29.054297 -28.5208,71.401687 -28.2266,59.051387 0.3133,-13.15122 -6.6468,-31.41801 -16.5105,-53.77908 -8.563,-19.412402 0.721,-38.527002 11.1636,-47.426568 12.3918,-8.992013 10.4043,-5.932637 17.5699,-0.62174 8.6087,5.920917 16.0036,20.003727 16.0036,42.776001 z"
         style="fill:#ff557d;fill-opacity:1;fill-rule:evenodd;stroke:none" />
      <path
         transform="matrix(1,0,0,0.9353816,0,1.4549286)"
         inkscape:connector-curvature="0"
         clip-path="url(#clipPath3856)"
         id="rect3851"
         d="m 1354.1764,22.515701 90.073,0 c 7.9906,0 14.4234,6.432869 14.4234,14.423474 0,7.990604 -6.4328,14.423473 -14.4234,14.423473 l -90.073,0 c -7.9906,0 -14.4235,-6.432869 -14.4235,-14.423473 0,-7.990605 6.4329,-14.423474 14.4235,-14.423474 z"
         style="color:#000000;fill:#ffe5cc;fill-opacity:1;fill-rule:evenodd;stroke:none;stroke-width:18;marker:none;visibility:visible;display:inline;overflow:visible;enable-background:accumulate" />
    </g>
  </g>
</svg>
