<?xml version="1.0" encoding="UTF-8" standalone="no"?>
<!-- Created with Inkscape (http://www.inkscape.org/) -->

<svg
   xmlns:dc="http://purl.org/dc/elements/1.1/"
   xmlns:cc="http://creativecommons.org/ns#"
   xmlns:rdf="http://www.w3.org/1999/02/22-rdf-syntax-ns#"
   xmlns:svg="http://www.w3.org/2000/svg"
   xmlns="http://www.w3.org/2000/svg"
   xmlns:sodipodi="http://sodipodi.sourceforge.net/DTD/sodipodi-0.dtd"
   xmlns:inkscape="http://www.inkscape.org/namespaces/inkscape"
   width="512"
   height="512"
   id="svg3779"
   version="1.1"
   inkscape:version="0.48.4 r9939"
   sodipodi:docname="mysql-workbench.svg">
  <defs
     id="defs3781">
    <clipPath
       clipPathUnits="userSpaceOnUse"
       id="clipPath4331">
      <path
         transform="matrix(0.67970174,0.42190703,-0.42190703,0.67970174,378.2817,302.09605)"
         d="m -449.31586,-78.87516 a 101.01525,101.01525 0 1 1 -202.03051,0 101.01525,101.01525 0 1 1 202.03051,0 z"
         sodipodi:ry="101.01525"
         sodipodi:rx="101.01525"
         sodipodi:cy="-78.87516"
         sodipodi:cx="-550.33112"
         id="path4333"
         style="fill:#81c8ff;fill-opacity:1;fill-rule:evenodd;stroke:none"
         sodipodi:type="arc" />
    </clipPath>
    <clipPath
       clipPathUnits="userSpaceOnUse"
       id="clipPath4337">
      <path
         transform="matrix(0.67970174,0.42190703,-0.42190703,0.67970174,378.2817,302.09605)"
         d="m -449.31586,-78.87516 a 101.01525,101.01525 0 1 1 -202.03051,0 101.01525,101.01525 0 1 1 202.03051,0 z"
         sodipodi:ry="101.01525"
         sodipodi:rx="101.01525"
         sodipodi:cy="-78.87516"
         sodipodi:cx="-550.33112"
         id="path4339"
         style="fill:#81c8ff;fill-opacity:1;fill-rule:evenodd;stroke:none"
         sodipodi:type="arc" />
    </clipPath>
  </defs>
  <sodipodi:namedview
     id="base"
     pagecolor="#ffffff"
     bordercolor="#666666"
     borderopacity="1.0"
     inkscape:pageopacity="0.0"
     inkscape:pageshadow="2"
     inkscape:zoom="0.4375"
     inkscape:cx="25.618017"
     inkscape:cy="2.6605107"
     inkscape:current-layer="layer1"
     showgrid="true"
     inkscape:grid-bbox="true"
     inkscape:document-units="px"
     inkscape:window-width="1360"
     inkscape:window-height="717"
     inkscape:window-x="0"
     inkscape:window-y="25"
     inkscape:window-maximized="1" />
  <metadata
     id="metadata3784">
    <rdf:RDF>
      <cc:Work
         rdf:about="">
        <dc:format>image/svg+xml</dc:format>
        <dc:type
           rdf:resource="http://purl.org/dc/dcmitype/StillImage" />
        <dc:title></dc:title>
      </cc:Work>
    </rdf:RDF>
  </metadata>
  <g
     id="layer1"
     inkscape:label="Layer 1"
     inkscape:groupmode="layer"
     transform="translate(0,464)">
    <path
       sodipodi:type="arc"
       style="fill:#95e7eb;fill-opacity:1;fill-rule:evenodd;stroke:none"
       id="path4309"
       sodipodi:cx="-550.33112"
       sodipodi:cy="-78.87516"
       sodipodi:rx="101.01525"
       sodipodi:ry="101.01525"
       d="m -449.31586,-78.87516 a 101.01525,101.01525 0 1 1 -202.03051,0 101.01525,101.01525 0 1 1 202.03051,0 z"
       transform="matrix(1.4981892,0.92996167,-0.92996167,1.4981892,1002.5862,430.72893)" />
    <path
       style="fill:#ffffff;fill-opacity:0.1142857;fill-rule:evenodd;stroke:none"
       d="m 253.29966,-377.38591 c -60.16003,-0.57266 -119.14352,29.39006 -153.19096,84.24124 -19.455669,31.34353 -27.982033,66.35181 -26.65687,100.63487 1.068626,-29.98656 9.698467,-60.08937 26.65687,-87.40975 51.88181,-83.58275 161.70185,-109.32841 245.28461,-57.4466 52.19722,32.40006 81.78374,87.4228 84.0346,144.51195 2.15085,-61.70593 -27.81432,-122.8398 -84.0346,-157.73708 -28.73157,-17.83436 -60.58126,-26.49467 -92.09365,-26.79463 z"
       id="path4349"
       inkscape:connector-curvature="0" />
    <path
       style="fill:#000000;fill-opacity:0.12857145;fill-rule:evenodd;stroke:none"
       d="m 429.42791,-205.32162 c -0.96483,30.20298 -9.57485,60.57904 -26.65687,88.09857 -7.98516,12.86424 -17.33541,24.322429 -27.75897,34.371518 6.26056,-2.403067 12.25318,-5.175852 17.97789,-8.334578 3.44403,-4.521009 6.72281,-9.19362 9.78108,-14.12057 19.33898,-31.15551 27.85633,-65.92875 26.65687,-100.01494 z m -355.97608,0.82656 c -1.755039,61.32838 28.15099,121.946699 84.0346,156.634985 15.07699,9.35865 31.03075,16.172303 47.32113,20.595365 4.91315,-2.11374 9.57644,-4.996922 13.91392,-8.816746 -21.12681,-3.93969 -41.87722,-11.748017 -61.23505,-23.763883 -52.23922,-32.426123 -81.826001,-87.511271 -84.0346,-144.649721 z m 290.81483,143.065464 c -8.23975,2.495611 -16.82862,4.42698 -25.76143,5.717107 -2.20683,1.233475 -4.42908,2.377014 -6.68144,3.512922 0.48315,4.340252 0.59635,8.210044 0.3444,11.709742 11.33394,-5.754544 22.1044,-12.754611 32.09846,-20.939771 z m -33.06279,9.505551 c -30.74252,15.357216 -65.50818,21.651999 -99.8772,17.771253 -2.3439,4.124929 -4.87792,7.811929 -7.64576,10.952051 24.298,3.810733 48.93404,2.433017 72.39374,-3.650682 -0.18324,-3.581549 0.0157,-7.016677 0.82657,-10.469887 0.51584,3.03041 1.22466,6.224426 2.06642,9.712196 8.07966,-2.240072 16.05496,-5.042968 23.76389,-8.403458 4.16759,-4.865483 7.04804,-9.857649 8.47234,-15.911473 z"
       id="path4354"
       inkscape:connector-curvature="0" />
    <path
       sodipodi:nodetypes="sscccccccccccccccccs"
       inkscape:connector-curvature="0"
       id="path3797"
       d="m 135.83505,-34.542016 c 9.82878,5.904579 20.43869,9.987529 31.95781,11.434167 25.02873,3.14333 52.23969,-2.798498 66.93375,-35.379671 0,0 27.40132,-1.35302 37.63077,-6.7616 6.68913,-3.741897 8.53867,-16.178165 -1.08075,-16.943885 -43.45385,-6.514742 -82.82511,-28.172045 -108.50678,-57.707245 -0.2888,-24.03147 2.59146,-53.97549 18.47324,-75.52 -20.20077,0.2856 -34.435,10.37489 -46.66648,21.509 -8.261,-56.30223 20.8802,-99.22055 55.72201,-123.96633 15.28251,22.40145 28.70454,25.6635 52.79295,27.91752 10.03224,0.93467 11.15382,3.03838 6.49905,-7.80082 -10.3535,-25.05636 -21.95977,-36.95336 -40.93658,-37.00856 11.14428,-15.98601 10.00943,-26.51351 5.68832,-44.34142 -2.33201,-9.6017 -0.60414,-12.29126 -9.50513,-4.42069 -18.47754,15.23981 -26.44301,24.7356 -22.93282,49.9104 -77.89846,8.36999 -133.693881,61.07682 -129.899927,157.09804 -12.526754,-0.81557 -19.563586,1.08873 -41.547085,-8.56944 -6.0164651,-2.7764 -12.1178239,-8.96899 -5.5017506,4.57352 12.1504336,25.7258 46.1146926,41.95326 59.5972916,63.85874 19.295514,30.10648 41.795791,64.404432 71.282111,82.118274 z"
       style="fill:#cbc369;fill-opacity:1;stroke:none" />
    <path
       style="fill:#49afeb;fill-opacity:1;stroke:none"
       d="m 377.58017,-371.70078 c -9.82877,-5.90457 -20.43871,-9.98751 -31.95782,-11.43418 -25.0287,-3.14332 -52.23968,2.79852 -66.93374,35.37969 0,0 -27.40134,1.35301 -37.63079,6.76159 -6.68911,3.74192 -8.53866,16.17818 1.08077,16.94391 43.45383,6.51473 82.82511,28.17205 108.50675,57.70724 0.2888,24.03147 -2.59146,53.97548 -18.47321,75.52001 20.20075,-0.28564 34.43497,-10.37491 46.66648,-21.50902 8.26099,56.30224 -20.88022,99.22055 -55.72203,123.966322 -15.2825,-22.401422 -28.70453,-25.663472 -52.79294,-27.917492 -10.03226,-0.93468 -11.15383,-3.03839 -6.49905,7.80081 10.3535,25.05636 21.95976,36.953334 40.93657,37.008532 -11.14428,15.986014 -10.00943,26.513529 -5.68832,44.341426 2.33201,9.601714 0.60415,12.291271 9.50513,4.420695 18.47755,-15.239815 26.44301,-24.735593 22.93282,-49.910392 77.89846,-8.369979 133.6939,-61.076821 129.89994,-157.098021 12.52675,0.81558 19.56358,-1.08873 41.54708,8.56944 6.01647,2.77641 12.11779,8.96898 5.50175,-4.57351 -12.15041,-25.72583 -46.1147,-41.95329 -59.59729,-63.85876 -19.29548,-30.1065 -41.79578,-64.40444 -71.2821,-82.11829 z"
       id="path2996"
       inkscape:connector-curvature="0"
       sodipodi:nodetypes="sscccccccccccccccccs" />
    <path
       style="fill:#000000;fill-opacity:0.14285715;stroke:none"
       d="m 21.65625,-52.59375 c -0.549087,2.319399 -1.674189,4.697542 -3.5625,7.40625 1.286948,0.0037 2.478217,0.129172 3.625,0.375 0.537439,-2.494908 0.41362,-4.979704 -0.0625,-7.78125 z m -15.75,7.53125 c -0.022024,0.123631 -0.042859,0.249341 -0.0625,0.375 0.030988,-0.0034 0.062747,0.0033 0.09375,0 -0.018054,-0.129479 -0.014534,-0.247335 -0.03125,-0.375 z M 9.75,-37.53125 C -5.1024185,-26.982586 -17.644907,-9.1477488 -16,14.15625 -14.619863,-5.2071631 -3.3365545,-20.143009 9.75,-29.4375 c 6.933402,10.163137 13.040269,11.633644 23.96875,12.65625 4.55145,0.424046 5.049289,1.3863 2.9375,-3.53125 -0.66463,-1.608462 -1.336,-3.09765 -2.03125,-4.46875 C 34.295177,-24.8211 34.106322,-24.83889 33.71875,-24.875 22.790269,-25.897606 16.683402,-27.368113 9.75,-37.53125 z M 5.65625,17.03125 C 4.040181,17.0541 2.5200904,17.222339 1.0625,17.5 c -3.2004761,8.313021 -3.8772382,17.732209 -3.78125,25.71875 0.057747,0.06641 0.1294488,0.121264 0.1875,0.1875 0.5911818,-9.076978 2.6421044,-18.852361 8.1875,-26.375 z m -58.625,9.3125 c -0.0036,0.08429 -0.02784,0.165545 -0.03125,0.25 0.01089,7.01e-4 0.02034,-7.1e-4 0.03125,0 -0.0033,-0.08438 0.0031,-0.165768 0,-0.25 z M -75.4375,29.0625 c -0.409126,0.140051 -0.188197,1.124502 1.125,3.8125 5.512435,11.671339 20.914435,19.030623 27.03125,28.96875 8.75403,13.658778 18.966337,29.213545 32.34375,37.25 4.459148,2.6788 9.2739899,4.53119 14.5,5.1875 11.355089,1.42608 23.677318,-1.28101 30.34375,-16.0625 0,0 12.452831,-0.608724 17.09375,-3.0625 3.034736,-1.697633 3.864162,-7.340108 -0.5,-7.6875 C 46.41708,77.45632 46.332857,77.45018 46.25,77.4375 41.160322,79.605143 29.90625,80.15625 29.90625,80.15625 23.239818,94.937747 10.917589,97.613573 -0.4375,96.1875 -5.6635101,95.531185 -10.478352,93.678801 -14.9375,91 -28.314913,82.963545 -38.52722,67.408778 -47.28125,53.75 -52.094889,45.929172 -62.653906,39.704509 -69.625,31.71875 c -0.698755,-0.28064 -1.442142,-0.596308 -2.21875,-0.9375 -1.53538,-0.70853 -3.067731,-1.898816 -3.59375,-1.71875 z"
       id="path4311"
       clip-path="url(#clipPath4337)"
       inkscape:connector-curvature="0"
       transform="matrix(2.2041863,0,0,2.2041863,168.78289,-235.14702)" />
    <path
       style="fill:#000000;fill-opacity:0.14117647;stroke:none"
       d="m 33.5625,-40.28125 c -0.269582,0.114027 -0.548352,0.220611 -0.78125,0.34375 -3.03473,1.697642 -3.86416,7.340104 0.5,7.6875 19.61652,2.94097 37.376542,12.702152 49.03125,26 0.177481,-2.7203746 0.217722,-5.391602 0.1875,-7.90625 -11.595337,-13.335229 -29.335774,-23.117973 -48.9375,-26.125 z m 99.1875,42.75 c 0.10935,2.7675015 0.13576,5.4537351 0.0313,8.0625 5.66276,0.364596 8.85812,-0.467078 18.8125,3.90625 2.72957,1.259609 5.50158,4.050238 2.5,-2.09375 C 152.92122,9.8611702 151.28964,7.5964047 149.40625,5.4375 141.12934,2.1128397 137.99119,2.8099841 132.75,2.46875 z m -37.4375,7.875 c -4.57163,4.161465 -9.783295,8.016319 -16.59375,9.3125 -1.168165,3.032523 -2.668187,5.919111 -4.59375,8.53125 9.164717,-0.129589 15.63828,-4.698653 21.1875,-9.75 0.224808,1.532166 0.362943,3.043247 0.46875,4.53125 0.285462,-4.020815 0.175474,-8.234336 -0.46875,-12.625 z m 37.4375,0.4375 C 131.11233,49.075468 106.83517,70.201803 73.8125,73.75 c 0.440969,3.162592 0.473131,5.753121 0.125,8.03125 35.20641,-3.833428 60.42402,-27.649324 58.8125,-71 z m -90.1875,50.875 c -1.074662,0.04907 -0.757369,0.832782 0.5625,3.90625 3.995058,9.66838 8.412522,14.976284 14.9375,16.375 0.524218,-2.410485 1.659934,-4.86869 3.625,-7.6875 -7.391246,-0.0215 -12.312894,-4.024757 -16.53125,-12.34375 -1.12866,-0.136096 -2.093694,-0.272832 -2.59375,-0.25 z m 31.3125,20.625 c -1.028466,5.658935 -4.545853,9.234469 -10.4375,14.09375 -4.038219,3.570741 -3.254506,2.356127 -4.3125,-2 -0.405591,-1.673377 -0.754692,-3.183899 -1,-4.625 -0.911225,3.880785 -0.225254,7.663628 1,12.71875 1.057994,4.35613 0.274281,5.57074 4.3125,2 8.263686,-6.815684 11.861433,-11.12617 10.4375,-22.1875 z"
       id="path4313"
       clip-path="url(#clipPath4331)"
       inkscape:connector-curvature="0"
       transform="matrix(2.2041863,0,0,2.2041863,168.78289,-235.14702)" />
    <path
       style="fill:#ffffff;fill-opacity:0.09047618;stroke:none"
       d="m 211.1446,-388.13132 c -1.12311,0.1738 -2.99917,1.66355 -6.33704,4.61502 -17.30381,14.27174 -25.41342,23.46803 -23.48837,45.25469 1.37811,-14.56838 9.32525,-22.89679 23.48837,-34.57817 3.33787,-2.95147 5.21393,-4.44121 6.33704,-4.61502 1.87184,-0.28967 1.711,3.02233 3.16851,9.02339 1.28303,5.29353 2.26708,9.91586 2.75523,14.25834 1.05991,-7.52467 -0.3759,-15.11825 -2.75523,-24.93487 -1.45751,-6.00107 -1.29667,-9.31306 -3.16851,-9.02338 z m 120.2659,4.27062 c -20.58085,0.71561 -40.75489,9.62133 -52.69382,36.09353 0,0 -27.44836,1.34175 -37.67781,6.75033 -5.08116,2.84242 -7.34171,10.72156 -3.92621,14.67161 0.9572,-1.64735 2.29809,-3.08431 3.92621,-3.99509 10.22945,-5.40857 37.67781,-6.75032 37.67781,-6.75032 11.93893,-26.4722 32.11297,-35.37793 52.69382,-36.09355 4.74943,-0.16513 9.49658,0.16832 14.18946,0.7577 11.51911,1.44667 22.13192,5.52965 31.96069,11.43421 29.48631,17.71384 51.99616,51.99943 71.29165,82.10594 12.67837,20.59884 43.44145,36.19935 57.17109,59.37527 4.64642,2.68903 7.85451,4.94348 2.41083,-6.19928 -12.15043,-25.72583 -46.09933,-41.94705 -59.58192,-63.85252 -19.29549,-30.1065 -41.80534,-64.39209 -71.29165,-82.10594 -9.82877,-5.90456 -20.44158,-9.98754 -31.96069,-11.43421 -4.69288,-0.58938 -9.44003,-0.92283 -14.18946,-0.75768 z m -122.08073,48.85732 c 1.70797,2.20877 2.75421,1.14644 8.72032,6.58296 14.07052,3.49427 21.72644,18.53907 30.56567,39.0642 4.64384,0.554 4.53707,-0.0839 0.96433,-8.40346 -2.47742,-5.99556 -5.01183,-11.19984 -7.71464,-15.70483 -5.20396,-0.56038 -6.94544,-4.61233 -6.26817,-8.74787 -5.28448,-7.23591 -14.76713,-13.35049 -26.26751,-12.791 z m -26.88128,0.53504 c -76.55829,8.52612 -132.808683,60.98247 -130.487478,154.49486 1.989305,-87.0609 55.034628,-138.6097 129.018608,-146.55909 -0.54455,-3.90547 1.46448,-4.70666 1.46887,-7.93577 z m 168.042,78.65708 c -0.6916,21.807 -4.69536,46.46889 -18.32229,64.9546 2.33063,-0.0328 4.57162,-0.20209 6.75032,-0.48216 9.95046,-19.9956 11.95139,-44.22857 11.70974,-64.33468 -0.0425,-0.0488 -0.0953,-0.089 -0.13776,-0.13776 z m 110.89813,36.78235 c 0.0458,1.16297 0.0404,2.29379 0.0691,3.44404 0.026,-1.14572 0.0606,-2.28476 0.0689,-3.44404 -0.0478,-0.003 -0.0898,0.003 -0.13774,0 z m -280.1383,3.58181 c -20.20077,0.2856 -34.46972,10.42559 -46.70121,21.55969 -0.67669,-4.61197 -1.04769,-9.13955 -1.23985,-13.56952 -0.32361,7.77375 0.01,15.86393 1.23985,24.24604 10.82049,-9.84969 23.24529,-18.91787 39.95088,-21.07752 1.94021,-3.89908 4.16093,-7.64602 6.75033,-11.15869 z M 2.5045842,-188.92798 c -0.8888334,0.3028 -0.4148214,2.4786 2.4797093,8.40345 0.7374734,1.56142 1.5910798,3.05133 2.4797088,4.54614 0.9584671,0.55484 1.9432887,1.1142 2.9618767,1.58425 21.983495,9.65816 29.077261,7.72564 41.604017,8.54123 -0.143232,-3.62503 -0.162197,-7.17499 -0.137754,-10.67654 -12.43743,-0.79164 -19.567126,1.07988 -41.466252,-8.54122 -3.3842633,-1.56172 -6.7785079,-4.24663 -7.9212941,-3.85731 z m 377.6046558,0.82657 c -1.85006,44.44208 -27.30978,78.67773 -56.96443,99.739412 -15.28249,-22.401422 -28.74319,-25.642702 -52.8316,-27.896732 -10.03225,-0.93468 -11.12957,-3.05566 -6.47479,7.78354 0.32355,0.78301 0.6382,1.51576 0.96433,2.27306 1.40643,0.16779 3.1784,0.40266 5.51046,0.61993 24.08841,2.25402 37.54911,5.49529 52.8316,27.896732 31.98775,-22.718732 59.11803,-60.765612 56.96443,-110.415942 z m -217.18123,48.35433 c -0.11443,3.61075 -0.17877,7.12688 -0.13774,10.53876 25.68165,29.535198 65.03344,51.207381 108.48729,57.722123 2.29284,0.182504 3.94702,1.040173 5.02829,2.273067 0.75176,-1.293789 1.28206,-2.708137 1.51539,-4.132851 -2.18845,-2.524056 -4.28078,-5.435348 -6.26816,-8.747861 -0.099,-0.01081 -0.17397,-0.06081 -0.27552,-0.06889 -43.38207,-6.50397 -82.66524,-28.123898 -108.34955,-57.584348 z m 169.30906,77.766439 c -0.25352,0.02832 -0.50369,0.04158 -0.75768,0.06889 0.21938,1.573426 0.42061,3.090267 0.55105,4.546134 0.13459,-1.473212 0.20676,-3.003337 0.20664,-4.615014 z m -26.58973,-10.375137 c -4.77981,6.714077 -11.68981,24.036748 -9.29717,30.970501 0.86497,-6.140843 3.39558,-12.240785 8.40346,-19.424391 -2.02541,-0.006 2.7582,-11.26922 0.89371,-11.54611 z"
       id="path4341"
       inkscape:connector-curvature="0"
       sodipodi:nodetypes="scccscccsscccccsssccccssscccccccccccccccccccccsccccsccccccsccccccccccccccccccccccccc" />
  </g>
</svg>
