<?xml version="1.0" encoding="UTF-8" standalone="no"?>
<!-- Created with Inkscape (http://www.inkscape.org/) -->

<svg
   xmlns:dc="http://purl.org/dc/elements/1.1/"
   xmlns:cc="http://creativecommons.org/ns#"
   xmlns:rdf="http://www.w3.org/1999/02/22-rdf-syntax-ns#"
   xmlns:svg="http://www.w3.org/2000/svg"
   xmlns="http://www.w3.org/2000/svg"
   xmlns:sodipodi="http://sodipodi.sourceforge.net/DTD/sodipodi-0.dtd"
   xmlns:inkscape="http://www.inkscape.org/namespaces/inkscape"
   width="512"
   height="512"
   id="svg2"
   version="1.1"
   inkscape:version="0.48.4 r9939"
   sodipodi:docname="netbeans.svg">
  <sodipodi:namedview
     id="base"
     pagecolor="#ffffff"
     bordercolor="#666666"
     borderopacity="1.0"
     inkscape:pageopacity="0.0"
     inkscape:pageshadow="2"
     inkscape:zoom="0.35355339"
     inkscape:cx="20.266726"
     inkscape:cy="209.87085"
     inkscape:document-units="px"
     inkscape:current-layer="layer1"
     showgrid="false"
     inkscape:window-width="1360"
     inkscape:window-height="721"
     inkscape:window-x="0"
     inkscape:window-y="25"
     inkscape:window-maximized="1" />
  <defs
     id="defs4">
    <clipPath
       id="clipPath3774"
       clipPathUnits="userSpaceOnUse">
      <path
         sodipodi:type="star"
         style="color:#000000;fill:#81d6ec;fill-opacity:1;fill-rule:evenodd;stroke:none;stroke-width:30;marker:none;visibility:visible;display:inline;overflow:visible;enable-background:accumulate"
         id="path3776"
         sodipodi:sides="5"
         sodipodi:cx="-1179.8582"
         sodipodi:cy="-119.41477"
         sodipodi:r1="288.01926"
         sodipodi:r2="233.0125"
         sodipodi:arg1="0.97501178"
         sodipodi:arg2="1.6033303"
         inkscape:flatsided="true"
         inkscape:rounded="0"
         inkscape:randomized="0"
         d="m -1018.2338,118.98121 -338.4077,-11.01363 -94.0992,-325.24832 280.2513,-190.00087 267.30399,207.82131 z"
         inkscape:transform-center-x="-0.63772798"
         inkscape:transform-center-y="-24.438783"
         transform="matrix(0.91037822,-0.02245917,0.02245917,0.91037822,1329.1707,352.71315)" />
    </clipPath>
    <clipPath
       clipPathUnits="userSpaceOnUse"
       id="clipPath3822">
      <path
         sodipodi:type="arc"
         style="fill:#8bb4eb;fill-opacity:1;fill-rule:evenodd;stroke:none"
         id="path3824"
         sodipodi:cx="1032.3759"
         sodipodi:cy="483.71573"
         sodipodi:rx="296.98486"
         sodipodi:ry="296.98486"
         d="m 1329.3607,483.71573 a 296.98486,296.98486 0 1 1 -593.96971,0 296.98486,296.98486 0 1 1 593.96971,0 z"
         transform="translate(-743.87634,316.91644)" />
    </clipPath>
  </defs>
  <metadata
     id="metadata7">
    <rdf:RDF>
      <cc:Work
         rdf:about="">
        <dc:format>image/svg+xml</dc:format>
        <dc:type
           rdf:resource="http://purl.org/dc/dcmitype/StillImage" />
        <dc:title />
      </cc:Work>
    </rdf:RDF>
  </metadata>
  <g
     transform="translate(0,-540.36218)"
     id="layer1"
     inkscape:groupmode="layer"
     inkscape:label="Capa 1">
    <path
       transform="matrix(0.80000001,0,0,0.80000001,-568.51388,416.48801)"
       d="m 1329.3607,483.71573 c 0,164.02021 -132.9646,296.98486 -296.9848,296.98486 -164.02026,0 -296.98491,-132.96465 -296.98491,-296.98486 0,-164.02021 132.96465,-296.98486 296.98491,-296.98486 164.0202,0 296.9848,132.96465 296.9848,296.98486 z"
       sodipodi:ry="296.98486"
       sodipodi:rx="296.98486"
       sodipodi:cy="483.71573"
       sodipodi:cx="1032.3759"
       id="path2987"
       style="fill:#409ce5;fill-opacity:1;fill-rule:evenodd;stroke:none"
       sodipodi:type="arc" />
    <g
       id="g3768"
       clip-path="url(#clipPath3822)"
       style="opacity:0.12173913;fill:#000000;fill-opacity:1"
       transform="matrix(0.80000001,0,0,0.80000001,26.587202,162.95486)">
      <g
         id="g3770"
         style="color:#000000;fill:#000000;fill-opacity:1;fill-rule:evenodd;stroke:none;stroke-width:30;marker:none;visibility:visible;display:inline;overflow:visible;enable-background:accumulate">
        <path
           id="path3772"
           d="M 289.60295,567.16339 86.477577,678.70678 652.163,1244.3922 855.28837,1132.8488 z"
           style="fill:#000000;fill-opacity:1"
           inkscape:connector-curvature="0" />
        <path
           id="path3774"
           d="M 86.477577,678.70678 289.60295,790.25021 855.28837,1355.9356 652.163,1244.3922 z"
           style="fill:#000000;fill-opacity:1"
           inkscape:connector-curvature="0" />
        <path
           id="path3777"
           d="M 289.60295,790.25021 490.52145,678.70678 1056.2069,1244.3922 855.28837,1355.9356 z"
           style="fill:#000000;fill-opacity:1"
           inkscape:connector-curvature="0" />
        <path
           id="path3779"
           d="M 490.52145,678.70678 289.60295,567.16339 855.28837,1132.8488 1056.2069,1244.3922 z"
           style="fill:#000000;fill-opacity:1"
           inkscape:connector-curvature="0" />
        <path
           id="path3781"
           d="m 86.477577,694.70604 0,226.89857 L 652.163,1487.29 l 0,-226.8985 z"
           style="fill:#000000;fill-opacity:1"
           inkscape:connector-curvature="0" />
        <path
           id="path3783"
           d="M 86.477577,921.60461 276.06125,1034.1009 841.74667,1599.7863 652.163,1487.29 z"
           style="fill:#000000;fill-opacity:1"
           inkscape:connector-curvature="0" />
        <path
           id="path3785"
           d="m 276.06125,1034.1009 0,-226.89849 565.68542,565.68539 0,226.8985 z"
           style="fill:#000000;fill-opacity:1"
           inkscape:connector-curvature="0" />
        <path
           id="path3787"
           d="M 276.06125,807.20241 86.477577,694.70604 652.163,1260.3915 841.74667,1372.8878 z"
           style="fill:#000000;fill-opacity:1"
           inkscape:connector-curvature="0" />
        <path
           id="path3789"
           d="M 490.52145,694.70604 298.68085,807.20241 864.36627,1372.8878 1056.2069,1260.3915 z"
           style="fill:#000000;fill-opacity:1"
           inkscape:connector-curvature="0" />
        <path
           id="path3791"
           d="m 298.68085,807.20241 0,226.89849 565.68542,565.6854 0,-226.8985 z"
           style="fill:#000000;fill-opacity:1"
           inkscape:connector-curvature="0" />
        <path
           id="path3793"
           d="M 298.68085,1034.1009 490.52145,921.60461 1056.2069,1487.29 864.36627,1599.7863 z"
           style="fill:#000000;fill-opacity:1"
           inkscape:connector-curvature="0" />
        <path
           id="path3795"
           d="m 490.52145,921.60461 0,-226.89857 565.68545,565.68546 0,226.8985 z"
           style="fill:#000000;fill-opacity:1"
           inkscape:connector-curvature="0" />
      </g>
      <path
         style="color:#000000;fill:#000000;fill-opacity:1;fill-rule:evenodd;stroke:none;stroke-width:30;marker:none;visibility:visible;display:inline;overflow:visible;enable-background:accumulate"
         d="M 289.60295,567.16339 86.477577,678.70678 289.60295,790.25021 490.52145,678.70678 289.60295,567.16339 z m -203.125373,127.54265 0,226.89857 189.583673,112.49629 0,-226.89849 L 86.477577,694.70604 z m 404.043873,0 -191.8406,112.49637 0,226.89849 191.8406,-112.49629 0,-226.89857 z"
         id="path3757"
         inkscape:connector-curvature="0" />
    </g>
    <path
       inkscape:connector-curvature="0"
       id="rect3801"
       d="M 258.26956,616.68557 95.769264,705.92029 258.26956,795.15503 419.00437,705.92029 258.26956,616.68557 z m -162.500296,102.03412 0,181.51886 151.666936,89.99701 0,-181.51877 -151.666936,-89.9971 z m 323.235106,0 -153.47249,89.9971 0,181.51877 153.47249,-89.99701 0,-181.51886 z"
       style="color:#000000;fill:#fff5ec;fill-opacity:1;fill-rule:evenodd;stroke:none;stroke-width:30;marker:none;visibility:visible;display:inline;overflow:visible;enable-background:accumulate" />
    <path
       style="fill:#ffffff;fill-opacity:0.13461539;fill-rule:evenodd;stroke:none"
       d="M 257.375 25.5 C 126.15883 25.5 19.8125 131.87758 19.8125 263.09375 C 19.8125 344.43901 60.694248 416.23749 123.03125 459.0625 C 69.784446 415.49245 35.8125 349.26177 35.8125 275.09375 C 35.8125 143.87758 142.15883 37.5 273.375 37.5 C 323.24797 37.5 369.5317 52.899231 407.75 79.15625 C 366.78937 45.628169 314.43744 25.5 257.375 25.5 z "
       transform="translate(0,540.36218)"
       id="path3826" />
  </g>
</svg>
