<svg height="512" width="512" xmlns="http://www.w3.org/2000/svg" xmlns:xlink="http://www.w3.org/1999/xlink"><linearGradient id="a" gradientUnits="userSpaceOnUse" x1="-854.69531" x2="445.38281" y1="-401.55563" y2="440.44434"><stop offset="0"/><stop offset="1" stop-opacity="0"/></linearGradient><g transform="translate(0 464)"><path d="m44.322082 27.405077a19.729762 19.729765 0 0 1 -19.729762 19.729765 19.729762 19.729765 0 0 1 -19.7297621-19.729765 19.729762 19.729765 0 0 1 19.7297621-19.7297632 19.729762 19.729765 0 0 1 19.729762 19.7297632z" fill="#405b64" opacity=".99" transform="matrix(12.332308 0 0 12.332308 -47.545312 -534.58518)"/><g stroke-width=".860544"><path d="m245.14258 114.19336c-.06252.00445-.12498.00922-.1875.01367-26.11581.76216-51.68399 12.61841-69.05664 32.16211-30.68267 32.94518-33.13183 87.48608-5.73047 123.14258l56.94531 56.94531c4.60033 28.42128-10.3072 59.25273-36.5957 72.00391-.87112.47382-1.75368.92124-2.64258 1.34961-.26939.12982-.54353.24737-.81445.37304-.61835.28683-1.23735.57063-1.86328.83594-.3419.14493-.68722.27943-1.03125.41797-.56638.22806-1.13519.45128-1.70704.66211-.36866.13592-.73857.26574-1.10937.39453-.5622.19528-1.12657.38157-1.69336.56055-.36708.1159-.73464.23074-1.10352.33984-.57648.17051-1.15577.33041-1.73632.48438-.37017.09816-.73964.19954-1.11133.29101-.60725.14946-1.21716.28238-1.82813.41406-.34273.07387-.68355.15631-1.02734.22461-.9332.1854-1.8706.35339-2.81055.49805-.00126.0002-.00264-.00019-.0039 0-.18449.02838-.36998.0474-.55469.07422-.77199.1121-1.54494.2158-2.32031.30078-.35219.0386-.70584.06463-1.0586.09766-.62503.05853-1.25049.1151-1.87695.15625-.37991.02495-.76033.04195-1.14063.06054-.59557.02912-1.19088.0528-1.7871.06641-.37755.00862-.75514.01321-1.13282.01562-.6061.0039-1.21223-.0017-1.81836-.01367-.392-.00773-.7839-.01496-1.17578-.02929-.57702-.02111-1.15402-.05451-1.73047-.08985-.39464-.02419-.78935-.04338-1.18359-.07422-.68267-.05338-1.36392-.1241-2.04492-.19726-.27531-.02958-.55121-.05119-.82617-.08399-.97675-.11648-1.95053-.25141-2.92188-.4082-.05611-.00906-.11188-.0201-.16797-.0293-.88979-.1458-1.77635-.31095-2.66015-.49023-.3384-.06865-.67434-.14718-1.01172-.2207-.61445-.1339-1.2291-.26995-1.83985-.41993-.38177-.09375-.76238-.19492-1.14258-.29492-.56908-.14969-1.13595-.30514-1.70117-.46875-.37012-.10713-.73909-.21701-1.10742-.33008-.56368-.17304-1.12441-.35414-1.68359-.54101-.38436-.12844-.76831-.25764-1.15039-.39258-.55686-.19667-1.1104-.40485-1.66211-.61523-.35319-.13469-.70764-.26598-1.0586-.40625-.66205-.26461-1.31708-.54375-1.9707-.82813-.22978-.09997-.46272-.19252-.69141-.29492-.88396-.39584-1.76041-.80837-2.62695-1.24023-.21033-.10483-.41576-.21925-.625-.32618-.66287-.33876-1.32314-.68317-1.97461-1.04297-.29244-.1615-.5791-.33233-.86914-.49804-.5512-.31495-1.10042-.63283-1.64258-.96289-.22121-.13468-.43854-.27493-.6582-.41211l-20.91406-20.91407c.46136.75122.93559 1.49509 1.41797 2.23243.14927.22816.30382.45287.45507.67968.33656.5047.67525 1.00795 1.02149 1.50586.18638.26803.37726.53279.5664.79883.32308.45438.64749.90699.97852 1.35547.19952.27032.40114.53849.60352.80664.33818.44809.67934.89398 1.02539 1.33594.19921.25442.39977.5074.60156.75976.34621.433.6971.86221 1.05078 1.28907.22266.26872.44435.53842.66992.80468.34513.40739.69697.80939 1.04883 1.21094.22863.26091.45412.52479.68555.7832.48317.53954.97357 1.0711 1.46875 1.59961.0948.10119.18796.20391.2832.30469.60822.6436 1.22597 1.27953 1.85156 1.90625.0205.02054.04003.04199.06055.0625l117.65625 117.65625a243.3135 243.31354 0 0 0 22.98438 1.15039 243.3135 243.31354 0 0 0 227.64843-158.26367z" fill="url(#a)" transform="translate(0 -464)"/><path d="m245.14055-349.80011c-26.18025.71124-51.82774 12.57834-69.24156 32.16835-30.68267 32.94518-33.1332 87.48612-5.73184 123.14262 24.24549 3.67507 45.50934 21.49554 53.62073 44.60006 12.08273 31.28401-3.10746 69.719832-33.27094 84.350566-29.45954 16.023838-69.56768 5.934677-87.93732-22.117829-.43151-.625938-.85298-1.257878-1.27532-1.889962 13.71078 22.324674 36.81756 38.603649 62.48775 43.888694 43.87303 10.101321 92.33126-15.04869 109.51339-56.607139-8.93991-22.83407-4.13704-50.15842 11.81531-68.73453 21.04745-26.1046 61.9298-32.17186 89.68164-13.36319 28.60619 17.49785 39.92312 57.27848 24.81108 87.214926-.32741.687382-.66103 1.370396-.99848 2.053154 12.48075-23.03439 15.02386-51.18411 6.76471-76.06495-13.18471-43.04551-59.19442-72.43743-103.77351-66.53561-6.45399 8.0784-14.82541 14.43142-24.14878 18.74809-.32486.15181-.64855.3048-.9759.4516-.0757.0374-.1468.0629-.21955.10038-4.74302 2.11136-9.77055 3.69915-15.00768 4.69411-.0502.009-.10039.0255-.15682.0255-.50303.10039-1.00852.18318-1.51617.26597-7.72855 1.30053-15.67349 1.30304-23.41221-.15181-12.69122-1.98391-24.28149-7.96663-33.62743-16.46048-.41769-.37511-.82662-.76015-1.23556-1.14524-.21326-.20324-.42899-.40519-.63971-.61217-5.63726-5.44447-10.34604-11.83825-13.86381-18.93347-.35121-.69743-.68865-1.40164-1.01728-2.11024-.0128-.0373-.0374-.0757-.0502-.11287-4.52175-9.81194-6.76658-20.65185-5.97595-31.61379.32113-12.59464 4.58548-24.64753 11.55877-34.88858 4.00509-5.95964 8.92811-11.24393 14.55297-15.6809.0757-.0627.15182-.12544.22831-.17937.59712-.46663 1.19792-.92823 1.81081-1.37517.59082-.43778 1.19165-.8605 1.79651-1.27846.11288-.0753.22957-.16181.34747-.24083 9.66016-6.60075 20.94122-10.78333 32.82263-11.45103.00065-.00013.003.00013.004 0 .22575-.0126.4516-.0376.67863-.0502.52798-.0377 1.05606-.0753 1.58415-.1129z" fill="#fff"/></g></g></svg>