<svg height="512" width="512" xmlns="http://www.w3.org/2000/svg" xmlns:xlink="http://www.w3.org/1999/xlink"><linearGradient id="a" gradientUnits="userSpaceOnUse" x1="-241" x2="454" y1="73" y2="454"><stop offset="0"/><stop offset="1" stop-opacity="0"/></linearGradient><rect fill="#ececec" height="366" rx="16" width="418" x="47" y="56"/><rect fill="#3c3556" height="112" rx="16" width="452" x="30" y="385"/><path d="m336.60742 306.69141-57.60742 22.30859-4 56-7.98633 111.79688h183.76758l-3.61719 10.5625c47.35966-1.02361 85.92895-1.95764 87.79492-2.31836l-52.95898-52.95899-67.08398-67.08203z" fill="url(#a)"/><path d="m201.06445 86.055345c-7.57749 0-13.73242 6.154923-13.73242 13.732422v27.466793h13.73242v-27.466793h109.86914v27.466793h13.73438v-27.466793c0-7.577499-6.14358-13.732422-13.73438-13.732422zm-41.19922 54.933595c-7.57751 0-13.73437 6.15684-13.73437 13.73437v68.66798c0 7.59122 6.15686 13.73242 13.73437 13.73242h27.4668v54.93555c0 3.79563 1.53915 7.22841 4.02539 9.71289 2.4862 2.48447 5.91831 4.01953 9.70703 4.01953h109.86914c7.59122 0 13.73438-6.14158 13.73438-13.73242v-54.93555h27.4668c7.59126 0 13.73437-6.14162 13.73437-13.73242v-68.66798c0-7.57753-6.14311-13.73437-13.73437-13.73437zm178.53516 13.73437c7.5908 0 13.73438 6.15489 13.73438 13.73243 0 7.59125-6.14312 13.73437-13.73438 13.73437s-13.73242-6.14357-13.73242-13.73437c0-7.57754 6.14158-13.73243 13.73242-13.73243zm-137.33594 41.19922h109.86914v96.13673h-109.86914zm13.73438 13.73438v13.73438h54.93359v-13.73438zm0 27.4668v13.73437h82.40234v-13.73437z" fill="#96a1ae" fill-opacity=".537255" stroke-width=".429175"/><circle cx="256" cy="387" fill="#3c3556" r="114"/><path d="m239.26923 403.97802v43.02198h-23.48902v-120h41.7033q17.96704 0 28.35165 10.63186 10.38462 10.63187 10.38462 27.85715 0 17.30769-10.46704 27.93956-10.38461 10.54945-28.26923 10.54945zm0-18.79121h18.21428q7.5 0 11.45605-5.52198 3.95604-5.52198 3.95604-14.01099 0-8.57143-3.95604-14.17582-3.87363-5.68681-11.45605-5.68681h-18.21428z" fill="#fff"/></svg>