<?xml version="1.0" encoding="UTF-8" standalone="no"?>
<!-- Created with Inkscape (http://www.inkscape.org/) -->

<svg
   xmlns:dc="http://purl.org/dc/elements/1.1/"
   xmlns:cc="http://creativecommons.org/ns#"
   xmlns:rdf="http://www.w3.org/1999/02/22-rdf-syntax-ns#"
   xmlns:svg="http://www.w3.org/2000/svg"
   xmlns="http://www.w3.org/2000/svg"
   xmlns:xlink="http://www.w3.org/1999/xlink"
   xmlns:sodipodi="http://sodipodi.sourceforge.net/DTD/sodipodi-0.dtd"
   xmlns:inkscape="http://www.inkscape.org/namespaces/inkscape"
   id="svg2"
   version="1.1"
   inkscape:version="0.48.4 r9939"
   width="512"
   height="512"
   sodipodi:docname="dvdrip.svg"
   viewBox="0 0 512 512"
   inkscape:export-filename="/home/silerio/Imágenes/CANARA0.png"
   inkscape:export-xdpi="90"
   inkscape:export-ydpi="90">
  <metadata
     id="metadata8">
    <rdf:RDF>
      <cc:Work
         rdf:about="">
        <dc:format>image/svg+xml</dc:format>
        <dc:type
           rdf:resource="http://purl.org/dc/dcmitype/StillImage" />
        <dc:title></dc:title>
      </cc:Work>
    </rdf:RDF>
  </metadata>
  <defs
     id="defs6">
    <clipPath
       id="clipPath3947"
       clipPathUnits="userSpaceOnUse">
      <ellipse
         ry="212.23589"
         rx="203.24309"
         cy="256.47083"
         cx="256.52075"
         id="ellipse3949"
         style="opacity:1;fill:#ffc82d;fill-opacity:1;stroke:none;stroke-width:0;stroke-linecap:butt;stroke-linejoin:miter;stroke-miterlimit:4;stroke-dasharray:none;stroke-dashoffset:0;stroke-opacity:1" />
    </clipPath>
    <clipPath
       id="clipPath4806"
       clipPathUnits="userSpaceOnUse">
      <circle
         r="211.62711"
         cy="248.91539"
         cx="249.4608"
         id="circle4808"
         style="opacity:1;fill:#f6c439;fill-opacity:1;stroke:none;stroke-width:0;stroke-linecap:butt;stroke-linejoin:miter;stroke-miterlimit:4;stroke-dasharray:none;stroke-dashoffset:0;stroke-opacity:1" />
    </clipPath>
    <clipPath
       id="clipPath4837"
       clipPathUnits="userSpaceOnUse">
      <circle
         r="207.13615"
         cy="256"
         cx="256"
         id="circle4839"
         style="opacity:1;fill:#0fa15f;fill-opacity:1;stroke:none;stroke-width:0;stroke-linecap:butt;stroke-linejoin:miter;stroke-miterlimit:4;stroke-dasharray:none;stroke-dashoffset:0;stroke-opacity:1" />
    </clipPath>
    <clipPath
       id="clipPath5050"
       clipPathUnits="userSpaceOnUse">
      <path
         inkscape:connector-curvature="0"
         id="path5052"
         d="M 255.99999,45.26758 A 210.73167,210.73167 0 0 0 45.267565,256 210.73167,210.73167 0 0 0 255.99999,466.73242 210.73167,210.73167 0 0 0 466.73244,256 210.73167,210.73167 0 0 0 255.99999,45.26758 Z m 0,111.84375 A 98.888542,98.888542 0 0 1 354.88866,256 98.888542,98.888542 0 0 1 255.99999,354.88867 98.888542,98.888542 0 0 1 157.11132,256 98.888542,98.888542 0 0 1 255.99999,157.11133 Z"
         style="opacity:1;fill:#f9f9f9;fill-opacity:1;stroke:none;stroke-width:0;stroke-linecap:butt;stroke-linejoin:miter;stroke-miterlimit:4;stroke-dasharray:none;stroke-dashoffset:0;stroke-opacity:1" />
    </clipPath>
    <clipPath
       id="clipPath5127"
       clipPathUnits="userSpaceOnUse">
      <path
         inkscape:connector-curvature="0"
         id="path5129"
         d="M 255.99999,45.26758 A 210.73167,210.73167 0 0 0 45.26756,256 210.73167,210.73167 0 0 0 255.99999,466.73242 210.73167,210.73167 0 0 0 466.73244,256 210.73167,210.73167 0 0 0 255.99999,45.26758 Z m 0,111.84375 A 98.888542,98.888542 0 0 1 354.88864,256 98.888542,98.888542 0 0 1 255.99999,354.88867 98.888542,98.888542 0 0 1 157.11132,256 98.888542,98.888542 0 0 1 255.99999,157.11133 Z"
         style="opacity:1;fill:#f9f9f9;fill-opacity:1;stroke:none;stroke-width:0;stroke-linecap:butt;stroke-linejoin:miter;stroke-miterlimit:4;stroke-dasharray:none;stroke-dashoffset:0;stroke-opacity:1" />
    </clipPath>
    <clipPath
       clipPathUnits="userSpaceOnUse"
       id="clipPath3898">
      <path
         id="path3900"
         d="m 55.90625,146.625 c -0.555933,0.96227 -1.114024,1.93481 -1.65625,2.90625 0.540984,-0.96928 1.10151,-1.94581 1.65625,-2.90625 z M 396.5,150.21875 c -56.55187,0 -108.27154,20.73776 -147.96875,55 66.86748,43.61442 108.61716,121.31077 102.34375,206.5625 -1.47296,20.01658 -5.50471,39.25363 -11.75,57.375 14.32657,-5.96432 27.91857,-13.39232 40.625,-22.0625 1.02458,-0.69989 2.04619,-1.40613 3.0625,-2.125 27.24965,-19.25151 50.15857,-44.38032 66.75,-73.75 0.6351,-1.12664 1.26035,-2.27059 1.875,-3.40625 0.75104,-1.38473 1.49572,-2.78494 2.21875,-4.1875 0.46981,-0.9135 0.91822,-1.83116 1.375,-2.75 2.32135,-4.65763 4.49475,-9.4093 6.5,-14.25 0.37449,-0.90613 0.73135,-1.80852 1.09375,-2.71875 7.89969,-19.79999 13.11659,-41.04611 15.15625,-63.3125 0.12138,-1.32236 0.24549,-2.64439 0.34375,-3.96875 0.004,-0.0518 -0.004,-0.10442 0,-0.15625 0.45621,-6.19965 0.6366,-12.35925 0.59375,-18.46875 -0.01,-1.29335 -0.0304,-2.58152 -0.0625,-3.875 -0.82814,-34.44372 -9.44198,-67.1926 -24.25,-96.4375 -18.48497,-4.87247 -37.89075,-7.46875 -57.90625,-7.46875 z m -365.75,61.6875 c -0.246006,1.1397 -0.49035,2.2945 -0.71875,3.4375 0.228672,-1.14963 0.472754,-2.29421 0.71875,-3.4375 z m -1.4375,7.21875 c -0.178427,0.9786 -0.334436,1.95682 -0.5,2.9375 0.164559,-0.98169 0.32286,-1.96014 0.5,-2.9375 z"
         style="fill:#f8d544;fill-opacity:1;fill-rule:evenodd;stroke:none"
         inkscape:connector-curvature="0" />
    </clipPath>
    <clipPath
       clipPathUnits="userSpaceOnUse"
       id="clipPath3915">
      <path
         id="path3917"
         d="m 55.90625,146.625 c -0.555933,0.96227 -1.114024,1.93481 -1.65625,2.90625 0.540984,-0.96928 1.10151,-1.94581 1.65625,-2.90625 z M 396.5,150.21875 c -56.55187,0 -108.27154,20.73776 -147.96875,55 66.86748,43.61442 108.61716,121.31077 102.34375,206.5625 -1.47296,20.01658 -5.50471,39.25363 -11.75,57.375 14.32657,-5.96432 27.91857,-13.39232 40.625,-22.0625 1.02458,-0.69989 2.04619,-1.40613 3.0625,-2.125 27.24965,-19.25151 50.15857,-44.38032 66.75,-73.75 0.6351,-1.12664 1.26035,-2.27059 1.875,-3.40625 0.75104,-1.38473 1.49572,-2.78494 2.21875,-4.1875 0.46981,-0.9135 0.91822,-1.83116 1.375,-2.75 2.32135,-4.65763 4.49475,-9.4093 6.5,-14.25 0.37449,-0.90613 0.73135,-1.80852 1.09375,-2.71875 7.89969,-19.79999 13.11659,-41.04611 15.15625,-63.3125 0.12138,-1.32236 0.24549,-2.64439 0.34375,-3.96875 0.004,-0.0518 -0.004,-0.10442 0,-0.15625 0.45621,-6.19965 0.6366,-12.35925 0.59375,-18.46875 -0.01,-1.29335 -0.0304,-2.58152 -0.0625,-3.875 -0.82814,-34.44372 -9.44198,-67.1926 -24.25,-96.4375 -18.48497,-4.87247 -37.89075,-7.46875 -57.90625,-7.46875 z m -365.75,61.6875 c -0.246006,1.1397 -0.49035,2.2945 -0.71875,3.4375 0.228672,-1.14963 0.472754,-2.29421 0.71875,-3.4375 z m -1.4375,7.21875 c -0.178427,0.9786 -0.334436,1.95682 -0.5,2.9375 0.164559,-0.98169 0.32286,-1.96014 0.5,-2.9375 z"
         style="fill:#f8d544;fill-opacity:1;fill-rule:evenodd;stroke:none"
         inkscape:connector-curvature="0" />
    </clipPath>
    <clipPath
       clipPathUnits="userSpaceOnUse"
       id="clipPath3924">
      <path
         id="path3926"
         d="m 45.1875,167.625 c -33.629633,75.62504 -24.433208,166.99318 31.46875,235.5 64.8405,79.46081 172.39314,103.49563 262.46875,66.03125 6.24529,-18.12137 10.27704,-37.35842 11.75,-57.375 3.26386,-44.35382 -6.49375,-86.65669 -26,-123.1875 C 237.79159,318.32207 137.64904,292.84817 76.0625,217.375 63.373255,201.82456 53.107889,185.07938 45.1875,167.625 z m 433.46875,86.5 c 0.031,1.29038 0.0534,2.58002 0.0625,3.875 -0.01,-1.29335 -0.0304,-2.58152 -0.0625,-3.875 z m -0.53125,22.5 c -0.0985,1.32574 -0.22296,2.65012 -0.34375,3.96875 0.12138,-1.32236 0.24549,-2.64439 0.34375,-3.96875 z m -15.5,67.28125 c -0.36422,0.91289 -0.71814,1.81203 -1.09375,2.71875 0.37449,-0.90613 0.73135,-1.80852 1.09375,-2.71875 z m -7.59375,16.96875 c -0.45598,0.91489 -0.90716,1.84246 -1.375,2.75 0.46981,-0.9135 0.91822,-1.83116 1.375,-2.75 z m -3.59375,6.9375 c -0.61851,1.14036 -1.23775,2.2782 -1.875,3.40625 0.6351,-1.12664 1.26035,-2.27059 1.875,-3.40625 z m -3.8125,6.75 c -1.31156,2.23109 -2.67818,4.4451 -4.0625,6.625 1.39037,-2.19282 2.75345,-4.39333 4.0625,-6.625 z m -4.0625,6.625 c -0.69216,1.08995 -1.38374,2.17313 -2.09375,3.25 0.70979,-1.07796 1.40394,-2.16206 2.09375,-3.25 z m -4.25,6.46875 c -3.6382,5.31793 -7.50034,10.46606 -11.5625,15.4375 4.0935,-5.0076 7.95449,-10.15863 11.5625,-15.4375 z m -11.5625,15.4375 c -0.81243,0.99429 -1.64003,1.9889 -2.46875,2.96875 0.8345,-0.98582 1.65343,-1.97137 2.46875,-2.96875 z m -2.46875,2.96875 c -2.48616,2.93955 -5.02754,5.78764 -7.65625,8.59375 2.63807,-2.81243 5.18579,-5.67531 7.65625,-8.59375 z m -7.65625,8.59375 c -0.87624,0.93537 -1.76462,1.89234 -2.65625,2.8125 0.89872,-0.92597 1.77613,-1.87421 2.65625,-2.8125 z m -2.65625,2.8125 c -0.89163,0.92016 -1.7807,1.814 -2.6875,2.71875 0.9037,-0.90031 1.80184,-1.80624 2.6875,-2.71875 z M 403.78125,428.25 c -0.90779,0.81718 -1.82923,1.6038 -2.75,2.40625 0.91932,-0.8004 1.84662,-1.59412 2.75,-2.40625 z m -2.75,2.40625 c -0.96523,0.84119 -1.92697,1.67518 -2.90625,2.5 0.97937,-0.82445 1.9443,-1.66248 2.90625,-2.5 z m -18.21875,14.3125 c -1.00914,0.71295 -2.04155,1.42836 -3.0625,2.125 1.02458,-0.69989 2.04619,-1.40613 3.0625,-2.125 z m -12.90625,8.5 c -2.06861,1.26035 -4.13972,2.49268 -6.25,3.6875 2.10283,-1.19151 4.17541,-2.42223 6.25,-3.6875 z m -6.5625,3.875 c -1.08671,0.61298 -2.18384,1.1859 -3.28125,1.78125 1.09181,-0.59272 2.19657,-1.16897 3.28125,-1.78125 z m -3.28125,1.78125 c -1.1304,0.61325 -2.26471,1.21814 -3.40625,1.8125 1.13498,-0.59132 2.27862,-1.20033 3.40625,-1.8125 z m -6.875,3.59375 c -1.15246,0.57528 -2.3056,1.13149 -3.46875,1.6875 1.15981,-0.55435 2.31589,-1.11197 3.46875,-1.6875 z m -3.46875,1.6875 c -1.16315,0.55601 -2.32638,1.08846 -3.5,1.625 1.1708,-0.53508 2.33593,-1.06861 3.5,-1.625 z"
         style="fill:#53b7af;fill-opacity:1;fill-rule:evenodd;stroke:none"
         inkscape:connector-curvature="0" />
    </clipPath>
    <clipPath
       clipPathUnits="userSpaceOnUse"
       id="clipPath3933">
      <path
         id="path3935"
         d="m 252.21875,33.21875 c -92.31738,0 -171.726889,55.205633 -207.03125,134.40625 7.920389,17.45438 18.185755,34.19956 30.875,49.75 29.79273,36.51045 68.59862,61.29251 110.59375,73.8125 C 220.4331,208.49848 301.65937,150.21875 396.5,150.21875 c 20.0707,0 39.53166,2.60145 58.0625,7.5 -37.33141,-73.867881 -113.9231,-124.5 -202.34375,-124.5 z M 38.09375,185.625 c -0.420007,1.21295 -0.81887,2.43404 -1.21875,3.65625 0.399463,-1.22246 0.798213,-2.43986 1.21875,-3.65625 z m -1.21875,3.65625 c -0.40202,1.22875 -0.806023,2.4496 -1.1875,3.6875 0.37836,-1.22823 0.788037,-2.46504 1.1875,-3.6875 z m -2.28125,7.375 c -0.354411,1.22416 -0.697028,2.4549 -1.03125,3.6875 0.336064,-1.2389 0.674023,-2.45379 1.03125,-3.6875 z m -1.03125,3.6875 c -0.337962,1.2464 -0.682877,2.49517 -1,3.75 0.314872,-1.24379 0.663936,-2.5111 1,-3.75 z m -2.8125,11.5625 c -0.245996,1.14329 -0.490078,2.28787 -0.71875,3.4375 0.2284,-1.143 0.472744,-2.2978 0.71875,-3.4375 z m -1.4375,7.21875 c -0.17714,0.97736 -0.335441,1.95581 -0.5,2.9375 0.165564,-0.98068 0.321573,-1.9589 0.5,-2.9375 z m 449.34375,35 c 0.0321,1.29348 0.0525,2.58165 0.0625,3.875 -0.009,-1.29498 -0.0315,-2.58462 -0.0625,-3.875 z m -0.53125,22.5 c -0.0983,1.32436 -0.22237,2.64639 -0.34375,3.96875 0.12079,-1.31863 0.2453,-2.64301 0.34375,-3.96875 z m -15.5,67.28125 c -0.3624,0.91023 -0.71926,1.81262 -1.09375,2.71875 0.37561,-0.90672 0.72953,-1.80586 1.09375,-2.71875 z m -7.59375,16.96875 c -0.45678,0.91884 -0.90519,1.8365 -1.375,2.75 0.46784,-0.90754 0.91902,-1.83511 1.375,-2.75 z m -3.59375,6.9375 c -0.61465,1.13566 -1.2399,2.27961 -1.875,3.40625 0.63725,-1.12805 1.25649,-2.26589 1.875,-3.40625 z m -68.625,77.15625 c -1.01631,0.71887 -2.03792,1.42511 -3.0625,2.125 1.02095,-0.69664 2.05336,-1.41205 3.0625,-2.125 z"
         style="fill:#f15852;fill-opacity:1;fill-rule:evenodd;stroke:none"
         inkscape:connector-curvature="0" />
    </clipPath>
    <clipPath
       clipPathUnits="userSpaceOnUse"
       id="clipPath4054">
      <path
         id="path4056"
         d="m 55.90625,146.625 c -0.555933,0.96227 -1.114024,1.93481 -1.65625,2.90625 0.540984,-0.96928 1.10151,-1.94581 1.65625,-2.90625 z M 396.5,150.21875 c -56.55187,0 -108.27154,20.73776 -147.96875,55 66.86748,43.61442 108.61716,121.31077 102.34375,206.5625 -1.47296,20.01658 -5.50471,39.25363 -11.75,57.375 14.32657,-5.96432 27.91857,-13.39232 40.625,-22.0625 1.02458,-0.69989 2.04619,-1.40613 3.0625,-2.125 27.24965,-19.25151 50.15857,-44.38032 66.75,-73.75 0.6351,-1.12664 1.26035,-2.27059 1.875,-3.40625 0.75104,-1.38473 1.49572,-2.78494 2.21875,-4.1875 0.46981,-0.9135 0.91822,-1.83116 1.375,-2.75 2.32135,-4.65763 4.49475,-9.4093 6.5,-14.25 0.37449,-0.90613 0.73135,-1.80852 1.09375,-2.71875 7.89969,-19.79999 13.11659,-41.04611 15.15625,-63.3125 0.12138,-1.32236 0.24549,-2.64439 0.34375,-3.96875 0.004,-0.0518 -0.004,-0.10442 0,-0.15625 0.45621,-6.19965 0.6366,-12.35925 0.59375,-18.46875 -0.01,-1.29335 -0.0304,-2.58152 -0.0625,-3.875 -0.82814,-34.44372 -9.44198,-67.1926 -24.25,-96.4375 -18.48497,-4.87247 -37.89075,-7.46875 -57.90625,-7.46875 z m -365.75,61.6875 c -0.246006,1.1397 -0.49035,2.2945 -0.71875,3.4375 0.228672,-1.14963 0.472754,-2.29421 0.71875,-3.4375 z m -1.4375,7.21875 c -0.178427,0.9786 -0.334436,1.95682 -0.5,2.9375 0.164559,-0.98169 0.32286,-1.96014 0.5,-2.9375 z"
         style="fill:#f8d544;fill-opacity:1;fill-rule:evenodd;stroke:none"
         inkscape:connector-curvature="0" />
    </clipPath>
    <clipPath
       clipPathUnits="userSpaceOnUse"
       id="clipPath4068">
      <path
         id="path4070"
         d="m 45.1875,167.625 c -33.629633,75.62504 -24.433208,166.99318 31.46875,235.5 64.8405,79.46081 172.39314,103.49563 262.46875,66.03125 6.24529,-18.12137 10.27704,-37.35842 11.75,-57.375 3.26386,-44.35382 -6.49375,-86.65669 -26,-123.1875 C 237.79159,318.32207 137.64904,292.84817 76.0625,217.375 63.373255,201.82456 53.107889,185.07938 45.1875,167.625 z m 433.46875,86.5 c 0.031,1.29038 0.0534,2.58002 0.0625,3.875 -0.01,-1.29335 -0.0304,-2.58152 -0.0625,-3.875 z m -0.53125,22.5 c -0.0985,1.32574 -0.22296,2.65012 -0.34375,3.96875 0.12138,-1.32236 0.24549,-2.64439 0.34375,-3.96875 z m -15.5,67.28125 c -0.36422,0.91289 -0.71814,1.81203 -1.09375,2.71875 0.37449,-0.90613 0.73135,-1.80852 1.09375,-2.71875 z m -7.59375,16.96875 c -0.45598,0.91489 -0.90716,1.84246 -1.375,2.75 0.46981,-0.9135 0.91822,-1.83116 1.375,-2.75 z m -3.59375,6.9375 c -0.61851,1.14036 -1.23775,2.2782 -1.875,3.40625 0.6351,-1.12664 1.26035,-2.27059 1.875,-3.40625 z m -3.8125,6.75 c -1.31156,2.23109 -2.67818,4.4451 -4.0625,6.625 1.39037,-2.19282 2.75345,-4.39333 4.0625,-6.625 z m -4.0625,6.625 c -0.69216,1.08995 -1.38374,2.17313 -2.09375,3.25 0.70979,-1.07796 1.40394,-2.16206 2.09375,-3.25 z m -4.25,6.46875 c -3.6382,5.31793 -7.50034,10.46606 -11.5625,15.4375 4.0935,-5.0076 7.95449,-10.15863 11.5625,-15.4375 z m -11.5625,15.4375 c -0.81243,0.99429 -1.64003,1.9889 -2.46875,2.96875 0.8345,-0.98582 1.65343,-1.97137 2.46875,-2.96875 z m -2.46875,2.96875 c -2.48616,2.93955 -5.02754,5.78764 -7.65625,8.59375 2.63807,-2.81243 5.18579,-5.67531 7.65625,-8.59375 z m -7.65625,8.59375 c -0.87624,0.93537 -1.76462,1.89234 -2.65625,2.8125 0.89872,-0.92597 1.77613,-1.87421 2.65625,-2.8125 z m -2.65625,2.8125 c -0.89163,0.92016 -1.7807,1.814 -2.6875,2.71875 0.9037,-0.90031 1.80184,-1.80624 2.6875,-2.71875 z M 403.78125,428.25 c -0.90779,0.81718 -1.82923,1.6038 -2.75,2.40625 0.91932,-0.8004 1.84662,-1.59412 2.75,-2.40625 z m -2.75,2.40625 c -0.96523,0.84119 -1.92697,1.67518 -2.90625,2.5 0.97937,-0.82445 1.9443,-1.66248 2.90625,-2.5 z m -18.21875,14.3125 c -1.00914,0.71295 -2.04155,1.42836 -3.0625,2.125 1.02458,-0.69989 2.04619,-1.40613 3.0625,-2.125 z m -12.90625,8.5 c -2.06861,1.26035 -4.13972,2.49268 -6.25,3.6875 2.10283,-1.19151 4.17541,-2.42223 6.25,-3.6875 z m -6.5625,3.875 c -1.08671,0.61298 -2.18384,1.1859 -3.28125,1.78125 1.09181,-0.59272 2.19657,-1.16897 3.28125,-1.78125 z m -3.28125,1.78125 c -1.1304,0.61325 -2.26471,1.21814 -3.40625,1.8125 1.13498,-0.59132 2.27862,-1.20033 3.40625,-1.8125 z m -6.875,3.59375 c -1.15246,0.57528 -2.3056,1.13149 -3.46875,1.6875 1.15981,-0.55435 2.31589,-1.11197 3.46875,-1.6875 z m -3.46875,1.6875 c -1.16315,0.55601 -2.32638,1.08846 -3.5,1.625 1.1708,-0.53508 2.33593,-1.06861 3.5,-1.625 z"
         style="fill:#53b7af;fill-opacity:1;fill-rule:evenodd;stroke:none"
         inkscape:connector-curvature="0" />
    </clipPath>
    <clipPath
       clipPathUnits="userSpaceOnUse"
       id="clipPath4077">
      <path
         id="path4079"
         d="m 252.21875,33.21875 c -92.31738,0 -171.726889,55.205633 -207.03125,134.40625 7.920389,17.45438 18.185755,34.19956 30.875,49.75 29.79273,36.51045 68.59862,61.29251 110.59375,73.8125 C 220.4331,208.49848 301.65937,150.21875 396.5,150.21875 c 20.0707,0 39.53166,2.60145 58.0625,7.5 -37.33141,-73.867881 -113.9231,-124.5 -202.34375,-124.5 z M 38.09375,185.625 c -0.420007,1.21295 -0.81887,2.43404 -1.21875,3.65625 0.399463,-1.22246 0.798213,-2.43986 1.21875,-3.65625 z m -1.21875,3.65625 c -0.40202,1.22875 -0.806023,2.4496 -1.1875,3.6875 0.37836,-1.22823 0.788037,-2.46504 1.1875,-3.6875 z m -2.28125,7.375 c -0.354411,1.22416 -0.697028,2.4549 -1.03125,3.6875 0.336064,-1.2389 0.674023,-2.45379 1.03125,-3.6875 z m -1.03125,3.6875 c -0.337962,1.2464 -0.682877,2.49517 -1,3.75 0.314872,-1.24379 0.663936,-2.5111 1,-3.75 z m -2.8125,11.5625 c -0.245996,1.14329 -0.490078,2.28787 -0.71875,3.4375 0.2284,-1.143 0.472744,-2.2978 0.71875,-3.4375 z m -1.4375,7.21875 c -0.17714,0.97736 -0.335441,1.95581 -0.5,2.9375 0.165564,-0.98068 0.321573,-1.9589 0.5,-2.9375 z m 449.34375,35 c 0.0321,1.29348 0.0525,2.58165 0.0625,3.875 -0.009,-1.29498 -0.0315,-2.58462 -0.0625,-3.875 z m -0.53125,22.5 c -0.0983,1.32436 -0.22237,2.64639 -0.34375,3.96875 0.12079,-1.31863 0.2453,-2.64301 0.34375,-3.96875 z m -15.5,67.28125 c -0.3624,0.91023 -0.71926,1.81262 -1.09375,2.71875 0.37561,-0.90672 0.72953,-1.80586 1.09375,-2.71875 z m -7.59375,16.96875 c -0.45678,0.91884 -0.90519,1.8365 -1.375,2.75 0.46784,-0.90754 0.91902,-1.83511 1.375,-2.75 z m -3.59375,6.9375 c -0.61465,1.13566 -1.2399,2.27961 -1.875,3.40625 0.63725,-1.12805 1.25649,-2.26589 1.875,-3.40625 z m -68.625,77.15625 c -1.01631,0.71887 -2.03792,1.42511 -3.0625,2.125 1.02095,-0.69664 2.05336,-1.41205 3.0625,-2.125 z"
         style="fill:#f15852;fill-opacity:1;fill-rule:evenodd;stroke:none"
         inkscape:connector-curvature="0" />
    </clipPath>
    <radialGradient
       r="0.564"
       cy="5.927"
       cx="6.773"
       gradientTransform="matrix(3.543307,0,0,3.543307,1.4763794e-7,3.77575e-4)"
       gradientUnits="userSpaceOnUse"
       id="radialGradient3427"
       xlink:href="#radial0" />
    <radialGradient
       xlink:href="#radial0"
       gradientTransform="translate(18,8.707971)"
       r="1"
       cy="17.292"
       cx="6"
       gradientUnits="userSpaceOnUse"
       id="radial1" />
    <radialGradient
       gradientTransform="matrix(3.543307,0,0,3.543307,0.000000147638,0.000377575)"
       r="0.564"
       cy="5.927"
       cx="6.773"
       gradientUnits="userSpaceOnUse"
       id="radial0">
      <stop
         id="stop3869"
         style="stop-color:#8eb0c7;stop-opacity:1" />
      <stop
         id="stop3871"
         style="stop-color:#8eb0c7;stop-opacity:0"
         offset="1" />
    </radialGradient>
    <clipPath
       id="clipPath-307844360">
      <g
         id="g3864"
         transform="translate(0,-1004.3622)">
        <path
           id="path3866"
           style="fill:#1890d0"
           transform="matrix(15.333333,0,0,11.5,414.99999,878.8622)"
           d="m -24 13 c 0 1.105 -0.672 2 -1.5 2 -0.828 0 -1.5 -0.895 -1.5 -2 0 -1.105 0.672 -2 1.5 -2 0.828 0 1.5 0.895 1.5 2 z" />
      </g>
    </clipPath>
    <clipPath
       id="clipPath-301376108">
      <g
         id="g3859"
         transform="translate(0,-1004.3622)">
        <path
           id="path3861"
           style="fill:#1890d0"
           transform="matrix(15.333333,0,0,11.5,414.99999,878.8622)"
           d="m -24 13 c 0 1.105 -0.672 2 -1.5 2 -0.828 0 -1.5 -0.895 -1.5 -2 0 -1.105 0.672 -2 1.5 -2 0.828 0 1.5 0.895 1.5 2 z" />
      </g>
    </clipPath>
    <linearGradient
       gradientTransform="matrix(0,-1,1,0,-1.5000001e-6,47.999998)"
       gradientUnits="userSpaceOnUse"
       x2="47"
       x1="1"
       id="linearGradient3764">
      <stop
         id="stop3854"
         style="stop-color:#ff7061;stop-opacity:1" />
      <stop
         id="stop3856"
         style="stop-color:#ff8275;stop-opacity:1"
         offset="1" />
    </linearGradient>
    <clipPath
       clipPathUnits="userSpaceOnUse"
       id="clipPath4050">
      <path
         inkscape:connector-curvature="0"
         id="path4052"
         d="m 220.58853,15.794951 -50.87779,50.877796 -19.26311,0 c -2.0402,-10.122379 -10.92988,-17.702441 -21.671,-17.702441 l -42.048874,0 c -11.553442,0 -20.981251,8.794666 -22.027722,20.065739 C 32.755151,77.282226 9.2740058,106.1906 9.2740058,140.78221 l 0,208.01483 c 0,41.05585 33.0536122,74.10946 74.1094602,74.10946 l 429.317634,0 c 41.05585,0 74.10947,-33.05361 74.10947,-74.10946 l 0,-208.01483 c 0,-41.05585 -33.05362,-74.109463 -74.10947,-74.109463 l -86.37186,0 -50.8332,-50.877796 -154.90751,0 z"
         style="color:#000000;fill:#c5cfd4;fill-opacity:1;fill-rule:evenodd;stroke:none;stroke-width:33.52099991;marker:none;visibility:visible;display:inline;overflow:visible;enable-background:accumulate" />
    </clipPath>
    <clipPath
       clipPathUnits="userSpaceOnUse"
       id="clipPath3817">
      <rect
         ry="39.530807"
         y="211.16185"
         x="-586.16919"
         height="285.33102"
         width="465.21365"
         id="rect3819"
         style="color:#000000;fill:#d6d3d3;fill-opacity:1;fill-rule:evenodd;stroke:none;stroke-width:5;marker:none;visibility:visible;display:inline;overflow:visible;enable-background:accumulate" />
    </clipPath>
    <clipPath
       clipPathUnits="userSpaceOnUse"
       id="clipPath4583">
      <path
         id="path4585"
         d="m 336.5,90.96875 c -147.73498,0 -267.5,119.76502 -267.5,267.5 0,147.73498 119.76502,267.5 267.5,267.5 147.73498,0 267.5,-119.76502 267.5,-267.5 0,-147.73498 -119.76502,-267.5 -267.5,-267.5 z m 0,227.5 c 22.10406,0 40.03125,17.89594 40.03125,40 0,22.10406 -17.92719,40.03125 -40.03125,40.03125 -22.10406,0 -40.03125,-17.92719 -40.03125,-40.03125 0,-22.10406 17.92719,-40 40.03125,-40 z"
         style="fill:#57aae5;fill-opacity:1;fill-rule:evenodd;stroke:none"
         inkscape:connector-curvature="0" />
    </clipPath>
    <clipPath
       clipPathUnits="userSpaceOnUse"
       id="clipPath4587">
      <path
         id="path4589"
         d="m 336.5,90.96875 c -147.73498,0 -267.5,119.76502 -267.5,267.5 0,147.73498 119.76502,267.5 267.5,267.5 147.73498,0 267.5,-119.76502 267.5,-267.5 0,-147.73498 -119.76502,-267.5 -267.5,-267.5 z m 0,227.5 c 22.10406,0 40.03125,17.89594 40.03125,40 0,22.10406 -17.92719,40.03125 -40.03125,40.03125 -22.10406,0 -40.03125,-17.92719 -40.03125,-40.03125 0,-22.10406 17.92719,-40 40.03125,-40 z"
         style="fill:#57aae5;fill-opacity:1;fill-rule:evenodd;stroke:none"
         inkscape:connector-curvature="0" />
    </clipPath>
    <clipPath
       id="clipPath3891"
       clipPathUnits="userSpaceOnUse">
      <path
         style="color:#000000;fill:#385a5a;fill-opacity:1;fill-rule:evenodd;stroke:none;stroke-width:16;marker:none;visibility:visible;display:inline;overflow:visible;enable-background:accumulate"
         d="m 14.929796,1019.9515 c -1.088214,0 -1.96875,0.8806 -1.96875,1.9688 0.166816,1.3072 -0.268516,1.3767 -1.328125,1.9999 -1.104701,0.7979 -1.295073,0.8007 -2.3906252,0.1563 -0.942421,-0.5441 -2.143393,-0.2237 -2.6875,0.7188 l -0.8125,1.4062 c -0.544107,0.9424 -0.223671,2.1434 0.71875,2.6875 1.207179,0.5004 1.034696,0.9384 1.046875,2.1563 0.137759,1.3588 0.06562,1.5346 -1.046875,2.1562 -0.942421,0.5441 -1.262857,1.7138 -0.71875,2.6563 l 0.8125,1.4062 c 0.544107,0.9424 1.745079,1.2629 2.6875,0.7188 1.0596202,-0.7832 1.3312692,-0.4357 2.3906252,0.1875 1.203764,0.5637 1.328125,0.7296 1.328125,1.9687 0,1.0882 0.880536,1.9688 1.96875,1.9688 l 1.625,0 c 1.088214,0 1.96875,-0.8806 1.96875,-1.9688 -0.167594,-1.2868 0.290497,-1.3618 1.328125,-1.9843 1.103834,-0.8098 1.289728,-0.8195 2.390625,-0.1719 0.942421,0.5441 2.143393,0.2236 2.6875,-0.7188 l 0.8125,-1.4062 c 0.544107,-0.9425 0.223671,-2.1122 -0.71875,-2.6563 -1.207208,-0.5003 -1.034697,-0.9383 -1.04688,-2.1562 -0.137778,-1.3588 -0.06559,-1.5346 1.04687,-2.1563 0.942421,-0.5441 1.262857,-1.7451 0.71875,-2.6875 l -0.8125,-1.4062 c -0.544107,-0.9425 -1.745079,-1.2629 -2.6875,-0.7188 -1.057834,0.8147 -1.317775,0.4748 -2.390625,-0.1563 -1.220815,-0.569 -1.328125,-0.7444 -1.328125,-1.9999 0,-1.0882 -0.880536,-1.9688 -1.96875,-1.9688 z"
         id="path3893"
         inkscape:connector-curvature="0"
         sodipodi:nodetypes="scccccccccccccsscccccccccccccss" />
    </clipPath>
    <clipPath
       id="clipPath3908"
       clipPathUnits="userSpaceOnUse">
      <g
         transform="matrix(17.962606,0,0,17.962606,-137.2329,-187.8265)"
         id="g3910"
         style="fill:#666666">
        <g
           id="g3912"
           clip-path="url(#clipPath-223639780)"
           style="fill:#666666">
          <!-- color: #eeeeee -->
          <g
             id="g3914"
             style="fill:#666666">
            <path
               inkscape:connector-curvature="0"
               d="m 36,13.977 c 0,0 -2,3 -5,3 -2.797,-0.539 -3.906,-0.082 -4,0 l 0,12.1 c -0.133,2.551 -2.223,5.105 -5.336,6.281 -3.949,1.492 -8.125,0.195 -9.332,-2.906 -1.211,-3.098 1,-6.848 4.953,-8.34 3.059,-1.156 5.867,-0.871 7.715,0.863 l 0,-12 c 4,-2.66 7.719,0.961 11,1 m 0,0"
               style="fill:#666666;fill-opacity:1;fill-rule:nonzero;stroke:none"
               id="path3916" />
          </g>
        </g>
      </g>
    </clipPath>
    <clipPath
       id="clipPath-223639780">
      <g
         id="g17"
         transform="translate(0,-1004.3622)">
        <path
           id="path19"
           style="fill:#1890d0"
           transform="matrix(15.333333,0,0,11.5,414.99999,878.8622)"
           d="m -24,13 c 0,1.105 -0.672,2 -1.5,2 -0.828,0 -1.5,-0.895 -1.5,-2 0,-1.105 0.672,-2 1.5,-2 0.828,0 1.5,0.895 1.5,2 z"
           inkscape:connector-curvature="0" />
      </g>
    </clipPath>
    <clipPath
       id="clipPath3855"
       clipPathUnits="userSpaceOnUse">
      <path
         style="color:#000000;fill:#ff2a2a;fill-opacity:1;fill-rule:evenodd;stroke:none;stroke-width:14.7840004;marker:none;visibility:visible;display:inline;overflow:visible;enable-background:accumulate"
         inkscape:transform-center-y="-26.575552"
         d="m 232.03976,-129.46254 92.06038,159.453261 -46.03019,70.779659 c -30.6868,0 -61.37359,0 -92.06038,0 L 139.97938,29.990713 z"
         id="path3857"
         inkscape:connector-curvature="0"
         sodipodi:nodetypes="cccccc" />
    </clipPath>
    <linearGradient
       id="linearGradient3102"
       gradientUnits="userSpaceOnUse"
       gradientTransform="matrix(0.05622958,0,0,0.05622958,0.07160145,-0.0527796)"
       x1="135"
       y1="120"
       x2="160"
       y2="160">
      <stop
         id="stop12"
         style="stop-color:#eff7fc" />
      <stop
         id="stop14"
         style="stop-color:#fff"
         offset="1" />
    </linearGradient>
    <linearGradient
       gradientUnits="userSpaceOnUse"
       y2="1"
       x2="0"
       y1="47"
       id="linearGradient3845">
      <stop
         id="stop7"
         style="stop-color:#d22724;stop-opacity:1" />
      <stop
         id="stop9"
         style="stop-color:#db322f;stop-opacity:1"
         offset="1" />
    </linearGradient>
    <clipPath
       clipPathUnits="userSpaceOnUse"
       id="clipPath4757">
      <g
         inkscape:label="Capa 1"
         id="g4759"
         transform="matrix(10.64939,0,0,10.64939,-210.31978,-10730.287)"
         style="fill:#000000;fill-opacity:0.22999998">
        <path
           sodipodi:nodetypes="scccccccccccccsscccccccccccccss"
           inkscape:connector-curvature="0"
           id="path4761"
           d="m 29.624851,1009.4046 c -1.585245,0 -2.867958,1.2828 -2.867958,2.8681 0.243008,1.9042 -0.391158,2.0055 -1.934734,2.9133 -1.609263,1.1623 -1.886586,1.1664 -3.482521,0.2277 -1.372862,-0.7926 -3.122367,-0.3258 -3.914989,1.0471 l -1.183603,2.0485 c -0.792622,1.3728 -0.32583,3.1223 1.047033,3.915 1.758546,0.7289 1.507284,1.3669 1.525026,3.1411 0.200678,1.9794 0.09559,2.2355 -1.525026,3.1411 -1.372863,0.7926 -1.839655,2.4965 -1.047033,3.8695 l 1.183603,2.0484 c 0.792622,1.3729 2.542127,1.8398 3.914989,1.0471 1.543592,-1.1409 1.939315,-0.6346 3.482521,0.2732 1.753572,0.8212 1.934734,1.0628 1.934734,2.8679 0,1.5852 1.282713,2.868 2.867958,2.868 l 2.367204,0 c 1.585246,0 2.867957,-1.2828 2.867957,-2.868 -0.24414,-1.8746 0.42318,-1.9839 1.934734,-2.8907 1.608,-1.1796 1.878799,-1.1937 3.482521,-0.2504 1.372863,0.7927 3.122367,0.3258 3.914991,-1.0471 l 1.183601,-2.0484 c 0.792623,-1.373 0.32583,-3.0769 -1.047032,-3.8695 -1.758589,-0.7289 -1.507285,-1.3669 -1.525033,-3.1411 -0.200707,-1.9794 -0.09555,-2.2355 1.525018,-3.1411 1.372863,-0.7927 1.839655,-2.5422 1.047033,-3.915 l -1.183602,-2.0485 c -0.792623,-1.3729 -2.542128,-1.8397 -3.91499,-1.0471 -1.540991,1.1868 -1.919657,0.6916 -3.482521,-0.2277 -1.778411,-0.8289 -1.934734,-1.0844 -1.934734,-2.9133 0,-1.5853 -1.282712,-2.8681 -2.867958,-2.8681 z"
           style="color:#000000;fill:#000000;fill-opacity:0.22999998;fill-rule:evenodd;stroke:none;stroke-width:16;marker:none;visibility:visible;display:inline;overflow:visible;enable-background:accumulate" />
      </g>
    </clipPath>
  </defs>
  <sodipodi:namedview
     pagecolor="#ffffff"
     bordercolor="#666666"
     borderopacity="1"
     objecttolerance="10"
     gridtolerance="10"
     guidetolerance="10"
     inkscape:pageopacity="0"
     inkscape:pageshadow="2"
     inkscape:window-width="1360"
     inkscape:window-height="717"
     id="namedview4"
     showgrid="false"
     inkscape:zoom="0.64486502"
     inkscape:cx="203.65844"
     inkscape:cy="320.46422"
     inkscape:window-x="0"
     inkscape:window-y="25"
     inkscape:window-maximized="1"
     inkscape:current-layer="svg2"
     inkscape:document-units="px"
     showguides="true"
     inkscape:guide-bbox="true" />
  <g
     id="g3851"
     transform="translate(-188.82406,1.1047704)" />
  <path
     sodipodi:type="arc"
     style="fill:#e8e4de;fill-opacity:1;fill-rule:evenodd;stroke:none"
     id="path4555"
     sodipodi:cx="336.50452"
     sodipodi:cy="358.47949"
     sodipodi:rx="280.67889"
     sodipodi:ry="280.67889"
     d="m 617.18341,358.47949 a 280.67889,280.67889 0 1 1 -561.357787,0 280.67889,280.67889 0 1 1 561.357787,0 z"
     transform="matrix(0.69085788,0,0,0.69085788,53.233724,55.739936)" />
  <path
     inkscape:connector-curvature="0"
     style="fill:#50b4e4;fill-opacity:1;fill-rule:evenodd;stroke:none"
     d="m 285.7074,118.58641 c -102.06387,0 -184.80448,82.74061 -184.80448,184.80449 0,102.06387 82.74061,184.80448 184.80448,184.80448 102.06388,0 184.80448,-82.74061 184.80448,-184.80448 0,-102.06388 -82.7406,-184.80449 -184.80448,-184.80449 z m 0,157.17017 c 15.27076,0 27.65591,12.36355 27.65591,27.63432 0,15.27076 -12.38515,27.6559 -27.65591,27.6559 -15.27076,0 -27.6559,-12.38514 -27.6559,-27.6559 0,-15.27077 12.38514,-27.63432 27.6559,-27.63432 z"
     id="path4557" />
  <path
     inkscape:connector-curvature="0"
     style="fill:#ffffff;fill-opacity:0.12376236;fill-rule:evenodd;stroke:none"
     d="m 285.7074,237.41397 c -36.44797,0 -65.99852,29.52896 -65.99852,65.97693 0,36.44797 29.55055,65.99851 65.99852,65.99851 36.44797,0 65.99852,-29.55054 65.99852,-65.99851 0,-36.44797 -29.55055,-65.97693 -65.99852,-65.97693 z m 0,38.34261 c 15.27076,0 27.65591,12.36355 27.65591,27.63432 0,15.27076 -12.38515,27.6559 -27.65591,27.6559 -15.27076,0 -27.6559,-12.38514 -27.6559,-27.6559 0,-15.27077 12.38514,-27.63432 27.6559,-27.63432 z"
     id="path4564" />
  <path
     inkscape:connector-curvature="0"
     style="fill:#ffffff;fill-opacity:0.2128713;fill-rule:evenodd;stroke:none"
     d="m 285.7074,252.54807 c -28.08043,0 -50.84282,22.7624 -50.84282,50.84283 0,28.08043 22.76239,50.84282 50.84282,50.84282 28.08043,0 50.84282,-22.76239 50.84282,-50.84282 0,-28.08043 -22.76239,-50.84283 -50.84282,-50.84283 z m 0,23.20851 c 15.27076,0 27.65591,12.36355 27.65591,27.63432 0,15.27076 -12.38515,27.6559 -27.65591,27.6559 -15.27076,0 -27.6559,-12.38514 -27.6559,-27.6559 0,-15.27077 12.38514,-27.63432 27.6559,-27.63432 z"
     id="path4562" />
  <path
     style="font-size:medium;font-style:normal;font-variant:normal;font-weight:normal;font-stretch:normal;text-indent:0;text-align:start;text-decoration:none;line-height:normal;letter-spacing:normal;word-spacing:normal;text-transform:none;direction:ltr;block-progression:tb;writing-mode:lr-tb;text-anchor:start;baseline-shift:baseline;color:#000000;fill:#ffffff;fill-opacity:0.15346536;stroke:none;stroke-width:5;marker:none;visibility:visible;display:inline;overflow:visible;enable-background:accumulate;font-family:Sans;-inkscape-font-specification:Sans"
     d="m 361.4375,387.4375 -3.5625,3.53125 150.77334,203.40625 92.38054,-3.5625 z"
     id="path4573"
     inkscape:connector-curvature="0"
     sodipodi:nodetypes="ccccc"
     clip-path="url(#clipPath4587)"
     transform="matrix(0.69085788,0,0,0.69085788,53.233724,55.739936)" />
  <path
     sodipodi:nodetypes="ccccc"
     inkscape:connector-curvature="0"
     id="path4579"
     d="m 309.08187,333.40347 3.5625,-3.53125 -150.77334,-203.40625 -92.380541,3.5625 z"
     style="font-size:medium;font-style:normal;font-variant:normal;font-weight:normal;font-stretch:normal;text-indent:0;text-align:start;text-decoration:none;line-height:normal;letter-spacing:normal;word-spacing:normal;text-transform:none;direction:ltr;block-progression:tb;writing-mode:lr-tb;text-anchor:start;baseline-shift:baseline;color:#000000;fill:#ffffff;fill-opacity:0.1039604;stroke:none;stroke-width:5;marker:none;visibility:visible;display:inline;overflow:visible;enable-background:accumulate;font-family:Sans;-inkscape-font-specification:Sans"
     clip-path="url(#clipPath4583)"
     transform="matrix(0.69085788,0,0,0.69085788,53.233724,55.739936)" />
  <path
     d="m 617.18341,358.47949 a 280.67889,280.67889 0 1 1 -561.357787,0 280.67889,280.67889 0 1 1 561.357787,0 z"
     sodipodi:ry="280.67889"
     sodipodi:rx="280.67889"
     sodipodi:cy="358.47949"
     sodipodi:cx="336.50452"
     id="path4742"
     style="fill:#000000;fill-opacity:0.17;fill-rule:evenodd;stroke:none"
     sodipodi:type="arc"
     transform="matrix(0.69085788,0,0,0.69085788,53.233724,55.739936)"
     clip-path="url(#clipPath4757)" />
  <g
     transform="matrix(7.3572147,0,0,7.3572147,-99.742987,-7368.3289)"
     id="layer1"
     inkscape:label="Capa 1">
    <path
       style="color:#000000;fill:#3b6bb2;fill-opacity:1;fill-rule:evenodd;stroke:none;stroke-width:16;marker:none;visibility:visible;display:inline;overflow:visible;enable-background:accumulate"
       d="m 29.624851,1009.4046 c -1.585245,0 -2.867958,1.2828 -2.867958,2.8681 0.243008,1.9042 -0.391158,2.0055 -1.934734,2.9133 -1.609263,1.1623 -1.886586,1.1664 -3.482521,0.2277 -1.372862,-0.7926 -3.122367,-0.3258 -3.914989,1.0471 l -1.183603,2.0485 c -0.792622,1.3728 -0.32583,3.1223 1.047033,3.915 1.758546,0.7289 1.507284,1.3669 1.525026,3.1411 0.200678,1.9794 0.09559,2.2355 -1.525026,3.1411 -1.372863,0.7926 -1.839655,2.4965 -1.047033,3.8695 l 1.183603,2.0484 c 0.792622,1.3729 2.542127,1.8398 3.914989,1.0471 1.543592,-1.1409 1.939315,-0.6346 3.482521,0.2732 1.753572,0.8212 1.934734,1.0628 1.934734,2.8679 0,1.5852 1.282713,2.868 2.867958,2.868 l 2.367204,0 c 1.585246,0 2.867957,-1.2828 2.867957,-2.868 -0.24414,-1.8746 0.42318,-1.9839 1.934734,-2.8907 1.608,-1.1796 1.878799,-1.1937 3.482521,-0.2504 1.372863,0.7927 3.122367,0.3258 3.914991,-1.0471 l 1.183601,-2.0484 c 0.792623,-1.373 0.32583,-3.0769 -1.047032,-3.8695 -1.758589,-0.7289 -1.507285,-1.3669 -1.525033,-3.1411 -0.200707,-1.9794 -0.09555,-2.2355 1.525018,-3.1411 1.372863,-0.7927 1.839655,-2.5422 1.047033,-3.915 l -1.183602,-2.0485 c -0.792623,-1.3729 -2.542128,-1.8397 -3.91499,-1.0471 -1.540991,1.1868 -1.919657,0.6916 -3.482521,-0.2277 -1.778411,-0.8289 -1.934734,-1.0844 -1.934734,-2.9133 0,-1.5853 -1.282712,-2.8681 -2.867958,-2.8681 z"
       id="path3881"
       inkscape:connector-curvature="0"
       sodipodi:nodetypes="scccccccccccccsscccccccccccccss" />
  </g>
  <g
     id="g4709"
     transform="matrix(0,0.36739104,-0.36739104,0,198.72887,107.36482)">
    <g
       transform="translate(0,464)"
       id="g24" />
    <g
       style="fill:#244051;fill-opacity:1"
       id="g45"
       transform="matrix(17.962606,0,0,17.962606,-137.2329,-187.8265)">
      <g
         style="fill:#244051;fill-opacity:1"
         clip-path="url(#clipPath-223639780)"
         id="g47">
        <!-- color: #eeeeee -->
        <g
           style="fill:#244051;fill-opacity:1"
           id="g49" />
      </g>
    </g>
    <g
       transform="matrix(-1,0,0,-1,406.38252,421.88663)"
       id="g3890">
      <rect
         ry="21.437372"
         y="176.56528"
         x="150.52989"
         height="210.64548"
         width="104.76361"
         id="rect3845"
         style="color:#000000;fill:#ff676e;fill-opacity:1;fill-rule:evenodd;stroke:none;stroke-width:14.7840004;marker:none;visibility:visible;display:inline;overflow:visible;enable-background:accumulate" />
      <path
         style="color:#000000;fill:#f4caa0;fill-opacity:1;fill-rule:evenodd;stroke:none;stroke-width:14.7840004;marker:none;visibility:visible;display:inline;overflow:visible;enable-background:accumulate"
         d="m 203.19126,34.675871 52.73479,91.339339 -26.3674,40.5446 c -17.57826,0 -35.15653,0 -52.73479,0 l -26.36739,-40.5446 z"
         id="path3848"
         inkscape:connector-curvature="0"
         sodipodi:nodetypes="cccccc"
         inkscape:transform-center-y="-15.223226" />
      <path
         style="color:#000000;fill:#e5ebe1;fill-opacity:1;fill-rule:evenodd;stroke:none;stroke-width:14.7840004;marker:none;visibility:visible;display:inline;overflow:visible;enable-background:accumulate"
         d="m 150.52988,125.30206 c 9.64282,13.51615 16.82911,12.54254 26.33069,-4.6603 9.64282,13.51615 16.8291,17.20284 26.33068,0 9.64282,13.51615 16.82911,17.20284 26.33069,0 9.64282,13.51615 16.82912,21.86314 26.33068,4.6603 l 0,210.64548 -105.32274,0 z"
         id="rect3843"
         inkscape:connector-curvature="0"
         sodipodi:nodetypes="cccccccc" />
      <path
         sodipodi:nodetypes="cccccccccccccccc"
         inkscape:connector-curvature="0"
         id="path3859"
         d="m 203.19126,34.675871 3.29592,5.708704 3.29593,5.708718 3.29592,5.708704 3.29592,5.708703 3.29592,5.708718 3.29594,5.708704 3.29592,5.708717 -46.14295,-1.3e-5 3.29592,-5.708704 3.29594,-5.708704 3.29592,-5.708718 3.29592,-5.708703 3.29592,-5.708704 3.29593,-5.708718 z"
         style="color:#000000;fill:#737373;fill-opacity:1;fill-rule:evenodd;stroke:none;stroke-width:14.7840004;marker:none;visibility:visible;display:inline;overflow:visible;enable-background:accumulate"
         inkscape:transform-center-y="-15.223226" />
      <path
         sodipodi:nodetypes="ccccc"
         inkscape:connector-curvature="0"
         id="path3861-7"
         d="m 255.85262,309.61686 0,26.33068 -105.32274,0 0,-26.33068 z"
         style="color:#000000;fill:#ffc453;fill-opacity:1;fill-rule:evenodd;stroke:none;stroke-width:14.7840004;marker:none;visibility:visible;display:inline;overflow:visible;enable-background:accumulate" />
    </g>
  </g>
  <path
     style="color:#000000;fill:#ffffff;fill-opacity:0.105;fill-rule:evenodd;stroke:none;stroke-width:16;marker:none;visibility:visible;display:inline;overflow:visible;enable-background:accumulate"
     d="M 118.21875 58.0625 C 106.55576 58.0625 97.125 67.524107 97.125 79.1875 C 98.912862 93.197108 94.23142 93.946123 82.875 100.625 C 71.035307 109.17629 68.991637 109.18747 57.25 102.28125 C 47.14956 96.449922 34.30024 99.89928 28.46875 110 L 19.75 125.0625 C 14.594033 133.9925 16.684702 145.08046 24.21875 151.5625 C 22.384022 146.04382 22.793752 139.81989 25.9375 134.375 L 34.65625 119.28125 C 40.48774 109.18053 53.36831 105.76242 63.46875 111.59375 C 75.210387 118.49997 77.254057 118.45754 89.09375 109.90625 C 100.45017 103.22737 105.10036 102.47836 103.3125 88.46875 C 103.3125 76.805357 112.74326 67.375 124.40625 67.375 L 141.84375 67.375 C 147.14436 67.375 151.9521 69.340721 155.65625 72.5625 C 152.88292 64.14708 144.97514 58.0625 135.625 58.0625 L 118.21875 58.0625 z M 163.3125 96.65625 C 164.24929 103.14738 167.34314 105.33246 177.15625 109.90625 C 188.65458 116.66974 191.44385 120.32529 202.78125 111.59375 C 211.23637 106.71232 221.63515 108.3267 228.21875 114.90625 L 225.375 110 C 219.54351 99.89928 206.69419 96.449922 196.59375 102.28125 C 185.25635 111.01279 182.46707 107.38849 170.96875 100.625 C 167.74822 99.123943 165.2478 97.88167 163.3125 96.65625 z M 38.5 165.5625 C 38.840378 168.54398 38.608448 172.18851 38.65625 176.96875 C 40.132681 191.53162 39.36072 193.43106 27.4375 200.09375 C 17.337052 205.92508 13.91851 218.46104 19.75 228.5625 L 28.46875 243.625 C 29.418676 245.27037 30.531368 246.75087 31.8125 248.03125 L 25.9375 237.84375 C 20.10601 227.74229 23.555802 215.20633 33.65625 209.375 C 45.57947 202.71231 46.351431 200.84412 44.875 186.28125 C 44.764056 175.18687 46.045502 170.12263 38.5 165.5625 z M 221.53125 197.6875 C 222.12024 202.84751 224.39352 205.97617 232.59375 209.375 C 233.791 210.06621 234.90065 210.85435 235.90625 211.71875 C 234.36321 206.99742 231.12681 202.81909 226.40625 200.09375 C 224.46186 199.28784 222.86462 198.49384 221.53125 197.6875 z M 96.75 266.625 C 97.047263 268.70874 97.125 271.24053 97.125 274.4375 C 97.125 280.79766 99.931344 286.47676 104.375 290.34375 C 103.69285 288.26748 103.3125 286.05599 103.3125 283.75 C 103.3125 273.78962 102.56764 270.2963 96.75 266.625 z "
     id="path4765" />
</svg>
