<?xml version="1.0" encoding="UTF-8" standalone="no"?>
<!-- Generator: Adobe Illustrator 13.0.0, SVG Export Plug-In . SVG Version: 6.00 Build 14948)  -->

<svg
   xmlns:dc="http://purl.org/dc/elements/1.1/"
   xmlns:cc="http://creativecommons.org/ns#"
   xmlns:rdf="http://www.w3.org/1999/02/22-rdf-syntax-ns#"
   xmlns:svg="http://www.w3.org/2000/svg"
   xmlns="http://www.w3.org/2000/svg"
   xmlns:sodipodi="http://sodipodi.sourceforge.net/DTD/sodipodi-0.dtd"
   xmlns:inkscape="http://www.inkscape.org/namespaces/inkscape"
   version="1.1"
   id="Layer_1"
   x="0px"
   y="0px"
   width="512"
   height="512"
   viewBox="0 0 512 512"
   enable-background="new 0 0 164 145"
   xml:space="preserve"
   inkscape:version="0.48.4 r9939"
   sodipodi:docname="Opera2.svg"
   inkscape:export-filename="/home/cecilia/Descargas/iconos para oranchelo/opera-logo4.png"
   inkscape:export-xdpi="90"
   inkscape:export-ydpi="90"><metadata
     id="metadata11"><rdf:RDF><cc:Work
         rdf:about=""><dc:format>image/svg+xml</dc:format><dc:type
           rdf:resource="http://purl.org/dc/dcmitype/StillImage" /><dc:title></dc:title></cc:Work></rdf:RDF></metadata><defs
     id="defs9"><linearGradient
       x1="0"
       y1="0"
       x2="1"
       y2="0"
       gradientUnits="userSpaceOnUse"
       gradientTransform="matrix(0,391.78292,-391.78292,0,-320.13116,66.186738)"
       spreadMethod="pad"
       id="gradiant1"><stop
         id="stop3553"
         style="stop-color:#ff1b2d;stop-opacity:1"
         offset="0" /><stop
         id="stop3555"
         style="stop-color:#ff1b2d;stop-opacity:1"
         offset="0.3" /><stop
         id="stop3557"
         style="stop-color:#ff1b2d;stop-opacity:1"
         offset="0.61" /><stop
         id="stop3559"
         style="stop-color:#a70014;stop-opacity:1"
         offset="1" /></linearGradient><linearGradient
       x1="0"
       y1="0"
       x2="1"
       y2="0"
       gradientUnits="userSpaceOnUse"
       gradientTransform="matrix(0,346.51282,-346.51282,0,-218.6279,89.278582)"
       spreadMethod="pad"
       id="gradiant2"><stop
         id="stop3562"
         style="stop-color:#9c0000;stop-opacity:1"
         offset="0" /><stop
         id="stop3564"
         style="stop-color:#ff4b4b;stop-opacity:1"
         offset="0.7" /><stop
         id="stop3566"
         style="stop-color:#ff4b4b;stop-opacity:1"
         offset="1" /></linearGradient></defs><sodipodi:namedview
     pagecolor="#ffffff"
     bordercolor="#666666"
     borderopacity="1"
     objecttolerance="10"
     gridtolerance="10"
     guidetolerance="10"
     inkscape:pageopacity="0"
     inkscape:pageshadow="2"
     inkscape:window-width="1360"
     inkscape:window-height="721"
     id="namedview7"
     showgrid="false"
     showguides="false"
     inkscape:zoom="0.18946457"
     inkscape:cx="682.00932"
     inkscape:cy="489.38625"
     inkscape:window-x="0"
     inkscape:window-y="25"
     inkscape:window-maximized="1"
     inkscape:current-layer="Layer_1" /><rect
     style="fill:#f44c3b;fill-opacity:1;stroke:none"
     id="rect4468"
     width="454.19028"
     height="454.19028"
     x="27.366377"
     y="32.47047"
     ry="135.36653" /><path
     style="fill:#ffffff;fill-opacity:1"
     inkscape:connector-curvature="0"
     d="m 254.20889,107.77972 c -83.82211,0 -151.75573,67.96383 -151.75573,151.7859 l 0,0 c 0,81.40557 64.09744,147.82889 144.5667,151.60466 l 0,0 c 2.41644,0.12082 4.80269,0.18123 7.21923,0.18123 l 0,0 c 38.87524,0 74.30712,-14.61977 101.16043,-38.63365 l 0,0 c -17.79142,11.81059 -38.60348,18.57678 -60.83517,18.57678 l 0,0 c -36.15684,0 -68.50762,-17.94246 -90.28619,-46.21542 l 0,0 C 187.48354,325.29419 176.6093,295.99424 175.88434,263.12995 l 0,0 c 0,-0.0906 0,-7.06825 0,-7.15886 l 0,0 c 0.72496,-32.83409 11.5992,-62.13406 28.36352,-81.94928 l 0,0 c 21.77868,-28.27295 54.15965,-46.1852 90.31649,-46.1852 l 0,0 c 22.23169,0 43.04375,6.79637 60.83517,18.60699 l 0,0 C 328.66699,122.52031 293.44666,107.93075 254.78279,107.77972 l 0,0 c -0.18127,0 -0.39273,0 -0.5739,0 z"
     id="path3568" /><path
     style="fill:#ffffff;fill-opacity:1"
     inkscape:connector-curvature="0"
     d="m 211.75712,178.53821 c 13.46858,-15.56471 30.81468,-24.94934 49.79323,-24.94934 l 0,0 c 42.65083,0 77.2263,47.46673 77.2263,105.97755 l 0,0 c 0,58.53943 -34.57547,105.97754 -77.2263,105.97754 l 0,0 c -18.97855,0 -36.32465,-9.38461 -49.76409,-24.94935 l 0,0 c 21.01938,26.78051 52.24218,43.77582 87.13824,43.77582 l 0,0 c 21.45663,0 41.54305,-6.43762 58.71415,-17.59616 l 0,0 c 29.96923,-26.35133 48.83122,-64.60512 48.83122,-107.20785 l 0,0 c 0,-42.57414 -18.86199,-80.85653 -48.86036,-107.17925 l 0,0 C 340.43832,141.20002 320.38113,134.791 298.9245,134.791 l 0,0 c -34.89606,0 -66.11886,16.99532 -87.13824,43.77583"
     id="path3570" /><g
     style="fill:#f44336;fill-opacity:0.94117647"
     id="g3423"
     transform="matrix(13.43537,-5.1989032,5.1989032,13.43537,5.843256,927.0231)" /><g
     style="fill:#f44336;fill-opacity:0.94117647"
     id="g3425"
     transform="matrix(13.43537,-5.1989032,5.1989032,13.43537,5.843256,927.0231)" /><g
     style="fill:#f44336;fill-opacity:0.94117647"
     id="g3427"
     transform="matrix(13.43537,-5.1989032,5.1989032,13.43537,5.843256,927.0231)" /><g
     style="fill:#f44336;fill-opacity:0.94117647"
     id="g3429"
     transform="matrix(13.43537,-5.1989032,5.1989032,13.43537,5.843256,927.0231)" /><g
     style="fill:#f44336;fill-opacity:0.94117647"
     id="g3431"
     transform="matrix(13.43537,-5.1989032,5.1989032,13.43537,5.843256,927.0231)" /><g
     style="fill:#f44336;fill-opacity:0.94117647"
     id="g3433"
     transform="matrix(13.43537,-5.1989032,5.1989032,13.43537,5.843256,927.0231)" /><g
     style="fill:#f44336;fill-opacity:0.94117647"
     id="g3435"
     transform="matrix(13.43537,-5.1989032,5.1989032,13.43537,5.843256,927.0231)" /><g
     style="fill:#f44336;fill-opacity:0.94117647"
     id="g3437"
     transform="matrix(13.43537,-5.1989032,5.1989032,13.43537,5.843256,927.0231)" /><g
     style="fill:#f44336;fill-opacity:0.94117647"
     id="g3439"
     transform="matrix(13.43537,-5.1989032,5.1989032,13.43537,5.843256,927.0231)" /><g
     style="fill:#f44336;fill-opacity:0.94117647"
     id="g3441"
     transform="matrix(13.43537,-5.1989032,5.1989032,13.43537,5.843256,927.0231)" /><g
     style="fill:#f44336;fill-opacity:0.94117647"
     id="g3443"
     transform="matrix(13.43537,-5.1989032,5.1989032,13.43537,5.843256,927.0231)" /><g
     style="fill:#f44336;fill-opacity:0.94117647"
     id="g3445"
     transform="matrix(13.43537,-5.1989032,5.1989032,13.43537,5.843256,927.0231)" /><g
     style="fill:#f44336;fill-opacity:0.94117647"
     id="g3447"
     transform="matrix(13.43537,-5.1989032,5.1989032,13.43537,5.843256,927.0231)" /><g
     style="fill:#f44336;fill-opacity:0.94117647"
     id="g3449"
     transform="matrix(13.43537,-5.1989032,5.1989032,13.43537,5.843256,927.0231)" /><g
     style="fill:#f44336;fill-opacity:0.94117647"
     id="g3451"
     transform="matrix(13.43537,-5.1989032,5.1989032,13.43537,5.843256,927.0231)" /></svg>