<?xml version="1.0" encoding="UTF-8" standalone="no"?>
<!-- Generator: Adobe Illustrator 13.0.0, SVG Export Plug-In . SVG Version: 6.00 Build 14948)  -->

<svg
   xmlns:dc="http://purl.org/dc/elements/1.1/"
   xmlns:cc="http://creativecommons.org/ns#"
   xmlns:rdf="http://www.w3.org/1999/02/22-rdf-syntax-ns#"
   xmlns:svg="http://www.w3.org/2000/svg"
   xmlns="http://www.w3.org/2000/svg"
   xmlns:xlink="http://www.w3.org/1999/xlink"
   xmlns:sodipodi="http://sodipodi.sourceforge.net/DTD/sodipodi-0.dtd"
   xmlns:inkscape="http://www.inkscape.org/namespaces/inkscape"
   version="1.1"
   id="Layer_1"
   x="0px"
   y="0px"
   width="512"
   height="512"
   viewBox="0 0 512 512"
   enable-background="new 0 0 164 145"
   xml:space="preserve"
   inkscape:version="0.92.2 (5c3e80d, 2017-08-06)"
   sodipodi:docname="opera.svg"
   inkscape:export-filename="/home/cecilia/Descargas/iconos para oranchelo/opera-logo4.png"
   inkscape:export-xdpi="90"
   inkscape:export-ydpi="90"><metadata
     id="metadata11"><rdf:RDF><cc:Work
         rdf:about=""><dc:format>image/svg+xml</dc:format><dc:type
           rdf:resource="http://purl.org/dc/dcmitype/StillImage" /><dc:title /></cc:Work></rdf:RDF></metadata><defs
     id="defs9"><linearGradient
       inkscape:collect="always"
       id="linearGradient855"><stop
         style="stop-color:#000000;stop-opacity:1;"
         offset="0"
         id="stop851" /><stop
         style="stop-color:#000000;stop-opacity:0;"
         offset="1"
         id="stop853" /></linearGradient><linearGradient
       x1="0"
       y1="0"
       x2="1"
       y2="0"
       gradientUnits="userSpaceOnUse"
       gradientTransform="matrix(0,391.78292,-391.78292,0,-320.13116,66.186738)"
       spreadMethod="pad"
       id="gradiant1"><stop
         id="stop3553"
         style="stop-color:#ff1b2d;stop-opacity:1"
         offset="0" /><stop
         id="stop3555"
         style="stop-color:#ff1b2d;stop-opacity:1"
         offset="0.3" /><stop
         id="stop3557"
         style="stop-color:#ff1b2d;stop-opacity:1"
         offset="0.61" /><stop
         id="stop3559"
         style="stop-color:#a70014;stop-opacity:1"
         offset="1" /></linearGradient><linearGradient
       x1="0"
       y1="0"
       x2="1"
       y2="0"
       gradientUnits="userSpaceOnUse"
       gradientTransform="matrix(0,346.51282,-346.51282,0,-218.6279,89.278582)"
       spreadMethod="pad"
       id="gradiant2"><stop
         id="stop3562"
         style="stop-color:#9c0000;stop-opacity:1"
         offset="0" /><stop
         id="stop3564"
         style="stop-color:#ff4b4b;stop-opacity:1"
         offset="0.7" /><stop
         id="stop3566"
         style="stop-color:#ff4b4b;stop-opacity:1"
         offset="1" /></linearGradient><linearGradient
       inkscape:collect="always"
       xlink:href="#linearGradient855"
       id="linearGradient857"
       x1="-65.663185"
       y1="-14.204841"
       x2="462.57248"
       y2="417.27426"
       gradientUnits="userSpaceOnUse" /><clipPath
       clipPathUnits="userSpaceOnUse"
       id="clipPath861"><circle
         style="fill:#fa3f2d;fill-opacity:1;stroke-width:1.04733729"
         r="233.5529"
         cy="273.16907"
         cx="252.02599"
         id="circle863" /></clipPath></defs><sodipodi:namedview
     pagecolor="#ffffff"
     bordercolor="#666666"
     borderopacity="1"
     objecttolerance="10"
     gridtolerance="10"
     guidetolerance="10"
     inkscape:pageopacity="0"
     inkscape:pageshadow="2"
     inkscape:window-width="1360"
     inkscape:window-height="717"
     id="namedview7"
     showgrid="false"
     showguides="false"
     inkscape:zoom="0.18946457"
     inkscape:cx="70.628863"
     inkscape:cy="137.33586"
     inkscape:window-x="0"
     inkscape:window-y="25"
     inkscape:window-maximized="1"
     inkscape:current-layer="Layer_1" /><circle
     id="path33"
     cx="252.02599"
     cy="273.16907"
     r="233.5529"
     style="stroke-width:1.04733729;fill:#fa3f2d;fill-opacity:1" /><path
     inkscape:connector-curvature="0"
     id="path849"
     d="M 442.7799,537.35904 179.45308,385.32724 c 0.46154,-65.49385 -58.12207,-100.11959 8.23333,-202.82779 38.26118,-28.59982 79.73959,-39.50487 125.03697,-29.4056 l 263.32682,152.0318 z"
     style="fill:url(#linearGradient857);stroke:none;stroke-width:1px;stroke-linecap:butt;stroke-linejoin:miter;stroke-opacity:1;fill-opacity:1"
     sodipodi:nodetypes="cccccc"
     clip-path="url(#clipPath861)" /><g
     id="g845"
     transform="translate(4.1871557,-6.1891726)"><path
       id="path3568"
       d="m 247.61476,144.72595 c -74.34922,0 -134.60554,60.28311 -134.60554,134.63229 v 0 c 0,72.20578 56.85367,131.12248 128.22895,134.47154 v 0 c 2.14336,0.10717 4.25993,0.16075 6.40337,0.16075 v 0 c 34.48188,0 65.90954,-12.96756 89.72811,-34.26759 v 0 c -15.78078,10.47585 -34.24083,16.47738 -53.96008,16.47738 v 0 c -32.07069,0 -60.76545,-15.91475 -80.08278,-40.99253 v 0 C 188.43016,337.65871 178.78484,311.67 178.14181,282.51976 v 0 c 0,-0.0804 0,-6.26945 0,-6.34982 v 0 c 0.64303,-29.12345 10.28835,-55.11218 25.1581,-72.68804 v 0 c 19.31744,-25.07778 48.03897,-40.96573 80.10966,-40.96573 v 0 c 19.71925,0 38.1793,6.0283 53.96008,16.50418 v 0 c -23.71144,-21.21968 -54.95146,-34.16044 -89.24585,-34.2944 v 0 c -0.16079,0 -0.34835,0 -0.50904,0 z"
       inkscape:connector-curvature="0"
       style="fill:#ffffff;fill-opacity:1;stroke-width:0.88698816" /><path
       id="path3570"
       d="m 209.96054,207.48789 c 11.94647,-13.80571 27.33226,-22.12977 44.166,-22.12977 v 0 c 37.83079,0 68.49882,42.10243 68.49882,94.00083 v 0 c 0,51.92378 -30.66803,94.00083 -68.49882,94.00083 v 0 c -16.83374,0 -32.21953,-8.32404 -44.14015,-22.12978 v 0 c 18.64394,23.75399 46.33819,38.82863 77.29058,38.82863 v 0 c 19.03178,0 36.8482,-5.71009 52.07876,-15.60758 v 0 c 26.58235,-23.37332 43.31271,-57.30398 43.31271,-95.0921 v 0 c 0,-37.76276 -16.73036,-71.71878 -43.33856,-95.06672 v 0 c -15.23064,-9.92287 -33.02113,-15.6076 -52.05291,-15.6076 v 0 c -30.95239,0 -58.64664,15.07465 -77.29058,38.82864"
       inkscape:connector-curvature="0"
       style="fill:#ffffff;fill-opacity:1;stroke-width:0.88698816" /></g><g
     style="fill:#f44336;fill-opacity:0.94117647"
     id="g3423"
     transform="matrix(13.43537,-5.1989032,5.1989032,13.43537,5.843256,927.0231)" /><g
     style="fill:#f44336;fill-opacity:0.94117647"
     id="g3425"
     transform="matrix(13.43537,-5.1989032,5.1989032,13.43537,5.843256,927.0231)" /><g
     style="fill:#f44336;fill-opacity:0.94117647"
     id="g3427"
     transform="matrix(13.43537,-5.1989032,5.1989032,13.43537,5.843256,927.0231)" /><g
     style="fill:#f44336;fill-opacity:0.94117647"
     id="g3429"
     transform="matrix(13.43537,-5.1989032,5.1989032,13.43537,5.843256,927.0231)" /><g
     style="fill:#f44336;fill-opacity:0.94117647"
     id="g3431"
     transform="matrix(13.43537,-5.1989032,5.1989032,13.43537,5.843256,927.0231)" /><g
     style="fill:#f44336;fill-opacity:0.94117647"
     id="g3433"
     transform="matrix(13.43537,-5.1989032,5.1989032,13.43537,5.843256,927.0231)" /><g
     style="fill:#f44336;fill-opacity:0.94117647"
     id="g3435"
     transform="matrix(13.43537,-5.1989032,5.1989032,13.43537,5.843256,927.0231)" /><g
     style="fill:#f44336;fill-opacity:0.94117647"
     id="g3437"
     transform="matrix(13.43537,-5.1989032,5.1989032,13.43537,5.843256,927.0231)" /><g
     style="fill:#f44336;fill-opacity:0.94117647"
     id="g3439"
     transform="matrix(13.43537,-5.1989032,5.1989032,13.43537,5.843256,927.0231)" /><g
     style="fill:#f44336;fill-opacity:0.94117647"
     id="g3441"
     transform="matrix(13.43537,-5.1989032,5.1989032,13.43537,5.843256,927.0231)" /><g
     style="fill:#f44336;fill-opacity:0.94117647"
     id="g3443"
     transform="matrix(13.43537,-5.1989032,5.1989032,13.43537,5.843256,927.0231)" /><g
     style="fill:#f44336;fill-opacity:0.94117647"
     id="g3445"
     transform="matrix(13.43537,-5.1989032,5.1989032,13.43537,5.843256,927.0231)" /><g
     style="fill:#f44336;fill-opacity:0.94117647"
     id="g3447"
     transform="matrix(13.43537,-5.1989032,5.1989032,13.43537,5.843256,927.0231)" /><g
     style="fill:#f44336;fill-opacity:0.94117647"
     id="g3449"
     transform="matrix(13.43537,-5.1989032,5.1989032,13.43537,5.843256,927.0231)" /><g
     style="fill:#f44336;fill-opacity:0.94117647"
     id="g3451"
     transform="matrix(13.43537,-5.1989032,5.1989032,13.43537,5.843256,927.0231)" /></svg>