<?xml version="1.0" encoding="UTF-8" standalone="no"?>
<!-- Generator: Adobe Illustrator 13.0.0, SVG Export Plug-In . SVG Version: 6.00 Build 14948)  -->

<svg
   xmlns:osb="http://www.openswatchbook.org/uri/2009/osb"
   xmlns:dc="http://purl.org/dc/elements/1.1/"
   xmlns:cc="http://creativecommons.org/ns#"
   xmlns:rdf="http://www.w3.org/1999/02/22-rdf-syntax-ns#"
   xmlns:svg="http://www.w3.org/2000/svg"
   xmlns="http://www.w3.org/2000/svg"
   xmlns:xlink="http://www.w3.org/1999/xlink"
   xmlns:sodipodi="http://sodipodi.sourceforge.net/DTD/sodipodi-0.dtd"
   xmlns:inkscape="http://www.inkscape.org/namespaces/inkscape"
   version="1.1"
   id="Layer_1"
   x="0px"
   y="0px"
   width="512"
   height="512"
   viewBox="0 0 512 512"
   enable-background="new 0 0 164 145"
   xml:space="preserve"
   inkscape:version="0.92.2pre0 (973e216, 2017-07-25)"
   sodipodi:docname="opera-beta.svg"
   inkscape:export-filename="/home/cecilia/Descargas/iconos para oranchelo/opera-logo4.png"
   inkscape:export-xdpi="90"
   inkscape:export-ydpi="90"><metadata
     id="metadata11"><rdf:RDF><cc:Work
         rdf:about=""><dc:format>image/svg+xml</dc:format><dc:type
           rdf:resource="http://purl.org/dc/dcmitype/StillImage" /><dc:title></dc:title></cc:Work></rdf:RDF></metadata><defs
     id="defs9"><linearGradient
       inkscape:collect="always"
       id="linearGradient855"><stop
         style="stop-color:#000000;stop-opacity:1;"
         offset="0"
         id="stop851" /><stop
         style="stop-color:#000000;stop-opacity:0;"
         offset="1"
         id="stop853" /></linearGradient><linearGradient
       x1="0"
       y1="0"
       x2="1"
       y2="0"
       gradientUnits="userSpaceOnUse"
       gradientTransform="matrix(0,391.78292,-391.78292,0,-320.13116,66.186738)"
       spreadMethod="pad"
       id="gradiant1"><stop
         id="stop3553"
         style="stop-color:#ff1b2d;stop-opacity:1"
         offset="0" /><stop
         id="stop3555"
         style="stop-color:#ff1b2d;stop-opacity:1"
         offset="0.3" /><stop
         id="stop3557"
         style="stop-color:#ff1b2d;stop-opacity:1"
         offset="0.61" /><stop
         id="stop3559"
         style="stop-color:#a70014;stop-opacity:1"
         offset="1" /></linearGradient><linearGradient
       x1="0"
       y1="0"
       x2="1"
       y2="0"
       gradientUnits="userSpaceOnUse"
       gradientTransform="matrix(0,346.51282,-346.51282,0,-218.6279,89.278582)"
       spreadMethod="pad"
       id="gradiant2"><stop
         id="stop3562"
         style="stop-color:#9c0000;stop-opacity:1"
         offset="0" /><stop
         id="stop3564"
         style="stop-color:#ff4b4b;stop-opacity:1"
         offset="0.7" /><stop
         id="stop3566"
         style="stop-color:#ff4b4b;stop-opacity:1"
         offset="1" /></linearGradient><linearGradient
       inkscape:collect="always"
       xlink:href="#linearGradient855"
       id="linearGradient857"
       x1="-65.663185"
       y1="-14.204841"
       x2="462.57248"
       y2="417.27426"
       gradientUnits="userSpaceOnUse" /><clipPath
       clipPathUnits="userSpaceOnUse"
       id="clipPath861"><circle
         style="fill:#fa3f2d;fill-opacity:1;stroke-width:1.04733729"
         r="233.5529"
         cy="273.16907"
         cx="252.02599"
         id="circle863" /></clipPath><linearGradient
       osb:paint="solid"
       id="linearGradient5207"><stop
         id="stop5209"
         offset="0"
         style="stop-color:#000015;stop-opacity:1;" /></linearGradient><clipPath
       id="clipPath903"
       clipPathUnits="userSpaceOnUse"><rect
         style="fill:#535d6c;fill-opacity:1;fill-rule:evenodd;stroke:none;stroke-width:19.39234924;stroke-linecap:butt;stroke-linejoin:round;stroke-miterlimit:4;stroke-dasharray:none;stroke-opacity:1"
         id="rect905"
         width="487.42514"
         height="375.14398"
         x="13.821488"
         y="-364.23138"
         ry="19.956167" /></clipPath></defs><sodipodi:namedview
     pagecolor="#ffffff"
     bordercolor="#666666"
     borderopacity="1"
     objecttolerance="10"
     gridtolerance="10"
     guidetolerance="10"
     inkscape:pageopacity="0"
     inkscape:pageshadow="2"
     inkscape:window-width="1360"
     inkscape:window-height="740"
     id="namedview7"
     showgrid="false"
     showguides="false"
     inkscape:zoom="0.75785828"
     inkscape:cx="541.23053"
     inkscape:cy="42.62882"
     inkscape:window-x="0"
     inkscape:window-y="0"
     inkscape:window-maximized="1"
     inkscape:current-layer="Layer_1" /><circle
     id="path33"
     cx="252.02599"
     cy="273.16907"
     r="233.5529"
     style="stroke-width:1.04733729;fill:#fa3f2d;fill-opacity:1" /><path
     inkscape:connector-curvature="0"
     id="path849"
     d="M 442.7799,537.35904 179.45308,385.32724 c 0.46154,-65.49385 -58.12207,-100.11959 8.23333,-202.82779 38.26118,-28.59982 79.73959,-39.50487 125.03697,-29.4056 l 263.32682,152.0318 z"
     style="fill:url(#linearGradient857);stroke:none;stroke-width:1px;stroke-linecap:butt;stroke-linejoin:miter;stroke-opacity:1;fill-opacity:1"
     sodipodi:nodetypes="cccccc"
     clip-path="url(#clipPath861)" /><g
     id="g845"
     transform="translate(4.1871557,-6.1891726)"><path
       id="path3568"
       d="m 247.61476,144.72595 c -74.34922,0 -134.60554,60.28311 -134.60554,134.63229 v 0 c 0,72.20578 56.85367,131.12248 128.22895,134.47154 v 0 c 2.14336,0.10717 4.25993,0.16075 6.40337,0.16075 v 0 c 34.48188,0 65.90954,-12.96756 89.72811,-34.26759 v 0 c -15.78078,10.47585 -34.24083,16.47738 -53.96008,16.47738 v 0 c -32.07069,0 -60.76545,-15.91475 -80.08278,-40.99253 v 0 C 188.43016,337.65871 178.78484,311.67 178.14181,282.51976 v 0 c 0,-0.0804 0,-6.26945 0,-6.34982 v 0 c 0.64303,-29.12345 10.28835,-55.11218 25.1581,-72.68804 v 0 c 19.31744,-25.07778 48.03897,-40.96573 80.10966,-40.96573 v 0 c 19.71925,0 38.1793,6.0283 53.96008,16.50418 v 0 c -23.71144,-21.21968 -54.95146,-34.16044 -89.24585,-34.2944 v 0 c -0.16079,0 -0.34835,0 -0.50904,0 z"
       inkscape:connector-curvature="0"
       style="fill:#ffffff;fill-opacity:1;stroke-width:0.88698816" /><path
       id="path3570"
       d="m 209.96054,207.48789 c 11.94647,-13.80571 27.33226,-22.12977 44.166,-22.12977 v 0 c 37.83079,0 68.49882,42.10243 68.49882,94.00083 v 0 c 0,51.92378 -30.66803,94.00083 -68.49882,94.00083 v 0 c -16.83374,0 -32.21953,-8.32404 -44.14015,-22.12978 v 0 c 18.64394,23.75399 46.33819,38.82863 77.29058,38.82863 v 0 c 19.03178,0 36.8482,-5.71009 52.07876,-15.60758 v 0 c 26.58235,-23.37332 43.31271,-57.30398 43.31271,-95.0921 v 0 c 0,-37.76276 -16.73036,-71.71878 -43.33856,-95.06672 v 0 c -15.23064,-9.92287 -33.02113,-15.6076 -52.05291,-15.6076 v 0 c -30.95239,0 -58.64664,15.07465 -77.29058,38.82864"
       inkscape:connector-curvature="0"
       style="fill:#ffffff;fill-opacity:1;stroke-width:0.88698816" /></g><g
     style="fill:#f44336;fill-opacity:0.94117647"
     id="g3423"
     transform="matrix(13.43537,-5.1989032,5.1989032,13.43537,5.843256,927.0231)" /><g
     style="fill:#f44336;fill-opacity:0.94117647"
     id="g3425"
     transform="matrix(13.43537,-5.1989032,5.1989032,13.43537,5.843256,927.0231)" /><g
     style="fill:#f44336;fill-opacity:0.94117647"
     id="g3427"
     transform="matrix(13.43537,-5.1989032,5.1989032,13.43537,5.843256,927.0231)" /><g
     style="fill:#f44336;fill-opacity:0.94117647"
     id="g3429"
     transform="matrix(13.43537,-5.1989032,5.1989032,13.43537,5.843256,927.0231)" /><g
     style="fill:#f44336;fill-opacity:0.94117647"
     id="g3431"
     transform="matrix(13.43537,-5.1989032,5.1989032,13.43537,5.843256,927.0231)" /><g
     style="fill:#f44336;fill-opacity:0.94117647"
     id="g3433"
     transform="matrix(13.43537,-5.1989032,5.1989032,13.43537,5.843256,927.0231)" /><g
     style="fill:#f44336;fill-opacity:0.94117647"
     id="g3435"
     transform="matrix(13.43537,-5.1989032,5.1989032,13.43537,5.843256,927.0231)" /><g
     style="fill:#f44336;fill-opacity:0.94117647"
     id="g3437"
     transform="matrix(13.43537,-5.1989032,5.1989032,13.43537,5.843256,927.0231)" /><g
     style="fill:#f44336;fill-opacity:0.94117647"
     id="g3439"
     transform="matrix(13.43537,-5.1989032,5.1989032,13.43537,5.843256,927.0231)" /><g
     style="fill:#f44336;fill-opacity:0.94117647"
     id="g3441"
     transform="matrix(13.43537,-5.1989032,5.1989032,13.43537,5.843256,927.0231)" /><g
     style="fill:#f44336;fill-opacity:0.94117647"
     id="g3443"
     transform="matrix(13.43537,-5.1989032,5.1989032,13.43537,5.843256,927.0231)" /><g
     style="fill:#f44336;fill-opacity:0.94117647"
     id="g3445"
     transform="matrix(13.43537,-5.1989032,5.1989032,13.43537,5.843256,927.0231)" /><g
     style="fill:#f44336;fill-opacity:0.94117647"
     id="g3447"
     transform="matrix(13.43537,-5.1989032,5.1989032,13.43537,5.843256,927.0231)" /><g
     style="fill:#f44336;fill-opacity:0.94117647"
     id="g3449"
     transform="matrix(13.43537,-5.1989032,5.1989032,13.43537,5.843256,927.0231)" /><g
     style="fill:#f44336;fill-opacity:0.94117647"
     id="g3451"
     transform="matrix(13.43537,-5.1989032,5.1989032,13.43537,5.843256,927.0231)" /><text
     xml:space="preserve"
     style="font-style:normal;font-weight:normal;font-size:40px;line-height:1.25;font-family:sans-serif;letter-spacing:0px;word-spacing:0px;fill:#000000;fill-opacity:1;stroke:none"
     x="1646.5804"
     y="299.75793"
     id="text819"><tspan
       sodipodi:role="line"
       id="tspan817"
       x="1646.5804"
       y="336.53876"
       style="letter-spacing:0.00000005px" /></text>
<path
     inkscape:connector-curvature="0"
     style="fill:#252525;fill-opacity:1"
     d="m 406.78948,312.74466 a 98.711868,98.711868 0 0 0 -51.4375,14.56054 l -45.1054,-14.01953 14.6601,43.10742 a 98.711868,98.711868 0 0 0 -16.8281,55.0625 98.711868,98.711868 0 0 0 98.7109,98.7129 98.711868,98.711868 0 0 0 98.7129,-98.7129 98.711868,98.711868 0 0 0 -98.7129,-98.71093 z"
     id="path29" /><g
     id="layer1"
     transform="matrix(0.47099009,0,0,0.47099009,201.72285,61.013952)"
     style="fill:#ffffff;fill-opacity:1"><path
       style="font-style:normal;font-weight:normal;font-size:400px;font-family:'Times New Roman';text-align:start;text-anchor:start;fill:#ffffff;fill-opacity:1;stroke:none;stroke-width:1px;stroke-linecap:butt;stroke-linejoin:miter;stroke-opacity:1"
       id="text5540"
       d="m 402.72333,925.91455 h -32.22656 c 4.68747,-22.00527 7.03122,-41.92713 7.03125,-59.76562 V 653.45361 c -3e-5,-22.1352 1.95309,-38.60654 5.85937,-49.41406 4.03642,-10.80704 11.78381,-20.31224 23.24219,-28.51562 11.58847,-8.33306 26.04158,-12.49973 43.35937,-12.5 20.5728,2.7e-4 37.82538,5.46902 51.75782,16.40625 14.06233,10.80754 21.09357,26.23721 21.09375,46.28906 -1.8e-4,23.43769 -11.13298,42.6434 -33.39844,57.61719 33.20295,15.62514 49.80449,40.16938 49.80469,73.63281 -2e-4,18.22923 -4.42727,34.57036 -13.28125,49.02344 -8.72413,14.32293 -18.88037,24.54428 -30.46875,30.66406 -11.45847,6.11979 -25.19544,9.17968 -41.21094,9.17969 -18.22926,-10e-6 -33.07299,-6.83594 -44.53125,-20.50782 v 36.32813 c -6e-5,24.99995 -2.34381,46.4192 -7.03125,64.25781 m 7.03125,-118.16406 c 10.15618,16.79689 24.34887,25.19532 42.57812,25.19531 17.57801,1e-5 30.46862,-6.38019 38.67188,-19.14062 8.20297,-12.89059 12.30453,-28.51557 12.30469,-46.875 -1.6e-4,-14.06242 -2.73453,-28.38532 -8.20313,-42.96875 -5.33868,-14.71341 -12.23972,-25.91132 -20.70312,-33.59375 -7.81262,1.95327 -14.84387,2.92983 -21.09375,2.92968 -13.15114,1.5e-4 -19.72665,-3.45037 -19.72657,-10.35156 -8e-5,-6.24984 5.53377,-9.37483 16.60157,-9.375 6.90093,1.7e-4 15.49467,1.56267 25.78125,4.6875 9.24465,-15.62482 13.86704,-32.61699 13.86718,-50.97656 -1.4e-4,-16.40602 -3.64597,-28.97111 -10.9375,-37.69531 -7.16158,-8.7237 -16.53657,-13.08568 -28.125,-13.08594 -9.24488,2.6e-4 -17.18758,2.60443 -23.82812,7.8125 -6.51049,5.20858 -11.00267,11.45858 -13.47656,18.75 -2.47403,7.16169 -3.711,18.94553 -3.71094,35.35156 v 169.33594"
       inkscape:connector-curvature="0" /></g></svg>