<?xml version="1.0" encoding="UTF-8" standalone="no"?>
<!-- Created with Inkscape (http://www.inkscape.org/) -->

<svg
   xmlns:dc="http://purl.org/dc/elements/1.1/"
   xmlns:cc="http://creativecommons.org/ns#"
   xmlns:rdf="http://www.w3.org/1999/02/22-rdf-syntax-ns#"
   xmlns:svg="http://www.w3.org/2000/svg"
   xmlns="http://www.w3.org/2000/svg"
   xmlns:xlink="http://www.w3.org/1999/xlink"
   xmlns:sodipodi="http://sodipodi.sourceforge.net/DTD/sodipodi-0.dtd"
   xmlns:inkscape="http://www.inkscape.org/namespaces/inkscape"
   width="512"
   height="512"
   id="svg2"
   version="1.1"
   inkscape:version="0.92.3 (2405546, 2018-03-11)"
   sodipodi:docname="parole.svg">
  <sodipodi:namedview
     id="base"
     pagecolor="#ffffff"
     bordercolor="#666666"
     borderopacity="1.0"
     inkscape:pageopacity="0.0"
     inkscape:pageshadow="2"
     inkscape:zoom="0.23795573"
     inkscape:cx="196.81475"
     inkscape:cy="102.20994"
     inkscape:document-units="px"
     inkscape:current-layer="layer1"
     showgrid="false"
     inkscape:window-width="1360"
     inkscape:window-height="716"
     inkscape:window-x="0"
     inkscape:window-y="24"
     inkscape:window-maximized="1" />
  <defs
     id="defs4">
    <linearGradient
       inkscape:collect="always"
       id="linearGradient1084">
      <stop
         style="stop-color:#000000;stop-opacity:1;"
         offset="0"
         id="stop1080" />
      <stop
         style="stop-color:#000000;stop-opacity:0;"
         offset="1"
         id="stop1082" />
    </linearGradient>
    <linearGradient
       id="linearGradient3808">
      <stop
         style="stop-color:#000000;stop-opacity:0.55555558;"
         offset="0"
         id="stop3810" />
      <stop
         style="stop-color:#000000;stop-opacity:0;"
         offset="1"
         id="stop3812" />
    </linearGradient>
    <linearGradient
       inkscape:collect="always"
       id="linearGradient3837">
      <stop
         style="stop-color:#7db257;stop-opacity:1;"
         offset="0"
         id="stop3839" />
      <stop
         style="stop-color:#7db257;stop-opacity:0;"
         offset="1"
         id="stop3841" />
    </linearGradient>
    <clipPath
       clipPathUnits="userSpaceOnUse"
       id="clipPath3847">
      <path
         transform="matrix(0.88586957,0,0,0.88586957,-24.010886,495.98978)"
         d="m 582.65601,342.29437 a 260.2153,260.2153 0 1 1 -520.430607,0 260.2153,260.2153 0 1 1 520.430607,0 z"
         sodipodi:ry="260.2153"
         sodipodi:rx="260.2153"
         sodipodi:cy="342.29437"
         sodipodi:cx="322.4407"
         id="path3849"
         style="fill:url(#linearGradient3851);fill-opacity:1;fill-rule:evenodd;stroke:none"
         sodipodi:type="arc" />
    </clipPath>
    <linearGradient
       inkscape:collect="always"
       xlink:href="#linearGradient3837"
       id="linearGradient3851"
       gradientUnits="userSpaceOnUse"
       x1="502.83536"
       y1="546.63525"
       x2="316.05505"
       y2="356.66208" />
    <linearGradient
       inkscape:collect="always"
       xlink:href="#linearGradient3808"
       id="linearGradient3814"
       x1="476"
       y1="-77.5"
       x2="1075"
       y2="432.5"
       gradientUnits="userSpaceOnUse" />
    <clipPath
       clipPathUnits="userSpaceOnUse"
       id="clipPath3819">
      <rect
         ry="43.133514"
         y="48.137951"
         x="630.73926"
         height="312.5412"
         width="505.70227"
         id="rect3821"
         style="color:#000000;fill:#ec5227;fill-opacity:1;fill-rule:evenodd;stroke:none;stroke-width:9.55799961;marker:none;visibility:visible;display:inline;overflow:visible;enable-background:accumulate" />
    </clipPath>
    <linearGradient
       inkscape:collect="always"
       xlink:href="#linearGradient1084"
       id="linearGradient1086"
       x1="-68.500008"
       y1="77.4552"
       x2="324.01367"
       y2="439.875"
       gradientUnits="userSpaceOnUse"
       gradientTransform="matrix(1.1055874,0,0,1.1055874,-24.596069,556.95383)" />
  </defs>
  <metadata
     id="metadata7">
    <rdf:RDF>
      <cc:Work
         rdf:about="">
        <dc:format>image/svg+xml</dc:format>
        <dc:type
           rdf:resource="http://purl.org/dc/dcmitype/StillImage" />
        <dc:title></dc:title>
      </cc:Work>
    </rdf:RDF>
  </metadata>
  <g
     transform="translate(0,-540.36218)"
     id="layer1"
     inkscape:groupmode="layer"
     inkscape:label="Capa 1">
    <rect
       style="color:#000000;display:inline;overflow:visible;visibility:visible;fill:#28624c;fill-opacity:1;fill-rule:evenodd;stroke:none;stroke-width:10.56720448;marker:none;enable-background:accumulate"
       id="rect3787"
       width="342.21301"
       height="82.793449"
       x="88.537109"
       y="919.08386"
       ry="0" />
    <rect
       style="color:#000000;display:inline;overflow:visible;visibility:visible;fill:#409e7b;fill-opacity:1;fill-rule:evenodd;stroke:none;stroke-width:10.56720448;marker:none;enable-background:accumulate"
       id="rect3015"
       width="493.42953"
       height="304.95624"
       x="12.928823"
       y="647.24506"
       ry="42.086723" />
    <rect
       style="color:#000000;display:inline;overflow:visible;visibility:visible;fill:#409e7b;fill-opacity:1;fill-rule:evenodd;stroke:none;stroke-width:9.32603931;marker:none;enable-background:accumulate"
       id="rect3017"
       width="379.47043"
       height="75.894081"
       x="69.908371"
       y="967.38013"
       ry="20.00844" />
    <rect
       style="color:#000000;display:inline;overflow:visible;visibility:visible;fill:#ffffff;fill-opacity:1;fill-rule:evenodd;stroke:none;stroke-width:9.32603931;marker:none;enable-background:accumulate"
       id="rect3789"
       width="331.17419"
       height="16.558708"
       x="94.056473"
       y="997.04785"
       ry="8.2793541" />
    <path
       style="fill:url(#linearGradient1086);fill-opacity:1;stroke:none;stroke-width:9.95028687;stroke-linecap:round;stroke-linejoin:round;stroke-miterlimit:4;stroke-dasharray:none;stroke-dashoffset:0.37795275;stroke-opacity:1;paint-order:fill markers stroke"
       d="m 124.60209,856.26141 c -10.71867,0 -19.34778,8.62911 -19.34778,19.34778 v 57.30699 c -0.79433,4.15597 0.27433,8.70732 3.78966,12.25 l 34.49779,34.73747 63.37046,63.37045 h 170.23239 l -181.35953,-181.35952 -0.0734,-0.0734 c -0.22255,-0.22017 -0.46445,-0.41919 -0.69748,-0.62837 -0.21269,-0.19091 -0.41592,-0.3908 -0.637,-0.57223 -0.24835,-0.20382 -0.51453,-0.38512 -0.77305,-0.57654 -0.23818,-0.17635 -0.46829,-0.36357 -0.71475,-0.52905 -0.29834,-0.2003 -0.61429,-0.37547 -0.9242,-0.55927 -0.22028,-0.13063 -0.43059,-0.27529 -0.65644,-0.39732 -0.37516,-0.20272 -0.7677,-0.3768 -1.15742,-0.55494 -0.17918,-0.0819 -0.35125,-0.17611 -0.53335,-0.25265 -0.29986,-0.12606 -0.61247,-0.22567 -0.91989,-0.33686 -0.29012,-0.10493 -0.57373,-0.22396 -0.87021,-0.31526 -0.003,-8.8e-4 -0.006,-10e-4 -0.009,-0.002 -0.59442,-0.18275 -1.2005,-0.33851 -1.81817,-0.46426 0,0 -0.002,0 -0.002,0 -0.63034,-0.12826 -1.27256,-0.22577 -1.92397,-0.29151 -0.65185,-0.0658 -1.31255,-0.0993 -1.98229,-0.0993 z"
       id="path978"
       inkscape:connector-curvature="0" />
    <path
       style="opacity:1;fill:#ffffff;fill-opacity:1;stroke:none;stroke-width:9.95028687;stroke-linecap:round;stroke-linejoin:round;stroke-miterlimit:4;stroke-dasharray:none;stroke-dashoffset:0.37795275;stroke-opacity:1;paint-order:fill markers stroke"
       d="m 124.60177,856.26044 c -10.71867,0 -19.34778,8.62911 -19.34778,19.34778 v 57.307 c -0.79433,4.15597 0.27433,8.70732 3.78966,12.25 l 34.49779,34.73747 c 5.40488,5.44103 14.20633,5.44103 19.61122,0 l 34.49779,-34.73747 c 3.51532,-3.54268 4.58398,-8.09406 3.78965,-12.25 v -57.307 c 0,-10.71867 -8.62911,-19.34778 -19.34778,-19.34778 z"
       id="rect834"
       inkscape:connector-curvature="0" />
  </g>
</svg>
