<?xml version="1.0" encoding="UTF-8" standalone="no"?>
<!-- Created with Inkscape (http://www.inkscape.org/) -->

<svg
   xmlns:dc="http://purl.org/dc/elements/1.1/"
   xmlns:cc="http://creativecommons.org/ns#"
   xmlns:rdf="http://www.w3.org/1999/02/22-rdf-syntax-ns#"
   xmlns:svg="http://www.w3.org/2000/svg"
   xmlns="http://www.w3.org/2000/svg"
   xmlns:sodipodi="http://sodipodi.sourceforge.net/DTD/sodipodi-0.dtd"
   xmlns:inkscape="http://www.inkscape.org/namespaces/inkscape"
   width="512"
   height="512"
   id="svg2"
   version="1.1"
   inkscape:version="0.48.4 r9939"
   sodipodi:docname="parole16.svg"
   inkscape:export-filename="/home/silerio/Imágenes/iconos/parole15.png"
   inkscape:export-xdpi="90"
   inkscape:export-ydpi="90">
  <defs
     id="defs4">
    <clipPath
       clipPathUnits="userSpaceOnUse"
       id="clipPath3798">
      <path
         inkscape:transform-center-y="-18.91538"
         inkscape:transform-center-x="0.00080113333"
         transform="matrix(0.88583666,-0.26797173,-0.26797173,-0.88583666,207.62639,-671.43559)"
         d="M 290.9603,325.82999 50.117685,398.69003 -93.600798,192.15008 58.418913,-8.3586698 296.09074,74.260054 z"
         inkscape:randomized="0"
         inkscape:rounded="0"
         inkscape:flatsided="true"
         sodipodi:arg2="1.2770279"
         sodipodi:arg1="0.6487094"
         sodipodi:r2="173.16415"
         sodipodi:r1="214.04266"
         sodipodi:cy="196.5143"
         sodipodi:cx="120.39737"
         sodipodi:sides="5"
         id="path3800"
         style="color:#000000;fill:#d1c452;fill-opacity:1;fill-rule:evenodd;stroke:#d1c452;stroke-width:16;stroke-linecap:round;stroke-linejoin:round;stroke-miterlimit:4;stroke-opacity:1;stroke-dasharray:none;stroke-dashoffset:0;marker:none;visibility:visible;display:inline;overflow:visible;enable-background:accumulate"
         sodipodi:type="star" />
    </clipPath>
  </defs>
  <sodipodi:namedview
     id="base"
     pagecolor="#ffffff"
     bordercolor="#666666"
     borderopacity="1.0"
     inkscape:pageopacity="0.0"
     inkscape:pageshadow="2"
     inkscape:zoom="0.63429571"
     inkscape:cx="153.372"
     inkscape:cy="346.03809"
     inkscape:document-units="px"
     inkscape:current-layer="layer1"
     showgrid="false"
     inkscape:window-width="1360"
     inkscape:window-height="714"
     inkscape:window-x="0"
     inkscape:window-y="25"
     inkscape:window-maximized="1" />
  <metadata
     id="metadata7">
    <rdf:RDF>
      <cc:Work
         rdf:about="">
        <dc:format>image/svg+xml</dc:format>
        <dc:type
           rdf:resource="http://purl.org/dc/dcmitype/StillImage" />
        <dc:title />
      </cc:Work>
    </rdf:RDF>
  </metadata>
  <g
     inkscape:label="Capa 1"
     inkscape:groupmode="layer"
     id="layer1"
     transform="translate(0,-540.36218)">
    <g
       id="g3790"
       transform="matrix(0.97659485,0,0,0.86033031,876.0127,292.82251)">
      <path
         style="color:#000000;fill:#ff9ed3;fill-opacity:1;fill-rule:evenodd;stroke:none;stroke-width:161.89599609;marker:none;visibility:visible;display:inline;overflow:visible;enable-background:accumulate"
         d="m -883.13953,502.1456 124.99875,0 0,195.49243 -124.99875,0 z"
         id="rect3770"
         inkscape:connector-curvature="0" />
      <rect
         style="color:#000000;fill:#ffc6a0;fill-opacity:1;fill-rule:evenodd;stroke:none;stroke-width:161.89599609;marker:none;visibility:visible;display:inline;overflow:visible;enable-background:accumulate"
         id="rect3772"
         width="124.99875"
         height="195.49243"
         x="-759.70325"
         y="502.1456"
         ry="0" />
      <rect
         ry="0"
         y="502.1456"
         x="-636.26691"
         height="195.49243"
         width="124.99875"
         id="rect3774"
         style="color:#000000;fill:#91d3ff;fill-opacity:1;fill-rule:evenodd;stroke:none;stroke-width:161.89599609;marker:none;visibility:visible;display:inline;overflow:visible;enable-background:accumulate" />
      <rect
         style="color:#000000;fill:#cfb3ff;fill-opacity:1;fill-rule:evenodd;stroke:none;stroke-width:161.89599609;marker:none;visibility:visible;display:inline;overflow:visible;enable-background:accumulate"
         id="rect3776"
         width="124.99875"
         height="195.49243"
         x="-512.83057"
         y="502.1456"
         ry="0" />
    </g>
    <path
       style="color:#000000;fill:#23365d;fill-opacity:1;fill-rule:evenodd;stroke:none;stroke-width:161.89599609;marker:none;visibility:visible;display:inline;overflow:visible;enable-background:accumulate"
       d="m 497.25825,892.90484 c 0,30.24206 -10.16599,57.53646 -26.64583,77.2703 -16.47984,19.73377 -39.27353,31.90706 -64.52894,31.90706 l -150.74314,0 -150.74315,0 c -25.255402,0 -48.049099,-12.17329 -64.528969,-31.90706 C 23.588351,950.4413 13.422406,923.1469 13.422406,892.90484 m 0,-166.86477 c 0,-30.24216 10.165945,-57.53651 26.645815,-77.27034 16.47987,-19.73382 39.273567,-31.90711 64.528969,-31.90711 l 150.74315,0 150.74314,0 c 25.25541,0 48.0491,12.17329 64.52894,31.90711 16.47984,19.73383 26.64583,47.02818 26.64583,77.27034"
       id="rect2999"
       inkscape:connector-curvature="0"
       sodipodi:nodetypes="csscssccsscssc" />
    <g
       transform="matrix(0.97659485,0,0,0.86033031,876.0127,292.82251)"
       id="g3799">
      <path
         inkscape:connector-curvature="0"
         id="path3801"
         d="m -883.13953,502.1456 124.99875,0 0,195.49243 -124.99875,0 z"
         style="color:#000000;fill:#ff9ed3;fill-opacity:1;fill-rule:evenodd;stroke:none;stroke-width:161.89599609;marker:none;visibility:visible;display:inline;overflow:visible;enable-background:accumulate" />
      <rect
         ry="0"
         y="502.1456"
         x="-759.70325"
         height="195.49243"
         width="124.99875"
         id="rect3803"
         style="color:#000000;fill:#ffc6a0;fill-opacity:1;fill-rule:evenodd;stroke:none;stroke-width:161.89599609;marker:none;visibility:visible;display:inline;overflow:visible;enable-background:accumulate" />
      <rect
         style="color:#000000;fill:#91d3ff;fill-opacity:1;fill-rule:evenodd;stroke:none;stroke-width:161.89599609;marker:none;visibility:visible;display:inline;overflow:visible;enable-background:accumulate"
         id="rect3805"
         width="124.99875"
         height="195.49243"
         x="-636.26691"
         y="502.1456"
         ry="0" />
      <rect
         ry="0"
         y="502.1456"
         x="-512.83057"
         height="195.49243"
         width="124.99875"
         id="rect3807"
         style="color:#000000;fill:#cfb3ff;fill-opacity:1;fill-rule:evenodd;stroke:none;stroke-width:161.89599609;marker:none;visibility:visible;display:inline;overflow:visible;enable-background:accumulate" />
    </g>
    <g
       transform="matrix(0.97659485,0,0,0.86033031,876.0127,292.82251)"
       id="g3813">
      <path
         inkscape:connector-curvature="0"
         id="path3815"
         d="m -883.13953,502.1456 124.99875,0 0,195.49243 -124.99875,0 z"
         style="color:#000000;fill:#ff9ed3;fill-opacity:1;fill-rule:evenodd;stroke:none;stroke-width:161.89599609;marker:none;visibility:visible;display:inline;overflow:visible;enable-background:accumulate" />
      <rect
         ry="0"
         y="502.1456"
         x="-759.70325"
         height="195.49243"
         width="124.99875"
         id="rect3817"
         style="color:#000000;fill:#ffc6a0;fill-opacity:1;fill-rule:evenodd;stroke:none;stroke-width:161.89599609;marker:none;visibility:visible;display:inline;overflow:visible;enable-background:accumulate" />
      <rect
         style="color:#000000;fill:#91d3ff;fill-opacity:1;fill-rule:evenodd;stroke:none;stroke-width:161.89599609;marker:none;visibility:visible;display:inline;overflow:visible;enable-background:accumulate"
         id="rect3819"
         width="124.99875"
         height="195.49243"
         x="-636.26691"
         y="502.1456"
         ry="0" />
      <rect
         ry="0"
         y="502.1456"
         x="-512.83057"
         height="195.49243"
         width="124.99875"
         id="rect3821"
         style="color:#000000;fill:#cfb3ff;fill-opacity:1;fill-rule:evenodd;stroke:none;stroke-width:161.89599609;marker:none;visibility:visible;display:inline;overflow:visible;enable-background:accumulate" />
    </g>
    <g
       id="g3827"
       transform="matrix(0.97659485,0,0,0.86033031,876.0127,292.82251)">
      <path
         style="color:#000000;fill:#ff9ed3;fill-opacity:1;fill-rule:evenodd;stroke:none;stroke-width:161.89599609;marker:none;visibility:visible;display:inline;overflow:visible;enable-background:accumulate"
         d="m -883.13953,502.1456 124.99875,0 0,195.49243 -124.99875,0 z"
         id="path3829"
         inkscape:connector-curvature="0" />
      <rect
         style="color:#000000;fill:#ffc6a0;fill-opacity:1;fill-rule:evenodd;stroke:none;stroke-width:161.89599609;marker:none;visibility:visible;display:inline;overflow:visible;enable-background:accumulate"
         id="rect3831"
         width="124.99875"
         height="195.49243"
         x="-759.70325"
         y="502.1456"
         ry="0" />
      <rect
         ry="0"
         y="502.1456"
         x="-636.26691"
         height="195.49243"
         width="124.99875"
         id="rect3833"
         style="color:#000000;fill:#91d3ff;fill-opacity:1;fill-rule:evenodd;stroke:none;stroke-width:161.89599609;marker:none;visibility:visible;display:inline;overflow:visible;enable-background:accumulate" />
      <rect
         style="color:#000000;fill:#cfb3ff;fill-opacity:1;fill-rule:evenodd;stroke:none;stroke-width:161.89599609;marker:none;visibility:visible;display:inline;overflow:visible;enable-background:accumulate"
         id="rect3835"
         width="124.99875"
         height="195.49243"
         x="-512.83057"
         y="502.1456"
         ry="0" />
    </g>
    <path
       style="color:#000000;fill:#000000;fill-opacity:0.18269228;fill-rule:evenodd;stroke:none;stroke-width:161.89599609;marker:none;visibility:visible;display:inline;overflow:visible;enable-background:accumulate"
       d="m 13.538684,720.41092 c -0.07861,1.866 -0.122172,3.72975 -0.122172,5.61989 l 0.122172,0 0,-5.61989 z M 497.24648,874.49981 c -0.0207,30.20525 -10.17035,57.43762 -26.6334,77.15135 -16.47984,19.73384 -39.28173,31.91733 -64.53714,31.91733 l -150.72917,0 -150.75972,0 c -25.255407,0 -48.026722,-12.18349 -64.506592,-31.91733 C 24.630582,933.15069 14.717893,908.01468 13.538684,880.02808 l 0,12.8891 -0.122172,0 c 0,30.24206 10.184076,57.50914 26.663946,77.24298 16.47987,19.73385 39.251185,31.91734 64.506592,31.91734 l 150.75972,0 150.72917,0 c 25.25541,0 48.0573,-12.18349 64.53714,-31.91734 16.46305,-19.71374 26.61271,-46.94611 26.6334,-77.15135 l 0,-0.0916 0,-18.41737 z"
       id="path4108"
       inkscape:connector-curvature="0" />
    <path
       style="font-size:medium;font-style:normal;font-variant:normal;font-weight:normal;font-stretch:normal;text-indent:0;text-align:start;text-decoration:none;line-height:normal;letter-spacing:normal;word-spacing:normal;text-transform:none;direction:ltr;block-progression:tb;writing-mode:lr-tb;text-anchor:start;baseline-shift:baseline;color:#000000;fill:#000000;fill-opacity:0.79500002;fill-rule:evenodd;stroke:none;stroke-width:16.28000069000000138;marker:none;visibility:visible;display:inline;overflow:visible;enable-background:accumulate;font-family:Sans;-inkscape-font-specification:Sans"
       d="m 207.09622,736.79153 c -2.25664,-0.0525 -4.51856,0.93388 -6.1327,2.67439 -1.61413,1.74052 -2.55964,4.21266 -2.56352,6.70269 l 0,123.56094 c 4.7e-4,3.27408 1.67862,6.48599 4.2465,8.12757 2.56787,1.64157 5.92839,1.65077 8.50361,0.0234 l 96.99883,-61.78048 c 2.5714,-1.6408 4.25238,-4.85573 4.25238,-8.1328 0,-3.27706 -1.68098,-6.49199 -4.25238,-8.13281 l -96.99883,-61.78047 c -1.22774,-0.78449 -2.63554,-1.22284 -4.05389,-1.2623 z"
       id="path3784"
       inkscape:connector-curvature="0"
       sodipodi:nodetypes="csccsccsccc" />
  </g>
</svg>
