<?xml version="1.0" encoding="UTF-8" standalone="no"?>
<!-- Created with Inkscape (http://www.inkscape.org/) -->

<svg
   xmlns:dc="http://purl.org/dc/elements/1.1/"
   xmlns:cc="http://creativecommons.org/ns#"
   xmlns:rdf="http://www.w3.org/1999/02/22-rdf-syntax-ns#"
   xmlns:svg="http://www.w3.org/2000/svg"
   xmlns="http://www.w3.org/2000/svg"
   xmlns:sodipodi="http://sodipodi.sourceforge.net/DTD/sodipodi-0.dtd"
   xmlns:inkscape="http://www.inkscape.org/namespaces/inkscape"
   id="svg2"
   version="1.1"
   inkscape:version="0.48.4 r9939"
   width="512"
   height="512"
   sodipodi:docname="justinkruit.app.donation-w250.png.2015_11_23_00_21_20.0.svg">
  <metadata
     id="metadata8">
    <rdf:RDF>
      <cc:Work
         rdf:about="">
        <dc:format>image/svg+xml</dc:format>
        <dc:type
           rdf:resource="http://purl.org/dc/dcmitype/StillImage" />
        <dc:title></dc:title>
      </cc:Work>
    </rdf:RDF>
  </metadata>
  <defs
     id="defs6">
    <clipPath
       clipPathUnits="userSpaceOnUse"
       id="clipPath3795">
      <path
         sodipodi:nodetypes="ssccccccss"
         inkscape:connector-curvature="0"
         id="path3797"
         d="m -114.08664,215.76774 c -11.72716,0 -21.21999,9.51501 -21.21999,21.24216 0,8.31146 4.77311,15.49363 11.72975,18.98047 l -6.20856,35.83229 c -0.36184,2.03713 1.43439,4.17442 3.5034,4.1686 l 24.43514,0 c 2.061606,-0.007 3.841776,-2.13875 3.481226,-4.1686 l -6.208566,-35.83229 c 6.950216,-3.48908 11.729751,-10.67373 11.729751,-18.98047 0,-11.72715 -9.515001,-21.24216 -21.242151,-21.24216 z"
         style="font-size:medium;font-style:normal;font-variant:normal;font-weight:normal;font-stretch:normal;text-indent:0;text-align:start;text-decoration:none;line-height:normal;letter-spacing:normal;word-spacing:normal;text-transform:none;direction:ltr;block-progression:tb;writing-mode:lr-tb;text-anchor:start;baseline-shift:baseline;color:#000000;fill:#653a17;fill-opacity:1;stroke:none;stroke-width:10;marker:none;visibility:visible;display:inline;overflow:visible;enable-background:accumulate;font-family:Sans;-inkscape-font-specification:Sans" />
    </clipPath>
  </defs>
  <sodipodi:namedview
     pagecolor="#ffffff"
     bordercolor="#666666"
     borderopacity="1"
     objecttolerance="10"
     gridtolerance="10"
     guidetolerance="10"
     inkscape:pageopacity="0"
     inkscape:pageshadow="2"
     inkscape:window-width="1360"
     inkscape:window-height="721"
     id="namedview4"
     showgrid="false"
     inkscape:zoom="0.3337544"
     inkscape:cx="-101.63287"
     inkscape:cy="-12.67127"
     inkscape:window-x="0"
     inkscape:window-y="25"
     inkscape:window-maximized="1"
     inkscape:current-layer="svg2" />
  <path
     style="fill:none;stroke:#434a5d;stroke-width:44.27592468;stroke-linecap:butt;stroke-linejoin:round;stroke-miterlimit:4;stroke-opacity:1;stroke-dasharray:none"
     d="m 153.19908,267.22639 0,-183.708363 c 76.09559,-28.296111 139.05064,-25.961864 216.22312,0 l 0,198.340023"
     id="path3786"
     inkscape:connector-curvature="0"
     sodipodi:nodetypes="cccc" />
  <rect
     style="color:#000000;fill:#ff915b;fill-opacity:1;fill-rule:evenodd;stroke:none;stroke-width:90;marker:none;visibility:visible;display:inline;overflow:visible;enable-background:accumulate"
     id="rect2987"
     width="365.11761"
     height="319.1348"
     x="77.462814"
     y="147.92195"
     ry="42.291199" />
  <path
     style="font-size:medium;font-style:normal;font-variant:normal;font-weight:normal;font-stretch:normal;text-indent:0;text-align:start;text-decoration:none;line-height:normal;letter-spacing:normal;word-spacing:normal;text-transform:none;direction:ltr;block-progression:tb;writing-mode:lr-tb;text-anchor:start;baseline-shift:baseline;color:#000000;fill:#434a5d;fill-opacity:1;stroke:none;stroke-width:10;marker:none;visibility:visible;display:inline;overflow:visible;enable-background:accumulate;font-family:Sans;-inkscape-font-specification:Sans"
     d="m 259.99757,220.43127 c -25.45249,0 -46.05562,20.65127 -46.05562,46.10375 0,18.03909 10.35951,33.6272 25.45811,41.19499 L 225.92507,385.5 c -0.78532,4.42136 3.11319,9.06011 7.60375,9.04748 l 53.03374,0 c 4.4745,-0.0152 8.33816,-4.64192 7.55563,-9.04748 l -13.47502,-77.76999 c 15.08468,-7.57266 25.45812,-23.16614 25.45812,-41.19499 0,-25.45248 -20.65125,-46.10375 -46.10372,-46.10375 z"
     id="path8"
     inkscape:connector-curvature="0"
     sodipodi:nodetypes="ssccccccss" />
  <path
     style="color:#000000;fill:#000000;fill-opacity:0.275;fill-rule:evenodd;stroke:none;stroke-width:90;marker:none;visibility:visible;display:inline;overflow:visible;enable-background:accumulate"
     d="m -172.29898,196.57577 c -9.72332,0 -17.53598,7.84082 -17.53598,17.56414 l 0,97.33457 c 0,9.72332 7.81266,17.56413 17.53598,17.56413 l 116.446829,0 c 9.723315,0 17.535985,-7.84081 17.535985,-17.56413 l 0,-97.33457 c 0,-9.72332 -7.81267,-17.56414 -17.535985,-17.56414 l -116.446829,0 z m 57.22418,30.11799 c 0.32596,-0.0165 0.65507,0 0.98516,0 10.56294,0 19.140403,8.54931 19.140403,19.11225 0,7.48209 -4.295136,13.97107 -10.555363,17.11377 l 5.57323,32.25721 c 0.32476,1.82833 -1.26745,3.76548 -3.12439,3.77178 l -22.01146,0 c -1.86361,0.006 -3.47845,-1.93689 -3.15254,-3.77178 l 5.60139,-32.25721 c -6.26602,-3.14068 -10.58352,-9.62743 -10.58352,-17.11377 0,-10.23285 8.02227,-18.59956 18.12709,-19.11225 z"
     id="rect3790"
     inkscape:connector-curvature="0"
     clip-path="url(#clipPath3795)"
     transform="matrix(2.1703885,0,0,2.1703885,507.60991,-247.86855)" />
  <path
     style="color:#000000;fill:#ffffff;fill-opacity:0.13366334;fill-rule:evenodd;stroke:none;stroke-width:90;marker:none;visibility:visible;display:inline;overflow:visible;enable-background:accumulate"
     d="m 119.72079,147.88823 c -23.429326,0 -42.25476,18.89325 -42.25476,42.32257 l 0,9.22416 c 0,-23.42932 18.825434,-42.32258 42.25476,-42.32258 l 280.59053,0 c 23.42933,0 42.25475,18.89326 42.25475,42.32258 l 0,-9.22416 c 0,-23.42932 -18.82542,-42.32257 -42.25475,-42.32257 l -280.59053,0 z"
     id="rect3799"
     inkscape:connector-curvature="0" />
  <path
     style="font-size:medium;font-style:normal;font-variant:normal;font-weight:normal;font-stretch:normal;text-indent:0;text-align:start;text-decoration:none;line-height:normal;letter-spacing:normal;word-spacing:normal;text-transform:none;direction:ltr;block-progression:tb;writing-mode:lr-tb;text-anchor:start;baseline-shift:baseline;color:#000000;fill:#ffffff;fill-opacity:0.07425741;stroke:none;stroke-width:10;marker:none;visibility:visible;display:inline;overflow:visible;enable-background:accumulate;font-family:Sans;-inkscape-font-specification:Sans"
     d="m 214.06486,269.36216 c -0.0605,0.96791 -0.13565,1.93332 -0.13565,2.91646 0,17.68134 10.0076,32.9674 24.62035,40.69479 l 0.88171,-5.22249 c -14.3057,-7.17039 -24.35017,-21.55547 -25.36641,-38.38876 z m 91.90239,0 c -1.01753,16.82509 -11.00611,31.21377 -25.2986,38.38876 l 0.88172,5.22249 c 14.5909,-7.73505 24.55252,-23.03036 24.55252,-40.69479 0,-0.98314 -0.0748,-1.94855 -0.13564,-2.91646 z m -80.55615,116.9044 -0.33911,2.10256 c -0.78534,4.42136 3.96798,11.90723 8.45853,11.89461 l 53.03888,0 c 4.4745,-0.0152 9.46064,-6.33947 8.6781,-10.74504 l -0.33912,-2.03474 c -1.09335,2.96996 -5.1316,7.0716 -8.33898,7.0825 l -53.03888,0 c -3.24296,0.009 -7.03513,-5.29106 -8.11942,-8.29989 z"
     id="path3804"
     inkscape:connector-curvature="0"
     sodipodi:nodetypes="csccccccscccccccccc" />
</svg>
