<?xml version="1.0" encoding="UTF-8" standalone="no"?>
<!-- Created with Inkscape (http://www.inkscape.org/) -->

<svg
   xmlns:dc="http://purl.org/dc/elements/1.1/"
   xmlns:cc="http://creativecommons.org/ns#"
   xmlns:rdf="http://www.w3.org/1999/02/22-rdf-syntax-ns#"
   xmlns:svg="http://www.w3.org/2000/svg"
   xmlns="http://www.w3.org/2000/svg"
   xmlns:xlink="http://www.w3.org/1999/xlink"
   xmlns:sodipodi="http://sodipodi.sourceforge.net/DTD/sodipodi-0.dtd"
   xmlns:inkscape="http://www.inkscape.org/namespaces/inkscape"
   width="512"
   height="512"
   id="svg2"
   version="1.1"
   inkscape:version="0.48.4 r9939"
   sodipodi:docname="pgadmin3.svg">
  <sodipodi:namedview
     id="base"
     pagecolor="#ffffff"
     bordercolor="#666666"
     borderopacity="1.0"
     inkscape:pageopacity="0.0"
     inkscape:pageshadow="2"
     inkscape:zoom="0.5"
     inkscape:cx="325.32276"
     inkscape:cy="241.91054"
     inkscape:document-units="px"
     inkscape:current-layer="layer1"
     showgrid="false"
     inkscape:window-width="1360"
     inkscape:window-height="721"
     inkscape:window-x="0"
     inkscape:window-y="25"
     inkscape:window-maximized="1"
     showguides="true"
     inkscape:guide-bbox="true" />
  <defs
     id="defs4">
    <linearGradient
       inkscape:collect="always"
       id="linearGradient4701">
      <stop
         style="stop-color:#3f74dc;stop-opacity:1;"
         offset="0"
         id="stop4703" />
      <stop
         style="stop-color:#3f74dc;stop-opacity:0;"
         offset="1"
         id="stop4705" />
    </linearGradient>
    <linearGradient
       inkscape:collect="always"
       id="linearGradient4662">
      <stop
         style="stop-color:#3350c4;stop-opacity:1;"
         offset="0"
         id="stop4664" />
      <stop
         style="stop-color:#3350c4;stop-opacity:0;"
         offset="1"
         id="stop4666" />
    </linearGradient>
    <linearGradient
       id="linearGradient4397">
      <stop
         id="stop4399"
         offset="0"
         style="stop-color:#000000;stop-opacity:0.52739727;" />
      <stop
         id="stop4401"
         offset="1"
         style="stop-color:#000000;stop-opacity:0;" />
    </linearGradient>
    <linearGradient
       id="linearGradient4387"
       inkscape:collect="always">
      <stop
         id="stop4389"
         offset="0"
         style="stop-color:#7d1c65;stop-opacity:1;" />
      <stop
         id="stop4391"
         offset="1"
         style="stop-color:#7d1c65;stop-opacity:0;" />
    </linearGradient>
    <linearGradient
       inkscape:collect="always"
       id="linearGradient3837">
      <stop
         style="stop-color:#7db257;stop-opacity:1;"
         offset="0"
         id="stop3839" />
      <stop
         style="stop-color:#7db257;stop-opacity:0;"
         offset="1"
         id="stop3841" />
    </linearGradient>
    <clipPath
       clipPathUnits="userSpaceOnUse"
       id="clipPath3847">
      <path
         transform="matrix(0.88586957,0,0,0.88586957,-24.010886,495.98978)"
         d="m 582.65601,342.29437 a 260.2153,260.2153 0 1 1 -520.430607,0 260.2153,260.2153 0 1 1 520.430607,0 z"
         sodipodi:ry="260.2153"
         sodipodi:rx="260.2153"
         sodipodi:cy="342.29437"
         sodipodi:cx="322.4407"
         id="path3849"
         style="fill:url(#linearGradient3851);fill-opacity:1;fill-rule:evenodd;stroke:none"
         sodipodi:type="arc" />
    </clipPath>
    <linearGradient
       inkscape:collect="always"
       xlink:href="#linearGradient3837"
       id="linearGradient3851"
       gradientUnits="userSpaceOnUse"
       x1="502.83536"
       y1="546.63525"
       x2="316.05505"
       y2="356.66208" />
    <clipPath
       clipPathUnits="userSpaceOnUse"
       id="clipPath4164">
      <path
         inkscape:connector-curvature="0"
         id="path4166"
         d="M 403.50945,11.42485 C 376.94237,12.55745 355.614,49.16619 355.614,94.1436 c 0,16.9476 3.03121,32.694 8.2271,45.8125 l -4.30855,40.75 22.15559,-13.5 c 6.88297,6.17012 14.7411,9.65625 23.08416,9.65625 27.15356,0 49.15831,-37.02741 49.15831,-82.71875 0,-45.69134 -22.00475,-82.71875 -49.15831,-82.71875 -0.42427,0 -0.84115,-0.018 -1.26285,0 z"
         style="fill:#f33e5c;fill-opacity:1;fill-rule:evenodd;stroke:none" />
    </clipPath>
    <clipPath
       id="clipPath4381"
       clipPathUnits="userSpaceOnUse">
      <path
         sodipodi:type="arc"
         style="fill:#7d1c65;fill-opacity:1;fill-rule:evenodd;stroke:none"
         id="path4383"
         sodipodi:cx="322.4407"
         sodipodi:cy="342.29437"
         sodipodi:rx="260.2153"
         sodipodi:ry="260.2153"
         d="m 582.65601,342.29437 a 260.2153,260.2153 0 1 1 -520.430607,0 260.2153,260.2153 0 1 1 520.430607,0 z"
         transform="matrix(0.88586957,0,0,0.88586957,-24.010886,495.98978)" />
    </clipPath>
    <clipPath
       id="clipPath4407"
       clipPathUnits="userSpaceOnUse">
      <path
         transform="matrix(0.88586957,0,0,0.88586957,-24.010886,-44.3724)"
         d="m 582.65601,342.29437 a 260.2153,260.2153 0 1 1 -520.430607,0 260.2153,260.2153 0 1 1 520.430607,0 z"
         sodipodi:ry="260.2153"
         sodipodi:rx="260.2153"
         sodipodi:cy="342.29437"
         sodipodi:cx="322.4407"
         id="path4409"
         style="fill:url(#linearGradient4411);fill-opacity:1;fill-rule:evenodd;stroke:none"
         sodipodi:type="arc" />
    </clipPath>
    <linearGradient
       y2="265.66656"
       x2="241.02367"
       y1="557.81012"
       x1="531.5708"
       gradientUnits="userSpaceOnUse"
       id="linearGradient4411"
       xlink:href="#linearGradient4387"
       inkscape:collect="always" />
    <clipPath
       clipPathUnits="userSpaceOnUse"
       id="clipPath3774">
      <path
         transform="matrix(0.91037822,-0.02245917,0.02245917,0.91037822,1329.1707,352.71315)"
         inkscape:transform-center-y="-24.438783"
         inkscape:transform-center-x="-0.63772798"
         d="m -1018.2338,118.98121 -338.4077,-11.01363 -94.0992,-325.24832 280.2513,-190.00087 267.30399,207.82131 z"
         inkscape:randomized="0"
         inkscape:rounded="0"
         inkscape:flatsided="true"
         sodipodi:arg2="1.6033303"
         sodipodi:arg1="0.97501178"
         sodipodi:r2="233.0125"
         sodipodi:r1="288.01926"
         sodipodi:cy="-119.41477"
         sodipodi:cx="-1179.8582"
         sodipodi:sides="5"
         id="path3776"
         style="color:#000000;fill:#81d6ec;fill-opacity:1;fill-rule:evenodd;stroke:none;stroke-width:30;marker:none;visibility:visible;display:inline;overflow:visible;enable-background:accumulate"
         sodipodi:type="star" />
    </clipPath>
    <clipPath
       clipPathUnits="userSpaceOnUse"
       id="clipPath4656">
      <path
         sodipodi:type="arc"
         style="fill:#3350c4;fill-opacity:1;fill-rule:evenodd;stroke:none"
         id="path4658"
         sodipodi:cx="322.4407"
         sodipodi:cy="342.29437"
         sodipodi:rx="260.2153"
         sodipodi:ry="260.2153"
         d="m 582.65601,342.29437 a 260.2153,260.2153 0 1 1 -520.430607,0 260.2153,260.2153 0 1 1 520.430607,0 z"
         transform="matrix(0.88586957,0,0,0.88586957,-24.010886,495.98978)" />
    </clipPath>
    <linearGradient
       inkscape:collect="always"
       xlink:href="#linearGradient4662"
       id="linearGradient4668"
       x1="502.47079"
       y1="549.99988"
       x2="291.41672"
       y2="387.44772"
       gradientUnits="userSpaceOnUse" />
    <linearGradient
       inkscape:collect="always"
       xlink:href="#linearGradient4701"
       id="linearGradient4707"
       x1="545.36652"
       y1="590.63794"
       x2="142.41061"
       y2="258.76062"
       gradientUnits="userSpaceOnUse" />
  </defs>
  <metadata
     id="metadata7">
    <rdf:RDF>
      <cc:Work
         rdf:about="">
        <dc:format>image/svg+xml</dc:format>
        <dc:type
           rdf:resource="http://purl.org/dc/dcmitype/StillImage" />
        <dc:title></dc:title>
      </cc:Work>
    </rdf:RDF>
  </metadata>
  <g
     transform="translate(0,-540.36218)"
     id="layer1"
     inkscape:groupmode="layer"
     inkscape:label="Capa 1">
    <path
       transform="matrix(0.88586957,0,0,0.88586957,-24.010886,495.98978)"
       d="m 582.65601,342.29437 c 0,143.71295 -116.50236,260.2153 -260.21531,260.2153 -143.71294,0 -260.215297,-116.50235 -260.215297,-260.2153 0,-143.71294 116.502357,-260.215299 260.215297,-260.215299 143.71295,0 260.21531,116.502359 260.21531,260.215299 z"
       sodipodi:ry="260.2153"
       sodipodi:rx="260.2153"
       sodipodi:cy="342.29437"
       sodipodi:cx="322.4407"
       id="path2990"
       style="fill:#3f74dc;fill-rule:evenodd;stroke:none;fill-opacity:1"
       sodipodi:type="arc" />
    <g
       id="g4489"
       clip-path="url(#clipPath4656)"
       style="opacity:0.31304348">
      <g
         id="g4491"
         style="fill:#000000;fill-opacity:1;stroke:none">
        <path
           id="path4493"
           d="M243.8971 688.2879C232.38126 688.41919 232.10544 697.41912 237.79063 713.19097L414.567325297 889.967665297C408.882135297 874.195815297 409.157955297 865.195885297 420.673795297 865.064595297Z" />
        <path
           id="path4495"
           d="M237.79063 713.19097L252.98532 780.95882L429.762015297 957.735515297L414.567325297 889.967665297Z" />
        <path
           id="path4497"
           d="M252.98532 780.95882C253.469529051 787.053634394 254.967229088 790.400002568 257.650862278 793.083635758L434.427557575 969.860331054C431.743924385 967.176697865 430.246224347 963.830329691 429.762015297 957.735515297Z" />
        <path
           id="path4499"
           d="M257.650862278 793.083635758C259.962007819 795.394781299 263.152719479 797.214398935 267.33314 799.87468L444.109835297 976.651375297C439.929414775 973.991094231 436.738703116 972.171476595 434.427557575 969.860331054Z" />
        <path
           id="path4501"
           d="M267.33314 799.87468L303.53086 822.91716L480.307555297 999.693855297L444.109835297 976.651375297Z" />
        <path
           id="path4503"
           d="M303.53086 822.91716L257.81559 808.4858L434.592285297 985.262495297L480.307555297 999.693855297Z" />
        <path
           id="path4505"
           d="M257.81559 808.4858C252.033275799 807.42895224 248.739938906 806.082992102 246.557461087 803.900514282L423.334156383 980.677209579C425.516634203 982.859687399 428.809971096 984.205647537 434.592285297 985.262495297Z" />
        <path
           id="path4507"
           d="M246.557461087 803.900514282C243.737606949 801.080660145 242.77219192 796.864345251 240.68875 790.07087L417.465445297 966.847565297C419.548887217 973.641040548 420.514302246 977.857355442 423.334156383 980.677209579Z" />
        <path
           id="path4509"
           d="M240.68875 790.07087L224.20606 736.35275L400.982755297 913.129445297L417.465445297 966.847565297Z" />
        <path
           id="path4511"
           d="M224.20606 736.35275C222.913668446 731.081314395 222.162195818 728.160646961 220.850689481 726.849140623L397.627384777 903.62583592C398.938891115 904.937342258 399.690363743 907.858009692 400.982755297 913.129445297Z" />
        <path
           id="path4513"
           d="M220.850689481 726.849140623C219.348111442 725.346562585 217.110431656 725.956173714 212.482 727.56272L389.258695297 904.339415297C393.887126953 902.732869011 396.124806739 902.123257882 397.627384777 903.62583592Z" />
        <path
           id="path4515"
           d="M212.482 727.56272C193.68859 734.09306 147.85165 750.74209 132.33421 762.9375L309.110905297 939.714195297C324.628345297 927.518785297 370.465285297 910.869755297 389.258695297 904.339415297Z" />
        <path
           id="path4517"
           d="M132.33421 762.9375C126.05739 767.87053 119.96857 778.02344 115.36234 787.17266L292.139035297 963.949355297C296.745265297 954.800135297 302.834085297 944.647225297 309.110905297 939.714195297Z" />
        <path
           id="path4519"
           d="M115.36234 787.17266C100.1843 826.01206 131.04721 868.09758 139.96728 910.14945L316.743975297 1086.9261453C307.823905297 1044.8742753 276.960995297 1002.7887553 292.139035297 963.949355297Z" />
        <path
           id="path4521"
           d="M139.96728 910.14945L191.2166 910.14945L367.993295297 1086.9261453L316.743975297 1086.9261453Z" />
        <path
           id="path4523"
           d="M191.2166 910.14945L198.84976 874.70319L375.626455297 1051.4798853L367.993295297 1086.9261453Z" />
        <path
           id="path4525"
           d="M198.84976 874.70319L230.4676 874.70319L407.244295297 1051.4798853L375.626455297 1051.4798853Z" />
        <path
           id="path4527"
           d="M230.4676 874.70319L242.46593 910.14945L419.242625297 1086.9261453L407.244295297 1051.4798853Z" />
        <path
           id="path4529"
           d="M242.46593 910.14945L291.53253 910.14945L468.309225297 1086.9261453L419.242625297 1086.9261453Z" />
        <path
           id="path4531"
           d="M291.53253 910.14945L319.88246 828.36771L496.659155297 1005.1444053L468.309225297 1086.9261453Z" />
        <path
           id="path4533"
           d="M319.88246 828.36771C321.846930246 829.596603088 323.47934951 830.89270596 324.831850638 832.245207088L501.608545935 1009.02190238C500.256044807 1007.66940126 498.623625543 1006.37329838 496.659155297 1005.1444053Z" />
        <path
           id="path4535"
           d="M324.831850638 832.245207088C338.580155217 845.993511666 323.40474609 865.569402369 334.06342 879.61698L510.840115297 1056.3936753C500.181441387 1042.34609767 515.356850514 1022.77020696 501.608545935 1009.02190238Z" />
        <path
           id="path4537"
           d="M334.06342 879.61698C334.477206645 880.131743233 334.946535598 880.648804463 335.464110067 881.166378932L512.240805364 1057.94307423C511.723230895 1057.42549976 511.253901942 1056.90843853 510.840115297 1056.3936753Z" />
        <path
           id="path4539"
           d="M335.464110067 881.166378932C344.42813547 890.130404335 367.86379 899.24838 367.86379 899.24838L544.640485297 1076.0250753C544.640485297 1076.0250753 521.204830766 1066.90709963 512.240805364 1057.94307423Z" />
        <path
           id="path4541"
           d="M367.86379 899.24838L379.86211 883.98215L556.638805297 1060.7588453L544.640485297 1076.0250753Z" />
        <path
           id="path4543"
           d="M379.86211 883.98215C379.86211 883.98215 372.533358248 880.637030136 367.880127634 875.983799522L544.656822931 1052.76049482C549.310053545 1057.41372543 556.638805297 1060.7588453 556.638805297 1060.7588453Z" />
        <path
           id="path4545"
           d="M367.880127634 875.983799522C365.059392332 873.16306422 363.221816351 869.861644517 364.59588 866.53329L541.372575297 1043.3099853C539.998511647 1046.63833981 541.836087629 1049.93975952 544.656822931 1052.76049482Z" />
        <path
           id="path4547"
           d="M364.59588 866.53329C364.65898 856.66575 367.25898 846.84722 370.97672 837.11001L547.753415297 1013.8867053C544.035675297 1023.6239153 541.435675297 1033.4424453 541.372575297 1043.3099853Z" />
        <path
           id="path4549"
           d="M370.97672 837.11001C390.34583 843.71648 411.95347 843.46132 412.02867 843.08532L588.805365297 1019.8620153C588.730165297 1020.2380153 567.122525297 1020.4931753 547.753415297 1013.8867053Z" />
        <path
           id="path4551"
           d="M412.02867 843.08532C401.1996 842.23625 387.7281 833.03068 376.74927 823.59699L553.525965297 1000.3736853C564.504795297 1009.8073753 577.976295297 1019.0129453 588.805365297 1019.8620153Z" />
        <path
           id="path4553"
           d="M376.74927 823.59699C390.05345 794.75539 407.50405 766.7223 391.5504 740.20509L568.327095297 916.981785297C584.280745297 943.498995297 566.830145297 971.532085297 553.525965297 1000.3736853Z" />
        <path
           id="path4555"
           d="M391.5504 740.20509C388.903025954 735.804765142 386.022526301 731.639924562 382.406563028 728.023961289L559.183258324 904.800656586C562.799221597 908.416619859 565.679721251 912.581460439 568.327095297 916.981785297Z" />
        <path
           id="path4557"
           d="M382.406563028 728.023961289C373.243233874 718.860632135 359.356885125 713.222097693 332.57259 716.20844L509.349285297 892.985135297C536.133580421 889.99879299 550.01992917 895.637327432 559.183258324 904.800656586Z" />
        <path
           id="path4559"
           d="M332.57259 716.20844L257.77982 690.72096L434.556515297 867.497655297L509.349285297 892.985135297Z" />
        <path
           id="path4561"
           d="M257.77982 690.72096C251.99775 689.03858 247.42235 688.24771 243.8971 688.2879L420.673795297 865.064595297C424.199045297 865.024405297 428.774445297 865.815275297 434.556515297 867.497655297Z" />
        <path
           id="path4563"
           d="M357.51144 774.93583C359.7698 774.93583 361.812213825 775.849068825 363.290045737 777.326900737L540.066741034 954.103596034C538.588909122 952.625764121 536.546495297 951.712525297 534.288135297 951.712525297Z" />
        <path
           id="path4565"
           d="M363.290045737 777.326900737C364.767903825 778.804758825 365.68116 780.84723 365.68116 783.10565L542.457855297 959.882345297C542.457855297 957.623925297 541.544599121 955.581454121 540.066741034 954.103596034Z" />
        <path
           id="path4567"
           d="M365.68116 783.10565C365.68116 787.62242 362.0282 791.2874 357.51144 791.2874L534.288135297 968.064095297C538.804895297 968.064095297 542.457855297 964.399115297 542.457855297 959.882345297Z" />
        <path
           id="path4569"
           d="M357.51144 791.2874C355.253015 791.2874 353.2075675 790.371155 351.72672625 788.89031375L528.503421547 965.667009047C529.984262797 967.147850297 532.029710297 968.064095297 534.288135297 968.064095297Z" />
        <path
           id="path4571"
           d="M351.72672625 788.89031375C350.245885 787.4094725 349.32965 785.364035 349.32965 783.10565L526.106345297 959.882345297C526.106345297 962.140730297 527.022580297 964.186167797 528.503421547 965.667009047Z" />
        <path
           id="path4573"
           d="M349.32965 783.10565C349.32965 778.58885 352.99459 774.93583 357.51144 774.93583L534.288135297 951.712525297C529.771285297 951.712525297 526.106345297 955.365545297 526.106345297 959.882345297Z" />
      </g>
      <path
         style="fill:#000000;fill-opacity:1;stroke:none"
         d="m 243.8971,688.2879 c -11.51584,0.13129 -11.79166,9.13122 -6.10647,24.90307 l 15.19469,67.76785 c 0.90121,11.34367 5.31322,13.16654 14.34782,18.91586 l 36.19772,23.04248 -45.71527,-14.43136 c -13.25331,-2.42234 -13.43088,-6.36352 -17.12684,-18.41493 l -16.48269,-53.71812 c -2.77307,-11.31086 -3.05576,-11.79883 -11.72406,-8.79003 -18.79341,6.53034 -64.63035,23.17937 -80.14779,35.37478 -6.27682,4.93303 -12.36564,15.08594 -16.97187,24.23516 -15.17804,38.8394 15.68487,80.92492 24.60494,122.97679 l 51.24932,0 7.63316,-35.44626 31.61784,0 11.99833,35.44626 49.0666,0 28.34993,-81.78174 c 21.9335,13.72071 2.47373,35.81975 14.18096,51.24927 7.58028,9.4301 33.80037,19.6314 33.80037,19.6314 l 11.99832,-15.26623 c 0,0 -18.90702,-8.62988 -15.26623,-17.44886 0.0631,-9.86754 2.6631,-19.68607 6.38084,-29.42328 19.36911,6.60647 40.97675,6.35131 41.05195,5.97531 -10.82907,-0.84907 -24.30057,-10.05464 -35.2794,-19.48833 13.30418,-28.8416 30.75478,-56.87469 14.80113,-83.3919 -9.35617,-15.55133 -21.6241,-28.16144 -58.97781,-23.99665 l -74.79277,-25.48748 c -5.78207,-1.68238 -10.35747,-2.47325 -13.88272,-2.43306 z m 113.61434,86.64793 c 4.51676,0 8.16972,3.65302 8.16972,8.16982 0,4.51677 -3.65296,8.18175 -8.16972,8.18175 -4.51685,0 -8.18179,-3.66498 -8.18179,-8.18175 0,-4.5168 3.66494,-8.16982 8.18179,-8.16982 z"
         id="path4451"
         inkscape:connector-curvature="0" />
    </g>
    <path
       sodipodi:type="arc"
       style="fill:url(#linearGradient4707);fill-rule:evenodd;stroke:none;fill-opacity:1"
       id="path4699"
       sodipodi:cx="322.4407"
       sodipodi:cy="342.29437"
       sodipodi:rx="260.2153"
       sodipodi:ry="260.2153"
       d="m 582.65601,342.29437 c 0,143.71295 -116.50236,260.2153 -260.21531,260.2153 -143.71294,0 -260.215297,-116.50235 -260.215297,-260.2153 0,-143.71294 116.502357,-260.215299 260.215297,-260.215299 143.71295,0 260.21531,116.502359 260.21531,260.215299 z"
       transform="matrix(0.88586957,0,0,0.88586957,-24.010886,495.98978)" />
    <path
       inkscape:connector-curvature="0"
       id="path3759"
       d="m 243.8971,688.2879 c -11.51584,0.13129 -11.79166,9.13122 -6.10647,24.90307 l 15.19469,67.76785 c 0.90121,11.34367 5.31322,13.16654 14.34782,18.91586 l 36.19772,23.04248 -45.71527,-14.43136 c -13.25331,-2.42234 -13.43088,-6.36352 -17.12684,-18.41493 l -16.48269,-53.71812 c -2.77307,-11.31086 -3.05576,-11.79883 -11.72406,-8.79003 -18.79341,6.53034 -64.63035,23.17937 -80.14779,35.37478 -6.27682,4.93303 -12.36564,15.08594 -16.97187,24.23516 -15.17804,38.8394 15.68487,80.92492 24.60494,122.97679 l 51.24932,0 7.63316,-35.44626 31.61784,0 11.99833,35.44626 49.0666,0 28.34993,-81.78174 c 21.9335,13.72071 2.47373,35.81975 14.18096,51.24927 7.58028,9.4301 33.80037,19.6314 33.80037,19.6314 l 11.99832,-15.26623 c 0,0 -18.90702,-8.62988 -15.26623,-17.44886 0.0631,-9.86754 2.6631,-19.68607 6.38084,-29.42328 19.36911,6.60647 40.97675,6.35131 41.05195,5.97531 -10.82907,-0.84907 -24.30057,-10.05464 -35.2794,-19.48833 13.30418,-28.8416 30.75478,-56.87469 14.80113,-83.3919 -9.35617,-15.55133 -21.6241,-28.16144 -58.97781,-23.99665 l -74.79277,-25.48748 c -5.78207,-1.68238 -10.35747,-2.47325 -13.88272,-2.43306 z m 113.61434,86.64793 c 4.51676,0 8.16972,3.65302 8.16972,8.16982 0,4.51677 -3.65296,8.18175 -8.16972,8.18175 -4.51685,0 -8.18179,-3.66498 -8.18179,-8.18175 0,-4.5168 3.66494,-8.16982 8.18179,-8.16982 z"
       style="fill:#ffffde;fill-opacity:1;stroke:none" />
  </g>
</svg>
