<?xml version="1.0" encoding="UTF-8" standalone="no"?>
<!-- Created with Inkscape (http://www.inkscape.org/) -->

<svg
   xmlns:dc="http://purl.org/dc/elements/1.1/"
   xmlns:cc="http://creativecommons.org/ns#"
   xmlns:rdf="http://www.w3.org/1999/02/22-rdf-syntax-ns#"
   xmlns:svg="http://www.w3.org/2000/svg"
   xmlns="http://www.w3.org/2000/svg"
   xmlns:sodipodi="http://sodipodi.sourceforge.net/DTD/sodipodi-0.dtd"
   xmlns:inkscape="http://www.inkscape.org/namespaces/inkscape"
   width="512"
   height="512"
   id="svg2"
   version="1.1"
   inkscape:version="0.48.4 r9939"
   sodipodi:docname="Nuevo documento 1">
  <defs
     id="defs4">
    <clipPath
       clipPathUnits="userSpaceOnUse"
       id="clipPath3774">
      <path
         transform="matrix(0.91037822,-0.02245917,0.02245917,0.91037822,1329.1707,352.71315)"
         inkscape:transform-center-y="-24.438783"
         inkscape:transform-center-x="-0.63772798"
         d="m -1018.2338,118.98121 -338.4077,-11.01363 -94.0992,-325.24832 280.2513,-190.00087 267.30399,207.82131 z"
         inkscape:randomized="0"
         inkscape:rounded="0"
         inkscape:flatsided="true"
         sodipodi:arg2="1.6033303"
         sodipodi:arg1="0.97501178"
         sodipodi:r2="233.0125"
         sodipodi:r1="288.01926"
         sodipodi:cy="-119.41477"
         sodipodi:cx="-1179.8582"
         sodipodi:sides="5"
         id="path3776"
         style="color:#000000;fill:#81d6ec;fill-opacity:1;fill-rule:evenodd;stroke:none;stroke-width:30;marker:none;visibility:visible;display:inline;overflow:visible;enable-background:accumulate"
         sodipodi:type="star" />
    </clipPath>
  </defs>
  <sodipodi:namedview
     id="base"
     pagecolor="#ffffff"
     bordercolor="#666666"
     borderopacity="1.0"
     inkscape:pageopacity="0.0"
     inkscape:pageshadow="2"
     inkscape:zoom="0.5"
     inkscape:cx="251.45567"
     inkscape:cy="267.65236"
     inkscape:document-units="px"
     inkscape:current-layer="layer1"
     showgrid="false"
     inkscape:window-width="1360"
     inkscape:window-height="717"
     inkscape:window-x="0"
     inkscape:window-y="25"
     inkscape:window-maximized="1" />
  <metadata
     id="metadata7">
    <rdf:RDF>
      <cc:Work
         rdf:about="">
        <dc:format>image/svg+xml</dc:format>
        <dc:type
           rdf:resource="http://purl.org/dc/dcmitype/StillImage" />
        <dc:title></dc:title>
      </cc:Work>
    </rdf:RDF>
  </metadata>
  <g
     inkscape:label="Capa 1"
     inkscape:groupmode="layer"
     id="layer1"
     transform="translate(0,-540.36218)">
    <path
       sodipodi:type="star"
       style="color:#000000;fill:#48bad7;fill-opacity:1;fill-rule:evenodd;stroke:none;stroke-width:30;marker:none;visibility:visible;display:inline;overflow:visible;enable-background:accumulate"
       id="path3764"
       sodipodi:sides="5"
       sodipodi:cx="-1179.8582"
       sodipodi:cy="-119.41477"
       sodipodi:r1="288.01926"
       sodipodi:r2="233.0125"
       sodipodi:arg1="0.97501178"
       sodipodi:arg2="1.6033303"
       inkscape:flatsided="true"
       inkscape:rounded="0"
       inkscape:randomized="0"
       d="m -1018.2338,118.98121 -338.4077,-11.01363 -94.0992,-325.24832 280.2513,-190.00087 267.30399,207.82131 z"
       inkscape:transform-center-x="-0.60827307"
       inkscape:transform-center-y="-23.308497"
       transform="matrix(0.86827349,-0.02142044,0.02142044,0.86827349,1279.862,895.14267)" />
    <path
       style="fill:#000000;fill-opacity:0.06190479;stroke:none"
       d="M 115.96551,374.82129 447.48661,566.22508 670.78187,325.10847 374.76659,154.20397 292.59579,214.044 203.64675,162.68925 z"
       id="path3766"
       inkscape:connector-curvature="0"
       transform="matrix(0.95375029,0,0,0.95375029,12.16502,558.7424)"
       sodipodi:nodetypes="ccccccc"
       clip-path="url(#clipPath3774)" />
    <path
       style="fill:#e5f2eb;fill-opacity:1;stroke:none"
       d="m 234.08969,672.16653 c -12.58779,0.14351 -12.88934,9.9812 -6.67493,27.22118 l 16.60909,74.07607 c 0.98511,12.3996 5.80786,14.39215 15.68348,20.67665 l 39.56721,25.18741 -49.97071,-15.77472 c -14.48704,-2.64782 -14.68116,-6.95587 -18.72109,-20.12909 l -18.01709,-58.71851 c -3.03117,-12.36373 -3.34015,-12.89713 -12.81533,-9.60825 -20.54285,7.13822 -70.64657,25.33704 -87.60844,38.66766 -6.86112,5.39223 -13.516645,16.49023 -18.551632,26.49111 -16.59095,42.45479 17.144842,88.45788 26.895292,134.4242 l 56.01985,0 8.34366,-38.74588 34.56101,0 13.1152,38.74588 53.63408,0 30.98888,-89.39449 c 23.9752,14.99792 2.70397,39.15406 15.50096,56.01985 8.28596,10.30789 36.94671,21.4588 36.94671,21.4588 l 13.11523,-16.68727 c 0,0 -20.66702,-9.43318 -16.68735,-19.0731 0.0691,-10.78609 2.91105,-21.51859 6.97485,-32.16219 21.17204,7.22143 44.79103,6.94252 44.87327,6.53152 -11.8371,-0.9281 -26.56262,-10.99058 -38.56335,-21.30241 14.5426,-31.52634 33.61759,-62.16891 16.17888,-91.15449 -10.22716,-16.99893 -23.63698,-30.78286 -64.46786,-26.23039 l -81.75485,-27.86 c -6.32027,-1.83899 -11.32162,-2.70347 -15.17502,-2.65954 z m 124.19017,94.7136 c 4.93727,0 8.93029,3.99307 8.93029,8.93032 0,4.93721 -3.99302,8.94335 -8.93029,8.94335 -4.93724,0 -8.94335,-4.00614 -8.94335,-8.94335 0,-4.93725 4.00611,-8.93032 8.94335,-8.93032 z"
       id="path3759"
       inkscape:connector-curvature="0" />
  </g>
</svg>
