<?xml version="1.0" encoding="UTF-8" standalone="no"?>
<!-- Created with Inkscape (http://www.inkscape.org/) -->

<svg
   xmlns:osb="http://www.openswatchbook.org/uri/2009/osb"
   xmlns:dc="http://purl.org/dc/elements/1.1/"
   xmlns:cc="http://creativecommons.org/ns#"
   xmlns:rdf="http://www.w3.org/1999/02/22-rdf-syntax-ns#"
   xmlns:svg="http://www.w3.org/2000/svg"
   xmlns="http://www.w3.org/2000/svg"
   xmlns:xlink="http://www.w3.org/1999/xlink"
   xmlns:sodipodi="http://sodipodi.sourceforge.net/DTD/sodipodi-0.dtd"
   xmlns:inkscape="http://www.inkscape.org/namespaces/inkscape"
   width="512"
   height="512"
   viewBox="0 0 135.46666 135.46667"
   version="1.1"
   id="svg1156"
   inkscape:version="0.92.3 (2405546, 2018-03-11)"
   sodipodi:docname="picker.svg">
  <defs
     id="defs1150">
    <linearGradient
       id="linearGradient3481"
       y1="1"
       x2="0"
       y2="47"
       gradientUnits="userSpaceOnUse">
      <stop
         style="stop-color:#fc5858;stop-opacity:1"
         id="stop2" />
      <stop
         offset="1"
         style="stop-color:#fc4444;stop-opacity:1"
         id="stop4" />
    </linearGradient>
    <linearGradient
       id="linearGradient3481-4"
       y1="1"
       x2="0"
       y2="47"
       gradientUnits="userSpaceOnUse">
      <stop
         style="stop-color:#fc5858;stop-opacity:1"
         id="stop2-0" />
      <stop
         offset="1"
         style="stop-color:#fc4444;stop-opacity:1"
         id="stop4-0" />
    </linearGradient>
    <linearGradient
       id="linearGradient4218"
       y1="1"
       x2="0"
       y2="47"
       gradientUnits="userSpaceOnUse">
      <stop
         style="stop-color:#fc5858;stop-opacity:1"
         id="stop4214" />
      <stop
         offset="1"
         style="stop-color:#fc4444;stop-opacity:1"
         id="stop4216" />
    </linearGradient>
    <linearGradient
       id="linearGradient3481-6"
       y1="1"
       x2="0"
       y2="47"
       gradientUnits="userSpaceOnUse">
      <stop
         style="stop-color:#fc5858;stop-opacity:1"
         id="stop2-03" />
      <stop
         offset="1"
         style="stop-color:#fc4444;stop-opacity:1"
         id="stop4-6" />
    </linearGradient>
    <linearGradient
       id="linearGradient4218-4"
       y1="1"
       x2="0"
       y2="47"
       gradientUnits="userSpaceOnUse">
      <stop
         style="stop-color:#fc5858;stop-opacity:1"
         id="stop4214-9" />
      <stop
         offset="1"
         style="stop-color:#fc4444;stop-opacity:1"
         id="stop4216-2" />
    </linearGradient>
    <linearGradient
       id="linearGradient3481-2"
       y1="1"
       x2="0"
       y2="47"
       gradientUnits="userSpaceOnUse">
      <stop
         style="stop-color:#fc5858;stop-opacity:1"
         id="stop2-9" />
      <stop
         offset="1"
         style="stop-color:#fc4444;stop-opacity:1"
         id="stop4-2" />
    </linearGradient>
    <linearGradient
       id="linearGradient4218-2"
       y1="1"
       x2="0"
       y2="47"
       gradientUnits="userSpaceOnUse">
      <stop
         style="stop-color:#fc5858;stop-opacity:1"
         id="stop4214-2" />
      <stop
         offset="1"
         style="stop-color:#fc4444;stop-opacity:1"
         id="stop4216-7" />
    </linearGradient>
    <linearGradient
       id="linearGradient3481-0"
       y1="1"
       x2="0"
       y2="47"
       gradientUnits="userSpaceOnUse">
      <stop
         style="stop-color:#fc5858;stop-opacity:1"
         id="stop2-02" />
      <stop
         offset="1"
         style="stop-color:#fc4444;stop-opacity:1"
         id="stop4-1" />
    </linearGradient>
    <linearGradient
       id="linearGradient4218-5"
       y1="1"
       x2="0"
       y2="47"
       gradientUnits="userSpaceOnUse">
      <stop
         style="stop-color:#fc5858;stop-opacity:1"
         id="stop4214-6" />
      <stop
         offset="1"
         style="stop-color:#fc4444;stop-opacity:1"
         id="stop4216-73" />
    </linearGradient>
    <linearGradient
       osb:paint="gradient"
       id="linearGradient7377">
      <stop
         id="stop7379"
         offset="0"
         style="stop-color:#00ffff;stop-opacity:1;" />
      <stop
         id="stop7381"
         offset="1"
         style="stop-color:#00ffff;stop-opacity:0;" />
    </linearGradient>
    <linearGradient
       osb:paint="gradient"
       id="linearGradient7347">
      <stop
         id="stop7349"
         offset="0"
         style="stop-color:#faff00;stop-opacity:1;" />
      <stop
         id="stop7351"
         offset="1"
         style="stop-color:#00ff00;stop-opacity:0;" />
    </linearGradient>
    <linearGradient
       osb:paint="gradient"
       id="linearGradient7323">
      <stop
         id="stop7325"
         offset="0"
         style="stop-color:#00ff00;stop-opacity:1;" />
      <stop
         id="stop7327"
         offset="1"
         style="stop-color:#00ff00;stop-opacity:0;" />
    </linearGradient>
    <linearGradient
       osb:paint="solid"
       id="linearGradient7287">
      <stop
         id="stop7289"
         offset="0"
         style="stop-color:#00d300;stop-opacity:0.36078432;" />
    </linearGradient>
    <clipPath
       id="clipPath5825"
       clipPathUnits="userSpaceOnUse">
      <circle
         sodipodi:ry="630.46259"
         sodipodi:rx="630.46259"
         sodipodi:cy="255.58121"
         sodipodi:cx="963.0993"
         r="630.46259"
         cy="255.58121"
         cx="963.0993"
         id="circle5827"
         style="fill:none;stroke:#000000;stroke-width:10;stroke-linecap:butt;stroke-linejoin:miter;stroke-miterlimit:4;stroke-opacity:1;stroke-dasharray:none" />
    </clipPath>
    <clipPath
       clipPathUnits="userSpaceOnUse"
       id="clipPath4469">
      <path
         d="m -627.91089,741.15729 a 554.3717,554.3717 0 1 1 -1108.74341,0 554.3717,554.3717 0 1 1 1108.74341,0 z"
         sodipodi:ry="554.3717"
         sodipodi:rx="554.3717"
         sodipodi:cy="741.15729"
         sodipodi:cx="-1182.2826"
         id="path4471"
         style="fill:#0090ff;fill-opacity:1;fill-rule:evenodd;stroke:none"
         sodipodi:type="arc" />
    </clipPath>
    <clipPath
       clipPathUnits="userSpaceOnUse"
       id="clipPath4475">
      <path
         d="m -627.91089,741.15729 a 554.3717,554.3717 0 1 1 -1108.74341,0 554.3717,554.3717 0 1 1 1108.74341,0 z"
         sodipodi:ry="554.3717"
         sodipodi:rx="554.3717"
         sodipodi:cy="741.15729"
         sodipodi:cx="-1182.2826"
         id="path4477"
         style="fill:#0090ff;fill-opacity:1;fill-rule:evenodd;stroke:none"
         sodipodi:type="arc" />
    </clipPath>
    <clipPath
       clipPathUnits="userSpaceOnUse"
       id="clipPath4483">
      <path
         d="m -627.91089,741.15729 a 554.3717,554.3717 0 1 1 -1108.74341,0 554.3717,554.3717 0 1 1 1108.74341,0 z"
         sodipodi:ry="554.3717"
         sodipodi:rx="554.3717"
         sodipodi:cy="741.15729"
         sodipodi:cx="-1182.2826"
         id="path4485"
         style="fill:#4598f5;fill-opacity:1;fill-rule:evenodd;stroke:none"
         sodipodi:type="arc" />
    </clipPath>
    <linearGradient
       id="linearGradient587">
      <stop
         style="stop-color:#000;stop-opacity:1;"
         offset="0"
         id="stop588" />
      <stop
         style="stop-color:#fff;stop-opacity:1;"
         offset="1"
         id="stop589" />
    </linearGradient>
    <linearGradient
       xlink:href="#linearGradient587"
       id="linearGradient590" />
    <linearGradient
       inkscape:collect="always"
       id="linearGradient3887">
      <stop
         style="stop-color:#008dff;stop-opacity:1;"
         offset="0"
         id="stop3889" />
      <stop
         style="stop-color:#008dff;stop-opacity:0;"
         offset="1"
         id="stop3891" />
    </linearGradient>
    <clipPath
       clipPathUnits="userSpaceOnUse"
       id="clipPath3881">
      <path
         sodipodi:type="arc"
         style="fill:#008dff;fill-opacity:1;fill-rule:evenodd;stroke:none"
         id="path3883"
         sodipodi:cx="539.5"
         sodipodi:cy="152.5"
         sodipodi:rx="103.5"
         sodipodi:ry="103.5"
         d="m 643,152.5 a 103.5,103.5 0 1 1 -207,0 103.5,103.5 0 1 1 207,0 z"
         transform="translate(-412,-17)" />
    </clipPath>
    <linearGradient
       inkscape:collect="always"
       xlink:href="#linearGradient3887"
       id="linearGradient3893"
       x1="621.26202"
       y1="230.28175"
       x2="518.54919"
       y2="122.80152"
       gradientUnits="userSpaceOnUse" />
    <clipPath
       clipPathUnits="userSpaceOnUse"
       id="clipPath935">
      <circle
         style="fill:#6f8a91;fill-opacity:1;fill-rule:evenodd;stroke:none;stroke-width:2.26570034"
         id="circle937"
         cx="254.5"
         cy="244.49997"
         r="234.49998" />
    </clipPath>
    <linearGradient
       id="linearGradient3866">
      <stop
         style="stop-color:#000000;stop-opacity:0.52083331"
         offset="0"
         id="stop3868" />
      <stop
         style="stop-color:#2883c3;stop-opacity:0;"
         offset="1"
         id="stop3870" />
    </linearGradient>
    <linearGradient
       id="linearGradient3874">
      <stop
         style="stop-color:#000d0e;stop-opacity:0.84105963;"
         offset="0"
         id="stop3876" />
      <stop
         style="stop-color:#000000;stop-opacity:0;"
         offset="1"
         id="stop3878" />
    </linearGradient>
    <clipPath
       id="clipPath892"
       clipPathUnits="userSpaceOnUse">
      <path
         inkscape:connector-curvature="0"
         id="path894"
         d="M 38.524123,20.232391 V 51.2388 h 3.597154 V 20.232391 Z M 14.125746,21.0025 V 52.010565 H 17.7229 V 21.0025 Z M 5.9924018,21.259203 V 52.267267 H 9.591212 V 21.259203 Z m 24.3983772,1.37129 v 31.006409 h 3.597153 V 22.630493 Z m -20.330877,1.626338 v 31.008065 h 3.597154 V 24.256831 Z m 24.396721,0.08612 v 31.008065 h 3.598809 V 24.342951 Z M 1.9265577,25.798705 V 56.80677 H 5.5237118 V 25.798705 Z m 16.2650323,0.08612 v 31.008064 h 3.597155 V 25.884825 Z m 24.398377,0 v 31.008064 h 3.597154 V 25.884825 Z m -16.265033,2.22752 v 31.006408 h 3.597155 V 28.112345 Z M 22.25909,30.76715 v 31.008065 h 3.597155 V 30.76715 Z"
         style="fill:#ffffff;fill-opacity:0.25520833;stroke:none;stroke-width:1.52630627;stroke-linecap:round;stroke-linejoin:round;stroke-miterlimit:4;stroke-dasharray:none;stroke-opacity:1" />
    </clipPath>
    <clipPath
       clipPathUnits="userSpaceOnUse"
       id="clipPath3881-3">
      <path
         sodipodi:type="arc"
         style="fill:#008dff;fill-opacity:1;fill-rule:evenodd;stroke:none"
         id="path3883-6"
         sodipodi:cx="539.5"
         sodipodi:cy="152.5"
         sodipodi:rx="103.5"
         sodipodi:ry="103.5"
         d="m 643,152.5 a 103.5,103.5 0 1 1 -207,0 103.5,103.5 0 1 1 207,0 z"
         transform="translate(-412,-17)" />
    </clipPath>
    <linearGradient
       id="linearGradient4019">
      <stop
         offset="0"
         style="stop-color:#adcce1;stop-opacity:1;"
         id="stop4021" />
      <stop
         offset="0.26238"
         style="stop-color:#6bbfe1;stop-opacity:1;"
         id="stop4023" />
      <stop
         offset="0.74620908"
         style="stop-color:#2596d1;stop-opacity:1;"
         id="stop4025" />
      <stop
         offset="1"
         style="stop-color:#2372c0;stop-opacity:1;"
         id="stop4027" />
    </linearGradient>
    <linearGradient
       id="linearGradient4085">
      <stop
         offset="0"
         style="stop-color:#ffffff;stop-opacity:1"
         id="stop4087" />
      <stop
         offset="0.06316455"
         style="stop-color:#ffffff;stop-opacity:0.2"
         id="stop4089" />
      <stop
         offset="0.95056331"
         style="stop-color:#ffffff;stop-opacity:0.2"
         id="stop4091" />
      <stop
         offset="1"
         style="stop-color:#ffffff;stop-opacity:0.39215687"
         id="stop4093" />
    </linearGradient>
    <filter
       id="filter3174"
       color-interpolation-filters="sRGB">
      <feGaussianBlur
         stdDeviation="1.71"
         id="feGaussianBlur3176" />
    </filter>
    <linearGradient
       gradientTransform="scale(1.0058652,0.994169)"
       gradientUnits="userSpaceOnUse"
       id="ButtonShadow"
       y2="7.0165396"
       x2="45.447727"
       y1="92.539597"
       x1="45.447727">
      <stop
         offset="0"
         style="stop-color:#000000;stop-opacity:1"
         id="stop3750" />
      <stop
         offset="1"
         style="stop-color:#000000;stop-opacity:0.58823532"
         id="stop3752" />
    </linearGradient>
    <linearGradient
       id="linearGradient5048-8-7">
      <stop
         offset="0"
         style="stop-color:#000000;stop-opacity:0"
         id="stop5050-4-2" />
      <stop
         offset="0.5"
         style="stop-color:#000000;stop-opacity:1"
         id="stop5056-7-4" />
      <stop
         offset="1"
         style="stop-color:#000000;stop-opacity:0"
         id="stop5052-0-1-7" />
    </linearGradient>
    <linearGradient
       id="linearGradient3851">
      <stop
         id="stop3853"
         style="stop-color:#5b8da7;stop-opacity:1;"
         offset="0" />
      <stop
         id="stop3855"
         style="stop-color:#1c3447;stop-opacity:1;"
         offset="1" />
    </linearGradient>
    <filter
       id="filter3174-0"
       color-interpolation-filters="sRGB">
      <feGaussianBlur
         stdDeviation="1.71"
         id="feGaussianBlur3176-9" />
    </filter>
    <clipPath
       id="clipPath916"
       clipPathUnits="userSpaceOnUse">
      <g
         id="g920"
         inkscape:label="circulo"
         style="display:inline;opacity:0.98999999;fill:#126136;fill-opacity:1"
         transform="matrix(1.1503549,0,0,1.1503549,-4.4861245,-7.5255648)">
        <path
           style="fill:#126136;fill-opacity:1;stroke:none;stroke-width:1.4909519"
           d="M 44.322082,27.405077 A 19.729762,19.729765 0 0 1 24.59232,47.134842 19.729762,19.729765 0 0 1 4.8625579,27.405077 19.729762,19.729765 0 0 1 24.59232,7.6753138 19.729762,19.729765 0 0 1 44.322082,27.405077 Z"
           id="path918"
           inkscape:connector-curvature="0" />
      </g>
    </clipPath>
    <linearGradient
       id="linearGradient3764"
       x1="1"
       x2="47"
       gradientUnits="userSpaceOnUse"
       gradientTransform="rotate(-90,23.999998,24)">
      <stop
         stop-color="#0bb8f9"
         stop-opacity="1"
         id="stop7" />
      <stop
         offset="1"
         stop-color="#20bef9"
         stop-opacity="1"
         id="stop9" />
    </linearGradient>
    <clipPath
       id="clipPath-275571731">
      <g
         transform="translate(0,-1004.3622)"
         id="g12">
        <path
           d="m -24,13 c 0,1.105 -0.672,2 -1.5,2 -0.828,0 -1.5,-0.895 -1.5,-2 0,-1.105 0.672,-2 1.5,-2 0.828,0 1.5,0.895 1.5,2 z"
           transform="matrix(15.333333,0,0,11.5,414.99999,878.8622)"
           id="path14"
           inkscape:connector-curvature="0"
           style="fill:#1890d0" />
      </g>
    </clipPath>
    <clipPath
       id="clipPath-284952804">
      <g
         transform="translate(0,-1004.3622)"
         id="g17">
        <path
           d="m -24,13 c 0,1.105 -0.672,2 -1.5,2 -0.828,0 -1.5,-0.895 -1.5,-2 0,-1.105 0.672,-2 1.5,-2 0.828,0 1.5,0.895 1.5,2 z"
           transform="matrix(15.333333,0,0,11.5,414.99999,878.8622)"
           id="path19"
           inkscape:connector-curvature="0"
           style="fill:#1890d0" />
      </g>
    </clipPath>
    <linearGradient
       inkscape:collect="always"
       xlink:href="#linearGradient3764"
       id="linearGradient3806"
       gradientUnits="userSpaceOnUse"
       gradientTransform="rotate(-90,23.999998,24)"
       x1="1"
       x2="47" />
  </defs>
  <sodipodi:namedview
     id="base"
     pagecolor="#ffffff"
     bordercolor="#666666"
     borderopacity="1.0"
     inkscape:pageopacity="0.0"
     inkscape:pageshadow="2"
     inkscape:zoom="0.33320313"
     inkscape:cx="352.9802"
     inkscape:cy="192.56322"
     inkscape:document-units="mm"
     inkscape:current-layer="layer1"
     showgrid="true"
     units="px"
     inkscape:window-width="1360"
     inkscape:window-height="718"
     inkscape:window-x="0"
     inkscape:window-y="26"
     inkscape:window-maximized="1">
    <inkscape:grid
       type="xygrid"
       id="grid958" />
  </sodipodi:namedview>
  <metadata
     id="metadata1153">
    <rdf:RDF>
      <cc:Work
         rdf:about="">
        <dc:format>image/svg+xml</dc:format>
        <dc:type
           rdf:resource="http://purl.org/dc/dcmitype/StillImage" />
        <dc:title></dc:title>
      </cc:Work>
    </rdf:RDF>
  </metadata>
  <g
     inkscape:label="Capa 1"
     inkscape:groupmode="layer"
     id="layer1"
     transform="translate(0,-161.53332)">
    <circle
       style="opacity:1;fill:#edca3f;fill-opacity:1;stroke:none;stroke-width:0.7326923;stroke-linecap:round;stroke-linejoin:round;stroke-miterlimit:4;stroke-dasharray:none;stroke-dashoffset:0;stroke-opacity:1"
       id="path1706"
       cx="-64.375374"
       cy="-226.43636"
       r="63.499996"
       transform="scale(-1)" />
    <path
       transform="scale(-1)"
       style="opacity:1;fill:#1fb98f;fill-opacity:1;stroke:none;stroke-width:0.7326923;stroke-linecap:round;stroke-linejoin:round;stroke-miterlimit:4;stroke-dasharray:none;stroke-dashoffset:0;stroke-opacity:1"
       d="M -0.87537766,-226.43636 H -127.87537 c 0,-35.07008 28.429919,-63.49999 63.499996,-63.49999 35.070077,0 63.49999303,28.42991 63.49999634,63.49999 z"
       id="circle960"
       inkscape:connector-curvature="0"
       sodipodi:nodetypes="ccsc" />
    <path
       style="opacity:1;fill:#008bcb;fill-opacity:1;stroke:none;stroke-width:3.23911548;stroke-linecap:round;stroke-linejoin:round;stroke-miterlimit:4;stroke-dasharray:none;stroke-dashoffset:0;stroke-opacity:0.97260275"
       d="M 285 272 C 273.92 272 265 280.92 265 292 L 265 377.54492 A 113.36904 113.36904 0 0 0 264.69141 385.77344 A 113.36904 113.36904 0 0 0 378.05859 499.14258 A 113.36904 113.36904 0 0 0 491.42773 385.77344 A 113.36904 113.36904 0 0 0 378.05859 272.4043 A 113.36904 113.36904 0 0 0 374.69727 272.57227 C 373.18932 272.2113 371.62168 272 370 272 L 285 272 z "
       transform="matrix(0.26458333,0,0,0.26458333,0,161.53332)"
       id="path1902" />
    <path
       style="opacity:1;fill:#ffffff;fill-opacity:1;stroke:none;stroke-width:2.70521522;stroke-linecap:round;stroke-linejoin:round;stroke-miterlimit:4;stroke-dasharray:none;stroke-dashoffset:0;stroke-opacity:0.97260275"
       d="M 299.41211 292 C 289.98101 292 282.38867 299.30904 282.38867 308.38867 L 282.38867 378.49023 A 96.497711 92.90149 0 0 0 282.12695 385.23242 A 96.497711 92.90149 0 0 0 378.62305 478.13477 A 96.497711 92.90149 0 0 0 475.12109 385.23242 A 96.497711 92.90149 0 0 0 378.62305 292.33203 A 96.497711 92.90149 0 0 0 375.76172 292.46875 C 374.47816 292.17281 373.14405 292 371.76367 292 L 299.41211 292 z M 405.35547 327.49414 C 407.91166 327.49414 410.4671 328.47294 412.42578 330.43164 L 426.56836 344.57422 C 430.48573 348.49159 430.48573 354.79748 426.56836 358.71484 L 415.96289 369.32227 L 419.49805 372.85742 C 421.45675 374.81609 420.66848 378.75925 417.73047 381.69727 C 414.79242 384.63532 410.84933 385.42351 408.89062 383.46484 L 401.82031 376.39258 L 352.32227 425.89062 C 350.22169 427.99121 346.97813 428.49973 343.51758 427.625 L 334.64453 436.49805 C 330.72716 440.41541 324.41933 440.41541 320.50195 436.49805 C 316.58458 432.58064 316.58458 426.27284 320.50195 422.35547 L 329.375 413.48242 C 328.50028 410.02185 329.0088 406.77828 331.10938 404.67773 L 380.60742 355.17969 L 373.53516 348.10938 C 371.57647 346.15067 372.3647 342.20758 375.30273 339.26953 C 378.24076 336.33152 382.18388 335.54325 384.14258 337.50195 L 387.67773 341.03711 L 398.28516 330.43164 C 400.24384 328.47294 402.79928 327.49414 405.35547 327.49414 z "
       transform="matrix(0.26458333,0,0,0.26458333,0,161.53332)"
       id="path956" />
    <path
       transform="scale(-1)"
       style="opacity:1;fill:#e35249;fill-opacity:1;stroke:none;stroke-width:0.7326923;stroke-linecap:round;stroke-linejoin:round;stroke-miterlimit:4;stroke-dasharray:none;stroke-dashoffset:0;stroke-opacity:1"
       d="m -0.87537766,-226.43636 c 2.21e-6,35.07008 -28.42991534,63.5 -63.49999634,63.5 l 0,-126.99999 c 35.070077,0 63.49999303,28.42991 63.49999634,63.49999 z"
       id="circle963"
       inkscape:connector-curvature="0"
       sodipodi:nodetypes="sccs" />
  </g>
</svg>
