<?xml version="1.0" encoding="UTF-8" standalone="no"?>
<!-- Created with Inkscape (http://www.inkscape.org/) -->

<svg
   xmlns:dc="http://purl.org/dc/elements/1.1/"
   xmlns:cc="http://creativecommons.org/ns#"
   xmlns:rdf="http://www.w3.org/1999/02/22-rdf-syntax-ns#"
   xmlns:svg="http://www.w3.org/2000/svg"
   xmlns="http://www.w3.org/2000/svg"
   xmlns:sodipodi="http://sodipodi.sourceforge.net/DTD/sodipodi-0.dtd"
   xmlns:inkscape="http://www.inkscape.org/namespaces/inkscape"
   width="512"
   height="512"
   id="svg2"
   version="1.1"
   inkscape:version="0.48.4 r9939"
   sodipodi:docname="pidgin.svg"
   inkscape:export-filename="/home/silerio/Imágenes/iconos/pidgin.png"
   inkscape:export-xdpi="90"
   inkscape:export-ydpi="90">
  <defs
     id="defs4">
    <clipPath
       clipPathUnits="userSpaceOnUse"
       id="clipPath3764">
      <path
         transform="matrix(1.1842024,0,0,1.1842024,-57.405563,467.28782)"
         d="m 347.14285,247.71428 a 145.71428,145.71428 0 1 1 -291.428556,0 145.71428,145.71428 0 1 1 291.428556,0 z"
         sodipodi:ry="145.71428"
         sodipodi:rx="145.71428"
         sodipodi:cy="247.71428"
         sodipodi:cx="201.42857"
         id="path3766"
         style="fill:#ca53a9;fill-opacity:1;fill-rule:evenodd;stroke:none"
         sodipodi:type="arc" />
    </clipPath>
  </defs>
  <sodipodi:namedview
     id="base"
     pagecolor="#ffffff"
     bordercolor="#666666"
     borderopacity="1.0"
     inkscape:pageopacity="0.0"
     inkscape:pageshadow="2"
     inkscape:zoom="0.7"
     inkscape:cx="234.16323"
     inkscape:cy="148.38645"
     inkscape:document-units="px"
     inkscape:current-layer="layer1"
     showgrid="false"
     showguides="true"
     inkscape:guide-bbox="true"
     inkscape:window-width="757"
     inkscape:window-height="566"
     inkscape:window-x="208"
     inkscape:window-y="121"
     inkscape:window-maximized="0" />
  <metadata
     id="metadata7">
    <rdf:RDF>
      <cc:Work
         rdf:about="">
        <dc:format>image/svg+xml</dc:format>
        <dc:type
           rdf:resource="http://purl.org/dc/dcmitype/StillImage" />
        <dc:title></dc:title>
      </cc:Work>
    </rdf:RDF>
  </metadata>
  <g
     inkscape:label="Capa 1"
     inkscape:groupmode="layer"
     id="layer1"
     transform="translate(0,-540.36218)">
    <path
       sodipodi:type="arc"
       style="fill:#ca5387;fill-opacity:1;fill-rule:evenodd;stroke:none"
       id="path2985"
       sodipodi:cx="201.42857"
       sodipodi:cy="247.71428"
       sodipodi:rx="145.71428"
       sodipodi:ry="145.71428"
       d="m 347.14285,247.71428 a 145.71428,145.71428 0 1 1 -291.428556,0 145.71428,145.71428 0 1 1 291.428556,0 z"
       transform="matrix(1.1842024,0,0,1.1842024,-58.834135,507.28782)" />
    <path
       inkscape:connector-curvature="0"
       id="path3760"
       d="m 321.06094,603.79604 c -95.29959,0 -172.56049,77.26089 -172.56049,172.56049 0,95.2996 77.2609,172.5605 172.56049,172.5605 6.15846,0 12.21533,-0.36991 18.20711,-0.99918 l 121.01068,32.41754 -37.33937,-64.72406 c 42.84846,-31.39699 70.68207,-82.06394 70.68207,-139.2548 0,-95.2996 -77.2609,-172.56049 -172.56049,-172.56049 z"
       style="fill:#000000;fill-opacity:0.20297032;fill-rule:evenodd;stroke:none"
       clip-path="url(#clipPath3764)"
       transform="translate(-1.4285714,40)" />
    <path
       style="fill:#8b5ddf;fill-opacity:1;fill-rule:evenodd;stroke:none"
       d="M 333.96875 88.03125 C 238.66915 88.03125 161.4375 165.29415 161.4375 260.59375 C 161.4375 325.99736 197.80252 382.92121 251.4375 412.1875 L 214.28125 482 L 333.71875 433.15625 C 333.8026 433.15637 333.88488 433.15625 333.96875 433.15625 C 429.26835 433.15625 506.53125 355.89335 506.53125 260.59375 C 506.53125 165.29415 429.26835 88.03125 333.96875 88.03125 z "
       transform="translate(0,540.36218)"
       id="path3963" />
    <path
       sodipodi:type="arc"
       style="fill:#ffd2c7;fill-opacity:1;fill-rule:evenodd;stroke:none"
       id="path3768"
       sodipodi:cx="235.71428"
       sodipodi:cy="262"
       sodipodi:rx="30"
       sodipodi:ry="30"
       d="m 265.71428,262 a 30,30 0 1 1 -60,0 30,30 0 1 1 60,0 z"
       transform="translate(99.632382,580.36218)" />
    <path
       transform="translate(13.918095,580.36218)"
       d="m 265.71428,262 a 30,30 0 1 1 -60,0 30,30 0 1 1 60,0 z"
       sodipodi:ry="30"
       sodipodi:rx="30"
       sodipodi:cy="262"
       sodipodi:cx="235.71428"
       id="path3770"
       style="fill:#ffd2c7;fill-opacity:1;fill-rule:evenodd;stroke:none"
       sodipodi:type="arc" />
    <path
       sodipodi:type="arc"
       style="fill:#ffd2c7;fill-opacity:1;fill-rule:evenodd;stroke:none"
       id="path3772"
       sodipodi:cx="235.71428"
       sodipodi:cy="262"
       sodipodi:rx="30"
       sodipodi:ry="30"
       d="m 265.71428,262 a 30,30 0 1 1 -60,0 30,30 0 1 1 60,0 z"
       transform="translate(185.34666,580.36218)" />
    <path
       style="fill:#ffffff;fill-opacity:0.05940594;fill-rule:evenodd;stroke:none"
       d="m 335.35267,628.08093 c -95.29959,0 -172.5625,77.2629 -172.5625,172.5625 0,2.71591 0.0634,5.40851 0.1875,8.09375 4.21578,-91.55267 79.78085,-164.5 172.375,-164.5 92.45763,0 167.92422,72.731 172.34375,164.09375 0.11176,-2.54829 0.21875,-5.11158 0.21875,-7.6875 0,-95.2996 -77.26291,-172.5625 -172.5625,-172.5625 z m 108.3125,323 c -2.11143,1.7051 -4.24579,3.36278 -6.4375,4.96875 l 26.3125,45.62502 11.03125,2.9375 -30.90625,-53.53127 z"
       id="path3779"
       inkscape:connector-curvature="0" />
  </g>
</svg>
