<?xml version="1.0" encoding="UTF-8" standalone="no"?>
<!-- Created with Inkscape (http://www.inkscape.org/) -->

<svg
   xmlns:dc="http://purl.org/dc/elements/1.1/"
   xmlns:cc="http://creativecommons.org/ns#"
   xmlns:rdf="http://www.w3.org/1999/02/22-rdf-syntax-ns#"
   xmlns:svg="http://www.w3.org/2000/svg"
   xmlns="http://www.w3.org/2000/svg"
   xmlns:sodipodi="http://sodipodi.sourceforge.net/DTD/sodipodi-0.dtd"
   xmlns:inkscape="http://www.inkscape.org/namespaces/inkscape"
   width="48"
   height="48"
   id="svg2"
   version="1.1"
   inkscape:version="0.48.4 r9939"
   sodipodi:docname="preferences-system.svg">
  <defs
     id="defs4">
    <clipPath
       clipPathUnits="userSpaceOnUse"
       id="clipPath3891">
      <path
         sodipodi:nodetypes="scccccccccccccsscccccccccccccss"
         inkscape:connector-curvature="0"
         id="path3893"
         d="m 14.929796,1019.9515 c -1.088214,0 -1.96875,0.8806 -1.96875,1.9688 0.166816,1.3072 -0.268516,1.3767 -1.328125,1.9999 -1.104701,0.7979 -1.295073,0.8007 -2.3906252,0.1563 -0.942421,-0.5441 -2.143393,-0.2237 -2.6875,0.7188 l -0.8125,1.4062 c -0.544107,0.9424 -0.223671,2.1434 0.71875,2.6875 1.207179,0.5004 1.034696,0.9384 1.046875,2.1563 0.137759,1.3588 0.06562,1.5346 -1.046875,2.1562 -0.942421,0.5441 -1.262857,1.7138 -0.71875,2.6563 l 0.8125,1.4062 c 0.544107,0.9424 1.745079,1.2629 2.6875,0.7188 1.0596202,-0.7832 1.3312692,-0.4357 2.3906252,0.1875 1.203764,0.5637 1.328125,0.7296 1.328125,1.9687 0,1.0882 0.880536,1.9688 1.96875,1.9688 l 1.625,0 c 1.088214,0 1.96875,-0.8806 1.96875,-1.9688 -0.167594,-1.2868 0.290497,-1.3618 1.328125,-1.9843 1.103834,-0.8098 1.289728,-0.8195 2.390625,-0.1719 0.942421,0.5441 2.143393,0.2236 2.6875,-0.7188 l 0.8125,-1.4062 c 0.544107,-0.9425 0.223671,-2.1122 -0.71875,-2.6563 -1.207208,-0.5003 -1.034697,-0.9383 -1.04688,-2.1562 -0.137778,-1.3588 -0.06559,-1.5346 1.04687,-2.1563 0.942421,-0.5441 1.262857,-1.7451 0.71875,-2.6875 l -0.8125,-1.4062 c -0.544107,-0.9425 -1.745079,-1.2629 -2.6875,-0.7188 -1.057834,0.8147 -1.317775,0.4748 -2.390625,-0.1563 -1.220815,-0.569 -1.328125,-0.7444 -1.328125,-1.9999 0,-1.0882 -0.880536,-1.9688 -1.96875,-1.9688 z"
         style="color:#000000;fill:#385a5a;fill-opacity:1;fill-rule:evenodd;stroke:none;stroke-width:16;marker:none;visibility:visible;display:inline;overflow:visible;enable-background:accumulate" />
    </clipPath>
  </defs>
  <sodipodi:namedview
     id="base"
     pagecolor="#ffffff"
     bordercolor="#666666"
     borderopacity="1.0"
     inkscape:pageopacity="0.0"
     inkscape:pageshadow="2"
     inkscape:zoom="7.9195959"
     inkscape:cx="25.285091"
     inkscape:cy="24.237389"
     inkscape:document-units="px"
     inkscape:current-layer="layer1"
     showgrid="false"
     showguides="true"
     inkscape:guide-bbox="true"
     inkscape:window-width="1360"
     inkscape:window-height="721"
     inkscape:window-x="0"
     inkscape:window-y="25"
     inkscape:window-maximized="1" />
  <metadata
     id="metadata7">
    <rdf:RDF>
      <cc:Work
         rdf:about="">
        <dc:format>image/svg+xml</dc:format>
        <dc:type
           rdf:resource="http://purl.org/dc/dcmitype/StillImage" />
        <dc:title />
      </cc:Work>
    </rdf:RDF>
  </metadata>
  <g
     inkscape:label="Capa 1"
     inkscape:groupmode="layer"
     id="layer1"
     transform="translate(0,-1004.3622)">
    <path
       style="color:#000000;fill:#483166;fill-opacity:1;fill-rule:evenodd;stroke:none;stroke-width:16;marker:none;visibility:visible;display:inline;overflow:visible;enable-background:accumulate"
       d="m 15.837843,1015.3876 c -1.585246,0 -2.867959,1.2828 -2.867959,2.8681 0.243009,1.9042 -0.391157,2.0055 -1.934732,2.9132 -1.6092629,1.1624 -1.8865859,1.1665 -3.4825214,0.2278 -1.3728632,-0.7927 -3.1223679,-0.3259 -3.9149907,1.0471 l -1.1836017,2.0485 c -0.7926227,1.3728 -0.3258306,3.1223 1.0470323,3.9149 1.7585467,0.729 1.5072837,1.367 1.5250253,3.1413 0.2006792,1.9793 0.095591,2.2354 -1.5250253,3.1409 -1.3728629,0.7927 -1.839655,2.4966 -1.0470323,3.8696 l 1.1836017,2.0484 c 0.7926228,1.3729 2.5421275,1.8397 3.9149907,1.0471 1.5435915,-1.1409 1.9393135,-0.6347 3.4825214,0.2732 1.753571,0.8212 1.934732,1.0628 1.934732,2.8679 0,1.5852 1.282713,2.868 2.867959,2.868 l 2.367204,0 c 1.585245,0 2.867957,-1.2828 2.867957,-2.868 -0.244141,-1.8746 0.42318,-1.9838 1.934734,-2.8907 1.607999,-1.1796 1.8788,-1.1937 3.48252,-0.2504 1.372863,0.7926 3.122368,0.3258 3.914991,-1.0471 l 1.183602,-2.0484 c 0.792622,-1.373 0.325831,-3.0769 -1.047032,-3.8696 -1.758589,-0.7288 -1.507286,-1.3668 -1.525033,-3.1409 -0.200707,-1.9795 -0.09555,-2.2356 1.525017,-3.1413 1.372864,-0.7926 1.839656,-2.5421 1.047033,-3.9149 l -1.183602,-2.0485 c -0.792622,-1.373 -2.542128,-1.8398 -3.91499,-1.0471 -1.540989,1.1868 -1.919657,0.6916 -3.48252,-0.2278 -1.778411,-0.8288 -1.934734,-1.0843 -1.934734,-2.9132 0,-1.5853 -1.282713,-2.8681 -2.867958,-2.8681 z"
       id="rect3865"
       inkscape:connector-curvature="0"
       sodipodi:nodetypes="scccccccccccccsscccccccccccccss" />
    <path
       style="color:#000000;fill:#000000;fill-opacity:0.38118813;fill-rule:evenodd;stroke:none;stroke-width:16;marker:none;visibility:visible;display:inline;overflow:visible;enable-background:accumulate"
       d="m 23.501224,1016.7373 c -1.088214,0 -1.96875,0.8806 -1.96875,1.9688 0.166816,1.3072 -0.268516,1.3767 -1.328125,1.9999 -1.104701,0.7979 -1.295073,0.8007 -2.390625,0.1563 -0.942421,-0.5441 -2.143393,-0.2237 -2.6875,0.7188 l -0.8125,1.4062 c -0.544107,0.9424 -0.223671,2.1434 0.71875,2.6875 1.207179,0.5004 1.034696,0.9384 1.046875,2.1563 0.137759,1.3588 0.06562,1.5346 -1.046875,2.1562 -0.942421,0.5441 -1.262857,1.7138 -0.71875,2.6563 l 0.8125,1.4062 c 0.544107,0.9424 1.745079,1.2629 2.6875,0.7188 1.05962,-0.7832 1.331269,-0.4357 2.390625,0.1875 1.203764,0.5637 1.328125,0.7296 1.328125,1.9687 0,1.0882 0.880536,1.9688 1.96875,1.9688 l 1.625,0 c 1.088214,0 1.96875,-0.8806 1.96875,-1.9688 -0.167594,-1.2868 0.290497,-1.3618 1.328125,-1.9843 1.103834,-0.8098 1.289728,-0.8195 2.390625,-0.1719 0.942421,0.5441 2.143393,0.2236 2.6875,-0.7188 l 0.8125,-1.4062 c 0.544107,-0.9425 0.223671,-2.1122 -0.71875,-2.6563 -1.207208,-0.5003 -1.034697,-0.9383 -1.04688,-2.1562 -0.137778,-1.3588 -0.06559,-1.5346 1.04687,-2.1563 0.942421,-0.5441 1.262857,-1.7451 0.71875,-2.6875 l -0.8125,-1.4062 c -0.544107,-0.9425 -1.745079,-1.2629 -2.6875,-0.7188 -1.057834,0.8147 -1.317775,0.4748 -2.390625,-0.1563 -1.220815,-0.569 -1.328125,-0.7444 -1.328125,-1.9999 0,-1.0882 -0.880536,-1.9688 -1.96875,-1.9688 z"
       id="path3883"
       inkscape:connector-curvature="0"
       sodipodi:nodetypes="scccccccccccccsscccccccccccccss"
       clip-path="url(#clipPath3891)"
       transform="matrix(1.4567407,0,0,1.4567407,-5.9109974,-470.41713)" />
    <path
       sodipodi:nodetypes="scccccccccccccsscccccccccccccss"
       inkscape:connector-curvature="0"
       id="path3881"
       d="m 29.624851,1009.4046 c -1.585245,0 -2.867958,1.2828 -2.867958,2.8681 0.243008,1.9042 -0.391158,2.0055 -1.934734,2.9133 -1.609263,1.1623 -1.886586,1.1664 -3.482521,0.2277 -1.372862,-0.7926 -3.122367,-0.3258 -3.914989,1.0471 l -1.183603,2.0485 c -0.792622,1.3728 -0.32583,3.1223 1.047033,3.915 1.758546,0.7289 1.507284,1.3669 1.525026,3.1411 0.200678,1.9794 0.09559,2.2355 -1.525026,3.1411 -1.372863,0.7926 -1.839655,2.4965 -1.047033,3.8695 l 1.183603,2.0484 c 0.792622,1.3729 2.542127,1.8398 3.914989,1.0471 1.543592,-1.1409 1.939315,-0.6346 3.482521,0.2732 1.753572,0.8212 1.934734,1.0628 1.934734,2.8679 0,1.5852 1.282713,2.868 2.867958,2.868 l 2.367204,0 c 1.585246,0 2.867957,-1.2828 2.867957,-2.868 -0.24414,-1.8746 0.42318,-1.9839 1.934734,-2.8907 1.608,-1.1796 1.878799,-1.1937 3.482521,-0.2504 1.372863,0.7927 3.122367,0.3258 3.914991,-1.0471 l 1.183601,-2.0484 c 0.792623,-1.373 0.32583,-3.0769 -1.047032,-3.8695 -1.758589,-0.7289 -1.507285,-1.3669 -1.525033,-3.1411 -0.200707,-1.9794 -0.09555,-2.2355 1.525018,-3.1411 1.372863,-0.7927 1.839655,-2.5422 1.047033,-3.915 l -1.183602,-2.0485 c -0.792623,-1.3729 -2.542128,-1.8397 -3.91499,-1.0471 -1.540991,1.1868 -1.919657,0.6916 -3.482521,-0.2277 -1.778411,-0.8289 -1.934734,-1.0844 -1.934734,-2.9133 0,-1.5853 -1.282712,-2.8681 -2.867958,-2.8681 z"
       style="color:#000000;fill:#38435a;fill-opacity:1;fill-rule:evenodd;stroke:none;stroke-width:16;marker:none;visibility:visible;display:inline;overflow:visible;enable-background:accumulate" />
    <rect
       style="color:#000000;fill:#000000;fill-opacity:0.38118813;fill-rule:evenodd;stroke:none;stroke-width:16;marker:none;visibility:visible;display:inline;overflow:visible;enable-background:accumulate"
       id="rect3895"
       width="14.322233"
       height="6.4379449"
       x="23.647335"
       y="1022.3236"
       ry="2.8614547" />
    <path
       style="color:#000000;fill:#ffffff;fill-opacity:0.05499998;fill-rule:evenodd;stroke:none;stroke-width:16;marker:none;visibility:visible;display:inline;overflow:visible;enable-background:accumulate"
       d="m 23.633523,1025.91 0,0.2275 c 0,1.5853 1.282713,2.868 2.867958,2.868 l 8.603874,0 c 1.469085,0 2.653923,-1.127 2.822435,-2.5493 -0.265947,1.3063 -1.435345,2.3217 -2.822435,2.3217 l -8.603874,0 c -1.585245,0 -2.867958,-1.2827 -2.867958,-2.8679 z"
       id="rect3910"
       inkscape:connector-curvature="0" />
    <path
       sodipodi:type="arc"
       style="fill:#d9c4b7;fill-opacity:1;fill-rule:evenodd;stroke:none"
       id="path3897"
       sodipodi:cx="22.63373"
       sodipodi:cy="22.904022"
       sodipodi:rx="2.3675451"
       sodipodi:ry="2.3675451"
       d="m 25.001275,22.904022 c 0,1.307559 -1.059986,2.367545 -2.367545,2.367545 -1.307559,0 -2.367545,-1.059986 -2.367545,-2.367545 0,-1.307559 1.059986,-2.367545 2.367545,-2.367545 1.307559,0 2.367545,1.059986 2.367545,2.367545 z"
       transform="matrix(1.4567407,0,0,1.4567407,-5.8752381,992.1774)" />
  </g>
</svg>
