<?xml version="1.0" encoding="UTF-8" standalone="no"?>
<!-- Created with Inkscape (http://www.inkscape.org/) -->

<svg
   xmlns:dc="http://purl.org/dc/elements/1.1/"
   xmlns:cc="http://creativecommons.org/ns#"
   xmlns:rdf="http://www.w3.org/1999/02/22-rdf-syntax-ns#"
   xmlns:svg="http://www.w3.org/2000/svg"
   xmlns="http://www.w3.org/2000/svg"
   xmlns:sodipodi="http://sodipodi.sourceforge.net/DTD/sodipodi-0.dtd"
   xmlns:inkscape="http://www.inkscape.org/namespaces/inkscape"
   width="512"
   height="512"
   id="svg2"
   version="1.1"
   inkscape:version="0.48.4 r9939"
   sodipodi:docname="cs-cat-prefs.svg">
  <defs
     id="defs4">
    <clipPath
       clipPathUnits="userSpaceOnUse"
       id="clipPath3891">
      <path
         sodipodi:nodetypes="scccccccccccccsscccccccccccccss"
         inkscape:connector-curvature="0"
         id="path3893"
         d="m 14.929796,1019.9515 c -1.088214,0 -1.96875,0.8806 -1.96875,1.9688 0.166816,1.3072 -0.268516,1.3767 -1.328125,1.9999 -1.104701,0.7979 -1.295073,0.8007 -2.3906252,0.1563 -0.942421,-0.5441 -2.143393,-0.2237 -2.6875,0.7188 l -0.8125,1.4062 c -0.544107,0.9424 -0.223671,2.1434 0.71875,2.6875 1.207179,0.5004 1.034696,0.9384 1.046875,2.1563 0.137759,1.3588 0.06562,1.5346 -1.046875,2.1562 -0.942421,0.5441 -1.262857,1.7138 -0.71875,2.6563 l 0.8125,1.4062 c 0.544107,0.9424 1.745079,1.2629 2.6875,0.7188 1.0596202,-0.7832 1.3312692,-0.4357 2.3906252,0.1875 1.203764,0.5637 1.328125,0.7296 1.328125,1.9687 0,1.0882 0.880536,1.9688 1.96875,1.9688 l 1.625,0 c 1.088214,0 1.96875,-0.8806 1.96875,-1.9688 -0.167594,-1.2868 0.290497,-1.3618 1.328125,-1.9843 1.103834,-0.8098 1.289728,-0.8195 2.390625,-0.1719 0.942421,0.5441 2.143393,0.2236 2.6875,-0.7188 l 0.8125,-1.4062 c 0.544107,-0.9425 0.223671,-2.1122 -0.71875,-2.6563 -1.207208,-0.5003 -1.034697,-0.9383 -1.04688,-2.1562 -0.137778,-1.3588 -0.06559,-1.5346 1.04687,-2.1563 0.942421,-0.5441 1.262857,-1.7451 0.71875,-2.6875 l -0.8125,-1.4062 c -0.544107,-0.9425 -1.745079,-1.2629 -2.6875,-0.7188 -1.057834,0.8147 -1.317775,0.4748 -2.390625,-0.1563 -1.220815,-0.569 -1.328125,-0.7444 -1.328125,-1.9999 0,-1.0882 -0.880536,-1.9688 -1.96875,-1.9688 z"
         style="color:#000000;fill:#385a5a;fill-opacity:1;fill-rule:evenodd;stroke:none;stroke-width:16;marker:none;visibility:visible;display:inline;overflow:visible;enable-background:accumulate" />
    </clipPath>
  </defs>
  <sodipodi:namedview
     id="base"
     pagecolor="#ffffff"
     bordercolor="#666666"
     borderopacity="1.0"
     inkscape:pageopacity="0.0"
     inkscape:pageshadow="2"
     inkscape:zoom="0.7"
     inkscape:cx="25.537629"
     inkscape:cy="195.66596"
     inkscape:document-units="px"
     inkscape:current-layer="layer1"
     showgrid="false"
     showguides="true"
     inkscape:guide-bbox="true"
     inkscape:window-width="1360"
     inkscape:window-height="721"
     inkscape:window-x="0"
     inkscape:window-y="25"
     inkscape:window-maximized="1" />
  <metadata
     id="metadata7">
    <rdf:RDF>
      <cc:Work
         rdf:about="">
        <dc:format>image/svg+xml</dc:format>
        <dc:type
           rdf:resource="http://purl.org/dc/dcmitype/StillImage" />
        <dc:title />
      </cc:Work>
    </rdf:RDF>
  </metadata>
  <g
     inkscape:label="Capa 1"
     inkscape:groupmode="layer"
     id="layer1"
     transform="translate(0,-540.3622)">
    <path
       style="color:#000000;fill:#46937e;fill-opacity:1;fill-rule:evenodd;stroke:none;stroke-width:16;marker:none;visibility:visible;display:inline;overflow:visible;enable-background:accumulate"
       d="m 167.98141,661.40578 c -16.30492,0 -29.49816,13.19413 -29.49816,29.49961 2.49945,19.58548 -4.02321,20.6274 -19.89952,29.96347 -16.55194,11.95577 -19.40432,11.99794 -35.819182,2.34302 -14.12047,-8.15325 -32.114855,-3.35202 -40.26731,10.76986 l -12.173837,21.06968 c -8.152454,14.11982 -3.351303,32.11415 10.769163,40.26637 18.087387,7.49808 15.503042,14.06017 15.685521,32.30958 2.064069,20.35793 0.983193,22.99202 -15.685521,32.30546 -14.120466,8.15326 -18.921617,25.67858 -10.769163,39.80045 l 12.173837,21.06866 c 8.152455,14.12084 26.14684,18.92207 40.26731,10.76985 15.876482,-11.73463 19.946652,-6.52815 35.819182,2.80998 18.03621,8.44637 19.89952,10.93134 19.89952,29.49752 0,16.3045 13.19324,29.4986 29.49816,29.4986 l 24.34767,0 c 16.30491,0 29.49814,-13.1941 29.49814,-29.4986 -2.51109,-19.28104 4.35258,-20.40423 19.89955,-29.73203 16.53894,-12.13267 19.32424,-12.2777 35.81917,-2.57547 14.12046,8.15222 32.11485,3.35099 40.26731,-10.76985 l 12.17384,-21.06866 c 8.15244,-14.12187 3.3513,-31.64719 -10.76917,-39.80045 -18.08782,-7.49601 -15.50306,-14.0581 -15.6856,-32.30546 -2.06435,-20.35998 -0.98276,-22.99408 15.68544,-32.30958 14.12048,-8.15222 18.92163,-26.14655 10.76917,-40.26637 l -12.17384,-21.06968 c -8.15245,-14.12188 -26.14685,-18.92311 -40.2673,-10.76986 -15.84972,12.20673 -19.74448,7.1134 -35.81917,-2.34302 -18.2917,-8.52455 -19.89954,-11.15247 -19.89954,-29.96347 0,-16.30548 -13.19324,-29.49961 -29.49814,-29.49961 z"
       id="rect3865"
       inkscape:connector-curvature="0"
       sodipodi:nodetypes="scccccccccccccsscccccccccccccss" />
    <path
       style="color:#000000;fill:#000000;fill-opacity:0.38118813;fill-rule:evenodd;stroke:none;stroke-width:16;marker:none;visibility:visible;display:inline;overflow:visible;enable-background:accumulate"
       d="m 23.501224,1016.7373 c -1.088214,0 -1.96875,0.8806 -1.96875,1.9688 0.166816,1.3072 -0.268516,1.3767 -1.328125,1.9999 -1.104701,0.7979 -1.295073,0.8007 -2.390625,0.1563 -0.942421,-0.5441 -2.143393,-0.2237 -2.6875,0.7188 l -0.8125,1.4062 c -0.544107,0.9424 -0.223671,2.1434 0.71875,2.6875 1.207179,0.5004 1.034696,0.9384 1.046875,2.1563 0.137759,1.3588 0.06562,1.5346 -1.046875,2.1562 -0.942421,0.5441 -1.262857,1.7138 -0.71875,2.6563 l 0.8125,1.4062 c 0.544107,0.9424 1.745079,1.2629 2.6875,0.7188 1.05962,-0.7832 1.331269,-0.4357 2.390625,0.1875 1.203764,0.5637 1.328125,0.7296 1.328125,1.9687 0,1.0882 0.880536,1.9688 1.96875,1.9688 l 1.625,0 c 1.088214,0 1.96875,-0.8806 1.96875,-1.9688 -0.167594,-1.2868 0.290497,-1.3618 1.328125,-1.9843 1.103834,-0.8098 1.289728,-0.8195 2.390625,-0.1719 0.942421,0.5441 2.143393,0.2236 2.6875,-0.7188 l 0.8125,-1.4062 c 0.544107,-0.9425 0.223671,-2.1122 -0.71875,-2.6563 -1.207208,-0.5003 -1.034697,-0.9383 -1.04688,-2.1562 -0.137778,-1.3588 -0.06559,-1.5346 1.04687,-2.1563 0.942421,-0.5441 1.262857,-1.7451 0.71875,-2.6875 l -0.8125,-1.4062 c -0.544107,-0.9425 -1.745079,-1.2629 -2.6875,-0.7188 -1.057834,0.8147 -1.317775,0.4748 -2.390625,-0.1563 -1.220815,-0.569 -1.328125,-0.7444 -1.328125,-1.9999 0,-1.0882 -0.880536,-1.9688 -1.96875,-1.9688 z"
       id="path3883"
       inkscape:connector-curvature="0"
       sodipodi:nodetypes="scccccccccccccsscccccccccccccss"
       clip-path="url(#clipPath3891)"
       transform="matrix(14.983185,0,0,14.983185,-55.714476,-14620.715)" />
    <path
       sodipodi:nodetypes="scccccccccccccsscccccccccccccss"
       inkscape:connector-curvature="0"
       id="path3881"
       d="m 309.78653,599.86813 c -16.3049,0 -29.49814,13.19413 -29.49814,29.49961 2.49943,19.58549 -4.02323,20.6274 -19.89955,29.9645 -16.55194,11.95475 -19.40432,11.99691 -35.81918,2.34199 -14.12046,-8.15222 -32.11485,-3.35099 -40.2673,10.76987 l -12.17384,21.06967 c -8.15246,14.11982 -3.3513,32.11415 10.76917,40.26741 18.08738,7.49704 15.50304,14.05913 15.68553,32.30751 2.06405,20.35896 0.98318,22.99306 -15.68553,32.30753 -14.12047,8.15222 -18.92163,25.67754 -10.76917,39.79941 l 12.17384,21.06866 c 8.15245,14.12084 26.14684,18.9231 40.2673,10.76986 15.87649,-11.73463 19.94666,-6.52713 35.81918,2.80997 18.03622,8.44638 19.89955,10.93134 19.89955,29.49754 0,16.30445 13.19324,29.49858 29.49814,29.49858 l 24.34767,0 c 16.30492,0 29.49814,-13.19413 29.49814,-29.49858 -2.51108,-19.28104 4.35258,-20.40523 19.89954,-29.73205 16.53896,-12.13267 19.32424,-12.2777 35.81918,-2.57546 14.12047,8.15324 32.11485,3.35098 40.26732,-10.76986 l 12.17383,-21.06866 c 8.15246,-14.12187 3.35129,-31.64719 -10.76917,-39.79941 -18.08781,-7.49704 -15.50305,-14.05914 -15.6856,-32.30753 -2.06435,-20.35895 -0.98276,-22.99305 15.68546,-32.30751 14.12046,-8.15326 18.92161,-26.14759 10.76916,-40.26741 L 459.61822,672.4441 c -8.15246,-14.12086 -26.14685,-18.92209 -40.2673,-10.76987 -15.84973,12.20673 -19.74447,7.1134 -35.81918,-2.34199 -18.2917,-8.52558 -19.89954,-11.1535 -19.89954,-29.9645 0,-16.30548 -13.19323,-29.49961 -29.49814,-29.49961 z"
       style="color:#000000;fill:#434f66;fill-opacity:1;fill-rule:evenodd;stroke:none;stroke-width:16;marker:none;visibility:visible;display:inline;overflow:visible;enable-background:accumulate" />
    <rect
       style="color:#000000;fill:#000000;fill-opacity:0.38118813;fill-rule:evenodd;stroke:none;stroke-width:16;marker:none;visibility:visible;display:inline;overflow:visible;enable-background:accumulate"
       id="rect3895"
       width="147.31013"
       height="66.216942"
       x="248.3053"
       y="732.74548"
       ry="29.431253" />
    <path
       style="color:#000000;fill:#ffffff;fill-opacity:0.05499998;fill-rule:evenodd;stroke:none;stroke-width:16;marker:none;visibility:visible;display:inline;overflow:visible;enable-background:accumulate"
       d="m 248.16322,769.63305 0,2.33994 c 0,16.30546 13.19324,29.49856 29.49814,29.49856 l 88.49443,0 c 15.11016,0 27.29671,-11.59166 29.02992,-26.22061 -2.73538,13.43584 -14.76312,23.87966 -29.02992,23.87966 l -88.49443,0 c -16.3049,0 -29.49814,-13.19311 -29.49814,-29.49755 z"
       id="rect3910"
       inkscape:connector-curvature="0" />
    <path
       sodipodi:type="arc"
       style="fill:#d9c4b7;fill-opacity:1;fill-rule:evenodd;stroke:none"
       id="path3897"
       sodipodi:cx="22.63373"
       sodipodi:cy="22.904022"
       sodipodi:rx="2.3675451"
       sodipodi:ry="2.3675451"
       d="m 25.001275,22.904022 a 2.3675451,2.3675451 0 1 1 -4.73509,0 2.3675451,2.3675451 0 1 1 4.73509,0 z"
       transform="matrix(14.983185,0,0,14.983185,-55.346675,422.6792)" />
  </g>
</svg>
