<?xml version="1.0" encoding="UTF-8" standalone="no"?>
<!-- Created with Inkscape (http://www.inkscape.org/) -->

<svg
   xmlns:dc="http://purl.org/dc/elements/1.1/"
   xmlns:cc="http://creativecommons.org/ns#"
   xmlns:rdf="http://www.w3.org/1999/02/22-rdf-syntax-ns#"
   xmlns:svg="http://www.w3.org/2000/svg"
   xmlns="http://www.w3.org/2000/svg"
   xmlns:sodipodi="http://sodipodi.sourceforge.net/DTD/sodipodi-0.dtd"
   xmlns:inkscape="http://www.inkscape.org/namespaces/inkscape"
   id="svg2"
   version="1.1"
   inkscape:version="0.48.4 r9939"
   width="512"
   height="512"
   sodipodi:docname="adjust-colors.svg">
  <metadata
     id="metadata8">
    <rdf:RDF>
      <cc:Work
         rdf:about="">
        <dc:format>image/svg+xml</dc:format>
        <dc:type
           rdf:resource="http://purl.org/dc/dcmitype/StillImage" />
        <dc:title />
      </cc:Work>
    </rdf:RDF>
  </metadata>
  <defs
     id="defs6" />
  <sodipodi:namedview
     pagecolor="#ffffff"
     bordercolor="#666666"
     borderopacity="1"
     objecttolerance="10"
     gridtolerance="10"
     guidetolerance="10"
     inkscape:pageopacity="0"
     inkscape:pageshadow="2"
     inkscape:window-width="1360"
     inkscape:window-height="721"
     id="namedview4"
     showgrid="false"
     inkscape:zoom="0.65186406"
     inkscape:cx="171.51667"
     inkscape:cy="128.46912"
     inkscape:window-x="0"
     inkscape:window-y="25"
     inkscape:window-maximized="1"
     inkscape:current-layer="svg2" />
  <g
     id="g3029"
     transform="matrix(2.1759788,0,0,2.1759788,-17.373608,-27.806852)">
    <path
       style="fill:#dc5de8;fill-opacity:1;fill-rule:evenodd;stroke:none"
       d="m 130.70072,34.241607 c -0.84186,0 -1.70359,0.04598 -2.5351,0.08741 -0.0144,7.15e-4 -0.0294,-7.26e-4 -0.0434,0 -3.36787,0.173565 -6.67614,0.67408 -9.8345,1.486093 -1.58539,0.407903 -3.11316,0.885868 -4.63311,1.442383 -1.52063,0.556324 -3.01121,1.182882 -4.45827,1.87947 -1.4461,0.696816 -2.87568,1.487756 -4.2398,2.316556 -3.41249,2.071367 -6.544818,4.537766 -9.353498,7.343043 -1.123555,1.122111 -2.178575,2.315394 -3.190796,3.540396 -0.506181,0.612502 -1.009284,1.199093 -1.486092,1.835761 -0.953478,1.273335 -1.836461,2.613712 -2.666155,3.977482 -0.37149,0.610339 -0.747451,1.25222 -1.092785,1.87947 -0.159588,-0.0011 -0.321135,0 -0.480724,0 -27.403399,0 -49.609322,22.205841 -49.609322,49.609249 0,9.07306 2.436212,17.55399 6.687345,24.87018 -3.562425,6.84505 -5.594699,14.60932 -5.594699,22.8596 0,27.0787 21.692888,49.09138 48.647732,49.60926 8.735425,14.17341 24.395124,23.60263 42.266134,23.60263 17.87114,0 33.53084,-9.42922 42.26628,-23.60263 26.95483,-0.5179 48.64758,-22.53057 48.64758,-49.60926 0,-8.65421 -2.22417,-16.7819 -6.11919,-23.86489 0.44015,-0.80025 0.87095,-1.62149 1.26761,-2.44768 0.0419,-0.0883 0.0895,-0.17379 0.13152,-0.26225 0.36687,-0.77569 0.72186,-1.56326 1.04901,-2.36024 0.0588,-0.14427 0.11755,-0.29216 0.17483,-0.43709 1.36931,-3.42774 2.35187,-7.04138 2.92854,-10.79603 0.0266,-0.17207 0.0196,-0.35184 0.0434,-0.5245 0.11884,-0.83362 0.22911,-1.68856 0.30603,-2.5351 0.0392,-0.4333 0.10343,-0.87481 0.13152,-1.31126 0,-0.0729 0,-0.14561 0,-0.21854 0.0588,-0.9894 0.0867,-1.968 0.0867,-2.97218 0,-0.85636 -8.4e-4,-1.73313 -0.0434,-2.57882 -0.34365,-6.77932 -2.05438,-13.175841 -4.85173,-18.969529 -0.34826,-0.72296 -0.71079,-1.39508 -1.09264,-2.098011 -1.15124,-2.119239 -2.4095,-4.157 -3.84636,-6.0755 -0.4761,-0.636668 -0.9806,-1.22326 -1.48608,-1.835762 -8.32491,-10.087534 -20.57438,-16.844516 -34.3986,-17.920522 -0.36771,-0.673629 -0.73906,-1.356364 -1.13656,-2.010595 -4.29337,-7.065989 -10.33747,-12.960431 -17.48343,-17.133768 -1.13069,-0.660407 -2.2674,-1.308258 -3.45291,-1.87947 -2.16879,-1.044881 -4.40079,-1.897898 -6.73113,-2.622515 -0.79403,-0.247962 -1.54958,-0.490764 -2.36027,-0.699338 -3.15722,-0.812306 -6.4669,-1.312458 -9.8345,-1.486093 -0.0279,-0.0014 -0.0588,0.0014 -0.0867,0 -0.83136,-0.04141 -1.64987,-0.08741 -2.49146,-0.08741 z"
       id="path3929"
       inkscape:connector-curvature="0"
       sodipodi:nodetypes="scccccccccccsscscscsccccccccccsccccscccccsccs" />
    <path
       sodipodi:type="arc"
       style="fill:#ff8080;fill-rule:evenodd;stroke:none"
       id="path3933"
       sodipodi:cx="132.88814"
       sodipodi:cy="102.01851"
       sodipodi:rx="31.640032"
       sodipodi:ry="31.640032"
       d="m 164.52817,102.01851 c 0,17.47431 -14.16573,31.64003 -31.64003,31.64003 -17.47431,0 -31.64003,-14.16572 -31.64003,-31.64003 0,-17.474308 14.16572,-31.640033 31.64003,-31.640033 17.4743,0 31.64003,14.165725 31.64003,31.640033 z"
       transform="matrix(1.615098,0,0,1.615098,-83.876862,-82.355635)" />
    <path
       transform="matrix(1.615098,0,0,1.615098,-42.99546,-55.837969)"
       d="m 164.52817,102.01851 c 0,17.47431 -14.16573,31.64003 -31.64003,31.64003 -17.47431,0 -31.64003,-14.16572 -31.64003,-31.64003 0,-17.474308 14.16572,-31.640033 31.64003,-31.640033 17.4743,0 31.64003,14.165725 31.64003,31.640033 z"
       sodipodi:ry="31.640032"
       sodipodi:rx="31.640032"
       sodipodi:cy="102.01851"
       sodipodi:cx="132.88814"
       id="path3935"
       style="fill:#ff6669;fill-opacity:1;fill-rule:evenodd;stroke:none"
       sodipodi:type="arc" />
    <path
       sodipodi:type="arc"
       style="fill:#ffe874;fill-opacity:1;fill-rule:evenodd;stroke:none"
       id="path3937"
       sodipodi:cx="132.88814"
       sodipodi:cy="102.01851"
       sodipodi:rx="31.640032"
       sodipodi:ry="31.640032"
       d="m 164.52817,102.01851 c 0,17.47431 -14.16573,31.64003 -31.64003,31.64003 -17.47431,0 -31.64003,-14.16572 -31.64003,-31.64003 0,-17.474308 14.16572,-31.640033 31.64003,-31.640033 17.4743,0 31.64003,14.165725 31.64003,31.640033 z"
       transform="matrix(1.615098,0,0,1.615098,-42.99546,-6.6697966)" />
    <path
       transform="matrix(1.615098,0,0,1.615098,-85.534221,17.638064)"
       d="m 164.52817,102.01851 c 0,17.47431 -14.16573,31.64003 -31.64003,31.64003 -17.47431,0 -31.64003,-14.16572 -31.64003,-31.64003 0,-17.474308 14.16572,-31.640033 31.64003,-31.640033 17.4743,0 31.64003,14.165725 31.64003,31.640033 z"
       sodipodi:ry="31.640032"
       sodipodi:rx="31.640032"
       sodipodi:cy="102.01851"
       sodipodi:cx="132.88814"
       id="path3939"
       style="fill:#5de874;fill-opacity:1;fill-rule:evenodd;stroke:none"
       sodipodi:type="arc" />
    <path
       sodipodi:type="arc"
       style="fill:#5d9be8;fill-opacity:1;fill-rule:evenodd;stroke:none"
       id="path3941"
       sodipodi:cx="132.88814"
       sodipodi:cy="102.01851"
       sodipodi:rx="31.640032"
       sodipodi:ry="31.640032"
       d="m 164.52817,102.01851 c 0,17.47431 -14.16573,31.64003 -31.64003,31.64003 -17.47431,0 -31.64003,-14.16572 -31.64003,-31.64003 0,-17.474308 14.16572,-31.640033 31.64003,-31.640033 17.4743,0 31.64003,14.165725 31.64003,31.640033 z"
       transform="matrix(1.615098,0,0,1.615098,-128.07298,-6.6697966)" />
    <path
       style="fill:#dc5de8;fill-opacity:1;fill-rule:evenodd;stroke:none"
       d="m 85.433692,57.83349 c -28.222711,0 -51.092479,22.869761 -51.092479,51.09248 0,28.22271 22.869768,51.09248 51.092479,51.09248 19.310588,0 36.145138,-10.70903 44.835338,-26.51407 C 102.27318,133.24 79.626705,110.47024 79.626705,82.411899 c 0,-8.912943 2.335831,-17.283671 6.347172,-24.578409 -0.178895,-0.0018 -0.360844,0 -0.540185,0 z"
       id="path3943"
       inkscape:connector-curvature="0" />
    <path
       style="fill:#ff8080;fill-rule:evenodd;stroke:none"
       d="m 130.7642,31.31942 c -28.22271,0 -51.137495,22.86976 -51.137495,51.092479 0,26.938841 20.871045,49.005191 47.311185,50.957431 8.71377,-15.72316 25.45057,-26.37902 44.70029,-26.37902 1.29267,0 2.55774,0.0858 3.82631,0.18006 4.07148,-7.335682 6.39219,-15.773995 6.39219,-24.758471 0,-28.222719 -22.86977,-51.092479 -51.09248,-51.092479 z"
       id="path3945"
       inkscape:connector-curvature="0" />
    <path
       style="fill:#ff6669;fill-opacity:1;fill-rule:evenodd;stroke:none"
       d="m 171.63818,57.83349 c -28.22271,0 -51.09248,22.869761 -51.09248,51.09248 0,8.91295 2.29082,17.28367 6.30216,24.57841 8.69111,-15.80192 25.48206,-26.51407 44.79032,-26.51407 19.30827,0 36.09921,10.71215 44.79033,26.51407 4.01134,-7.29474 6.30215,-15.66546 6.30215,-24.57841 0,-28.222719 -22.86977,-51.09248 -51.09248,-51.09248 z"
       id="path3947"
       inkscape:connector-curvature="0" />
    <path
       id="path4017"
       d="m 130.76156,31.326888 c -14.11136,0 -26.8774,5.721151 -36.125004,14.96875 -2.31413,2.31132 -4.41123,4.84442 -6.25,7.5625 -0.45917,0.67966 -0.91696,1.3601 -1.34375,2.0625 -0.38383,0.63084 -0.73688,1.28913 -1.09375,1.9375 -0.1687,-10e-4 -0.33121,0 -0.5,0 -28.222709,0 -51.09375,22.83978 -51.09375,51.062502 0,0.86453 0.02005,1.70837 0.0625,2.5625 1.477469,-26.895112 23.764497,-48.218752 51.03125,-48.218752 0.16879,0 0.3313,-10e-4 0.5,0 0.35687,-0.64837 0.70992,-1.30666 1.09375,-1.9375 0.42679,-0.7024 0.88458,-1.38284 1.34375,-2.0625 1.83877,-2.71808 3.93587,-5.25118 6.25,-7.5625 9.247604,-9.247596 22.013644,-14.96875 36.125004,-14.96875 2.64588,0 5.24375,0.206028 7.78125,0.59375 0.84578,0.129191 1.69966,0.267383 2.53125,0.4375 1.67645,0.343051 3.29399,0.778399 4.90625,1.28125 0.52491,0.163224 1.04501,0.320459 1.5625,0.5 7.35778,2.558653 13.95081,6.763313 19.34375,12.15625 2.31768,2.31564 4.40963,4.83813 6.25,7.5625 0.9054,1.34017 1.75376,2.72968 2.53125,4.15625 0.28133,0.0218 0.56372,0.0361 0.84375,0.0625 0.11422,0.0109 0.22975,0.0196 0.34375,0.0313 0.0103,0.001 0.0209,-10e-4 0.0313,0 3.42486,0.34992 6.74682,1.03885 9.9375,2.03125 0.01,0.003 0.0213,-0.003 0.0313,0 0.79045,0.24637 1.57029,0.5293 2.34375,0.8125 0.009,0.003 0.0222,-0.003 0.0313,0 3.90328,1.43172 7.57834,3.33449 10.96875,5.625 0.007,0.005 0.0242,-0.005 0.0313,0 12.86865,8.70327 21.5618,23.13707 22.4375,39.625002 0.0409,-0.88586 0.062,-1.76312 0.0625,-2.65625 0,-17.630022 -8.91876,-33.189802 -22.5,-42.375002 -0.007,-0.005 -0.0241,0.005 -0.0313,0 -3.39041,-2.29051 -7.06547,-4.19328 -10.96875,-5.625 -0.009,-0.003 -0.022,0.003 -0.0313,0 -0.77346,-0.2832 -1.5533,-0.56613 -2.34375,-0.8125 -0.01,-0.003 -0.0216,0.003 -0.0313,0 -3.19068,-0.9924 -6.51264,-1.68133 -9.9375,-2.03125 -0.0103,-10e-4 -0.0209,0.001 -0.0313,0 -0.114,-0.0116 -0.22953,-0.0203 -0.34375,-0.0313 -0.28003,-0.0264 -0.56242,-0.0407 -0.84375,-0.0625 -0.77749,-1.42657 -1.62585,-2.81608 -2.53125,-4.15625 -1.84037,-2.72437 -3.93232,-5.246859 -6.25,-7.5625 -5.39294,-5.39294 -11.98597,-9.597597 -19.34375,-12.15625 -0.51749,-0.179541 -1.03759,-0.336776 -1.5625,-0.5 -1.61226,-0.502851 -3.2298,-0.938199 -4.90625,-1.28125 -0.83159,-0.170117 -1.68547,-0.308309 -2.53125,-0.4375 -2.5375,-0.387722 -5.13537,-0.59375 -7.78125,-0.59375 z"
       style="fill:#ffffff;fill-opacity:0.30952382;fill-rule:evenodd;stroke:none"
       inkscape:connector-curvature="0"
       sodipodi:nodetypes="sccccsscsccccsccccccccccccccccccccccccccccccccccs" />
    <path
       sodipodi:nodetypes="ccscsccscccc"
       inkscape:connector-curvature="0"
       id="path4066"
       d="m 35.557733,154.75159 c -0.07277,1.10859 -0.125,2.21656 -0.125,3.34375 0,27.87619 22.34979,50.51016 50.09375,51.0625 8.99362,14.61066 25.146947,24.34375 43.562497,24.34375 18.4148,0 34.53741,-9.73408 43.53125,-24.34375 27.75847,-0.53589 50.09375,-23.17581 50.09375,-51.0625 0,-1.11366 -0.0238,-2.217 -0.0937,-3.3125 -1.6287,26.40136 -23.30968,47.35973 -50,47.875 -8.99384,14.60967 -25.11645,24.34375 -43.53125,24.34375 -18.41555,0 -34.568877,-9.73309 -43.562497,-24.34375 -26.686229,-0.53128 -48.353267,-21.50085 -49.96875,-47.90625 z"
       style="fill:#000000;fill-opacity:0.1142857;fill-rule:evenodd;stroke:none" />
  </g>
  <path
     sodipodi:type="arc"
     style="fill:#000000;fill-opacity:0.12980772;fill-rule:evenodd;stroke:none"
     id="path3819"
     sodipodi:cx="128.88136"
     sodipodi:cy="128.47458"
     sodipodi:rx="7.2542372"
     sodipodi:ry="7.2542372"
     d="m 136.1356,128.47458 a 7.2542372,7.2542372 0 1 1 -14.50847,0 7.2542372,7.2542372 0 1 1 14.50847,0 z"
     transform="matrix(13.718089,0,0,13.718089,-1498.1743,-1495.4327)" />
  <path
     transform="matrix(13.718089,0,0,13.718089,-1505.685,-1502.1089)"
     d="m 136.1356,128.47458 a 7.2542372,7.2542372 0 1 1 -14.50847,0 7.2542372,7.2542372 0 1 1 14.50847,0 z"
     sodipodi:ry="7.2542372"
     sodipodi:rx="7.2542372"
     sodipodi:cy="128.47458"
     sodipodi:cx="128.88136"
     id="path3949"
     style="fill:#222e38;fill-opacity:1;fill-rule:evenodd;stroke:none"
     sodipodi:type="arc" />
  <rect
     style="color:#000000;fill:#54cbc6;fill-opacity:0.68571436;fill-rule:evenodd;stroke:none;stroke-width:2.16599989;marker:none;visibility:visible;display:inline;overflow:visible;enable-background:accumulate"
     id="rect3810"
     width="128.64093"
     height="54.28883"
     x="198.00069"
     y="233.17249"
     ry="27.144415" />
  <path
     sodipodi:type="arc"
     style="fill:#ffefda;fill-opacity:1;fill-rule:evenodd;stroke:none"
     id="path3812"
     sodipodi:cx="117.9661"
     sodipodi:cy="136.67796"
     sodipodi:rx="15.728813"
     sodipodi:ry="15.728813"
     d="m 133.69492,136.67796 a 15.728813,15.728813 0 1 1 -31.45763,0 15.728813,15.728813 0 1 1 31.45763,0 z"
     transform="matrix(1.8570854,0,0,1.8570854,8.1480436,7.2224584)" />
  <path
     style="fill:#ffffff;fill-opacity:0.11057691;fill-rule:evenodd;stroke:none"
     d="m 262.30767,160.82333 c -54.96022,0 -99.48303,44.5228 -99.48303,99.48304 0,27.21959 10.9193,51.86884 28.62773,69.83531 -13.71896,-17.05641 -21.96379,-38.69467 -21.96379,-62.2874 0,-54.96022 44.5228,-99.55103 99.48302,-99.55103 27.77231,0 52.87145,11.43652 70.92332,29.78371 -18.23871,-22.71431 -46.1899,-37.26363 -77.58725,-37.26363 z"
     id="path3814"
     inkscape:connector-curvature="0" />
</svg>
