<?xml version="1.0" encoding="UTF-8" standalone="no"?>
<!-- Created with Inkscape (http://www.inkscape.org/) -->

<svg
   xmlns:dc="http://purl.org/dc/elements/1.1/"
   xmlns:cc="http://creativecommons.org/ns#"
   xmlns:rdf="http://www.w3.org/1999/02/22-rdf-syntax-ns#"
   xmlns:svg="http://www.w3.org/2000/svg"
   xmlns="http://www.w3.org/2000/svg"
   xmlns:sodipodi="http://sodipodi.sourceforge.net/DTD/sodipodi-0.dtd"
   xmlns:inkscape="http://www.inkscape.org/namespaces/inkscape"
   width="512"
   height="512"
   id="svg2"
   version="1.1"
   inkscape:version="0.48.4 r9939"
   sodipodi:docname="notificacioens2.svg">
  <defs
     id="defs4">
    <clipPath
       clipPathUnits="userSpaceOnUse"
       id="clipPath3773">
      <path
         id="path3775"
         d="m 367.21875,301.5 c -21.09155,0 -38.1875,17.1272 -38.1875,38.21875 0,21.09155 17.09595,38.1875 38.1875,38.1875 21.09155,0 38.1875,-17.09595 38.1875,-38.1875 0,-21.09155 -17.09595,-38.21875 -38.1875,-38.21875 z m 0,211.6875 c -23.76126,0 -43.03125,19.26999 -43.03125,43.03125 0,23.76126 19.26999,43.03125 43.03125,43.03125 23.76126,0 43.03125,-19.26999 43.03125,-43.03125 0,-23.76126 -19.26999,-43.03125 -43.03125,-43.03125 z"
         style="fill:#e9bd39;fill-opacity:1;fill-rule:evenodd;stroke:none"
         inkscape:connector-curvature="0" />
    </clipPath>
  </defs>
  <sodipodi:namedview
     id="base"
     pagecolor="#ffffff"
     bordercolor="#666666"
     borderopacity="1.0"
     inkscape:pageopacity="0.0"
     inkscape:pageshadow="2"
     inkscape:zoom="0.54621237"
     inkscape:cx="388.28414"
     inkscape:cy="367.48211"
     inkscape:document-units="px"
     inkscape:current-layer="layer1"
     showgrid="false"
     inkscape:window-width="1360"
     inkscape:window-height="721"
     inkscape:window-x="0"
     inkscape:window-y="25"
     inkscape:window-maximized="1" />
  <metadata
     id="metadata7">
    <rdf:RDF>
      <cc:Work
         rdf:about="">
        <dc:format>image/svg+xml</dc:format>
        <dc:type
           rdf:resource="http://purl.org/dc/dcmitype/StillImage" />
        <dc:title />
      </cc:Work>
    </rdf:RDF>
  </metadata>
  <g
     inkscape:label="Capa 1"
     inkscape:groupmode="layer"
     id="layer1"
     transform="translate(0,-540.36218)">
    <path
       style="fill:#f4c350;fill-opacity:1;fill-rule:evenodd;stroke:none"
       d="m 253.55222,581.61082 c -31.07742,0 -56.26751,25.23613 -56.26751,56.31356 0,31.07742 25.19009,56.2675 56.26751,56.2675 31.07742,0 56.26751,-25.19008 56.26751,-56.2675 0,-31.07743 -25.19009,-56.31356 -56.26751,-56.31356 z m 0,311.91171 c -35.01112,0 -63.40455,28.39344 -63.40455,63.40455 0,35.01111 28.39343,63.40452 63.40455,63.40452 35.01111,0 63.40455,-28.39341 63.40455,-63.40452 0,-35.01111 -28.39344,-63.40455 -63.40455,-63.40455 z"
       id="path2993"
       inkscape:connector-curvature="0" />
    <path
       id="path3769"
       d="m 366.23839,326.88263 c -53.53825,0.0619 -98.00032,38.19028 -108.76282,89.35263 l -11.9873,110.12769 -23.55228,32.02271 143.68516,0 1.36441,0 143.68516,0 -23.55228,-32.02271 -12.01979,-110.12769 c -10.76249,-51.16235 -55.19207,-89.29077 -108.73032,-89.35263 -0.0435,-5e-5 -0.0865,0 -0.12994,0 z"
       style="color:#000000;fill:#333333;fill-opacity:0.13500001;fill-rule:evenodd;stroke:none;stroke-width:10;marker:none;visibility:visible;display:inline;overflow:visible;enable-background:accumulate"
       inkscape:connector-curvature="0"
       clip-path="url(#clipPath3773)"
       transform="matrix(1.4734536,0,0,1.4734536,-287.52757,137.36456)" />
    <path
       style="color:#000000;fill:#ffcf54;fill-opacity:1;fill-rule:evenodd;stroke:none;stroke-width:10;marker:none;visibility:visible;display:inline;overflow:visible;enable-background:accumulate"
       d="m 253.46013,627.1037 c -75.88496,0.0861 -138.90535,53.15652 -154.160085,124.36869 l -16.99076,153.28522 -33.382929,44.57197 203.658904,0 1.93391,0 203.65892,0 -33.38294,-44.57197 -17.0368,-153.28522 C 392.50361,680.26022 329.52926,627.18979 253.64431,627.1037 c -0.0616,-7e-5 -0.12259,0 -0.18418,0 z"
       id="rect2985"
       inkscape:connector-curvature="0" />
    <path
       style="color:#000000;fill:#ffffff;fill-opacity:0.07000002;fill-rule:evenodd;stroke:none;stroke-width:10;marker:none;visibility:visible;display:inline;overflow:visible;enable-background:accumulate"
       d="m 253.55222,581.61082 0,438.72078 c 35.01111,0 63.40455,-28.39341 63.40455,-63.40452 0,-2.56848 -0.16342,-5.10885 -0.46046,-7.5975 l 141.68178,0 -33.38294,-44.57197 -17.0368,-153.28522 c -11.27138,-52.61701 -48.6046,-95.30091 -97.93862,-114.05451 -0.27255,-30.84412 -25.35949,-55.80706 -56.26751,-55.80706 z"
       id="path3777"
       inkscape:connector-curvature="0"
       sodipodi:nodetypes="ccscccccc" />
  </g>
</svg>
