<?xml version="1.0" encoding="UTF-8" standalone="no"?>
<!-- Created with Inkscape (http://www.inkscape.org/) -->

<svg
   xmlns:dc="http://purl.org/dc/elements/1.1/"
   xmlns:cc="http://creativecommons.org/ns#"
   xmlns:rdf="http://www.w3.org/1999/02/22-rdf-syntax-ns#"
   xmlns:svg="http://www.w3.org/2000/svg"
   xmlns="http://www.w3.org/2000/svg"
   xmlns:sodipodi="http://sodipodi.sourceforge.net/DTD/sodipodi-0.dtd"
   xmlns:inkscape="http://www.inkscape.org/namespaces/inkscape"
   id="svg2"
   version="1.1"
   inkscape:version="0.48.4 r9939"
   width="512"
   height="512"
   sodipodi:docname="pycharm.svg">
  <metadata
     id="metadata8">
    <rdf:RDF>
      <cc:Work
         rdf:about="">
        <dc:format>image/svg+xml</dc:format>
        <dc:type
           rdf:resource="http://purl.org/dc/dcmitype/StillImage" />
        <dc:title />
      </cc:Work>
    </rdf:RDF>
  </metadata>
  <defs
     id="defs6">
    <clipPath
       clipPathUnits="userSpaceOnUse"
       id="clipPath3802">
      <path
         inkscape:connector-curvature="0"
         id="path3804"
         d="m 471.0995,10.061921 c -36.53386,0 -66.15625,29.359423 -66.15625,65.593746 0,1.13232 0.0366,2.25676 0.0937,3.375 0.001,0.0208 -10e-4,0.0417 0,0.0625 a 20.002,20.002 0 0 0 -0.0937,1.96875 l 0,70.562503 a 20.002,20.002 0 1 0 40,0 l 0,-15.6875 c 8.02375,3.43004 16.86403,5.34375 26.15625,5.34375 36.53387,0 66.15626,-29.39068 66.15626,-65.625003 0,-36.234323 -29.62239,-65.593746 -66.15626,-65.593746 z"
         style="fill:#ff9200;fill-opacity:1;fill-rule:evenodd;stroke:none" />
    </clipPath>
  </defs>
  <sodipodi:namedview
     pagecolor="#ffffff"
     bordercolor="#666666"
     borderopacity="1"
     objecttolerance="10"
     gridtolerance="10"
     guidetolerance="10"
     inkscape:pageopacity="0"
     inkscape:pageshadow="2"
     inkscape:window-width="1360"
     inkscape:window-height="721"
     id="namedview4"
     showgrid="false"
     inkscape:zoom="0.4609375"
     inkscape:cx="371.98282"
     inkscape:cy="-4.6791419"
     inkscape:window-x="0"
     inkscape:window-y="25"
     inkscape:window-maximized="1"
     inkscape:current-layer="svg2" />
  <path
     sodipodi:nodetypes="csssccccc"
     inkscape:connector-curvature="0"
     id="path3786"
     d="m 173.04701,243.88347 c -1.21882,26.35244 2.64207,53.21225 11.04546,77.65493 12.60544,36.66508 37.51561,70.69454 68.52324,93.97016 26.0879,19.58267 59.90905,27.28345 91.97588,33.26447 20.48187,3.82023 55.93456,3.32024 75.70264,2.63242 68.75022,-8.70669 60.97201,-89.4405 6.94008,-100.6709 l -65.57172,-1.11679 c -54.97407,-6.32655 -83.92284,-50.11285 -82.73057,-93.79939 z"
     style="fill:#5c9c6c;fill-opacity:1;stroke:none" />
  <path
     style="fill:#ffaa58;fill-opacity:1;fill-rule:evenodd;stroke:none"
     d="m 220.49276,58.772859 c -93.25891,0 -168.875108,74.944921 -168.875108,167.439211 0,2.89042 0.09343,5.76076 0.239185,8.61524 0.0026,0.0532 -0.0026,0.10641 0,0.15958 a 51.058513,51.058513 0 0 0 -0.239185,5.02558 l 0,180.12284 a 51.058513,51.058513 0 1 0 102.106828,0 l 0,-40.04501 c 20.48197,8.75575 43.04832,13.64081 66.76828,13.64081 93.25891,0 168.87511,-75.02472 168.87511,-167.519 0,-92.49427 -75.6162,-167.439209 -168.87511,-167.439209 z"
     id="path2987"
     inkscape:connector-curvature="0" />
  <path
     style="fill:#000000;fill-opacity:0.09523812;stroke:none"
     d="m 513.08475,39.050847 106.30508,50.983051 13.01695,50.983052 -32.54237,-7.59322 21.69491,21.69491 -5.02808,4.36991 c 0,0 -109.37887,-63.149916 -124.05666,-71.624143 -5.1147,-16.271187 10.44074,-32.542373 20.61017,-48.81356 z"
     id="path3798"
     inkscape:connector-curvature="0"
     sodipodi:nodetypes="cccccccc"
     clip-path="url(#clipPath3802)"
     transform="matrix(2.5526703,0,0,2.5526703,-982.06895,33.088099)" />
  <path
     style="fill:#ffffff;fill-opacity:0.12857145;fill-rule:evenodd;stroke:none"
     d="m 220.47809,58.774343 c -93.25891,0 -168.875114,74.944937 -168.875114,167.439227 0,2.89043 0.09355,5.76077 0.239313,8.61524 0.0026,0.0532 -0.0026,0.10641 0,0.1596 a 51.058513,51.058513 0 0 0 -0.239313,5.02557 l 0,180.1228 a 51.058513,51.058513 0 0 0 9.891597,30.71183 51.058513,51.058513 0 0 1 -4.307631,-21.05954 l 0,-180.1228 a 51.058513,51.058513 0 0 1 0.239314,-5.02557 c -0.0026,-0.0533 0.0026,-0.1064 0,-0.15959 -0.145759,-2.8545 -0.239314,-5.72482 -0.239314,-8.61526 0,-92.4943 75.616198,-167.439237 168.875088,-167.439237 60.99362,0 114.38454,32.111587 144.06633,80.169827 C 341.90305,95.201461 285.48833,58.774343 220.47809,58.774343 z"
     id="path3819"
     inkscape:connector-curvature="0" />
  <path
     style="fill:#5aaa7d;fill-opacity:1;stroke:none"
     d="m 373.51218,58.772901 c -12.1463,-0.0042 -23.75082,0.612732 -32.78586,2.313344 -31.92195,6.00848 -64.90705,16.701344 -90.06142,37.253034 -15.8402,12.941811 -30.16368,28.559861 -41.94073,45.856861 -11.77703,17.29705 -21.00769,36.27308 -26.66227,55.93083 -2.02344,7.03428 -3.61508,14.24208 -4.78715,21.55696 -1.17209,7.31489 -1.92462,14.73686 -2.26976,22.19954 50.18054,48.6349 75.47018,22.59714 105.88503,11.9349 0.27187,-9.96178 2.11099,-19.91838 5.56618,-29.42444 3.45517,-9.50607 8.5264,-18.56158 15.26248,-26.72127 6.73608,-8.15967 15.13701,-15.42345 25.25158,-21.34605 10.11458,-5.9226 21.94285,-10.50399 35.53351,-13.29882 15.25153,-3.13641 40.14811,-3.19669 61.90226,-2.47291 18.63612,-2.47081 31.61672,-11.70371 39.16753,-23.6122 -51.21975,13.16121 -66.85357,-15.88542 -67.24689,-16.67214 l 1.35609,0.3191 c 32.20524,9.8016 59.34437,-0.65678 73.62859,-8.5355 1.02092,-23.176565 -13.37735,-46.922551 -42.91677,-52.249944 -13.04281,-1.253284 -34.63861,-3.022959 -54.8824,-3.031295 z"
     id="path3777"
     inkscape:connector-curvature="0"
     sodipodi:nodetypes="ssssssccssssccccccs" />
  <path
     style="fill:#000000;fill-opacity:0.09523812;fill-rule:evenodd;stroke:none"
     d="m 280.86468,245.99676 c -30.28852,10.61793 -55.45129,36.489 -105.21788,-11.32746 -0.27643,3.08447 -0.49516,6.16159 -0.63816,9.25342 50.18055,48.6349 75.4412,22.54809 105.85604,11.88587 z"
     id="path3806"
     inkscape:connector-curvature="0"
     sodipodi:nodetypes="ccccc" />
  <path
     style="fill:#ffffff;fill-opacity:0.09047618;stroke:none"
     d="m 373.47875,58.774343 c -12.14626,-0.0042 -23.7508,0.612731 -32.78586,2.313364 -31.92193,6.008459 -64.90702,16.701343 -90.06141,37.253007 -15.8402,12.941826 -30.10269,28.571276 -41.87974,45.868316 -11.77702,17.29703 -21.06866,36.26164 -26.72327,55.91944 -2.02342,7.03426 -3.61416,14.22325 -4.78624,21.53815 -1.17209,7.31488 -1.88846,14.79341 -2.23359,22.2561 1.92696,1.86761 3.80848,3.53261 5.66373,5.18512 0.37588,-6.89605 1.0698,-13.73579 2.15381,-20.50115 1.17209,-7.31491 2.76284,-14.50389 4.78626,-21.53816 5.65461,-19.65779 14.86645,-38.6224 26.6435,-55.91944 11.77705,-17.29701 26.1193,-32.92647 41.95951,-45.86829 25.15438,-20.551687 58.13948,-31.244539 90.06141,-37.253029 9.03504,-1.700603 20.63958,-2.318457 32.78586,-2.313365 20.2438,0.0085 41.8396,1.778009 54.8824,3.031295 12.42215,2.240332 22.14994,7.734098 29.19617,15.076729 -7.06085,-10.759961 -18.69282,-19.115479 -34.78013,-22.016793 -13.04282,-1.253284 -34.63862,-3.022959 -54.88241,-3.031294 z m 28.39847,70.437737 c 0.35644,0.71296 13.23246,24.62118 53.7656,19.30458 3.10229,-2.90028 5.71101,-6.12441 7.89734,-9.57251 -35.10536,9.0205 -53.44044,-1.78598 -61.66294,-9.73207 z"
     id="path3824"
     inkscape:connector-curvature="0" />
</svg>
