<?xml version="1.0" encoding="UTF-8" standalone="no"?>
<!-- Created with Inkscape (http://www.inkscape.org/) -->

<svg
   xmlns:dc="http://purl.org/dc/elements/1.1/"
   xmlns:cc="http://creativecommons.org/ns#"
   xmlns:rdf="http://www.w3.org/1999/02/22-rdf-syntax-ns#"
   xmlns:svg="http://www.w3.org/2000/svg"
   xmlns="http://www.w3.org/2000/svg"
   xmlns:sodipodi="http://sodipodi.sourceforge.net/DTD/sodipodi-0.dtd"
   xmlns:inkscape="http://www.inkscape.org/namespaces/inkscape"
   id="svg2"
   version="1.1"
   inkscape:version="0.48.4 r9939"
   width="256"
   height="256"
   sodipodi:docname="pycharm.png">
  <metadata
     id="metadata8">
    <rdf:RDF>
      <cc:Work
         rdf:about="">
        <dc:format>image/svg+xml</dc:format>
        <dc:type
           rdf:resource="http://purl.org/dc/dcmitype/StillImage" />
        <dc:title></dc:title>
      </cc:Work>
    </rdf:RDF>
  </metadata>
  <defs
     id="defs6">
    <clipPath
       clipPathUnits="userSpaceOnUse"
       id="clipPath3802">
      <path
         inkscape:connector-curvature="0"
         id="path3804"
         d="m 471.0995,10.061921 c -36.53386,0 -66.15625,29.359423 -66.15625,65.593746 0,1.13232 0.0366,2.25676 0.0937,3.375 0.001,0.0208 -10e-4,0.0417 0,0.0625 a 20.002,20.002 0 0 0 -0.0937,1.96875 l 0,70.562503 a 20.002,20.002 0 1 0 40,0 l 0,-15.6875 c 8.02375,3.43004 16.86403,5.34375 26.15625,5.34375 36.53387,0 66.15626,-29.39068 66.15626,-65.625003 0,-36.234323 -29.62239,-65.593746 -66.15626,-65.593746 z"
         style="fill:#ff9200;fill-opacity:1;fill-rule:evenodd;stroke:none" />
    </clipPath>
  </defs>
  <sodipodi:namedview
     pagecolor="#ffffff"
     bordercolor="#666666"
     borderopacity="1"
     objecttolerance="10"
     gridtolerance="10"
     guidetolerance="10"
     inkscape:pageopacity="0"
     inkscape:pageshadow="2"
     inkscape:window-width="1360"
     inkscape:window-height="717"
     id="namedview4"
     showgrid="false"
     inkscape:zoom="0.32593203"
     inkscape:cx="495.78059"
     inkscape:cy="191.81087"
     inkscape:window-x="0"
     inkscape:window-y="25"
     inkscape:window-maximized="1"
     inkscape:current-layer="svg2" />
  <path
     sodipodi:nodetypes="csssccccc"
     inkscape:connector-curvature="0"
     id="path3786"
     d="m 91.553059,130.39337 c -0.549881,11.88909 1.191986,24.00708 4.983235,35.03457 5.687036,16.54171 16.925436,31.89434 30.914746,42.3953 11.76974,8.83486 27.02839,12.30912 41.49557,15.0075 9.24054,1.72352 25.23527,1.49795 34.15378,1.18764 31.01714,-3.92809 27.50795,-40.35172 3.13106,-45.41839 l -29.58314,-0.50385 c -24.80194,-2.85427 -37.86238,-22.60877 -37.32448,-42.31825 z"
     style="fill:#5c9c6c;fill-opacity:1;stroke:none" />
  <path
     style="fill:#ffaa5f;fill-opacity:1;fill-rule:evenodd;stroke:none"
     d="m 112.95854,46.879412 c -42.07441,0 -76.18919,33.811933 -76.18919,75.541378 0,1.30404 0.04215,2.59901 0.10791,3.88683 0.0012,0.024 -0.0012,0.048 0,0.072 a 23.035408,23.035408 0 0 0 -0.10791,2.26732 l 0,81.26369 a 23.035408,23.035408 0 1 0 46.066209,0 l 0,-18.06659 c 9.240593,3.95022 19.421551,6.15415 30.122981,6.15415 42.07442,0 76.1892,-33.84793 76.1892,-75.57738 0,-41.729445 -34.11478,-75.541378 -76.1892,-75.541378 z"
     id="path2987"
     inkscape:connector-curvature="0" />
  <path
     style="fill:#000000;fill-opacity:0.09523812;stroke:none"
     d="m 513.08475,39.050847 106.30508,50.983051 13.01695,50.983052 -32.54237,-7.59322 21.69491,21.69491 -5.02808,4.36991 c 0,0 -109.37887,-63.149916 -124.05666,-71.624143 -5.1147,-16.271187 10.44074,-32.542373 20.61017,-48.81356 z"
     id="path3798"
     inkscape:connector-curvature="0"
     sodipodi:nodetypes="cccccccc"
     clip-path="url(#clipPath3802)"
     transform="matrix(1.1516552,0,0,1.1516552,-429.58565,35.291549)" />
  <path
     style="fill:#ffffff;fill-opacity:0.12857145;fill-rule:evenodd;stroke:none"
     d="m 112.95192,46.880079 c -42.074412,0 -76.189192,33.811937 -76.189192,75.541391 0,1.30404 0.04221,2.59901 0.107968,3.88683 0.0012,0.024 -0.0012,0.048 0,0.072 a 23.035408,23.035408 0 0 0 -0.107968,2.26732 l 0,81.26367 a 23.035408,23.035408 0 0 0 4.462664,13.85586 23.035408,23.035408 0 0 1 -1.943418,-9.50116 l 0,-81.26367 a 23.035408,23.035408 0 0 1 0.107968,-2.26732 c -0.0012,-0.024 0.0012,-0.048 0,-0.072 -0.06576,-1.28783 -0.107968,-2.58279 -0.107968,-3.88684 0,-41.729447 34.11478,-75.541385 76.189186,-75.541385 27.5177,0 51.60539,14.487365 64.99654,36.169172 C 167.73365,63.314425 142.28175,46.880079 112.95192,46.880079 z"
     id="path3819"
     inkscape:connector-curvature="0" />
  <path
     style="fill:#6daa7d;fill-opacity:1;stroke:none"
     d="m 181.99433,46.879426 c -5.47988,-0.0023 -10.71535,0.276443 -14.79157,1.043688 -14.40181,2.710766 -29.28327,7.534929 -40.63184,16.806963 -7.14642,5.838793 -13.60856,12.88498 -18.92186,20.688657 -5.31329,7.803677 -9.477764,16.364846 -12.028873,25.233586 -0.912883,3.17356 -1.630963,6.42541 -2.159757,9.72557 -0.528794,3.30016 -0.868302,6.64864 -1.024017,10.01548 22.639307,21.94198 34.048907,10.19486 47.770777,5.38452 0.12266,-4.49433 0.95239,-8.98632 2.51123,-13.27505 1.55882,-4.28873 3.84674,-8.37419 6.88577,-12.05549 3.03903,-3.68129 6.82917,-6.9584 11.39243,-9.63042 4.56326,-2.672024 9.89967,-4.738949 16.03119,-5.999863 6.88084,-1.415004 18.1131,-1.442194 27.92764,-1.115666 8.40782,-1.114721 14.26411,-5.280212 17.67071,-10.65281 -23.10815,5.937773 -30.16146,-7.16682 -30.33891,-7.521748 l 0.61181,0.143957 c 14.52962,4.422056 26.77363,-0.29631 33.21806,-3.850848 0.46059,-10.456273 -6.03529,-21.169442 -19.36221,-23.572935 -5.88435,-0.565428 -15.62745,-1.363825 -24.76058,-1.367591 z"
     id="path3777"
     inkscape:connector-curvature="0"
     sodipodi:nodetypes="ssssssccssssccccccs" />
  <path
     style="fill:#000000;fill-opacity:0.09523812;fill-rule:evenodd;stroke:none"
     d="m 140.19576,131.3468 c -13.66488,4.79035 -25.01724,16.46226 -47.469786,-5.11047 -0.124713,1.39158 -0.223398,2.77985 -0.287914,4.17475 22.63931,21.94198 34.03583,10.17273 47.7577,5.36239 z"
     id="path3806"
     inkscape:connector-curvature="0"
     sodipodi:nodetypes="ccccc" />
  <path
     style="fill:#ffffff;fill-opacity:0.09047618;stroke:none"
     d="m 181.97925,46.880079 c -5.47987,-0.0023 -10.71534,0.276443 -14.79157,1.043688 -14.4018,2.710766 -29.28326,7.534933 -40.63184,16.806968 -7.14642,5.838793 -13.58104,12.890128 -18.89434,20.693805 -5.31329,7.803676 -9.505274,16.3597 -12.056388,25.22845 -0.912883,3.17356 -1.63056,6.41692 -2.159354,9.71709 -0.528794,3.30016 -0.851983,6.67415 -1.007698,10.041 0.869361,0.84258 1.718223,1.59376 2.555235,2.3393 0.169581,-3.1112 0.482647,-6.197 0.971709,-9.24924 0.528794,-3.30017 1.246472,-6.54353 2.159352,-9.71709 2.551114,-8.86875 6.707104,-17.424771 12.020404,-25.228448 5.3133,-7.803677 11.78391,-14.855012 18.93033,-20.693804 11.34857,-9.272035 26.23003,-14.096203 40.63184,-16.806969 4.07622,-0.767244 9.31169,-1.045991 14.79157,-1.043687 9.13313,0.0038 18.87623,0.802162 24.76058,1.36759 5.60434,1.010734 9.9931,3.489284 13.17206,6.801964 -3.18555,-4.854431 -8.4334,-8.624072 -15.6913,-9.933026 -5.88436,-0.565428 -15.62746,-1.363825 -24.76059,-1.367591 z m 12.81217,31.778486 c 0.16081,0.321654 5.96992,11.108012 24.25673,8.709393 1.39962,-1.308475 2.57656,-2.76307 3.56294,-4.318707 -15.83803,4.06967 -24.11003,-0.805748 -27.81967,-4.390686 z"
     id="path3824"
     inkscape:connector-curvature="0" />
</svg>
