<?xml version="1.0" encoding="UTF-8" standalone="no"?>
<!-- Created with Inkscape (http://www.inkscape.org/) -->

<svg
   xmlns:dc="http://purl.org/dc/elements/1.1/"
   xmlns:cc="http://creativecommons.org/ns#"
   xmlns:rdf="http://www.w3.org/1999/02/22-rdf-syntax-ns#"
   xmlns:svg="http://www.w3.org/2000/svg"
   xmlns="http://www.w3.org/2000/svg"
   xmlns:xlink="http://www.w3.org/1999/xlink"
   xmlns:sodipodi="http://sodipodi.sourceforge.net/DTD/sodipodi-0.dtd"
   xmlns:inkscape="http://www.inkscape.org/namespaces/inkscape"
   width="512"
   height="512"
   id="svg2"
   version="1.1"
   inkscape:version="0.48.4 r9939"
   sodipodi:docname="0ad.svg">
  <sodipodi:namedview
     id="base"
     pagecolor="#ffffff"
     bordercolor="#666666"
     borderopacity="1.0"
     inkscape:pageopacity="0.0"
     inkscape:pageshadow="2"
     inkscape:zoom="0.1767767"
     inkscape:cx="298.56383"
     inkscape:cy="202.17291"
     inkscape:document-units="px"
     inkscape:current-layer="layer1"
     showgrid="false"
     inkscape:window-width="1360"
     inkscape:window-height="717"
     inkscape:window-x="0"
     inkscape:window-y="25"
     inkscape:window-maximized="1" />
  <defs
     id="defs4">
    <linearGradient
       inkscape:collect="always"
       id="linearGradient3873">
      <stop
         style="stop-color:#000000;stop-opacity:1;"
         offset="0"
         id="stop3875" />
      <stop
         style="stop-color:#000000;stop-opacity:0;"
         offset="1"
         id="stop3877" />
    </linearGradient>
    <linearGradient
       id="linearGradient3837"
       inkscape:collect="always">
      <stop
         id="stop3839"
         offset="0"
         style="stop-color:#7db257;stop-opacity:1;" />
      <stop
         id="stop3841"
         offset="1"
         style="stop-color:#7db257;stop-opacity:0;" />
    </linearGradient>
    <linearGradient
       gradientUnits="userSpaceOnUse"
       y2="356.66208"
       x2="316.05505"
       y1="546.63525"
       x1="502.83536"
       id="linearGradient3843"
       xlink:href="#linearGradient3837"
       inkscape:collect="always" />
    <clipPath
       id="clipPath3847"
       clipPathUnits="userSpaceOnUse">
      <path
         sodipodi:type="arc"
         style="fill:url(#linearGradient3851);fill-opacity:1;fill-rule:evenodd;stroke:none"
         id="path3849"
         sodipodi:cx="322.4407"
         sodipodi:cy="342.29437"
         sodipodi:rx="260.2153"
         sodipodi:ry="260.2153"
         d="m 582.65601,342.29437 a 260.2153,260.2153 0 1 1 -520.430607,0 260.2153,260.2153 0 1 1 520.430607,0 z"
         transform="matrix(0.88586957,0,0,0.88586957,-24.010886,495.98978)" />
    </clipPath>
    <linearGradient
       y2="356.66208"
       x2="316.05505"
       y1="546.63525"
       x1="502.83536"
       gradientUnits="userSpaceOnUse"
       id="linearGradient3851"
       xlink:href="#linearGradient3837"
       inkscape:collect="always" />
    <clipPath
       id="clipPath-458954348">
      <g
         id="g17"
         transform="translate(0,-1004.3622)">
        <path
           id="path19"
           style="fill:#1890d0"
           transform="matrix(15.333333,0,0,11.5,414.99999,878.8622)"
           d="m -24,13 c 0,1.105 -0.672,2 -1.5,2 -0.828,0 -1.5,-0.895 -1.5,-2 0,-1.105 0.672,-2 1.5,-2 0.828,0 1.5,0.895 1.5,2 z"
           inkscape:connector-curvature="0" />
      </g>
    </clipPath>
    <linearGradient
       inkscape:collect="always"
       xlink:href="#linearGradient3873"
       id="linearGradient3879"
       x1="-91.71875"
       y1="-192.70312"
       x2="403.6875"
       y2="463.29688"
       gradientUnits="userSpaceOnUse" />
  </defs>
  <metadata
     id="metadata7">
    <rdf:RDF>
      <cc:Work
         rdf:about="">
        <dc:format>image/svg+xml</dc:format>
        <dc:type
           rdf:resource="http://purl.org/dc/dcmitype/StillImage" />
        <dc:title></dc:title>
      </cc:Work>
    </rdf:RDF>
  </metadata>
  <g
     inkscape:label="Capa 1"
     inkscape:groupmode="layer"
     id="layer1"
     transform="translate(0,-540.36218)">
    <path
       sodipodi:type="arc"
       style="fill:#1993d7;fill-rule:evenodd;stroke:none;fill-opacity:1"
       id="path2990"
       sodipodi:cx="322.4407"
       sodipodi:cy="342.29437"
       sodipodi:rx="260.2153"
       sodipodi:ry="260.2153"
       d="m 582.65601,342.29437 c 0,143.71295 -116.50236,260.2153 -260.21531,260.2153 -143.71294,0 -260.215297,-116.50235 -260.215297,-260.2153 0,-143.71294 116.502357,-260.215299 260.215297,-260.215299 143.71295,0 260.21531,116.502359 260.21531,260.215299 z"
       transform="matrix(0.88586957,0,0,0.88586957,-24.010886,495.98978)" />
    <path
       style="fill:url(#linearGradient3879);stroke:none;stroke-width:1px;stroke-linecap:butt;stroke-linejoin:miter;stroke-opacity:1;fill-opacity:1"
       d="M 353.5625 149.25 L 338.28125 172.53125 L 325.28125 149.96875 C 300.07095 193.38074 254.113 199.44413 218.53125 224.1875 L 205.0625 200.875 C 192.83799 240.95719 208.58611 292.2437 168.28125 321.09375 L 265.4375 489.34375 C 357.22386 487.85051 435.9708 432.70635 471.6875 353.90625 L 353.5625 149.25 z "
       transform="translate(0,540.36218)"
       id="path3857" />
    <g
       style="fill:#ffffe3;fill-opacity:1"
       transform="matrix(8.5540427,0,0,8.5540427,55.815103,594.43297)"
       id="g47"
       clip-path="url(#clipPath-458954348)">
      <!-- color: #eeeeee -->
      <g
         style="fill:#ffffe3;fill-opacity:1"
         id="g49">
        <path
           inkscape:connector-curvature="0"
           d="m 19.03,19.355 c 0.055,1.402 -1.43,1.465 -1.125,-0.156 0.348,-1.859 -0.891,-2.695 -2.074,-3.367 2.406,3.156 -0.477,3.164 -1.59,7.219 -0.379,1.375 -0.688,2.793 -0.148,4.01 0.156,0.348 0.57,0.766 0.531,1.184 -0.039,0.438 -0.27,0.773 -0.457,1.156 -0.289,0.586 -0.828,1.113 -1.07,1.633 -0.137,0.289 0.195,0.508 0.438,0.645 0.367,0.211 0.867,0.277 1.082,0.668 0.148,0.27 0.109,0.555 -0.02,0.816 -0.117,0.246 -0.203,0.613 0.039,0.777 0.18,0.121 0.414,0.184 0.539,0.395 0.117,0.199 0.063,0.438 0.25,0.594 0.313,0.258 0.828,0.234 1.066,0.777 0.109,0.25 0.184,0.531 0.328,0.777 0.223,0.379 0.844,0.492 1.273,0.453 0.461,-0.047 0.801,-0.191 1.242,-0.324 1.145,-0.355 2.227,-0.824 3.25,-1.469 0.859,-0.551 1.383,-0.863 2.156,-1.316 0.566,-0.32 1.371,-0.215 1.996,-0.375 0.773,-0.199 1.703,-0.512 2.25,-1.055 0.578,-0.57 0.816,-1.023 0.992,-2.074 -0.25,0.344 -0.895,1.133 -1.535,1.344 -0.703,0.23 -0.953,0.109 -1.168,-0.18 -0.18,-0.246 -0.227,-0.574 -0.219,-0.879 0.418,-1.375 2.219,-0.801 3.426,-1.277 2.203,-0.863 2.707,-2.828 2.855,-4.367 0.066,-0.84 0.176,-1.406 1.594,-3.098 -1.773,0.762 -2.508,1.457 -2.918,2.352 -0.383,0.84 -1.594,1.824 -2.32,1 -0.922,-1.051 1.141,-2.457 2.648,-2.832 1.203,-0.301 2.313,-1.504 2.563,-2.664 0.605,-4.03 -1.289,-5.82 0.152,-8.785 -4.289,3.352 -0.648,5.176 -3.387,7.934 -1.566,1.566 -3.207,0.734 -2.598,-0.605 0.402,-0.863 1.363,-0.34 1.684,-2.336 -0.895,1.293 -3.766,0.418 -4.578,2.52 -1.441,3.656 -3.422,0.141 -0.16,-1.613 1.375,-0.742 4.688,-0.5 5.488,-5.773 -1.609,3.121 -5.566,2.625 -8.742,3.973 -1.648,0.695 -3.816,2.316 -3.734,4.32 m 0,0"
           style="fill:#ffffe3;fill-opacity:1;fill-rule:nonzero;stroke:none"
           id="path51" />
      </g>
    </g>
  </g>
</svg>
