<?xml version="1.0" encoding="UTF-8" standalone="no"?>
<!-- Created with Inkscape (http://www.inkscape.org/) -->

<svg
   xmlns:dc="http://purl.org/dc/elements/1.1/"
   xmlns:cc="http://creativecommons.org/ns#"
   xmlns:rdf="http://www.w3.org/1999/02/22-rdf-syntax-ns#"
   xmlns:svg="http://www.w3.org/2000/svg"
   xmlns="http://www.w3.org/2000/svg"
   xmlns:xlink="http://www.w3.org/1999/xlink"
   xmlns:sodipodi="http://sodipodi.sourceforge.net/DTD/sodipodi-0.dtd"
   xmlns:inkscape="http://www.inkscape.org/namespaces/inkscape"
   sodipodi:docname="redhat-preferences.svg"
   inkscape:version="0.91 r13725"
   version="1.1"
   id="svg2"
   viewBox="0 0 512 512"
   height="512"
   width="512"
   inkscape:export-filename="/home/cecilia/corebird-new.png"
   inkscape:export-xdpi="50"
   inkscape:export-ydpi="50">
  <sodipodi:namedview
     inkscape:window-maximized="1"
     inkscape:window-y="25"
     inkscape:window-x="0"
     inkscape:window-height="721"
     inkscape:window-width="1360"
     units="px"
     showgrid="false"
     inkscape:current-layer="layer1"
     inkscape:document-units="px"
     inkscape:cy="155.37237"
     inkscape:cx="154.39942"
     inkscape:zoom="0.76330954"
     inkscape:pageshadow="2"
     inkscape:pageopacity="0.0"
     borderopacity="1.0"
     bordercolor="#666666"
     pagecolor="#ffffff"
     id="base"
     showguides="false" />
  <defs
     id="defs4">
    <linearGradient
       inkscape:collect="always"
       id="linearGradient4274">
      <stop
         style="stop-color:#000000;stop-opacity:1;"
         offset="0"
         id="stop4276" />
      <stop
         style="stop-color:#000000;stop-opacity:0;"
         offset="1"
         id="stop4278" />
    </linearGradient>
    <linearGradient
       inkscape:collect="always"
       id="linearGradient4258">
      <stop
         style="stop-color:#000000;stop-opacity:1;"
         offset="0"
         id="stop4260" />
      <stop
         style="stop-color:#000000;stop-opacity:0;"
         offset="1"
         id="stop4262" />
    </linearGradient>
    <linearGradient
       inkscape:collect="always"
       id="linearGradient4250">
      <stop
         style="stop-color:#000000;stop-opacity:1;"
         offset="0"
         id="stop4252" />
      <stop
         style="stop-color:#000000;stop-opacity:0;"
         offset="1"
         id="stop4254" />
    </linearGradient>
    <linearGradient
       inkscape:collect="always"
       xlink:href="#linearGradient4250"
       id="linearGradient4256"
       x1="18.369139"
       y1="719.3974"
       x2="362.48251"
       y2="920.41962"
       gradientUnits="userSpaceOnUse" />
    <linearGradient
       inkscape:collect="always"
       xlink:href="#linearGradient4258"
       id="linearGradient4264"
       x1="84.269623"
       y1="623.16235"
       x2="456.78806"
       y2="827.89008"
       gradientUnits="userSpaceOnUse" />
    <linearGradient
       inkscape:collect="always"
       xlink:href="#linearGradient4274"
       id="linearGradient4280"
       x1="-91.207863"
       y1="627.091"
       x2="260.16299"
       y2="805.88031"
       gradientUnits="userSpaceOnUse" />
    <clipPath
       clipPathUnits="userSpaceOnUse"
       id="clipPath4314">
      <circle
         style="opacity:1;fill:#433e6e;fill-opacity:1;stroke:none;stroke-width:25;stroke-linecap:round;stroke-linejoin:round;stroke-miterlimit:4;stroke-dasharray:none;stroke-dashoffset:0;stroke-opacity:1"
         id="circle4316"
         cx="254.15642"
         cy="800.82593"
         r="233.19504" />
    </clipPath>
  </defs>
  <metadata
     id="metadata7">
    <rdf:RDF>
      <cc:Work
         rdf:about="">
        <dc:format>image/svg+xml</dc:format>
        <dc:type
           rdf:resource="http://purl.org/dc/dcmitype/StillImage" />
        <dc:title />
      </cc:Work>
    </rdf:RDF>
  </metadata>
  <g
     inkscape:label="Capa 1"
     inkscape:groupmode="layer"
     id="layer1"
     transform="translate(0,-540.36216)">
    <circle
       r="233.19504"
       cy="800.82593"
       cx="254.15642"
       id="path4193"
       style="opacity:1;fill:#ee5f63;fill-opacity:1;stroke:none;stroke-width:25;stroke-linecap:round;stroke-linejoin:round;stroke-miterlimit:4;stroke-dasharray:none;stroke-dashoffset:0;stroke-opacity:1" />
    <path
       inkscape:connector-curvature="0"
       id="path4240"
       d="M 243.58943,828.6627 132.97358,764.79861 169.0009,696.01917 279.61675,759.88326 Z"
       style="fill:url(#linearGradient4280);fill-rule:evenodd;stroke:none;stroke-width:1px;stroke-linecap:butt;stroke-linejoin:miter;stroke-opacity:1;fill-opacity:1;opacity:0.774"
       sodipodi:nodetypes="ccccc" />
    <circle
       r="37.992451"
       cy="732.43018"
       cx="153.47174"
       id="path4195"
       style="opacity:1;fill:#ffffff;fill-opacity:1;stroke:none;stroke-width:25;stroke-linecap:round;stroke-linejoin:round;stroke-miterlimit:4;stroke-dasharray:none;stroke-dashoffset:0;stroke-opacity:1" />
    <path
       style="fill:url(#linearGradient4256);fill-rule:evenodd;stroke:none;stroke-width:1px;stroke-linecap:butt;stroke-linejoin:miter;stroke-opacity:1;fill-opacity:1;opacity:0.774"
       d="m 346.43106,951.1556 -110.61585,-63.86409 36.68237,-66.15927 110.61585,63.86409 z"
       id="path4242"
       inkscape:connector-curvature="0"
       sodipodi:nodetypes="ccccc" />
    <circle
       style="opacity:1;fill:#ffffff;fill-opacity:1;stroke:none;stroke-width:25;stroke-linecap:round;stroke-linejoin:round;stroke-miterlimit:4;stroke-dasharray:none;stroke-dashoffset:0;stroke-opacity:1"
       id="circle4197"
       cx="253.50134"
       cy="854.34753"
       r="37.992451" />
    <path
       inkscape:connector-curvature="0"
       id="path4248"
       d="M 367.4787,726.15111 478.09455,790.0152 439.44706,855.51943 328.83121,791.65534 Z"
       style="fill:url(#linearGradient4264);fill-rule:evenodd;stroke:none;stroke-width:1px;stroke-linecap:butt;stroke-linejoin:miter;stroke-opacity:1;fill-opacity:1;opacity:0.774"
       sodipodi:nodetypes="ccccc" />
    <circle
       r="37.992451"
       cy="761.71521"
       cx="351.83716"
       id="circle4199"
       style="opacity:1;fill:#ffffff;fill-opacity:1;stroke:none;stroke-width:25;stroke-linecap:round;stroke-linejoin:round;stroke-miterlimit:4;stroke-dasharray:none;stroke-dashoffset:0;stroke-opacity:1" />
    <path
       inkscape:connector-curvature="0"
       id="rect4201"
       d="m 155.90056,663.26733 c -3.62893,0 -6.55078,5.8437 -6.55078,13.10157 l 0,248.91601 c 0,7.25787 2.92185,13.09961 6.55078,13.09961 3.62893,0 6.55078,-5.84174 6.55078,-13.09961 l 0,-248.91601 c 0,-7.25787 -2.92185,-13.10157 -6.55078,-13.10157 z m 98.25586,0 c -3.62893,0 -6.55078,5.8437 -6.55078,13.10157 l 0,248.91601 c 0,7.25787 2.92185,13.09961 6.55078,13.09961 3.62893,0 6.55078,-5.84174 6.55078,-13.09961 l 0,-248.91601 c 0,-7.25787 -2.92185,-13.10157 -6.55078,-13.10157 z m 98.25586,0 c -3.62893,0 -6.54883,5.8437 -6.54883,13.10157 l 0,248.91601 c 0,7.25787 2.9199,13.09961 6.54883,13.09961 3.62893,0 6.55078,-5.84174 6.55078,-13.09961 l 0,-248.91601 c 0,-7.25787 -2.92185,-13.10157 -6.55078,-13.10157 z"
       style="opacity:1;fill:#ffffff;fill-opacity:0.60869565;stroke:none;stroke-width:25;stroke-linecap:round;stroke-linejoin:round;stroke-miterlimit:4;stroke-dasharray:none;stroke-dashoffset:0;stroke-opacity:1" />
    <path
       id="path4310"
       d="m 338.79882,868.12332 7.70061,38.26339 a 86.708151,86.708151 0 0 0 -15.39316,49.28671 86.708151,86.708151 0 0 0 86.70834,86.70628 86.708151,86.708151 0 0 0 86.70836,-86.70628 86.708151,86.708151 0 0 0 -86.70836,-86.70836 86.708151,86.708151 0 0 0 -42.73393,11.38578 l -36.28186,-12.22752 z"
       style="opacity:1;fill:#000000;fill-opacity:0.0887574;stroke:none;stroke-width:25;stroke-linecap:round;stroke-linejoin:round;stroke-miterlimit:4;stroke-dasharray:none;stroke-dashoffset:0;stroke-opacity:1"
       inkscape:connector-curvature="0"
       clip-path="url(#clipPath4314)" />
    <path
       style="opacity:1;fill:#ff9d2f;fill-opacity:1;stroke:none;stroke-width:25;stroke-linecap:round;stroke-linejoin:round;stroke-miterlimit:4;stroke-dasharray:none;stroke-dashoffset:0;stroke-opacity:1"
       d="M 342.47852 331.69141 L 349.94727 368.80273 A 84.097458 84.097458 0 0 0 335.01758 416.60547 A 84.097458 84.097458 0 0 0 419.11523 500.70117 A 84.097458 84.097458 0 0 0 503.21289 416.60547 A 84.097458 84.097458 0 0 0 419.11523 332.50781 A 84.097458 84.097458 0 0 0 377.66797 343.55078 L 342.47852 331.69141 z "
       transform="translate(0,540.36216)"
       id="path4300" />
    <path
       inkscape:connector-curvature="0"
       d="m 414.73633,938.1995 c -8.88325,0.64084 -9.81064,1.5995 -11.47267,3.36572 -2.34455,2.50607 -5.43936,-3.23547 -5.43936,-3.23547 -1.86,-0.39076 -4.10556,-3.38136 -2.8916,-6.16877 1.19832,-2.76136 3.40741,-1.93816 4.09514,-1.07849 0.83883,1.04723 2.63632,2.76135 4.97045,2.69883 2.33412,-0.0625 5.02255,-0.55227 8.77904,-0.55227 3.80338,0 6.35633,1.41715 6.49699,2.64152 0.13026,1.03682 -0.30739,2.01632 -4.53799,2.32893 m 9.33651,-14.67688 -0.0417,0 c -0.13546,0 -0.24487,-0.10421 -0.24487,-0.22925 0,-0.0937 0.0573,-0.17714 0.14068,-0.21362 1.72453,-0.90655 4.29313,-1.63596 7.23162,-1.92773 0.88051,-0.0937 1.74539,-0.14589 2.5738,-0.14589 l 0.44286,0 c 4.93397,0.11466 8.87803,2.07362 8.82072,4.37649 -0.0625,2.30287 -4.10037,4.07953 -9.03954,3.97532 -1.5891,-0.0417 -3.08961,-0.27093 -4.3765,-0.64605 -0.16151,-0.0365 -0.26572,-0.16673 -0.26572,-0.32303 0,-0.15109 0.10421,-0.28135 0.27093,-0.32303 3.06876,-0.70857 5.14759,-1.87564 5.00171,-2.97497 -0.19799,-1.45362 -4.21498,-2.24555 -8.98744,-1.76623 -0.52622,0.0522 -1.0316,0.11984 -1.52656,0.19799 m 40.06573,34.49613 c -0.76067,2.55296 -1.83916,5.81969 -6.6533,8.28929 -0.70337,0.35949 -0.96388,-0.22925 -0.64605,-0.78152 1.82353,-3.09481 2.14135,-3.8659 2.67278,-5.07986 0.73462,-1.78706 1.1306,-4.32439 -0.34387,-9.60744 -2.89161,-10.40459 -8.93533,-24.32079 -13.31704,-28.82753 -4.23581,-4.35566 -11.90509,-5.58524 -18.84496,-3.80338 -2.55296,0.65126 -7.54945,3.2459 -16.81302,1.16185 -16.03151,-3.6106 -18.40732,4.41296 -19.3243,7.90895 -0.9274,3.49597 -3.13648,13.43166 -3.13648,13.43166 -0.73463,4.05346 -1.6985,11.08711 23.20061,15.83352 11.5977,2.20388 12.18124,5.2049 12.70225,7.35667 0.92219,3.86069 2.39144,6.06978 4.04825,7.17432 1.65682,1.10455 0,2.02152 -1.83917,2.20388 -4.93397,0.5158 -23.19541,-4.72036 -34.00117,-10.85266 -8.83634,-5.39767 -8.98223,-10.25349 -6.96071,-14.3799 -13.34829,-1.4432 -23.36733,1.25043 -25.18045,7.57029 -3.12086,10.83703 23.84146,29.35375 54.54463,38.64859 32.21932,9.74812 65.35562,2.9385 69.03916,-17.30278 1.67245,-9.19583 -6.07498,-16.00023 -19.14716,-18.94395"
       style="fill:#ffffff;fill-opacity:1"
       id="path4166" />
  </g>
</svg>
