<?xml version="1.0" encoding="UTF-8" standalone="no"?>
<!-- Created with Inkscape (http://www.inkscape.org/) -->

<svg
   xmlns:dc="http://purl.org/dc/elements/1.1/"
   xmlns:cc="http://creativecommons.org/ns#"
   xmlns:rdf="http://www.w3.org/1999/02/22-rdf-syntax-ns#"
   xmlns:svg="http://www.w3.org/2000/svg"
   xmlns="http://www.w3.org/2000/svg"
   xmlns:xlink="http://www.w3.org/1999/xlink"
   xmlns:sodipodi="http://sodipodi.sourceforge.net/DTD/sodipodi-0.dtd"
   xmlns:inkscape="http://www.inkscape.org/namespaces/inkscape"
   width="512"
   height="512"
   id="svg2"
   version="1.1"
   inkscape:version="0.48.4 r9939"
   sodipodi:docname="ristreto 455.svg">
  <defs
     id="defs4">
    <linearGradient
       id="linearGradient3889">
      <stop
         style="stop-color:#000000;stop-opacity:1;"
         offset="0"
         id="stop3891" />
      <stop
         style="stop-color:#000000;stop-opacity:0;"
         offset="1"
         id="stop3893" />
    </linearGradient>
    <linearGradient
       id="linearGradient3783">
      <stop
         style="stop-color:#000000;stop-opacity:1;"
         offset="0"
         id="stop3785" />
      <stop
         style="stop-color:#fb5549;stop-opacity:0;"
         offset="1"
         id="stop3787" />
    </linearGradient>
    <linearGradient
       inkscape:collect="always"
       xlink:href="#linearGradient3783"
       id="linearGradient3789"
       x1="-3045.6099"
       y1="379.88196"
       x2="-1068.8168"
       y2="1369.8314"
       gradientUnits="userSpaceOnUse" />
    <clipPath
       clipPathUnits="userSpaceOnUse"
       id="clipPath3793">
      <path
         d="m -937.14288,872.36218 a 762.85712,762.85712 0 1 1 -1525.71422,0 762.85712,762.85712 0 1 1 1525.71422,0 z"
         sodipodi:ry="762.85712"
         sodipodi:rx="762.85712"
         sodipodi:cy="872.36218"
         sodipodi:cx="-1700"
         id="path3795"
         style="fill:#fb5549;fill-opacity:1;fill-rule:evenodd;stroke:none"
         sodipodi:type="arc" />
    </clipPath>
    <linearGradient
       inkscape:collect="always"
       xlink:href="#linearGradient3783"
       id="linearGradient3821"
       gradientUnits="userSpaceOnUse"
       x1="-3045.6099"
       y1="379.88196"
       x2="-1068.8168"
       y2="1369.8314" />
    <linearGradient
       inkscape:collect="always"
       xlink:href="#linearGradient3889"
       id="linearGradient3895"
       x1="16.785711"
       y1="157.15663"
       x2="433.57141"
       y2="445.72806"
       gradientUnits="userSpaceOnUse" />
    <clipPath
       clipPathUnits="userSpaceOnUse"
       id="clipPath3899">
      <path
         sodipodi:nodetypes="ssccssssccs"
         inkscape:connector-curvature="0"
         id="path3901"
         d="m 54.285714,83.428574 407.142846,0 c 16.62,0 30,13.38 30,29.999996 0,48.33333 -4.28571,96.66667 -4.28571,145 l 0,145 c 0,16.62 -13.38,30 -30,30 l -397.14285,0 c -16.62,0 -30,-13.38 -30,-30 l 0,-145 c 0,-48.33333 -5.714286,-96.66667 -5.714286,-145 0,-16.619996 13.38,-29.999996 30,-29.999996 z"
         style="color:#000000;fill:#1cc1c1;fill-opacity:1;fill-rule:evenodd;stroke:none;stroke-width:46.59999847;marker:none;visibility:visible;display:inline;overflow:visible;enable-background:accumulate" />
    </clipPath>
  </defs>
  <sodipodi:namedview
     id="base"
     pagecolor="#ffffff"
     bordercolor="#666666"
     borderopacity="1.0"
     inkscape:pageopacity="0.0"
     inkscape:pageshadow="2"
     inkscape:zoom="0.35"
     inkscape:cx="291.17623"
     inkscape:cy="109.51678"
     inkscape:document-units="px"
     inkscape:current-layer="layer1"
     showgrid="false"
     showguides="true"
     inkscape:guide-bbox="true"
     inkscape:window-width="1360"
     inkscape:window-height="721"
     inkscape:window-x="0"
     inkscape:window-y="25"
     inkscape:window-maximized="1" />
  <metadata
     id="metadata7">
    <rdf:RDF>
      <cc:Work
         rdf:about="">
        <dc:format>image/svg+xml</dc:format>
        <dc:type
           rdf:resource="http://purl.org/dc/dcmitype/StillImage" />
        <dc:title />
      </cc:Work>
    </rdf:RDF>
  </metadata>
  <g
     inkscape:label="Capa 1"
     inkscape:groupmode="layer"
     id="layer1"
     transform="translate(0,-540.36218)">
    <path
       style="color:#000000;fill:#708299;fill-opacity:1;fill-rule:evenodd;stroke:none;stroke-width:46.59999847000000273;marker:none;visibility:visible;display:inline;overflow:visible;enable-background:accumulate"
       d="m 54.285714,83.428574 407.142846,0 c 16.62,0 30,13.38 30,29.999996 0,48.33333 -4.28571,96.66667 -4.28571,145 l 0,145 c 0,16.62 -13.38,30 -30,30 l -397.14285,0 c -16.62,0 -30,-13.38 -30,-30 l 0,-145 c 0,-48.33333 -5.714286,-96.66667 -5.714286,-145 0,-16.619996 13.38,-29.999996 30,-29.999996 z"
       id="rect3859"
       inkscape:connector-curvature="0"
       sodipodi:nodetypes="ssccssssccs"
       transform="translate(0,540.36218)" />
    <path
       transform="translate(0,540.36218)"
       sodipodi:nodetypes="ssccccs"
       inkscape:connector-curvature="0"
       id="path3881"
       d="m 54.285714,83.428574 407.142846,0 c 16.62,0 30,13.38 30,29.999996 0,48.33333 -4.28571,96.66667 -4.28571,145 l -457.14285,0 c 0,-48.33333 -5.714286,-96.66667 -5.714286,-145 0,-16.619996 13.38,-29.999996 30,-29.999996 z"
       style="color:#000000;fill:#000000;fill-opacity:0.075;fill-rule:evenodd;stroke:none;stroke-width:46.59999847000000273;marker:none;visibility:visible;display:inline;overflow:visible;enable-background:accumulate" />
    <path
       sodipodi:type="star"
       style="color:#000000;fill:#eeeeee;fill-opacity:1;fill-rule:evenodd;stroke:none;stroke-width:9.69999980999999956;marker:none;visibility:visible;display:inline;overflow:visible;enable-background:accumulate"
       id="path3879"
       sodipodi:sides="9"
       sodipodi:cx="-464.67017"
       sodipodi:cy="-35.502678"
       sodipodi:r1="44.308746"
       sodipodi:r2="34.251942"
       sodipodi:arg1="0.75315129"
       sodipodi:arg2="1.1022171"
       inkscape:flatsided="false"
       inkscape:rounded="0"
       inkscape:randomized="0"
       d="m -432.34529,-5.1981036 -16.85604,0.2553792 -10.18595,13.4327287 -13.07663,-10.6392264 -16.43728,3.7426694 -3.17852,-16.5556193 -14.99743,-7.698627 8.20686,-14.725455 -6.54011,-15.537649 15.75216,-6.005086 4.97739,-16.106433 15.92685,5.525129 14.16592,-9.138838 8.64918,14.470075 16.72606,2.104921 -2.67552,16.644312 11.45988,12.363764 -12.74832,11.03049 z"
       transform="matrix(1.1630981,0,0,1.1630981,927.78006,734.69502)"
       inkscape:transform-center-x="-2.4070713"
       inkscape:transform-center-y="0.10762341" />
    <path
       style="fill:url(#linearGradient3895);stroke:none;stroke-width:1px;stroke-linecap:butt;stroke-linejoin:miter;stroke-opacity:1;fill-opacity:1;opacity:0.53913043"
       d="m 275.54028,478.74185 -164.46885,-94.95614 110,-125 78.97206,45.59455 49.59937,-45.95169 146.50022,84.58194 0.28549,126.13235 z"
       id="path3887"
       inkscape:connector-curvature="0"
       transform="translate(0,540.36218)"
       sodipodi:nodetypes="cccccc"
       clip-path="url(#clipPath3899)" />
    <path
       style="font-size:medium;font-style:normal;font-variant:normal;font-weight:normal;font-stretch:normal;text-indent:0;text-align:start;text-decoration:none;line-height:normal;letter-spacing:normal;word-spacing:normal;text-transform:none;direction:ltr;block-progression:tb;writing-mode:lr-tb;text-anchor:start;baseline-shift:baseline;color:#000000;fill:#eeeeee;fill-opacity:1;stroke:none;stroke-width:12.80000019000000044;marker:none;visibility:visible;display:inline;overflow:visible;enable-background:accumulate;font-family:Sans;-inkscape-font-specification:Sans"
       d="m 313.3799,745.34 c -1.80708,-0.0139 -3.60539,0.78016 -4.8125,2.125 l -57.48176,64.34258 c -3.35344,3.12747 -2.49997,3.33103 0.3141,6.50527 l 19.16766,21.6209 c 1.78592,1.8809 1.64255,5.24475 -0.29693,6.96687 -1.93948,1.72212 -5.29666,1.46653 -6.95307,-0.52937 l -26.25,-29.625 -26.125,-29.28125 c -1.27203,-1.42245 -3.21945,-2.22655 -5.125,-2.125 -1.90555,0.10155 -3.7301,1.10667 -4.84375,2.65625 l -91.40625,127.125 c -1.37615,1.89918 -1.59808,4.56758 -0.53125,6.65625 1.06682,2.08867 3.3734,3.50165 5.71875,3.5 l 304.28125,0 c 2.27389,-0.003 4.49646,-1.32089 5.59375,-3.3125 1.09729,-1.99162 1.0246,-4.5761 -0.1875,-6.5 L 318.72365,748.30875 c -1.13894,-1.79323 -3.21949,-2.94909 -5.34375,-2.96875 z"
       id="path3862"
       inkscape:connector-curvature="0"
       sodipodi:nodetypes="cccccscccsccsccsccc" />
  </g>
</svg>
