<?xml version="1.0" encoding="UTF-8" standalone="no"?>
<!-- Created with Inkscape (http://www.inkscape.org/) -->

<svg
   xmlns:osb="http://www.openswatchbook.org/uri/2009/osb"
   xmlns:dc="http://purl.org/dc/elements/1.1/"
   xmlns:cc="http://creativecommons.org/ns#"
   xmlns:rdf="http://www.w3.org/1999/02/22-rdf-syntax-ns#"
   xmlns:svg="http://www.w3.org/2000/svg"
   xmlns="http://www.w3.org/2000/svg"
   xmlns:xlink="http://www.w3.org/1999/xlink"
   xmlns:sodipodi="http://sodipodi.sourceforge.net/DTD/sodipodi-0.dtd"
   xmlns:inkscape="http://www.inkscape.org/namespaces/inkscape"
   width="512"
   height="512"
   id="svg2985"
   version="1.1"
   inkscape:version="0.92.2pre0 (973e216, 2017-07-25)"
   sodipodi:docname="rubyripper.svg"
   viewBox="0 0 512 512">
  <defs
     id="defs2987">
    <linearGradient
       inkscape:collect="always"
       id="linearGradient943">
      <stop
         style="stop-color:#000000;stop-opacity:1;"
         offset="0"
         id="stop939" />
      <stop
         style="stop-color:#000000;stop-opacity:0;"
         offset="1"
         id="stop941" />
    </linearGradient>
    <linearGradient
       inkscape:collect="always"
       id="linearGradient925">
      <stop
         style="stop-color:#000000;stop-opacity:1;"
         offset="0"
         id="stop921" />
      <stop
         style="stop-color:#000000;stop-opacity:0;"
         offset="1"
         id="stop923" />
    </linearGradient>
    <linearGradient
       id="linearGradient5207"
       osb:paint="solid">
      <stop
         style="stop-color:#000015;stop-opacity:1;"
         offset="0"
         id="stop5209" />
    </linearGradient>
    <clipPath
       clipPathUnits="userSpaceOnUse"
       id="clipPath903">
      <rect
         ry="19.956167"
         y="-364.23138"
         x="13.821488"
         height="375.14398"
         width="487.42514"
         id="rect905"
         style="fill:#535d6c;fill-opacity:1;fill-rule:evenodd;stroke:none;stroke-width:19.39234924;stroke-linecap:butt;stroke-linejoin:round;stroke-miterlimit:4;stroke-dasharray:none;stroke-opacity:1" />
    </clipPath>
    <linearGradient
       id="linearGradient3866">
      <stop
         style="stop-color:#000000;stop-opacity:0.52083331"
         offset="0"
         id="stop3868" />
      <stop
         style="stop-color:#2883c3;stop-opacity:0;"
         offset="1"
         id="stop3870" />
    </linearGradient>
    <linearGradient
       id="linearGradient3874">
      <stop
         style="stop-color:#000d0e;stop-opacity:0.84105963;"
         offset="0"
         id="stop3876" />
      <stop
         style="stop-color:#000000;stop-opacity:0;"
         offset="1"
         id="stop3878" />
    </linearGradient>
    <clipPath
       id="clipPath892"
       clipPathUnits="userSpaceOnUse">
      <path
         inkscape:connector-curvature="0"
         id="path894"
         d="M 38.524123,20.232391 V 51.2388 h 3.597154 V 20.232391 Z M 14.125746,21.0025 V 52.010565 H 17.7229 V 21.0025 Z M 5.9924018,21.259203 V 52.267267 H 9.591212 V 21.259203 Z m 24.3983772,1.37129 v 31.006409 h 3.597153 V 22.630493 Z m -20.330877,1.626338 v 31.008065 h 3.597154 V 24.256831 Z m 24.396721,0.08612 v 31.008065 h 3.598809 V 24.342951 Z M 1.9265577,25.798705 V 56.80677 H 5.5237118 V 25.798705 Z m 16.2650323,0.08612 v 31.008064 h 3.597155 V 25.884825 Z m 24.398377,0 v 31.008064 h 3.597154 V 25.884825 Z m -16.265033,2.22752 v 31.006408 h 3.597155 V 28.112345 Z M 22.25909,30.76715 v 31.008065 h 3.597155 V 30.76715 Z"
         style="fill:#ffffff;fill-opacity:0.25520833;stroke:none;stroke-width:1.52630627;stroke-linecap:round;stroke-linejoin:round;stroke-miterlimit:4;stroke-dasharray:none;stroke-opacity:1" />
    </clipPath>
    <clipPath
       clipPathUnits="userSpaceOnUse"
       id="clipPath3881">
      <path
         sodipodi:type="arc"
         style="fill:#008dff;fill-opacity:1;fill-rule:evenodd;stroke:none"
         id="path3883"
         sodipodi:cx="539.5"
         sodipodi:cy="152.5"
         sodipodi:rx="103.5"
         sodipodi:ry="103.5"
         d="m 643,152.5 a 103.5,103.5 0 1 1 -207,0 103.5,103.5 0 1 1 207,0 z"
         transform="translate(-412,-17)" />
    </clipPath>
    <linearGradient
       id="linearGradient4019">
      <stop
         offset="0"
         style="stop-color:#adcce1;stop-opacity:1;"
         id="stop4021" />
      <stop
         offset="0.26238"
         style="stop-color:#6bbfe1;stop-opacity:1;"
         id="stop4023" />
      <stop
         offset="0.74620908"
         style="stop-color:#2596d1;stop-opacity:1;"
         id="stop4025" />
      <stop
         offset="1"
         style="stop-color:#2372c0;stop-opacity:1;"
         id="stop4027" />
    </linearGradient>
    <linearGradient
       id="linearGradient4085">
      <stop
         offset="0"
         style="stop-color:#ffffff;stop-opacity:1"
         id="stop4087" />
      <stop
         offset="0.06316455"
         style="stop-color:#ffffff;stop-opacity:0.2"
         id="stop4089" />
      <stop
         offset="0.95056331"
         style="stop-color:#ffffff;stop-opacity:0.2"
         id="stop4091" />
      <stop
         offset="1"
         style="stop-color:#ffffff;stop-opacity:0.39215687"
         id="stop4093" />
    </linearGradient>
    <filter
       id="filter3174"
       color-interpolation-filters="sRGB">
      <feGaussianBlur
         stdDeviation="1.71"
         id="feGaussianBlur3176" />
    </filter>
    <linearGradient
       gradientTransform="scale(1.0058652,0.994169)"
       gradientUnits="userSpaceOnUse"
       id="ButtonShadow"
       y2="7.0165396"
       x2="45.447727"
       y1="92.539597"
       x1="45.447727">
      <stop
         offset="0"
         style="stop-color:#000000;stop-opacity:1"
         id="stop3750" />
      <stop
         offset="1"
         style="stop-color:#000000;stop-opacity:0.58823532"
         id="stop3752" />
    </linearGradient>
    <linearGradient
       id="linearGradient5048-8-7">
      <stop
         offset="0"
         style="stop-color:#000000;stop-opacity:0"
         id="stop5050-4-2" />
      <stop
         offset="0.5"
         style="stop-color:#000000;stop-opacity:1"
         id="stop5056-7-4" />
      <stop
         offset="1"
         style="stop-color:#000000;stop-opacity:0"
         id="stop5052-0-1-7" />
    </linearGradient>
    <linearGradient
       id="linearGradient5060-29-0">
      <stop
         offset="0"
         style="stop-color:#000000;stop-opacity:1"
         id="stop5062-9-7" />
      <stop
         offset="1"
         style="stop-color:#000000;stop-opacity:0"
         id="stop5064-08-2" />
    </linearGradient>
    <linearGradient
       id="linearGradient3851">
      <stop
         id="stop3853"
         style="stop-color:#5b8da7;stop-opacity:1;"
         offset="0" />
      <stop
         id="stop3855"
         style="stop-color:#1c3447;stop-opacity:1;"
         offset="1" />
    </linearGradient>
    <filter
       id="filter3174-0"
       color-interpolation-filters="sRGB">
      <feGaussianBlur
         stdDeviation="1.71"
         id="feGaussianBlur3176-9" />
    </filter>
    <clipPath
       id="clipPath916"
       clipPathUnits="userSpaceOnUse">
      <g
         id="g920"
         inkscape:label="circulo"
         style="display:inline;opacity:0.98999999;fill:#126136;fill-opacity:1"
         transform="matrix(1.1503549,0,0,1.1503549,-4.4861245,-7.5255648)">
        <path
           style="fill:#126136;fill-opacity:1;stroke:none;stroke-width:1.4909519"
           d="M 44.322082,27.405077 A 19.729762,19.729765 0 0 1 24.59232,47.134842 19.729762,19.729765 0 0 1 4.8625579,27.405077 19.729762,19.729765 0 0 1 24.59232,7.6753138 19.729762,19.729765 0 0 1 44.322082,27.405077 Z"
           id="path918"
           inkscape:connector-curvature="0" />
      </g>
    </clipPath>
    <linearGradient
       id="linearGradient3764"
       x1="1"
       x2="47"
       gradientUnits="userSpaceOnUse"
       gradientTransform="rotate(-90,23.999998,24)">
      <stop
         stop-color="#0bb8f9"
         stop-opacity="1"
         id="stop7" />
      <stop
         offset="1"
         stop-color="#20bef9"
         stop-opacity="1"
         id="stop9" />
    </linearGradient>
    <clipPath
       id="clipPath-275571731">
      <g
         transform="translate(0,-1004.3622)"
         id="g12">
        <path
           d="m -24,13 c 0,1.105 -0.672,2 -1.5,2 -0.828,0 -1.5,-0.895 -1.5,-2 0,-1.105 0.672,-2 1.5,-2 0.828,0 1.5,0.895 1.5,2 z"
           transform="matrix(15.333333,0,0,11.5,414.99999,878.8622)"
           id="path14"
           inkscape:connector-curvature="0"
           style="fill:#1890d0" />
      </g>
    </clipPath>
    <clipPath
       id="clipPath-284952804">
      <g
         transform="translate(0,-1004.3622)"
         id="g17">
        <path
           d="m -24,13 c 0,1.105 -0.672,2 -1.5,2 -0.828,0 -1.5,-0.895 -1.5,-2 0,-1.105 0.672,-2 1.5,-2 0.828,0 1.5,0.895 1.5,2 z"
           transform="matrix(15.333333,0,0,11.5,414.99999,878.8622)"
           id="path19"
           inkscape:connector-curvature="0"
           style="fill:#1890d0" />
      </g>
    </clipPath>
    <linearGradient
       inkscape:collect="always"
       xlink:href="#linearGradient3764"
       id="linearGradient3806"
       gradientUnits="userSpaceOnUse"
       gradientTransform="rotate(-90,23.999998,24)"
       x1="1"
       x2="47" />
    <linearGradient
       inkscape:collect="always"
       xlink:href="#linearGradient925"
       id="linearGradient927"
       x1="-548.62396"
       y1="-636.75702"
       x2="316.0004"
       y2="-115.70772"
       gradientUnits="userSpaceOnUse"
       gradientTransform="translate(0,448)" />
    <linearGradient
       inkscape:collect="always"
       xlink:href="#linearGradient943"
       id="linearGradient945"
       x1="-549.65894"
       y1="-693.3587"
       x2="431.02625"
       y2="77.609596"
       gradientUnits="userSpaceOnUse"
       gradientTransform="translate(0,448)" />
    <linearGradient
       inkscape:collect="always"
       xlink:href="#linearGradient943"
       id="linearGradient947"
       x1="-197.2276"
       y1="-578.1427"
       x2="555.92982"
       y2="-157.60709"
       gradientUnits="userSpaceOnUse"
       gradientTransform="translate(0,448)" />
  </defs>
  <sodipodi:namedview
     id="base"
     pagecolor="#ffffff"
     bordercolor="#666666"
     borderopacity="1.0"
     inkscape:pageopacity="0.0"
     inkscape:pageshadow="2"
     inkscape:zoom="0.65186404"
     inkscape:cx="365.39507"
     inkscape:cy="24.793792"
     inkscape:current-layer="layer1"
     showgrid="true"
     inkscape:document-units="px"
     inkscape:grid-bbox="true"
     inkscape:window-width="1360"
     inkscape:window-height="740"
     inkscape:window-x="0"
     inkscape:window-y="0"
     inkscape:window-maximized="1"
     inkscape:snap-text-baseline="true"
     showguides="false" />
  <metadata
     id="metadata2990">
    <rdf:RDF>
      <cc:Work
         rdf:about="">
        <dc:format>image/svg+xml</dc:format>
        <dc:type
           rdf:resource="http://purl.org/dc/dcmitype/StillImage" />
        <dc:title></dc:title>
      </cc:Work>
    </rdf:RDF>
  </metadata>
  <g
     id="layer1"
     inkscape:label="Layer 1"
     inkscape:groupmode="layer"
     transform="translate(0,448)">
    <rect
       style="fill:#f24d8d;fill-opacity:1;fill-rule:evenodd;stroke:none;stroke-width:19.39234924;stroke-linecap:butt;stroke-linejoin:round;stroke-miterlimit:4;stroke-dasharray:none;stroke-opacity:1"
       id="rect2993"
       width="487.42514"
       height="375.14398"
       x="13.821488"
       y="-364.23138"
       ry="19.956167" />
    <g
       aria-label="$_"
       style="font-style:normal;font-variant:normal;font-weight:normal;font-stretch:normal;font-size:22.16491699px;line-height:0%;font-family:'Ubuntu Mono';-inkscape-font-specification:'Ubuntu Mono, Normal';text-align:start;letter-spacing:0px;word-spacing:0px;writing-mode:lr-tb;text-anchor:start;fill:#ffffff;fill-opacity:1;stroke:#ffffff;stroke-width:0;stroke-miterlimit:4;stroke-dasharray:none;stroke-opacity:1"
       id="text5213"
       transform="translate(54.237289,-8.6779663)" />
    <text
       xml:space="preserve"
       style="font-style:normal;font-weight:normal;font-size:40px;line-height:1.25;font-family:sans-serif;letter-spacing:0px;word-spacing:0px;fill:#000000;fill-opacity:1;stroke:none"
       x="325.22119"
       y="-140.03027"
       id="text819"><tspan
         sodipodi:role="line"
         id="tspan817"
         x="325.22119"
         y="-104.63965"
         style="letter-spacing:0.00000005px" /></text>
    <path
       style="fill:url(#linearGradient947);stroke:none;stroke-width:1px;stroke-linecap:butt;stroke-linejoin:miter;stroke-opacity:1;fill-opacity:1"
       d="M 436.88086 115.74219 L 316 332.29297 L 501.23828 439.24023 C 501.23959 439.14549 501.24609 439.0521 501.24609 438.95703 L 501.24609 149.82812 L 442.65039 115.99805 L 444.85742 120.34766 L 436.88086 115.74219 z "
       transform="translate(0,-448)"
       id="path933" />
    <path
       style="fill:#ffffff;fill-opacity:1;stroke:none;stroke-width:17.30897141;stroke-miterlimit:4;stroke-dasharray:none;stroke-opacity:1"
       d="m 316.00039,-332.25694 v 216.54922 h 172.73813 v -158.27569 h -51.93593 l 0.0789,-58.27353 z m 126.65074,0.25468 -0.079,52.2492 h 46.10769 z"
       id="rect895"
       inkscape:connector-curvature="0" />
    <path
       style="fill:url(#linearGradient927);stroke:none;stroke-width:1px;stroke-linecap:butt;stroke-linejoin:miter;stroke-opacity:1;fill-opacity:1"
       d="M 138.92773 127.38477 C 104.33018 127.41309 74.651557 139.74046 51.404297 168.14453 C 12.048658 230.25265 43.096391 273.72561 71.333984 317.94141 L 315.50195 458.91211 L 481.29102 458.91211 C 492.34673 458.91211 501.24609 450.01275 501.24609 438.95703 L 501.24609 312.50586 L 197.12695 136.92188 C 176.52177 130.73008 157.05026 127.36993 138.92773 127.38477 z "
       transform="translate(0,-448)"
       id="path919" />
    <path
       style="color:#000000;font-style:normal;font-variant:normal;font-weight:normal;font-stretch:normal;font-size:medium;line-height:normal;font-family:sans-serif;font-variant-ligatures:normal;font-variant-position:normal;font-variant-caps:normal;font-variant-numeric:normal;font-variant-alternates:normal;font-feature-settings:normal;text-indent:0;text-align:start;text-decoration:none;text-decoration-line:none;text-decoration-style:solid;text-decoration-color:#000000;letter-spacing:normal;word-spacing:normal;text-transform:none;writing-mode:lr-tb;direction:ltr;text-orientation:mixed;dominant-baseline:auto;baseline-shift:baseline;text-anchor:start;white-space:normal;shape-padding:0;clip-rule:nonzero;display:inline;overflow:visible;visibility:visible;opacity:1;isolation:auto;mix-blend-mode:normal;color-interpolation:sRGB;color-interpolation-filters:linearRGB;solid-color:#000000;solid-opacity:1;vector-effect:none;fill:#ffffff;fill-opacity:1;fill-rule:nonzero;stroke:none;stroke-width:12.30465126;stroke-linecap:butt;stroke-linejoin:miter;stroke-miterlimit:4;stroke-dasharray:none;stroke-dashoffset:0;stroke-opacity:1;color-rendering:auto;image-rendering:auto;shape-rendering:auto;text-rendering:auto;enable-background:accumulate"
       d="m 135.59258,-329.38086 c -60.422486,0 -109.536241,49.11375 -109.536241,109.53623 0,60.42247 49.113755,109.53624 109.536241,109.53624 60.42249,0 109.53826,-49.11377 109.53826,-109.53624 0,-60.42248 -49.11577,-109.53623 -109.53826,-109.53623 z m 0,12.30465 c 14.33847,0 27.94276,3.09203 40.18641,8.6437 l -28.79299,63.35975 c -3.48285,-1.58941 -7.33994,-2.48337 -11.39342,-2.48337 -15.21358,0 -27.71151,12.49791 -27.71151,27.7115 0,5.58804 1.69066,10.806 4.57821,15.17652 l -58.048571,38.40197 c -10.142987,-15.35499 -16.049718,-33.76461 -16.049718,-53.57849 0,-53.77254 43.45903,-97.23158 97.231589,-97.23158 z m 81.06572,43.47284 c 10.21615,15.39094 16.16789,33.86753 16.16789,53.75874 0,53.77254 -43.46106,97.23156 -97.23361,97.23156 -14.38412,0 -28.02884,-3.11269 -40.302542,-8.69774 l 28.792982,-63.35976 c 3.51318,1.62297 7.41085,2.53744 11.50956,2.53744 15.21359,0 27.71152,-12.49794 27.71152,-27.7115 0,-5.66437 -1.73419,-10.95023 -4.69436,-15.35678 z m -81.06572,41.42804 c 6.90115,0 12.3307,5.42955 12.3307,12.3307 0,6.90115 -5.42955,12.33067 -12.3307,12.33067 -6.90116,0 -12.33068,-5.42952 -12.33068,-12.33067 0,-6.90115 5.42952,-12.3307 12.33068,-12.3307 z"
       id="path78"
       inkscape:connector-curvature="0" />
    <path
       style="fill:url(#linearGradient945);stroke:none;stroke-width:1px;stroke-linecap:butt;stroke-linejoin:miter;stroke-opacity:1;fill-opacity:1"
       d="M 327.16602 396.02344 L 226.57617 396.39453 L 236.83398 427.85938 L 290.61719 458.91211 L 436.0918 458.91211 L 327.16602 396.02344 z "
       transform="translate(0,-448)"
       id="path931" />
    <path
       style="fill:#ffffff;fill-opacity:1;stroke:none;stroke-width:1.08695245px;stroke-linecap:butt;stroke-linejoin:miter;stroke-opacity:1"
       d="m 236.83313,-83.809517 -48.93196,31.833698 48.93196,31.835829 v -10.612654 h 41.40396 v 10.612654 l 48.92985,-31.835829 -48.92985,-31.833698 v 10.610541 h -41.40396 z"
       id="path906"
       inkscape:connector-curvature="0" />
  </g>
</svg>
