<?xml version="1.0" encoding="UTF-8" standalone="no"?>
<!-- Created with Inkscape (http://www.inkscape.org/) -->

<svg
   xmlns:dc="http://purl.org/dc/elements/1.1/"
   xmlns:cc="http://creativecommons.org/ns#"
   xmlns:rdf="http://www.w3.org/1999/02/22-rdf-syntax-ns#"
   xmlns:svg="http://www.w3.org/2000/svg"
   xmlns="http://www.w3.org/2000/svg"
   xmlns:xlink="http://www.w3.org/1999/xlink"
   xmlns:sodipodi="http://sodipodi.sourceforge.net/DTD/sodipodi-0.dtd"
   xmlns:inkscape="http://www.inkscape.org/namespaces/inkscape"
   width="512"
   height="512"
   id="svg2"
   version="1.1"
   inkscape:version="0.48.4 r9939"
   sodipodi:docname="0ad.svg">
  <sodipodi:namedview
     id="base"
     pagecolor="#ffffff"
     bordercolor="#666666"
     borderopacity="1.0"
     inkscape:pageopacity="0.0"
     inkscape:pageshadow="2"
     inkscape:zoom="0.075073243"
     inkscape:cx="364.58477"
     inkscape:cy="201.79225"
     inkscape:document-units="px"
     inkscape:current-layer="layer1"
     showgrid="false"
     inkscape:window-width="1360"
     inkscape:window-height="721"
     inkscape:window-x="0"
     inkscape:window-y="25"
     inkscape:window-maximized="1" />
  <defs
     id="defs4">
    <linearGradient
       inkscape:collect="always"
       id="linearGradient3973">
      <stop
         style="stop-color:#37bea9;stop-opacity:1;"
         offset="0"
         id="stop3975" />
      <stop
         style="stop-color:#37bea9;stop-opacity:0;"
         offset="1"
         id="stop3977" />
    </linearGradient>
    <linearGradient
       id="linearGradient3837"
       inkscape:collect="always">
      <stop
         id="stop3839"
         offset="0"
         style="stop-color:#7db257;stop-opacity:1;" />
      <stop
         id="stop3841"
         offset="1"
         style="stop-color:#7db257;stop-opacity:0;" />
    </linearGradient>
    <clipPath
       id="clipPath3847"
       clipPathUnits="userSpaceOnUse">
      <path
         sodipodi:type="arc"
         style="fill:url(#linearGradient3851);fill-opacity:1;fill-rule:evenodd;stroke:none"
         id="path3849"
         sodipodi:cx="322.4407"
         sodipodi:cy="342.29437"
         sodipodi:rx="260.2153"
         sodipodi:ry="260.2153"
         d="m 582.65601,342.29437 a 260.2153,260.2153 0 1 1 -520.430607,0 260.2153,260.2153 0 1 1 520.430607,0 z"
         transform="matrix(0.88586957,0,0,0.88586957,-24.010886,495.98978)" />
    </clipPath>
    <linearGradient
       y2="356.66208"
       x2="316.05505"
       y1="546.63525"
       x1="502.83536"
       gradientUnits="userSpaceOnUse"
       id="linearGradient3851"
       xlink:href="#linearGradient3837"
       inkscape:collect="always" />
    <clipPath
       clipPathUnits="userSpaceOnUse"
       id="clipPath3959">
      <path
         transform="matrix(0.88586957,0,0,0.88586957,-24.010886,495.98978)"
         d="m 582.65601,342.29437 a 260.2153,260.2153 0 1 1 -520.430607,0 260.2153,260.2153 0 1 1 520.430607,0 z"
         sodipodi:ry="260.2153"
         sodipodi:rx="260.2153"
         sodipodi:cy="342.29437"
         sodipodi:cx="322.4407"
         id="path3961"
         style="fill:#37bea9;fill-opacity:1;fill-rule:evenodd;stroke:none"
         sodipodi:type="arc" />
    </clipPath>
    <linearGradient
       inkscape:collect="always"
       xlink:href="#linearGradient3973"
       id="linearGradient3979"
       x1="550.90973"
       y1="596.0343"
       x2="171.03345"
       y2="253.95529"
       gradientUnits="userSpaceOnUse" />
  </defs>
  <metadata
     id="metadata7">
    <rdf:RDF>
      <cc:Work
         rdf:about="">
        <dc:format>image/svg+xml</dc:format>
        <dc:type
           rdf:resource="http://purl.org/dc/dcmitype/StillImage" />
        <dc:title></dc:title>
      </cc:Work>
    </rdf:RDF>
  </metadata>
  <g
     inkscape:label="Capa 1"
     inkscape:groupmode="layer"
     id="layer1"
     transform="translate(0,-540.36218)">
    <path
       sodipodi:type="arc"
       style="fill:#37bea9;fill-rule:evenodd;stroke:none;fill-opacity:1"
       id="path2990"
       sodipodi:cx="322.4407"
       sodipodi:cy="342.29437"
       sodipodi:rx="260.2153"
       sodipodi:ry="260.2153"
       d="m 582.65601,342.29437 c 0,143.71295 -116.50236,260.2153 -260.21531,260.2153 -143.71294,0 -260.215297,-116.50235 -260.215297,-260.2153 0,-143.71294 116.502357,-260.215299 260.215297,-260.215299 143.71295,0 260.21531,116.502359 260.21531,260.215299 z"
       transform="matrix(0.88586957,0,0,0.88586957,-24.010886,495.98978)" />
    <g
       id="g3823"
       clip-path="url(#clipPath3959)"
       style="opacity:0.24782609">
      <g
         id="g3825"
         style="font-size:medium;font-style:normal;font-variant:normal;font-weight:normal;font-stretch:normal;text-indent:0;text-align:start;text-decoration:none;line-height:normal;letter-spacing:normal;word-spacing:normal;text-transform:none;direction:ltr;block-progression:tb;writing-mode:lr-tb;text-anchor:start;baseline-shift:baseline;color:#000000;fill:#000000;fill-opacity:1;fill-rule:nonzero;stroke:none;stroke-width:10;marker:none;visibility:visible;display:inline;overflow:visible;enable-background:accumulate;font-family:Sans;-inkscape-font-specification:Sans">
        <path
           id="path3827"
           d="M381.85449 666.15289C381.75629 666.15989 381.65836 666.16939 381.56081 666.18229L1017.95691307 1302.57839307C1018.05446307 1302.56549307 1018.15239307 1302.55599307 1018.25059307 1302.54899307Z" />
        <path
           id="path3829"
           d="M381.56081 666.18229C299.52661 674.85988 234.17312 708.96793 214.15991 756.16761L850.556013068 1392.56371307C870.569223068 1345.36403307 935.922713068 1311.25598307 1017.95691307 1302.57839307Z" />
        <path
           id="path3831"
           d="M214.15991 756.16761L196.86182 756.43193L833.257923068 1392.82803307L850.556013068 1392.56371307Z" />
        <path
           id="path3833"
           d="M196.86182 756.43193C195.94187 756.45453 195.03055 756.7549 194.27738 757.28362L830.673483068 1393.67972307C831.426653068 1393.15100307 832.337973068 1392.85063307 833.257923068 1392.82803307Z" />
        <path
           id="path3835"
           d="M194.27738 757.28362C162.28266 779.48026 142.0646 806.20663 127.40513 832.79024L763.801233068 1469.18634307C778.460703068 1442.60273307 798.678763068 1415.87636307 830.673483068 1393.67972307Z" />
        <path
           id="path3837"
           d="M127.40513 832.79024C126.54592 834.35067 126.67315 836.40628 127.72819 837.84163L764.124293068 1474.23773307C763.069253068 1472.80238307 762.942023068 1470.74677307 763.801233068 1469.18634307Z" />
        <path
           id="path3839"
           d="M127.72819 837.84163C127.859555098 838.020349936 128.004447175 838.188286552 128.160831056 838.344670433L764.556934124 1474.7407735C764.400550243 1474.58438962 764.255658166 1474.416453 764.124293068 1474.23773307Z" />
        <path
           id="path3841"
           d="M128.160831056 838.344670433C129.260410042 839.444249419 130.928131305 839.972673749 132.45653 839.66248L768.852633068 1476.05858307C767.324234373 1476.36877682 765.65651311 1475.84035249 764.556934124 1474.7407735Z" />
        <path
           id="path3843"
           d="M132.45653 839.66248L183.14669 829.41285L819.542793068 1465.80895307L768.852633068 1476.05858307Z" />
        <path
           id="path3845"
           d="M183.14669 829.41285L180.65036 838.37027L817.046463068 1474.76637307L819.542793068 1465.80895307Z" />
        <path
           id="path3847"
           d="M180.65036 838.37027C180.23157 839.85899 180.60796 841.54705 181.61953 842.71681L818.015633068 1479.11291307C817.004063068 1477.94315307 816.627673068 1476.25509307 817.046463068 1474.76637307Z" />
        <path
           id="path3850"
           d="M181.61953 842.71681L194.39486 857.34237L830.790963068 1493.73847307L818.015633068 1479.11291307Z" />
        <path
           id="path3852"
           d="M194.39486 857.34237C194.397475832 857.344724249 194.400057451 857.347215349 194.402620966 857.349778864L830.798724034 1493.74588193C830.796160519 1493.74331842 830.7935789 1493.74082732 830.790963068 1493.73847307Z" />
        <path
           id="path3854"
           d="M194.402620966 857.349778864C194.408768562 857.35592646 194.414812044 857.36249051 194.42097358 857.368582346L830.817076648 1493.76468541C830.810915112 1493.75859358 830.80487163 1493.75202953 830.798724034 1493.74588193Z" />
        <path
           id="path3856"
           d="M194.42097358 857.368582346C194.422064938 857.369661358 194.42316 857.370725556 194.42426 857.37177L830.820363068 1493.76787307C830.819263068 1493.76682862 830.818168006 1493.76576443 830.817076648 1493.76468541Z" />
        <path
           id="path3858"
           d="M194.42426 857.37177C194.524181115 857.494172815 194.630284011 857.611540425 194.742023783 857.723280196L831.138126851 1494.11938326C831.026387079 1494.00764349 830.920284183 1493.89027588 830.820363068 1493.76787307Z" />
        <path
           id="path3860"
           d="M194.742023783 857.723280196C194.782224697 857.76348111 194.823155228 857.802953578 194.86479 857.84167L831.260893068 1494.23777307C831.219258296 1494.19905665 831.178327765 1494.15958418 831.138126851 1494.11938326Z" />
        <path
           id="path3862"
           d="M194.86479 857.84167L209.51971 870.67574L845.915813068 1507.07184307L831.260893068 1494.23777307Z" />
        <path
           id="path3864"
           d="M209.51971 870.67574C210.68399 871.6973 212.37287 872.08534 213.86626 871.67427L850.262363068 1508.07037307C848.768973068 1508.48144307 847.080093068 1508.09340307 845.915813068 1507.07184307Z" />
        <path
           id="path3866"
           d="M213.86626 871.67427L222.82368 869.17794L859.219783068 1505.57404307L850.262363068 1508.07037307Z" />
        <path
           id="path3868"
           d="M222.82368 869.17794L212.57405 919.86811L848.970153068 1556.26421307L859.219783068 1505.57404307Z" />
        <path
           id="path3870"
           d="M212.57405 919.86811C212.264614032 921.392680136 212.789655334 923.033508762 213.883630914 924.127484342L850.279733982 1560.52358741C849.185758402 1559.42961183 848.6607171 1557.7887832 848.970153068 1556.26421307Z" />
        <path
           id="path3872"
           d="M213.883630914 924.127484342C214.042348643 924.286202071 214.213041985 924.433408981 214.3949 924.56708L850.791003068 1560.96318307C850.609145053 1560.82951205 850.438451711 1560.68230514 850.279733982 1560.52358741Z" />
        <path
           id="path3874"
           d="M214.3949 924.56708C215.83024 925.62209 217.88584 925.77876 219.44629 924.9195L855.842393068 1561.31560307C854.281943068 1562.17486307 852.226343068 1562.01819307 850.791003068 1560.96318307Z" />
        <path
           id="path3876"
           d="M219.44629 924.9195C246.02756 910.26134 272.75549 890.07249 294.95291 858.07662L931.349013068 1494.47272307C909.151593068 1526.46859307 882.423663068 1546.65744307 855.842393068 1561.31560307Z" />
        <path
           id="path3878"
           d="M294.95291 858.07662C295.48163 857.32347 295.78195 856.41215 295.8046 855.49218L932.200703068 1491.88828307C932.178053068 1492.80825307 931.877733068 1493.71957307 931.349013068 1494.47272307Z" />
        <path
           id="path3880"
           d="M295.8046 855.49218L296.06891 838.16472L932.465013068 1474.56082307L932.200703068 1491.88828307Z" />
        <path
           id="path3882"
           d="M296.06891 838.16472C343.05402 818.27704 377.63757 753.98696 386.49477 672.40847L1022.89087307 1308.80457307C1014.03367307 1390.38306307 979.450123068 1454.67314307 932.465013068 1474.56082307Z" />
        <path
           id="path3884"
           d="M386.49477 672.40847C387.00288 670.96525 386.73084 669.26142 385.81929 668.03255L1022.21539307 1304.42865307C1023.12694307 1305.65752307 1023.39898307 1307.36135307 1022.89087307 1308.80457307Z" />
        <path
           id="path3886"
           d="M385.81929 668.03255C385.687763282 667.855237468 385.543472226 667.688555084 385.388246841 667.533329699L1021.78434991 1303.92943277C1021.93957529 1304.08465815 1022.08386635 1304.25134054 1022.21539307 1304.42865307Z" />
        <path
           id="path3888"
           d="M385.388246841 667.533329699C384.46767788 666.612760739 383.162535472 666.095148171 381.85453 666.15296L1018.25063307 1302.54906307C1019.55863854 1302.49125124 1020.86378095 1303.00886381 1021.78434991 1303.92943277Z" />
        <path
           id="path3890"
           d="M168.16872 858.10591C149.55357 858.77632 128.44134 886.4695 132.45653 907.47449L768.852633068 1543.87059307C764.837443068 1522.86560307 785.949673068 1495.17242307 804.564823068 1494.50201307Z" />
        <path
           id="path3892"
           d="M132.45653 907.47449C133.3337467 911.911761978 135.363929491 915.412822742 138.178491508 918.227384759L774.574594576 1554.62348783C771.760032559 1551.80892581 769.729849767 1548.30786505 768.852633068 1543.87059307Z" />
        <path
           id="path3894"
           d="M138.178491508 918.227384759C144.514964212 924.563857463 154.827008472 927.420859012 164.90881 929.64777L801.304913068 1566.04387307C791.22311154 1563.81696208 780.911067279 1560.95996053 774.574594576 1554.62348783Z" />
        <path
           id="path3896"
           d="M164.90881 929.64777C180.46919 931.48262 194.8689 907.49332 198.00719 876.69622L834.403293068 1513.09232307C831.265003068 1543.88942307 816.865293068 1567.87872307 801.304913068 1566.04387307Z" />
        <path
           id="path3898"
           d="M198.00719 876.69622C191.77409 888.64697 170.52358 906.94116 156.15697 898.54645L792.553073068 1534.94255307C806.919683068 1543.33726307 828.170193068 1525.04307307 834.403293068 1513.09232307Z" />
        <path
           id="path3900"
           d="M156.15697 898.54645C148.09778 889.65781 164.41426 865.798 179.18194 861.4833L815.578043068 1497.87940307C800.810363068 1502.19410307 784.493883068 1526.05391307 792.553073068 1534.94255307Z" />
        <path
           id="path3902"
           d="M179.18194 861.4833C175.78154 858.99228 172.03224 857.96678 168.16872 858.10591L804.564823068 1494.50201307C808.428343068 1494.36288307 812.177643068 1495.38838307 815.578043068 1497.87940307Z" />
      </g>
      <path
         style="font-size:medium;font-style:normal;font-variant:normal;font-weight:normal;font-stretch:normal;text-indent:0;text-align:start;text-decoration:none;line-height:normal;letter-spacing:normal;word-spacing:normal;text-transform:none;direction:ltr;block-progression:tb;writing-mode:lr-tb;text-anchor:start;baseline-shift:baseline;color:#000000;fill:#000000;fill-opacity:1;fill-rule:nonzero;stroke:none;stroke-width:10;marker:none;visibility:visible;display:inline;overflow:visible;enable-background:accumulate;font-family:Sans;-inkscape-font-specification:Sans"
         d="m 381.85449,666.15289 c -0.0982,0.007 -0.19613,0.0165 -0.29368,0.0294 -82.0342,8.67759 -147.38769,42.78564 -167.4009,89.98532 l -17.29809,0.26432 c -0.91995,0.0226 -1.83127,0.32297 -2.58444,0.85169 -31.99472,22.19664 -52.21278,48.92301 -66.87225,75.50662 -0.85921,1.56043 -0.73198,3.61604 0.32306,5.05139 1.05503,1.43535 2.98257,2.17516 4.72834,1.82085 l 50.69016,-10.24963 -2.49633,8.95742 c -0.41879,1.48872 -0.0424,3.17678 0.96917,4.34654 l 12.77533,14.62556 c 0.01,0.009 0.0195,0.02 0.0294,0.0294 0.13587,0.16644 0.28317,0.32357 0.44053,0.4699 l 14.65492,12.83407 c 1.16428,1.02156 2.85316,1.4096 4.34655,0.99853 l 8.95742,-2.49633 -10.24963,50.69017 c -0.35433,1.74576 0.38552,3.64396 1.82085,4.69897 1.43534,1.05501 3.49094,1.21168 5.05139,0.35242 26.58127,-14.65816 53.3092,-34.84701 75.50662,-66.84288 0.52872,-0.75315 0.82904,-1.66447 0.85169,-2.58444 l 0.26431,-17.32746 c 46.98511,-19.88768 81.56866,-84.17776 90.42586,-165.75625 0.50811,-1.44322 0.23607,-3.14705 -0.67548,-4.37592 -0.91155,-1.22887 -2.4362,-1.94715 -3.96476,-1.87959 z M 168.16872,858.10591 c -18.61515,0.67041 -39.72738,28.36359 -35.71219,49.36858 2.85211,14.42698 17.8923,18.95721 32.45228,22.17328 15.56038,1.83485 29.96009,-22.15445 33.09838,-52.95155 -6.2331,11.95075 -27.48361,30.24494 -41.85022,21.85023 -8.05919,-8.88864 8.25729,-32.74845 23.02497,-37.06315 -3.4004,-2.49102 -7.1497,-3.51652 -11.01322,-3.37739 z"
         id="path3808"
         inkscape:connector-curvature="0" />
    </g>
    <path
       transform="matrix(0.88586957,0,0,0.88586957,-24.010886,495.98978)"
       d="m 582.65601,342.29437 c 0,143.71295 -116.50236,260.2153 -260.21531,260.2153 -143.71294,0 -260.215297,-116.50235 -260.215297,-260.2153 0,-143.71294 116.502357,-260.215299 260.215297,-260.215299 143.71295,0 260.21531,116.502359 260.21531,260.215299 z"
       sodipodi:ry="260.2153"
       sodipodi:rx="260.2153"
       sodipodi:cy="342.29437"
       sodipodi:cx="322.4407"
       id="path3963"
       style="fill:url(#linearGradient3979);fill-rule:evenodd;stroke:none;fill-opacity:1"
       sodipodi:type="arc" />
    <path
       style="font-size:medium;font-style:normal;font-variant:normal;font-weight:normal;font-stretch:normal;text-indent:0;text-align:start;text-decoration:none;line-height:normal;letter-spacing:normal;word-spacing:normal;text-transform:none;direction:ltr;block-progression:tb;writing-mode:lr-tb;text-anchor:start;baseline-shift:baseline;color:#000000;fill:#ffffee;fill-opacity:1;fill-rule:nonzero;stroke:none;stroke-width:10;marker:none;visibility:visible;display:inline;overflow:visible;enable-background:accumulate;font-family:Sans;-inkscape-font-specification:Sans"
       d="M 381.84375 125.78125 C 381.74555 125.78825 381.66005 125.7996 381.5625 125.8125 C 299.5283 134.49009 234.16946 168.61282 214.15625 215.8125 L 196.875 216.0625 C 195.95505 216.0851 195.03442 216.37753 194.28125 216.90625 C 162.28653 239.10289 142.06572 265.85389 127.40625 292.4375 C 126.54704 293.99793 126.66371 296.0334 127.71875 297.46875 C 128.77378 298.9041 130.72298 299.66681 132.46875 299.3125 L 183.15625 289.0625 L 180.65625 298 C 180.23746 299.48872 180.61343 301.17399 181.625 302.34375 L 194.40625 316.96875 C 194.41625 316.97775 194.4276 316.9906 194.4375 317 C 194.57337 317.16644 194.71764 317.32242 194.875 317.46875 L 209.53125 330.3125 C 210.69553 331.33406 212.38161 331.72357 213.875 331.3125 L 222.8125 328.8125 L 212.5625 379.5 C 212.20817 381.24576 212.97092 383.16374 214.40625 384.21875 C 215.84159 385.27376 217.87705 385.42176 219.4375 384.5625 C 246.01877 369.90434 272.74008 349.71462 294.9375 317.71875 C 295.46622 316.9656 295.78985 316.04497 295.8125 315.125 L 296.0625 297.8125 C 343.04761 277.92482 377.6428 213.60974 386.5 132.03125 C 387.00811 130.58803 386.72405 128.88512 385.8125 127.65625 C 384.90095 126.42738 383.37231 125.71369 381.84375 125.78125 z M 306.1875 183.53125 C 306.54871 183.51294 306.91549 183.53125 307.28125 183.53125 C 318.98555 183.53125 328.46875 193.01445 328.46875 204.71875 C 328.46875 216.42305 318.98555 225.90625 307.28125 225.90625 C 295.57695 225.90625 286.09375 216.42305 286.09375 204.71875 C 286.09375 193.38021 294.99002 184.09885 306.1875 183.53125 z M 168.15625 317.75 C 149.5411 318.42041 128.45356 346.12001 132.46875 367.125 C 135.32086 381.55198 150.34627 386.06518 164.90625 389.28125 C 180.46663 391.1161 194.86171 367.14085 198 336.34375 C 191.7669 348.2945 170.52286 366.58221 156.15625 358.1875 C 148.09706 349.29886 164.41982 325.4397 179.1875 321.125 C 175.7871 318.63398 172.01977 317.61087 168.15625 317.75 z "
       transform="translate(0,540.36218)"
       id="path3794" />
  </g>
</svg>
