<svg height="512" width="512" xmlns="http://www.w3.org/2000/svg" xmlns:xlink="http://www.w3.org/1999/xlink"><linearGradient id="a" gradientUnits="userSpaceOnUse" x1="304.461" x2="453.36411" y1="-71.507591" y2="468.93686"><stop offset="0"/><stop offset="1" stop-opacity="0"/></linearGradient><g transform="translate(0 464)"><path d="m44.322082 27.405077c0 10.896448-8.833315 19.729765-19.729762 19.729765s-19.7297621-8.833317-19.7297621-19.729765c.000001-10.896448 8.8333161-19.7297633 19.7297621-19.7297632 10.896446 0 19.729761 8.8333152 19.729762 19.7297632z" fill="#9e3335" opacity=".99" transform="matrix(12.332308 0 0 12.332308 -47.545312 -537.4136)"/><path d="m252.6965-349.27646c-.0645.0744-.11695.14284-.17681.22094-51.87095 64.14292-73.95822 134.48701-54.73448 182.0137l-12.04291 12.39647c-.63453.66648-1.07873 1.52425-1.23744 2.43068-6.92829 38.31908-2.31075 71.533161 6.12089 100.696426.49584 1.710944 2.01763 3.06774 3.7786 3.33666 1.76097.268927 3.67858-.570048 4.66249-2.055029l28.59363-43.089316 4.552 8.08753c.75655 1.34881 2.21408 2.27461 3.7565 2.38649l19.37915 1.30372c.0134-.0007.0306.00029.0441 0 .21377.0216.42608.0299.64082.0221l19.44543-1.28163c1.54563-.10092 3.01329-1.01773 3.77861-2.36439l4.552-8.08753 28.59363 43.089319c.98389 1.484988 2.87945 2.301859 4.64039 2.032932 1.76094-.268934 3.30488-1.60357 3.8007-3.314563 8.43091-29.160678 13.04944-62.331789 6.12089-100.652229-.1587-.90642-.58084-1.78625-1.21534-2.45278l-12.06501-12.41856c19.16077-47.28621-1.85436-117.22633-53.27608-181.17402-.66122-1.3798-2.06622-2.38308-3.57973-2.60746-1.5135-.22438-3.09907.35188-4.13215 1.48051zm-12.66163 94.33247c.24248-.26836.51477-.51477.7734-.7734 8.27619-8.27619 21.68746-8.27619 29.96365 0s8.27619 21.68746 0 29.96365-21.68746 8.27619-29.96365 0c-8.01756-8.01756-8.28986-20.87108-.7734-29.19025z" fill="#fff" fill-opacity=".806324"/><path d="m63.169922 256.63086c-2.605765 0-5.165042.19239-7.666016.56445-2.500973.37206-4.943287.92308-7.314453 1.63867-2.371165.71559-4.670378 1.59636-6.886719 2.62696s-4.350217 2.21221-6.386718 3.52929c.20356 30.29277 6.508946 59.12467 17.746093 85.33399.69629 1.62401 1.412604 3.2382 2.146485 4.8418.006293.01375.013235.02726.019531.04101.729472 1.59309 1.478114 3.17567 2.244141 4.74805.591859 1.21487 1.203014 2.41887 1.816406 3.62109.187467.36743.367179.73924.55664 1.10547.688711 1.33128 1.396465 2.6496 2.111329 3.96484.122889.2261.239625.45604.363281.68164.459188.83782.936544 1.66495 1.40625 2.4961.413084.73095.817127 1.46763 1.238281 2.19336.33422.57593.682216 1.14224 1.021485 1.71484.554243.93543 1.106219 1.87238 1.673828 2.79883.387667.63275.787791 1.25626 1.18164 1.88477.539727.8613 1.073759 1.72682 1.625 2.58007.509203.78817 1.03575 1.5645 1.554688 2.34571.440046.66244.87137 1.33089 1.318359 1.98828.595851.87631 1.208326 1.74022 1.816406 2.60742.400129.57064.79384 1.14624 1.199219 1.71289.536731.75025 1.088903 1.48923 1.634766 2.23242.50183.68324.996377 1.37163 1.505859 2.04883.493169.65553.99972 1.2994 1.5 1.94922.566584.73593 1.1275 1.47655 1.703125 2.20508.499806.63256 1.012968 1.25393 1.519531 1.88086.601038.74384 1.198129 1.49074 1.808594 2.22656.462506.55748.936426 1.10538 1.404297 1.6582.662255.78251 1.321233 1.56872 1.994141 2.3418.574464.65998 1.161989 1.3079 1.74414 1.96094.5591.62718 1.111609 1.26014 1.677735 1.88086.707756.776 1.429809 1.5389 2.148437 2.30468.475369.50656.9457 1.01748 1.425781 1.51954.698296.73024 1.409014 1.44736 2.117188 2.16796.450832.45875.892856.92606 1.347656 1.38086l.511719.51172 73.785153 73.78516c25.60882 9.15973 53.19356 14.16211 81.95118 14.16211 119.90294 0 219.54249-86.73147 239.61914-200.87891l-20.73438-20.73437c-1.58278-1.27182-3.27955-2.41886-5.07226-3.42188-1.79272-1.00302-3.68105-1.863-5.6504-2.56445-1.96934-.70145-4.01819-1.24422-6.13086-1.61133-2.11266-.36711-4.28906-.55859-6.51171-.55859-4.71326.001-9.23208.86568-13.38672 2.44531s-7.94598 3.87352-11.20117 6.73242c-3.2552 2.85891-5.97532 6.28423-7.99024 10.12305-2.01492 3.83883-3.324 8.09194-3.75781 12.61133-1.63515-1.30453-3.37559-2.46107-5.19922-3.46289-1.82364-1.00185-3.72943-1.84945-5.69727-2.53321-1.96783-.68375-3.9967-1.20441-6.06445-1.55469-2.06776-.35028-4.17544-.52982-6.29883-.53125-5.04018 0-9.84186.98466-14.20898 2.76368s-8.299 4.35226-11.60156 7.5332c-3.30256 3.18095-5.97578 6.96804-7.82227 11.17383-1.84649 4.20578-2.86632 8.83006-2.86523 13.68359.005.95642.04961 1.91076.13476 2.86133.0851.95057.21031 1.89787.375 2.83789s.36962 1.87404.61328 2.79883c.24366.92478.52562 1.83928.84766 2.74414-1.50808-.62489-3.04544-1.17382-4.60547-1.64649-1.56002-.47267-3.14257-.86754-4.74219-1.18554s-3.21492-.55787-4.84179-.71875c-1.62686-.16088-3.26449-.24283-4.90625-.24414-6.68526-.00016-13.05492 1.30474-18.84766 3.66406-5.79274 2.35933-11.00964 5.7734-15.39062 9.99219-4.38099 4.21878-7.92503 9.24209-10.375 14.82031-.8463 1.9269-1.55275 3.92368-2.12696 5.97266l-80.00976-80.00977c-.35326-.35327-.71203-.70195-1.07422-1.04687-5.66139-5.39158-12.40117-9.75624-19.88672-12.77149-7.48554-3.01525-15.71672-4.68164-24.35547-4.68164-5.03522.004-9.99169.58585-14.7793 1.69922-4.78761 1.11336-9.40474 2.7587-13.75976 4.89062-4.35502 2.13193-8.4481 4.74893-12.18555 7.8086-.4114.33679-.81608.68187-1.21875 1.02929l-23.98828-23.98828c-.407598-.4076-.821415-.80923-1.242188-1.20312-4.67294-4.37434-10.145998-7.89137-16.167969-10.31641s-12.593102-3.75675-19.457031-3.75781z" fill="url(#a)" transform="translate(0 -464)"/><path d="m63.170371-207.36954c-10.42306 0-20.107854 3.09056-28.253856 8.3589a220.48168 220.48168 0 0 0 220.433965 219.000123 220.48168 220.48168 0 0 0 219.26891-197.736543c-6.33111-5.0873-14.47503-8.15525-23.36563-8.15525-18.85302.004-34.60044 13.83445-36.3357 31.91202-6.54058-5.21814-14.76618-8.07624-23.25976-8.08194-20.16071 0-36.50302 15.74051-36.49867 35.15465.02 3.8257.68344 7.62331 1.97161 11.24275-6.0323-2.49955-12.5296-3.79116-19.09663-3.79642-26.74102-.00062-48.41894 20.874714-48.41779 46.625231.008 6.279809 1.33277 12.372274 3.77213 17.972487a52.140932 52.140932 0 0 0 -18.673-3.519505 52.140932 52.140932 0 0 0 -40.58029 19.471123c-.25171-1.019193-.49512-2.045923-.79848-3.054823 9.22538-7.357534 14.56543-18.291533 14.56689-29.826601-.02-14.619606-8.58801-27.982875-22.15176-34.551292 1.84758-5.69731 2.78681-11.62646 2.78628-17.58927-.001-32.90974-28.01411-59.58745-62.56913-59.58745-20.14087.016-39.04084 9.27013-50.78039 24.85661-1.81464-27.39582-24.562982-48.69057-52.018699-48.6948z" fill="#fff"/></g></svg>