<svg height="512" width="512" xmlns="http://www.w3.org/2000/svg" xmlns:xlink="http://www.w3.org/1999/xlink"><linearGradient id="a"><stop offset="0"/><stop offset="1" stop-opacity="0"/></linearGradient><linearGradient id="b" gradientUnits="userSpaceOnUse" x1="43.019459" x2="384.20605" xlink:href="#a" y1="63.87155" y2="407.058136"/><linearGradient id="c" gradientUnits="userSpaceOnUse" x1="-142.71411" x2="437.36203" xlink:href="#a" y1="-136.77808" y2="443.298075"/><g transform="translate(0 464)"><path d="m44.322082 27.405077a19.729762 19.729765 0 0 1 -19.729762 19.729765 19.729762 19.729765 0 0 1 -19.7297621-19.729765 19.729762 19.729765 0 0 1 19.7297621-19.7297632 19.729762 19.729765 0 0 1 19.729762 19.7297632z" fill="#e82f17" opacity=".99" transform="matrix(12.332308 0 0 12.332308 -47.545312 -537.4136)"/><path d="m358.17188 249.58594-179.29297 114.12109 136.51367 136.51367a243.3135 243.31354 0 0 0 160.55664-132.85742z" fill="url(#b)" opacity=".597" transform="translate(0 -464)"/><path d="m182.63867-314.01367c-5.30373-.12469-9.67084 4.14011-9.67187 9.44531v196.01953c.00047 7.27374 7.87421 11.819832 14.17382 8.1836l169.75782-98.00977c6.29952-3.63728 6.29952-12.72991 0-16.36719l-169.75782-98.00976c-1.37128-.79103-2.9193-1.22488-4.50195-1.26172z" fill="#fff"/><path d="m272.5293 200.625-99.70118 59.39648 211.13086 211.13086a243.3135 243.31354 0 0 0 79.16407-79.93359z" fill="url(#c)" opacity=".515" transform="translate(0 -464)"/><path d="m269.43598-264.5237c2.85863-.0671 5.21242 2.23145 5.21297 5.09084v105.6508c-.00025 3.92041-4.24405 6.37067-7.63943 4.41081l-91.49623-52.82541c-3.39533-1.96041-3.39533-6.86117 0-8.8216l91.49623-52.8254c.7391-.42635 1.57346-.66019 2.42646-.68004z" fill="#e82f17"/></g></svg>