<?xml version="1.0" encoding="UTF-8" standalone="no"?>
<!-- Created with Inkscape (http://www.inkscape.org/) -->

<svg
   xmlns:dc="http://purl.org/dc/elements/1.1/"
   xmlns:cc="http://creativecommons.org/ns#"
   xmlns:rdf="http://www.w3.org/1999/02/22-rdf-syntax-ns#"
   xmlns:svg="http://www.w3.org/2000/svg"
   xmlns="http://www.w3.org/2000/svg"
   xmlns:xlink="http://www.w3.org/1999/xlink"
   xmlns:sodipodi="http://sodipodi.sourceforge.net/DTD/sodipodi-0.dtd"
   xmlns:inkscape="http://www.inkscape.org/namespaces/inkscape"
   id="svg2"
   version="1.1"
   inkscape:version="0.48.4 r9939"
   width="512"
   height="512"
   sodipodi:docname="user.svg"
   inkscape:export-filename="/home/silerio/Imágenes/iconos/user.png"
   inkscape:export-xdpi="90"
   inkscape:export-ydpi="90">
  <metadata
     id="metadata8">
    <rdf:RDF>
      <cc:Work
         rdf:about="">
        <dc:format>image/svg+xml</dc:format>
        <dc:type
           rdf:resource="http://purl.org/dc/dcmitype/StillImage" />
        <dc:title></dc:title>
      </cc:Work>
    </rdf:RDF>
  </metadata>
  <defs
     id="defs6">
    <linearGradient
       id="linearGradient3843">
      <stop
         style="stop-color:#b7b7b7;stop-opacity:1;"
         offset="0"
         id="stop3845" />
      <stop
         style="stop-color:#000000;stop-opacity:0;"
         offset="1"
         id="stop3847" />
    </linearGradient>
    <linearGradient
       id="linearGradient3757">
      <stop
         style="stop-color:#000000;stop-opacity:1;"
         offset="0"
         id="stop3759" />
      <stop
         style="stop-color:#0068ff;stop-opacity:0;"
         offset="1"
         id="stop3761" />
    </linearGradient>
    <linearGradient
       inkscape:collect="always"
       xlink:href="#linearGradient3843"
       id="linearGradient3851"
       x1="-1021.4426"
       y1="-479.15387"
       x2="481.59436"
       y2="384.84613"
       gradientUnits="userSpaceOnUse"
       gradientTransform="matrix(0.69482785,0,0,0.69482785,78.182989,111.24906)" />
  </defs>
  <sodipodi:namedview
     pagecolor="#ffffff"
     bordercolor="#666666"
     borderopacity="1"
     objecttolerance="10"
     gridtolerance="10"
     guidetolerance="10"
     inkscape:pageopacity="0"
     inkscape:pageshadow="2"
     inkscape:window-width="1360"
     inkscape:window-height="721"
     id="namedview4"
     showgrid="false"
     inkscape:zoom="0.28262868"
     inkscape:cx="857.01341"
     inkscape:cy="271.529"
     inkscape:window-x="0"
     inkscape:window-y="25"
     inkscape:window-maximized="1"
     inkscape:current-layer="svg2" />
  <path
     sodipodi:type="arc"
     style="fill:#ff6853;fill-opacity:1;fill-rule:evenodd;stroke:none"
     id="path3832"
     sodipodi:cx="-905.09668"
     sodipodi:cy="101.87807"
     sodipodi:rx="305.47012"
     sodipodi:ry="305.47012"
     d="m -599.62656,101.87807 a 305.47012,305.47012 0 1 1 -610.94024,0 305.47012,305.47012 0 1 1 610.94024,0 z"
     transform="matrix(0.69482785,0,0,0.69482785,887.87422,191.82513)" />
  <path
     style="fill:url(#linearGradient3851);fill-opacity:1;stroke:none"
     d="m 322.93612,501.4962 -151.25891,-87.32936 47.02259,-183.48963 56.80117,32.79418 20.76462,-4.05809 -70.19603,-40.5277 44.70989,-107.59853 c 3.9129,-1.04847 247.64257,142.97651 247.64257,142.97651 l -55.3044,143.25456 z"
     id="path3841"
     inkscape:connector-curvature="0"
     sodipodi:nodetypes="cccccccc" />
  <path
     style="fill:#ffffff;fill-opacity:1;fill-rule:evenodd;stroke:none"
     d="m 256.80419,110.21756 c -32.42368,0 -58.69124,26.28927 -58.69124,58.71295 0,32.42369 26.26756,58.71295 58.69124,58.71295 32.42369,0 58.71296,-26.28926 58.71296,-58.71295 0,-32.42368 -26.28927,-58.71295 -58.71296,-58.71295 z m 51.7864,119.07612 c -6.14956,-0.0559 -12.63719,0.84682 -12.63719,0.84682 l -33.02604,27.90168 18.67351,87.67859 0,0.0651 -0.0651,0 -22.53848,24.84009 -22.56019,-24.84009 -0.0434,0 0,-0.0651 18.65179,-87.50488 c -5.33767,-4.25585 -22.76723,-18.13824 -35.54481,-28.07539 0,0 -12.00607,-1.6547 -17.65291,0 -18.50605,5.42279 -38.02842,15.15861 -48.70313,31.22382 -10.75893,16.19199 -11.15692,38.0469 -10.00983,57.45358 1.97421,33.40196 28.72676,96.19024 28.72676,96.19024 l 174.24979,0 c 0,0 26.75255,-62.78828 28.72679,-96.19024 1.14705,-19.40667 0.77078,-41.26159 -9.98814,-57.45358 -10.6747,-16.06521 -30.21238,-25.80119 -48.72481,-31.22382 -2.01649,-0.59066 -4.73928,-0.82144 -7.53454,-0.84682 z"
     id="path3816"
     inkscape:connector-curvature="0" />
</svg>
