<svg height="512" width="512" xmlns="http://www.w3.org/2000/svg" xmlns:xlink="http://www.w3.org/1999/xlink"><clipPath id="a"><path d="m643 152.5a103.5 103.5 0 1 1 -207 0 103.5 103.5 0 1 1 207 0z" transform="matrix(2.1304347 0 0 2.1304347 -892.86953 -62.391327)"/></clipPath><linearGradient id="b" gradientUnits="userSpaceOnUse" x1="615.89374" x2="500.27988" y1="237.46826" y2="119.97308"><stop offset="0" stop-color="#ff6853"/><stop offset="1" stop-color="#ff6853" stop-opacity="0"/></linearGradient><g fill-rule="evenodd"><path d="m643 152.5a103.5 103.5 0 1 1 -207 0 103.5 103.5 0 1 1 207 0z" fill="#ff6853" transform="matrix(2.1304347 0 0 2.1304347 -892.86953 -62.391327)"/><g clip-path="url(#a)" opacity=".221739"><g><path d="m254.66146 134.19701c-27.29778 0-49.41268 22.13317-49.41268 49.43096l707.10678119 707.10678119c0-27.29779 22.1149-49.43096 49.41268-49.43096z"/><path d="m205.24878 183.62797c0 13.65346125 5.5324249 26.01490094 14.47864725 34.96112329l707.10678119 707.10678119c-8.94622235-8.94622235-14.47864725-21.30766204-14.47864725-34.96112329z"/><path d="m219.72742725 218.58909329c8.94023842 8.94023843 21.289709 14.46982671 34.93403275 14.46982671l707.10678119 707.10678119c-13.64432375 0-25.99379433-5.52958829-34.93403275-14.46982671z"/><path d="m254.66146 233.05892c27.29779 0 49.43096-22.13316 49.43096-49.43095l707.10678119 707.10678119c0 27.29779-22.13317 49.43095-49.43096 49.43095z"/><path d="m304.09242 183.62797c0-27.29779-22.13317-49.43096-49.43096-49.43096l707.10678119 707.10678119c27.29779 0 49.43096 22.13317 49.43096 49.43096z"/><path d="m298.26089 234.44826c-5.17737-.0471-10.63936.71294-10.63936.71294l707.10678119 707.10678119s5.46199-.76004 10.63936-.71294z"/><path d="m287.62153 235.1612-27.80492 23.49067 707.10678119 707.10678119 27.80492-23.49067z"/><path d="m259.81661 258.65187 15.72139 73.81738 707.10678119 707.10678119-15.72139-73.81738z"/><path d="m275.538 332.46925v.0548l707.10678119 707.10678119v-.0548z"/><path d="m275.538 332.52405h-.0548l707.10678119 707.10678119h.0548z"/><path d="m275.4832 332.52405-18.97534 20.91309 707.10678119 707.10678119 18.97534-20.91309z"/><path d="m256.50786 353.43714-18.99362-20.91309 707.10678119 707.10678119 18.99362 20.91309z"/><path d="m237.51424 332.52405h-.0365l707.10678119 707.10678119h.0365z"/><path d="m237.47774 332.52405v-.0548l707.10678119 707.10678119v.0548z"/><path d="m237.47774 332.46925 15.70311-73.67113 707.10678119 707.10678119-15.70311 73.67113z"/><path d="m253.18085 258.79812c-4.49383-3.58304-19.16794-15.27074-29.92549-23.63692l707.10678119 707.10678119c10.75755 8.36618 25.43166 20.05388 29.92549 23.63692z"/><path d="m223.25536 235.1612s-10.10802-1.39311-14.86214 0l707.10678119 707.10678119c4.75412-1.39311 14.86214 0 14.86214 0z"/><path d="m208.39322 235.1612c-15.58041 4.56549-32.01647 12.76217-41.0036 26.28761l707.10678119 707.10678119c8.98713-13.52544 25.42319-21.72212 41.0036-26.28761z"/><path d="m167.38962 261.44881c-9.05804 13.63218-9.39311 32.03203-8.42736 48.37068l707.10678119 707.10678119c-.96575-16.33865-.63068-34.7385 8.42736-48.37068z"/><path d="m158.96226 309.81949c1.6621 28.12141 24.18531 80.98342 24.18531 80.98342l707.10678119 707.10678119s-22.52321-52.86201-24.18531-80.98342z"/><path d="m183.14757 390.80291h146.70245l707.10678119 707.10678119h-146.70245z"/><path d="m329.85002 390.80291s22.52321-52.86201 24.18533-80.98342l707.10678119 707.10678119c-1.66212 28.12141-24.18533 80.98342-24.18533 80.98342z"/><path d="m354.03535 309.81949c.96572-16.33865.64893-34.7385-8.4091-48.37068l707.10678119 707.10678119c9.05803 13.63218 9.37482 32.03203 8.4091 48.37068z"/><path d="m345.62625 261.44881c-1.72397318-2.59454307-3.72252274-4.99300559-5.93688468-7.20736753l707.10678118 707.10678118c2.21436195 2.21436195 4.2129115 4.61282447 5.93688469 7.20736754z"/><path d="m339.68936532 254.24144247c-9.3291811-9.3291811-22.488957-15.39064127-35.08496532-19.08024247l707.10678119 707.10678119c12.59600831 3.68960119 25.75578421 9.75106136 35.08496531 19.08024246z"/><path d="m304.6044 235.1612c-1.6977-.49728-3.99004-.69158-6.34339-.71294l707.10678119 707.10678119c2.35335.02136 4.64569.21566 6.34339.71294z"/></g><path d="m254.66146 134.19701c-27.29778 0-49.41268 22.13317-49.41268 49.43096s22.1149 49.43095 49.41268 49.43095c27.29779 0 49.43096-22.13316 49.43096-49.43095s-22.13317-49.43096-49.43096-49.43096zm43.59943 100.25125c-5.17737-.0471-10.63936.71294-10.63936.71294l-27.80492 23.49067 15.72139 73.81738v.0548h-.0548l-18.97534 20.91309-18.99362-20.91309h-.0365v-.0548l15.70311-73.67113c-4.49383-3.58304-19.16794-15.27074-29.92549-23.63692 0 0-10.10802-1.39311-14.86214 0-15.58041 4.56549-32.01647 12.76217-41.0036 26.28761-9.05804 13.63218-9.39311 32.03203-8.42736 48.37068 1.6621 28.12141 24.18531 80.98342 24.18531 80.98342h146.70245s22.52321-52.86201 24.18533-80.98342c.96572-16.33865.64893-34.7385-8.4091-48.37068-8.98713-13.52544-25.43607-21.72225-41.02185-26.28761-1.6977-.49728-3.99004-.69158-6.34339-.71294z"/></g><path d="m643 152.5a103.5 103.5 0 1 1 -207 0 103.5 103.5 0 1 1 207 0z" fill="url(#b)" transform="matrix(2.1304347 0 0 2.1304347 -892.86953 -62.391327)"/><path d="m254.66146 134.19701c-27.29778 0-49.41268 22.13317-49.41268 49.43096s22.1149 49.43095 49.41268 49.43095c27.29779 0 49.43096-22.13316 49.43096-49.43095s-22.13317-49.43096-49.43096-49.43096zm43.59943 100.25125c-5.17737-.0471-10.63936.71294-10.63936.71294l-27.80492 23.49067 15.72139 73.81738v.0548h-.0548l-18.97534 20.91309-18.99362-20.91309h-.0365v-.0548l15.70311-73.67113c-4.49383-3.58304-19.16794-15.27074-29.92549-23.63692 0 0-10.10802-1.39311-14.86214 0-15.58041 4.56549-32.01647 12.76217-41.0036 26.28761-9.05804 13.63218-9.39311 32.03203-8.42736 48.37068 1.6621 28.12141 24.18531 80.98342 24.18531 80.98342h146.70245s22.52321-52.86201 24.18533-80.98342c.96572-16.33865.64893-34.7385-8.4091-48.37068-8.98713-13.52544-25.43607-21.72225-41.02185-26.28761-1.6977-.49728-3.99004-.69158-6.34339-.71294z" fill="#fff"/></g></svg>