<?xml version="1.0" encoding="UTF-8" standalone="no"?>
<svg
   xmlns:dc="http://purl.org/dc/elements/1.1/"
   xmlns:cc="http://creativecommons.org/ns#"
   xmlns:rdf="http://www.w3.org/1999/02/22-rdf-syntax-ns#"
   xmlns:svg="http://www.w3.org/2000/svg"
   xmlns="http://www.w3.org/2000/svg"
   xmlns:sodipodi="http://sodipodi.sourceforge.net/DTD/sodipodi-0.dtd"
   xmlns:inkscape="http://www.inkscape.org/namespaces/inkscape"
   viewBox="0 0 48 48"
   id="svg2"
   version="1.1"
   inkscape:version="0.48.4 r9939"
   width="100%"
   height="100%"
   sodipodi:docname="cutegram.svg">
  <metadata
     id="metadata52">
    <rdf:RDF>
      <cc:Work
         rdf:about="">
        <dc:format>image/svg+xml</dc:format>
        <dc:type
           rdf:resource="http://purl.org/dc/dcmitype/StillImage" />
        <dc:title></dc:title>
      </cc:Work>
    </rdf:RDF>
  </metadata>
  <sodipodi:namedview
     pagecolor="#ffffff"
     bordercolor="#666666"
     borderopacity="1"
     objecttolerance="10"
     gridtolerance="10"
     guidetolerance="10"
     inkscape:pageopacity="0"
     inkscape:pageshadow="2"
     inkscape:window-width="640"
     inkscape:window-height="480"
     id="namedview50"
     showgrid="false"
     inkscape:zoom="4.9166667"
     inkscape:cx="24"
     inkscape:cy="24"
     inkscape:window-x="520"
     inkscape:window-y="97"
     inkscape:window-maximized="0"
     inkscape:current-layer="svg2" />
  <defs
     id="defs4">
    <linearGradient
       id="linearGradient3845"
       y1="47"
       x2="0"
       y2="1"
       gradientUnits="userSpaceOnUse">
      <stop
         style="stop-color:#d22724;stop-opacity:1"
         id="stop7" />
      <stop
         offset="1"
         style="stop-color:#db322f;stop-opacity:1"
         id="stop9" />
    </linearGradient>
    <linearGradient
       y2="160"
       x2="160"
       y1="120"
       x1="135"
       gradientTransform="matrix(0.05622958,0,0,0.05622958,0.07160145,-0.0527796)"
       gradientUnits="userSpaceOnUse"
       id="linearGradient3102">
      <stop
         style="stop-color:#eff7fc"
         id="stop12" />
      <stop
         offset="1"
         style="stop-color:#fff"
         id="stop14" />
    </linearGradient>
  </defs>
  <g
     id="g16">
    <path
       d="m 36.31 5 c 5.859 4.062 9.688 10.831 9.688 18.5 c 0 12.426 -10.07 22.5 -22.5 22.5 c -7.669 0 -14.438 -3.828 -18.5 -9.688 c 1.037 1.822 2.306 3.499 3.781 4.969 c 4.085 3.712 9.514 5.969 15.469 5.969 c 12.703 0 23 -10.298 23 -23 c 0 -5.954 -2.256 -11.384 -5.969 -15.469 c -1.469 -1.475 -3.147 -2.744 -4.969 -3.781 z m 4.969 3.781 c 3.854 4.113 6.219 9.637 6.219 15.719 c 0 12.703 -10.297 23 -23 23 c -6.081 0 -11.606 -2.364 -15.719 -6.219 c 4.16 4.144 9.883 6.719 16.219 6.719 c 12.703 0 23 -10.298 23 -23 c 0 -6.335 -2.575 -12.06 -6.719 -16.219 z"
       style="opacity:0.05"
       id="path18" />
    <path
       d="m 41.28 8.781 c 3.712 4.085 5.969 9.514 5.969 15.469 c 0 12.703 -10.297 23 -23 23 c -5.954 0 -11.384 -2.256 -15.469 -5.969 c 4.113 3.854 9.637 6.219 15.719 6.219 c 12.703 0 23 -10.298 23 -23 c 0 -6.081 -2.364 -11.606 -6.219 -15.719 z"
       style="opacity:0.1"
       id="path20" />
    <path
       d="m 31.25 2.375 c 8.615 3.154 14.75 11.417 14.75 21.13 c 0 12.426 -10.07 22.5 -22.5 22.5 c -9.708 0 -17.971 -6.135 -21.12 -14.75 a 23 23 0 0 0 44.875 -7 a 23 23 0 0 0 -16 -21.875 z"
       style="opacity:0.2"
       id="path22" />
  </g>
  <g
     id="g24">
    <path
       d="m 24 1 c 12.703 0 23 10.297 23 23 c 0 12.703 -10.297 23 -23 23 -12.703 0 -23 -10.297 -23 -23 0 -12.703 10.297 -23 23 -23 z"
       style="fill:#4ab5da;fill-opacity:1"
       id="path26" />
  </g>
  <g
     id="g28">
    <path
       d="m 40.03 7.531 c 3.712 4.084 5.969 9.514 5.969 15.469 0 12.703 -10.297 23 -23 23 c -5.954 0 -11.384 -2.256 -15.469 -5.969 4.178 4.291 10.01 6.969 16.469 6.969 c 12.703 0 23 -10.298 23 -23 0 -6.462 -2.677 -12.291 -6.969 -16.469 z"
       style="opacity:0.1"
       id="path30" />
  </g>
  <g
     id="g32">
    <g
       transform="scale(3.543307,3.543307)"
       style="fill:#000;opacity:0.1;fill-opacity:1"
       id="g34">
      <path
         d="m 5.582 9.787 c -0.219 0 -0.181 -0.083 -0.257 -0.291 l -0.643 -2.116 3.981 -2.487 0.465 0.122 -0.386 1.058"
         id="path36" />
      <path
         d="m 5.582 9.787 c 0.169 0 0.243 -0.077 0.337 -0.169 c 0.145 -0.142 2.024 -1.968 2.024 -1.968 l -1.151 -0.279 -1.068 0.675 -0.142 1.684"
         id="path38" />
      <path
         d="m 5.697 8.07 2.719 2.01 c 0.31 0.171 0.534 0.083 0.612 -0.288 l 1.107 -5.216 c 0.113 -0.454 -0.173 -0.66 -0.47 -0.526 l -6.5 2.507 c -0.444 0.178 -0.441 0.425 -0.081 0.536 l 1.668 0.521 3.861 -2.436 c 0.182 -0.111 0.35 -0.051 0.212 0.071 z"
         id="path40" />
    </g>
    <g
       transform="matrix(3.543307,0,0,3.543307,-0.99999987,-1.0000008)"
       id="g42">
      <path
         d="m 5.582 9.787 c -0.219 0 -0.181 -0.083 -0.257 -0.291 l -0.643 -2.116 3.981 -2.487 0.465 0.122 -0.386 1.058"
         style="fill:#c8daea"
         id="path44" />
      <path
         d="m 5.582 9.787 c 0.169 0 0.243 -0.077 0.337 -0.169 c 0.145 -0.142 2.024 -1.968 2.024 -1.968 l -1.151 -0.279 -1.068 0.675 -0.142 1.684"
         style="fill:#a7c2d1"
         id="path46" />
      <path
         d="m 5.697 8.07 2.719 2.01 c 0.31 0.171 0.534 0.083 0.612 -0.288 l 1.107 -5.216 c 0.113 -0.454 -0.173 -0.66 -0.47 -0.526 l -6.5 2.507 c -0.444 0.178 -0.441 0.425 -0.081 0.536 l 1.668 0.521 3.861 -2.436 c 0.182 -0.111 0.35 -0.051 0.212 0.071 z"
         style="fill:url(#linearGradient3102)"
         id="path48" />
    </g>
  </g>
</svg>
