<?xml version="1.0" encoding="UTF-8" standalone="no"?>
<svg
   xmlns:dc="http://purl.org/dc/elements/1.1/"
   xmlns:cc="http://creativecommons.org/ns#"
   xmlns:rdf="http://www.w3.org/1999/02/22-rdf-syntax-ns#"
   xmlns:svg="http://www.w3.org/2000/svg"
   xmlns="http://www.w3.org/2000/svg"
   xmlns:sodipodi="http://sodipodi.sourceforge.net/DTD/sodipodi-0.dtd"
   xmlns:inkscape="http://www.inkscape.org/namespaces/inkscape"
   viewBox="0 0 48 48"
   id="svg2"
   version="1.1"
   inkscape:version="0.48.4 r9939"
   width="100%"
   height="100%"
   sodipodi:docname="thunar.svg">
  <metadata
     id="metadata59">
    <rdf:RDF>
      <cc:Work
         rdf:about="">
        <dc:format>image/svg+xml</dc:format>
        <dc:type
           rdf:resource="http://purl.org/dc/dcmitype/StillImage" />
        <dc:title />
      </cc:Work>
    </rdf:RDF>
  </metadata>
  <sodipodi:namedview
     pagecolor="#ffffff"
     bordercolor="#666666"
     borderopacity="1"
     objecttolerance="10"
     gridtolerance="10"
     guidetolerance="10"
     inkscape:pageopacity="0"
     inkscape:pageshadow="2"
     inkscape:window-width="1360"
     inkscape:window-height="718"
     id="namedview57"
     showgrid="false"
     inkscape:zoom="6.9532168"
     inkscape:cx="4.6358528"
     inkscape:cy="20.463987"
     inkscape:window-x="0"
     inkscape:window-y="24"
     inkscape:window-maximized="1"
     inkscape:current-layer="svg2" />
  <defs
     id="defs4">
    <linearGradient
       id="linearGradient3764"
       x1="1"
       x2="47"
       gradientUnits="userSpaceOnUse"
       gradientTransform="matrix(0,-1,1,0,-1.5e-6,47.999998)">
      <stop
         style="stop-color:#97b2d3;stop-opacity:1"
         id="stop7" />
      <stop
         offset="1"
         style="stop-color:#a5bcd9;stop-opacity:1"
         id="stop9" />
    </linearGradient>
    <clipPath
       id="clipPath-172451806">
      <g
         transform="translate(0,-1004.3622)"
         id="g12">
        <path
           d="m -24 13 c 0 1.105 -0.672 2 -1.5 2 -0.828 0 -1.5 -0.895 -1.5 -2 0 -1.105 0.672 -2 1.5 -2 0.828 0 1.5 0.895 1.5 2 z"
           transform="matrix(15.333333,0,0,11.5,414.99999,878.8622)"
           style="fill:#1890d0"
           id="path14" />
      </g>
    </clipPath>
    <clipPath
       id="clipPath-183935099">
      <g
         transform="translate(0,-1004.3622)"
         id="g17">
        <path
           d="m -24 13 c 0 1.105 -0.672 2 -1.5 2 -0.828 0 -1.5 -0.895 -1.5 -2 0 -1.105 0.672 -2 1.5 -2 0.828 0 1.5 0.895 1.5 2 z"
           transform="matrix(15.333333,0,0,11.5,414.99999,878.8622)"
           style="fill:#1890d0"
           id="path19" />
      </g>
    </clipPath>
  </defs>
  <g
     id="g21"
     transform="matrix(0.96014673,0,0,0.96641321,1.0482743,0.60714873)">
    <path
       d="m 36.31,5 c 5.859,4.062 9.688,10.831 9.688,18.5 0,12.426 -10.07,22.5 -22.5,22.5 -7.669,0 -14.438,-3.828 -18.5,-9.688 1.037,1.822 2.306,3.499 3.781,4.969 4.085,3.712 9.514,5.969 15.469,5.969 12.703,0 23,-10.298 23,-23 0,-5.954 -2.256,-11.384 -5.969,-15.469 C 39.81,7.306 38.132,6.037 36.31,5 z m 4.969,3.781 c 3.854,4.113 6.219,9.637 6.219,15.719 0,12.703 -10.297,23 -23,23 -6.081,0 -11.606,-2.364 -15.719,-6.219 4.16,4.144 9.883,6.719 16.219,6.719 12.703,0 23,-10.298 23,-23 0,-6.335 -2.575,-12.06 -6.719,-16.219 z"
       style="opacity:0.05"
       id="path23"
       inkscape:connector-curvature="0" />
    <path
       d="m 41.28,8.781 c 3.712,4.085 5.969,9.514 5.969,15.469 0,12.703 -10.297,23 -23,23 -5.954,0 -11.384,-2.256 -15.469,-5.969 4.113,3.854 9.637,6.219 15.719,6.219 12.703,0 23,-10.298 23,-23 0,-6.081 -2.364,-11.606 -6.219,-15.719 z"
       style="opacity:0.1"
       id="path25"
       inkscape:connector-curvature="0" />
    <path
       d="M 31.25,2.375 C 39.865,5.529 46,13.792 46,23.505 c 0,12.426 -10.07,22.5 -22.5,22.5 -9.708,0 -17.971,-6.135 -21.12,-14.75 a 23,23 0 0 0 44.875,-7 23,23 0 0 0 -16,-21.875 z"
       style="opacity:0.2"
       id="path27"
       inkscape:connector-curvature="0" />
  </g>
  <g
     id="g29"
     style="fill:#d6514b;fill-opacity:1"
     transform="matrix(0.96014673,0,0,0.96641321,1.0482743,0.60714873)">
    <path
       d="M 24,1 C 36.703,1 47,11.297 47,24 47,36.703 36.703,47 24,47 11.297,47 1,36.703 1,24 1,11.297 11.297,1 24,1 z"
       style="fill:#d6514b;fill-opacity:1"
       id="path31"
       inkscape:connector-curvature="0" />
  </g>
  <g
     id="g53"
     transform="matrix(0.96014673,0,0,0.96641321,1.0482743,0.60714873)">
    <path
       d="m 40.03,7.531 c 3.712,4.084 5.969,9.514 5.969,15.469 0,12.703 -10.297,23 -23,23 C 17.045,46 11.615,43.744 7.53,40.031 11.708,44.322 17.54,47 23.999,47 c 12.703,0 23,-10.298 23,-23 0,-6.462 -2.677,-12.291 -6.969,-16.469 z"
       style="opacity:0.1"
       id="path55"
       inkscape:connector-curvature="0" />
  </g>
  <g
     inkscape:groupmode="layer"
     id="layer1"
     inkscape:label="Capa">
    <path
       style="color:#000000;fill:#e7e7e7;fill-opacity:1;fill-rule:nonzero;stroke:#e7e7e7;stroke-width:1.03563964;stroke-linecap:butt;stroke-linejoin:miter;stroke-miterlimit:4;stroke-opacity:1;stroke-dashoffset:0;marker:none;visibility:visible;display:inline;overflow:visible;enable-background:accumulate"
       d="m 37.725619,30.484059 c 0,6.927558 -6.124493,-1.215652 -13.438539,-1.215652 -7.314046,0 -13.047969,8.14321 -13.047969,1.215652 0,-6.927557 5.929207,-12.54345 13.243255,-12.54345 7.314045,0 13.243253,5.615893 13.243253,12.54345 z"
       id="path3805"
       inkscape:connector-curvature="0"
       sodipodi:nodetypes="sssss" />
    <rect
       style="fill:#d0d0d0;fill-opacity:1;fill-rule:evenodd;stroke:#d0d0d0;stroke-width:0.96327484px;stroke-linecap:round;stroke-linejoin:round;stroke-opacity:1"
       id="rect3820"
       width="29.683182"
       height="4.9139657"
       x="9.6407738"
       y="29.108147" />
  </g>
  <g
     inkscape:groupmode="layer"
     id="layer2"
     inkscape:label="Capa#1">
    <path
       style="fill:#e7e7e7;fill-opacity:1;stroke:#e7e7e7;stroke-width:0.96327484px;stroke-linecap:round;stroke-linejoin:round;stroke-opacity:1"
       d="m 29.706213,19.575056 c 0,0 9.617741,-2.702682 9.813025,-6.97783 0.195283,-4.2751514 -0.146463,4.275148 -0.146463,4.275148 0,0 0.195284,5.945899 -6.004986,6.584714 -6.20027,0.638817 -3.661576,-3.882032 -3.661576,-3.882032 z"
       id="path3825"
       inkscape:connector-curvature="0" />
    <path
       style="fill:#e7e7e7;fill-opacity:1;stroke:#e7e7e7;stroke-width:1.13095248px;stroke-linecap:round;stroke-linejoin:round;stroke-opacity:1"
       d="m 22.584563,20.068408 c 0,0 -13.444113,-2.665165 -13.7170903,-6.880971 -0.2729756,-4.215804 0.2047339,4.215806 0.2047339,4.215806 0,0 -0.2729774,5.863362 8.3940394,6.49331 8.667018,0.629947 5.118317,-3.828145 5.118317,-3.828145 z"
       id="path3825-0"
       inkscape:connector-curvature="0" />
  </g>
  <g
     inkscape:groupmode="layer"
     id="layer3"
     inkscape:label="logo">
    <path
       inkscape:connector-curvature="0"
       d="m 22.419788,22.584939 c -0.277905,0 -0.546294,0.03651 -0.801356,0.09855 0,-0.0037 0,-0.0055 0,-0.01095 -0.285518,0.07116 -0.502513,0.164236 -0.544389,0.182485 0,0.0055 0,0.01095 0,1.83e-4 0,0 -0.0057,0 -0.01143,0.0037 0.03046,0.222632 0.07232,0.443438 0.09327,0.54563 0.22651,0.919721 0.883203,1.677034 1.749276,2.080325 -0.0038,0.06204 -0.01143,0.122265 -0.01143,0.186135 0,0.848553 0.35785,1.616813 0.93079,2.17704 -0.0038,0 0.0038,0.0037 0,0.0055 0.165601,0.149639 0.390208,0.321173 0.437795,0.355846 0.01142,0.0055 0.03237,0.01094 0.03807,0.02008 0.190345,-0.160588 0.361656,-0.335773 0.405436,-0.381394 0.572941,-0.562054 0.93079,-1.32849 0.93079,-2.177042 0,-0.05839 -0.01142,-0.114966 -0.01142,-0.173361 0.883205,-0.390516 1.547512,-1.14783 1.785443,-2.069376 -0.0038,0 0,-0.0037 0,-0.0055 0.05901,-0.246353 0.100883,-0.514606 0.100883,-0.543804 -0.0038,0 -0.01142,-0.0037 -0.01522,-0.0055 0,-0.0146 0,0 0,-0.01094 -0.121822,-0.05292 -0.399727,-0.142338 -0.546293,-0.189784 0,0.01095 0,-0.0037 0,0.0055 -0.266483,-0.06935 -0.548193,-0.111316 -0.833712,-0.111316 -0.690955,0 -1.330517,0.213507 -1.853966,0.569352 -0.201766,0.145989 -0.34643,0.271903 -0.439698,0.355845 -0.01142,0.01095 -0.01713,0.0219 -0.02665,0.03285 -0.30265,0.301099 -0.538678,0.662419 -0.694762,1.060235 0.169409,0.09671 0.338815,0.177011 0.48919,0.246355 0.125627,-0.35037 0.333103,-0.66607 0.595781,-0.930671 0,-0.0037 0.01142,-0.0146 0.01713,-0.02008 0.01142,-0.01459 0.02474,-0.03102 0.04378,-0.04561 0.0038,-0.0055 0.01143,-0.0055 0.01713,-0.01095 0.186539,-0.156935 0.333105,-0.259128 0.443505,-0.328471 0.0552,-0.03285 0.110402,-0.06388 0.167505,-0.09306 0.371175,-0.189783 0.789935,-0.297449 1.241053,-0.297449 0.268388,0 0.531064,0.03831 0.77661,0.111316 -0.163697,0.751835 -0.666209,1.379584 -1.353357,1.731779 -0.106595,-0.434313 -0.306457,-0.83943 -0.584361,-1.180674 -0.230318,0.15511 -0.428278,0.312047 -0.443505,0.322997 0.22651,0.277377 0.394015,0.602199 0.487284,0.954394 0,0 0.01143,0.03651 0.02665,0.104016 0.0057,0.03285 0.01143,0.05293 0.02474,0.116791 0.03425,0.160587 0.03046,0.34672 0.02664,0.419714 0,0.01459 0,0.05293 0,0.05293 l -0.0057,0.0091 c -0.02094,0.695267 -0.327395,1.319364 -0.812777,1.770101 -0.502511,-0.46351 -0.816581,-1.116806 -0.818486,-1.843095 0.268389,0.07116 0.5501,0.111315 0.841329,0.111315 0.157986,0 0.315973,-0.01642 0.466346,-0.03832 0.0095,-0.05293 0.01143,-0.11314 0.01713,-0.202557 0.0057,-0.160588 -0.01523,-0.271904 -0.03236,-0.333948 -0.146566,0.02373 -0.298844,0.0365 -0.449216,0.0365 -0.270291,0 -0.532967,-0.03832 -0.780417,-0.109491 -0.196055,-0.03831 -0.380691,-0.13139 -0.513934,-0.211683 -0.07614,-0.0438 -0.125627,-0.07665 -0.15418,-0.09307 -0.590071,-0.366793 -1.024059,-0.943444 -1.170625,-1.629587 0.237931,-0.06568 0.487285,-0.104017 0.748058,-0.104017 0.380691,0 0.736637,0.07665 1.064032,0.215332 0.15989,-0.144161 0.35214,-0.290149 0.462539,-0.370444 -0.452996,-0.237195 -0.972638,-0.375885 -1.524642,-0.375885 m 0.0038,0"
       style="fill:#c91933;fill-opacity:1;fill-rule:nonzero;stroke:none"
       id="path41" />
  </g>
</svg>
