<?xml version="1.0" encoding="UTF-8" standalone="no"?>
<svg
   xmlns:dc="http://purl.org/dc/elements/1.1/"
   xmlns:cc="http://creativecommons.org/ns#"
   xmlns:rdf="http://www.w3.org/1999/02/22-rdf-syntax-ns#"
   xmlns:svg="http://www.w3.org/2000/svg"
   xmlns="http://www.w3.org/2000/svg"
   xmlns:sodipodi="http://sodipodi.sourceforge.net/DTD/sodipodi-0.dtd"
   xmlns:inkscape="http://www.inkscape.org/namespaces/inkscape"
   viewBox="0 0 512 512"
   id="svg2"
   version="1.1"
   inkscape:version="0.48.4 r9939"
   width="100%"
   height="100%"
   sodipodi:docname="thunar.svg">
  <metadata
     id="metadata59">
    <rdf:RDF>
      <cc:Work
         rdf:about="">
        <dc:format>image/svg+xml</dc:format>
        <dc:type
           rdf:resource="http://purl.org/dc/dcmitype/StillImage" />
        <dc:title />
      </cc:Work>
    </rdf:RDF>
  </metadata>
  <sodipodi:namedview
     pagecolor="#ffffff"
     bordercolor="#666666"
     borderopacity="1"
     objecttolerance="10"
     gridtolerance="10"
     guidetolerance="10"
     inkscape:pageopacity="0"
     inkscape:pageshadow="2"
     inkscape:window-width="1360"
     inkscape:window-height="721"
     id="namedview57"
     showgrid="false"
     inkscape:zoom="0.43457605"
     inkscape:cx="4.9234895"
     inkscape:cy="20.463987"
     inkscape:window-x="0"
     inkscape:window-y="25"
     inkscape:window-maximized="1"
     inkscape:current-layer="svg2" />
  <defs
     id="defs4">
    <linearGradient
       id="linearGradient3764"
       x1="1"
       x2="47"
       gradientUnits="userSpaceOnUse"
       gradientTransform="matrix(0,-1,1,0,-1.5e-6,47.999998)">
      <stop
         style="stop-color:#97b2d3;stop-opacity:1"
         id="stop7" />
      <stop
         offset="1"
         style="stop-color:#a5bcd9;stop-opacity:1"
         id="stop9" />
    </linearGradient>
    <clipPath
       id="clipPath-172451806">
      <g
         transform="translate(0,-1004.3622)"
         id="g12">
        <path
           d="m -24,13 c 0,1.105 -0.672,2 -1.5,2 -0.828,0 -1.5,-0.895 -1.5,-2 0,-1.105 0.672,-2 1.5,-2 0.828,0 1.5,0.895 1.5,2 z"
           transform="matrix(15.333333,0,0,11.5,414.99999,878.8622)"
           style="fill:#1890d0"
           id="path14"
           inkscape:connector-curvature="0" />
      </g>
    </clipPath>
    <clipPath
       id="clipPath-183935099">
      <g
         transform="translate(0,-1004.3622)"
         id="g17">
        <path
           d="m -24,13 c 0,1.105 -0.672,2 -1.5,2 -0.828,0 -1.5,-0.895 -1.5,-2 0,-1.105 0.672,-2 1.5,-2 0.828,0 1.5,0.895 1.5,2 z"
           transform="matrix(15.333333,0,0,11.5,414.99999,878.8622)"
           style="fill:#1890d0"
           id="path19"
           inkscape:connector-curvature="0" />
      </g>
    </clipPath>
  </defs>
  <g
     id="g21"
     transform="matrix(9.8221807,0,0,9.886286,24.401545,11.141232)">
    <path
       d="m 36.31,5 c 5.859,4.062 9.688,10.831 9.688,18.5 0,12.426 -10.07,22.5 -22.5,22.5 -7.669,0 -14.438,-3.828 -18.5,-9.688 1.037,1.822 2.306,3.499 3.781,4.969 4.085,3.712 9.514,5.969 15.469,5.969 12.703,0 23,-10.298 23,-23 0,-5.954 -2.256,-11.384 -5.969,-15.469 C 39.81,7.306 38.132,6.037 36.31,5 z m 4.969,3.781 c 3.854,4.113 6.219,9.637 6.219,15.719 0,12.703 -10.297,23 -23,23 -6.081,0 -11.606,-2.364 -15.719,-6.219 4.16,4.144 9.883,6.719 16.219,6.719 12.703,0 23,-10.298 23,-23 0,-6.335 -2.575,-12.06 -6.719,-16.219 z"
       style="opacity:0.05"
       id="path23"
       inkscape:connector-curvature="0" />
    <path
       d="m 41.28,8.781 c 3.712,4.085 5.969,9.514 5.969,15.469 0,12.703 -10.297,23 -23,23 -5.954,0 -11.384,-2.256 -15.469,-5.969 4.113,3.854 9.637,6.219 15.719,6.219 12.703,0 23,-10.298 23,-23 0,-6.081 -2.364,-11.606 -6.219,-15.719 z"
       style="opacity:0.1"
       id="path25"
       inkscape:connector-curvature="0" />
    <path
       d="M 31.25,2.375 C 39.865,5.529 46,13.792 46,23.505 c 0,12.426 -10.07,22.5 -22.5,22.5 -9.708,0 -17.971,-6.135 -21.12,-14.75 a 23,23 0 0 0 44.875,-7 23,23 0 0 0 -16,-21.875 z"
       style="opacity:0.2"
       id="path27"
       inkscape:connector-curvature="0" />
  </g>
  <g
     id="g29"
     style="fill:#d6514b;fill-opacity:1"
     transform="matrix(9.8221807,0,0,9.886286,24.401545,11.141232)">
    <path
       d="M 24,1 C 36.703,1 47,11.297 47,24 47,36.703 36.703,47 24,47 11.297,47 1,36.703 1,24 1,11.297 11.297,1 24,1 z"
       style="fill:#d6514b;fill-opacity:1"
       id="path31"
       inkscape:connector-curvature="0" />
  </g>
  <g
     id="g53"
     transform="matrix(9.8221807,0,0,9.886286,24.401545,11.141232)">
    <path
       d="m 40.03,7.531 c 3.712,4.084 5.969,9.514 5.969,15.469 0,12.703 -10.297,23 -23,23 C 17.045,46 11.615,43.744 7.53,40.031 11.708,44.322 17.54,47 23.999,47 c 12.703,0 23,-10.298 23,-23 0,-6.462 -2.677,-12.291 -6.969,-16.469 z"
       style="opacity:0.1"
       id="path55"
       inkscape:connector-curvature="0" />
  </g>
  <g
     inkscape:groupmode="layer"
     id="layer1"
     inkscape:label="Capa"
     transform="translate(0,464)">
    <path
       style="color:#000000;fill:#e7e7e7;fill-opacity:1;fill-rule:nonzero;stroke:#e7e7e7;stroke-width:10.59446335;stroke-linecap:butt;stroke-linejoin:miter;stroke-miterlimit:4;stroke-opacity:1;stroke-dashoffset:0;marker:none;visibility:visible;display:inline;overflow:visible;enable-background:accumulate"
       d="m 399.60618,-147.22174 c 0,70.868055 -62.6528,-12.43597 -137.47457,-12.43597 -74.82177,0 -133.47908,83.304025 -133.47908,12.43597 0,-70.86804 60.65504,-128.31792 135.47683,-128.31792 74.82176,0 135.47682,57.44988 135.47682,128.31792 z"
       id="path3805"
       inkscape:connector-curvature="0"
       sodipodi:nodetypes="sssss" />
    <rect
       style="fill:#d0d0d0;fill-opacity:1;fill-rule:evenodd;stroke:#d0d0d0;stroke-width:9.85418034px;stroke-linecap:round;stroke-linejoin:round;stroke-opacity:1"
       id="rect3820"
       width="303.65524"
       height="50.269253"
       x="112.30173"
       y="-161.29715" />
  </g>
  <g
     inkscape:groupmode="layer"
     id="layer2"
     inkscape:label="Capa#1"
     transform="translate(0,464)">
    <path
       style="fill:#e7e7e7;fill-opacity:1;stroke:#e7e7e7;stroke-width:9.85418034px;stroke-linecap:round;stroke-linejoin:round;stroke-opacity:1"
       d="m 317.56866,-258.81947 c 0,0 98.38828,-27.6481 100.38602,-71.38233 1.99772,-43.73426 -1.4983,43.73423 -1.4983,43.73423 0,0 1.99773,60.8258 -61.43026,67.3608 -63.42798,6.53502 -37.45746,-39.7127 -37.45746,-39.7127 z"
       id="path3825"
       inkscape:connector-curvature="0" />
    <path
       style="fill:#e7e7e7;fill-opacity:1;stroke:#e7e7e7;stroke-width:11.56950188px;stroke-linecap:round;stroke-linejoin:round;stroke-opacity:1"
       d="m 244.71507,-253.77254 c 0,0 -137.53158,-27.26431 -140.32411,-70.39147 -2.7925,-43.12715 2.09441,43.12716 2.09441,43.12716 0,0 -2.79253,59.98146 85.86996,66.42575 88.66251,6.44428 52.35974,-39.16144 52.35974,-39.16144 z"
       id="path3825-0"
       inkscape:connector-curvature="0" />
  </g>
  <g
     inkscape:groupmode="layer"
     id="layer3"
     inkscape:label="logo"
     transform="translate(0,464)">
    <path
       inkscape:connector-curvature="0"
       d="m 243.02945,-228.02875 c -2.84294,0 -5.58852,0.3735 -8.19778,1.00816 0,-0.0378 0,-0.0563 0,-0.11202 -2.92081,0.72796 -5.14064,1.68011 -5.56903,1.8668 0,0.0563 0,0.11202 0,0.002 0,0 -0.0583,0 -0.11692,0.0378 0.3116,2.2775 0.73982,4.53632 0.95414,5.58173 2.31717,9.40863 9.03505,17.15585 17.89487,21.28146 -0.0389,0.63466 -0.11693,1.25076 -0.11693,1.90414 0,8.68059 3.66076,16.53979 9.52187,22.27085 -0.0389,0 0.0389,0.0378 0,0.0563 1.69408,1.53079 3.99178,3.28556 4.47859,3.64026 0.11682,0.0563 0.33114,0.11192 0.38945,0.20542 1.9472,-1.6428 3.69969,-3.43492 4.14756,-3.90162 5.86111,-5.74974 9.52186,-13.59028 9.52186,-22.27086 0,-0.59733 -0.11682,-1.17609 -0.11682,-1.77346 9.03507,-3.99493 15.83085,-11.74216 18.26485,-21.16946 -0.0389,0 0,-0.0379 0,-0.0563 0.60367,-2.52016 1.03203,-5.26435 1.03203,-5.56304 -0.0389,0 -0.11683,-0.0378 -0.1557,-0.0563 0,-0.14935 0,0 0,-0.11191 -1.24623,-0.54137 -4.08916,-1.4561 -5.58851,-1.94147 0,0.11202 0,-0.0379 0,0.0563 -2.72609,-0.70945 -5.60795,-1.13875 -8.52877,-1.13875 -7.06838,0 -13.61102,2.18415 -18.96584,5.8244 -2.06404,1.49345 -3.54394,2.78153 -4.49806,3.64025 -0.11682,0.11201 -0.17523,0.22403 -0.27262,0.33605 -3.09607,3.0802 -5.51061,6.77646 -7.10733,10.84607 1.73303,0.98933 3.46603,1.8108 5.00435,2.52018 1.28515,-3.58424 3.4076,-6.81381 6.09477,-9.52065 0,-0.0378 0.11682,-0.14935 0.17523,-0.20541 0.11683,-0.14926 0.25309,-0.31733 0.44787,-0.46659 0.0389,-0.0563 0.11693,-0.0563 0.17524,-0.11202 1.90827,-1.60542 3.40762,-2.65084 4.537,-3.36021 0.56469,-0.33605 1.12939,-0.65349 1.71355,-0.95199 3.79708,-1.94146 8.08094,-3.04287 12.69582,-3.04287 2.74557,0 5.43272,0.39191 7.94462,1.13875 -1.6746,7.69118 -6.81523,14.11297 -13.84467,17.71588 -1.09046,-4.44297 -3.13502,-8.58726 -5.97794,-12.07815 -2.35613,1.58676 -4.38123,3.1922 -4.537,3.30422 2.31717,2.83753 4.03072,6.16042 4.98485,9.76333 0,0 0.11693,0.3735 0.27263,1.06407 0.0583,0.33605 0.11693,0.54147 0.25309,1.19476 0.35037,1.64279 0.3116,3.5469 0.27252,4.29362 0,0.14926 0,0.54147 0,0.54147 l -0.0583,0.0931 c -0.21421,7.1125 -3.34921,13.49693 -8.31461,18.10791 -5.14062,-4.74165 -8.35352,-11.42478 -8.37301,-18.85463 2.74559,0.72796 5.62746,1.13874 8.60669,1.13874 1.61618,0 3.23237,-0.16797 4.77066,-0.39201 0.0972,-0.54147 0.11693,-1.15741 0.17524,-2.07213 0.0583,-1.6428 -0.1558,-2.78154 -0.33104,-3.41625 -1.49935,0.24276 -3.05713,0.37339 -4.59542,0.37339 -2.76504,0 -5.45219,-0.39201 -7.98357,-1.12008 -2.00562,-0.3919 -3.89442,-1.3441 -5.25748,-2.16549 -0.7789,-0.44807 -1.28515,-0.78412 -1.57724,-0.95209 -6.03635,-3.75225 -10.476,-9.65131 -11.97535,-16.67047 2.43401,-0.6719 4.98487,-1.06408 7.65254,-1.06408 3.89442,0 7.53571,0.78412 10.88492,2.20282 1.63565,-1.47475 3.60234,-2.96819 4.73171,-3.7896 -4.63409,-2.42647 -9.94996,-3.84526 -15.59689,-3.84526 m 0.0389,0"
       style="fill:#c91933;fill-opacity:1;fill-rule:nonzero;stroke:none"
       id="path41" />
  </g>
</svg>
