<?xml version="1.0" encoding="UTF-8" standalone="no"?>
<!-- Created with Inkscape (http://www.inkscape.org/) -->

<svg
   xmlns:dc="http://purl.org/dc/elements/1.1/"
   xmlns:cc="http://creativecommons.org/ns#"
   xmlns:rdf="http://www.w3.org/1999/02/22-rdf-syntax-ns#"
   xmlns:svg="http://www.w3.org/2000/svg"
   xmlns="http://www.w3.org/2000/svg"
   xmlns:xlink="http://www.w3.org/1999/xlink"
   xmlns:sodipodi="http://sodipodi.sourceforge.net/DTD/sodipodi-0.dtd"
   xmlns:inkscape="http://www.inkscape.org/namespaces/inkscape"
   width="512"
   height="512"
   id="svg2"
   version="1.1"
   inkscape:version="0.48.4 r9939"
   sodipodi:docname="pysol.svg"
   inkscape:export-filename="/home/silerio/Imágenes/iconos/visorf.png"
   inkscape:export-xdpi="90"
   inkscape:export-ydpi="90">
  <sodipodi:namedview
     id="base"
     pagecolor="#ffffff"
     bordercolor="#666666"
     borderopacity="1.0"
     inkscape:pageopacity="0.0"
     inkscape:pageshadow="2"
     inkscape:zoom="0.49497475"
     inkscape:cx="252.11874"
     inkscape:cy="117.10822"
     inkscape:document-units="px"
     inkscape:current-layer="layer1"
     showgrid="false"
     inkscape:window-width="1360"
     inkscape:window-height="717"
     inkscape:window-x="0"
     inkscape:window-y="25"
     inkscape:window-maximized="1" />
  <defs
     id="defs4">
    <linearGradient
       id="linearGradient4168">
      <stop
         style="stop-color:#000000;stop-opacity:1;"
         offset="0"
         id="stop4170" />
      <stop
         style="stop-color:#000000;stop-opacity:0;"
         offset="1"
         id="stop4172" />
    </linearGradient>
    <linearGradient
       id="linearGradient4135">
      <stop
         style="stop-color:#000000;stop-opacity:1;"
         offset="0"
         id="stop4137" />
      <stop
         style="stop-color:#ff385d;stop-opacity:1;"
         offset="1"
         id="stop4139" />
    </linearGradient>
    <clipPath
       clipPathUnits="userSpaceOnUse"
       id="clipPath4075">
      <path
         transform="translate(-8.5714329,491.79075)"
         d="m 497.14284,303.42856 a 225.71428,225.71428 0 1 1 -451.428561,0 225.71428,225.71428 0 1 1 451.428561,0 z"
         sodipodi:ry="225.71428"
         sodipodi:rx="225.71428"
         sodipodi:cy="303.42856"
         sodipodi:cx="271.42856"
         id="path4077"
         style="fill:#ff385d;fill-opacity:1;fill-rule:evenodd;stroke:none"
         sodipodi:type="arc" />
    </clipPath>
    <clipPath
       clipPathUnits="userSpaceOnUse"
       id="clipPath4107">
      <g
         style="opacity:0.24369746;fill:#000000;fill-opacity:1"
         clip-path="url(#clipPath4075)"
         id="g4109"
         transform="translate(8.5714329,-491.79075)">
        <g
           style="color:#000000;fill:#000000;fill-opacity:1;fill-rule:evenodd;stroke:none;stroke-width:50;marker:none;visibility:visible;display:inline;overflow:visible;enable-background:accumulate"
           id="g4111">
          <path
             style="fill:#000000;fill-opacity:1"
             d="m 262.8487,631.30999 -79.58123,105.42689 565.68542,565.68542 79.58123,-105.4269 z"
             id="path4113"
             inkscape:connector-curvature="0" />
          <path
             style="fill:#000000;fill-opacity:1"
             d="m 183.26747,736.73688 30.49122,0 565.68542,565.68542 -30.49122,0 z"
             id="path4115"
             inkscape:connector-curvature="0" />
          <path
             style="fill:#000000;fill-opacity:1"
             d="m 213.75869,736.73688 0,116.96462 565.68542,565.6854 0,-116.9646 z"
             id="path4117"
             inkscape:connector-curvature="0" />
          <path
             style="fill:#000000;fill-opacity:1"
             d="m 213.75869,853.7015 -30.49122,0 565.68542,565.6854 30.49122,0 z"
             id="path4119"
             inkscape:connector-curvature="0" />
          <path
             style="fill:#000000;fill-opacity:1"
             d="M 183.26747,853.7015 262.8487,959.12862 828.53412,1524.814 748.95289,1419.3869 z"
             id="path4121"
             inkscape:connector-curvature="0" />
          <path
             style="fill:#000000;fill-opacity:1"
             d="M 262.8487,959.12862 342.44678,853.7015 908.1322,1419.3869 828.53412,1524.814 z"
             id="path4123"
             inkscape:connector-curvature="0" />
          <path
             style="fill:#000000;fill-opacity:1"
             d="m 342.44678,853.7015 -30.4912,0 565.68542,565.6854 30.4912,0 z"
             id="path4125"
             inkscape:connector-curvature="0" />
          <path
             style="fill:#000000;fill-opacity:1"
             d="m 311.95558,853.7015 0,-116.96462 565.68542,565.68542 0,116.9646 z"
             id="path4127"
             inkscape:connector-curvature="0" />
          <path
             style="fill:#000000;fill-opacity:1"
             d="m 311.95558,736.73688 30.4912,0 565.68542,565.68542 -30.4912,0 z"
             id="path4129"
             inkscape:connector-curvature="0" />
          <path
             style="fill:#000000;fill-opacity:1"
             d="M 342.44678,736.73688 262.8487,631.30999 828.53412,1196.9954 908.1322,1302.4223 z"
             id="path4131"
             inkscape:connector-curvature="0" />
        </g>
        <path
           inkscape:connector-curvature="0"
           id="path4133"
           d="m 262.8487,631.30999 -79.58123,105.42689 30.49122,0 0,116.96462 -30.49122,0 79.58123,105.42712 79.59808,-105.42712 -30.4912,0 0,-116.96462 30.4912,0 -79.59808,-105.42689 z"
           style="color:#000000;fill:#000000;fill-opacity:1;fill-rule:evenodd;stroke:none;stroke-width:50;marker:none;visibility:visible;display:inline;overflow:visible;enable-background:accumulate" />
      </g>
    </clipPath>
    <linearGradient
       inkscape:collect="always"
       xlink:href="#linearGradient4168"
       id="linearGradient4174"
       x1="264.69604"
       y1="268.61676"
       x2="442.85715"
       y2="458.61676"
       gradientUnits="userSpaceOnUse" />
  </defs>
  <metadata
     id="metadata7">
    <rdf:RDF>
      <cc:Work
         rdf:about="">
        <dc:format>image/svg+xml</dc:format>
        <dc:type
           rdf:resource="http://purl.org/dc/dcmitype/StillImage" />
        <dc:title></dc:title>
      </cc:Work>
    </rdf:RDF>
  </metadata>
  <g
     transform="translate(0,-540.36218)"
     id="layer1"
     inkscape:groupmode="layer"
     inkscape:label="Capa 1">
    <path
       sodipodi:type="arc"
       style="fill:#eb5370;fill-opacity:1;fill-rule:evenodd;stroke:none"
       id="path4008"
       sodipodi:cx="271.42856"
       sodipodi:cy="303.42856"
       sodipodi:rx="225.71428"
       sodipodi:ry="225.71428"
       d="m 497.14284,303.42856 c 0,124.65855 -101.05573,225.71428 -225.71428,225.71428 C 146.77,529.14284 45.714279,428.08711 45.714279,303.42856 45.714279,178.77 146.77,77.714279 271.42856,77.714279 c 124.65855,0 225.71428,101.055721 225.71428,225.714281 z"
       transform="translate(-8.5714329,491.79075)" />
    <path
       transform="translate(-8.5714329,491.79075)"
       d="m 497.14284,303.42856 c 0,124.65855 -101.05573,225.71428 -225.71428,225.71428 C 146.77,529.14284 45.714279,428.08711 45.714279,303.42856 45.714279,178.77 146.77,77.714279 271.42856,77.714279 c 124.65855,0 225.71428,101.055721 225.71428,225.714281 z"
       sodipodi:ry="225.71428"
       sodipodi:rx="225.71428"
       sodipodi:cy="303.42856"
       sodipodi:cx="271.42856"
       id="path4079"
       style="fill:url(#linearGradient4174);fill-opacity:1;fill-rule:evenodd;stroke:none;opacity:0.19327731000000001"
       sodipodi:type="arc"
       clip-path="url(#clipPath4107)" />
    <path
       inkscape:connector-curvature="0"
       id="path4010"
       d="m 262.8487,631.30999 -79.58123,105.42689 30.49122,0 0,116.96462 -30.49122,0 79.58123,105.42712 79.59808,-105.42712 -30.4912,0 0,-116.96462 30.4912,0 -79.59808,-105.42689 z"
       style="color:#000000;fill:#fff0f3;fill-opacity:1;fill-rule:evenodd;stroke:none;stroke-width:50;marker:none;visibility:visible;display:inline;overflow:visible;enable-background:accumulate" />
    <path
       style="fill:#ffffff;fill-opacity:0.11057691;fill-rule:evenodd;stroke:none"
       d="M 262.84375 29.15625 C 138.1852 29.15625 37.15625 130.1852 37.15625 254.84375 C 37.15625 332.34525 76.210274 400.73197 135.71875 441.375 C 85.396355 399.97789 53.3125 337.21716 53.3125 266.96875 C 53.3125 142.3102 154.3727 41.25 279.03125 41.25 C 326.18831 41.25 369.94734 55.738835 406.15625 80.46875 C 367.17958 48.405064 317.2539 29.15625 262.84375 29.15625 z "
       transform="translate(0,540.36218)"
       id="path4176" />
  </g>
</svg>
