<svg height="512" width="512" xmlns="http://www.w3.org/2000/svg" xmlns:xlink="http://www.w3.org/1999/xlink"><linearGradient id="a" gradientUnits="userSpaceOnUse" x1="-241" x2="454" y1="73" y2="454"><stop offset="0"/><stop offset="1" stop-opacity="0"/></linearGradient><rect fill="#ececec" height="366" rx="16" width="418" x="47" y="56"/><rect fill="#1f61f5" height="112" rx="16" width="452" x="30" y="385"/><rect fill="#39baf6" height="112" rx="16" width="452" x="30" y="385"/><path d="m336.60742 306.69141-57.60742 22.30859-4 56-7.98633 111.79688h183.76758l-3.61719 10.5625c47.35966-1.02361 85.92895-1.95764 87.79492-2.31836l-52.95898-52.95899-67.08398-67.08203z" fill="url(#a)"/><rect fill="#96a1ae" fill-opacity=".536946" height="15.556366" rx="3.272078" width="113.1371" x="65.053833" y="340.88019"/><rect fill="#96a1ae" fill-opacity=".536946" height="15.556366" rx="3.272078" width="113.1371" x="65.053833" y="307.88187"/><circle cx="256" cy="387" fill="#39baf6" r="114"/><g fill="#96a1ae" fill-opacity=".536946"><rect height="86.267029" rx="3.272078" width="197.9899" x="217.78889" y="135.81918"/><rect height="15.556366" rx="3.272078" width="113.1371" x="217.78889" y="240.47099"/><rect height="15.556366" rx="3.272078" width="113.1371" x="65.053833" y="142.89026"/><rect height="15.556366" rx="3.272078" width="113.1371" x="65.053833" y="175.8886"/><rect height="15.556366" rx="3.272078" width="113.1371" x="65.053833" y="208.8869"/><rect height="15.556366" rx="3.272078" width="113.1371" x="65.053833" y="241.88522"/><rect height="15.556366" rx="3.272078" width="113.1371" x="65.053833" y="274.88354"/></g><path d="m219.11809 454.20643c-6.19918-.39746-14.16044-1.70886-21.18689-3.48997-8.34826-2.11618-20.22655-7.01392-22.75315-9.38176l-1.06492-.99799 6.60295-.39751c3.63163-.21862 7.48725-.51154 8.56807-.65093 12.34774-1.59244 21.68634-5.07012 29.8055-11.09951 3.3229-2.46763 3.87855-3.59115 1.92641-3.89516-.65086-.10137-2.30886-.36159-3.68444-.5783-8.99129-1.41639-18.42741-6.9945-23.2148-13.7233-1.73603-2.44004-4.01176-6.86051-3.69499-7.17728.11433-.11433 1.29859-.0179 2.63171.21422 2.92449.50928 6.72286.25473 9.62908-.64528 3.12358-.96732 2.95873-1.6909-.71458-3.1366-13.48281-5.30641-20.56927-14.53458-22.1547-28.8504-.12513-1.12994-.12535-2.05443-.00035-2.05443.12488 0 2.1754.66306 4.55673 1.47348 3.31593 1.12847 4.91844 1.48401 6.84424 1.51849 3.53102.0632 3.52684-.46194-.0332-4.17316-9.93265-10.35452-12.91919-21.56536-9.18264-34.46976.49612-1.71342 1.21832-3.83111 1.60486-4.70597l.70283-1.59065 4.36501 4.30678c10.5694 10.42844 19.98289 17.37194 30.44737 22.45835 10.75603 5.22812 21.40203 8.03853 30.90582 8.15873l4.46616.0565-.0746-1.07189c-.041-.58953-.18358-2.61416-.31682-4.49917-.60611-8.5752 2.57935-18.15151 8.40969-25.28171 3.28448-4.01676 10.4696-8.2088 17.00059-9.91874 6.99459-1.8313 16.49823-1.06776 22.58828 1.81481 3.39877 1.60873 5.3764 2.99804 8.52515 5.98905l2.59379 2.46384 2.61465-.76869c6.37255-1.8735 11.81844-4.1781 15.77464-6.67554l1.41615-.89397-.21648 1.33396c-.11905.73368-.89284 2.69934-1.71952 4.36814-1.50018 3.02835-2.79712 4.55966-7.91699 9.34767-1.13597 1.06234-2.00789 2.10713-1.93759 2.32175.39295 1.19968 6.10524.23166 12.33511-2.09033 2.29522-.85547 4.23272-1.49883 4.30555-1.42967.27431.26046-3.2472 4.82685-5.88358 7.62932-1.50692 1.60188-4.48718 4.44889-6.62276 6.3267l-3.8829 3.41419-.007 4.16743c-.042 24.66967-10.53092 49.89851-28.36666 68.23018-11.78071 12.10827-25.11607 20.18378-40.79729 24.70565-9.46117 2.72825-22.44221 4.03772-33.19332 3.34843z" fill="#fff" stroke-width=".355819"/></svg>