<?xml version="1.0" encoding="UTF-8" standalone="no"?>
<!-- Created with Inkscape (http://www.inkscape.org/) -->

<svg
   xmlns:dc="http://purl.org/dc/elements/1.1/"
   xmlns:cc="http://creativecommons.org/ns#"
   xmlns:rdf="http://www.w3.org/1999/02/22-rdf-syntax-ns#"
   xmlns:svg="http://www.w3.org/2000/svg"
   xmlns="http://www.w3.org/2000/svg"
   xmlns:xlink="http://www.w3.org/1999/xlink"
   xmlns:sodipodi="http://sodipodi.sourceforge.net/DTD/sodipodi-0.dtd"
   xmlns:inkscape="http://www.inkscape.org/namespaces/inkscape"
   width="512"
   height="512"
   id="svg2"
   version="1.1"
   inkscape:version="0.48.4 r9939"
   sodipodi:docname="0ad.svg.2015_12_28_22_11_45.0.svg">
  <sodipodi:namedview
     id="base"
     pagecolor="#ffffff"
     bordercolor="#666666"
     borderopacity="1.0"
     inkscape:pageopacity="0.0"
     inkscape:pageshadow="2"
     inkscape:zoom="0.35355339"
     inkscape:cx="281.08386"
     inkscape:cy="254.08005"
     inkscape:document-units="px"
     inkscape:current-layer="layer1"
     showgrid="false"
     inkscape:window-width="1360"
     inkscape:window-height="721"
     inkscape:window-x="0"
     inkscape:window-y="25"
     inkscape:window-maximized="1" />
  <defs
     id="defs4">
    <linearGradient
       inkscape:collect="always"
       id="linearGradient3995">
      <stop
         style="stop-color:#dd6e6c;stop-opacity:1;"
         offset="0"
         id="stop3997" />
      <stop
         style="stop-color:#dd6e6c;stop-opacity:0;"
         offset="1"
         id="stop3999" />
    </linearGradient>
    <linearGradient
       id="linearGradient3837"
       inkscape:collect="always">
      <stop
         id="stop3839"
         offset="0"
         style="stop-color:#7db257;stop-opacity:1;" />
      <stop
         id="stop3841"
         offset="1"
         style="stop-color:#7db257;stop-opacity:0;" />
    </linearGradient>
    <linearGradient
       gradientUnits="userSpaceOnUse"
       y2="356.66208"
       x2="316.05505"
       y1="546.63525"
       x1="502.83536"
       id="linearGradient3843"
       xlink:href="#linearGradient3837"
       inkscape:collect="always" />
    <clipPath
       id="clipPath3847"
       clipPathUnits="userSpaceOnUse">
      <path
         sodipodi:type="arc"
         style="fill:url(#linearGradient3851);fill-opacity:1;fill-rule:evenodd;stroke:none"
         id="path3849"
         sodipodi:cx="322.4407"
         sodipodi:cy="342.29437"
         sodipodi:rx="260.2153"
         sodipodi:ry="260.2153"
         d="m 582.65601,342.29437 a 260.2153,260.2153 0 1 1 -520.430607,0 260.2153,260.2153 0 1 1 520.430607,0 z"
         transform="matrix(0.88586957,0,0,0.88586957,-24.010886,495.98978)" />
    </clipPath>
    <linearGradient
       y2="356.66208"
       x2="316.05505"
       y1="546.63525"
       x1="502.83536"
       gradientUnits="userSpaceOnUse"
       id="linearGradient3851"
       xlink:href="#linearGradient3837"
       inkscape:collect="always" />
    <clipPath
       clipPathUnits="userSpaceOnUse"
       id="clipPath3987">
      <path
         transform="matrix(0.88586957,0,0,0.88586957,-24.010886,495.98978)"
         d="m 582.65601,342.29437 a 260.2153,260.2153 0 1 1 -520.430607,0 260.2153,260.2153 0 1 1 520.430607,0 z"
         sodipodi:ry="260.2153"
         sodipodi:rx="260.2153"
         sodipodi:cy="342.29437"
         sodipodi:cx="322.4407"
         id="path3989"
         style="fill:#dd6e6c;fill-opacity:1;fill-rule:evenodd;stroke:none"
         sodipodi:type="arc" />
    </clipPath>
    <linearGradient
       inkscape:collect="always"
       xlink:href="#linearGradient3995"
       id="linearGradient4001"
       x1="488.92477"
       y1="525.16553"
       x2="203.36766"
       y2="229.41093"
       gradientUnits="userSpaceOnUse" />
  </defs>
  <metadata
     id="metadata7">
    <rdf:RDF>
      <cc:Work
         rdf:about="">
        <dc:format>image/svg+xml</dc:format>
        <dc:type
           rdf:resource="http://purl.org/dc/dcmitype/StillImage" />
        <dc:title></dc:title>
      </cc:Work>
    </rdf:RDF>
  </metadata>
  <g
     inkscape:label="Capa 1"
     inkscape:groupmode="layer"
     id="layer1"
     transform="translate(0,-540.36218)">
    <path
       sodipodi:type="arc"
       style="fill:#dd6e6c;fill-rule:evenodd;stroke:none;fill-opacity:1"
       id="path2990"
       sodipodi:cx="322.4407"
       sodipodi:cy="342.29437"
       sodipodi:rx="260.2153"
       sodipodi:ry="260.2153"
       d="m 582.65601,342.29437 c 0,143.71295 -116.50236,260.2153 -260.21531,260.2153 -143.71294,0 -260.215297,-116.50235 -260.215297,-260.2153 0,-143.71294 116.502357,-260.215299 260.215297,-260.215299 143.71295,0 260.21531,116.502359 260.21531,260.215299 z"
       transform="matrix(0.88586957,0,0,0.88586957,-24.010886,495.98978)" />
    <g
       id="g3794"
       clip-path="url(#clipPath3987)"
       style="opacity:0.3173913">
      <g
         id="g3796"
         style="font-size:medium;font-style:normal;font-variant:normal;font-weight:normal;font-stretch:normal;text-indent:0;text-align:start;text-decoration:none;line-height:normal;letter-spacing:normal;word-spacing:normal;text-transform:none;direction:ltr;block-progression:tb;writing-mode:lr-tb;text-anchor:start;baseline-shift:baseline;color:#000000;fill:#000000;fill-opacity:1;stroke:none;stroke-width:20;marker:none;visibility:visible;display:inline;overflow:visible;enable-background:accumulate;font-family:Sans;-inkscape-font-specification:Sans">
        <path
           id="path3798"
           d="M308.92922 682.70527C305.9819 682.76057 303.34644 685.48 303.3835 688.42761L515.515534356 900.559644356C515.478474356 897.612034356 518.113934356 894.892604356 521.061254356 894.837304356Z" />
        <path
           id="path3800"
           d="M303.3835 688.42761L303.3835 741.37687L515.515534356 953.508904356L515.515534356 900.559644356Z" />
        <path
           id="path3802"
           d="M303.3835 741.37687C302.07147 740.86199 300.67985 740.25691 299.18006 739.57539L511.312094356 951.707424356C512.811884356 952.388944356 514.203504356 952.994024356 515.515534356 953.508904356Z" />
        <path
           id="path3804"
           d="M299.18006 739.57539C294.510355878 737.453440419 289.660088777 735.080767152 287.96300972 733.383688094L500.095044076 945.51572245C501.792123133 947.212801508 506.642390234 949.585474775 511.312094356 951.707424356Z" />
        <path
           id="path3806"
           d="M287.96300972 733.383688094C287.755580128 733.176258503 287.595257721 732.978921979 287.48813 732.79337L499.620164356 944.925404356C499.727292077 945.110956335 499.887614484 945.308292859 500.095044076 945.51572245Z" />
        <path
           id="path3808"
           d="M287.48813 732.79337C285.17113 728.7802 284.51276 723.6832 285.40407 714.53135L497.536104356 926.663384356C496.644794356 935.815234356 497.303164356 940.912234356 499.620164356 944.925404356Z" />
        <path
           id="path3810"
           d="M285.40407 714.53135C286.29537 705.37949 288.08862 697.71757 288.08862 697.71757L500.220654356 909.849604356C500.220654356 909.849604356 498.427404356 917.511524356 497.536104356 926.663384356Z" />
        <path
           id="path3812"
           d="M288.08862 697.71757C288.50265 696.07001 288.13502 694.22506 287.09957 692.87831L499.231604356 905.010344356C500.267054356 906.357094356 500.634684356 908.202044356 500.220654356 909.849604356Z" />
        <path
           id="path3814"
           d="M287.09957 692.87831C286.959212561 692.69575166 286.806986837 692.52287203 286.644458514 692.360343707L498.77649287 904.492378063C498.939021193 904.654906386 499.091246917 904.827786016 499.231604356 905.010344356Z" />
        <path
           id="path3816"
           d="M286.644458514 692.360343707C285.608000153 691.323885346 284.15256266 690.708386997 282.68419 690.68828L494.816224356 902.820314356C496.284597016 902.840421353 497.740034508 903.455919702 498.77649287 904.492378063Z" />
        <path
           id="path3818"
           d="M282.68419 690.68828C280.09732 690.64568 277.61746 692.61082 277.06782 695.13899L489.199854356 907.271024356C489.749494356 904.742854356 492.229354356 902.777714356 494.816224356 902.820314356Z" />
        <path
           id="path3820"
           d="M277.06782 695.13899C277.06782 695.13899 275.145 703.43884 274.17133 713.43633L486.303364356 925.568364356C487.277034356 915.570874356 489.199854356 907.271024356 489.199854356 907.271024356Z" />
        <path
           id="path3822"
           d="M274.17133 713.43633C273.19767 723.43382 272.56079 735.11843 277.70364 744.0261L489.835674356 956.158134356C484.692824356 947.250464356 485.329704356 935.565854356 486.303364356 925.568364356Z" />
        <path
           id="path3824"
           d="M277.70364 744.0261C278.650075509 745.665374152 279.790669716 747.099797073 281.062754101 748.371881458L493.194788457 960.503915814C491.922704072 959.231831429 490.782109865 957.797408508 489.835674356 956.158134356Z" />
        <path
           id="path3826"
           d="M281.062754101 748.371881458C284.910872639 752.219999996 289.962248057 754.582570616 294.48209 756.63643L506.614124356 968.768464356C502.094282413 966.714604972 497.042906995 964.352034352 493.194788457 960.503915814Z" />
        <path
           id="path3828"
           d="M294.48209 756.63643C297.60922 758.05742 300.31087 759.0796 302.39446 759.8155L514.526494356 971.947534356C512.442904356 971.211634356 509.741254356 970.189454356 506.614124356 968.768464356Z" />
        <path
           id="path3830"
           d="M302.39446 759.8155L295.22388 904.25149L507.355914356 1116.38352436L514.526494356 971.947534356Z" />
        <path
           id="path3832"
           d="M295.22388 904.25149C295.18158 907.23734 296.41237 910.21406 298.50892 912.34047L510.640954356 1124.47250436C508.544404356 1122.34609436 507.313614356 1119.36937436 507.355914356 1116.38352436Z" />
        <path
           id="path3834"
           d="M298.50892 912.34047C298.515299551 912.346940381 298.521716633 912.353402782 298.528171044 912.359857193L510.6602054 1124.49189155C510.653750989 1124.48543714 510.647333907 1124.47897474 510.640954356 1124.47250436Z" />
        <path
           id="path3836"
           d="M298.528171044 912.359857193C300.642868256 914.474554405 306.764576528 915.73148 309.74165 915.73148L521.873684356 1127.86351436C518.896610884 1127.86351436 512.774902612 1126.60658876 510.6602054 1124.49189155Z" />
        <path
           id="path3838"
           d="M309.74165 915.73148C312.72781 915.73148 318.87783 914.46687 320.97439 912.34047L533.106424356 1124.47250436C531.009864356 1126.59890436 524.859844356 1127.86351436 521.873684356 1127.86351436Z" />
        <path
           id="path3840"
           d="M320.97439 912.34047C323.07094 910.21406 324.30166 907.23734 324.25943 904.25149L536.391464356 1116.38352436C536.433694356 1119.36937436 535.202974356 1122.34609436 533.106424356 1124.47250436Z" />
        <path
           id="path3842"
           d="M324.25943 904.25149L317.83063 759.00307L529.962664356 971.135104356L536.391464356 1116.38352436Z" />
        <path
           id="path3844"
           d="M317.83063 759.00307C319.53943 758.35127 321.43287 757.59982 323.55297 756.63643L535.685004356 968.768464356C533.564904356 969.731854356 531.671464356 970.483304356 529.962664356 971.135104356Z" />
        <path
           id="path3846"
           d="M323.55297 756.63643C329.56695 753.90362 336.55729 750.62426 340.36674 744.0261L552.498774356 956.158134356C548.689324356 962.756294356 541.698984356 966.035654356 535.685004356 968.768464356Z" />
        <path
           id="path3848"
           d="M340.36674 744.0261C345.50959 735.11843 344.87271 723.43382 343.89905 713.43633L556.031084356 925.568364356C557.004744356 935.565854356 557.641624356 947.250464356 552.498774356 956.158134356Z" />
        <path
           id="path3850"
           d="M343.89905 713.43633C342.92539 703.43884 340.96724 695.13899 340.96724 695.13899L553.099274356 907.271024356C553.099274356 907.271024356 555.057424356 915.570874356 556.031084356 925.568364356Z" />
        <path
           id="path3852"
           d="M340.96724 695.13899C340.96724 695.13899 340.96724 695.13899 340.96724 695.13899L553.099274356 907.271024356C553.099274356 907.271024356 553.099274356 907.271024356 553.099274356 907.271024356Z" />
        <path
           id="path3854"
           d="M340.96724 695.13899C340.739559484 694.117905262 340.19591059 693.19207017 339.45837688 692.45453646L551.590411236 904.586570816C552.327944946 905.324104526 552.87159384 906.249939618 553.099274356 907.271024356Z" />
        <path
           id="path3856"
           d="M339.45837688 692.45453646C338.335948597 691.332108177 336.764467678 690.645800854 335.17425 690.7236L547.306284356 902.855634356C548.896502034 902.77783521 550.467982953 903.464142533 551.590411236 904.586570816Z" />
        <path
           id="path3858"
           d="M335.17425 690.7236C333.51305 690.8005 331.89581 691.65228 330.90016 692.98428L543.032194356 905.116314356C544.027844356 903.784314356 545.645084356 902.932534356 547.306284356 902.855634356Z" />
        <path
           id="path3860"
           d="M330.90016 692.98428C329.90453 694.31628 329.54991 696.10255 329.94644 697.71757L542.078474356 909.849604356C541.681944356 908.234584356 542.036564356 906.448314356 543.032194356 905.116314356Z" />
        <path
           id="path3862"
           d="M329.94644 697.71757C329.94644 697.71757 331.73969 705.37949 332.63099 714.53135L544.763024356 926.663384356C543.871724356 917.511524356 542.078474356 909.849604356 542.078474356 909.849604356Z" />
        <path
           id="path3864"
           d="M332.63099 714.53135C333.5223 723.6832 332.89926 728.7802 330.58226 732.79337L542.714294356 944.925404356C545.031294356 940.912234356 545.654334356 935.815234356 544.763024356 926.663384356Z" />
        <path
           id="path3866"
           d="M330.58226 732.79337C329.59866 734.49701 324.09547 737.19408 318.855 739.57539L530.987034356 951.707424356C536.227504356 949.326114356 541.730694356 946.629044356 542.714294356 944.925404356Z" />
        <path
           id="path3868"
           d="M318.855 739.57539C317.36795 740.25112 315.99015 740.86487 314.68688 741.37687L526.818914356 953.508904356C528.122184356 952.996904356 529.499984356 952.383154356 530.987034356 951.707424356Z" />
        <path
           id="path3870"
           d="M314.68688 741.37687L314.68688 688.42761L526.818914356 900.559644356L526.818914356 953.508904356Z" />
        <path
           id="path3872"
           d="M314.68688 688.42761C314.705798803 686.924934279 314.026796229 685.486116741 312.967692565 684.427013078L525.099726921 896.559047434C526.158830585 897.618151097 526.837833159 899.056968635 526.818914356 900.559644356Z" />
        <path
           id="path3874"
           d="M312.967692565 684.427013078C311.899497844 683.358818357 310.44464866 682.676884209 308.92922 682.70527L521.061254356 894.837304356C522.576683016 894.808918565 524.0315322 895.490852713 525.099726921 896.559047434Z" />
        <path
           id="path3876"
           d="M203.45457 703.29861C189.77042 703.29861 178.69311 714.37592 178.69311 728.06008L390.825144356 940.192114356C390.825144356 926.507954356 401.902454356 915.430644356 415.586604356 915.430644356Z" />
        <path
           id="path3878"
           d="M178.69311 728.06008C178.69311 734.910984985 181.469589979 741.117349573 185.959636584 745.607396177L398.09167094 957.739430533C393.601624335 953.249383929 390.825144356 947.043019341 390.825144356 940.192114356Z" />
        <path
           id="path3880"
           d="M185.959636584 745.607396177C190.438108938 750.085868531 196.621324985 752.85686 203.45457 752.85686L415.586604356 964.988894356C408.753359341 964.988894356 402.570143294 962.217902887 398.09167094 957.739430533Z" />
        <path
           id="path3882"
           d="M203.45457 752.85686C217.13873 752.85686 228.21604 741.74423 228.21604 728.06008L440.348074356 940.192114356C440.348074356 953.876264356 429.270764356 964.988894356 415.586604356 964.988894356Z" />
        <path
           id="path3884"
           d="M228.21604 728.06008C228.21604 720.920518261 225.200666389 714.490571645 220.372923597 709.97324458L432.504957953 922.105278936C437.332700745 926.622606001 440.348074356 933.052552617 440.348074356 940.192114356Z" />
        <path
           id="path3886"
           d="M220.372923597 709.97324458C215.947492703 705.832361437 209.999168261 703.29861 203.45457 703.29861L415.586604356 915.430644356C422.131202617 915.430644356 428.079527059 917.964395793 432.504957953 922.105278936Z" />
        <path
           id="path3888"
           d="M203.45457 774.40393C189.77042 774.40393 178.69311 785.51656 178.69311 799.20071L390.825144356 1011.33274436C390.825144356 997.648594356 401.902454356 986.535964356 415.586604356 986.535964356Z" />
        <path
           id="path3890"
           d="M178.69311 799.20071C178.69311 806.042791252 181.462438513 812.233159765 185.942286209 816.713007459L398.074320565 1028.84504181C393.594472869 1024.36519412 390.825144356 1018.17482561 390.825144356 1011.33274436Z" />
        <path
           id="path3892"
           d="M185.942286209 816.713007459C190.422132265 821.192853513 196.612496252 823.96218 203.45457 823.96218L415.586604356 1036.09421436C408.744530608 1036.09421436 402.554166621 1033.32488787 398.074320565 1028.84504181Z" />
        <path
           id="path3894"
           d="M203.45457 823.96218C217.13873 823.96218 228.21604 812.88487 228.21604 799.20071L440.348074356 1011.33274436C440.348074356 1025.01690436 429.270764356 1036.09421436 415.586604356 1036.09421436Z" />
        <path
           id="path3896"
           d="M228.21604 799.20071C228.21604 792.349806268 225.439561036 786.143442698 220.949514625 781.653396287L433.081548981 993.785430643C437.571595392 998.275477054 440.348074356 1004.48184062 440.348074356 1011.33274436Z" />
        <path
           id="path3898"
           d="M220.949514625 781.653396287C216.471040824 777.174922485 210.287821261 774.40393 203.45457 774.40393L415.586604356 986.535964356C422.419855617 986.535964356 428.60307518 989.306956841 433.081548981 993.785430643Z" />
        <path
           id="path3900"
           d="M203.45457 845.54457C189.77042 845.54457 178.69311 856.6572 178.69311 870.34135L390.825144356 1082.47338436C390.825144356 1068.78923436 401.902454356 1057.67660436 415.586604356 1057.67660436Z" />
        <path
           id="path3902"
           d="M178.69311 870.34135C178.69311 877.329001064 181.58153488 883.636914762 186.230544207 888.137250662L398.362578563 1100.26928502C393.713569236 1095.76894912 390.825144356 1089.46103542 390.825144356 1082.47338436Z" />
        <path
           id="path3904"
           d="M186.230544207 888.137250662C190.685844812 892.450072567 196.758071064 895.10281 203.45457 895.10281L415.586604356 1107.23484436C408.89010542 1107.23484436 402.817879168 1104.58210692 398.362578563 1100.26928502Z" />
        <path
           id="path3906"
           d="M203.45457 895.10281C217.13873 895.10281 228.21604 884.0255 228.21604 870.34135L440.348074356 1082.47338436C440.348074356 1096.15753436 429.270764356 1107.23484436 415.586604356 1107.23484436Z" />
        <path
           id="path3908"
           d="M228.21604 870.34135C228.21604 863.490446268 225.439561036 857.284082698 220.949514625 852.794036287L433.081548981 1064.92607064C437.571595392 1069.41611705 440.348074356 1075.62248062 440.348074356 1082.47338436Z" />
        <path
           id="path3910"
           d="M220.949514625 852.794036287C216.471040824 848.315562485 210.287821261 845.54457 203.45457 845.54457L415.586604356 1057.67660436C422.419855617 1057.67660436 428.60307518 1060.44759684 433.081548981 1064.92607064Z" />
      </g>
      <path
         style="font-size:medium;font-style:normal;font-variant:normal;font-weight:normal;font-stretch:normal;text-indent:0;text-align:start;text-decoration:none;line-height:normal;letter-spacing:normal;word-spacing:normal;text-transform:none;direction:ltr;block-progression:tb;writing-mode:lr-tb;text-anchor:start;baseline-shift:baseline;color:#000000;fill:#000000;fill-opacity:1;stroke:none;stroke-width:20;marker:none;visibility:visible;display:inline;overflow:visible;enable-background:accumulate;font-family:Sans;-inkscape-font-specification:Sans"
         d="m 308.92922,682.70527 c -2.94732,0.0553 -5.58278,2.77473 -5.54572,5.72234 l 0,52.94926 c -1.31203,-0.51488 -2.70365,-1.11996 -4.20344,-1.80148 -5.24047,-2.38131 -10.70834,-5.07838 -11.69193,-6.78202 -2.317,-4.01317 -2.97537,-9.11017 -2.08406,-18.26202 0.8913,-9.15186 2.68455,-16.81378 2.68455,-16.81378 0.41403,-1.64756 0.0464,-3.49251 -0.98905,-4.83926 -1.03543,-1.34675 -2.71675,-2.16677 -4.41538,-2.19003 -2.58687,-0.0426 -5.06673,1.92254 -5.61637,4.45071 0,0 -1.92282,8.29985 -2.89649,18.29734 -0.97366,9.99749 -1.61054,21.6821 3.53231,30.58977 3.80945,6.59816 10.76447,9.87752 16.77845,12.61033 3.12713,1.42099 5.82878,2.44317 7.91237,3.17907 l -7.17058,144.43599 c -0.0423,2.98585 1.18849,5.96257 3.28504,8.08898 2.09655,2.1264 8.24657,3.39101 11.23273,3.39101 2.98616,0 9.13618,-1.26461 11.23274,-3.39101 2.09655,-2.12641 3.32727,-5.10313 3.28504,-8.08898 l -6.4288,-145.24842 c 1.7088,-0.6518 3.60224,-1.40325 5.72234,-2.36664 6.01398,-2.73281 13.00432,-6.01217 16.81377,-12.61033 5.14285,-8.90767 4.50597,-20.59228 3.53231,-30.58977 -0.97366,-9.99749 -2.93181,-18.29734 -2.93181,-18.29734 -0.57418,-2.57504 -3.15786,-4.54431 -5.79299,-4.41539 -1.6612,0.0769 -3.27844,0.92868 -4.27409,2.26068 -0.99563,1.332 -1.35025,3.11827 -0.95372,4.73329 0,0 1.79325,7.66192 2.68455,16.81378 0.89131,9.15185 0.26827,14.24885 -2.04873,18.26202 -0.9836,1.70364 -6.48679,4.40071 -11.72726,6.78202 -1.48705,0.67573 -2.86485,1.28948 -4.16812,1.80148 l 0,-52.94926 c 0.038,-3.01825 -2.7397,-5.77887 -5.75766,-5.72234 z m -105.47465,20.59334 c -13.68415,0 -24.76146,11.07731 -24.76146,24.76147 0,13.68415 11.07731,24.79678 24.76146,24.79678 13.68416,0 24.76147,-11.11263 24.76147,-24.79678 0,-13.68416 -11.07731,-24.76147 -24.76147,-24.76147 z m 0,71.10532 c -13.68415,0 -24.76146,11.11263 -24.76146,24.79678 0,13.68416 11.07731,24.76147 24.76146,24.76147 13.68416,0 24.76147,-11.07731 24.76147,-24.76147 0,-13.68415 -11.07731,-24.79678 -24.76147,-24.79678 z m 0,71.14064 c -13.68415,0 -24.76146,11.11263 -24.76146,24.79678 0,13.68415 11.07731,24.76146 24.76146,24.76146 13.68416,0 24.76147,-11.07731 24.76147,-24.76146 0,-13.68415 -11.07731,-24.79678 -24.76147,-24.79678 z"
         id="path3778"
         inkscape:connector-curvature="0" />
    </g>
    <path
       transform="matrix(0.88586957,0,0,0.88586957,-24.010886,495.98978)"
       d="m 582.65601,342.29437 c 0,143.71295 -116.50236,260.2153 -260.21531,260.2153 -143.71294,0 -260.215297,-116.50235 -260.215297,-260.2153 0,-143.71294 116.502357,-260.215299 260.215297,-260.215299 143.71295,0 260.21531,116.502359 260.21531,260.215299 z"
       sodipodi:ry="260.2153"
       sodipodi:rx="260.2153"
       sodipodi:cy="342.29437"
       sodipodi:cx="322.4407"
       id="path3993"
       style="fill:url(#linearGradient4001);fill-rule:evenodd;stroke:none;fill-opacity:1"
       sodipodi:type="arc" />
    <path
       inkscape:connector-curvature="0"
       id="path3015"
       d="m 308.92922,682.70527 c -2.94732,0.0553 -5.58278,2.77473 -5.54572,5.72234 l 0,52.94926 c -1.31203,-0.51488 -2.70365,-1.11996 -4.20344,-1.80148 -5.24047,-2.38131 -10.70834,-5.07838 -11.69193,-6.78202 -2.317,-4.01317 -2.97537,-9.11017 -2.08406,-18.26202 0.8913,-9.15186 2.68455,-16.81378 2.68455,-16.81378 0.41403,-1.64756 0.0464,-3.49251 -0.98905,-4.83926 -1.03543,-1.34675 -2.71675,-2.16677 -4.41538,-2.19003 -2.58687,-0.0426 -5.06673,1.92254 -5.61637,4.45071 0,0 -1.92282,8.29985 -2.89649,18.29734 -0.97366,9.99749 -1.61054,21.6821 3.53231,30.58977 3.80945,6.59816 10.76447,9.87752 16.77845,12.61033 3.12713,1.42099 5.82878,2.44317 7.91237,3.17907 l -7.17058,144.43599 c -0.0423,2.98585 1.18849,5.96257 3.28504,8.08898 2.09655,2.1264 8.24657,3.39101 11.23273,3.39101 2.98616,0 9.13618,-1.26461 11.23274,-3.39101 2.09655,-2.12641 3.32727,-5.10313 3.28504,-8.08898 l -6.4288,-145.24842 c 1.7088,-0.6518 3.60224,-1.40325 5.72234,-2.36664 6.01398,-2.73281 13.00432,-6.01217 16.81377,-12.61033 5.14285,-8.90767 4.50597,-20.59228 3.53231,-30.58977 -0.97366,-9.99749 -2.93181,-18.29734 -2.93181,-18.29734 -0.57418,-2.57504 -3.15786,-4.54431 -5.79299,-4.41539 -1.6612,0.0769 -3.27844,0.92868 -4.27409,2.26068 -0.99563,1.332 -1.35025,3.11827 -0.95372,4.73329 0,0 1.79325,7.66192 2.68455,16.81378 0.89131,9.15185 0.26827,14.24885 -2.04873,18.26202 -0.9836,1.70364 -6.48679,4.40071 -11.72726,6.78202 -1.48705,0.67573 -2.86485,1.28948 -4.16812,1.80148 l 0,-52.94926 c 0.038,-3.01825 -2.7397,-5.77887 -5.75766,-5.72234 z m -105.47465,20.59334 c -13.68415,0 -24.76146,11.07731 -24.76146,24.76147 0,13.68415 11.07731,24.79678 24.76146,24.79678 13.68416,0 24.76147,-11.11263 24.76147,-24.79678 0,-13.68416 -11.07731,-24.76147 -24.76147,-24.76147 z m 0,71.10532 c -13.68415,0 -24.76146,11.11263 -24.76146,24.79678 0,13.68416 11.07731,24.76147 24.76146,24.76147 13.68416,0 24.76147,-11.07731 24.76147,-24.76147 0,-13.68415 -11.07731,-24.79678 -24.76147,-24.79678 z m 0,71.14064 c -13.68415,0 -24.76146,11.11263 -24.76146,24.79678 0,13.68415 11.07731,24.76146 24.76146,24.76146 13.68416,0 24.76147,-11.07731 24.76147,-24.76146 0,-13.68415 -11.07731,-24.79678 -24.76147,-24.79678 z"
       style="font-size:medium;font-style:normal;font-variant:normal;font-weight:normal;font-stretch:normal;text-indent:0;text-align:start;text-decoration:none;line-height:normal;letter-spacing:normal;word-spacing:normal;text-transform:none;direction:ltr;block-progression:tb;writing-mode:lr-tb;text-anchor:start;baseline-shift:baseline;color:#000000;fill:#ffffe4;fill-opacity:1;stroke:none;stroke-width:20;marker:none;visibility:visible;display:inline;overflow:visible;enable-background:accumulate;font-family:Sans;-inkscape-font-specification:Sans" />
  </g>
</svg>
