<?xml version="1.0" encoding="UTF-8" standalone="no"?>
<!-- Created with Inkscape (http://www.inkscape.org/) -->

<svg
   xmlns:dc="http://purl.org/dc/elements/1.1/"
   xmlns:cc="http://creativecommons.org/ns#"
   xmlns:rdf="http://www.w3.org/1999/02/22-rdf-syntax-ns#"
   xmlns:svg="http://www.w3.org/2000/svg"
   xmlns="http://www.w3.org/2000/svg"
   xmlns:xlink="http://www.w3.org/1999/xlink"
   xmlns:sodipodi="http://sodipodi.sourceforge.net/DTD/sodipodi-0.dtd"
   xmlns:inkscape="http://www.inkscape.org/namespaces/inkscape"
   sodipodi:docname="unity.svg"
   inkscape:version="0.91 r13725"
   version="1.1"
   id="svg2"
   viewBox="0 0 512 512"
   height="512"
   width="512"
   inkscape:export-filename="/home/cecilia/corebird-new.png"
   inkscape:export-xdpi="50"
   inkscape:export-ydpi="50">
  <sodipodi:namedview
     inkscape:window-maximized="1"
     inkscape:window-y="25"
     inkscape:window-x="0"
     inkscape:window-height="721"
     inkscape:window-width="1360"
     units="px"
     showgrid="false"
     inkscape:current-layer="layer1"
     inkscape:document-units="px"
     inkscape:cy="134.2227"
     inkscape:cx="265.53711"
     inkscape:zoom="0.76330954"
     inkscape:pageshadow="2"
     inkscape:pageopacity="0.0"
     borderopacity="1.0"
     bordercolor="#666666"
     pagecolor="#ffffff"
     id="base"
     showguides="false" />
  <defs
     id="defs4">
    <linearGradient
       inkscape:collect="always"
       id="linearGradient4274">
      <stop
         style="stop-color:#000000;stop-opacity:1;"
         offset="0"
         id="stop4276" />
      <stop
         style="stop-color:#000000;stop-opacity:0;"
         offset="1"
         id="stop4278" />
    </linearGradient>
    <linearGradient
       inkscape:collect="always"
       id="linearGradient4258">
      <stop
         style="stop-color:#000000;stop-opacity:1;"
         offset="0"
         id="stop4260" />
      <stop
         style="stop-color:#000000;stop-opacity:0;"
         offset="1"
         id="stop4262" />
    </linearGradient>
    <linearGradient
       inkscape:collect="always"
       id="linearGradient4250">
      <stop
         style="stop-color:#000000;stop-opacity:1;"
         offset="0"
         id="stop4252" />
      <stop
         style="stop-color:#000000;stop-opacity:0;"
         offset="1"
         id="stop4254" />
    </linearGradient>
    <linearGradient
       inkscape:collect="always"
       xlink:href="#linearGradient4250"
       id="linearGradient4256"
       x1="18.369139"
       y1="719.3974"
       x2="362.48251"
       y2="920.41962"
       gradientUnits="userSpaceOnUse" />
    <linearGradient
       inkscape:collect="always"
       xlink:href="#linearGradient4258"
       id="linearGradient4264"
       x1="84.269623"
       y1="623.16235"
       x2="456.78806"
       y2="827.89008"
       gradientUnits="userSpaceOnUse" />
    <linearGradient
       inkscape:collect="always"
       xlink:href="#linearGradient4274"
       id="linearGradient4280"
       x1="-91.207863"
       y1="627.091"
       x2="260.16299"
       y2="805.88031"
       gradientUnits="userSpaceOnUse" />
    <clipPath
       clipPathUnits="userSpaceOnUse"
       id="clipPath4314">
      <circle
         style="opacity:1;fill:#433e6e;fill-opacity:1;stroke:none;stroke-width:25;stroke-linecap:round;stroke-linejoin:round;stroke-miterlimit:4;stroke-dasharray:none;stroke-dashoffset:0;stroke-opacity:1"
         id="circle4316"
         cx="254.15642"
         cy="800.82593"
         r="233.19504" />
    </clipPath>
  </defs>
  <metadata
     id="metadata7">
    <rdf:RDF>
      <cc:Work
         rdf:about="">
        <dc:format>image/svg+xml</dc:format>
        <dc:type
           rdf:resource="http://purl.org/dc/dcmitype/StillImage" />
        <dc:title></dc:title>
      </cc:Work>
    </rdf:RDF>
  </metadata>
  <g
     inkscape:label="Capa 1"
     inkscape:groupmode="layer"
     id="layer1"
     transform="translate(0,-540.36216)">
    <circle
       r="233.19504"
       cy="800.82593"
       cx="254.15642"
       id="path4193"
       style="opacity:1;fill:#813886;fill-opacity:1;stroke:none;stroke-width:25;stroke-linecap:round;stroke-linejoin:round;stroke-miterlimit:4;stroke-dasharray:none;stroke-dashoffset:0;stroke-opacity:1" />
    <path
       inkscape:connector-curvature="0"
       id="path4240"
       d="M 243.58943,828.6627 132.97358,764.79861 169.0009,696.01917 279.61675,759.88326 Z"
       style="fill:url(#linearGradient4280);fill-rule:evenodd;stroke:none;stroke-width:1px;stroke-linecap:butt;stroke-linejoin:miter;stroke-opacity:1;fill-opacity:1;opacity:0.774"
       sodipodi:nodetypes="ccccc" />
    <circle
       r="37.992451"
       cy="732.43018"
       cx="153.47174"
       id="path4195"
       style="opacity:1;fill:#ffffff;fill-opacity:1;stroke:none;stroke-width:25;stroke-linecap:round;stroke-linejoin:round;stroke-miterlimit:4;stroke-dasharray:none;stroke-dashoffset:0;stroke-opacity:1" />
    <path
       style="fill:url(#linearGradient4256);fill-rule:evenodd;stroke:none;stroke-width:1px;stroke-linecap:butt;stroke-linejoin:miter;stroke-opacity:1;fill-opacity:1;opacity:0.774"
       d="m 346.43106,951.1556 -110.61585,-63.86409 36.68237,-66.15927 110.61585,63.86409 z"
       id="path4242"
       inkscape:connector-curvature="0"
       sodipodi:nodetypes="ccccc" />
    <circle
       style="opacity:1;fill:#ffffff;fill-opacity:1;stroke:none;stroke-width:25;stroke-linecap:round;stroke-linejoin:round;stroke-miterlimit:4;stroke-dasharray:none;stroke-dashoffset:0;stroke-opacity:1"
       id="circle4197"
       cx="253.50134"
       cy="854.34753"
       r="37.992451" />
    <path
       inkscape:connector-curvature="0"
       id="path4248"
       d="M 367.4787,726.15111 478.09455,790.0152 439.44706,855.51943 328.83121,791.65534 Z"
       style="fill:url(#linearGradient4264);fill-rule:evenodd;stroke:none;stroke-width:1px;stroke-linecap:butt;stroke-linejoin:miter;stroke-opacity:1;fill-opacity:1;opacity:0.774"
       sodipodi:nodetypes="ccccc" />
    <circle
       r="37.992451"
       cy="761.71521"
       cx="351.83716"
       id="circle4199"
       style="opacity:1;fill:#ffffff;fill-opacity:1;stroke:none;stroke-width:25;stroke-linecap:round;stroke-linejoin:round;stroke-miterlimit:4;stroke-dasharray:none;stroke-dashoffset:0;stroke-opacity:1" />
    <path
       inkscape:connector-curvature="0"
       id="rect4201"
       d="m 155.90056,663.26733 c -3.62893,0 -6.55078,5.8437 -6.55078,13.10157 l 0,248.91601 c 0,7.25787 2.92185,13.09961 6.55078,13.09961 3.62893,0 6.55078,-5.84174 6.55078,-13.09961 l 0,-248.91601 c 0,-7.25787 -2.92185,-13.10157 -6.55078,-13.10157 z m 98.25586,0 c -3.62893,0 -6.55078,5.8437 -6.55078,13.10157 l 0,248.91601 c 0,7.25787 2.92185,13.09961 6.55078,13.09961 3.62893,0 6.55078,-5.84174 6.55078,-13.09961 l 0,-248.91601 c 0,-7.25787 -2.92185,-13.10157 -6.55078,-13.10157 z m 98.25586,0 c -3.62893,0 -6.54883,5.8437 -6.54883,13.10157 l 0,248.91601 c 0,7.25787 2.9199,13.09961 6.54883,13.09961 3.62893,0 6.55078,-5.84174 6.55078,-13.09961 l 0,-248.91601 c 0,-7.25787 -2.92185,-13.10157 -6.55078,-13.10157 z"
       style="opacity:1;fill:#ffffff;fill-opacity:0.60869565;stroke:none;stroke-width:25;stroke-linecap:round;stroke-linejoin:round;stroke-miterlimit:4;stroke-dasharray:none;stroke-dashoffset:0;stroke-opacity:1" />
    <path
       id="path4310"
       d="m 338.79882,868.12332 7.70061,38.26339 a 86.708151,86.708151 0 0 0 -15.39316,49.28671 86.708151,86.708151 0 0 0 86.70834,86.70628 86.708151,86.708151 0 0 0 86.70836,-86.70628 86.708151,86.708151 0 0 0 -86.70836,-86.70836 86.708151,86.708151 0 0 0 -42.73393,11.38578 l -36.28186,-12.22752 z"
       style="opacity:1;fill:#000000;fill-opacity:0.0887574;stroke:none;stroke-width:25;stroke-linecap:round;stroke-linejoin:round;stroke-miterlimit:4;stroke-dasharray:none;stroke-dashoffset:0;stroke-opacity:1"
       inkscape:connector-curvature="0"
       clip-path="url(#clipPath4314)" />
    <path
       style="opacity:1;fill:#1c9bd2;fill-opacity:1;stroke:none;stroke-width:25;stroke-linecap:round;stroke-linejoin:round;stroke-miterlimit:4;stroke-dasharray:none;stroke-dashoffset:0;stroke-opacity:1"
       d="M 342.47852 331.69141 L 349.94727 368.80273 A 84.097458 84.097458 0 0 0 335.01758 416.60547 A 84.097458 84.097458 0 0 0 419.11523 500.70117 A 84.097458 84.097458 0 0 0 503.21289 416.60547 A 84.097458 84.097458 0 0 0 419.11523 332.50781 A 84.097458 84.097458 0 0 0 377.66797 343.55078 L 342.47852 331.69141 z "
       transform="translate(0,540.36216)"
       id="path4300" />
    <path
       style="color:#000000;font-style:normal;font-variant:normal;font-weight:normal;font-stretch:normal;font-size:medium;line-height:normal;font-family:sans-serif;text-indent:0;text-align:start;text-decoration:none;text-decoration-line:none;text-decoration-style:solid;text-decoration-color:#000000;letter-spacing:normal;word-spacing:normal;text-transform:none;direction:ltr;block-progression:tb;writing-mode:lr-tb;baseline-shift:baseline;text-anchor:start;white-space:normal;clip-rule:nonzero;display:inline;overflow:visible;visibility:visible;opacity:1;isolation:auto;mix-blend-mode:normal;color-interpolation:sRGB;color-interpolation-filters:linearRGB;solid-color:#000000;solid-opacity:1;fill:#ffffff;fill-opacity:1;fill-rule:evenodd;stroke:none;stroke-width:3.79999995;stroke-linecap:butt;stroke-linejoin:round;stroke-miterlimit:4;stroke-dasharray:none;stroke-dashoffset:0;stroke-opacity:1;color-rendering:auto;image-rendering:auto;shape-rendering:auto;text-rendering:auto;enable-background:accumulate"
       d="m 381.68178,916.64083 c -0.60165,-2e-4 -1.09184,0.483 -1.10043,1.0846 -0.18727,13.9024 -0.83108,29.0958 -0.31215,43.2155 0.42174,11.4752 0.65265,22.2209 5.35063,30.6991 6.11131,11.02897 18.07518,18.12457 37.87736,16.97377 l 0.001,0 c 5.65063,-0.336 11.27232,-1.1157 17.25749,-1.9917 0.007,0 0.0136,0 0.0204,-0.01 4.25414,-0.7045 8.93249,-1.6155 14.11565,-2.7154 0.50805,-0.1084 0.87112,-0.5573 0.87085,-1.0767 l 0,-84.91227 c 6e-5,-0.6074 -0.49197,-1.0999 -1.0993,-1.1005 l -18.6305,0 c -0.60955,0 -1.103,0.4955 -1.10043,1.105 l 0.31893,71.241 c -4.43014,0.9275 -9.56347,1.8686 -14.57595,1.6908 -0.0249,-6e-4 -0.0498,-6e-4 -0.0747,0 -8.15061,0.265 -12.42427,-2.4028 -15.03966,-7.0346 -2.61341,-4.6283 -3.40735,-11.4408 -3.69149,-19.1881 l -0.32346,-46.8946 c -0.004,-0.6047 -0.49573,-1.0926 -1.10043,-1.0925 l -18.76395,0 z"
       id="path4138"
       inkscape:connector-curvature="0"
       sodipodi:nodetypes="ccsscccccccccccccsccccc" />
  </g>
</svg>
