<?xml version="1.0" encoding="UTF-8" standalone="no"?>
<!-- Created with Inkscape (http://www.inkscape.org/) -->

<svg
   xmlns:dc="http://purl.org/dc/elements/1.1/"
   xmlns:cc="http://creativecommons.org/ns#"
   xmlns:rdf="http://www.w3.org/1999/02/22-rdf-syntax-ns#"
   xmlns:svg="http://www.w3.org/2000/svg"
   xmlns="http://www.w3.org/2000/svg"
   xmlns:xlink="http://www.w3.org/1999/xlink"
   xmlns:sodipodi="http://sodipodi.sourceforge.net/DTD/sodipodi-0.dtd"
   xmlns:inkscape="http://www.inkscape.org/namespaces/inkscape"
   width="500"
   height="500"
   viewBox="0 0 500.00001 500.00001"
   id="svg2"
   version="1.1"
   inkscape:version="0.48.4 r9939"
   inkscape:export-filename="/home/silerio/Imágenes/iconos/unreal.png"
   inkscape:export-xdpi="60"
   inkscape:export-ydpi="60"
   sodipodi:docname="unrealengine.svg">
  <sodipodi:namedview
     id="base"
     pagecolor="#ffffff"
     bordercolor="#666666"
     borderopacity="1.0"
     inkscape:pageopacity="0.0"
     inkscape:pageshadow="2"
     inkscape:zoom="0.70790804"
     inkscape:cx="254.76288"
     inkscape:cy="77.65495"
     inkscape:document-units="px"
     inkscape:current-layer="layer1"
     showgrid="false"
     showguides="false"
     units="px"
     inkscape:window-width="1360"
     inkscape:window-height="721"
     inkscape:window-x="0"
     inkscape:window-y="25"
     inkscape:window-maximized="1" />
  <defs
     id="defs4">
    <linearGradient
       inkscape:collect="always"
       id="linearGradient3872">
      <stop
         style="stop-color:#389ce0;stop-opacity:1;"
         offset="0"
         id="stop3874" />
      <stop
         style="stop-color:#389ce0;stop-opacity:0;"
         offset="1"
         id="stop3876" />
    </linearGradient>
    <clipPath
       clipPathUnits="userSpaceOnUse"
       id="clipPath3858">
      <circle
         style="fill:#389ce0;fill-opacity:1;stroke:none"
         id="circle3860"
         cx="250.85796"
         cy="814.20593"
         r="213.04414"
         d="m 463.9021,814.20593 c 0,117.66103 -95.38311,213.04417 -213.04414,213.04417 -117.66104,0 -213.044148,-95.38314 -213.044148,-213.04417 0,-117.66103 95.383108,-213.04414 213.044148,-213.04414 117.66103,0 213.04414,95.38311 213.04414,213.04414 z"
         sodipodi:cx="250.85796"
         sodipodi:cy="814.20593"
         sodipodi:rx="213.04414"
         sodipodi:ry="213.04414" />
    </clipPath>
    <linearGradient
       inkscape:collect="always"
       xlink:href="#linearGradient3872"
       id="linearGradient3878"
       x1="423.45712"
       y1="975.24377"
       x2="194.09303"
       y2="756.28882"
       gradientUnits="userSpaceOnUse" />
  </defs>
  <metadata
     id="metadata7">
    <rdf:RDF>
      <cc:Work
         rdf:about="">
        <dc:format>image/svg+xml</dc:format>
        <dc:type
           rdf:resource="http://purl.org/dc/dcmitype/StillImage" />
        <dc:title></dc:title>
      </cc:Work>
    </rdf:RDF>
  </metadata>
  <g
     transform="translate(0,-552.36216)"
     id="layer1"
     inkscape:groupmode="layer"
     inkscape:label="Capa 1">
    <circle
       d="m 463.9021,814.20593 c 0,117.66103 -95.38311,213.04417 -213.04414,213.04417 -117.66104,0 -213.044148,-95.38314 -213.044148,-213.04417 0,-117.66103 95.383108,-213.04414 213.044148,-213.04414 117.66103,0 213.04414,95.38311 213.04414,213.04414 z"
       r="213.04414"
       cy="814.20593"
       cx="250.85796"
       id="path3414"
       style="opacity:1;fill:#389ce0;fill-opacity:1;stroke:none;stroke-width:11.30000019000000044;stroke-miterlimit:4;stroke-dasharray:none;stroke-opacity:1" />
    <path
       inkscape:connector-curvature="0"
       id="path4250"
       d=""
       style="opacity:1;fill:#008080;fill-opacity:1;stroke:none;stroke-width:11.30000019;stroke-miterlimit:4;stroke-dasharray:none;stroke-opacity:1" />
    <path
       inkscape:connector-curvature="0"
       id="path4286"
       d="m 330.12493,786.79824 c 2e-5,-3.61916 0.008,-5.08986 0.0181,-3.26825 0.009,1.82162 0.009,4.78274 0,6.58028 -0.009,1.79752 -0.0181,0.30712 -0.0181,-3.31203 z"
       style="opacity:1;fill:#008080;fill-opacity:1;stroke:none;stroke-width:11.30000019;stroke-miterlimit:4;stroke-dasharray:none;stroke-opacity:1" />
    <g
       id="g3766"
       clip-path="url(#clipPath3858)"
       style="opacity:0.27391304">
      <g
         id="g3768"
         style="fill:#000000;fill-opacity:1;fill-rule:evenodd;stroke:none">
        <path
           id="path3770"
           d="M328.79142 745.57269L328.79142 874.25826L1035.89820119 1581.36504119L1035.89820119 1452.67947119Z" />
        <path
           id="path3772"
           d="M328.79142 874.25826C328.79142 874.25826 339.45589 882.78564 345.90145 884.13674L1053.00823119 1591.24352119C1046.56267119 1589.89242119 1035.89820119 1581.36504119 1035.89820119 1581.36504119Z" />
        <path
           id="path3774"
           d="M345.90145 884.13674C359.44552 886.97581 387.16426 879.56489 387.16426 879.56489L1094.27104119 1586.67167119C1094.27104119 1586.67167119 1066.55230119 1594.08259119 1053.00823119 1591.24352119Z" />
        <path
           id="path3776"
           d="M387.16426 879.56489L315.52486 931.30445L1022.63164119 1638.41123119L1094.27104119 1586.67167119Z" />
        <path
           id="path3778"
           d="M315.52486 931.30445L275.7252 903.44469L982.831981187 1610.55147119L1022.63164119 1638.41123119Z" />
        <path
           id="path3780"
           d="M275.7252 903.44469C275.7252 903.44469 252.94765 936.23359 235.26221 938.33904L942.368991187 1645.44582119C960.054431187 1643.34037119 982.831981187 1610.55147119 982.831981187 1610.55147119Z" />
        <path
           id="path3782"
           d="M235.26221 938.33904C202.63795 942.22297 147.59431 893.2926 147.59431 893.2926L854.701091187 1600.39938119C854.701091187 1600.39938119 909.744731187 1649.32975119 942.368991187 1645.44582119Z" />
        <path
           id="path3784"
           d="M147.59431 893.2926C147.59431 893.2926 147.59431 893.2926 147.59431 893.2926L854.701091187 1600.39938119C854.701091187 1600.39938119 854.701091187 1600.39938119 854.701091187 1600.39938119Z" />
        <path
           id="path3786"
           d="M147.59431 893.2926L170.91942 880.89154L878.026201187 1587.99832119L854.701091187 1600.39938119Z" />
        <path
           id="path3788"
           d="M170.91942 880.89154L170.91942 762.8192L878.026201187 1469.92598119L878.026201187 1587.99832119Z" />
        <path
           id="path3790"
           d="M170.91942 762.8192C170.91942 762.8192 168.81847374 760.31078876 165.643594007 757.135909027L872.750375194 1464.24269021C875.925254927 1467.41756995 878.026201187 1469.92598119 878.026201187 1469.92598119Z" />
        <path
           id="path3792"
           d="M165.643594007 757.135909027C160.389624175 751.881939194 152.194634384 744.802812416 145.71295 744.24604L852.819731187 1451.35282119C859.301415571 1451.9095936 867.496405361 1458.98872038 872.750375194 1464.24269021Z" />
        <path
           id="path3794"
           d="M145.71295 744.24604C136.84613 743.48438 128.66574 750.48362 121.83316 756.18593L828.939941187 1463.29271119C835.772521187 1457.59040119 843.952911187 1450.59116119 852.819731187 1451.35282119Z" />
        <path
           id="path3796"
           d="M121.83316 756.18593C108.2526 767.51995 89.993432 798.63891 89.993432 798.63891L797.100213187 1505.74569119C797.100213187 1505.74569119 815.359381187 1474.62673119 828.939941187 1463.29271119Z" />
        <path
           id="path3798"
           d="M89.993432 798.63891C89.993432 798.63891 104.9838 746.7971 123.15982 728.32616L830.266601187 1435.43294119C812.090581187 1453.90388119 797.100213187 1505.74569119 797.100213187 1505.74569119Z" />
        <path
           id="path3800"
           d="M123.15982 728.32616C143.55095 707.60418 201.4325 689.85315 201.4325 689.85315L908.539281187 1396.95993119C908.539281187 1396.95993119 850.657731187 1414.71096119 830.266601187 1435.43294119Z" />
        <path
           id="path3802"
           d="M201.4325 689.85315C202.101647889 702.789482808 198.890208302 725.569895546 210.282288946 736.96197619L917.389070133 1444.06875738C905.996989488 1432.67667673 909.208429076 1409.896264 908.539281187 1396.95993119Z" />
        <path
           id="path3804"
           d="M210.282288946 736.96197619C213.029780271 739.709467515 216.626694789 741.794549143 221.33233 742.91937L928.439111187 1450.02615119C923.733475976 1448.90133033 920.136561458 1446.8162487 917.389070133 1444.06875738Z" />
        <path
           id="path3806"
           d="M221.33233 742.91937L221.33233 867.62498L928.439111187 1574.73176119L928.439111187 1450.02615119Z" />
        <path
           id="path3808"
           d="M221.33233 867.62498C221.33233 867.62498 221.369296274 879.86329266 225.526709625 884.02070601L932.633490811 1591.1274872C928.476077461 1586.97007385 928.439111187 1574.73176119 928.439111187 1574.73176119Z" />
        <path
           id="path3810"
           d="M225.526709625 884.02070601C225.868796858 884.362793243 226.238782 884.650167919 226.63894 884.87151L933.745721187 1591.97829119C933.345563187 1591.75694911 932.975578044 1591.46957443 932.633490811 1591.1274872Z" />
        <path
           id="path3812"
           d="M226.63894 884.87151C239.94837 892.23346 270.71366 873.06172 270.71366 873.06172L977.820441187 1580.16850119C977.820441187 1580.16850119 947.055151187 1599.34024119 933.745721187 1591.97829119Z" />
        <path
           id="path3814"
           d="M270.71366 873.06172L270.71366 744.24604L977.820441187 1451.35282119L977.820441187 1580.16850119Z" />
        <path
           id="path3816"
           d="M270.71366 744.24604L262.45865 734.95944L969.565431187 1442.06622119L977.820441187 1451.35282119Z" />
        <path
           id="path3818"
           d="M262.45865 734.95944C294.28053 740.07663 327.55403 717.41059 353.99787 700.4664L1061.10465119 1407.57318119C1034.66081119 1424.51737119 1001.38731119 1447.18341119 969.565431187 1442.06622119Z" />
      </g>
      <path
         style="fill:#000000;fill-opacity:1;fill-rule:evenodd;stroke:none"
         d="m 328.79142,745.57269 0,128.68557 c 0,0 10.66447,8.52738 17.11003,9.87848 13.54407,2.83907 41.26281,-4.57185 41.26281,-4.57185 l -71.6394,51.73956 -39.79966,-27.85976 c 0,0 -22.77755,32.7889 -40.46299,34.89435 -32.62426,3.88393 -87.6679,-45.04644 -87.6679,-45.04644 l 23.32511,-12.40106 0,-118.07234 c 0,0 -14.80802,-17.67994 -25.20647,-18.57316 -8.86682,-0.76166 -17.04721,6.23758 -23.87979,11.93989 -13.58056,11.33402 -31.839728,42.45298 -31.839728,42.45298 0,0 14.990368,-51.84181 33.166388,-70.31275 20.39113,-20.72198 78.27268,-38.47301 78.27268,-38.47301 0.83053,16.05626 -4.31705,47.27749 19.89983,53.06622 l 0,124.70561 c 0,0 0.0433,14.3352 5.30661,17.24653 13.30943,7.36195 44.07472,-11.80979 44.07472,-11.80979 l 0,-128.81568 -8.25501,-9.2866 c 31.82188,5.11719 65.09538,-17.54885 91.53922,-34.49304 z"
         id="path3755"
         inkscape:connector-curvature="0"
         sodipodi:nodetypes="ccacccacccaacacccaccccc" />
    </g>
    <circle
       style="opacity:1;fill:url(#linearGradient3878);fill-opacity:1;stroke:none;stroke-width:11.30000019000000044;stroke-miterlimit:4;stroke-dasharray:none;stroke-opacity:1"
       id="circle3862"
       cx="250.85796"
       cy="814.20593"
       r="213.04414"
       d="m 463.9021,814.20593 c 0,117.66103 -95.38311,213.04417 -213.04414,213.04417 -117.66104,0 -213.044148,-95.38314 -213.044148,-213.04417 0,-117.66103 95.383108,-213.04414 213.044148,-213.04414 117.66103,0 213.04414,95.38311 213.04414,213.04414 z"
       inkscape:export-xdpi="60"
       inkscape:export-ydpi="60" />
    <path
       sodipodi:nodetypes="ccacccacccaacacccaccccc"
       inkscape:connector-curvature="0"
       id="path4294"
       d="m 328.79142,745.57269 0,128.68557 c 0,0 10.66447,8.52738 17.11003,9.87848 13.54407,2.83907 41.26281,-4.57185 41.26281,-4.57185 l -71.6394,51.73956 -39.79966,-27.85976 c 0,0 -22.77755,32.7889 -40.46299,34.89435 -32.62426,3.88393 -87.6679,-45.04644 -87.6679,-45.04644 l 23.32511,-12.40106 0,-118.07234 c 0,0 -14.80802,-17.67994 -25.20647,-18.57316 -8.86682,-0.76166 -17.04721,6.23758 -23.87979,11.93989 -13.58056,11.33402 -31.839728,42.45298 -31.839728,42.45298 0,0 14.990368,-51.84181 33.166388,-70.31275 20.39113,-20.72198 78.27268,-38.47301 78.27268,-38.47301 0.83053,16.05626 -4.31705,47.27749 19.89983,53.06622 l 0,124.70561 c 0,0 0.0433,14.3352 5.30661,17.24653 13.30943,7.36195 44.07472,-11.80979 44.07472,-11.80979 l 0,-128.81568 -8.25501,-9.2866 c 31.82188,5.11719 65.09538,-17.54885 91.53922,-34.49304 z"
       style="fill:#fffff0;fill-opacity:1;fill-rule:evenodd;stroke:none" />
  </g>
</svg>
