<?xml version="1.0" encoding="UTF-8" standalone="no"?>
<!-- Created with Inkscape (http://www.inkscape.org/) -->

<svg
   xmlns:dc="http://purl.org/dc/elements/1.1/"
   xmlns:cc="http://creativecommons.org/ns#"
   xmlns:rdf="http://www.w3.org/1999/02/22-rdf-syntax-ns#"
   xmlns:svg="http://www.w3.org/2000/svg"
   xmlns="http://www.w3.org/2000/svg"
   xmlns:xlink="http://www.w3.org/1999/xlink"
   xmlns:sodipodi="http://sodipodi.sourceforge.net/DTD/sodipodi-0.dtd"
   xmlns:inkscape="http://www.inkscape.org/namespaces/inkscape"
   width="512"
   height="512"
   id="svg2"
   version="1.1"
   inkscape:version="0.92.2 (5c3e80d, 2017-08-06)"
   sodipodi:docname="update-manager.svg">
  <defs
     id="defs4">
    <linearGradient
       inkscape:collect="always"
       id="linearGradient854">
      <stop
         style="stop-color:#000000;stop-opacity:1;"
         offset="0"
         id="stop850" />
      <stop
         style="stop-color:#000000;stop-opacity:0;"
         offset="1"
         id="stop852" />
    </linearGradient>
    <linearGradient
       inkscape:collect="always"
       id="linearGradient846">
      <stop
         style="stop-color:#000000;stop-opacity:0.54814815"
         offset="0"
         id="stop842" />
      <stop
         style="stop-color:#000000;stop-opacity:0;"
         offset="1"
         id="stop844" />
    </linearGradient>
    <linearGradient
       inkscape:collect="always"
       id="linearGradient828">
      <stop
         style="stop-color:#000000;stop-opacity:0.45925926"
         offset="0"
         id="stop824" />
      <stop
         style="stop-color:#000000;stop-opacity:0;"
         offset="1"
         id="stop826" />
    </linearGradient>
    <linearGradient
       inkscape:collect="always"
       xlink:href="#linearGradient828"
       id="linearGradient830"
       x1="148.66666"
       y1="683.37988"
       x2="315.92081"
       y2="850.96417"
       gradientUnits="userSpaceOnUse" />
    <linearGradient
       inkscape:collect="always"
       xlink:href="#linearGradient846"
       id="linearGradient848"
       x1="196.57568"
       y1="875.05524"
       x2="457.14453"
       y2="918.18872"
       gradientUnits="userSpaceOnUse" />
    <linearGradient
       inkscape:collect="always"
       xlink:href="#linearGradient854"
       id="linearGradient856"
       x1="116.03369"
       y1="649.97626"
       x2="354.96759"
       y2="1051.6129"
       gradientUnits="userSpaceOnUse" />
    <clipPath
       clipPathUnits="userSpaceOnUse"
       id="clipPath866">
      <circle
         style="fill:#ff6600"
         r="225"
         cy="825.36218"
         cx="253"
         id="circle868" />
    </clipPath>
    <clipPath
       clipPathUnits="userSpaceOnUse"
       id="clipPath872">
      <circle
         style="fill:#ff6600"
         r="225"
         cy="825.36218"
         cx="253"
         id="circle874" />
    </clipPath>
  </defs>
  <sodipodi:namedview
     id="base"
     pagecolor="#ffffff"
     bordercolor="#666666"
     borderopacity="1.0"
     inkscape:pageopacity="0.0"
     inkscape:pageshadow="2"
     inkscape:zoom="0.5"
     inkscape:cx="337.86566"
     inkscape:cy="154.90267"
     inkscape:document-units="px"
     inkscape:current-layer="layer1"
     showgrid="false"
     inkscape:window-width="1360"
     inkscape:window-height="718"
     inkscape:window-x="0"
     inkscape:window-y="24"
     inkscape:window-maximized="1" />
  <metadata
     id="metadata7">
    <rdf:RDF>
      <cc:Work
         rdf:about="">
        <dc:format>image/svg+xml</dc:format>
        <dc:type
           rdf:resource="http://purl.org/dc/dcmitype/StillImage" />
        <dc:title />
      </cc:Work>
    </rdf:RDF>
  </metadata>
  <g
     inkscape:label="Capa 1"
     inkscape:groupmode="layer"
     id="layer1"
     transform="translate(0,-540.36218)">
    <circle
       id="path15"
       cx="253"
       cy="825.36218"
       r="225"
       style="fill:#6fb743;fill-opacity:1" />
    <path
       style="fill:url(#linearGradient830);stroke:none;stroke-width:1px;stroke-linecap:butt;stroke-linejoin:miter;stroke-opacity:1;fill-opacity:1"
       d="m 199.57835,778.68878 99.27292,99.27292 72.93098,-56.44876 -53.5842,-73.20668 -78.48885,-20.50609 z"
       id="path17"
       inkscape:connector-curvature="0" />
    <path
       style="fill:url(#linearGradient848);stroke:none;stroke-width:1px;stroke-linecap:butt;stroke-linejoin:miter;stroke-opacity:1;fill-opacity:1"
       d="M 457.14454,1031.5025 347.18943,921.54743 327.39044,731.3357 506.64201,910.58727"
       id="path838"
       inkscape:connector-curvature="0"
       sodipodi:nodetypes="cccc"
       clip-path="url(#clipPath866)" />
    <path
       style="color:#000000;font-style:normal;font-variant:normal;font-weight:normal;font-stretch:normal;font-size:medium;line-height:normal;font-family:Sans;-inkscape-font-specification:Sans;text-indent:0;text-align:start;text-decoration:none;text-decoration-line:none;letter-spacing:normal;word-spacing:normal;text-transform:none;writing-mode:lr-tb;direction:ltr;baseline-shift:baseline;text-anchor:start;display:inline;overflow:visible;visibility:visible;fill:#ffffff;fill-opacity:1;stroke:none;stroke-width:68.82440186;marker:none;enable-background:accumulate"
       d="m 255.14145,706.40176 c -31.03351,0 -59.34239,12.27916 -80.30732,32.21814 l 24.74422,40.06888 c 12.96622,-16.2341 32.96065,-26.55742 55.5631,-26.55742 38.98554,0 70.1867,30.72013 70.97168,69.50245 h -34.77164 c -1.62974,2.1e-4 -3.22545,0.86381 -4.04036,2.18344 -0.81442,1.31962 -0.81462,3.04707 0,4.36686 l 56.8304,92.03056 c 0.7727,1.25303 2.25078,2.10546 3.79549,2.18343 1.71134,0.0853 3.44957,-0.79532 4.30565,-2.18343 l 56.80999,-92.03056 c 0.81453,-1.31979 0.81491,-3.04724 0,-4.36686 -0.8149,-1.31963 -2.41062,-2.18322 -4.04036,-2.18344 H 371.82232 C 371.01598,758.12488 318.83245,706.40176 255.14145,706.40176 Z"
       id="path2985"
       inkscape:connector-curvature="0"
       sodipodi:nodetypes="sccsccccccccsccs" />
    <path
       style="opacity:0.35899999;fill:url(#linearGradient856);fill-opacity:1;stroke:none;stroke-width:1px;stroke-linecap:butt;stroke-linejoin:miter;stroke-opacity:1"
       d="m 420.72854,996.50074 -89.44901,-92.27743 -1.59099,-15.02602 -166.34687,-166.34687 -62.9325,97.58074 52.3259,52.3259 9.89949,20.50609 163.69522,163.69525"
       id="path832"
       inkscape:connector-curvature="0"
       sodipodi:nodetypes="cccccccc"
       clip-path="url(#clipPath872)" />
    <path
       id="path3774"
       d="m 255.06056,938.23462 c 64.18907,0 116.72169,-52.53262 116.72169,-116.72168 h -45.70919 c 0,39.48598 -31.52652,70.99208 -71.0125,70.99208 -38.98554,0 -70.1867,-30.72013 -70.97168,-69.50245 h 34.77163 c 1.62975,-2.1e-4 3.22546,-0.86381 4.04037,-2.18343 0.81442,-1.31963 0.81462,-3.04708 0,-4.36686 l -56.8304,-92.03056 c -0.7727,-1.25304 -2.25078,-2.10547 -3.7955,-2.18343 -1.71133,-0.0853 -3.44956,0.79531 -4.30564,2.18343 l -56.80999,92.03056 c -0.81452,1.31978 -0.8149,3.04723 0,4.36686 0.81491,1.31962 2.41063,2.18321 4.04037,2.18343 h 33.17997 c 0.80635,63.50893 52.98987,115.23205 116.68087,115.23205 z"
       style="color:#000000;font-style:normal;font-variant:normal;font-weight:normal;font-stretch:normal;font-size:medium;line-height:normal;font-family:Sans;-inkscape-font-specification:Sans;text-indent:0;text-align:start;text-decoration:none;text-decoration-line:none;letter-spacing:normal;word-spacing:normal;text-transform:none;writing-mode:lr-tb;direction:ltr;baseline-shift:baseline;text-anchor:start;display:inline;overflow:visible;visibility:visible;fill:#ffffff;fill-opacity:1;stroke:none;stroke-width:68.82440186;marker:none;enable-background:accumulate"
       inkscape:connector-curvature="0" />
  </g>
</svg>
