<?xml version="1.0" encoding="UTF-8" standalone="no"?>
<!-- Created with Inkscape (http://www.inkscape.org/) -->

<svg
   xmlns:dc="http://purl.org/dc/elements/1.1/"
   xmlns:cc="http://creativecommons.org/ns#"
   xmlns:rdf="http://www.w3.org/1999/02/22-rdf-syntax-ns#"
   xmlns:svg="http://www.w3.org/2000/svg"
   xmlns="http://www.w3.org/2000/svg"
   xmlns:sodipodi="http://sodipodi.sourceforge.net/DTD/sodipodi-0.dtd"
   xmlns:inkscape="http://www.inkscape.org/namespaces/inkscape"
   id="svg2"
   version="1.1"
   inkscape:version="0.48.4 r9939"
   width="1024"
   height="1024"
   sodipodi:docname="viewnior.svg">
  <metadata
     id="metadata8">
    <rdf:RDF>
      <cc:Work
         rdf:about="">
        <dc:format>image/svg+xml</dc:format>
        <dc:type
           rdf:resource="http://purl.org/dc/dcmitype/StillImage" />
        <dc:title />
      </cc:Work>
    </rdf:RDF>
  </metadata>
  <defs
     id="defs6">
    <clipPath
       clipPathUnits="userSpaceOnUse"
       id="clipPath3784">
      <path
         transform="translate(312.4068,-177.89831)"
         d="m 633.49153,698.57629 a 433.89832,433.89832 0 1 1 -867.79663,0 433.89832,433.89832 0 1 1 867.79663,0 z"
         sodipodi:ry="433.89832"
         sodipodi:rx="433.89832"
         sodipodi:cy="698.57629"
         sodipodi:cx="199.59322"
         id="path3786"
         style="fill:#ff2439;fill-opacity:1;fill-rule:evenodd;stroke:none"
         sodipodi:type="arc" />
    </clipPath>
  </defs>
  <sodipodi:namedview
     pagecolor="#adadad"
     bordercolor="#666666"
     borderopacity="1"
     objecttolerance="10"
     gridtolerance="10"
     guidetolerance="10"
     inkscape:pageopacity="1"
     inkscape:pageshadow="2"
     inkscape:window-width="1275"
     inkscape:window-height="658"
     id="namedview4"
     showgrid="false"
     inkscape:zoom="0.23046875"
     inkscape:cx="506.99107"
     inkscape:cy="907.28966"
     inkscape:window-x="15"
     inkscape:window-y="39"
     inkscape:window-maximized="0"
     inkscape:current-layer="svg2" />
  <path
     sodipodi:type="arc"
     style="fill:#ff2439;fill-opacity:1;fill-rule:evenodd;stroke:none"
     id="path3765"
     sodipodi:cx="199.59322"
     sodipodi:cy="698.57629"
     sodipodi:rx="433.89832"
     sodipodi:ry="433.89832"
     d="m 633.49153,698.57629 a 433.89832,433.89832 0 1 1 -867.79663,0 433.89832,433.89832 0 1 1 867.79663,0 z"
     transform="translate(312.4068,-177.89831)" />
  <path
     style="fill:#fff5e9;fill-opacity:1;fill-rule:evenodd;stroke:none"
     d="m 296.2657,248.83778 c -14.1601,0.0401 -24.0589,0.18546 -25.2813,0.40625 -2.5172,0.45466 -3.3125,1.09924 -3.3125,2.75 0,2.40713 150.7303,536.0443 152.2188,538.9063 0.8792,1.6904 5.898,1.7773 88.4063,1.5312 l 87.4375,-0.25 23.0937,-77 c -9.379,-6.66094 -15.5,-17.57278 -15.5,-29.9375 0,-5.74345 1.3026,-11.18903 3.6563,-16.03125 -6.626,-6.64536 -10.75,-15.78985 -10.75,-25.90625 0,-15.20745 9.2747,-28.25583 22.4687,-33.84375 -0.01,-0.33068 -0.031,-0.66719 -0.031,-1 0,-17.11444 11.696,-31.50514 27.5625,-35.59375 4.6198,-6.96134 11.5681,-12.26521 19.7187,-14.8125 l 10.875,-36.21875 c 77.9218,-259.73635 81.0245,-270.3839 79.1563,-271.75 -1.6282,-1.19056 -13.9965,-1.35481 -76.125,-1.125 -40.8075,0.15096 -74.5115,0.57376 -74.875,0.9375 -0.3636,0.36375 -21.9596,80.8931 -48,178.96875 -26.0405,98.07566 -47.5661,178.53487 -47.8438,178.8125 -0.2776,0.27765 -0.8455,-0.7964 -1.25,-2.40625 -0.4044,-1.60985 -20.0914,-82.03977 -43.75,-178.71875 -23.6586,-96.67899 -43.3532,-176.1343 -43.7813,-176.5625 -0.6846,-0.68496 -81.6134,-1.27656 -124.0937,-1.15625 z"
     id="path3760"
     inkscape:connector-curvature="0" />
  <path
     transform="translate(312.4068,-177.89831)"
     style="fill:#000000;fill-opacity:0.1875;fill-rule:evenodd;stroke:none"
     d="m 633.49153,698.57629 c 0,239.63543 -194.26289,433.89831 -433.89831,433.89831 l 0,-867.79662 c 239.63542,0 433.89831,194.26289 433.89831,433.89831 z"
     id="path3777"
     inkscape:connector-curvature="0"
     sodipodi:nodetypes="sccs" />
  <path
     style="fill:none;stroke:#ffffff;stroke-width:3;stroke-linecap:butt;stroke-linejoin:miter;stroke-miterlimit:4;stroke-opacity:0.09615385;stroke-dasharray:none"
     d="m 509.83051,60.997671 -0.1316,913.355949"
     id="path3780"
     inkscape:connector-curvature="0"
     sodipodi:nodetypes="cc"
     clip-path="url(#clipPath3784)" />
</svg>
