<?xml version="1.0" encoding="UTF-8" standalone="no"?>
<svg
   xmlns:dc="http://purl.org/dc/elements/1.1/"
   xmlns:cc="http://creativecommons.org/ns#"
   xmlns:rdf="http://www.w3.org/1999/02/22-rdf-syntax-ns#"
   xmlns:svg="http://www.w3.org/2000/svg"
   xmlns="http://www.w3.org/2000/svg"
   xmlns:xlink="http://www.w3.org/1999/xlink"
   xmlns:sodipodi="http://sodipodi.sourceforge.net/DTD/sodipodi-0.dtd"
   xmlns:inkscape="http://www.inkscape.org/namespaces/inkscape"
   height="512"
   width="512"
   id="svg29"
   version="1.1"
   viewBox="0 0 512 512"
   sodipodi:docname="vivaldi.svg"
   inkscape:version="0.92.2 (5c3e80d, 2017-08-06)">
  <sodipodi:namedview
     pagecolor="#ffffff"
     bordercolor="#666666"
     borderopacity="1"
     objecttolerance="10"
     gridtolerance="10"
     guidetolerance="10"
     inkscape:pageopacity="0"
     inkscape:pageshadow="2"
     inkscape:window-width="1360"
     inkscape:window-height="715"
     id="namedview37"
     showgrid="false"
     inkscape:zoom="0.4609375"
     inkscape:cx="177.89186"
     inkscape:cy="324.54834"
     inkscape:window-x="0"
     inkscape:window-y="24"
     inkscape:window-maximized="1"
     inkscape:current-layer="svg29" />
  <metadata
     id="metadata33">
    <rdf:RDF>
      <cc:Work
         rdf:about="">
        <dc:format>image/svg+xml</dc:format>
        <dc:type
           rdf:resource="http://purl.org/dc/dcmitype/StillImage" />
        <dc:title />
      </cc:Work>
    </rdf:RDF>
  </metadata>
  <defs
     id="defs7">
    <linearGradient
       inkscape:collect="always"
       id="linearGradient4546">
      <stop
         style="stop-color:#000000;stop-opacity:1;"
         offset="0"
         id="stop4542" />
      <stop
         style="stop-color:#000000;stop-opacity:0;"
         offset="1"
         id="stop4544" />
    </linearGradient>
    <linearGradient
       gradientUnits="userSpaceOnUse"
       y2="47"
       x2="0"
       y1="1"
       id="linearGradient3481">
      <stop
         id="stop2"
         style="stop-color:#fc5858;stop-opacity:1" />
      <stop
         id="stop4"
         style="stop-color:#fc4444;stop-opacity:1"
         offset="1" />
    </linearGradient>
    <linearGradient
       gradientUnits="userSpaceOnUse"
       y2="47"
       x2="0"
       y1="1"
       id="linearGradient3481-4">
      <stop
         id="stop2-0"
         style="stop-color:#fc5858;stop-opacity:1" />
      <stop
         id="stop4-0"
         style="stop-color:#fc4444;stop-opacity:1"
         offset="1" />
    </linearGradient>
    <linearGradient
       gradientUnits="userSpaceOnUse"
       y2="47"
       x2="0"
       y1="1"
       id="linearGradient4218">
      <stop
         id="stop4214"
         style="stop-color:#fc5858;stop-opacity:1" />
      <stop
         id="stop4216"
         style="stop-color:#fc4444;stop-opacity:1"
         offset="1" />
    </linearGradient>
    <linearGradient
       gradientUnits="userSpaceOnUse"
       y2="47"
       x2="0"
       y1="1"
       id="linearGradient3481-6">
      <stop
         id="stop2-03"
         style="stop-color:#fc5858;stop-opacity:1" />
      <stop
         id="stop4-6"
         style="stop-color:#fc4444;stop-opacity:1"
         offset="1" />
    </linearGradient>
    <linearGradient
       gradientUnits="userSpaceOnUse"
       y2="47"
       x2="0"
       y1="1"
       id="linearGradient4218-4">
      <stop
         id="stop4214-9"
         style="stop-color:#fc5858;stop-opacity:1" />
      <stop
         id="stop4216-2"
         style="stop-color:#fc4444;stop-opacity:1"
         offset="1" />
    </linearGradient>
    <linearGradient
       gradientUnits="userSpaceOnUse"
       y2="47"
       x2="0"
       y1="1"
       id="linearGradient3481-2">
      <stop
         id="stop2-9"
         style="stop-color:#fc5858;stop-opacity:1" />
      <stop
         id="stop4-2"
         style="stop-color:#fc4444;stop-opacity:1"
         offset="1" />
    </linearGradient>
    <linearGradient
       gradientUnits="userSpaceOnUse"
       y2="47"
       x2="0"
       y1="1"
       id="linearGradient4218-2">
      <stop
         id="stop4214-2"
         style="stop-color:#fc5858;stop-opacity:1" />
      <stop
         id="stop4216-7"
         style="stop-color:#fc4444;stop-opacity:1"
         offset="1" />
    </linearGradient>
    <linearGradient
       gradientUnits="userSpaceOnUse"
       y2="47"
       x2="0"
       y1="1"
       id="linearGradient3481-0">
      <stop
         id="stop2-02"
         style="stop-color:#fc5858;stop-opacity:1" />
      <stop
         id="stop4-1"
         style="stop-color:#fc4444;stop-opacity:1"
         offset="1" />
    </linearGradient>
    <linearGradient
       gradientUnits="userSpaceOnUse"
       y2="47"
       x2="0"
       y1="1"
       id="linearGradient4218-5">
      <stop
         id="stop4214-6"
         style="stop-color:#fc5858;stop-opacity:1" />
      <stop
         id="stop4216-73"
         style="stop-color:#fc4444;stop-opacity:1"
         offset="1" />
    </linearGradient>
    <linearGradient
       inkscape:collect="always"
       xlink:href="#linearGradient4546"
       id="linearGradient4548"
       x1="-266.84686"
       y1="-89.947182"
       x2="462.76709"
       y2="385.17145"
       gradientUnits="userSpaceOnUse" />
  </defs>
  <path
     d="m 255.56113,17.973475 c 134.81005,0 244.08653,109.276485 244.08653,244.086535 0,134.81007 -109.27648,244.08655 -244.08653,244.08655 -134.81007,0 -244.086554,-109.27648 -244.086554,-244.08655 0,-134.81005 109.276484,-244.086535 244.086554,-244.086535 z"
     id="path17"
     style="fill:#f93e45;fill-opacity:0.99607843;stroke-width:10.61245918"
     inkscape:connector-curvature="0" />
  <path
     style="fill:url(#linearGradient4548);stroke:none;stroke-width:1px;stroke-linecap:butt;stroke-linejoin:miter;stroke-opacity:1;fill-opacity:1"
     d="M 160.54297 147.52539 L 253.83008 397.01758 L 381.89062 470.95312 C 452.47822 428.17456 499.64844 350.62953 499.64844 262.06055 C 499.64844 249.02397 498.61456 236.22938 496.64648 223.74609 L 379.66016 156.20312 L 335.98828 248.81836 L 160.54297 147.52539 z "
     id="path4537" />
  <path
     id="path27"
     style="fill:#fffffd;fill-rule:evenodd;stroke:none;stroke-width:10.61245918;fill-opacity:1"
     d="m 122.71437,193.46109 110.97448,196.06517 c 0,0 6.00665,10.49572 21.12941,10.49572 15.11214,0 21.12939,-10.49572 21.12939,-10.49572 0,0 77.13136,-118.13789 108.59729,-181.15467 3.16252,-6.32501 6.56911,-12.72433 8.0018,-19.66488 0.97635,-4.71193 1.44329,-9.76347 0.31838,-14.44356 -1.36901,-5.7095 -4.01152,-11.54635 -8.32018,-15.52603 -4.97723,-4.59519 -11.88596,-7.4181 -18.61425,-8.11853 -7.23769,-0.76409 -14.95296,0.97635 -21.43717,4.36172 -4.55274,2.39843 -8.59609,6.22952 -11.14308,10.71859 -2.52577,4.44661 -3.17311,9.83775 -3.45965,14.94234 -0.19103,3.51272 0.49877,7.04667 1.22043,10.48511 0.24409,1.17799 0.64735,2.32413 1.05063,3.44904 1.0294,2.87599 2.43026,5.60339 3.48088,8.46874 0.87023,2.35598 2.08004,4.6695 2.35597,7.17403 0.44572,4.03273 0.3396,8.34139 -1.14615,12.10881 -7.24831,18.33834 -19.70733,35.97624 -36.17787,46.74789 -6.8238,4.45723 -15.55785,5.57154 -23.69761,5.92175 -9.2859,0.39266 -19.98325,-0.33961 -27.51812,-4.43602 -7.53484,-4.0964 -11.0794,-11.20675 -15.80195,-17.47871 -21.67063,-28.75976 -57.09502,-91.75531 -57.09502,-91.75531 0,0 -15.39868,-27.22097 -43.1078,-10.71859 -27.69852,16.51299 -10.77165,42.87434 -10.77165,42.87434 z"
     inkscape:connector-curvature="0" />
</svg>
