<?xml version="1.0" encoding="UTF-8" standalone="no"?>
<!-- Created with Inkscape (http://www.inkscape.org/) -->

<svg
   xmlns:dc="http://purl.org/dc/elements/1.1/"
   xmlns:cc="http://creativecommons.org/ns#"
   xmlns:rdf="http://www.w3.org/1999/02/22-rdf-syntax-ns#"
   xmlns:svg="http://www.w3.org/2000/svg"
   xmlns="http://www.w3.org/2000/svg"
   xmlns:xlink="http://www.w3.org/1999/xlink"
   xmlns:sodipodi="http://sodipodi.sourceforge.net/DTD/sodipodi-0.dtd"
   xmlns:inkscape="http://www.inkscape.org/namespaces/inkscape"
   width="512"
   height="512"
   id="svg2"
   version="1.1"
   inkscape:version="0.48.4 r9939"
   sodipodi:docname="wine beta 1.svg">
  <defs
     id="defs4">
    <linearGradient
       id="linearGradient3783">
      <stop
         style="stop-color:#000000;stop-opacity:1;"
         offset="0"
         id="stop3785" />
      <stop
         style="stop-color:#fb5549;stop-opacity:0;"
         offset="1"
         id="stop3787" />
    </linearGradient>
    <linearGradient
       inkscape:collect="always"
       xlink:href="#linearGradient3783"
       id="linearGradient3789"
       x1="-3045.6099"
       y1="379.88196"
       x2="-1068.8168"
       y2="1369.8314"
       gradientUnits="userSpaceOnUse" />
    <clipPath
       clipPathUnits="userSpaceOnUse"
       id="clipPath3793">
      <path
         d="m -937.14288,872.36218 a 762.85712,762.85712 0 1 1 -1525.71422,0 762.85712,762.85712 0 1 1 1525.71422,0 z"
         sodipodi:ry="762.85712"
         sodipodi:rx="762.85712"
         sodipodi:cy="872.36218"
         sodipodi:cx="-1700"
         id="path3795"
         style="fill:#fb5549;fill-opacity:1;fill-rule:evenodd;stroke:none"
         sodipodi:type="arc" />
    </clipPath>
    <linearGradient
       inkscape:collect="always"
       xlink:href="#linearGradient3783"
       id="linearGradient3821"
       gradientUnits="userSpaceOnUse"
       x1="-3045.6099"
       y1="379.88196"
       x2="-1068.8168"
       y2="1369.8314" />
  </defs>
  <sodipodi:namedview
     id="base"
     pagecolor="#ffffff"
     bordercolor="#666666"
     borderopacity="1.0"
     inkscape:pageopacity="0.0"
     inkscape:pageshadow="2"
     inkscape:zoom="0.35"
     inkscape:cx="209.50671"
     inkscape:cy="169.58308"
     inkscape:document-units="px"
     inkscape:current-layer="layer1"
     showgrid="false"
     showguides="true"
     inkscape:guide-bbox="true"
     inkscape:window-width="1360"
     inkscape:window-height="721"
     inkscape:window-x="0"
     inkscape:window-y="25"
     inkscape:window-maximized="1" />
  <metadata
     id="metadata7">
    <rdf:RDF>
      <cc:Work
         rdf:about="">
        <dc:format>image/svg+xml</dc:format>
        <dc:type
           rdf:resource="http://purl.org/dc/dcmitype/StillImage" />
        <dc:title></dc:title>
      </cc:Work>
    </rdf:RDF>
  </metadata>
  <g
     inkscape:label="Capa 1"
     inkscape:groupmode="layer"
     id="layer1"
     transform="translate(0,-540.36218)">
    <g
       id="g3816"
       transform="matrix(0.28838948,0,0,0.28838948,761.69064,557.92491)">
      <path
         d="m -937.14288,872.36218 c 0,421.31432 -341.54272,762.85712 -762.85712,762.85712 -421.3144,0 -762.8571,-341.5428 -762.8571,-762.85712 0,-421.31435 341.5427,-762.85711 762.8571,-762.85711 421.3144,0 762.85712,341.54276 762.85712,762.85711 z"
         sodipodi:ry="762.85712"
         sodipodi:rx="762.85712"
         sodipodi:cy="872.36218"
         sodipodi:cx="-1700"
         id="path3772"
         style="fill:#f96657;fill-opacity:1;fill-rule:evenodd;stroke:none"
         sodipodi:type="arc" />
      <path
         clip-path="url(#clipPath3793)"
         sodipodi:nodetypes="cccccccccccc"
         inkscape:connector-curvature="0"
         id="path3779"
         d="m -474.84714,967.97561 -1036.58146,-598.47057 -449.2775,235.35957 -6.0609,110.10662 97.9848,119.198 90.9137,67.68022 56.5686,111.11675 13.1319,311.127 -201.0203,48.4873 -40.8117,2.6389 771.4825,445.4156 z"
         style="fill:url(#linearGradient3821);fill-opacity:1;stroke:none" />
      <path
         inkscape:connector-curvature="0"
         id="path3774"
         d="m -1888.5621,369.12783 c 0,0 -114.5407,222.23911 -88.9375,334.84375 13.3813,123.25932 184.8626,166.79541 212.25,268.06255 32.8614,111.45837 27.214,228.69687 20.5938,343.46867 l -205.3126,60.0937 499.875,0 -205.3124,-60.0937 c -6.4049,-117.6168 -6.6624,-234.7546 19.2187,-345.43747 43.9477,-113.82265 183.3468,-157.36588 213.6875,-266.09375 25.6032,-112.60464 -88.9688,-334.84375 -88.9688,-334.84375 l -377.0937,0 z m 169.8125,239.75 c 1.3099,-0.006 2.6544,0.018 3.9688,0.0625 31.2385,1.05756 59.5101,21.05897 90.625,24.03125 35.6826,3.40864 71.9055,-1.59277 107.2812,-7.375 14.4635,-2.36409 27.9631,-9.52954 42.5312,-11.125 6.7967,-0.74443 16.4129,-0.50019 25.4063,-0.0313 4.725,28.75449 5.7282,55.88397 0.625,78.25 -21.3555,76.26301 -102.2887,117.04162 -156.0937,179.5625 -70.2115,59.48798 -140.4138,39.62001 -210.625,-13.90625 -54.602,-47.88753 -128.4439,-90.27151 -136.6563,-165.65625 -5.0422,-22.09928 -4.109,-48.84542 0.4687,-77.21875 35.9711,8.46117 81.9884,17.5757 112.5,17.5 40.7646,-0.1011 79.3602,-23.90029 119.9688,-24.09375 z"
         style="fill:#1cc1ed;fill-opacity:1;stroke:none" />
    </g>
  </g>
</svg>
