<?xml version="1.0" encoding="UTF-8" standalone="no"?>
<!-- Created with Inkscape (http://www.inkscape.org/) -->

<svg
   xmlns:dc="http://purl.org/dc/elements/1.1/"
   xmlns:cc="http://creativecommons.org/ns#"
   xmlns:rdf="http://www.w3.org/1999/02/22-rdf-syntax-ns#"
   xmlns:svg="http://www.w3.org/2000/svg"
   xmlns="http://www.w3.org/2000/svg"
   xmlns:sodipodi="http://sodipodi.sourceforge.net/DTD/sodipodi-0.dtd"
   xmlns:inkscape="http://www.inkscape.org/namespaces/inkscape"
   width="512"
   height="512"
   id="svg3752"
   version="1.1"
   inkscape:version="0.48.4 r9939"
   sodipodi:docname="wxmaxima.svg"
   inkscape:export-filename="/home/cecilia/Descargas/iconos/wxmaxima.png"
   inkscape:export-xdpi="90"
   inkscape:export-ydpi="90">
  <defs
     id="defs3754">
    <clipPath
       clipPathUnits="userSpaceOnUse"
       id="clipPath4355">
      <path
         sodipodi:nodetypes="ccccccccccc"
         inkscape:connector-curvature="0"
         id="path4357"
         d="m 413.15743,-331.13406 -86.52622,-80.17627 -86.52623,80.17627 -86.52622,-80.17627 -86.526225,80.17627 0,320.87256 86.526225,-80.17627 86.52622,80.17627 86.52623,-80.17627 86.52622,80.17627 z"
         style="fill:#fcc199;fill-opacity:1;stroke:none" />
    </clipPath>
  </defs>
  <sodipodi:namedview
     id="base"
     pagecolor="#ffffff"
     bordercolor="#666666"
     borderopacity="1.0"
     inkscape:pageopacity="0.0"
     inkscape:pageshadow="2"
     inkscape:zoom="0.46522283"
     inkscape:cx="279.67953"
     inkscape:cy="187.68646"
     inkscape:current-layer="layer1"
     showgrid="true"
     inkscape:grid-bbox="true"
     inkscape:document-units="px"
     inkscape:window-width="1360"
     inkscape:window-height="717"
     inkscape:window-x="0"
     inkscape:window-y="25"
     inkscape:window-maximized="1"
     units="px"
     width="512px" />
  <metadata
     id="metadata3757">
    <rdf:RDF>
      <cc:Work
         rdf:about="">
        <dc:format>image/svg+xml</dc:format>
        <dc:type
           rdf:resource="http://purl.org/dc/dcmitype/StillImage" />
        <dc:title />
      </cc:Work>
    </rdf:RDF>
  </metadata>
  <g
     id="layer1"
     inkscape:label="Layer 1"
     inkscape:groupmode="layer"
     transform="translate(0,464.00004)">
    <g
       id="g8135">
      <path
         inkscape:connector-curvature="0"
         id="path4155"
         d="m 262.39342,-1.6386755 50.0745,-34.1094395 -61.11378,0.177341 8.98961,33.9320985 z"
         style="fill:#00348e;fill-opacity:1;fill-rule:nonzero;stroke:none"
         sodipodi:nodetypes="ccccc" />
      <path
         id="rect3345"
         d="m 179.41169,-386.6548 72.08746,351.14165 54.35267,-0.112486 -45.56977,33.9869591 183.21129,0 c 17.27424,0 31.18119,-13.9057491 31.18119,-31.1799821 l 0,-322.654951 c 0,-17.27424 -13.90695,-31.18119 -31.18119,-31.18119 z"
         style="fill:#8bc1c9;fill-opacity:1;fill-rule:nonzero;stroke:none"
         inkscape:connector-curvature="0"
         sodipodi:nodetypes="ccccssssc" />
      <path
         inkscape:connector-curvature="0"
         id="path3350"
         d="m 226.86043,-420.54658 -154.826431,0 c -17.274234,0 -31.181179,13.90695 -31.181179,31.18119 l 0,322.65495 c 0,17.274234 13.906945,31.179982 31.181179,31.179982 l 233.836591,0 -79.01016,-385.016122 z"
         style="opacity:1;fill:#8ecbd4;fill-opacity:1;fill-rule:nonzero;stroke:none;stroke-width:0.10000000000000001;stroke-linecap:butt;stroke-linejoin:miter;stroke-miterlimit:4;stroke-dasharray:none;stroke-opacity:1" />
      <g
         transform="matrix(6.833331,0,0,6.833331,215.54205,-7226.1644)"
         id="text3799"
         style="font-style:normal;font-variant:normal;font-weight:bold;font-stretch:normal;font-size:29.76190567px;line-height:125%;font-family:'GFS Didot';-inkscape-font-specification:'GFS Didot Bold';letter-spacing:0px;word-spacing:0px;fill:#0055d4;fill-opacity:1;stroke:none">
        <path
           inkscape:connector-curvature="0"
           id="path3811"
           style="font-family:Buenard;-inkscape-font-specification:Buenard Bold;fill:#17252b;fill-opacity:1"
           d="m 29.327381,1018.9871 c 1.031726,0.1985 2.073392,0.2977 3.125001,0.2977 1.071404,0 2.182514,-0.099 3.333333,-0.2977 l 0.208333,1.1608 c -0.734152,0.1786 -1.279787,0.3571 -1.636904,0.5357 -0.357168,0.1786 -0.515898,0.5159 -0.476191,1.0119 l 0.892857,14.494 c 0.01982,0.4762 0.198388,0.8135 0.535714,1.0119 0.317435,0.1588 0.833307,0.3373 1.54762,0.5357 l -0.208334,1.1608 c -1.250025,-0.1786 -2.490104,-0.2679 -3.720238,-0.2679 -1.230181,0 -2.628989,0.089 -4.196429,0.2679 l -0.208333,-1.2203 c 1.428551,-0.2976 2.242043,-0.6151 2.440476,-0.9524 0.07934,-0.099 0.109106,-0.2777 0.08929,-0.5357 l -0.714286,-12.7678 -0.178571,-0.1488 c -0.218274,0.992 -0.426607,1.7262 -0.625,2.2023 l -3.541667,8.9286 c -0.337317,0.8334 -0.704381,1.9643 -1.10119,3.3929 l -0.178572,0.6547 -2.827381,0.7143 c -0.555567,-1.8849 -1.041678,-3.3432 -1.458333,-4.375 l -3.571429,-9.1666 -0.565476,-1.9643 -0.208334,0.1488 -0.863095,12.3809 c -0.01985,0.258 -5e-6,0.4465 0.05952,0.5655 0.07936,0.099 0.208328,0.1984 0.386905,0.2976 0.337295,0.1786 0.902771,0.3572 1.696428,0.5357 l 0.386905,0.089 -0.238095,1.2203 c -1.289689,-0.1786 -2.42064,-0.2679 -3.392857,-0.2679 -0.952385,0 -2.053574,0.089 -3.303572,0.2679 l -0.238095,-1.1608 c 0.734125,-0.1587 1.269839,-0.3273 1.607143,-0.5059 0.35714,-0.1786 0.545632,-0.496 0.565476,-0.9524 l 1.101191,-14.6726 c 0.01984,-0.4365 -0.138893,-0.744 -0.476191,-0.9226 -0.317464,-0.1587 -0.803574,-0.3075 -1.458333,-0.4465 l -0.327381,-0.089 0.208333,-1.1608 c 1.091267,0.1985 2.232139,0.2977 3.422619,0.2977 1.210311,0 2.371024,-0.099 3.482143,-0.2977 0.238086,0.9128 0.436499,1.5973 0.595238,2.0536 l 4.285715,11.5774 0.386904,1.3988 0.208334,0.059 c 0.03967,-0.6547 0.128954,-1.1309 0.267857,-1.4285 l 4.255952,-11.4286 0.625,-2.2322" />
      </g>
      <g
         transform="matrix(0.49838416,0,0,0.49838416,276.60137,-90.03351)"
         id="g7709">
        <g
           style="font-style:normal;font-variant:normal;font-weight:normal;font-stretch:normal;font-size:15.32169533px;line-height:125%;font-family:Garamond;-inkscape-font-specification:Garamond;letter-spacing:0px;word-spacing:0px;opacity:0.3;fill:#000105;fill-opacity:1;stroke:none"
           id="text3803"
           transform="matrix(18.440641,0,0,18.41051,-1029.3278,-19148.56)" />
      </g>
      <path
         inkscape:connector-curvature="0"
         id="path7747"
         d="m 226.88817,-420.5458 -154.43155,-0.31211 c -17.274195,-0.0349 -31.17969,13.9074 -31.17969,31.18165 l 0,94.32226 z"
         style="fill:#2a353c;fill-opacity:1;fill-rule:nonzero;stroke:none"
         sodipodi:nodetypes="csscc" />
    </g>
    <path
       style="fill:#000000;fill-opacity:0.32835819;stroke:none"
       d="m 305.42849,428.43736 -50.4763,13.38864 -3.58201,-13.37037 z"
       id="path3808"
       inkscape:connector-curvature="0"
       transform="translate(0,-464.00004)"
       sodipodi:nodetypes="cccc" />
    <path
       inkscape:connector-curvature="0"
       id="path3004-5"
       style="font-size:40px;font-style:normal;font-variant:normal;font-weight:normal;font-stretch:normal;line-height:125%;letter-spacing:0px;word-spacing:0px;fill:#233842;fill-opacity:1;stroke:none;font-family:Noto Serif;-inkscape-font-specification:Noto Serif"
       d="m 213.37255,-181.00412 c 2.43328,0 4.51177,-0.35409 6.23545,-1.07046 1.72354,-0.77232 3.14299,-1.81507 4.25834,-3.14571 1.16597,-1.32858 2.07841,-2.91374 2.73752,-4.75498 0.65903,-1.84072 1.11519,-3.83539 1.36875,-5.98349 l 0.68431,-4.6775 8.06045,0 -0.76042,34.05463 -83.3419,0 0,-5.06288 32.39384,-49.93092 -28.97196,-52.61784 0,-4.52457 73.07624,0 0.76043,27.45893 -8.13649,0 -0.76043,-6.74966 c -0.20285,-1.73808 -0.58305,-3.37508 -1.14062,-4.90944 -0.55772,-1.53385 -1.39418,-2.865 -2.5094,-3.9878 -1.06466,-1.17207 -2.43339,-2.09628 -4.10625,-2.76083 -1.62229,-0.7251 -3.59938,-1.07251 -5.93126,-1.07251 l -32.39385,0 23.0407,41.80238 0,2.37749 -29.58029,45.5608 45.01678,0" />
    <path
       d="m 90.239916,-202.36594 c -3e-5,2.9747 0.43544,5.37777 1.30638,7.20828 0.8709,1.78464 2.17728,3.27199 3.91916,4.46205 1.7418,1.14419 3.91911,2.10486 6.531914,2.88295 2.61273,0.73404 5.68387,1.51028 9.21345,2.33333 3.39195,0.77992 6.27974,1.67086 8.66338,2.67741 2.42936,1.00655 4.40039,2.19662 5.9131,3.56927 1.51259,1.37358 2.61271,2.95176 3.30034,4.73732 0.73332,1.78463 1.10005,3.84362 1.10011,6.17787 -6e-5,2.47096 -0.52717,4.94192 -1.5814,7.41289 -1.05435,2.47188 -2.72743,4.78227 -5.01927,6.93393 -2.29196,2.19661 -5.22559,4.1409 -8.8009,5.8347 -3.57542,1.73876 -7.86126,3.06554 -12.85756,3.98125 l 0,-7.48262 c 1.97099,-0.55053 3.59824,-1.19006 4.88175,-1.92227 1.32925,-0.73404 2.38352,-1.55525 3.16281,-2.47096 0.77918,-0.87168 1.32926,-1.83052 1.65017,-2.88295 0.3667,-1.00655 0.55005,-2.08192 0.55005,-3.22611 -5e-5,-1.41853 -0.22921,-2.63153 -0.68754,-3.63808 -0.41256,-0.9616 -1.146,-1.80758 -2.20023,-2.53978 -1.05432,-0.68817 -2.45237,-1.30476 -4.19418,-1.85346 -1.69604,-0.50465 -3.82751,-1.02949 -6.394394,-1.5791 -5.40892,-1.09831 -10.01564,-2.40215 -13.82017,-3.91244 -3.80457,-1.51029 -6.92156,-3.36374 -9.35095,-5.56035 -2.42944,-2.19662 -4.21711,-4.78228 -5.36305,-7.75698 -1.10013,-2.9747 -1.65018,-6.45221 -1.65018,-10.43438 0,-3.70599 0.68754,-7.20737 2.06271,-10.50229 1.37514,-3.29492 3.30033,-6.33844 5.7756,-9.12963 2.52107,-2.83707 5.54637,-5.39978 9.07592,-7.68816 3.5295,-2.28837 7.47158,-4.27853 11.82621,-5.97233 l 0,-0.89003 c -3.57539,-0.41289 -6.82989,-1.09831 -9.7635,-2.0599 -2.88782,-0.96067 -5.36306,-2.15074 -7.42576,-3.56927 -2.01688,-1.41853 -3.57538,-2.99764 -4.67547,-4.7364 -1.10013,-1.78463 -1.65018,-3.7069 -1.65017,-5.76588 -1e-5,-1.64793 0.41256,-3.31787 1.23762,-5.01167 0.8709,-1.69288 2.10854,-3.3408 3.71288,-4.94192 1.60432,-1.64793 3.55243,-3.22611 5.84436,-4.7364 2.33771,-1.51029 4.97339,-2.90588 7.90706,-4.1877 -4.07961,-0.68816 -7.99877,-1.78464 -11.75746,-3.29493 -3.7129,-1.55616 -6.92156,-3.36374 -9.62599,-5.42272 l 5.22554,-7.00183 c 1.32929,0.91755 2.97946,1.85345 4.9505,2.81413 2.01685,0.96159 4.17124,1.87639 6.46317,2.74623 2.33771,0.82579 4.72129,1.57818 7.15073,2.26451 2.47522,0.64229 4.83587,1.12217 7.081984,1.44239 0.96255,-0.59641 2.08558,-1.213 3.36909,-1.85345 1.32926,-0.68816 2.77315,-1.30476 4.33169,-1.85345 1.55844,-0.55053 3.18569,-1.00747 4.88175,-1.37358 1.74179,-0.36702 3.50655,-0.55053 5.29429,-0.55053 1.69595,0 3.11692,0.15599 4.26294,0.47713 1.14588,0.27526 2.06264,0.66064 2.75028,1.16621 0.68754,0.50465 1.1688,1.09922 1.44389,1.78555 0.27498,0.68816 0.41247,1.41853 0.41257,2.19662 -7e-5,2.88294 -1.53564,5.14837 -4.60673,6.79538 -3.0712,1.64792 -7.97586,2.47096 -14.714,2.47096 -1.05432,0 -2.15443,0 -3.30034,-0.0917 -1.10015,0 -2.29194,-0.11011 -3.57536,-0.20186 -1.2835,0.96159 -2.4753,2.01402 -3.575364,3.15729 -1.10016,1.09923 -2.06275,2.31131 -2.8878,3.63901 -0.77927,1.2809 -1.39809,2.67649 -1.85644,4.18678 -0.45843,1.46441 -0.68764,3.06645 -0.68755,4.80521 -2e-5,1.55617 0.32084,2.95176 0.9626,4.18771 0.64168,1.23502 1.4897,2.35627 2.54401,3.36282 1.05425,0.96159 2.26895,1.80849 3.644134,2.5407 1.3751,0.68816 2.79607,1.25796 4.26293,1.71582 0.82503,-0.4129 1.83348,-0.8258 3.02531,-1.23594 1.23758,-0.45878 2.54396,-0.84415 3.91915,-1.16713 1.37509,-0.36702 2.79607,-0.64229 4.26294,-0.8258 1.46676,-0.22938 2.88774,-0.33949 4.26293,-0.33949 2.42936,0 4.23996,0.50465 5.4318,1.50937 1.23757,1.00747 1.85638,2.28837 1.85644,3.84454 -6e-5,0.96067 -0.20632,1.92227 -0.61879,2.88294 -0.3668,0.91755 -0.98559,1.7617 -1.85644,2.53978 -0.87099,0.73404 -2.01694,1.3277 -3.43786,1.78464 -1.37519,0.45878 -3.04828,0.68816 -5.01926,0.68816 -1.10016,9.2e-4 -2.2232,0 -3.36909,-0.0917 -1.14601,-0.0917 -2.24612,-0.16516 -3.30034,-0.21103 -1.00848,-0.0917 -1.92525,-0.18351 -2.75028,-0.27527 -0.77927,-0.0917 -1.39811,-0.18351 -1.85644,-0.27526 -1.92524,0.82579 -3.8046,2.1278 -5.638084,3.91243 -1.83356,1.73876 -3.46081,3.84454 -4.88175,6.3155 -1.42101,2.42509 -2.56696,5.1025 -3.43785,8.03132 -0.82512,2.92882 -1.23766,5.92646 -1.23763,8.992"
       style="font-size:15.32169533000000072px;font-style:normal;font-variant:normal;font-weight:bold;font-stretch:normal;line-height:125%;letter-spacing:0px;word-spacing:0px;fill:#233842;fill-opacity:1;stroke:none;font-family:Noto Serif;-inkscape-font-specification:Noto Serif Bold"
       id="path3808-0"
       inkscape:connector-curvature="0" />
    <path
       style="font-size:medium;font-style:normal;font-variant:normal;font-weight:normal;font-stretch:normal;text-indent:0;text-align:start;text-decoration:none;line-height:normal;letter-spacing:normal;word-spacing:normal;text-transform:none;direction:ltr;block-progression:tb;writing-mode:lr-tb;text-anchor:start;baseline-shift:baseline;color:#000000;fill:#ffffff;fill-opacity:0.17910449;stroke:none;stroke-width:3;marker:none;visibility:visible;display:inline;overflow:visible;enable-background:accumulate;font-family:Sans;-inkscape-font-specification:Sans"
       d="m 226.875,-420.56254 -3.02062,0.0238 78.98937,385.06997 3.0325,-0.07127 z"
       id="path3802"
       inkscape:connector-curvature="0"
       sodipodi:nodetypes="ccccc" />
    <path
       style="fill:#000000;fill-opacity:0.32835819;stroke:none"
       d="m 281.91238,446.20672 3.43475,16.08592 -24.98803,0 z"
       id="path3810"
       inkscape:connector-curvature="0"
       transform="translate(0,-464.00004)"
       sodipodi:nodetypes="cccc" />
  </g>
</svg>
