<?xml version="1.0" encoding="UTF-8" standalone="no"?>
<!-- Created with Inkscape (http://www.inkscape.org/) -->

<svg
   xmlns:dc="http://purl.org/dc/elements/1.1/"
   xmlns:cc="http://creativecommons.org/ns#"
   xmlns:rdf="http://www.w3.org/1999/02/22-rdf-syntax-ns#"
   xmlns:svg="http://www.w3.org/2000/svg"
   xmlns="http://www.w3.org/2000/svg"
   xmlns:xlink="http://www.w3.org/1999/xlink"
   xmlns:sodipodi="http://sodipodi.sourceforge.net/DTD/sodipodi-0.dtd"
   xmlns:inkscape="http://www.inkscape.org/namespaces/inkscape"
   sodipodi:docname="xfce2.svg"
   inkscape:version="0.91 r13725"
   version="1.1"
   id="svg2"
   viewBox="0 0 512 512"
   height="512"
   width="512"
   inkscape:export-filename="/home/cecilia/corebird-new.png"
   inkscape:export-xdpi="50"
   inkscape:export-ydpi="50">
  <sodipodi:namedview
     inkscape:window-maximized="1"
     inkscape:window-y="25"
     inkscape:window-x="0"
     inkscape:window-height="721"
     inkscape:window-width="1360"
     units="px"
     showgrid="false"
     inkscape:current-layer="layer1"
     inkscape:document-units="px"
     inkscape:cy="104.61751"
     inkscape:cx="445.17979"
     inkscape:zoom="0.13493534"
     inkscape:pageshadow="2"
     inkscape:pageopacity="0.0"
     borderopacity="1.0"
     bordercolor="#666666"
     pagecolor="#ffffff"
     id="base"
     showguides="false" />
  <defs
     id="defs4">
    <linearGradient
       inkscape:collect="always"
       id="linearGradient4274">
      <stop
         style="stop-color:#000000;stop-opacity:1;"
         offset="0"
         id="stop4276" />
      <stop
         style="stop-color:#000000;stop-opacity:0;"
         offset="1"
         id="stop4278" />
    </linearGradient>
    <linearGradient
       inkscape:collect="always"
       id="linearGradient4258">
      <stop
         style="stop-color:#000000;stop-opacity:1;"
         offset="0"
         id="stop4260" />
      <stop
         style="stop-color:#000000;stop-opacity:0;"
         offset="1"
         id="stop4262" />
    </linearGradient>
    <linearGradient
       inkscape:collect="always"
       id="linearGradient4250">
      <stop
         style="stop-color:#000000;stop-opacity:1;"
         offset="0"
         id="stop4252" />
      <stop
         style="stop-color:#000000;stop-opacity:0;"
         offset="1"
         id="stop4254" />
    </linearGradient>
    <linearGradient
       inkscape:collect="always"
       xlink:href="#linearGradient4250"
       id="linearGradient4256"
       x1="18.369139"
       y1="719.3974"
       x2="362.48251"
       y2="920.41962"
       gradientUnits="userSpaceOnUse" />
    <linearGradient
       inkscape:collect="always"
       xlink:href="#linearGradient4258"
       id="linearGradient4264"
       x1="84.269623"
       y1="623.16235"
       x2="456.78806"
       y2="827.89008"
       gradientUnits="userSpaceOnUse" />
    <linearGradient
       inkscape:collect="always"
       xlink:href="#linearGradient4274"
       id="linearGradient4280"
       x1="-91.207863"
       y1="627.091"
       x2="260.16299"
       y2="805.88031"
       gradientUnits="userSpaceOnUse" />
    <clipPath
       clipPathUnits="userSpaceOnUse"
       id="clipPath4314">
      <circle
         style="opacity:1;fill:#433e6e;fill-opacity:1;stroke:none;stroke-width:25;stroke-linecap:round;stroke-linejoin:round;stroke-miterlimit:4;stroke-dasharray:none;stroke-dashoffset:0;stroke-opacity:1"
         id="circle4316"
         cx="254.15642"
         cy="800.82593"
         r="233.19504" />
    </clipPath>
    <clipPath
       clipPathUnits="userSpaceOnUse"
       id="clipPath4445">
      <path
         id="path4447"
         d="m 342.47852,331.69141 7.46875,37.11132 a 84.097458,84.097458 0 0 0 -14.92969,47.80274 84.097458,84.097458 0 0 0 84.09765,84.0957 84.097458,84.097458 0 0 0 84.09766,-84.0957 84.097458,84.097458 0 0 0 -84.09766,-84.09766 84.097458,84.097458 0 0 0 -41.44726,11.04297 l -35.18945,-11.85937 z"
         style="opacity:1;fill:#24d295;fill-opacity:1;stroke:none;stroke-width:25;stroke-linecap:round;stroke-linejoin:round;stroke-miterlimit:4;stroke-dasharray:none;stroke-dashoffset:0;stroke-opacity:1"
         inkscape:connector-curvature="0" />
    </clipPath>
  </defs>
  <metadata
     id="metadata7">
    <rdf:RDF>
      <cc:Work
         rdf:about="">
        <dc:format>image/svg+xml</dc:format>
        <dc:type
           rdf:resource="http://purl.org/dc/dcmitype/StillImage" />
        <dc:title></dc:title>
      </cc:Work>
    </rdf:RDF>
  </metadata>
  <g
     inkscape:label="Capa 1"
     inkscape:groupmode="layer"
     id="layer1"
     transform="translate(0,-540.36216)">
    <circle
       r="233.19504"
       cy="800.82593"
       cx="254.15642"
       id="path4193"
       style="opacity:1;fill:#ce7339;fill-opacity:1;stroke:none;stroke-width:25;stroke-linecap:round;stroke-linejoin:round;stroke-miterlimit:4;stroke-dasharray:none;stroke-dashoffset:0;stroke-opacity:1" />
    <path
       inkscape:connector-curvature="0"
       id="path4240"
       d="M 243.58943,828.6627 132.97358,764.79861 169.0009,696.01917 279.61675,759.88326 Z"
       style="fill:url(#linearGradient4280);fill-rule:evenodd;stroke:none;stroke-width:1px;stroke-linecap:butt;stroke-linejoin:miter;stroke-opacity:1;fill-opacity:1;opacity:0.774"
       sodipodi:nodetypes="ccccc" />
    <circle
       r="37.992451"
       cy="732.43018"
       cx="153.47174"
       id="path4195"
       style="opacity:1;fill:#ffffff;fill-opacity:1;stroke:none;stroke-width:25;stroke-linecap:round;stroke-linejoin:round;stroke-miterlimit:4;stroke-dasharray:none;stroke-dashoffset:0;stroke-opacity:1" />
    <path
       style="fill:url(#linearGradient4256);fill-rule:evenodd;stroke:none;stroke-width:1px;stroke-linecap:butt;stroke-linejoin:miter;stroke-opacity:1;fill-opacity:1;opacity:0.774"
       d="m 346.43106,951.1556 -110.61585,-63.86409 36.68237,-66.15927 110.61585,63.86409 z"
       id="path4242"
       inkscape:connector-curvature="0"
       sodipodi:nodetypes="ccccc" />
    <circle
       style="opacity:1;fill:#ffffff;fill-opacity:1;stroke:none;stroke-width:25;stroke-linecap:round;stroke-linejoin:round;stroke-miterlimit:4;stroke-dasharray:none;stroke-dashoffset:0;stroke-opacity:1"
       id="circle4197"
       cx="253.50134"
       cy="854.34753"
       r="37.992451" />
    <path
       inkscape:connector-curvature="0"
       id="path4248"
       d="M 367.4787,726.15111 478.09455,790.0152 439.44706,855.51943 328.83121,791.65534 Z"
       style="fill:url(#linearGradient4264);fill-rule:evenodd;stroke:none;stroke-width:1px;stroke-linecap:butt;stroke-linejoin:miter;stroke-opacity:1;fill-opacity:1;opacity:0.774"
       sodipodi:nodetypes="ccccc" />
    <circle
       r="37.992451"
       cy="761.71521"
       cx="351.83716"
       id="circle4199"
       style="opacity:1;fill:#ffffff;fill-opacity:1;stroke:none;stroke-width:25;stroke-linecap:round;stroke-linejoin:round;stroke-miterlimit:4;stroke-dasharray:none;stroke-dashoffset:0;stroke-opacity:1" />
    <path
       inkscape:connector-curvature="0"
       id="rect4201"
       d="m 155.90056,663.26733 c -3.62893,0 -6.55078,5.8437 -6.55078,13.10157 l 0,248.91601 c 0,7.25787 2.92185,13.09961 6.55078,13.09961 3.62893,0 6.55078,-5.84174 6.55078,-13.09961 l 0,-248.91601 c 0,-7.25787 -2.92185,-13.10157 -6.55078,-13.10157 z m 98.25586,0 c -3.62893,0 -6.55078,5.8437 -6.55078,13.10157 l 0,248.91601 c 0,7.25787 2.92185,13.09961 6.55078,13.09961 3.62893,0 6.55078,-5.84174 6.55078,-13.09961 l 0,-248.91601 c 0,-7.25787 -2.92185,-13.10157 -6.55078,-13.10157 z m 98.25586,0 c -3.62893,0 -6.54883,5.8437 -6.54883,13.10157 l 0,248.91601 c 0,7.25787 2.9199,13.09961 6.54883,13.09961 3.62893,0 6.55078,-5.84174 6.55078,-13.09961 l 0,-248.91601 c 0,-7.25787 -2.92185,-13.10157 -6.55078,-13.10157 z"
       style="opacity:1;fill:#ffffff;fill-opacity:0.60869565;stroke:none;stroke-width:25;stroke-linecap:round;stroke-linejoin:round;stroke-miterlimit:4;stroke-dasharray:none;stroke-dashoffset:0;stroke-opacity:1" />
    <path
       id="path4310"
       d="m 338.79882,868.12332 7.70061,38.26339 a 86.708151,86.708151 0 0 0 -15.39316,49.28671 86.708151,86.708151 0 0 0 86.70834,86.70628 86.708151,86.708151 0 0 0 86.70836,-86.70628 86.708151,86.708151 0 0 0 -86.70836,-86.70836 86.708151,86.708151 0 0 0 -42.73393,11.38578 l -36.28186,-12.22752 z"
       style="opacity:1;fill:#000000;fill-opacity:0.0887574;stroke:none;stroke-width:25;stroke-linecap:round;stroke-linejoin:round;stroke-miterlimit:4;stroke-dasharray:none;stroke-dashoffset:0;stroke-opacity:1"
       inkscape:connector-curvature="0"
       clip-path="url(#clipPath4314)" />
    <path
       style="opacity:1;fill:#09b0dc;fill-opacity:1;stroke:none;stroke-width:25;stroke-linecap:round;stroke-linejoin:round;stroke-miterlimit:4;stroke-dasharray:none;stroke-dashoffset:0;stroke-opacity:1"
       d="M 342.47852 331.69141 L 349.94727 368.80273 A 84.097458 84.097458 0 0 0 335.01758 416.60547 A 84.097458 84.097458 0 0 0 419.11523 500.70117 A 84.097458 84.097458 0 0 0 503.21289 416.60547 A 84.097458 84.097458 0 0 0 419.11523 332.50781 A 84.097458 84.097458 0 0 0 377.66797 343.55078 L 342.47852 331.69141 z "
       transform="translate(0,540.36216)"
       id="path4300" />
    <path
       style="fill:#ffffff;stroke:none;stroke-width:1pt;fill-opacity:1"
       d="M 317.09766 376.34375 C 316.18266 376.84475 324.41664 382.21478 339.80664 388.55078 C 355.19764 394.88678 376.45802 410.9412 374.79102 413.5332 C 369.79202 420.5742 366.84781 428.99785 368.88281 443.42188 C 369.24981 445.96087 361.35764 450.36431 361.93164 454.19531 C 362.41164 457.11031 370.75011 451.31103 371.66211 452.45703 C 372.22011 454.51403 367.19952 464.92006 369.22852 465.66406 C 370.71252 466.10506 383.76348 453.28405 384.52148 453.49805 C 406.03548 460.00204 434.02441 455.09663 434.56641 454.89062 C 434.51541 454.77764 454.70789 464.37847 456.46289 463.23047 C 460.88989 458.4365 448.07003 451.68142 450.20703 448.98242 C 451.14403 447.56942 465.81997 454.29103 466.54297 452.45703 C 467.59497 449.28203 459.73183 442.61563 458.54883 440.64062 C 457.51983 438.81965 457.2985 435.87711 459.9375 434.03711 C 462.5775 432.19711 489.56755 421.87086 488.43555 413.88086 C 486.47855 399.36286 454.20264 398.41927 453.68164 397.19727 C 453.43664 396.62327 455.10645 376.43897 445.68945 380.16797 C 439.89145 382.32597 444.61914 395.18661 444.99414 396.84961 C 445.34014 398.38061 442.41623 398.21692 441.86523 397.54492 C 440.63523 396.04292 436.57711 382.6392 431.78711 385.0332 C 425.06911 388.7372 431.39078 400.29883 430.05078 400.67383 C 427.56178 402.06483 427.70398 405.46052 425.70898 408.22852 C 422.41898 412.94352 397.79589 406.01911 389.83789 405.53711 C 384.01189 405.19311 378.44397 409.96933 377.91797 409.36133 C 370.82397 402.25733 356.14736 389.89025 340.06836 385.78125 C 331.05136 383.33425 317.63566 376.25375 317.09766 376.34375 z M 481.31445 389.3418 C 480.77729 389.57363 478.61392 400.73848 479.66211 401.24805 C 480.59111 401.94305 482.20933 389.97152 481.36133 389.35352 C 481.34755 389.33752 481.33178 389.33432 481.31445 389.3418 z M 489.29102 390.86328 C 488.0726 390.84093 481.56188 401.22183 483.05859 402.33008 C 483.98759 403.02508 489.79058 391.29144 489.39258 390.89844 C 489.36473 390.87541 489.33032 390.864 489.29102 390.86328 z M 457.79102 403.50391 A 2.7870379 3.1731946 0 0 1 460.57812 406.67773 A 2.7870379 3.1731946 0 0 1 457.79102 409.84961 A 2.7870379 3.1731946 0 0 1 455.00391 406.67773 A 2.7870379 3.1731946 0 0 1 457.79102 403.50391 z M 451.53516 405.43164 C 452.71916 410.54264 454.56923 412.16691 460.11523 412.00391 C 453.05623 418.47691 448.76416 407.39064 451.53516 405.43164 z M 466.49023 418.79883 C 466.92958 418.76323 467.26586 418.82423 467.45898 419.00977 C 470.23998 420.01777 455.50816 425.32127 455.41016 424.57227 C 455.26228 424.05602 463.41483 419.04826 466.49023 418.79883 z M 468.29688 422.1875 C 468.44909 422.1757 468.58294 422.19551 468.69531 422.25391 C 471.32031 424.86191 460.38481 430.64441 460.50781 430.44141 C 459.62656 429.90891 466.01362 422.36465 468.29688 422.1875 z "
       transform="translate(0,540.36216)"
       id="path14"
       clip-path="url(#clipPath4445)" />
  </g>
</svg>
