<?xml version="1.0" encoding="UTF-8" standalone="no"?>
<!-- Created with Inkscape (http://www.inkscape.org/) -->

<svg
   xmlns:dc="http://purl.org/dc/elements/1.1/"
   xmlns:cc="http://creativecommons.org/ns#"
   xmlns:rdf="http://www.w3.org/1999/02/22-rdf-syntax-ns#"
   xmlns:svg="http://www.w3.org/2000/svg"
   xmlns="http://www.w3.org/2000/svg"
   xmlns:sodipodi="http://sodipodi.sourceforge.net/DTD/sodipodi-0.dtd"
   xmlns:inkscape="http://www.inkscape.org/namespaces/inkscape"
   id="svg3007"
   version="1.1"
   inkscape:version="0.48.4 r9939"
   width="1024"
   height="1024"
   sodipodi:docname="banshee.svg">
  <metadata
     id="metadata3013">
    <rdf:RDF>
      <cc:Work
         rdf:about="">
        <dc:format>image/svg+xml</dc:format>
        <dc:type
           rdf:resource="http://purl.org/dc/dcmitype/StillImage" />
        <dc:title></dc:title>
      </cc:Work>
    </rdf:RDF>
  </metadata>
  <defs
     id="defs3011" />
  <sodipodi:namedview
     pagecolor="#ffffff"
     bordercolor="#666666"
     borderopacity="1"
     objecttolerance="10"
     gridtolerance="10"
     guidetolerance="10"
     inkscape:pageopacity="0"
     inkscape:pageshadow="2"
     inkscape:window-width="1206"
     inkscape:window-height="716"
     id="namedview3009"
     showgrid="false"
     inkscape:zoom="0.11523438"
     inkscape:cx="342.29713"
     inkscape:cy="254.54438"
     inkscape:window-x="15"
     inkscape:window-y="25"
     inkscape:window-maximized="0"
     inkscape:current-layer="svg3007"
     showguides="true"
     inkscape:guide-bbox="true" />
  <rect
     ry="30.58194"
     y="195.60643"
     x="69.506813"
     height="613.62488"
     width="898.0144"
     id="rect3809"
     style="color:#000000;fill:#66a0e0;fill-opacity:1;fill-rule:evenodd;stroke:none;stroke-width:40;marker:none;visibility:visible;display:inline;overflow:visible;enable-background:accumulate" />
  <path
     style="font-size:medium;font-style:normal;font-variant:normal;font-weight:normal;font-stretch:normal;text-indent:0;text-align:start;text-decoration:none;line-height:normal;letter-spacing:normal;word-spacing:normal;text-transform:none;direction:ltr;block-progression:tb;writing-mode:lr-tb;text-anchor:start;baseline-shift:baseline;color:#000000;fill:#2a334e;fill-opacity:1;stroke:none;stroke-width:40;marker:none;visibility:visible;display:inline;overflow:visible;enable-background:accumulate;font-family:Sans;-inkscape-font-specification:Sans"
     d="m 103.15745,175.62001 c -30.453632,0 -55.670562,22.88605 -55.670562,50.5625 l 0,552.46875 c 0,27.67645 25.21693,50.59375 55.670562,50.59375 l 224.53906,0 0,53.625 c 5.7e-4,5.23584 2.35633,10.45395 6.43014,14.15625 4.0738,3.7023 9.81552,5.84323 15.57675,5.84375 l 310.60664,0 c 5.76122,-5.2e-4 11.50294,-2.14145 15.57675,-5.84375 4.0738,-3.7023 6.42956,-8.92041 6.43014,-14.15625 l 0,-53.625 251.56627,0 c 30.45364,0 55.63614,-22.9173 55.63614,-50.59375 l 0,-552.46875 c 0,-27.67645 -25.1825,-50.5625 -55.63614,-50.5625 l -830.72575,0 z m 0,40 830.72575,0 c 6.83131,0 11.62234,4.35416 11.62234,10.5625 l 0,552.46875 c 0,6.20834 -4.79103,10.59375 -11.62234,10.59375 l -830.72575,0 c -6.831322,0 -11.656782,-4.38541 -11.656782,-10.59375 l 0,-552.46875 c 0,-6.20834 4.82546,-10.5625 11.656782,-10.5625 z"
     id="rect3805"
     inkscape:connector-curvature="0" />
  <path
     style="font-size:medium;font-style:normal;font-variant:normal;font-weight:normal;font-stretch:normal;text-indent:0;text-align:start;text-decoration:none;line-height:normal;letter-spacing:normal;word-spacing:normal;text-transform:none;direction:ltr;block-progression:tb;writing-mode:lr-tb;text-anchor:start;baseline-shift:baseline;color:#000000;fill:#ece8ee;fill-opacity:1;stroke:none;stroke-width:40;marker:none;visibility:visible;display:inline;overflow:visible;enable-background:accumulate;font-family:Sans;-inkscape-font-specification:Sans"
     d="m 428.99069,378.51941 c -5.31344,-0.12402 -10.64407,1.97573 -14.44554,5.69014 -3.80146,3.71441 -6.02413,8.99498 -6.02321,14.30986 l 0,207.875 c 0.004,6.97953 3.95932,13.82422 10.00447,17.31277 6.04514,3.48856 13.95048,3.48845 19.99553,-2.7e-4 l 180,-103.9375 c 6.03759,-3.49364 9.98415,-10.33697 9.98415,-17.3125 0,-6.97553 -3.94656,-13.81886 -9.98415,-17.3125 l -180,-103.9375 c -2.88645,-1.67181 -6.19662,-2.60517 -9.53125,-2.6875 z"
     id="path3822"
     inkscape:connector-curvature="0"
     sodipodi:nodetypes="csccsccsccc" />
  <g
     id="g3840"
     style="fill:#000000;fill-opacity:0.435">
    <rect
       ry="0"
       y="244.69641"
       x="689.10071"
       height="73.634987"
       width="73.634987"
       id="rect3828"
       style="color:#000000;fill:#000000;fill-opacity:0.435;fill-rule:evenodd;stroke:none;stroke-width:40;marker:none;visibility:visible;display:inline;overflow:visible;enable-background:accumulate" />
    <rect
       style="color:#000000;fill:#000000;fill-opacity:0.435;fill-rule:evenodd;stroke:none;stroke-width:40;marker:none;visibility:visible;display:inline;overflow:visible;enable-background:accumulate"
       id="rect3830"
       width="73.634987"
       height="73.634987"
       x="549.80786"
       y="244.69641"
       ry="0" />
    <rect
       ry="0"
       y="244.69641"
       x="410.51505"
       height="73.634987"
       width="73.634987"
       id="rect3832"
       style="color:#000000;fill:#000000;fill-opacity:0.435;fill-rule:evenodd;stroke:none;stroke-width:40;marker:none;visibility:visible;display:inline;overflow:visible;enable-background:accumulate" />
    <rect
       style="color:#000000;fill:#000000;fill-opacity:0.435;fill-rule:evenodd;stroke:none;stroke-width:40;marker:none;visibility:visible;display:inline;overflow:visible;enable-background:accumulate"
       id="rect3834"
       width="73.634987"
       height="73.634987"
       x="271.2222"
       y="244.69641"
       ry="0" />
    <rect
       ry="0"
       y="244.69641"
       x="131.92935"
       height="73.634987"
       width="73.634987"
       id="rect3836"
       style="color:#000000;fill:#000000;fill-opacity:0.435;fill-rule:evenodd;stroke:none;stroke-width:40;stroke-linecap:round;stroke-linejoin:round;stroke-miterlimit:4;stroke-opacity:1;stroke-dasharray:none;stroke-dashoffset:0;marker:none;visibility:visible;display:inline;overflow:visible;enable-background:accumulate" />
    <rect
       style="color:#000000;fill:#000000;fill-opacity:0.435;fill-rule:evenodd;stroke:none;stroke-width:40;marker:none;visibility:visible;display:inline;overflow:visible;enable-background:accumulate"
       id="rect3838"
       width="73.634987"
       height="73.634987"
       x="828.39355"
       y="244.69641"
       ry="0" />
  </g>
  <g
     style="fill:#000000;fill-opacity:0.43500001"
     id="g3848"
     transform="translate(0,432.60553)">
    <rect
       style="color:#000000;fill:#000000;fill-opacity:0.43500001;fill-rule:evenodd;stroke:none;stroke-width:40;marker:none;visibility:visible;display:inline;overflow:visible;enable-background:accumulate"
       id="rect3850"
       width="73.634987"
       height="73.634987"
       x="689.10071"
       y="244.69641"
       ry="0" />
    <rect
       ry="0"
       y="244.69641"
       x="549.80786"
       height="73.634987"
       width="73.634987"
       id="rect3852"
       style="color:#000000;fill:#000000;fill-opacity:0.43500001;fill-rule:evenodd;stroke:none;stroke-width:40;marker:none;visibility:visible;display:inline;overflow:visible;enable-background:accumulate" />
    <rect
       style="color:#000000;fill:#000000;fill-opacity:0.43500001;fill-rule:evenodd;stroke:none;stroke-width:40;marker:none;visibility:visible;display:inline;overflow:visible;enable-background:accumulate"
       id="rect3854"
       width="73.634987"
       height="73.634987"
       x="410.51505"
       y="244.69641"
       ry="0" />
    <rect
       ry="0"
       y="244.69641"
       x="271.2222"
       height="73.634987"
       width="73.634987"
       id="rect3856"
       style="color:#000000;fill:#000000;fill-opacity:0.43500001;fill-rule:evenodd;stroke:none;stroke-width:40;marker:none;visibility:visible;display:inline;overflow:visible;enable-background:accumulate" />
    <rect
       style="color:#000000;fill:#000000;fill-opacity:0.43500001;fill-rule:evenodd;stroke:none;stroke-width:40;marker:none;visibility:visible;display:inline;overflow:visible;enable-background:accumulate"
       id="rect3858"
       width="73.634987"
       height="73.634987"
       x="131.92935"
       y="244.69641"
       ry="0" />
    <rect
       ry="0"
       y="244.69641"
       x="828.39355"
       height="73.634987"
       width="73.634987"
       id="rect3860"
       style="color:#000000;fill:#000000;fill-opacity:0.43500001;fill-rule:evenodd;stroke:none;stroke-width:40;marker:none;visibility:visible;display:inline;overflow:visible;enable-background:accumulate" />
  </g>
</svg>
