<?xml version="1.0" encoding="UTF-8" standalone="no"?>
<!-- Created with Inkscape (http://www.inkscape.org/) -->

<svg
   xmlns:dc="http://purl.org/dc/elements/1.1/"
   xmlns:cc="http://creativecommons.org/ns#"
   xmlns:rdf="http://www.w3.org/1999/02/22-rdf-syntax-ns#"
   xmlns:svg="http://www.w3.org/2000/svg"
   xmlns="http://www.w3.org/2000/svg"
   xmlns:sodipodi="http://sodipodi.sourceforge.net/DTD/sodipodi-0.dtd"
   xmlns:inkscape="http://www.inkscape.org/namespaces/inkscape"
   id="svg3007"
   version="1.1"
   inkscape:version="0.48.4 r9939"
   width="512"
   height="512"
   sodipodi:docname="xine.svg">
  <metadata
     id="metadata3013">
    <rdf:RDF>
      <cc:Work
         rdf:about="">
        <dc:format>image/svg+xml</dc:format>
        <dc:type
           rdf:resource="http://purl.org/dc/dcmitype/StillImage" />
        <dc:title />
      </cc:Work>
    </rdf:RDF>
  </metadata>
  <defs
     id="defs3011" />
  <sodipodi:namedview
     pagecolor="#ffffff"
     bordercolor="#666666"
     borderopacity="1"
     objecttolerance="10"
     gridtolerance="10"
     guidetolerance="10"
     inkscape:pageopacity="0"
     inkscape:pageshadow="2"
     inkscape:window-width="1206"
     inkscape:window-height="716"
     id="namedview3009"
     showgrid="false"
     inkscape:zoom="0.32593205"
     inkscape:cx="538.91476"
     inkscape:cy="196.74716"
     inkscape:window-x="15"
     inkscape:window-y="25"
     inkscape:window-maximized="0"
     inkscape:current-layer="svg3007"
     showguides="true"
     inkscape:guide-bbox="true" />
  <rect
     ry="13.795559"
     y="122.40123"
     x="64.082764"
     height="276.8071"
     width="405.09567"
     id="rect3809"
     style="color:#000000;fill:#66a0e0;fill-opacity:1;fill-rule:evenodd;stroke:none;stroke-width:40;marker:none;visibility:visible;display:inline;overflow:visible;enable-background:accumulate" />
  <path
     style="font-size:medium;font-style:normal;font-variant:normal;font-weight:normal;font-stretch:normal;text-indent:0;text-align:start;text-decoration:none;line-height:normal;letter-spacing:normal;word-spacing:normal;text-transform:none;direction:ltr;block-progression:tb;writing-mode:lr-tb;text-anchor:start;baseline-shift:baseline;color:#000000;fill:#2a334e;fill-opacity:1;stroke:none;stroke-width:40;marker:none;visibility:visible;display:inline;overflow:visible;enable-background:accumulate;font-family:Sans;-inkscape-font-specification:Sans"
     d="m 79.262618,113.38532 c -13.73768,0 -25.113075,10.32394 -25.113075,22.80882 l 0,249.21949 c 0,12.48489 11.375395,22.82292 25.113075,22.82292 l 101.289902,0 0,24.19032 c 2.6e-4,2.3619 1.06295,4.71579 2.90065,6.38591 1.8377,1.67011 4.42779,2.63589 7.02669,2.63612 l 140.11513,0 c 2.5989,-2.3e-4 5.18899,-0.96601 7.0267,-2.63612 1.83769,-1.67012 2.90038,-4.02401 2.90064,-6.38591 l 0,-24.19032 113.48193,0 c 13.73768,0 25.09754,-10.33803 25.09754,-22.82292 l 0,-249.21949 c 0,-12.48488 -11.35986,-22.80882 -25.09754,-22.80882 l -374.741642,0 z m 0,18.04406 374.741642,0 c 3.08161,0 5.24285,1.96417 5.24285,4.76476 l 0,249.21949 c 0,2.8006 -2.16124,4.77886 -5.24285,4.77886 l -374.741642,0 c -3.08162,0 -5.258392,-1.97826 -5.258392,-4.77886 l 0,-249.21949 c 0,-2.80059 2.176772,-4.76476 5.258392,-4.76476 z"
     id="rect3805"
     inkscape:connector-curvature="0" />
  <path
     style="font-size:medium;font-style:normal;font-variant:normal;font-weight:normal;font-stretch:normal;text-indent:0;text-align:start;text-decoration:none;line-height:normal;letter-spacing:normal;word-spacing:normal;text-transform:none;direction:ltr;block-progression:tb;writing-mode:lr-tb;text-anchor:start;baseline-shift:baseline;color:#000000;fill:#ece8ee;fill-opacity:1;stroke:none;stroke-width:40;marker:none;visibility:visible;display:inline;overflow:visible;enable-background:accumulate;font-family:Sans;-inkscape-font-specification:Sans"
     d="m 226.24648,204.91355 c -2.3969,-0.056 -4.80156,0.89125 -6.5164,2.56683 -1.71485,1.67558 -2.7175,4.05765 -2.71708,6.4552 l 0,93.77273 c 0.002,3.14847 1.78605,6.23612 4.51303,7.80981 2.72697,1.5737 6.29308,1.57365 9.02001,-1.2e-4 l 81.19827,-46.88636 c 2.72357,-1.57599 4.50387,-4.66302 4.50387,-7.8097 0,-3.14667 -1.7803,-6.2337 -4.50387,-7.80969 l -81.19827,-46.88636 c -1.30208,-0.75416 -2.7953,-1.1752 -4.29956,-1.21234 z"
     id="path3822"
     inkscape:connector-curvature="0"
     sodipodi:nodetypes="csccsccsccc" />
  <g
     id="g3840"
     style="fill:#000000;fill-opacity:0.43500001"
     transform="matrix(0.45110151,0,0,0.45110151,32.728136,34.162872)">
    <rect
       ry="0"
       y="244.69641"
       x="689.10071"
       height="73.634987"
       width="73.634987"
       id="rect3828"
       style="color:#000000;fill:#000000;fill-opacity:0.43500001;fill-rule:evenodd;stroke:none;stroke-width:40;marker:none;visibility:visible;display:inline;overflow:visible;enable-background:accumulate" />
    <rect
       style="color:#000000;fill:#000000;fill-opacity:0.43500001;fill-rule:evenodd;stroke:none;stroke-width:40;marker:none;visibility:visible;display:inline;overflow:visible;enable-background:accumulate"
       id="rect3830"
       width="73.634987"
       height="73.634987"
       x="549.80786"
       y="244.69641"
       ry="0" />
    <rect
       ry="0"
       y="244.69641"
       x="410.51505"
       height="73.634987"
       width="73.634987"
       id="rect3832"
       style="color:#000000;fill:#000000;fill-opacity:0.43500001;fill-rule:evenodd;stroke:none;stroke-width:40;marker:none;visibility:visible;display:inline;overflow:visible;enable-background:accumulate" />
    <rect
       style="color:#000000;fill:#000000;fill-opacity:0.43500001;fill-rule:evenodd;stroke:none;stroke-width:40;marker:none;visibility:visible;display:inline;overflow:visible;enable-background:accumulate"
       id="rect3834"
       width="73.634987"
       height="73.634987"
       x="271.2222"
       y="244.69641"
       ry="0" />
    <rect
       ry="0"
       y="244.69641"
       x="131.92935"
       height="73.634987"
       width="73.634987"
       id="rect3836"
       style="color:#000000;fill:#000000;fill-opacity:0.43500001;fill-rule:evenodd;stroke:none;stroke-width:40;marker:none;visibility:visible;display:inline;overflow:visible;enable-background:accumulate" />
    <rect
       style="color:#000000;fill:#000000;fill-opacity:0.43500001;fill-rule:evenodd;stroke:none;stroke-width:40;marker:none;visibility:visible;display:inline;overflow:visible;enable-background:accumulate"
       id="rect3838"
       width="73.634987"
       height="73.634987"
       x="828.39355"
       y="244.69641"
       ry="0" />
  </g>
  <g
     style="fill:#000000;fill-opacity:0.43500001"
     id="g3848"
     transform="matrix(0.45110151,0,0,0.45110151,32.728136,229.31188)">
    <rect
       style="color:#000000;fill:#000000;fill-opacity:0.43500001;fill-rule:evenodd;stroke:none;stroke-width:40;marker:none;visibility:visible;display:inline;overflow:visible;enable-background:accumulate"
       id="rect3850"
       width="73.634987"
       height="73.634987"
       x="689.10071"
       y="244.69641"
       ry="0" />
    <rect
       ry="0"
       y="244.69641"
       x="549.80786"
       height="73.634987"
       width="73.634987"
       id="rect3852"
       style="color:#000000;fill:#000000;fill-opacity:0.43500001;fill-rule:evenodd;stroke:none;stroke-width:40;marker:none;visibility:visible;display:inline;overflow:visible;enable-background:accumulate" />
    <rect
       style="color:#000000;fill:#000000;fill-opacity:0.43500001;fill-rule:evenodd;stroke:none;stroke-width:40;marker:none;visibility:visible;display:inline;overflow:visible;enable-background:accumulate"
       id="rect3854"
       width="73.634987"
       height="73.634987"
       x="410.51505"
       y="244.69641"
       ry="0" />
    <rect
       ry="0"
       y="244.69641"
       x="271.2222"
       height="73.634987"
       width="73.634987"
       id="rect3856"
       style="color:#000000;fill:#000000;fill-opacity:0.43500001;fill-rule:evenodd;stroke:none;stroke-width:40;marker:none;visibility:visible;display:inline;overflow:visible;enable-background:accumulate" />
    <rect
       style="color:#000000;fill:#000000;fill-opacity:0.43500001;fill-rule:evenodd;stroke:none;stroke-width:40;marker:none;visibility:visible;display:inline;overflow:visible;enable-background:accumulate"
       id="rect3858"
       width="73.634987"
       height="73.634987"
       x="131.92935"
       y="244.69641"
       ry="0" />
    <rect
       ry="0"
       y="244.69641"
       x="828.39355"
       height="73.634987"
       width="73.634987"
       id="rect3860"
       style="color:#000000;fill:#000000;fill-opacity:0.43500001;fill-rule:evenodd;stroke:none;stroke-width:40;marker:none;visibility:visible;display:inline;overflow:visible;enable-background:accumulate" />
  </g>
</svg>
