<?xml version="1.0" encoding="UTF-8" standalone="no"?>
<!-- Created with Inkscape (http://www.inkscape.org/) -->

<svg
   xmlns:dc="http://purl.org/dc/elements/1.1/"
   xmlns:cc="http://creativecommons.org/ns#"
   xmlns:rdf="http://www.w3.org/1999/02/22-rdf-syntax-ns#"
   xmlns:svg="http://www.w3.org/2000/svg"
   xmlns="http://www.w3.org/2000/svg"
   xmlns:sodipodi="http://sodipodi.sourceforge.net/DTD/sodipodi-0.dtd"
   xmlns:inkscape="http://www.inkscape.org/namespaces/inkscape"
   width="16px"
   height="16px"
   id="svg2994"
   version="1.1"
   inkscape:version="0.48.4 r9939"
   sodipodi:docname="red3.svg">
  <defs
     id="defs2996" />
  <sodipodi:namedview
     id="base"
     pagecolor="#728368"
     bordercolor="#666666"
     borderopacity="1.0"
     inkscape:pageopacity="1"
     inkscape:pageshadow="2"
     inkscape:zoom="16"
     inkscape:cx="7.3964985"
     inkscape:cy="4.8728387"
     inkscape:current-layer="layer1"
     showgrid="true"
     inkscape:grid-bbox="true"
     inkscape:document-units="px"
     inkscape:window-width="1360"
     inkscape:window-height="717"
     inkscape:window-x="0"
     inkscape:window-y="25"
     inkscape:window-maximized="1" />
  <metadata
     id="metadata2999">
    <rdf:RDF>
      <cc:Work
         rdf:about="">
        <dc:format>image/svg+xml</dc:format>
        <dc:type
           rdf:resource="http://purl.org/dc/dcmitype/StillImage" />
        <dc:title></dc:title>
      </cc:Work>
    </rdf:RDF>
  </metadata>
  <g
     id="layer1"
     inkscape:label="Layer 1"
     inkscape:groupmode="layer"
     style="opacity:1">
    <path
       style="color:#000000;fill:#ff0000;fill-opacity:0.55686277;stroke:none;stroke-width:2;marker:none;visibility:visible;display:inline;overflow:visible;enable-background:accumulate"
       d="M 8.0295567,14.351 15.933994,2.8365694 C 10.411074,1.25807 5.1014193,1.1666979 0.07,2.8632097 z"
       id="path3002"
       inkscape:connector-curvature="0"
       sodipodi:nodetypes="cccc" />
    <g
       style="font-size:11px;font-style:normal;font-weight:bold;line-height:125%;letter-spacing:0px;word-spacing:0px;fill:#000000;fill-opacity:1;stroke:none;font-family:Sans;-inkscape-font-specification:Sans Bold"
       id="text4133">
      <path
         d="m 8.9016933,3.1124001 c 0,0.1857667 0,0.3412673 0,0.4927962 0,0.1515289 0,0.2990859 0,0.4689653 l 0,0.1923523 0,0.1923522 0,0.1923523 0,0.1923523 0,0.1923523 0,0.1923523 0,0.1923523 0,0.1923523 0,0.1923523 0,0.1923523 -0.2739257,2.2451172 -1.3857422,0 -0.2739258,-2.2451172 0,-0.1923523 0,-0.1923523 0,-0.1923523 0,-0.1923523 0,-0.1923523 0,-0.1923523 0,-0.1923523 0,-0.1923522 0,-0.1923523 0,-0.1923523 0,-0.1923523 0,-0.1923523 0,-0.1923523 0,-0.1923523 0,-0.1923523"
         id="path4138"
         inkscape:connector-curvature="0"
         sodipodi:nodetypes="csccccccccccccccccccccccccccccc"
         style="fill:#ffbf00;fill-opacity:1" />
    </g>
    <rect
       style="color:#000000;fill:#ffbf00;fill-opacity:1;stroke:none;stroke-width:2;marker:none;visibility:visible;display:inline;overflow:visible;enable-background:accumulate"
       id="rect4142"
       width="1.9348698"
       height="0.97826749"
       x="6.9675617"
       y="2.8326042"
       ry="0.27938637" />
    <rect
       style="color:#000000;fill:#ffbf00;fill-opacity:1;stroke:none;stroke-width:2;marker:none;visibility:visible;display:inline;overflow:visible;enable-background:accumulate"
       id="rect4144"
       width="1.953125"
       height="1.921875"
       x="7.015625"
       y="8.953125"
       ry="0.27938637" />
  </g>
</svg>
