<?xml version="1.0" encoding="UTF-8" standalone="no"?>
<svg
   xmlns:osb="http://www.openswatchbook.org/uri/2009/osb"
   xmlns:dc="http://purl.org/dc/elements/1.1/"
   xmlns:cc="http://creativecommons.org/ns#"
   xmlns:rdf="http://www.w3.org/1999/02/22-rdf-syntax-ns#"
   xmlns:svg="http://www.w3.org/2000/svg"
   xmlns="http://www.w3.org/2000/svg"
   xmlns:sodipodi="http://sodipodi.sourceforge.net/DTD/sodipodi-0.dtd"
   xmlns:inkscape="http://www.inkscape.org/namespaces/inkscape"
   height="48"
   width="48"
   viewBox="0 0 48 48"
   id="svg2"
   version="1.1"
   inkscape:version="0.48.4 r9939"
   sodipodi:docname="folder-music.svg"
   inkscape:export-filename="/home/silerio/.icons/oranchelo/apps/scalable/ristretto1.png"
   inkscape:export-xdpi="90"
   inkscape:export-ydpi="90">
  <metadata
     id="metadata16">
    <rdf:RDF>
      <cc:Work
         rdf:about="">
        <dc:format>image/svg+xml</dc:format>
        <dc:type
           rdf:resource="http://purl.org/dc/dcmitype/StillImage" />
        <dc:title></dc:title>
      </cc:Work>
    </rdf:RDF>
  </metadata>
  <defs
     id="defs14">
    <clipPath
       clipPathUnits="userSpaceOnUse"
       id="clipPath4275">
      <path
         style="fill:#424242;fill-opacity:1;stroke:none"
         d="m 63.727539,106.45411 0,26.70507 0,5.3418 0,16.02148 0,251.02344 40.578131,0 96.13672,0 100.43359,0 147.39648,0 0,-147.39648 0,-151.69531 -258.51171,0 -85.45508,0 -40.578131,0 z"
         id="path4277"
         inkscape:connector-curvature="0" />
    </clipPath>
    <filter
       id="filter7554"
       color-interpolation-filters="sRGB"
       inkscape:collect="always">
      <feBlend
         mode="darken"
         in2="BackgroundImage"
         id="feBlend7556"
         inkscape:collect="always" />
    </filter>
    <linearGradient
       osb:paint="solid"
       id="linearGradient5606">
      <stop
         style="stop-color:#000000;stop-opacity:1;"
         offset="0"
         id="stop5608" />
    </linearGradient>
  </defs>
  <sodipodi:namedview
     pagecolor="#ffffff"
     bordercolor="#666666"
     borderopacity="1"
     objecttolerance="10"
     gridtolerance="10"
     guidetolerance="10"
     inkscape:pageopacity="0"
     inkscape:pageshadow="2"
     inkscape:window-width="1360"
     inkscape:window-height="721"
     id="namedview12"
     showgrid="false"
     inkscape:zoom="7.8306452"
     inkscape:cx="21.041299"
     inkscape:cy="22.344622"
     inkscape:window-x="0"
     inkscape:window-y="25"
     inkscape:window-maximized="1"
     inkscape:current-layer="layer6"
     showguides="true"
     inkscape:guide-bbox="true" />
  <g
     inkscape:groupmode="layer"
     id="layer6"
     inkscape:label="Capa#1"
     style="display:inline"
     transform="translate(0,-464)">
    <g
       id="g3836"
       transform="matrix(0.09488178,0,0,0.09488178,-0.50854629,459.04296)">
      <rect
         ry="24.510029"
         y="111.52216"
         x="25.161091"
         height="177.76312"
         width="465.86203"
         id="rect3771"
         style="color:#000000;fill:#42964b;fill-opacity:1;fill-rule:nonzero;stroke:none;stroke-width:0.977;marker:none;visibility:visible;display:inline;overflow:visible;enable-background:accumulate" />
      <rect
         style="color:#000000;fill:#e6e6e6;fill-opacity:1;fill-rule:nonzero;stroke:none;stroke-width:0.977;marker:none;visibility:visible;display:inline;overflow:visible;enable-background:accumulate"
         id="rect3791"
         width="461.77551"
         height="135.8764"
         x="27.20435"
         y="153.40887"
         ry="18.734676" />
      <path
         inkscape:connector-curvature="0"
         id="rect3923-6"
         d="m 45.904605,140.5625 c -15.245157,0 -27.53125,12.25484 -27.53125,27.5 l 0,32.75 0,239.3125 0,3 c 0,13.57856 10.952694,24.53125 24.53125,24.53125 l 3,0 220.062495,0 207.3125,0 c 13.57856,0 24.53125,-10.95269 24.53125,-24.53125 l 0,-242.3125 c 0,-13.57856 -10.95269,-24.5 -24.53125,-24.5 l -167.8125,0 c -4.27539,-2.792 -8.31567,-5.55886 -12,-8.25 -10.47539,-7.65153 -12.25484,-27.5 -27.5,-27.5 l -220.062495,0 z"
         style="color:#000000;fill:#a0e8a2;fill-opacity:1;fill-rule:nonzero;stroke:none;stroke-width:1.39999998;marker:none;visibility:visible;display:inline;overflow:visible;enable-background:accumulate" />
      <path
         sodipodi:nodetypes="sscsscs"
         inkscape:connector-curvature="0"
         id="rect3925-0"
         d="m 51.616943,176.31334 412.243237,0 c 20.37033,0 33.94111,16.39923 33.94111,36.76956 0,0 -22.07209,-28.28427 -35.35532,-28.28427 l -412.243241,0 c -12.249716,0 -31.819805,28.28427 -31.819805,28.28427 0,-20.37033 12.863686,-36.76956 33.234019,-36.76956 z"
         style="color:#000000;fill:#e6e6e6;fill-opacity:0.10326089;fill-rule:nonzero;stroke:none;stroke-width:1.39999998;marker:none;visibility:visible;display:inline;overflow:visible;enable-background:accumulate" />
      <path
         sodipodi:nodetypes="ssccccscscsss"
         style="color:#000000;fill:#ffffff;fill-opacity:0.34239131;fill-rule:nonzero;stroke:none;stroke-width:1.39999998;marker:none;visibility:visible;display:inline;overflow:visible;enable-background:accumulate"
         d="m 45.904605,140.5625 c -15.245157,0 -27.53125,12.25484 -27.53125,27.5 l 0,32.75 c 0,0 5.362571,-50.87405 22.139468,-50.82903 l 224.693937,-0.85356 c 5.51587,0.41022 4.31106,12.17225 32.58254,34.78944 l 173.35612,1.74402 c 8.91637,0.0897 26.66543,15.14913 26.66543,15.14913 0,-13.57856 -10.95269,-24.5 -24.53125,-24.5 l -167.8125,0 c -4.27539,-2.792 -8.31567,-5.55886 -12,-8.25 -10.47539,-7.65153 -12.25484,-27.5 -27.5,-27.5 z"
         id="path3793"
         inkscape:connector-curvature="0" />
      <path
         sodipodi:nodetypes="cssccscssc"
         style="color:#000000;fill:#000000;fill-opacity:0.25543476;fill-rule:nonzero;stroke:none;stroke-width:1.39999998;marker:none;visibility:visible;display:inline;overflow:visible;enable-background:accumulate"
         d="m 18.373355,440.125 0,3 c 0,13.57856 10.952694,24.53125 24.53125,24.53125 l 3,0 220.062495,0 207.3125,0 c 13.57856,0 24.53125,-10.95269 24.53125,-24.53125 0,0 -12.08769,14.66772 -21.42005,14.66772 l -440.632785,0 c -8.812034,0 -17.38466,-17.66772 -17.38466,-17.66772 z"
         id="path3795"
         inkscape:connector-curvature="0" />
      <g
         id="g3801">
        <path
           style="fill:none;stroke:#000000;stroke-width:3.39777732;stroke-linecap:butt;stroke-linejoin:miter;stroke-miterlimit:4;stroke-opacity:0.20108696;stroke-dasharray:none"
           d="m 18.327753,374.59114 479.537127,0"
           id="path3797"
           inkscape:connector-curvature="0" />
        <path
           inkscape:connector-curvature="0"
           id="path3799"
           d="m 18.296768,377.95791 479.537112,0"
           style="fill:none;stroke:#ffffff;stroke-width:3.39777708;stroke-linecap:butt;stroke-linejoin:miter;stroke-miterlimit:4;stroke-opacity:0.33695655;stroke-dasharray:none" />
      </g>
      <g
         transform="translate(0,27.089985)"
         id="g3805">
        <path
           inkscape:connector-curvature="0"
           id="path3807"
           d="m 18.327753,374.59114 479.537127,0"
           style="fill:none;stroke:#000000;stroke-width:3.39777732;stroke-linecap:butt;stroke-linejoin:miter;stroke-miterlimit:4;stroke-opacity:0.20108696;stroke-dasharray:none" />
        <path
           style="fill:none;stroke:#ffffff;stroke-width:3.39777708;stroke-linecap:butt;stroke-linejoin:miter;stroke-miterlimit:4;stroke-opacity:0.33695655;stroke-dasharray:none"
           d="m 18.296768,377.95791 479.537112,0"
           id="path3809"
           inkscape:connector-curvature="0" />
      </g>
      <g
         transform="translate(0,54.179963)"
         id="g3811">
        <path
           style="fill:none;stroke:#000000;stroke-width:3.39777732;stroke-linecap:butt;stroke-linejoin:miter;stroke-miterlimit:4;stroke-opacity:0.20108696;stroke-dasharray:none"
           d="m 18.327753,374.59114 479.537127,0"
           id="path3813"
           inkscape:connector-curvature="0" />
        <path
           inkscape:connector-curvature="0"
           id="path3815"
           d="m 18.296768,377.95791 479.537112,0"
           style="fill:none;stroke:#ffffff;stroke-width:3.39777708;stroke-linecap:butt;stroke-linejoin:miter;stroke-miterlimit:4;stroke-opacity:0.33695655;stroke-dasharray:none" />
      </g>
    </g>
    <g
       id="g4835"
       transform="translate(-0.12715432,0.1242244)">
      <path
         sodipodi:nodetypes="ssssssccssssssccs"
         inkscape:connector-curvature="0"
         id="rect4766"
         d="m 20.735449,480.05427 c -0.992703,0 -1.822473,0.8048 -1.822473,1.7975 l 0,9.06244 c 0,0.99262 0.82977,1.82247 1.822473,1.82247 l 6.740654,0 c 0.992702,0 1.822473,-0.82985 1.822473,-1.82247 l 0,-6.96534 -1.413665,-1.66956 0.0156,8.6349 c 4.34e-4,0.24014 -0.184195,0.42441 -0.424411,0.42441 l -6.740654,0 c -0.240216,0 -0.424411,-0.18427 -0.424411,-0.42441 l 0,-9.06244 c 0,-0.24022 0.184196,-0.39944 0.424412,-0.39944 l 6.466034,0 -1.173373,-1.39806 z"
         style="font-size:medium;font-style:normal;font-variant:normal;font-weight:normal;font-stretch:normal;text-indent:0;text-align:start;text-decoration:none;line-height:normal;letter-spacing:normal;word-spacing:normal;text-transform:none;direction:ltr;block-progression:tb;writing-mode:lr-tb;text-anchor:start;baseline-shift:baseline;color:#000000;fill:#2a3b3f;fill-opacity:1;stroke:none;stroke-width:1.755;marker:none;visibility:visible;display:inline;overflow:visible;enable-background:accumulate;font-family:Sans;-inkscape-font-specification:Sans" />
      <path
         sodipodi:nodetypes="cccc"
         inkscape:connector-curvature="0"
         id="path4790"
         d="m 26.02811,480.05427 -0.0044,3.90191 3.274788,-0.008 z"
         style="fill:#2a3b3f;fill-opacity:1;stroke:none" />
      <g
         transform="matrix(0.79889229,0,0,0.79889229,-6.1522697,-335.7044)"
         style="fill:#2a3b3f;fill-opacity:1;stroke:#2a3b3f;stroke-opacity:1"
         id="g4812">
        <path
           style="fill:#2a3b3f;fill-opacity:1;stroke:#2a3b3f;stroke-width:0.69999999;stroke-linecap:round;stroke-linejoin:miter;stroke-miterlimit:4;stroke-opacity:1;stroke-dasharray:none"
           d="m 34.519333,1030.928 5.833631,0"
           id="path4792"
           inkscape:connector-curvature="0" />
        <path
           inkscape:connector-curvature="0"
           id="path4794"
           d="m 34.519333,1033.0052 5.833631,0"
           style="fill:#2a3b3f;fill-opacity:1;stroke:#2a3b3f;stroke-width:0.69999999;stroke-linecap:round;stroke-linejoin:miter;stroke-miterlimit:4;stroke-opacity:1;stroke-dasharray:none" />
        <path
           style="fill:#2a3b3f;fill-opacity:1;stroke:#2a3b3f;stroke-width:0.69999999;stroke-linecap:round;stroke-linejoin:miter;stroke-miterlimit:4;stroke-opacity:1;stroke-dasharray:none"
           d="m 34.519333,1028.8509 3.685181,0"
           id="path4796"
           inkscape:connector-curvature="0" />
      </g>
    </g>
  </g>
</svg>
