<?xml version="1.0" encoding="UTF-8" standalone="no"?>
<svg
   xmlns:dc="http://purl.org/dc/elements/1.1/"
   xmlns:cc="http://creativecommons.org/ns#"
   xmlns:rdf="http://www.w3.org/1999/02/22-rdf-syntax-ns#"
   xmlns:svg="http://www.w3.org/2000/svg"
   xmlns="http://www.w3.org/2000/svg"
   xmlns:sodipodi="http://sodipodi.sourceforge.net/DTD/sodipodi-0.dtd"
   xmlns:inkscape="http://www.inkscape.org/namespaces/inkscape"
   height="48"
   width="48"
   viewBox="0 0 48 48"
   id="svg2"
   version="1.1"
   inkscape:version="0.48.4 r9939"
   sodipodi:docname="folder.svg"
   inkscape:export-filename="/home/silerio/.icons/oranchelo/apps/scalable/ristretto1.png"
   inkscape:export-xdpi="90"
   inkscape:export-ydpi="90">
  <metadata
     id="metadata16">
    <rdf:RDF>
      <cc:Work
         rdf:about="">
        <dc:format>image/svg+xml</dc:format>
        <dc:type
           rdf:resource="http://purl.org/dc/dcmitype/StillImage" />
        <dc:title></dc:title>
      </cc:Work>
    </rdf:RDF>
  </metadata>
  <defs
     id="defs14">
    <clipPath
       clipPathUnits="userSpaceOnUse"
       id="clipPath4275">
      <path
         style="fill:#424242;fill-opacity:1;stroke:none"
         d="m 63.727539,106.45411 0,26.70507 0,5.3418 0,16.02148 0,251.02344 40.578131,0 96.13672,0 100.43359,0 147.39648,0 0,-147.39648 0,-151.69531 -258.51171,0 -85.45508,0 -40.578131,0 z"
         id="path4277"
         inkscape:connector-curvature="0" />
    </clipPath>
  </defs>
  <sodipodi:namedview
     pagecolor="#ffffff"
     bordercolor="#666666"
     borderopacity="1"
     objecttolerance="10"
     gridtolerance="10"
     guidetolerance="10"
     inkscape:pageopacity="0"
     inkscape:pageshadow="2"
     inkscape:window-width="1360"
     inkscape:window-height="721"
     id="namedview12"
     showgrid="false"
     inkscape:zoom="7.8306452"
     inkscape:cx="21.041299"
     inkscape:cy="22.344622"
     inkscape:window-x="0"
     inkscape:window-y="25"
     inkscape:window-maximized="1"
     inkscape:current-layer="layer6"
     showguides="true"
     inkscape:guide-bbox="true" />
  <g
     inkscape:groupmode="layer"
     id="layer6"
     inkscape:label="Capa#1"
     style="display:inline"
     transform="translate(0,-464)">
    <g
       id="g3836"
       transform="matrix(0.09488178,0,0,0.09488178,-0.50854629,459.04296)">
      <rect
         ry="24.510029"
         y="111.52216"
         x="25.161091"
         height="177.76312"
         width="465.86203"
         id="rect3771"
         style="color:#000000;fill:#42964b;fill-opacity:1;fill-rule:nonzero;stroke:none;stroke-width:0.977;marker:none;visibility:visible;display:inline;overflow:visible;enable-background:accumulate" />
      <rect
         style="color:#000000;fill:#e6e6e6;fill-opacity:1;fill-rule:nonzero;stroke:none;stroke-width:0.977;marker:none;visibility:visible;display:inline;overflow:visible;enable-background:accumulate"
         id="rect3791"
         width="461.77551"
         height="135.8764"
         x="27.20435"
         y="153.40887"
         ry="18.734676" />
      <path
         inkscape:connector-curvature="0"
         id="rect3923-6"
         d="m 45.904605,140.5625 c -15.245157,0 -27.53125,12.25484 -27.53125,27.5 l 0,32.75 0,239.3125 0,3 c 0,13.57856 10.952694,24.53125 24.53125,24.53125 l 3,0 220.062495,0 207.3125,0 c 13.57856,0 24.53125,-10.95269 24.53125,-24.53125 l 0,-242.3125 c 0,-13.57856 -10.95269,-24.5 -24.53125,-24.5 l -167.8125,0 c -4.27539,-2.792 -8.31567,-5.55886 -12,-8.25 -10.47539,-7.65153 -12.25484,-27.5 -27.5,-27.5 l -220.062495,0 z"
         style="color:#000000;fill:#a0e8a2;fill-opacity:1;fill-rule:nonzero;stroke:none;stroke-width:1.39999998;marker:none;visibility:visible;display:inline;overflow:visible;enable-background:accumulate" />
      <path
         sodipodi:nodetypes="sscsscs"
         inkscape:connector-curvature="0"
         id="rect3925-0"
         d="m 51.616943,176.31334 412.243237,0 c 20.37033,0 33.94111,16.39923 33.94111,36.76956 0,0 -22.07209,-28.28427 -35.35532,-28.28427 l -412.243241,0 c -12.249716,0 -31.819805,28.28427 -31.819805,28.28427 0,-20.37033 12.863686,-36.76956 33.234019,-36.76956 z"
         style="color:#000000;fill:#e6e6e6;fill-opacity:0.10326089;fill-rule:nonzero;stroke:none;stroke-width:1.39999998;marker:none;visibility:visible;display:inline;overflow:visible;enable-background:accumulate" />
      <path
         sodipodi:nodetypes="ssccccscscsss"
         style="color:#000000;fill:#ffffff;fill-opacity:0.34239131;fill-rule:nonzero;stroke:none;stroke-width:1.39999998;marker:none;visibility:visible;display:inline;overflow:visible;enable-background:accumulate"
         d="m 45.904605,140.5625 c -15.245157,0 -27.53125,12.25484 -27.53125,27.5 l 0,32.75 c 0,0 5.362571,-50.87405 22.139468,-50.82903 l 224.693937,-0.85356 c 5.51587,0.41022 4.31106,12.17225 32.58254,34.78944 l 173.35612,1.74402 c 8.91637,0.0897 26.66543,15.14913 26.66543,15.14913 0,-13.57856 -10.95269,-24.5 -24.53125,-24.5 l -167.8125,0 c -4.27539,-2.792 -8.31567,-5.55886 -12,-8.25 -10.47539,-7.65153 -12.25484,-27.5 -27.5,-27.5 z"
         id="path3793"
         inkscape:connector-curvature="0" />
      <path
         sodipodi:nodetypes="cssccscssc"
         style="color:#000000;fill:#000000;fill-opacity:0.25543476;fill-rule:nonzero;stroke:none;stroke-width:1.39999998;marker:none;visibility:visible;display:inline;overflow:visible;enable-background:accumulate"
         d="m 18.373355,440.125 0,3 c 0,13.57856 10.952694,24.53125 24.53125,24.53125 l 3,0 220.062495,0 207.3125,0 c 13.57856,0 24.53125,-10.95269 24.53125,-24.53125 0,0 -12.08769,14.66772 -21.42005,14.66772 l -440.632785,0 c -8.812034,0 -17.38466,-17.66772 -17.38466,-17.66772 z"
         id="path3795"
         inkscape:connector-curvature="0" />
      <g
         id="g3801">
        <path
           style="fill:none;stroke:#000000;stroke-width:3.39777732;stroke-linecap:butt;stroke-linejoin:miter;stroke-miterlimit:4;stroke-opacity:0.20108696;stroke-dasharray:none"
           d="m 18.327753,374.59114 479.537127,0"
           id="path3797"
           inkscape:connector-curvature="0" />
        <path
           inkscape:connector-curvature="0"
           id="path3799"
           d="m 18.296768,377.95791 479.537112,0"
           style="fill:none;stroke:#ffffff;stroke-width:3.39777708;stroke-linecap:butt;stroke-linejoin:miter;stroke-miterlimit:4;stroke-opacity:0.33695655;stroke-dasharray:none" />
      </g>
      <g
         transform="translate(0,27.089985)"
         id="g3805">
        <path
           inkscape:connector-curvature="0"
           id="path3807"
           d="m 18.327753,374.59114 479.537127,0"
           style="fill:none;stroke:#000000;stroke-width:3.39777732;stroke-linecap:butt;stroke-linejoin:miter;stroke-miterlimit:4;stroke-opacity:0.20108696;stroke-dasharray:none" />
        <path
           style="fill:none;stroke:#ffffff;stroke-width:3.39777708;stroke-linecap:butt;stroke-linejoin:miter;stroke-miterlimit:4;stroke-opacity:0.33695655;stroke-dasharray:none"
           d="m 18.296768,377.95791 479.537112,0"
           id="path3809"
           inkscape:connector-curvature="0" />
      </g>
      <g
         transform="translate(0,54.179963)"
         id="g3811">
        <path
           style="fill:none;stroke:#000000;stroke-width:3.39777732;stroke-linecap:butt;stroke-linejoin:miter;stroke-miterlimit:4;stroke-opacity:0.20108696;stroke-dasharray:none"
           d="m 18.327753,374.59114 479.537127,0"
           id="path3813"
           inkscape:connector-curvature="0" />
        <path
           inkscape:connector-curvature="0"
           id="path3815"
           d="m 18.296768,377.95791 479.537112,0"
           style="fill:none;stroke:#ffffff;stroke-width:3.39777708;stroke-linecap:butt;stroke-linejoin:miter;stroke-miterlimit:4;stroke-opacity:0.33695655;stroke-dasharray:none" />
      </g>
    </g>
    <g
       id="g3877"
       transform="translate(-0.58296136,-0.46720834)">
      <rect
         ry="0.93421274"
         y="483.02509"
         x="17.366814"
         height="8.75527"
         width="14.389539"
         id="rect3868"
         style="color:#000000;fill:none;stroke:#2a3b3f;stroke-width:1.19500005;stroke-linecap:round;stroke-linejoin:round;stroke-miterlimit:4;stroke-opacity:1;stroke-dasharray:none;stroke-dashoffset:0;marker:none;visibility:visible;display:inline;overflow:visible;enable-background:accumulate" />
      <path
         sodipodi:nodetypes="csscccccsscc"
         inkscape:connector-curvature="0"
         id="rect3870"
         d="m 19.202837,481.59596 c -0.409768,0 -0.748647,0.39792 -0.748647,0.87912 0,0.11746 -0.02637,0.25778 0,0.45281 0.01318,0.0975 0.03968,0.22155 0.136118,0.31967 0.09644,0.0981 0.233239,0.13409 0.340294,0.13323 l 3.198762,-0.0264 c 0.102188,-8.5e-4 0.220287,-0.0418 0.317608,-0.13315 0.09732,-0.0912 0.14465,-0.22232 0.158803,-0.31967 0.0283,-0.19486 0,-0.30875 0,-0.42622 0,-0.4812 -0.338881,-0.87912 -0.748646,-0.87912 l -2.654292,0 z"
         style="font-size:medium;font-style:normal;font-variant:normal;font-weight:normal;font-stretch:normal;text-indent:0;text-align:start;text-decoration:none;line-height:normal;letter-spacing:normal;word-spacing:normal;text-transform:none;direction:ltr;block-progression:tb;writing-mode:lr-tb;text-anchor:start;baseline-shift:baseline;color:#000000;fill:#2a3b3f;fill-opacity:1;stroke:none;stroke-width:1.20000005;marker:none;visibility:visible;display:inline;overflow:visible;enable-background:accumulate;font-family:Sans;-inkscape-font-specification:Sans" />
      <path
         inkscape:connector-curvature="0"
         id="path3877"
         d="m 21.311939,484.70074 2.104414,0"
         style="fill:none;stroke:#2a3b3f;stroke-width:1.31500006;stroke-linecap:round;stroke-linejoin:miter;stroke-miterlimit:4;stroke-opacity:1;stroke-dasharray:none" />
      <path
         transform="matrix(0.5551218,0,0,0.5551218,10.883534,468.6305)"
         d="m 33.461303,34.678612 c 0,2.649986 -2.148239,4.798224 -4.798225,4.798224 -2.649986,0 -4.798224,-2.148238 -4.798224,-4.798224 0,-2.649986 2.148238,-4.798225 4.798224,-4.798225 2.649986,0 4.798225,2.148239 4.798225,4.798225 z"
         sodipodi:ry="4.7982244"
         sodipodi:rx="4.7982244"
         sodipodi:cy="34.678612"
         sodipodi:cx="28.663078"
         id="path3879"
         style="fill:none;stroke:#2a3b3f;stroke-width:1.75997412;stroke-linecap:butt;stroke-linejoin:miter;stroke-miterlimit:4;stroke-opacity:1;stroke-dasharray:none"
         sodipodi:type="arc" />
      <path
         sodipodi:type="arc"
         style="fill:#2a3b3f;fill-opacity:1;stroke:none"
         id="path3881"
         sodipodi:cx="28.663078"
         sodipodi:cy="34.678612"
         sodipodi:rx="4.7982244"
         sodipodi:ry="4.7982244"
         d="m 33.461303,34.678612 c 0,2.649986 -2.148239,4.798224 -4.798225,4.798224 -2.649986,0 -4.798224,-2.148238 -4.798224,-4.798224 0,-2.649986 2.148238,-4.798225 4.798224,-4.798225 2.649986,0 4.798225,2.148239 4.798225,4.798225 z"
         transform="matrix(0.31527181,0,0,0.31527181,17.758373,476.94818)" />
      <path
         transform="matrix(0.86743246,0,0,0.86743246,0.261911,460.076)"
         d="m 34.597723,28.459862 c 0,0.261512 -0.211997,0.473509 -0.473509,0.473509 -0.261512,0 -0.473509,-0.211997 -0.473509,-0.473509 0,-0.261512 0.211997,-0.473509 0.473509,-0.473509 0.261512,0 0.473509,0.211997 0.473509,0.473509 z"
         sodipodi:ry="0.47350901"
         sodipodi:rx="0.47350901"
         sodipodi:cy="28.459862"
         sodipodi:cx="34.124214"
         id="path3885"
         style="fill:#8a8a8a;fill-opacity:1;fill-rule:evenodd;stroke:#2a3b3f;stroke-width:1px;stroke-linecap:butt;stroke-linejoin:miter;stroke-opacity:1"
         sodipodi:type="arc" />
    </g>
  </g>
</svg>
