<?xml version="1.0" encoding="UTF-8" standalone="no"?>
<!-- Created with Inkscape (http://www.inkscape.org/) -->

<svg
   xmlns:dc="http://purl.org/dc/elements/1.1/"
   xmlns:cc="http://creativecommons.org/ns#"
   xmlns:rdf="http://www.w3.org/1999/02/22-rdf-syntax-ns#"
   xmlns:svg="http://www.w3.org/2000/svg"
   xmlns="http://www.w3.org/2000/svg"
   xmlns:sodipodi="http://sodipodi.sourceforge.net/DTD/sodipodi-0.dtd"
   xmlns:inkscape="http://www.inkscape.org/namespaces/inkscape"
   width="16"
   height="16"
   id="svg2"
   version="1.1"
   inkscape:version="0.48.4 r9939"
   sodipodi:docname="folder-templates.svg"
   inkscape:export-filename="/media/Data/Main/Visuals/Icons/Numix/Desktop/repos/numix-wiki/Gjorgi/Numix-folders/48/New/folder-144.png"
   inkscape:export-xdpi="270"
   inkscape:export-ydpi="270">
  <defs
     id="defs4" />
  <sodipodi:namedview
     id="base"
     pagecolor="#ffffff"
     bordercolor="#666666"
     borderopacity="1.0"
     inkscape:pageopacity="0.0"
     inkscape:pageshadow="2"
     inkscape:zoom="16.445663"
     inkscape:cx="-11.990796"
     inkscape:cy="12.627328"
     inkscape:document-units="px"
     inkscape:current-layer="layer1"
     showgrid="true"
     inkscape:window-width="1360"
     inkscape:window-height="721"
     inkscape:window-x="0"
     inkscape:window-y="25"
     inkscape:window-maximized="1"
     showguides="true"
     inkscape:guide-bbox="true">
    <inkscape:grid
       type="xygrid"
       id="grid2985"
       empspacing="5"
       visible="true"
       enabled="true"
       snapvisiblegridlinesonly="true" />
  </sodipodi:namedview>
  <metadata
     id="metadata7">
    <rdf:RDF>
      <cc:Work
         rdf:about="">
        <dc:format>image/svg+xml</dc:format>
        <dc:type
           rdf:resource="http://purl.org/dc/dcmitype/StillImage" />
        <dc:title />
      </cc:Work>
    </rdf:RDF>
  </metadata>
  <g
     inkscape:label="Layer 1"
     inkscape:groupmode="layer"
     id="layer1"
     transform="translate(0,-1036.3622)"
     style="opacity:1">
    <g
       id="g3846"
       transform="matrix(0.89779817,0,0,0.89779817,-13.063455,1015.687)"
       style="fill:#2a3b3f;fill-opacity:1;stroke:#2a3b3f;stroke-opacity:1">
      <g
         transform="translate(0,-1004.3622)"
         id="layer1-5"
         inkscape:label="Capa 1"
         style="fill:#2a3b3f;fill-opacity:1;stroke:#2a3b3f;stroke-opacity:1">
        <path
           sodipodi:nodetypes="cccccccccccccccccccccccccccccccccccccccc"
           inkscape:connector-curvature="0"
           id="path143"
           d="m 17.975648,1027.8953 0,1.2182 7.957603,0 3.531134,4.31 0,8.4751 -1.104117,0 0,1.0458 2.14864,0 -0.04653,-9.7731 0,-0.2525 -4.115642,-5.0235 z m 0.01592,2.0123 0,2.4341 0.997992,0 0,-2.4341 z m 0,4.8704 0,2.4364 0.997992,0 0,-2.4364 z m 0,5.0815 0,2.0391 -1.66883,0 0,1.0439 1.66883,0 0,1.8414 0.996359,0 0,-1.8414 1.670665,0 0,-1.0439 -1.670665,0 0,-2.0391 z m 4.835869,2.0391 0,1.0458 2.859276,0 0,-1.0458 z"
           style="font-size:medium;font-style:normal;font-variant:normal;font-weight:normal;font-stretch:normal;text-indent:0;text-align:start;text-decoration:none;line-height:normal;letter-spacing:normal;word-spacing:normal;text-transform:none;direction:ltr;block-progression:tb;writing-mode:lr-tb;text-anchor:start;baseline-shift:baseline;color:#000000;fill:#2a3b3f;fill-opacity:1;stroke:#2a3b3f;stroke-width:0.95817953000000000;stroke-miterlimit:4;stroke-opacity:1;stroke-dasharray:none;marker:none;visibility:visible;display:inline;overflow:visible;enable-background:accumulate;font-family:Sans;-inkscape-font-specification:Sans" />
      </g>
      <g
         style="fill:#2a3b3f;fill-opacity:1;stroke:#2a3b3f;stroke-opacity:1;display:none"
         inkscape:label="otra"
         id="layer2">
        <path
           sodipodi:nodetypes="cccccc"
           inkscape:connector-curvature="0"
           id="rect3800"
           d="m 25.892857,15.137441 19.285715,0 0,26.076845 -9.35065,-6.964286 -9.935065,6.964286 z"
           style="fill:#2a3b3f;fill-opacity:1;stroke:#2a3b3f;stroke-opacity:1" />
        <path
           sodipodi:nodetypes="ccccccccc"
           inkscape:connector-curvature="0"
           id="rect3828"
           d="m 33.75,24.517858 2.1769,2.298434 5.858815,-5.066291 3.039304,4.372756 0.0027,14.345613 -9.02267,-6.741979 -9.476602,6.75158 0.115951,-8.524609 z"
           style="fill:#2a3b3f;fill-opacity:1;stroke:#2a3b3f;stroke-opacity:1" />
        <path
           sodipodi:nodetypes="ccccccc"
           inkscape:connector-curvature="0"
           id="rect3831"
           d="m 26.389126,31.972614 7.364825,-7.455806 11.089959,11.766364 -0.01378,4.188056 -9.032417,-6.742188 -9.471082,6.765625 z"
           style="fill:#2a3b3f;fill-opacity:1;stroke:#2a3b3f;stroke-opacity:1" />
        <path
           d="m 33.057242,19.538952 c 0,1.562097 -1.305903,2.828427 -2.916815,2.828427 -1.610913,0 -2.916816,-1.26633 -2.916816,-2.828427 0,-1.562097 1.305903,-2.828427 2.916816,-2.828427 1.610912,0 2.916815,1.26633 2.916815,2.828427 z"
           sodipodi:ry="2.8284271"
           sodipodi:rx="2.9168155"
           sodipodi:cy="19.538952"
           sodipodi:cx="30.140427"
           id="path3834"
           style="fill:#2a3b3f;fill-opacity:1;fill-rule:evenodd;stroke:#2a3b3f;stroke-opacity:1"
           sodipodi:type="arc" />
      </g>
      <g
         inkscape:label="Capa#1"
         id="layer5"
         style="fill:#2a3b3f;fill-opacity:1;stroke:#2a3b3f;stroke-opacity:1" />
      <g
         style="fill:#2a3b3f;fill-opacity:1;stroke:#2a3b3f;stroke-opacity:1;display:none"
         inkscape:label="Capa"
         id="layer3">
        <path
           inkscape:connector-curvature="0"
           id="path3837"
           d="m 26.5,15.1875 -0.1875,25.1875 9.5,-6.625 9,6.75 L 44.75,15.3125"
           style="fill:#2a3b3f;fill-opacity:1;stroke:#2a3b3f;stroke-width:0.20000000000000001;stroke-linecap:round;stroke-linejoin:miter;stroke-miterlimit:4;stroke-opacity:1;stroke-dasharray:0.60000001000000003, 0.60000001000000003;stroke-dashoffset:0.10000000000000001" />
      </g>
    </g>
  </g>
</svg>
