<?xml version="1.0" encoding="UTF-8" standalone="no"?>
<!-- Created with Inkscape (http://www.inkscape.org/) -->

<svg
   xmlns:dc="http://purl.org/dc/elements/1.1/"
   xmlns:cc="http://creativecommons.org/ns#"
   xmlns:rdf="http://www.w3.org/1999/02/22-rdf-syntax-ns#"
   xmlns:svg="http://www.w3.org/2000/svg"
   xmlns="http://www.w3.org/2000/svg"
   xmlns:sodipodi="http://sodipodi.sourceforge.net/DTD/sodipodi-0.dtd"
   xmlns:inkscape="http://www.inkscape.org/namespaces/inkscape"
   width="16px"
   height="16px"
   id="svg2990"
   version="1.1"
   inkscape:version="0.48.4 r9939"
   sodipodi:docname="folder-pictures.svg">
  <defs
     id="defs2992" />
  <sodipodi:namedview
     id="base"
     pagecolor="#ffffff"
     bordercolor="#666666"
     borderopacity="1.0"
     inkscape:pageopacity="0.0"
     inkscape:pageshadow="2"
     inkscape:zoom="7.8481082"
     inkscape:cx="6.8617108"
     inkscape:cy="9.5137777"
     inkscape:current-layer="layer1"
     showgrid="true"
     inkscape:grid-bbox="true"
     inkscape:document-units="px"
     inkscape:window-width="1360"
     inkscape:window-height="721"
     inkscape:window-x="0"
     inkscape:window-y="25"
     inkscape:window-maximized="1" />
  <metadata
     id="metadata2995">
    <rdf:RDF>
      <cc:Work
         rdf:about="">
        <dc:format>image/svg+xml</dc:format>
        <dc:type
           rdf:resource="http://purl.org/dc/dcmitype/StillImage" />
        <dc:title></dc:title>
      </cc:Work>
    </rdf:RDF>
  </metadata>
  <g
     id="layer1"
     inkscape:label="Layer 1"
     inkscape:groupmode="layer">
    <rect
       style="color:#000000;fill:none;stroke:#2a3b3f;stroke-width:1.195;stroke-linecap:round;stroke-linejoin:round;stroke-miterlimit:4;stroke-opacity:1;stroke-dasharray:none;stroke-dashoffset:0;marker:none;visibility:visible;display:inline;overflow:visible;enable-background:accumulate"
       id="rect3868"
       width="14.389539"
       height="8.75527"
       x="0.90773922"
       y="4.3269334"
       ry="0.93421274" />
    <path
       style="font-size:medium;font-style:normal;font-variant:normal;font-weight:normal;font-stretch:normal;text-indent:0;text-align:start;text-decoration:none;line-height:normal;letter-spacing:normal;word-spacing:normal;text-transform:none;direction:ltr;block-progression:tb;writing-mode:lr-tb;text-anchor:start;baseline-shift:baseline;color:#000000;fill:#2a3b3f;fill-opacity:1;stroke:none;stroke-width:1.2;marker:none;visibility:visible;display:inline;overflow:visible;enable-background:accumulate;font-family:Sans;-inkscape-font-specification:Sans;stroke-miterlimit:4;stroke-dasharray:none"
       d="m 2.7437619,2.8977991 c -0.4097675,0 -0.7486464,0.3979182 -0.7486464,0.8791199 0,0.117466 -0.026367,0.2577774 0,0.4528153 0.013183,0.097519 0.039681,0.2215488 0.1361175,0.3196645 0.09644,0.098116 0.2332387,0.1340886 0.3402938,0.1332361 L 5.670289,4.656209 c 0.1021884,-8.496e-4 0.2202875,-0.041769 0.3176076,-0.1331509 0.09732,-0.091211 0.1446505,-0.222316 0.1588038,-0.3196645 0.028305,-0.1948674 0,-0.3087532 0,-0.4262192 0,-0.4812016 -0.3388811,-0.8791199 -0.7486465,-0.8791199 l -2.654292,0 z"
       id="rect3870"
       inkscape:connector-curvature="0"
       sodipodi:nodetypes="csscccccsscc" />
    <path
       style="fill:none;stroke:#2a3b3f;stroke-width:1.315;stroke-linecap:round;stroke-linejoin:miter;stroke-miterlimit:4;stroke-opacity:1;stroke-dasharray:none"
       d="m 4.852864,6.0025774 2.104414,0"
       id="path3877"
       inkscape:connector-curvature="0" />
    <path
       sodipodi:type="arc"
       style="fill:none;stroke:#2a3b3f;stroke-width:1.75997412;stroke-linecap:butt;stroke-linejoin:miter;stroke-miterlimit:4;stroke-opacity:1;stroke-dasharray:none"
       id="path3879"
       sodipodi:cx="28.663078"
       sodipodi:cy="34.678612"
       sodipodi:rx="4.7982244"
       sodipodi:ry="4.7982244"
       d="m 33.461303,34.678612 a 4.7982244,4.7982244 0 1 1 -9.596449,0 4.7982244,4.7982244 0 1 1 9.596449,0 z"
       transform="matrix(0.5551218,0,0,0.5551218,-5.5755413,-10.067662)" />
    <path
       transform="matrix(0.31527181,0,0,0.31527181,1.2992976,-1.7499833)"
       d="m 33.461303,34.678612 a 4.7982244,4.7982244 0 1 1 -9.596449,0 4.7982244,4.7982244 0 1 1 9.596449,0 z"
       sodipodi:ry="4.7982244"
       sodipodi:rx="4.7982244"
       sodipodi:cy="34.678612"
       sodipodi:cx="28.663078"
       id="path3881"
       style="fill:#2a3b3f;fill-opacity:1;stroke:none;stroke-width:0.80000000999999998;stroke-linecap:butt;stroke-linejoin:miter;stroke-miterlimit:4;stroke-opacity:1;stroke-dasharray:none"
       sodipodi:type="arc" />
    <path
       sodipodi:type="arc"
       style="fill:#8a8a8a;fill-opacity:1;fill-rule:evenodd;stroke:#2a3b3f;stroke-width:1px;stroke-linecap:butt;stroke-linejoin:miter;stroke-opacity:1"
       id="path3885"
       sodipodi:cx="34.124214"
       sodipodi:cy="28.459862"
       sodipodi:rx="0.47350901"
       sodipodi:ry="0.47350901"
       d="m 34.597723,28.459862 a 0.47350901,0.47350901 0 1 1 -0.947018,0 0.47350901,0.47350901 0 1 1 0.947018,0 z"
       transform="matrix(0.86743246,0,0,0.86743246,-16.197164,-18.622159)" />
  </g>
</svg>
